%TF.GenerationSoftware,KiCad,Pcbnew,10.0.3*%
%TF.CreationDate,2026-08-07T23:50:02+12:00*%
%TF.ProjectId,rcm4,72636d34-2e6b-4696-9361-645f70636258,A*%
%TF.SameCoordinates,Original*%
%TF.FileFunction,Drillmap*%
%TF.FilePolarity,Positive*%
%FSLAX45Y45*%
G04 Gerber Fmt 4.5, Leading zero omitted, Abs format (unit mm)*
G04 Created by KiCad (PCBNEW 10.0.3) date 2026-08-07 23:50:02*
%MOMM*%
%LPD*%
G01*
G04 APERTURE LIST*
%ADD10C,0.100000*%
%ADD11C,0.200000*%
%ADD12C,0.120000*%
G04 APERTURE END LIST*
D10*
X0Y-300000D02*
G75*
G02*
X300000Y0I300000J0D01*
G01*
X0Y-6700000D02*
X0Y-300000D01*
X300000Y0D02*
X13700000Y0D01*
X300000Y-7000000D02*
G75*
G02*
X0Y-6700000I0J300000D01*
G01*
X13700000Y0D02*
G75*
G02*
X14000000Y-300000I0J-300000D01*
G01*
X13700000Y-7000000D02*
X300000Y-7000000D01*
X14000000Y-300000D02*
X14000000Y-6700000D01*
X14000000Y-6700000D02*
G75*
G02*
X13700000Y-7000000I-300000J0D01*
G01*
D11*
D10*
X645850Y-2776500D02*
X675850Y-2806500D01*
X675850Y-2776500D02*
X645850Y-2806500D01*
X813370Y-3006700D02*
X843370Y-3036700D01*
X843370Y-3006700D02*
X813370Y-3036700D01*
X841880Y-1643550D02*
X871880Y-1673550D01*
X871880Y-1643550D02*
X841880Y-1673550D01*
X1086330Y-3433640D02*
X1116330Y-3463640D01*
X1116330Y-3433640D02*
X1086330Y-3463640D01*
X1245300Y-4868440D02*
X1275300Y-4898440D01*
X1275300Y-4868440D02*
X1245300Y-4898440D01*
X1278430Y-4083910D02*
X1308430Y-4113910D01*
X1308430Y-4083910D02*
X1278430Y-4113910D01*
X1324120Y-3953260D02*
X1354120Y-3983260D01*
X1354120Y-3953260D02*
X1324120Y-3983260D01*
X1509970Y-2788050D02*
X1539970Y-2818050D01*
X1539970Y-2788050D02*
X1509970Y-2818050D01*
X1550680Y-3696980D02*
X1580680Y-3726980D01*
X1580680Y-3696980D02*
X1550680Y-3726980D01*
X1577420Y-3822500D02*
X1607420Y-3852500D01*
X1607420Y-3822500D02*
X1577420Y-3852500D01*
X1586350Y-3903110D02*
X1616350Y-3933110D01*
X1616350Y-3903110D02*
X1586350Y-3933110D01*
X1615700Y-4002440D02*
X1645700Y-4032440D01*
X1645700Y-4002440D02*
X1615700Y-4032440D01*
X1627610Y-4082620D02*
X1657610Y-4112620D01*
X1657610Y-4082620D02*
X1627610Y-4112620D01*
X1719140Y-2701190D02*
X1749140Y-2731190D01*
X1749140Y-2701190D02*
X1719140Y-2731190D01*
X1753992Y-3249587D02*
X1783992Y-3279587D01*
X1783992Y-3249587D02*
X1753992Y-3279587D01*
X1763520Y-3603380D02*
X1793520Y-3633380D01*
X1793520Y-3603380D02*
X1763520Y-3633380D01*
X2430840Y-4381970D02*
X2460840Y-4411970D01*
X2460840Y-4381970D02*
X2430840Y-4411970D01*
X2521750Y-3606700D02*
X2551750Y-3636700D01*
X2551750Y-3606700D02*
X2521750Y-3636700D01*
X2948420Y-4383770D02*
X2978420Y-4413770D01*
X2978420Y-4383770D02*
X2948420Y-4413770D01*
X3319550Y-4383460D02*
X3349550Y-4413460D01*
X3349550Y-4383460D02*
X3319550Y-4413460D01*
X3348398Y-2893398D02*
X3378398Y-2923398D01*
X3378398Y-2893398D02*
X3348398Y-2923398D01*
X3671730Y-3143750D02*
X3701730Y-3173750D01*
X3701730Y-3143750D02*
X3671730Y-3173750D01*
X3701940Y-3549470D02*
X3731940Y-3579470D01*
X3731940Y-3549470D02*
X3701940Y-3579470D01*
X3728500Y-3885420D02*
X3758500Y-3915420D01*
X3758500Y-3885420D02*
X3728500Y-3915420D01*
X3916240Y-4100660D02*
X3946240Y-4130660D01*
X3946240Y-4100660D02*
X3916240Y-4130660D01*
X4206170Y-4661680D02*
X4236170Y-4691680D01*
X4236170Y-4661680D02*
X4206170Y-4691680D01*
X4445753Y-4004528D02*
X4475753Y-4034528D01*
X4475753Y-4004528D02*
X4445753Y-4034528D01*
X4906060Y-993750D02*
X4936060Y-1023750D01*
X4936060Y-993750D02*
X4906060Y-1023750D01*
X5090833Y-3379238D02*
X5120833Y-3409238D01*
X5120833Y-3379238D02*
X5090833Y-3409238D01*
X5151160Y-3737500D02*
X5181160Y-3767500D01*
X5181160Y-3737500D02*
X5151160Y-3767500D01*
X5360220Y-3635440D02*
X5390220Y-3665440D01*
X5390220Y-3635440D02*
X5360220Y-3665440D01*
X5470340Y-3544320D02*
X5500340Y-3574320D01*
X5500340Y-3544320D02*
X5470340Y-3574320D01*
X5618060Y-3980290D02*
X5648060Y-4010290D01*
X5648060Y-3980290D02*
X5618060Y-4010290D01*
X5679940Y-3887500D02*
X5709940Y-3917500D01*
X5709940Y-3887500D02*
X5679940Y-3917500D01*
X5726170Y-3797360D02*
X5756170Y-3827360D01*
X5756170Y-3797360D02*
X5726170Y-3827360D01*
X5976040Y-4105510D02*
X6006040Y-4135510D01*
X6006040Y-4105510D02*
X5976040Y-4135510D01*
X5977270Y-4017620D02*
X6007270Y-4047620D01*
X6007270Y-4017620D02*
X5977270Y-4047620D01*
X6052920Y-3978570D02*
X6082920Y-4008570D01*
X6082920Y-3978570D02*
X6052920Y-4008570D01*
X6139520Y-3657370D02*
X6169520Y-3687370D01*
X6169520Y-3657370D02*
X6139520Y-3687370D01*
X6148090Y-3898230D02*
X6178090Y-3928230D01*
X6178090Y-3898230D02*
X6148090Y-3928230D01*
X6162730Y-1313570D02*
X6192730Y-1343570D01*
X6192730Y-1313570D02*
X6162730Y-1343570D01*
X6226873Y-2680251D02*
X6256873Y-2710251D01*
X6256873Y-2680251D02*
X6226873Y-2710251D01*
X6302964Y-1748865D02*
X6332964Y-1778865D01*
X6332964Y-1748865D02*
X6302964Y-1778865D01*
X6587188Y-4034638D02*
X6617188Y-4064638D01*
X6617188Y-4034638D02*
X6587188Y-4064638D01*
X6749270Y-3588380D02*
X6779270Y-3618380D01*
X6779270Y-3588380D02*
X6749270Y-3618380D01*
X6752780Y-4482390D02*
X6782780Y-4512390D01*
X6782780Y-4482390D02*
X6752780Y-4512390D01*
X6762940Y-771530D02*
X6792940Y-801530D01*
X6792940Y-771530D02*
X6762940Y-801530D01*
X6826100Y-3528210D02*
X6856100Y-3558210D01*
X6856100Y-3528210D02*
X6826100Y-3558210D01*
X6971570Y-4670370D02*
X7001570Y-4700370D01*
X7001570Y-4670370D02*
X6971570Y-4700370D01*
X7058580Y-4700580D02*
X7088580Y-4730580D01*
X7088580Y-4700580D02*
X7058580Y-4730580D01*
X7130060Y-1373740D02*
X7160060Y-1403740D01*
X7160060Y-1373740D02*
X7130060Y-1403740D01*
X7135000Y-1090520D02*
X7165000Y-1120520D01*
X7165000Y-1090520D02*
X7135000Y-1120520D01*
X7188140Y-1535000D02*
X7218140Y-1565000D01*
X7218140Y-1535000D02*
X7188140Y-1565000D01*
X7205160Y-4841420D02*
X7235160Y-4871420D01*
X7235160Y-4841420D02*
X7205160Y-4871420D01*
X7261840Y-4610200D02*
X7291840Y-4640200D01*
X7291840Y-4610200D02*
X7261840Y-4640200D01*
X7335000Y-3635000D02*
X7365000Y-3665000D01*
X7365000Y-3635000D02*
X7335000Y-3665000D01*
X7364704Y-2620441D02*
X7394704Y-2650441D01*
X7394704Y-2620441D02*
X7364704Y-2650441D01*
X7574720Y-3569020D02*
X7604720Y-3599020D01*
X7604720Y-3569020D02*
X7574720Y-3599020D01*
X7620500Y-4082690D02*
X7650500Y-4112690D01*
X7650500Y-4082690D02*
X7620500Y-4112690D01*
X7633361Y-1557934D02*
X7663361Y-1587934D01*
X7663361Y-1557934D02*
X7633361Y-1587934D01*
X7694100Y-3944030D02*
X7724100Y-3974030D01*
X7724100Y-3944030D02*
X7694100Y-3974030D01*
X7703351Y-1438921D02*
X7733351Y-1468921D01*
X7733351Y-1438921D02*
X7703351Y-1468921D01*
X7785390Y-2613750D02*
X7815390Y-2643750D01*
X7815390Y-2613750D02*
X7785390Y-2643750D01*
X7786880Y-2385610D02*
X7816880Y-2415610D01*
X7816880Y-2385610D02*
X7786880Y-2415610D01*
X7826570Y-3054810D02*
X7856570Y-3084810D01*
X7856570Y-3054810D02*
X7826570Y-3084810D01*
X7987807Y-1396576D02*
X8017807Y-1426576D01*
X8017807Y-1396576D02*
X7987807Y-1426576D01*
X7997360Y-4072830D02*
X8027360Y-4102830D01*
X8027360Y-4072830D02*
X7997360Y-4102830D01*
X8016040Y-3912300D02*
X8046040Y-3942300D01*
X8046040Y-3912300D02*
X8016040Y-3942300D01*
X8045610Y-2691110D02*
X8075610Y-2721110D01*
X8075610Y-2691110D02*
X8045610Y-2721110D01*
X8068270Y-4362890D02*
X8098270Y-4392890D01*
X8098270Y-4362890D02*
X8068270Y-4392890D01*
X8147860Y-3089650D02*
X8177860Y-3119650D01*
X8177860Y-3089650D02*
X8147860Y-3119650D01*
X8153360Y-1945720D02*
X8183360Y-1975720D01*
X8183360Y-1945720D02*
X8153360Y-1975720D01*
X8181240Y-2299010D02*
X8211240Y-2329010D01*
X8211240Y-2299010D02*
X8181240Y-2329010D01*
X8211560Y-2560000D02*
X8241560Y-2590000D01*
X8241560Y-2560000D02*
X8211560Y-2590000D01*
X8274480Y-2690730D02*
X8304480Y-2720730D01*
X8304480Y-2690730D02*
X8274480Y-2720730D01*
X8280890Y-4050490D02*
X8310890Y-4080490D01*
X8310890Y-4050490D02*
X8280890Y-4080490D01*
X8365290Y-2758100D02*
X8395290Y-2788100D01*
X8395290Y-2758100D02*
X8365290Y-2788100D01*
X8382500Y-3888410D02*
X8412500Y-3918410D01*
X8412500Y-3888410D02*
X8382500Y-3918410D01*
X8414410Y-2822470D02*
X8444410Y-2852470D01*
X8444410Y-2822470D02*
X8414410Y-2852470D01*
X8433410Y-1621540D02*
X8463410Y-1651540D01*
X8463410Y-1621540D02*
X8433410Y-1651540D01*
X8450340Y-2130630D02*
X8480340Y-2160630D01*
X8480340Y-2130630D02*
X8450340Y-2160630D01*
X8493990Y-2200390D02*
X8523990Y-2230390D01*
X8523990Y-2200390D02*
X8493990Y-2230390D01*
X8496030Y-2280570D02*
X8526030Y-2310570D01*
X8526030Y-2280570D02*
X8496030Y-2310570D01*
X8506740Y-2360750D02*
X8536740Y-2390750D01*
X8536740Y-2360750D02*
X8506740Y-2390750D01*
X8513740Y-1641230D02*
X8543740Y-1671230D01*
X8543740Y-1641230D02*
X8513740Y-1671230D01*
X8539740Y-3163040D02*
X8569740Y-3193040D01*
X8569740Y-3163040D02*
X8539740Y-3193040D01*
X8567740Y-3255330D02*
X8597740Y-3285330D01*
X8597740Y-3255330D02*
X8567740Y-3285330D01*
X8608450Y-2648940D02*
X8638450Y-2678940D01*
X8638450Y-2648940D02*
X8608450Y-2678940D01*
X8625100Y-3103960D02*
X8655100Y-3133960D01*
X8655100Y-3103960D02*
X8625100Y-3133960D01*
X8726960Y-2055200D02*
X8756960Y-2085200D01*
X8756960Y-2055200D02*
X8726960Y-2085200D01*
X8864123Y-1397862D02*
X8894123Y-1427862D01*
X8894123Y-1397862D02*
X8864123Y-1427862D01*
X8920620Y-2087240D02*
X8950620Y-2117240D01*
X8950620Y-2087240D02*
X8920620Y-2117240D01*
X8980312Y-3063677D02*
X9010312Y-3093677D01*
X9010312Y-3063677D02*
X8980312Y-3093677D01*
X9052715Y-3381365D02*
X9082715Y-3411365D01*
X9082715Y-3381365D02*
X9052715Y-3411365D01*
X9060450Y-1690520D02*
X9090450Y-1720520D01*
X9090450Y-1690520D02*
X9060450Y-1720520D01*
X9089050Y-3078320D02*
X9119050Y-3108320D01*
X9119050Y-3078320D02*
X9089050Y-3108320D01*
X9133960Y-1788790D02*
X9163960Y-1818790D01*
X9163960Y-1788790D02*
X9133960Y-1818790D01*
X9181920Y-2112500D02*
X9211920Y-2142500D01*
X9211920Y-2112500D02*
X9181920Y-2142500D01*
X9182340Y-2360000D02*
X9212340Y-2390000D01*
X9212340Y-2360000D02*
X9182340Y-2390000D01*
X9217590Y-2281520D02*
X9247590Y-2311520D01*
X9247590Y-2281520D02*
X9217590Y-2311520D01*
X9270060Y-2362980D02*
X9300060Y-2392980D01*
X9300060Y-2362980D02*
X9270060Y-2392980D01*
X9395570Y-3971260D02*
X9425570Y-4001260D01*
X9425570Y-3971260D02*
X9395570Y-4001260D01*
X9399980Y-2259260D02*
X9429980Y-2289260D01*
X9429980Y-2259260D02*
X9399980Y-2289260D01*
X9435000Y-485000D02*
X9465000Y-515000D01*
X9465000Y-485000D02*
X9435000Y-515000D01*
X9685000Y-2085000D02*
X9715000Y-2115000D01*
X9715000Y-2085000D02*
X9685000Y-2115000D01*
X9721258Y-2513381D02*
X9751258Y-2543381D01*
X9751258Y-2513381D02*
X9721258Y-2543381D01*
X9796260Y-1088670D02*
X9826260Y-1118670D01*
X9826260Y-1088670D02*
X9796260Y-1118670D01*
X9803710Y-4017500D02*
X9833710Y-4047500D01*
X9833710Y-4017500D02*
X9803710Y-4047500D01*
X9823070Y-3850600D02*
X9853070Y-3880600D01*
X9853070Y-3850600D02*
X9823070Y-3880600D01*
X9826730Y-611110D02*
X9856730Y-641110D01*
X9856730Y-611110D02*
X9826730Y-641110D01*
X9835000Y-1385000D02*
X9865000Y-1415000D01*
X9865000Y-1385000D02*
X9835000Y-1415000D01*
X9844681Y-4742578D02*
X9874681Y-4772578D01*
X9874681Y-4742578D02*
X9844681Y-4772578D01*
X9845483Y-3434972D02*
X9875483Y-3464972D01*
X9875483Y-3434972D02*
X9845483Y-3464972D01*
X9855720Y-1849260D02*
X9885720Y-1879260D01*
X9885720Y-1849260D02*
X9855720Y-1879260D01*
X9922950Y-4147500D02*
X9952950Y-4177500D01*
X9952950Y-4147500D02*
X9922950Y-4177500D01*
X9963100Y-5093750D02*
X9993100Y-5123750D01*
X9993100Y-5093750D02*
X9963100Y-5123750D01*
X9985440Y-1805760D02*
X10015440Y-1835760D01*
X10015440Y-1805760D02*
X9985440Y-1835760D01*
X10050400Y-3801270D02*
X10080400Y-3831270D01*
X10080400Y-3801270D02*
X10050400Y-3831270D01*
X10160000Y-610850D02*
X10190000Y-640850D01*
X10190000Y-610850D02*
X10160000Y-640850D01*
X10164800Y-4808120D02*
X10194800Y-4838120D01*
X10194800Y-4808120D02*
X10164800Y-4838120D01*
X10315670Y-4428450D02*
X10345670Y-4458450D01*
X10345670Y-4428450D02*
X10315670Y-4458450D01*
X10360000Y-2010000D02*
X10390000Y-2040000D01*
X10390000Y-2010000D02*
X10360000Y-2040000D01*
X10366370Y-2444150D02*
X10396370Y-2474150D01*
X10396370Y-2444150D02*
X10366370Y-2474150D01*
X10376350Y-3964980D02*
X10406350Y-3994980D01*
X10406350Y-3964980D02*
X10376350Y-3994980D01*
X10419750Y-4326190D02*
X10449750Y-4356190D01*
X10449750Y-4326190D02*
X10419750Y-4356190D01*
X10427540Y-4246010D02*
X10457540Y-4276010D01*
X10457540Y-4246010D02*
X10427540Y-4276010D01*
X10459950Y-3632950D02*
X10489950Y-3662950D01*
X10489950Y-3632950D02*
X10459950Y-3662950D01*
X10474420Y-3962450D02*
X10504420Y-3992450D01*
X10504420Y-3962450D02*
X10474420Y-3992450D01*
X10518910Y-2398320D02*
X10548910Y-2428320D01*
X10548910Y-2398320D02*
X10518910Y-2428320D01*
X10543810Y-2282880D02*
X10573810Y-2312880D01*
X10573810Y-2282880D02*
X10543810Y-2312880D01*
X10748280Y-3918580D02*
X10778280Y-3948580D01*
X10778280Y-3918580D02*
X10748280Y-3948580D01*
X10814000Y-4025980D02*
X10844000Y-4055980D01*
X10844000Y-4025980D02*
X10814000Y-4055980D01*
X10826750Y-951720D02*
X10856750Y-981720D01*
X10856750Y-951720D02*
X10826750Y-981720D01*
X10829840Y-3885410D02*
X10859840Y-3915410D01*
X10859840Y-3885410D02*
X10829840Y-3915410D01*
X10888970Y-4083330D02*
X10918970Y-4113330D01*
X10918970Y-4083330D02*
X10888970Y-4113330D01*
X10994310Y-3888360D02*
X11024310Y-3918360D01*
X11024310Y-3888360D02*
X10994310Y-3918360D01*
X11076000Y-3882530D02*
X11106000Y-3912530D01*
X11106000Y-3882530D02*
X11076000Y-3912530D01*
X11083518Y-4480724D02*
X11113518Y-4510724D01*
X11113518Y-4480724D02*
X11083518Y-4510724D01*
X11090230Y-1785000D02*
X11120230Y-1815000D01*
X11120230Y-1785000D02*
X11090230Y-1815000D01*
X11093360Y-577399D02*
X11123360Y-607399D01*
X11123360Y-577399D02*
X11093360Y-607399D01*
X11104510Y-3468580D02*
X11134510Y-3498580D01*
X11134510Y-3468580D02*
X11104510Y-3498580D01*
X11209240Y-2541870D02*
X11239240Y-2571870D01*
X11239240Y-2541870D02*
X11209240Y-2571870D01*
X11230350Y-670840D02*
X11260350Y-700840D01*
X11260350Y-670840D02*
X11230350Y-700840D01*
X11230770Y-798500D02*
X11260770Y-828500D01*
X11260770Y-798500D02*
X11230770Y-828500D01*
X11252015Y-3065187D02*
X11282015Y-3095187D01*
X11282015Y-3065187D02*
X11252015Y-3095187D01*
X11258900Y-544500D02*
X11288900Y-574500D01*
X11288900Y-544500D02*
X11258900Y-574500D01*
X11288780Y-925500D02*
X11318780Y-955500D01*
X11318780Y-925500D02*
X11288780Y-955500D01*
X11367195Y-1628754D02*
X11397195Y-1658754D01*
X11397195Y-1628754D02*
X11367195Y-1658754D01*
X11421020Y-2821730D02*
X11451020Y-2851730D01*
X11451020Y-2821730D02*
X11421020Y-2851730D01*
X11459550Y-1614350D02*
X11489550Y-1644350D01*
X11489550Y-1614350D02*
X11459550Y-1644350D01*
X11549650Y-3589150D02*
X11579650Y-3619150D01*
X11579650Y-3589150D02*
X11549650Y-3619150D01*
X11579810Y-3089790D02*
X11609810Y-3119790D01*
X11609810Y-3089790D02*
X11579810Y-3119790D01*
X11590200Y-3865490D02*
X11620200Y-3895490D01*
X11620200Y-3865490D02*
X11590200Y-3895490D01*
X11669815Y-4543829D02*
X11699815Y-4573829D01*
X11699815Y-4543829D02*
X11669815Y-4573829D01*
X11706480Y-3739640D02*
X11736480Y-3769640D01*
X11736480Y-3739640D02*
X11706480Y-3769640D01*
X11766371Y-2387240D02*
X11796371Y-2417240D01*
X11796371Y-2387240D02*
X11766371Y-2417240D01*
X11803180Y-3479640D02*
X11833180Y-3509640D01*
X11833180Y-3479640D02*
X11803180Y-3509640D01*
X11864520Y-3769750D02*
X11894520Y-3799750D01*
X11894520Y-3769750D02*
X11864520Y-3799750D01*
X11947440Y-4091810D02*
X11977440Y-4121810D01*
X11977440Y-4091810D02*
X11947440Y-4121810D01*
X12103520Y-3890520D02*
X12133520Y-3920520D01*
X12133520Y-3890520D02*
X12103520Y-3920520D01*
X12171990Y-3588730D02*
X12201990Y-3618730D01*
X12201990Y-3588730D02*
X12171990Y-3618730D01*
X12218190Y-4027890D02*
X12248190Y-4057890D01*
X12248190Y-4027890D02*
X12218190Y-4057890D01*
X12301550Y-4083680D02*
X12331550Y-4113680D01*
X12331550Y-4083680D02*
X12301550Y-4113680D01*
X12442170Y-3992510D02*
X12472170Y-4022510D01*
X12472170Y-3992510D02*
X12442170Y-4022510D01*
X12701060Y-3885880D02*
X12731060Y-3915880D01*
X12731060Y-3885880D02*
X12701060Y-3915880D01*
X12885000Y-2085000D02*
X12915000Y-2115000D01*
X12915000Y-2085000D02*
X12885000Y-2115000D01*
X12990980Y-2230630D02*
X13020980Y-2260630D01*
X13020980Y-2230630D02*
X12990980Y-2260630D01*
X13012898Y-1628233D02*
X13042898Y-1658233D01*
X13042898Y-1628233D02*
X13012898Y-1658233D01*
X13052340Y-1745000D02*
X13082340Y-1775000D01*
X13082340Y-1745000D02*
X13052340Y-1775000D01*
X13299500Y-1568000D02*
G75*
G02*
X13239500Y-1568000I-30000J0D01*
G01*
X13239500Y-1568000D02*
G75*
G02*
X13299500Y-1568000I30000J0D01*
G01*
X13214500Y-1598000D02*
X13324500Y-1598000D01*
X13324500Y-1538000D02*
G75*
G02*
X13324500Y-1598000I0J-30000D01*
G01*
X13324500Y-1538000D02*
X13214500Y-1538000D01*
X13214500Y-1538000D02*
G75*
G03*
X13214500Y-1598000I0J-30000D01*
G01*
X13299500Y-2432000D02*
G75*
G02*
X13239500Y-2432000I-30000J0D01*
G01*
X13239500Y-2432000D02*
G75*
G02*
X13299500Y-2432000I30000J0D01*
G01*
X13214500Y-2462000D02*
X13324500Y-2462000D01*
X13324500Y-2402000D02*
G75*
G02*
X13324500Y-2462000I0J-30000D01*
G01*
X13324500Y-2402000D02*
X13214500Y-2402000D01*
X13214500Y-2402000D02*
G75*
G03*
X13214500Y-2462000I0J-30000D01*
G01*
X13717500Y-1568000D02*
G75*
G02*
X13657500Y-1568000I-30000J0D01*
G01*
X13657500Y-1568000D02*
G75*
G02*
X13717500Y-1568000I30000J0D01*
G01*
X13657500Y-1598000D02*
X13717500Y-1598000D01*
X13717500Y-1538000D02*
G75*
G02*
X13717500Y-1598000I0J-30000D01*
G01*
X13717500Y-1538000D02*
X13657500Y-1538000D01*
X13657500Y-1538000D02*
G75*
G03*
X13657500Y-1598000I0J-30000D01*
G01*
X13717500Y-2432000D02*
G75*
G02*
X13657500Y-2432000I-30000J0D01*
G01*
X13657500Y-2432000D02*
G75*
G02*
X13717500Y-2432000I30000J0D01*
G01*
X13657500Y-2462000D02*
X13717500Y-2462000D01*
X13717500Y-2402000D02*
G75*
G02*
X13717500Y-2462000I0J-30000D01*
G01*
X13717500Y-2402000D02*
X13657500Y-2402000D01*
X13657500Y-2402000D02*
G75*
G03*
X13657500Y-2462000I0J-30000D01*
G01*
X2960000Y-1510000D02*
X2960000Y-1610000D01*
X2910000Y-1560000D02*
X3010000Y-1560000D01*
X2960000Y-1860000D02*
X2960000Y-1960000D01*
X2910000Y-1910000D02*
X3010000Y-1910000D01*
X2960000Y-2210000D02*
X2960000Y-2310000D01*
X2910000Y-2260000D02*
X3010000Y-2260000D01*
X2960000Y-2560000D02*
X2960000Y-2660000D01*
X2910000Y-2610000D02*
X3010000Y-2610000D01*
X5650000Y-2950000D02*
X5650000Y-3050000D01*
X5600000Y-3000000D02*
X5700000Y-3000000D01*
X5740000Y-1320000D02*
X5740000Y-1420000D01*
X5690000Y-1370000D02*
X5790000Y-1370000D01*
X5740000Y-1574000D02*
X5740000Y-1674000D01*
X5690000Y-1624000D02*
X5790000Y-1624000D01*
X5740000Y-1828000D02*
X5740000Y-1928000D01*
X5690000Y-1878000D02*
X5790000Y-1878000D01*
X5740000Y-2082000D02*
X5740000Y-2182000D01*
X5690000Y-2132000D02*
X5790000Y-2132000D01*
X5740000Y-2336000D02*
X5740000Y-2436000D01*
X5690000Y-2386000D02*
X5790000Y-2386000D01*
X5740000Y-2590000D02*
X5740000Y-2690000D01*
X5690000Y-2640000D02*
X5790000Y-2640000D01*
X5904000Y-2950000D02*
X5904000Y-3050000D01*
X5854000Y-3000000D02*
X5954000Y-3000000D01*
X6158000Y-2950000D02*
X6158000Y-3050000D01*
X6108000Y-3000000D02*
X6208000Y-3000000D01*
X6400000Y-3350000D02*
X6400000Y-3450000D01*
X6350000Y-3400000D02*
X6450000Y-3400000D01*
X6654000Y-3350000D02*
X6654000Y-3450000D01*
X6604000Y-3400000D02*
X6704000Y-3400000D01*
X6908000Y-3350000D02*
X6908000Y-3450000D01*
X6858000Y-3400000D02*
X6958000Y-3400000D01*
X7162000Y-3350000D02*
X7162000Y-3450000D01*
X7112000Y-3400000D02*
X7212000Y-3400000D01*
X7416000Y-3350000D02*
X7416000Y-3450000D01*
X7366000Y-3400000D02*
X7466000Y-3400000D01*
D12*
X1672427Y-6542427D02*
X1672427Y-6457573D01*
X1587573Y-6457573D01*
X1587573Y-6542427D01*
X1672427Y-6542427D01*
X2022427Y-6542427D02*
X2022427Y-6457573D01*
X1937573Y-6457573D01*
X1937573Y-6542427D01*
X2022427Y-6542427D01*
X2372427Y-6542427D02*
X2372427Y-6457573D01*
X2287573Y-6457573D01*
X2287573Y-6542427D01*
X2372427Y-6542427D01*
X2722427Y-6542427D02*
X2722427Y-6457573D01*
X2637573Y-6457573D01*
X2637573Y-6542427D01*
X2722427Y-6542427D01*
X3072427Y-6542427D02*
X3072427Y-6457573D01*
X2987573Y-6457573D01*
X2987573Y-6542427D01*
X3072427Y-6542427D01*
X3342427Y-542427D02*
X3342427Y-457573D01*
X3257573Y-457573D01*
X3257573Y-542427D01*
X3342427Y-542427D01*
X3422427Y-6542427D02*
X3422427Y-6457573D01*
X3337573Y-6457573D01*
X3337573Y-6542427D01*
X3422427Y-6542427D01*
X3692427Y-542427D02*
X3692427Y-457573D01*
X3607573Y-457573D01*
X3607573Y-542427D01*
X3692427Y-542427D01*
X3772427Y-6542427D02*
X3772427Y-6457573D01*
X3687573Y-6457573D01*
X3687573Y-6542427D01*
X3772427Y-6542427D01*
X4842427Y-542427D02*
X4842427Y-457573D01*
X4757573Y-457573D01*
X4757573Y-542427D01*
X4842427Y-542427D01*
X5192427Y-542427D02*
X5192427Y-457573D01*
X5107573Y-457573D01*
X5107573Y-542427D01*
X5192427Y-542427D01*
X6072427Y-6542427D02*
X6072427Y-6457573D01*
X5987573Y-6457573D01*
X5987573Y-6542427D01*
X6072427Y-6542427D01*
X6342427Y-542427D02*
X6342427Y-457573D01*
X6257573Y-457573D01*
X6257573Y-542427D01*
X6342427Y-542427D01*
X6422427Y-6542427D02*
X6422427Y-6457573D01*
X6337573Y-6457573D01*
X6337573Y-6542427D01*
X6422427Y-6542427D01*
X6692427Y-542427D02*
X6692427Y-457573D01*
X6607573Y-457573D01*
X6607573Y-542427D01*
X6692427Y-542427D01*
X6772427Y-6542427D02*
X6772427Y-6457573D01*
X6687573Y-6457573D01*
X6687573Y-6542427D01*
X6772427Y-6542427D01*
X7042427Y-542427D02*
X7042427Y-457573D01*
X6957573Y-457573D01*
X6957573Y-542427D01*
X7042427Y-542427D01*
X7122427Y-6542427D02*
X7122427Y-6457573D01*
X7037573Y-6457573D01*
X7037573Y-6542427D01*
X7122427Y-6542427D01*
X7472427Y-6542427D02*
X7472427Y-6457573D01*
X7387573Y-6457573D01*
X7387573Y-6542427D01*
X7472427Y-6542427D01*
X7822427Y-6542427D02*
X7822427Y-6457573D01*
X7737573Y-6457573D01*
X7737573Y-6542427D01*
X7822427Y-6542427D01*
X8172427Y-6542427D02*
X8172427Y-6457573D01*
X8087573Y-6457573D01*
X8087573Y-6542427D01*
X8172427Y-6542427D01*
X8192427Y-542427D02*
X8192427Y-457573D01*
X8107573Y-457573D01*
X8107573Y-542427D01*
X8192427Y-542427D01*
X8542427Y-542427D02*
X8542427Y-457573D01*
X8457573Y-457573D01*
X8457573Y-542427D01*
X8542427Y-542427D01*
X8892427Y-542427D02*
X8892427Y-457573D01*
X8807573Y-457573D01*
X8807573Y-542427D01*
X8892427Y-542427D01*
X10042427Y-542427D02*
X10042427Y-457573D01*
X9957573Y-457573D01*
X9957573Y-542427D01*
X10042427Y-542427D01*
X10392427Y-542427D02*
X10392427Y-457573D01*
X10307573Y-457573D01*
X10307573Y-542427D01*
X10392427Y-542427D01*
X10472427Y-6542427D02*
X10472427Y-6457573D01*
X10387573Y-6457573D01*
X10387573Y-6542427D01*
X10472427Y-6542427D01*
X10742427Y-542427D02*
X10742427Y-457573D01*
X10657573Y-457573D01*
X10657573Y-542427D01*
X10742427Y-542427D01*
X10822427Y-6542427D02*
X10822427Y-6457573D01*
X10737573Y-6457573D01*
X10737573Y-6542427D01*
X10822427Y-6542427D01*
X11172427Y-6542427D02*
X11172427Y-6457573D01*
X11087573Y-6457573D01*
X11087573Y-6542427D01*
X11172427Y-6542427D01*
X11522427Y-6542427D02*
X11522427Y-6457573D01*
X11437573Y-6457573D01*
X11437573Y-6542427D01*
X11522427Y-6542427D01*
X11872427Y-6542427D02*
X11872427Y-6457573D01*
X11787573Y-6457573D01*
X11787573Y-6542427D01*
X11872427Y-6542427D01*
X12222427Y-6542427D02*
X12222427Y-6457573D01*
X12137573Y-6457573D01*
X12137573Y-6542427D01*
X12222427Y-6542427D01*
X12572427Y-6542427D02*
X12572427Y-6457573D01*
X12487573Y-6457573D01*
X12487573Y-6542427D01*
X12572427Y-6542427D01*
D11*
X255777Y-7316484D02*
X255777Y-7116484D01*
X255777Y-7116484D02*
X303396Y-7116484D01*
X303396Y-7116484D02*
X331967Y-7126008D01*
X331967Y-7126008D02*
X351015Y-7145055D01*
X351015Y-7145055D02*
X360539Y-7164103D01*
X360539Y-7164103D02*
X370062Y-7202198D01*
X370062Y-7202198D02*
X370062Y-7230769D01*
X370062Y-7230769D02*
X360539Y-7268865D01*
X360539Y-7268865D02*
X351015Y-7287912D01*
X351015Y-7287912D02*
X331967Y-7306960D01*
X331967Y-7306960D02*
X303396Y-7316484D01*
X303396Y-7316484D02*
X255777Y-7316484D01*
X455777Y-7316484D02*
X455777Y-7183150D01*
X455777Y-7221246D02*
X465301Y-7202198D01*
X465301Y-7202198D02*
X474824Y-7192674D01*
X474824Y-7192674D02*
X493872Y-7183150D01*
X493872Y-7183150D02*
X512920Y-7183150D01*
X579586Y-7316484D02*
X579586Y-7183150D01*
X579586Y-7116484D02*
X570063Y-7126008D01*
X570063Y-7126008D02*
X579586Y-7135531D01*
X579586Y-7135531D02*
X589110Y-7126008D01*
X589110Y-7126008D02*
X579586Y-7116484D01*
X579586Y-7116484D02*
X579586Y-7135531D01*
X703396Y-7316484D02*
X684348Y-7306960D01*
X684348Y-7306960D02*
X674824Y-7287912D01*
X674824Y-7287912D02*
X674824Y-7116484D01*
X808158Y-7316484D02*
X789110Y-7306960D01*
X789110Y-7306960D02*
X779586Y-7287912D01*
X779586Y-7287912D02*
X779586Y-7116484D01*
X1036729Y-7316484D02*
X1036729Y-7116484D01*
X1036729Y-7116484D02*
X1103396Y-7259341D01*
X1103396Y-7259341D02*
X1170063Y-7116484D01*
X1170063Y-7116484D02*
X1170063Y-7316484D01*
X1351015Y-7316484D02*
X1351015Y-7211722D01*
X1351015Y-7211722D02*
X1341491Y-7192674D01*
X1341491Y-7192674D02*
X1322444Y-7183150D01*
X1322444Y-7183150D02*
X1284348Y-7183150D01*
X1284348Y-7183150D02*
X1265301Y-7192674D01*
X1351015Y-7306960D02*
X1331967Y-7316484D01*
X1331967Y-7316484D02*
X1284348Y-7316484D01*
X1284348Y-7316484D02*
X1265301Y-7306960D01*
X1265301Y-7306960D02*
X1255777Y-7287912D01*
X1255777Y-7287912D02*
X1255777Y-7268865D01*
X1255777Y-7268865D02*
X1265301Y-7249817D01*
X1265301Y-7249817D02*
X1284348Y-7240293D01*
X1284348Y-7240293D02*
X1331967Y-7240293D01*
X1331967Y-7240293D02*
X1351015Y-7230769D01*
X1446253Y-7183150D02*
X1446253Y-7383150D01*
X1446253Y-7192674D02*
X1465301Y-7183150D01*
X1465301Y-7183150D02*
X1503396Y-7183150D01*
X1503396Y-7183150D02*
X1522443Y-7192674D01*
X1522443Y-7192674D02*
X1531967Y-7202198D01*
X1531967Y-7202198D02*
X1541491Y-7221246D01*
X1541491Y-7221246D02*
X1541491Y-7278388D01*
X1541491Y-7278388D02*
X1531967Y-7297436D01*
X1531967Y-7297436D02*
X1522443Y-7306960D01*
X1522443Y-7306960D02*
X1503396Y-7316484D01*
X1503396Y-7316484D02*
X1465301Y-7316484D01*
X1465301Y-7316484D02*
X1446253Y-7306960D01*
X1627205Y-7297436D02*
X1636729Y-7306960D01*
X1636729Y-7306960D02*
X1627205Y-7316484D01*
X1627205Y-7316484D02*
X1617682Y-7306960D01*
X1617682Y-7306960D02*
X1627205Y-7297436D01*
X1627205Y-7297436D02*
X1627205Y-7316484D01*
X1627205Y-7192674D02*
X1636729Y-7202198D01*
X1636729Y-7202198D02*
X1627205Y-7211722D01*
X1627205Y-7211722D02*
X1617682Y-7202198D01*
X1617682Y-7202198D02*
X1627205Y-7192674D01*
X1627205Y-7192674D02*
X1627205Y-7211722D01*
D10*
X-35000Y-7630000D02*
X-5000Y-7660000D01*
X-5000Y-7630000D02*
X-35000Y-7660000D01*
D11*
X293872Y-7536484D02*
X312920Y-7536484D01*
X312920Y-7536484D02*
X331967Y-7546008D01*
X331967Y-7546008D02*
X341491Y-7555531D01*
X341491Y-7555531D02*
X351015Y-7574579D01*
X351015Y-7574579D02*
X360539Y-7612674D01*
X360539Y-7612674D02*
X360539Y-7660293D01*
X360539Y-7660293D02*
X351015Y-7698388D01*
X351015Y-7698388D02*
X341491Y-7717436D01*
X341491Y-7717436D02*
X331967Y-7726960D01*
X331967Y-7726960D02*
X312920Y-7736484D01*
X312920Y-7736484D02*
X293872Y-7736484D01*
X293872Y-7736484D02*
X274824Y-7726960D01*
X274824Y-7726960D02*
X265301Y-7717436D01*
X265301Y-7717436D02*
X255777Y-7698388D01*
X255777Y-7698388D02*
X246253Y-7660293D01*
X246253Y-7660293D02*
X246253Y-7612674D01*
X246253Y-7612674D02*
X255777Y-7574579D01*
X255777Y-7574579D02*
X265301Y-7555531D01*
X265301Y-7555531D02*
X274824Y-7546008D01*
X274824Y-7546008D02*
X293872Y-7536484D01*
X446253Y-7717436D02*
X455777Y-7726960D01*
X455777Y-7726960D02*
X446253Y-7736484D01*
X446253Y-7736484D02*
X436729Y-7726960D01*
X436729Y-7726960D02*
X446253Y-7717436D01*
X446253Y-7717436D02*
X446253Y-7736484D01*
X522443Y-7536484D02*
X646253Y-7536484D01*
X646253Y-7536484D02*
X579586Y-7612674D01*
X579586Y-7612674D02*
X608158Y-7612674D01*
X608158Y-7612674D02*
X627205Y-7622198D01*
X627205Y-7622198D02*
X636729Y-7631722D01*
X636729Y-7631722D02*
X646253Y-7650769D01*
X646253Y-7650769D02*
X646253Y-7698388D01*
X646253Y-7698388D02*
X636729Y-7717436D01*
X636729Y-7717436D02*
X627205Y-7726960D01*
X627205Y-7726960D02*
X608158Y-7736484D01*
X608158Y-7736484D02*
X551015Y-7736484D01*
X551015Y-7736484D02*
X531967Y-7726960D01*
X531967Y-7726960D02*
X522443Y-7717436D01*
X770062Y-7536484D02*
X789110Y-7536484D01*
X789110Y-7536484D02*
X808158Y-7546008D01*
X808158Y-7546008D02*
X817682Y-7555531D01*
X817682Y-7555531D02*
X827205Y-7574579D01*
X827205Y-7574579D02*
X836729Y-7612674D01*
X836729Y-7612674D02*
X836729Y-7660293D01*
X836729Y-7660293D02*
X827205Y-7698388D01*
X827205Y-7698388D02*
X817682Y-7717436D01*
X817682Y-7717436D02*
X808158Y-7726960D01*
X808158Y-7726960D02*
X789110Y-7736484D01*
X789110Y-7736484D02*
X770062Y-7736484D01*
X770062Y-7736484D02*
X751015Y-7726960D01*
X751015Y-7726960D02*
X741491Y-7717436D01*
X741491Y-7717436D02*
X731967Y-7698388D01*
X731967Y-7698388D02*
X722443Y-7660293D01*
X722443Y-7660293D02*
X722443Y-7612674D01*
X722443Y-7612674D02*
X731967Y-7574579D01*
X731967Y-7574579D02*
X741491Y-7555531D01*
X741491Y-7555531D02*
X751015Y-7546008D01*
X751015Y-7546008D02*
X770062Y-7536484D01*
X960539Y-7536484D02*
X979586Y-7536484D01*
X979586Y-7536484D02*
X998634Y-7546008D01*
X998634Y-7546008D02*
X1008158Y-7555531D01*
X1008158Y-7555531D02*
X1017682Y-7574579D01*
X1017682Y-7574579D02*
X1027205Y-7612674D01*
X1027205Y-7612674D02*
X1027205Y-7660293D01*
X1027205Y-7660293D02*
X1017682Y-7698388D01*
X1017682Y-7698388D02*
X1008158Y-7717436D01*
X1008158Y-7717436D02*
X998634Y-7726960D01*
X998634Y-7726960D02*
X979586Y-7736484D01*
X979586Y-7736484D02*
X960539Y-7736484D01*
X960539Y-7736484D02*
X941491Y-7726960D01*
X941491Y-7726960D02*
X931967Y-7717436D01*
X931967Y-7717436D02*
X922443Y-7698388D01*
X922443Y-7698388D02*
X912920Y-7660293D01*
X912920Y-7660293D02*
X912920Y-7612674D01*
X912920Y-7612674D02*
X922443Y-7574579D01*
X922443Y-7574579D02*
X931967Y-7555531D01*
X931967Y-7555531D02*
X941491Y-7546008D01*
X941491Y-7546008D02*
X960539Y-7536484D01*
X1112920Y-7736484D02*
X1112920Y-7603150D01*
X1112920Y-7622198D02*
X1122444Y-7612674D01*
X1122444Y-7612674D02*
X1141491Y-7603150D01*
X1141491Y-7603150D02*
X1170063Y-7603150D01*
X1170063Y-7603150D02*
X1189110Y-7612674D01*
X1189110Y-7612674D02*
X1198634Y-7631722D01*
X1198634Y-7631722D02*
X1198634Y-7736484D01*
X1198634Y-7631722D02*
X1208158Y-7612674D01*
X1208158Y-7612674D02*
X1227205Y-7603150D01*
X1227205Y-7603150D02*
X1255777Y-7603150D01*
X1255777Y-7603150D02*
X1274825Y-7612674D01*
X1274825Y-7612674D02*
X1284348Y-7631722D01*
X1284348Y-7631722D02*
X1284348Y-7736484D01*
X1379586Y-7736484D02*
X1379586Y-7603150D01*
X1379586Y-7622198D02*
X1389110Y-7612674D01*
X1389110Y-7612674D02*
X1408158Y-7603150D01*
X1408158Y-7603150D02*
X1436729Y-7603150D01*
X1436729Y-7603150D02*
X1455777Y-7612674D01*
X1455777Y-7612674D02*
X1465301Y-7631722D01*
X1465301Y-7631722D02*
X1465301Y-7736484D01*
X1465301Y-7631722D02*
X1474824Y-7612674D01*
X1474824Y-7612674D02*
X1493872Y-7603150D01*
X1493872Y-7603150D02*
X1522443Y-7603150D01*
X1522443Y-7603150D02*
X1541491Y-7612674D01*
X1541491Y-7612674D02*
X1551015Y-7631722D01*
X1551015Y-7631722D02*
X1551015Y-7736484D01*
X1941491Y-7526960D02*
X1770063Y-7784103D01*
X2198634Y-7536484D02*
X2217682Y-7536484D01*
X2217682Y-7536484D02*
X2236729Y-7546008D01*
X2236729Y-7546008D02*
X2246253Y-7555531D01*
X2246253Y-7555531D02*
X2255777Y-7574579D01*
X2255777Y-7574579D02*
X2265301Y-7612674D01*
X2265301Y-7612674D02*
X2265301Y-7660293D01*
X2265301Y-7660293D02*
X2255777Y-7698388D01*
X2255777Y-7698388D02*
X2246253Y-7717436D01*
X2246253Y-7717436D02*
X2236729Y-7726960D01*
X2236729Y-7726960D02*
X2217682Y-7736484D01*
X2217682Y-7736484D02*
X2198634Y-7736484D01*
X2198634Y-7736484D02*
X2179587Y-7726960D01*
X2179587Y-7726960D02*
X2170063Y-7717436D01*
X2170063Y-7717436D02*
X2160539Y-7698388D01*
X2160539Y-7698388D02*
X2151015Y-7660293D01*
X2151015Y-7660293D02*
X2151015Y-7612674D01*
X2151015Y-7612674D02*
X2160539Y-7574579D01*
X2160539Y-7574579D02*
X2170063Y-7555531D01*
X2170063Y-7555531D02*
X2179587Y-7546008D01*
X2179587Y-7546008D02*
X2198634Y-7536484D01*
X2351015Y-7717436D02*
X2360539Y-7726960D01*
X2360539Y-7726960D02*
X2351015Y-7736484D01*
X2351015Y-7736484D02*
X2341491Y-7726960D01*
X2341491Y-7726960D02*
X2351015Y-7717436D01*
X2351015Y-7717436D02*
X2351015Y-7736484D01*
X2484348Y-7536484D02*
X2503396Y-7536484D01*
X2503396Y-7536484D02*
X2522444Y-7546008D01*
X2522444Y-7546008D02*
X2531968Y-7555531D01*
X2531968Y-7555531D02*
X2541491Y-7574579D01*
X2541491Y-7574579D02*
X2551015Y-7612674D01*
X2551015Y-7612674D02*
X2551015Y-7660293D01*
X2551015Y-7660293D02*
X2541491Y-7698388D01*
X2541491Y-7698388D02*
X2531968Y-7717436D01*
X2531968Y-7717436D02*
X2522444Y-7726960D01*
X2522444Y-7726960D02*
X2503396Y-7736484D01*
X2503396Y-7736484D02*
X2484348Y-7736484D01*
X2484348Y-7736484D02*
X2465301Y-7726960D01*
X2465301Y-7726960D02*
X2455777Y-7717436D01*
X2455777Y-7717436D02*
X2446253Y-7698388D01*
X2446253Y-7698388D02*
X2436729Y-7660293D01*
X2436729Y-7660293D02*
X2436729Y-7612674D01*
X2436729Y-7612674D02*
X2446253Y-7574579D01*
X2446253Y-7574579D02*
X2455777Y-7555531D01*
X2455777Y-7555531D02*
X2465301Y-7546008D01*
X2465301Y-7546008D02*
X2484348Y-7536484D01*
X2741491Y-7736484D02*
X2627206Y-7736484D01*
X2684348Y-7736484D02*
X2684348Y-7536484D01*
X2684348Y-7536484D02*
X2665301Y-7565055D01*
X2665301Y-7565055D02*
X2646253Y-7584103D01*
X2646253Y-7584103D02*
X2627206Y-7593627D01*
X2931967Y-7736484D02*
X2817682Y-7736484D01*
X2874825Y-7736484D02*
X2874825Y-7536484D01*
X2874825Y-7536484D02*
X2855777Y-7565055D01*
X2855777Y-7565055D02*
X2836729Y-7584103D01*
X2836729Y-7584103D02*
X2817682Y-7593627D01*
X3046253Y-7622198D02*
X3027206Y-7612674D01*
X3027206Y-7612674D02*
X3017682Y-7603150D01*
X3017682Y-7603150D02*
X3008158Y-7584103D01*
X3008158Y-7584103D02*
X3008158Y-7574579D01*
X3008158Y-7574579D02*
X3017682Y-7555531D01*
X3017682Y-7555531D02*
X3027206Y-7546008D01*
X3027206Y-7546008D02*
X3046253Y-7536484D01*
X3046253Y-7536484D02*
X3084348Y-7536484D01*
X3084348Y-7536484D02*
X3103396Y-7546008D01*
X3103396Y-7546008D02*
X3112920Y-7555531D01*
X3112920Y-7555531D02*
X3122444Y-7574579D01*
X3122444Y-7574579D02*
X3122444Y-7584103D01*
X3122444Y-7584103D02*
X3112920Y-7603150D01*
X3112920Y-7603150D02*
X3103396Y-7612674D01*
X3103396Y-7612674D02*
X3084348Y-7622198D01*
X3084348Y-7622198D02*
X3046253Y-7622198D01*
X3046253Y-7622198D02*
X3027206Y-7631722D01*
X3027206Y-7631722D02*
X3017682Y-7641246D01*
X3017682Y-7641246D02*
X3008158Y-7660293D01*
X3008158Y-7660293D02*
X3008158Y-7698388D01*
X3008158Y-7698388D02*
X3017682Y-7717436D01*
X3017682Y-7717436D02*
X3027206Y-7726960D01*
X3027206Y-7726960D02*
X3046253Y-7736484D01*
X3046253Y-7736484D02*
X3084348Y-7736484D01*
X3084348Y-7736484D02*
X3103396Y-7726960D01*
X3103396Y-7726960D02*
X3112920Y-7717436D01*
X3112920Y-7717436D02*
X3122444Y-7698388D01*
X3122444Y-7698388D02*
X3122444Y-7660293D01*
X3122444Y-7660293D02*
X3112920Y-7641246D01*
X3112920Y-7641246D02*
X3103396Y-7631722D01*
X3103396Y-7631722D02*
X3084348Y-7622198D01*
X3198634Y-7536484D02*
X3198634Y-7574579D01*
X3274825Y-7536484D02*
X3274825Y-7574579D01*
X3570063Y-7812674D02*
X3560539Y-7803150D01*
X3560539Y-7803150D02*
X3541491Y-7774579D01*
X3541491Y-7774579D02*
X3531968Y-7755531D01*
X3531968Y-7755531D02*
X3522444Y-7726960D01*
X3522444Y-7726960D02*
X3512920Y-7679341D01*
X3512920Y-7679341D02*
X3512920Y-7641246D01*
X3512920Y-7641246D02*
X3522444Y-7593627D01*
X3522444Y-7593627D02*
X3531968Y-7565055D01*
X3531968Y-7565055D02*
X3541491Y-7546008D01*
X3541491Y-7546008D02*
X3560539Y-7517436D01*
X3560539Y-7517436D02*
X3570063Y-7507912D01*
X3751015Y-7736484D02*
X3636729Y-7736484D01*
X3693872Y-7736484D02*
X3693872Y-7536484D01*
X3693872Y-7536484D02*
X3674825Y-7565055D01*
X3674825Y-7565055D02*
X3655777Y-7584103D01*
X3655777Y-7584103D02*
X3636729Y-7593627D01*
X3922444Y-7536484D02*
X3884348Y-7536484D01*
X3884348Y-7536484D02*
X3865301Y-7546008D01*
X3865301Y-7546008D02*
X3855777Y-7555531D01*
X3855777Y-7555531D02*
X3836729Y-7584103D01*
X3836729Y-7584103D02*
X3827206Y-7622198D01*
X3827206Y-7622198D02*
X3827206Y-7698388D01*
X3827206Y-7698388D02*
X3836729Y-7717436D01*
X3836729Y-7717436D02*
X3846253Y-7726960D01*
X3846253Y-7726960D02*
X3865301Y-7736484D01*
X3865301Y-7736484D02*
X3903396Y-7736484D01*
X3903396Y-7736484D02*
X3922444Y-7726960D01*
X3922444Y-7726960D02*
X3931968Y-7717436D01*
X3931968Y-7717436D02*
X3941491Y-7698388D01*
X3941491Y-7698388D02*
X3941491Y-7650769D01*
X3941491Y-7650769D02*
X3931968Y-7631722D01*
X3931968Y-7631722D02*
X3922444Y-7622198D01*
X3922444Y-7622198D02*
X3903396Y-7612674D01*
X3903396Y-7612674D02*
X3865301Y-7612674D01*
X3865301Y-7612674D02*
X3846253Y-7622198D01*
X3846253Y-7622198D02*
X3836729Y-7631722D01*
X3836729Y-7631722D02*
X3827206Y-7650769D01*
X4036729Y-7736484D02*
X4074825Y-7736484D01*
X4074825Y-7736484D02*
X4093872Y-7726960D01*
X4093872Y-7726960D02*
X4103396Y-7717436D01*
X4103396Y-7717436D02*
X4122444Y-7688865D01*
X4122444Y-7688865D02*
X4131968Y-7650769D01*
X4131968Y-7650769D02*
X4131968Y-7574579D01*
X4131968Y-7574579D02*
X4122444Y-7555531D01*
X4122444Y-7555531D02*
X4112920Y-7546008D01*
X4112920Y-7546008D02*
X4093872Y-7536484D01*
X4093872Y-7536484D02*
X4055777Y-7536484D01*
X4055777Y-7536484D02*
X4036729Y-7546008D01*
X4036729Y-7546008D02*
X4027206Y-7555531D01*
X4027206Y-7555531D02*
X4017682Y-7574579D01*
X4017682Y-7574579D02*
X4017682Y-7622198D01*
X4017682Y-7622198D02*
X4027206Y-7641246D01*
X4027206Y-7641246D02*
X4036729Y-7650769D01*
X4036729Y-7650769D02*
X4055777Y-7660293D01*
X4055777Y-7660293D02*
X4093872Y-7660293D01*
X4093872Y-7660293D02*
X4112920Y-7650769D01*
X4112920Y-7650769D02*
X4122444Y-7641246D01*
X4122444Y-7641246D02*
X4131968Y-7622198D01*
X4370063Y-7736484D02*
X4370063Y-7536484D01*
X4455777Y-7736484D02*
X4455777Y-7631722D01*
X4455777Y-7631722D02*
X4446253Y-7612674D01*
X4446253Y-7612674D02*
X4427206Y-7603150D01*
X4427206Y-7603150D02*
X4398634Y-7603150D01*
X4398634Y-7603150D02*
X4379587Y-7612674D01*
X4379587Y-7612674D02*
X4370063Y-7622198D01*
X4579587Y-7736484D02*
X4560539Y-7726960D01*
X4560539Y-7726960D02*
X4551015Y-7717436D01*
X4551015Y-7717436D02*
X4541492Y-7698388D01*
X4541492Y-7698388D02*
X4541492Y-7641246D01*
X4541492Y-7641246D02*
X4551015Y-7622198D01*
X4551015Y-7622198D02*
X4560539Y-7612674D01*
X4560539Y-7612674D02*
X4579587Y-7603150D01*
X4579587Y-7603150D02*
X4608158Y-7603150D01*
X4608158Y-7603150D02*
X4627206Y-7612674D01*
X4627206Y-7612674D02*
X4636730Y-7622198D01*
X4636730Y-7622198D02*
X4646253Y-7641246D01*
X4646253Y-7641246D02*
X4646253Y-7698388D01*
X4646253Y-7698388D02*
X4636730Y-7717436D01*
X4636730Y-7717436D02*
X4627206Y-7726960D01*
X4627206Y-7726960D02*
X4608158Y-7736484D01*
X4608158Y-7736484D02*
X4579587Y-7736484D01*
X4760539Y-7736484D02*
X4741492Y-7726960D01*
X4741492Y-7726960D02*
X4731968Y-7707912D01*
X4731968Y-7707912D02*
X4731968Y-7536484D01*
X4912920Y-7726960D02*
X4893873Y-7736484D01*
X4893873Y-7736484D02*
X4855777Y-7736484D01*
X4855777Y-7736484D02*
X4836730Y-7726960D01*
X4836730Y-7726960D02*
X4827206Y-7707912D01*
X4827206Y-7707912D02*
X4827206Y-7631722D01*
X4827206Y-7631722D02*
X4836730Y-7612674D01*
X4836730Y-7612674D02*
X4855777Y-7603150D01*
X4855777Y-7603150D02*
X4893873Y-7603150D01*
X4893873Y-7603150D02*
X4912920Y-7612674D01*
X4912920Y-7612674D02*
X4922444Y-7631722D01*
X4922444Y-7631722D02*
X4922444Y-7650769D01*
X4922444Y-7650769D02*
X4827206Y-7669817D01*
X4998634Y-7726960D02*
X5017682Y-7736484D01*
X5017682Y-7736484D02*
X5055777Y-7736484D01*
X5055777Y-7736484D02*
X5074825Y-7726960D01*
X5074825Y-7726960D02*
X5084349Y-7707912D01*
X5084349Y-7707912D02*
X5084349Y-7698388D01*
X5084349Y-7698388D02*
X5074825Y-7679341D01*
X5074825Y-7679341D02*
X5055777Y-7669817D01*
X5055777Y-7669817D02*
X5027206Y-7669817D01*
X5027206Y-7669817D02*
X5008158Y-7660293D01*
X5008158Y-7660293D02*
X4998634Y-7641246D01*
X4998634Y-7641246D02*
X4998634Y-7631722D01*
X4998634Y-7631722D02*
X5008158Y-7612674D01*
X5008158Y-7612674D02*
X5027206Y-7603150D01*
X5027206Y-7603150D02*
X5055777Y-7603150D01*
X5055777Y-7603150D02*
X5074825Y-7612674D01*
X5151015Y-7812674D02*
X5160539Y-7803150D01*
X5160539Y-7803150D02*
X5179587Y-7774579D01*
X5179587Y-7774579D02*
X5189111Y-7755531D01*
X5189111Y-7755531D02*
X5198634Y-7726960D01*
X5198634Y-7726960D02*
X5208158Y-7679341D01*
X5208158Y-7679341D02*
X5208158Y-7641246D01*
X5208158Y-7641246D02*
X5198634Y-7593627D01*
X5198634Y-7593627D02*
X5189111Y-7565055D01*
X5189111Y-7565055D02*
X5179587Y-7546008D01*
X5179587Y-7546008D02*
X5160539Y-7517436D01*
X5160539Y-7517436D02*
X5151015Y-7507912D01*
D10*
X-5000Y-7909000D02*
G75*
G02*
X-65000Y-7909000I-30000J0D01*
G01*
X-65000Y-7909000D02*
G75*
G02*
X-5000Y-7909000I30000J0D01*
G01*
D11*
X293872Y-7800484D02*
X312920Y-7800484D01*
X312920Y-7800484D02*
X331967Y-7810008D01*
X331967Y-7810008D02*
X341491Y-7819531D01*
X341491Y-7819531D02*
X351015Y-7838579D01*
X351015Y-7838579D02*
X360539Y-7876674D01*
X360539Y-7876674D02*
X360539Y-7924293D01*
X360539Y-7924293D02*
X351015Y-7962388D01*
X351015Y-7962388D02*
X341491Y-7981436D01*
X341491Y-7981436D02*
X331967Y-7990960D01*
X331967Y-7990960D02*
X312920Y-8000484D01*
X312920Y-8000484D02*
X293872Y-8000484D01*
X293872Y-8000484D02*
X274824Y-7990960D01*
X274824Y-7990960D02*
X265301Y-7981436D01*
X265301Y-7981436D02*
X255777Y-7962388D01*
X255777Y-7962388D02*
X246253Y-7924293D01*
X246253Y-7924293D02*
X246253Y-7876674D01*
X246253Y-7876674D02*
X255777Y-7838579D01*
X255777Y-7838579D02*
X265301Y-7819531D01*
X265301Y-7819531D02*
X274824Y-7810008D01*
X274824Y-7810008D02*
X293872Y-7800484D01*
X446253Y-7981436D02*
X455777Y-7990960D01*
X455777Y-7990960D02*
X446253Y-8000484D01*
X446253Y-8000484D02*
X436729Y-7990960D01*
X436729Y-7990960D02*
X446253Y-7981436D01*
X446253Y-7981436D02*
X446253Y-8000484D01*
X627205Y-7800484D02*
X589110Y-7800484D01*
X589110Y-7800484D02*
X570063Y-7810008D01*
X570063Y-7810008D02*
X560539Y-7819531D01*
X560539Y-7819531D02*
X541491Y-7848103D01*
X541491Y-7848103D02*
X531967Y-7886198D01*
X531967Y-7886198D02*
X531967Y-7962388D01*
X531967Y-7962388D02*
X541491Y-7981436D01*
X541491Y-7981436D02*
X551015Y-7990960D01*
X551015Y-7990960D02*
X570063Y-8000484D01*
X570063Y-8000484D02*
X608158Y-8000484D01*
X608158Y-8000484D02*
X627205Y-7990960D01*
X627205Y-7990960D02*
X636729Y-7981436D01*
X636729Y-7981436D02*
X646253Y-7962388D01*
X646253Y-7962388D02*
X646253Y-7914769D01*
X646253Y-7914769D02*
X636729Y-7895722D01*
X636729Y-7895722D02*
X627205Y-7886198D01*
X627205Y-7886198D02*
X608158Y-7876674D01*
X608158Y-7876674D02*
X570063Y-7876674D01*
X570063Y-7876674D02*
X551015Y-7886198D01*
X551015Y-7886198D02*
X541491Y-7895722D01*
X541491Y-7895722D02*
X531967Y-7914769D01*
X770062Y-7800484D02*
X789110Y-7800484D01*
X789110Y-7800484D02*
X808158Y-7810008D01*
X808158Y-7810008D02*
X817682Y-7819531D01*
X817682Y-7819531D02*
X827205Y-7838579D01*
X827205Y-7838579D02*
X836729Y-7876674D01*
X836729Y-7876674D02*
X836729Y-7924293D01*
X836729Y-7924293D02*
X827205Y-7962388D01*
X827205Y-7962388D02*
X817682Y-7981436D01*
X817682Y-7981436D02*
X808158Y-7990960D01*
X808158Y-7990960D02*
X789110Y-8000484D01*
X789110Y-8000484D02*
X770062Y-8000484D01*
X770062Y-8000484D02*
X751015Y-7990960D01*
X751015Y-7990960D02*
X741491Y-7981436D01*
X741491Y-7981436D02*
X731967Y-7962388D01*
X731967Y-7962388D02*
X722443Y-7924293D01*
X722443Y-7924293D02*
X722443Y-7876674D01*
X722443Y-7876674D02*
X731967Y-7838579D01*
X731967Y-7838579D02*
X741491Y-7819531D01*
X741491Y-7819531D02*
X751015Y-7810008D01*
X751015Y-7810008D02*
X770062Y-7800484D01*
X960539Y-7800484D02*
X979586Y-7800484D01*
X979586Y-7800484D02*
X998634Y-7810008D01*
X998634Y-7810008D02*
X1008158Y-7819531D01*
X1008158Y-7819531D02*
X1017682Y-7838579D01*
X1017682Y-7838579D02*
X1027205Y-7876674D01*
X1027205Y-7876674D02*
X1027205Y-7924293D01*
X1027205Y-7924293D02*
X1017682Y-7962388D01*
X1017682Y-7962388D02*
X1008158Y-7981436D01*
X1008158Y-7981436D02*
X998634Y-7990960D01*
X998634Y-7990960D02*
X979586Y-8000484D01*
X979586Y-8000484D02*
X960539Y-8000484D01*
X960539Y-8000484D02*
X941491Y-7990960D01*
X941491Y-7990960D02*
X931967Y-7981436D01*
X931967Y-7981436D02*
X922443Y-7962388D01*
X922443Y-7962388D02*
X912920Y-7924293D01*
X912920Y-7924293D02*
X912920Y-7876674D01*
X912920Y-7876674D02*
X922443Y-7838579D01*
X922443Y-7838579D02*
X931967Y-7819531D01*
X931967Y-7819531D02*
X941491Y-7810008D01*
X941491Y-7810008D02*
X960539Y-7800484D01*
X1112920Y-8000484D02*
X1112920Y-7867150D01*
X1112920Y-7886198D02*
X1122444Y-7876674D01*
X1122444Y-7876674D02*
X1141491Y-7867150D01*
X1141491Y-7867150D02*
X1170063Y-7867150D01*
X1170063Y-7867150D02*
X1189110Y-7876674D01*
X1189110Y-7876674D02*
X1198634Y-7895722D01*
X1198634Y-7895722D02*
X1198634Y-8000484D01*
X1198634Y-7895722D02*
X1208158Y-7876674D01*
X1208158Y-7876674D02*
X1227205Y-7867150D01*
X1227205Y-7867150D02*
X1255777Y-7867150D01*
X1255777Y-7867150D02*
X1274825Y-7876674D01*
X1274825Y-7876674D02*
X1284348Y-7895722D01*
X1284348Y-7895722D02*
X1284348Y-8000484D01*
X1379586Y-8000484D02*
X1379586Y-7867150D01*
X1379586Y-7886198D02*
X1389110Y-7876674D01*
X1389110Y-7876674D02*
X1408158Y-7867150D01*
X1408158Y-7867150D02*
X1436729Y-7867150D01*
X1436729Y-7867150D02*
X1455777Y-7876674D01*
X1455777Y-7876674D02*
X1465301Y-7895722D01*
X1465301Y-7895722D02*
X1465301Y-8000484D01*
X1465301Y-7895722D02*
X1474824Y-7876674D01*
X1474824Y-7876674D02*
X1493872Y-7867150D01*
X1493872Y-7867150D02*
X1522443Y-7867150D01*
X1522443Y-7867150D02*
X1541491Y-7876674D01*
X1541491Y-7876674D02*
X1551015Y-7895722D01*
X1551015Y-7895722D02*
X1551015Y-8000484D01*
X1941491Y-7790960D02*
X1770063Y-8048103D01*
X2198634Y-7800484D02*
X2217682Y-7800484D01*
X2217682Y-7800484D02*
X2236729Y-7810008D01*
X2236729Y-7810008D02*
X2246253Y-7819531D01*
X2246253Y-7819531D02*
X2255777Y-7838579D01*
X2255777Y-7838579D02*
X2265301Y-7876674D01*
X2265301Y-7876674D02*
X2265301Y-7924293D01*
X2265301Y-7924293D02*
X2255777Y-7962388D01*
X2255777Y-7962388D02*
X2246253Y-7981436D01*
X2246253Y-7981436D02*
X2236729Y-7990960D01*
X2236729Y-7990960D02*
X2217682Y-8000484D01*
X2217682Y-8000484D02*
X2198634Y-8000484D01*
X2198634Y-8000484D02*
X2179587Y-7990960D01*
X2179587Y-7990960D02*
X2170063Y-7981436D01*
X2170063Y-7981436D02*
X2160539Y-7962388D01*
X2160539Y-7962388D02*
X2151015Y-7924293D01*
X2151015Y-7924293D02*
X2151015Y-7876674D01*
X2151015Y-7876674D02*
X2160539Y-7838579D01*
X2160539Y-7838579D02*
X2170063Y-7819531D01*
X2170063Y-7819531D02*
X2179587Y-7810008D01*
X2179587Y-7810008D02*
X2198634Y-7800484D01*
X2351015Y-7981436D02*
X2360539Y-7990960D01*
X2360539Y-7990960D02*
X2351015Y-8000484D01*
X2351015Y-8000484D02*
X2341491Y-7990960D01*
X2341491Y-7990960D02*
X2351015Y-7981436D01*
X2351015Y-7981436D02*
X2351015Y-8000484D01*
X2484348Y-7800484D02*
X2503396Y-7800484D01*
X2503396Y-7800484D02*
X2522444Y-7810008D01*
X2522444Y-7810008D02*
X2531968Y-7819531D01*
X2531968Y-7819531D02*
X2541491Y-7838579D01*
X2541491Y-7838579D02*
X2551015Y-7876674D01*
X2551015Y-7876674D02*
X2551015Y-7924293D01*
X2551015Y-7924293D02*
X2541491Y-7962388D01*
X2541491Y-7962388D02*
X2531968Y-7981436D01*
X2531968Y-7981436D02*
X2522444Y-7990960D01*
X2522444Y-7990960D02*
X2503396Y-8000484D01*
X2503396Y-8000484D02*
X2484348Y-8000484D01*
X2484348Y-8000484D02*
X2465301Y-7990960D01*
X2465301Y-7990960D02*
X2455777Y-7981436D01*
X2455777Y-7981436D02*
X2446253Y-7962388D01*
X2446253Y-7962388D02*
X2436729Y-7924293D01*
X2436729Y-7924293D02*
X2436729Y-7876674D01*
X2436729Y-7876674D02*
X2446253Y-7838579D01*
X2446253Y-7838579D02*
X2455777Y-7819531D01*
X2455777Y-7819531D02*
X2465301Y-7810008D01*
X2465301Y-7810008D02*
X2484348Y-7800484D01*
X2627206Y-7819531D02*
X2636729Y-7810008D01*
X2636729Y-7810008D02*
X2655777Y-7800484D01*
X2655777Y-7800484D02*
X2703396Y-7800484D01*
X2703396Y-7800484D02*
X2722444Y-7810008D01*
X2722444Y-7810008D02*
X2731968Y-7819531D01*
X2731968Y-7819531D02*
X2741491Y-7838579D01*
X2741491Y-7838579D02*
X2741491Y-7857627D01*
X2741491Y-7857627D02*
X2731968Y-7886198D01*
X2731968Y-7886198D02*
X2617682Y-8000484D01*
X2617682Y-8000484D02*
X2741491Y-8000484D01*
X2808158Y-7800484D02*
X2931967Y-7800484D01*
X2931967Y-7800484D02*
X2865301Y-7876674D01*
X2865301Y-7876674D02*
X2893872Y-7876674D01*
X2893872Y-7876674D02*
X2912920Y-7886198D01*
X2912920Y-7886198D02*
X2922444Y-7895722D01*
X2922444Y-7895722D02*
X2931967Y-7914769D01*
X2931967Y-7914769D02*
X2931967Y-7962388D01*
X2931967Y-7962388D02*
X2922444Y-7981436D01*
X2922444Y-7981436D02*
X2912920Y-7990960D01*
X2912920Y-7990960D02*
X2893872Y-8000484D01*
X2893872Y-8000484D02*
X2836729Y-8000484D01*
X2836729Y-8000484D02*
X2817682Y-7990960D01*
X2817682Y-7990960D02*
X2808158Y-7981436D01*
X3103396Y-7800484D02*
X3065301Y-7800484D01*
X3065301Y-7800484D02*
X3046253Y-7810008D01*
X3046253Y-7810008D02*
X3036729Y-7819531D01*
X3036729Y-7819531D02*
X3017682Y-7848103D01*
X3017682Y-7848103D02*
X3008158Y-7886198D01*
X3008158Y-7886198D02*
X3008158Y-7962388D01*
X3008158Y-7962388D02*
X3017682Y-7981436D01*
X3017682Y-7981436D02*
X3027206Y-7990960D01*
X3027206Y-7990960D02*
X3046253Y-8000484D01*
X3046253Y-8000484D02*
X3084348Y-8000484D01*
X3084348Y-8000484D02*
X3103396Y-7990960D01*
X3103396Y-7990960D02*
X3112920Y-7981436D01*
X3112920Y-7981436D02*
X3122444Y-7962388D01*
X3122444Y-7962388D02*
X3122444Y-7914769D01*
X3122444Y-7914769D02*
X3112920Y-7895722D01*
X3112920Y-7895722D02*
X3103396Y-7886198D01*
X3103396Y-7886198D02*
X3084348Y-7876674D01*
X3084348Y-7876674D02*
X3046253Y-7876674D01*
X3046253Y-7876674D02*
X3027206Y-7886198D01*
X3027206Y-7886198D02*
X3017682Y-7895722D01*
X3017682Y-7895722D02*
X3008158Y-7914769D01*
X3198634Y-7800484D02*
X3198634Y-7838579D01*
X3274825Y-7800484D02*
X3274825Y-7838579D01*
X3570063Y-8076674D02*
X3560539Y-8067150D01*
X3560539Y-8067150D02*
X3541491Y-8038579D01*
X3541491Y-8038579D02*
X3531968Y-8019531D01*
X3531968Y-8019531D02*
X3522444Y-7990960D01*
X3522444Y-7990960D02*
X3512920Y-7943341D01*
X3512920Y-7943341D02*
X3512920Y-7905246D01*
X3512920Y-7905246D02*
X3522444Y-7857627D01*
X3522444Y-7857627D02*
X3531968Y-7829055D01*
X3531968Y-7829055D02*
X3541491Y-7810008D01*
X3541491Y-7810008D02*
X3560539Y-7781436D01*
X3560539Y-7781436D02*
X3570063Y-7771912D01*
X3684348Y-7800484D02*
X3703396Y-7800484D01*
X3703396Y-7800484D02*
X3722444Y-7810008D01*
X3722444Y-7810008D02*
X3731968Y-7819531D01*
X3731968Y-7819531D02*
X3741491Y-7838579D01*
X3741491Y-7838579D02*
X3751015Y-7876674D01*
X3751015Y-7876674D02*
X3751015Y-7924293D01*
X3751015Y-7924293D02*
X3741491Y-7962388D01*
X3741491Y-7962388D02*
X3731968Y-7981436D01*
X3731968Y-7981436D02*
X3722444Y-7990960D01*
X3722444Y-7990960D02*
X3703396Y-8000484D01*
X3703396Y-8000484D02*
X3684348Y-8000484D01*
X3684348Y-8000484D02*
X3665301Y-7990960D01*
X3665301Y-7990960D02*
X3655777Y-7981436D01*
X3655777Y-7981436D02*
X3646253Y-7962388D01*
X3646253Y-7962388D02*
X3636729Y-7924293D01*
X3636729Y-7924293D02*
X3636729Y-7876674D01*
X3636729Y-7876674D02*
X3646253Y-7838579D01*
X3646253Y-7838579D02*
X3655777Y-7819531D01*
X3655777Y-7819531D02*
X3665301Y-7810008D01*
X3665301Y-7810008D02*
X3684348Y-7800484D01*
X3989110Y-8000484D02*
X3989110Y-7800484D01*
X4074825Y-8000484D02*
X4074825Y-7895722D01*
X4074825Y-7895722D02*
X4065301Y-7876674D01*
X4065301Y-7876674D02*
X4046253Y-7867150D01*
X4046253Y-7867150D02*
X4017682Y-7867150D01*
X4017682Y-7867150D02*
X3998634Y-7876674D01*
X3998634Y-7876674D02*
X3989110Y-7886198D01*
X4198634Y-8000484D02*
X4179587Y-7990960D01*
X4179587Y-7990960D02*
X4170063Y-7981436D01*
X4170063Y-7981436D02*
X4160539Y-7962388D01*
X4160539Y-7962388D02*
X4160539Y-7905246D01*
X4160539Y-7905246D02*
X4170063Y-7886198D01*
X4170063Y-7886198D02*
X4179587Y-7876674D01*
X4179587Y-7876674D02*
X4198634Y-7867150D01*
X4198634Y-7867150D02*
X4227206Y-7867150D01*
X4227206Y-7867150D02*
X4246253Y-7876674D01*
X4246253Y-7876674D02*
X4255777Y-7886198D01*
X4255777Y-7886198D02*
X4265301Y-7905246D01*
X4265301Y-7905246D02*
X4265301Y-7962388D01*
X4265301Y-7962388D02*
X4255777Y-7981436D01*
X4255777Y-7981436D02*
X4246253Y-7990960D01*
X4246253Y-7990960D02*
X4227206Y-8000484D01*
X4227206Y-8000484D02*
X4198634Y-8000484D01*
X4379587Y-8000484D02*
X4360539Y-7990960D01*
X4360539Y-7990960D02*
X4351015Y-7971912D01*
X4351015Y-7971912D02*
X4351015Y-7800484D01*
X4531968Y-7990960D02*
X4512920Y-8000484D01*
X4512920Y-8000484D02*
X4474825Y-8000484D01*
X4474825Y-8000484D02*
X4455777Y-7990960D01*
X4455777Y-7990960D02*
X4446253Y-7971912D01*
X4446253Y-7971912D02*
X4446253Y-7895722D01*
X4446253Y-7895722D02*
X4455777Y-7876674D01*
X4455777Y-7876674D02*
X4474825Y-7867150D01*
X4474825Y-7867150D02*
X4512920Y-7867150D01*
X4512920Y-7867150D02*
X4531968Y-7876674D01*
X4531968Y-7876674D02*
X4541492Y-7895722D01*
X4541492Y-7895722D02*
X4541492Y-7914769D01*
X4541492Y-7914769D02*
X4446253Y-7933817D01*
X4617682Y-7990960D02*
X4636730Y-8000484D01*
X4636730Y-8000484D02*
X4674825Y-8000484D01*
X4674825Y-8000484D02*
X4693873Y-7990960D01*
X4693873Y-7990960D02*
X4703396Y-7971912D01*
X4703396Y-7971912D02*
X4703396Y-7962388D01*
X4703396Y-7962388D02*
X4693873Y-7943341D01*
X4693873Y-7943341D02*
X4674825Y-7933817D01*
X4674825Y-7933817D02*
X4646253Y-7933817D01*
X4646253Y-7933817D02*
X4627206Y-7924293D01*
X4627206Y-7924293D02*
X4617682Y-7905246D01*
X4617682Y-7905246D02*
X4617682Y-7895722D01*
X4617682Y-7895722D02*
X4627206Y-7876674D01*
X4627206Y-7876674D02*
X4646253Y-7867150D01*
X4646253Y-7867150D02*
X4674825Y-7867150D01*
X4674825Y-7867150D02*
X4693873Y-7876674D01*
X4941492Y-7924293D02*
X5093873Y-7924293D01*
X5017682Y-8000484D02*
X5017682Y-7848103D01*
X5427206Y-7867150D02*
X5427206Y-8000484D01*
X5379587Y-7790960D02*
X5331968Y-7933817D01*
X5331968Y-7933817D02*
X5455777Y-7933817D01*
X5674825Y-7990960D02*
X5693873Y-8000484D01*
X5693873Y-8000484D02*
X5731968Y-8000484D01*
X5731968Y-8000484D02*
X5751015Y-7990960D01*
X5751015Y-7990960D02*
X5760539Y-7971912D01*
X5760539Y-7971912D02*
X5760539Y-7962388D01*
X5760539Y-7962388D02*
X5751015Y-7943341D01*
X5751015Y-7943341D02*
X5731968Y-7933817D01*
X5731968Y-7933817D02*
X5703396Y-7933817D01*
X5703396Y-7933817D02*
X5684349Y-7924293D01*
X5684349Y-7924293D02*
X5674825Y-7905246D01*
X5674825Y-7905246D02*
X5674825Y-7895722D01*
X5674825Y-7895722D02*
X5684349Y-7876674D01*
X5684349Y-7876674D02*
X5703396Y-7867150D01*
X5703396Y-7867150D02*
X5731968Y-7867150D01*
X5731968Y-7867150D02*
X5751015Y-7876674D01*
X5874825Y-8000484D02*
X5855777Y-7990960D01*
X5855777Y-7990960D02*
X5846254Y-7971912D01*
X5846254Y-7971912D02*
X5846254Y-7800484D01*
X5979587Y-8000484D02*
X5960539Y-7990960D01*
X5960539Y-7990960D02*
X5951015Y-7981436D01*
X5951015Y-7981436D02*
X5941492Y-7962388D01*
X5941492Y-7962388D02*
X5941492Y-7905246D01*
X5941492Y-7905246D02*
X5951015Y-7886198D01*
X5951015Y-7886198D02*
X5960539Y-7876674D01*
X5960539Y-7876674D02*
X5979587Y-7867150D01*
X5979587Y-7867150D02*
X6008158Y-7867150D01*
X6008158Y-7867150D02*
X6027206Y-7876674D01*
X6027206Y-7876674D02*
X6036730Y-7886198D01*
X6036730Y-7886198D02*
X6046254Y-7905246D01*
X6046254Y-7905246D02*
X6046254Y-7962388D01*
X6046254Y-7962388D02*
X6036730Y-7981436D01*
X6036730Y-7981436D02*
X6027206Y-7990960D01*
X6027206Y-7990960D02*
X6008158Y-8000484D01*
X6008158Y-8000484D02*
X5979587Y-8000484D01*
X6103396Y-7867150D02*
X6179587Y-7867150D01*
X6131968Y-7800484D02*
X6131968Y-7971912D01*
X6131968Y-7971912D02*
X6141492Y-7990960D01*
X6141492Y-7990960D02*
X6160539Y-8000484D01*
X6160539Y-8000484D02*
X6179587Y-8000484D01*
X6236730Y-7990960D02*
X6255777Y-8000484D01*
X6255777Y-8000484D02*
X6293873Y-8000484D01*
X6293873Y-8000484D02*
X6312920Y-7990960D01*
X6312920Y-7990960D02*
X6322444Y-7971912D01*
X6322444Y-7971912D02*
X6322444Y-7962388D01*
X6322444Y-7962388D02*
X6312920Y-7943341D01*
X6312920Y-7943341D02*
X6293873Y-7933817D01*
X6293873Y-7933817D02*
X6265301Y-7933817D01*
X6265301Y-7933817D02*
X6246254Y-7924293D01*
X6246254Y-7924293D02*
X6236730Y-7905246D01*
X6236730Y-7905246D02*
X6236730Y-7895722D01*
X6236730Y-7895722D02*
X6246254Y-7876674D01*
X6246254Y-7876674D02*
X6265301Y-7867150D01*
X6265301Y-7867150D02*
X6293873Y-7867150D01*
X6293873Y-7867150D02*
X6312920Y-7876674D01*
X6389111Y-8076674D02*
X6398635Y-8067150D01*
X6398635Y-8067150D02*
X6417682Y-8038579D01*
X6417682Y-8038579D02*
X6427206Y-8019531D01*
X6427206Y-8019531D02*
X6436730Y-7990960D01*
X6436730Y-7990960D02*
X6446254Y-7943341D01*
X6446254Y-7943341D02*
X6446254Y-7905246D01*
X6446254Y-7905246D02*
X6436730Y-7857627D01*
X6436730Y-7857627D02*
X6427206Y-7829055D01*
X6427206Y-7829055D02*
X6417682Y-7810008D01*
X6417682Y-7810008D02*
X6398635Y-7781436D01*
X6398635Y-7781436D02*
X6389111Y-7771912D01*
D10*
X-55000Y-8123000D02*
X-55000Y-8223000D01*
X-105000Y-8173000D02*
X-5000Y-8173000D01*
D11*
X360539Y-8264484D02*
X246253Y-8264484D01*
X303396Y-8264484D02*
X303396Y-8064484D01*
X303396Y-8064484D02*
X284348Y-8093055D01*
X284348Y-8093055D02*
X265301Y-8112103D01*
X265301Y-8112103D02*
X246253Y-8121627D01*
X446253Y-8245436D02*
X455777Y-8254960D01*
X455777Y-8254960D02*
X446253Y-8264484D01*
X446253Y-8264484D02*
X436729Y-8254960D01*
X436729Y-8254960D02*
X446253Y-8245436D01*
X446253Y-8245436D02*
X446253Y-8264484D01*
X579586Y-8064484D02*
X598634Y-8064484D01*
X598634Y-8064484D02*
X617682Y-8074008D01*
X617682Y-8074008D02*
X627205Y-8083531D01*
X627205Y-8083531D02*
X636729Y-8102579D01*
X636729Y-8102579D02*
X646253Y-8140674D01*
X646253Y-8140674D02*
X646253Y-8188293D01*
X646253Y-8188293D02*
X636729Y-8226388D01*
X636729Y-8226388D02*
X627205Y-8245436D01*
X627205Y-8245436D02*
X617682Y-8254960D01*
X617682Y-8254960D02*
X598634Y-8264484D01*
X598634Y-8264484D02*
X579586Y-8264484D01*
X579586Y-8264484D02*
X560539Y-8254960D01*
X560539Y-8254960D02*
X551015Y-8245436D01*
X551015Y-8245436D02*
X541491Y-8226388D01*
X541491Y-8226388D02*
X531967Y-8188293D01*
X531967Y-8188293D02*
X531967Y-8140674D01*
X531967Y-8140674D02*
X541491Y-8102579D01*
X541491Y-8102579D02*
X551015Y-8083531D01*
X551015Y-8083531D02*
X560539Y-8074008D01*
X560539Y-8074008D02*
X579586Y-8064484D01*
X770062Y-8064484D02*
X789110Y-8064484D01*
X789110Y-8064484D02*
X808158Y-8074008D01*
X808158Y-8074008D02*
X817682Y-8083531D01*
X817682Y-8083531D02*
X827205Y-8102579D01*
X827205Y-8102579D02*
X836729Y-8140674D01*
X836729Y-8140674D02*
X836729Y-8188293D01*
X836729Y-8188293D02*
X827205Y-8226388D01*
X827205Y-8226388D02*
X817682Y-8245436D01*
X817682Y-8245436D02*
X808158Y-8254960D01*
X808158Y-8254960D02*
X789110Y-8264484D01*
X789110Y-8264484D02*
X770062Y-8264484D01*
X770062Y-8264484D02*
X751015Y-8254960D01*
X751015Y-8254960D02*
X741491Y-8245436D01*
X741491Y-8245436D02*
X731967Y-8226388D01*
X731967Y-8226388D02*
X722443Y-8188293D01*
X722443Y-8188293D02*
X722443Y-8140674D01*
X722443Y-8140674D02*
X731967Y-8102579D01*
X731967Y-8102579D02*
X741491Y-8083531D01*
X741491Y-8083531D02*
X751015Y-8074008D01*
X751015Y-8074008D02*
X770062Y-8064484D01*
X960539Y-8064484D02*
X979586Y-8064484D01*
X979586Y-8064484D02*
X998634Y-8074008D01*
X998634Y-8074008D02*
X1008158Y-8083531D01*
X1008158Y-8083531D02*
X1017682Y-8102579D01*
X1017682Y-8102579D02*
X1027205Y-8140674D01*
X1027205Y-8140674D02*
X1027205Y-8188293D01*
X1027205Y-8188293D02*
X1017682Y-8226388D01*
X1017682Y-8226388D02*
X1008158Y-8245436D01*
X1008158Y-8245436D02*
X998634Y-8254960D01*
X998634Y-8254960D02*
X979586Y-8264484D01*
X979586Y-8264484D02*
X960539Y-8264484D01*
X960539Y-8264484D02*
X941491Y-8254960D01*
X941491Y-8254960D02*
X931967Y-8245436D01*
X931967Y-8245436D02*
X922443Y-8226388D01*
X922443Y-8226388D02*
X912920Y-8188293D01*
X912920Y-8188293D02*
X912920Y-8140674D01*
X912920Y-8140674D02*
X922443Y-8102579D01*
X922443Y-8102579D02*
X931967Y-8083531D01*
X931967Y-8083531D02*
X941491Y-8074008D01*
X941491Y-8074008D02*
X960539Y-8064484D01*
X1112920Y-8264484D02*
X1112920Y-8131150D01*
X1112920Y-8150198D02*
X1122444Y-8140674D01*
X1122444Y-8140674D02*
X1141491Y-8131150D01*
X1141491Y-8131150D02*
X1170063Y-8131150D01*
X1170063Y-8131150D02*
X1189110Y-8140674D01*
X1189110Y-8140674D02*
X1198634Y-8159722D01*
X1198634Y-8159722D02*
X1198634Y-8264484D01*
X1198634Y-8159722D02*
X1208158Y-8140674D01*
X1208158Y-8140674D02*
X1227205Y-8131150D01*
X1227205Y-8131150D02*
X1255777Y-8131150D01*
X1255777Y-8131150D02*
X1274825Y-8140674D01*
X1274825Y-8140674D02*
X1284348Y-8159722D01*
X1284348Y-8159722D02*
X1284348Y-8264484D01*
X1379586Y-8264484D02*
X1379586Y-8131150D01*
X1379586Y-8150198D02*
X1389110Y-8140674D01*
X1389110Y-8140674D02*
X1408158Y-8131150D01*
X1408158Y-8131150D02*
X1436729Y-8131150D01*
X1436729Y-8131150D02*
X1455777Y-8140674D01*
X1455777Y-8140674D02*
X1465301Y-8159722D01*
X1465301Y-8159722D02*
X1465301Y-8264484D01*
X1465301Y-8159722D02*
X1474824Y-8140674D01*
X1474824Y-8140674D02*
X1493872Y-8131150D01*
X1493872Y-8131150D02*
X1522443Y-8131150D01*
X1522443Y-8131150D02*
X1541491Y-8140674D01*
X1541491Y-8140674D02*
X1551015Y-8159722D01*
X1551015Y-8159722D02*
X1551015Y-8264484D01*
X1941491Y-8054960D02*
X1770063Y-8312103D01*
X2198634Y-8064484D02*
X2217682Y-8064484D01*
X2217682Y-8064484D02*
X2236729Y-8074008D01*
X2236729Y-8074008D02*
X2246253Y-8083531D01*
X2246253Y-8083531D02*
X2255777Y-8102579D01*
X2255777Y-8102579D02*
X2265301Y-8140674D01*
X2265301Y-8140674D02*
X2265301Y-8188293D01*
X2265301Y-8188293D02*
X2255777Y-8226388D01*
X2255777Y-8226388D02*
X2246253Y-8245436D01*
X2246253Y-8245436D02*
X2236729Y-8254960D01*
X2236729Y-8254960D02*
X2217682Y-8264484D01*
X2217682Y-8264484D02*
X2198634Y-8264484D01*
X2198634Y-8264484D02*
X2179587Y-8254960D01*
X2179587Y-8254960D02*
X2170063Y-8245436D01*
X2170063Y-8245436D02*
X2160539Y-8226388D01*
X2160539Y-8226388D02*
X2151015Y-8188293D01*
X2151015Y-8188293D02*
X2151015Y-8140674D01*
X2151015Y-8140674D02*
X2160539Y-8102579D01*
X2160539Y-8102579D02*
X2170063Y-8083531D01*
X2170063Y-8083531D02*
X2179587Y-8074008D01*
X2179587Y-8074008D02*
X2198634Y-8064484D01*
X2351015Y-8245436D02*
X2360539Y-8254960D01*
X2360539Y-8254960D02*
X2351015Y-8264484D01*
X2351015Y-8264484D02*
X2341491Y-8254960D01*
X2341491Y-8254960D02*
X2351015Y-8245436D01*
X2351015Y-8245436D02*
X2351015Y-8264484D01*
X2484348Y-8064484D02*
X2503396Y-8064484D01*
X2503396Y-8064484D02*
X2522444Y-8074008D01*
X2522444Y-8074008D02*
X2531968Y-8083531D01*
X2531968Y-8083531D02*
X2541491Y-8102579D01*
X2541491Y-8102579D02*
X2551015Y-8140674D01*
X2551015Y-8140674D02*
X2551015Y-8188293D01*
X2551015Y-8188293D02*
X2541491Y-8226388D01*
X2541491Y-8226388D02*
X2531968Y-8245436D01*
X2531968Y-8245436D02*
X2522444Y-8254960D01*
X2522444Y-8254960D02*
X2503396Y-8264484D01*
X2503396Y-8264484D02*
X2484348Y-8264484D01*
X2484348Y-8264484D02*
X2465301Y-8254960D01*
X2465301Y-8254960D02*
X2455777Y-8245436D01*
X2455777Y-8245436D02*
X2446253Y-8226388D01*
X2446253Y-8226388D02*
X2436729Y-8188293D01*
X2436729Y-8188293D02*
X2436729Y-8140674D01*
X2436729Y-8140674D02*
X2446253Y-8102579D01*
X2446253Y-8102579D02*
X2455777Y-8083531D01*
X2455777Y-8083531D02*
X2465301Y-8074008D01*
X2465301Y-8074008D02*
X2484348Y-8064484D01*
X2617682Y-8064484D02*
X2741491Y-8064484D01*
X2741491Y-8064484D02*
X2674825Y-8140674D01*
X2674825Y-8140674D02*
X2703396Y-8140674D01*
X2703396Y-8140674D02*
X2722444Y-8150198D01*
X2722444Y-8150198D02*
X2731968Y-8159722D01*
X2731968Y-8159722D02*
X2741491Y-8178769D01*
X2741491Y-8178769D02*
X2741491Y-8226388D01*
X2741491Y-8226388D02*
X2731968Y-8245436D01*
X2731968Y-8245436D02*
X2722444Y-8254960D01*
X2722444Y-8254960D02*
X2703396Y-8264484D01*
X2703396Y-8264484D02*
X2646253Y-8264484D01*
X2646253Y-8264484D02*
X2627206Y-8254960D01*
X2627206Y-8254960D02*
X2617682Y-8245436D01*
X2836729Y-8264484D02*
X2874825Y-8264484D01*
X2874825Y-8264484D02*
X2893872Y-8254960D01*
X2893872Y-8254960D02*
X2903396Y-8245436D01*
X2903396Y-8245436D02*
X2922444Y-8216865D01*
X2922444Y-8216865D02*
X2931967Y-8178769D01*
X2931967Y-8178769D02*
X2931967Y-8102579D01*
X2931967Y-8102579D02*
X2922444Y-8083531D01*
X2922444Y-8083531D02*
X2912920Y-8074008D01*
X2912920Y-8074008D02*
X2893872Y-8064484D01*
X2893872Y-8064484D02*
X2855777Y-8064484D01*
X2855777Y-8064484D02*
X2836729Y-8074008D01*
X2836729Y-8074008D02*
X2827206Y-8083531D01*
X2827206Y-8083531D02*
X2817682Y-8102579D01*
X2817682Y-8102579D02*
X2817682Y-8150198D01*
X2817682Y-8150198D02*
X2827206Y-8169246D01*
X2827206Y-8169246D02*
X2836729Y-8178769D01*
X2836729Y-8178769D02*
X2855777Y-8188293D01*
X2855777Y-8188293D02*
X2893872Y-8188293D01*
X2893872Y-8188293D02*
X2912920Y-8178769D01*
X2912920Y-8178769D02*
X2922444Y-8169246D01*
X2922444Y-8169246D02*
X2931967Y-8150198D01*
X3103396Y-8131150D02*
X3103396Y-8264484D01*
X3055777Y-8054960D02*
X3008158Y-8197817D01*
X3008158Y-8197817D02*
X3131967Y-8197817D01*
X3198634Y-8064484D02*
X3198634Y-8102579D01*
X3274825Y-8064484D02*
X3274825Y-8102579D01*
X3570063Y-8340674D02*
X3560539Y-8331150D01*
X3560539Y-8331150D02*
X3541491Y-8302579D01*
X3541491Y-8302579D02*
X3531968Y-8283531D01*
X3531968Y-8283531D02*
X3522444Y-8254960D01*
X3522444Y-8254960D02*
X3512920Y-8207341D01*
X3512920Y-8207341D02*
X3512920Y-8169246D01*
X3512920Y-8169246D02*
X3522444Y-8121627D01*
X3522444Y-8121627D02*
X3531968Y-8093055D01*
X3531968Y-8093055D02*
X3541491Y-8074008D01*
X3541491Y-8074008D02*
X3560539Y-8045436D01*
X3560539Y-8045436D02*
X3570063Y-8035912D01*
X3751015Y-8264484D02*
X3636729Y-8264484D01*
X3693872Y-8264484D02*
X3693872Y-8064484D01*
X3693872Y-8064484D02*
X3674825Y-8093055D01*
X3674825Y-8093055D02*
X3655777Y-8112103D01*
X3655777Y-8112103D02*
X3636729Y-8121627D01*
X3865301Y-8150198D02*
X3846253Y-8140674D01*
X3846253Y-8140674D02*
X3836729Y-8131150D01*
X3836729Y-8131150D02*
X3827206Y-8112103D01*
X3827206Y-8112103D02*
X3827206Y-8102579D01*
X3827206Y-8102579D02*
X3836729Y-8083531D01*
X3836729Y-8083531D02*
X3846253Y-8074008D01*
X3846253Y-8074008D02*
X3865301Y-8064484D01*
X3865301Y-8064484D02*
X3903396Y-8064484D01*
X3903396Y-8064484D02*
X3922444Y-8074008D01*
X3922444Y-8074008D02*
X3931968Y-8083531D01*
X3931968Y-8083531D02*
X3941491Y-8102579D01*
X3941491Y-8102579D02*
X3941491Y-8112103D01*
X3941491Y-8112103D02*
X3931968Y-8131150D01*
X3931968Y-8131150D02*
X3922444Y-8140674D01*
X3922444Y-8140674D02*
X3903396Y-8150198D01*
X3903396Y-8150198D02*
X3865301Y-8150198D01*
X3865301Y-8150198D02*
X3846253Y-8159722D01*
X3846253Y-8159722D02*
X3836729Y-8169246D01*
X3836729Y-8169246D02*
X3827206Y-8188293D01*
X3827206Y-8188293D02*
X3827206Y-8226388D01*
X3827206Y-8226388D02*
X3836729Y-8245436D01*
X3836729Y-8245436D02*
X3846253Y-8254960D01*
X3846253Y-8254960D02*
X3865301Y-8264484D01*
X3865301Y-8264484D02*
X3903396Y-8264484D01*
X3903396Y-8264484D02*
X3922444Y-8254960D01*
X3922444Y-8254960D02*
X3931968Y-8245436D01*
X3931968Y-8245436D02*
X3941491Y-8226388D01*
X3941491Y-8226388D02*
X3941491Y-8188293D01*
X3941491Y-8188293D02*
X3931968Y-8169246D01*
X3931968Y-8169246D02*
X3922444Y-8159722D01*
X3922444Y-8159722D02*
X3903396Y-8150198D01*
X4179587Y-8264484D02*
X4179587Y-8064484D01*
X4265301Y-8264484D02*
X4265301Y-8159722D01*
X4265301Y-8159722D02*
X4255777Y-8140674D01*
X4255777Y-8140674D02*
X4236730Y-8131150D01*
X4236730Y-8131150D02*
X4208158Y-8131150D01*
X4208158Y-8131150D02*
X4189110Y-8140674D01*
X4189110Y-8140674D02*
X4179587Y-8150198D01*
X4389111Y-8264484D02*
X4370063Y-8254960D01*
X4370063Y-8254960D02*
X4360539Y-8245436D01*
X4360539Y-8245436D02*
X4351015Y-8226388D01*
X4351015Y-8226388D02*
X4351015Y-8169246D01*
X4351015Y-8169246D02*
X4360539Y-8150198D01*
X4360539Y-8150198D02*
X4370063Y-8140674D01*
X4370063Y-8140674D02*
X4389111Y-8131150D01*
X4389111Y-8131150D02*
X4417682Y-8131150D01*
X4417682Y-8131150D02*
X4436730Y-8140674D01*
X4436730Y-8140674D02*
X4446253Y-8150198D01*
X4446253Y-8150198D02*
X4455777Y-8169246D01*
X4455777Y-8169246D02*
X4455777Y-8226388D01*
X4455777Y-8226388D02*
X4446253Y-8245436D01*
X4446253Y-8245436D02*
X4436730Y-8254960D01*
X4436730Y-8254960D02*
X4417682Y-8264484D01*
X4417682Y-8264484D02*
X4389111Y-8264484D01*
X4570063Y-8264484D02*
X4551015Y-8254960D01*
X4551015Y-8254960D02*
X4541492Y-8235912D01*
X4541492Y-8235912D02*
X4541492Y-8064484D01*
X4722444Y-8254960D02*
X4703396Y-8264484D01*
X4703396Y-8264484D02*
X4665301Y-8264484D01*
X4665301Y-8264484D02*
X4646253Y-8254960D01*
X4646253Y-8254960D02*
X4636730Y-8235912D01*
X4636730Y-8235912D02*
X4636730Y-8159722D01*
X4636730Y-8159722D02*
X4646253Y-8140674D01*
X4646253Y-8140674D02*
X4665301Y-8131150D01*
X4665301Y-8131150D02*
X4703396Y-8131150D01*
X4703396Y-8131150D02*
X4722444Y-8140674D01*
X4722444Y-8140674D02*
X4731968Y-8159722D01*
X4731968Y-8159722D02*
X4731968Y-8178769D01*
X4731968Y-8178769D02*
X4636730Y-8197817D01*
X4808158Y-8254960D02*
X4827206Y-8264484D01*
X4827206Y-8264484D02*
X4865301Y-8264484D01*
X4865301Y-8264484D02*
X4884349Y-8254960D01*
X4884349Y-8254960D02*
X4893873Y-8235912D01*
X4893873Y-8235912D02*
X4893873Y-8226388D01*
X4893873Y-8226388D02*
X4884349Y-8207341D01*
X4884349Y-8207341D02*
X4865301Y-8197817D01*
X4865301Y-8197817D02*
X4836730Y-8197817D01*
X4836730Y-8197817D02*
X4817682Y-8188293D01*
X4817682Y-8188293D02*
X4808158Y-8169246D01*
X4808158Y-8169246D02*
X4808158Y-8159722D01*
X4808158Y-8159722D02*
X4817682Y-8140674D01*
X4817682Y-8140674D02*
X4836730Y-8131150D01*
X4836730Y-8131150D02*
X4865301Y-8131150D01*
X4865301Y-8131150D02*
X4884349Y-8140674D01*
X4960539Y-8340674D02*
X4970063Y-8331150D01*
X4970063Y-8331150D02*
X4989111Y-8302579D01*
X4989111Y-8302579D02*
X4998634Y-8283531D01*
X4998634Y-8283531D02*
X5008158Y-8254960D01*
X5008158Y-8254960D02*
X5017682Y-8207341D01*
X5017682Y-8207341D02*
X5017682Y-8169246D01*
X5017682Y-8169246D02*
X5008158Y-8121627D01*
X5008158Y-8121627D02*
X4998634Y-8093055D01*
X4998634Y-8093055D02*
X4989111Y-8074008D01*
X4989111Y-8074008D02*
X4970063Y-8045436D01*
X4970063Y-8045436D02*
X4960539Y-8035912D01*
D12*
X-22573Y-8479427D02*
X-22573Y-8394573D01*
X-107427Y-8394573D01*
X-107427Y-8479427D01*
X-22573Y-8479427D01*
D11*
X360539Y-8528484D02*
X246253Y-8528484D01*
X303396Y-8528484D02*
X303396Y-8328484D01*
X303396Y-8328484D02*
X284348Y-8357055D01*
X284348Y-8357055D02*
X265301Y-8376103D01*
X265301Y-8376103D02*
X246253Y-8385627D01*
X446253Y-8509436D02*
X455777Y-8518960D01*
X455777Y-8518960D02*
X446253Y-8528484D01*
X446253Y-8528484D02*
X436729Y-8518960D01*
X436729Y-8518960D02*
X446253Y-8509436D01*
X446253Y-8509436D02*
X446253Y-8528484D01*
X531967Y-8347531D02*
X541491Y-8338008D01*
X541491Y-8338008D02*
X560539Y-8328484D01*
X560539Y-8328484D02*
X608158Y-8328484D01*
X608158Y-8328484D02*
X627205Y-8338008D01*
X627205Y-8338008D02*
X636729Y-8347531D01*
X636729Y-8347531D02*
X646253Y-8366579D01*
X646253Y-8366579D02*
X646253Y-8385627D01*
X646253Y-8385627D02*
X636729Y-8414198D01*
X636729Y-8414198D02*
X522443Y-8528484D01*
X522443Y-8528484D02*
X646253Y-8528484D01*
X770062Y-8328484D02*
X789110Y-8328484D01*
X789110Y-8328484D02*
X808158Y-8338008D01*
X808158Y-8338008D02*
X817682Y-8347531D01*
X817682Y-8347531D02*
X827205Y-8366579D01*
X827205Y-8366579D02*
X836729Y-8404674D01*
X836729Y-8404674D02*
X836729Y-8452293D01*
X836729Y-8452293D02*
X827205Y-8490389D01*
X827205Y-8490389D02*
X817682Y-8509436D01*
X817682Y-8509436D02*
X808158Y-8518960D01*
X808158Y-8518960D02*
X789110Y-8528484D01*
X789110Y-8528484D02*
X770062Y-8528484D01*
X770062Y-8528484D02*
X751015Y-8518960D01*
X751015Y-8518960D02*
X741491Y-8509436D01*
X741491Y-8509436D02*
X731967Y-8490389D01*
X731967Y-8490389D02*
X722443Y-8452293D01*
X722443Y-8452293D02*
X722443Y-8404674D01*
X722443Y-8404674D02*
X731967Y-8366579D01*
X731967Y-8366579D02*
X741491Y-8347531D01*
X741491Y-8347531D02*
X751015Y-8338008D01*
X751015Y-8338008D02*
X770062Y-8328484D01*
X960539Y-8328484D02*
X979586Y-8328484D01*
X979586Y-8328484D02*
X998634Y-8338008D01*
X998634Y-8338008D02*
X1008158Y-8347531D01*
X1008158Y-8347531D02*
X1017682Y-8366579D01*
X1017682Y-8366579D02*
X1027205Y-8404674D01*
X1027205Y-8404674D02*
X1027205Y-8452293D01*
X1027205Y-8452293D02*
X1017682Y-8490389D01*
X1017682Y-8490389D02*
X1008158Y-8509436D01*
X1008158Y-8509436D02*
X998634Y-8518960D01*
X998634Y-8518960D02*
X979586Y-8528484D01*
X979586Y-8528484D02*
X960539Y-8528484D01*
X960539Y-8528484D02*
X941491Y-8518960D01*
X941491Y-8518960D02*
X931967Y-8509436D01*
X931967Y-8509436D02*
X922443Y-8490389D01*
X922443Y-8490389D02*
X912920Y-8452293D01*
X912920Y-8452293D02*
X912920Y-8404674D01*
X912920Y-8404674D02*
X922443Y-8366579D01*
X922443Y-8366579D02*
X931967Y-8347531D01*
X931967Y-8347531D02*
X941491Y-8338008D01*
X941491Y-8338008D02*
X960539Y-8328484D01*
X1112920Y-8528484D02*
X1112920Y-8395150D01*
X1112920Y-8414198D02*
X1122444Y-8404674D01*
X1122444Y-8404674D02*
X1141491Y-8395150D01*
X1141491Y-8395150D02*
X1170063Y-8395150D01*
X1170063Y-8395150D02*
X1189110Y-8404674D01*
X1189110Y-8404674D02*
X1198634Y-8423722D01*
X1198634Y-8423722D02*
X1198634Y-8528484D01*
X1198634Y-8423722D02*
X1208158Y-8404674D01*
X1208158Y-8404674D02*
X1227205Y-8395150D01*
X1227205Y-8395150D02*
X1255777Y-8395150D01*
X1255777Y-8395150D02*
X1274825Y-8404674D01*
X1274825Y-8404674D02*
X1284348Y-8423722D01*
X1284348Y-8423722D02*
X1284348Y-8528484D01*
X1379586Y-8528484D02*
X1379586Y-8395150D01*
X1379586Y-8414198D02*
X1389110Y-8404674D01*
X1389110Y-8404674D02*
X1408158Y-8395150D01*
X1408158Y-8395150D02*
X1436729Y-8395150D01*
X1436729Y-8395150D02*
X1455777Y-8404674D01*
X1455777Y-8404674D02*
X1465301Y-8423722D01*
X1465301Y-8423722D02*
X1465301Y-8528484D01*
X1465301Y-8423722D02*
X1474824Y-8404674D01*
X1474824Y-8404674D02*
X1493872Y-8395150D01*
X1493872Y-8395150D02*
X1522443Y-8395150D01*
X1522443Y-8395150D02*
X1541491Y-8404674D01*
X1541491Y-8404674D02*
X1551015Y-8423722D01*
X1551015Y-8423722D02*
X1551015Y-8528484D01*
X1941491Y-8318960D02*
X1770063Y-8576103D01*
X2198634Y-8328484D02*
X2217682Y-8328484D01*
X2217682Y-8328484D02*
X2236729Y-8338008D01*
X2236729Y-8338008D02*
X2246253Y-8347531D01*
X2246253Y-8347531D02*
X2255777Y-8366579D01*
X2255777Y-8366579D02*
X2265301Y-8404674D01*
X2265301Y-8404674D02*
X2265301Y-8452293D01*
X2265301Y-8452293D02*
X2255777Y-8490389D01*
X2255777Y-8490389D02*
X2246253Y-8509436D01*
X2246253Y-8509436D02*
X2236729Y-8518960D01*
X2236729Y-8518960D02*
X2217682Y-8528484D01*
X2217682Y-8528484D02*
X2198634Y-8528484D01*
X2198634Y-8528484D02*
X2179587Y-8518960D01*
X2179587Y-8518960D02*
X2170063Y-8509436D01*
X2170063Y-8509436D02*
X2160539Y-8490389D01*
X2160539Y-8490389D02*
X2151015Y-8452293D01*
X2151015Y-8452293D02*
X2151015Y-8404674D01*
X2151015Y-8404674D02*
X2160539Y-8366579D01*
X2160539Y-8366579D02*
X2170063Y-8347531D01*
X2170063Y-8347531D02*
X2179587Y-8338008D01*
X2179587Y-8338008D02*
X2198634Y-8328484D01*
X2351015Y-8509436D02*
X2360539Y-8518960D01*
X2360539Y-8518960D02*
X2351015Y-8528484D01*
X2351015Y-8528484D02*
X2341491Y-8518960D01*
X2341491Y-8518960D02*
X2351015Y-8509436D01*
X2351015Y-8509436D02*
X2351015Y-8528484D01*
X2484348Y-8328484D02*
X2503396Y-8328484D01*
X2503396Y-8328484D02*
X2522444Y-8338008D01*
X2522444Y-8338008D02*
X2531968Y-8347531D01*
X2531968Y-8347531D02*
X2541491Y-8366579D01*
X2541491Y-8366579D02*
X2551015Y-8404674D01*
X2551015Y-8404674D02*
X2551015Y-8452293D01*
X2551015Y-8452293D02*
X2541491Y-8490389D01*
X2541491Y-8490389D02*
X2531968Y-8509436D01*
X2531968Y-8509436D02*
X2522444Y-8518960D01*
X2522444Y-8518960D02*
X2503396Y-8528484D01*
X2503396Y-8528484D02*
X2484348Y-8528484D01*
X2484348Y-8528484D02*
X2465301Y-8518960D01*
X2465301Y-8518960D02*
X2455777Y-8509436D01*
X2455777Y-8509436D02*
X2446253Y-8490389D01*
X2446253Y-8490389D02*
X2436729Y-8452293D01*
X2436729Y-8452293D02*
X2436729Y-8404674D01*
X2436729Y-8404674D02*
X2446253Y-8366579D01*
X2446253Y-8366579D02*
X2455777Y-8347531D01*
X2455777Y-8347531D02*
X2465301Y-8338008D01*
X2465301Y-8338008D02*
X2484348Y-8328484D01*
X2722444Y-8395150D02*
X2722444Y-8528484D01*
X2674825Y-8318960D02*
X2627206Y-8461817D01*
X2627206Y-8461817D02*
X2751015Y-8461817D01*
X2808158Y-8328484D02*
X2941491Y-8328484D01*
X2941491Y-8328484D02*
X2855777Y-8528484D01*
X3008158Y-8347531D02*
X3017682Y-8338008D01*
X3017682Y-8338008D02*
X3036729Y-8328484D01*
X3036729Y-8328484D02*
X3084348Y-8328484D01*
X3084348Y-8328484D02*
X3103396Y-8338008D01*
X3103396Y-8338008D02*
X3112920Y-8347531D01*
X3112920Y-8347531D02*
X3122444Y-8366579D01*
X3122444Y-8366579D02*
X3122444Y-8385627D01*
X3122444Y-8385627D02*
X3112920Y-8414198D01*
X3112920Y-8414198D02*
X2998634Y-8528484D01*
X2998634Y-8528484D02*
X3122444Y-8528484D01*
X3198634Y-8328484D02*
X3198634Y-8366579D01*
X3274825Y-8328484D02*
X3274825Y-8366579D01*
X3570063Y-8604674D02*
X3560539Y-8595150D01*
X3560539Y-8595150D02*
X3541491Y-8566579D01*
X3541491Y-8566579D02*
X3531968Y-8547531D01*
X3531968Y-8547531D02*
X3522444Y-8518960D01*
X3522444Y-8518960D02*
X3512920Y-8471341D01*
X3512920Y-8471341D02*
X3512920Y-8433246D01*
X3512920Y-8433246D02*
X3522444Y-8385627D01*
X3522444Y-8385627D02*
X3531968Y-8357055D01*
X3531968Y-8357055D02*
X3541491Y-8338008D01*
X3541491Y-8338008D02*
X3560539Y-8309436D01*
X3560539Y-8309436D02*
X3570063Y-8299912D01*
X3627206Y-8328484D02*
X3751015Y-8328484D01*
X3751015Y-8328484D02*
X3684348Y-8404674D01*
X3684348Y-8404674D02*
X3712920Y-8404674D01*
X3712920Y-8404674D02*
X3731968Y-8414198D01*
X3731968Y-8414198D02*
X3741491Y-8423722D01*
X3741491Y-8423722D02*
X3751015Y-8442770D01*
X3751015Y-8442770D02*
X3751015Y-8490389D01*
X3751015Y-8490389D02*
X3741491Y-8509436D01*
X3741491Y-8509436D02*
X3731968Y-8518960D01*
X3731968Y-8518960D02*
X3712920Y-8528484D01*
X3712920Y-8528484D02*
X3655777Y-8528484D01*
X3655777Y-8528484D02*
X3636729Y-8518960D01*
X3636729Y-8518960D02*
X3627206Y-8509436D01*
X3922444Y-8395150D02*
X3922444Y-8528484D01*
X3874825Y-8318960D02*
X3827206Y-8461817D01*
X3827206Y-8461817D02*
X3951015Y-8461817D01*
X4179587Y-8528484D02*
X4179587Y-8328484D01*
X4265301Y-8528484D02*
X4265301Y-8423722D01*
X4265301Y-8423722D02*
X4255777Y-8404674D01*
X4255777Y-8404674D02*
X4236730Y-8395150D01*
X4236730Y-8395150D02*
X4208158Y-8395150D01*
X4208158Y-8395150D02*
X4189110Y-8404674D01*
X4189110Y-8404674D02*
X4179587Y-8414198D01*
X4389111Y-8528484D02*
X4370063Y-8518960D01*
X4370063Y-8518960D02*
X4360539Y-8509436D01*
X4360539Y-8509436D02*
X4351015Y-8490389D01*
X4351015Y-8490389D02*
X4351015Y-8433246D01*
X4351015Y-8433246D02*
X4360539Y-8414198D01*
X4360539Y-8414198D02*
X4370063Y-8404674D01*
X4370063Y-8404674D02*
X4389111Y-8395150D01*
X4389111Y-8395150D02*
X4417682Y-8395150D01*
X4417682Y-8395150D02*
X4436730Y-8404674D01*
X4436730Y-8404674D02*
X4446253Y-8414198D01*
X4446253Y-8414198D02*
X4455777Y-8433246D01*
X4455777Y-8433246D02*
X4455777Y-8490389D01*
X4455777Y-8490389D02*
X4446253Y-8509436D01*
X4446253Y-8509436D02*
X4436730Y-8518960D01*
X4436730Y-8518960D02*
X4417682Y-8528484D01*
X4417682Y-8528484D02*
X4389111Y-8528484D01*
X4570063Y-8528484D02*
X4551015Y-8518960D01*
X4551015Y-8518960D02*
X4541492Y-8499912D01*
X4541492Y-8499912D02*
X4541492Y-8328484D01*
X4722444Y-8518960D02*
X4703396Y-8528484D01*
X4703396Y-8528484D02*
X4665301Y-8528484D01*
X4665301Y-8528484D02*
X4646253Y-8518960D01*
X4646253Y-8518960D02*
X4636730Y-8499912D01*
X4636730Y-8499912D02*
X4636730Y-8423722D01*
X4636730Y-8423722D02*
X4646253Y-8404674D01*
X4646253Y-8404674D02*
X4665301Y-8395150D01*
X4665301Y-8395150D02*
X4703396Y-8395150D01*
X4703396Y-8395150D02*
X4722444Y-8404674D01*
X4722444Y-8404674D02*
X4731968Y-8423722D01*
X4731968Y-8423722D02*
X4731968Y-8442770D01*
X4731968Y-8442770D02*
X4636730Y-8461817D01*
X4808158Y-8518960D02*
X4827206Y-8528484D01*
X4827206Y-8528484D02*
X4865301Y-8528484D01*
X4865301Y-8528484D02*
X4884349Y-8518960D01*
X4884349Y-8518960D02*
X4893873Y-8499912D01*
X4893873Y-8499912D02*
X4893873Y-8490389D01*
X4893873Y-8490389D02*
X4884349Y-8471341D01*
X4884349Y-8471341D02*
X4865301Y-8461817D01*
X4865301Y-8461817D02*
X4836730Y-8461817D01*
X4836730Y-8461817D02*
X4817682Y-8452293D01*
X4817682Y-8452293D02*
X4808158Y-8433246D01*
X4808158Y-8433246D02*
X4808158Y-8423722D01*
X4808158Y-8423722D02*
X4817682Y-8404674D01*
X4817682Y-8404674D02*
X4836730Y-8395150D01*
X4836730Y-8395150D02*
X4865301Y-8395150D01*
X4865301Y-8395150D02*
X4884349Y-8404674D01*
X4960539Y-8604674D02*
X4970063Y-8595150D01*
X4970063Y-8595150D02*
X4989111Y-8566579D01*
X4989111Y-8566579D02*
X4998634Y-8547531D01*
X4998634Y-8547531D02*
X5008158Y-8518960D01*
X5008158Y-8518960D02*
X5017682Y-8471341D01*
X5017682Y-8471341D02*
X5017682Y-8433246D01*
X5017682Y-8433246D02*
X5008158Y-8385627D01*
X5008158Y-8385627D02*
X4998634Y-8357055D01*
X4998634Y-8357055D02*
X4989111Y-8338008D01*
X4989111Y-8338008D02*
X4970063Y-8309436D01*
X4970063Y-8309436D02*
X4960539Y-8299912D01*
M02*
