ISO-10303-21;
HEADER;
FILE_DESCRIPTION(('FreeCAD Model'),'2;1');
FILE_NAME('Open CASCADE Shape Model','2026-09-20T22:45:41',('FreeCAD'),(
    'FreeCAD'),'Open CASCADE STEP processor 7.8','FreeCAD','Unknown');
FILE_SCHEMA(('AUTOMOTIVE_DESIGN { 1 0 10303 214 1 1 1 1 }'));
ENDSEC;
DATA;
#1 = APPLICATION_PROTOCOL_DEFINITION('international standard',
  'automotive_design',2000,#2);
#2 = APPLICATION_CONTEXT(
  'core data for automotive mechanical design processes');
#3 = SHAPE_DEFINITION_REPRESENTATION(#4,#10);
#4 = PRODUCT_DEFINITION_SHAPE('','',#5);
#5 = PRODUCT_DEFINITION('design','',#6,#9);
#6 = PRODUCT_DEFINITION_FORMATION('','',#7);
#7 = PRODUCT('Open CASCADE STEP translator 7.8 7',
  'Open CASCADE STEP translator 7.8 7','',(#8));
#8 = PRODUCT_CONTEXT('',#2,'mechanical');
#9 = PRODUCT_DEFINITION_CONTEXT('part definition',#2,'design');
#10 = ADVANCED_BREP_SHAPE_REPRESENTATION('',(#11,#15),#737);
#11 = AXIS2_PLACEMENT_3D('',#12,#13,#14);
#12 = CARTESIAN_POINT('',(0.,0.,0.));
#13 = DIRECTION('',(0.,0.,1.));
#14 = DIRECTION('',(1.,0.,-0.));
#15 = MANIFOLD_SOLID_BREP('',#16);
#16 = CLOSED_SHELL('',(#17,#73,#154,#178,#202,#242,#320,#338,#360,#372,
    #441,#459,#488,#505,#517,#542,#573,#597,#621,#645,#669,#686,#711,
    #720));
#17 = ADVANCED_FACE('',(#18),#68,.T.);
#18 = FACE_BOUND('',#19,.T.);
#19 = EDGE_LOOP('',(#20,#30,#38,#46,#54,#62));
#20 = ORIENTED_EDGE('',*,*,#21,.F.);
#21 = EDGE_CURVE('',#22,#24,#26,.T.);
#22 = VERTEX_POINT('',#23);
#23 = CARTESIAN_POINT('',(-24.,20.854248688935,0.));
#24 = VERTEX_POINT('',#25);
#25 = CARTESIAN_POINT('',(-24.,-0.245,0.));
#26 = LINE('',#27,#28);
#27 = CARTESIAN_POINT('',(-24.,-2.5,0.));
#28 = VECTOR('',#29,1.);
#29 = DIRECTION('',(0.,-1.,0.));
#30 = ORIENTED_EDGE('',*,*,#31,.T.);
#31 = EDGE_CURVE('',#22,#32,#34,.T.);
#32 = VERTEX_POINT('',#33);
#33 = CARTESIAN_POINT('',(-24.,20.854248688935,20.));
#34 = LINE('',#35,#36);
#35 = CARTESIAN_POINT('',(-24.,20.854248688935,-25.));
#36 = VECTOR('',#37,1.);
#37 = DIRECTION('',(0.,0.,1.));
#38 = ORIENTED_EDGE('',*,*,#39,.F.);
#39 = EDGE_CURVE('',#40,#32,#42,.T.);
#40 = VERTEX_POINT('',#41);
#41 = CARTESIAN_POINT('',(-24.,-28.5,20.));
#42 = LINE('',#43,#44);
#43 = CARTESIAN_POINT('',(-24.,0.5,20.));
#44 = VECTOR('',#45,1.);
#45 = DIRECTION('',(-0.,1.,0.));
#46 = ORIENTED_EDGE('',*,*,#47,.F.);
#47 = EDGE_CURVE('',#48,#40,#50,.T.);
#48 = VERTEX_POINT('',#49);
#49 = CARTESIAN_POINT('',(-24.,-28.5,17.875));
#50 = LINE('',#51,#52);
#51 = CARTESIAN_POINT('',(-24.,-28.5,-12.5));
#52 = VECTOR('',#53,1.);
#53 = DIRECTION('',(0.,0.,1.));
#54 = ORIENTED_EDGE('',*,*,#55,.T.);
#55 = EDGE_CURVE('',#48,#56,#58,.T.);
#56 = VERTEX_POINT('',#57);
#57 = CARTESIAN_POINT('',(-24.,-0.245,17.875));
#58 = LINE('',#59,#60);
#59 = CARTESIAN_POINT('',(-24.,-44.755,17.875));
#60 = VECTOR('',#61,1.);
#61 = DIRECTION('',(-0.,1.,0.));
#62 = ORIENTED_EDGE('',*,*,#63,.F.);
#63 = EDGE_CURVE('',#24,#56,#64,.T.);
#64 = LINE('',#65,#66);
#65 = CARTESIAN_POINT('',(-24.,-0.245,-17.875));
#66 = VECTOR('',#67,1.);
#67 = DIRECTION('',(0.,0.,1.));
#68 = PLANE('',#69);
#69 = AXIS2_PLACEMENT_3D('',#70,#71,#72);
#70 = CARTESIAN_POINT('',(-24.,23.5,-25.));
#71 = DIRECTION('',(1.,0.,-0.));
#72 = DIRECTION('',(0.,-1.,0.));
#73 = ADVANCED_FACE('',(#74),#149,.F.);
#74 = FACE_BOUND('',#75,.F.);
#75 = EDGE_LOOP('',(#76,#86,#94,#103,#111,#119,#127,#133,#134,#143));
#76 = ORIENTED_EDGE('',*,*,#77,.T.);
#77 = EDGE_CURVE('',#78,#80,#82,.T.);
#78 = VERTEX_POINT('',#79);
#79 = CARTESIAN_POINT('',(26.,26.5,0.));
#80 = VERTEX_POINT('',#81);
#81 = CARTESIAN_POINT('',(26.,28.5,0.));
#82 = LINE('',#83,#84);
#83 = CARTESIAN_POINT('',(26.,-28.5,0.));
#84 = VECTOR('',#85,1.);
#85 = DIRECTION('',(-0.,1.,0.));
#86 = ORIENTED_EDGE('',*,*,#87,.T.);
#87 = EDGE_CURVE('',#80,#88,#90,.T.);
#88 = VERTEX_POINT('',#89);
#89 = CARTESIAN_POINT('',(-21.,28.5,0.));
#90 = LINE('',#91,#92);
#91 = CARTESIAN_POINT('',(50.,28.5,0.));
#92 = VECTOR('',#93,1.);
#93 = DIRECTION('',(-1.,0.,0.));
#94 = ORIENTED_EDGE('',*,*,#95,.F.);
#95 = EDGE_CURVE('',#96,#88,#98,.T.);
#96 = VERTEX_POINT('',#97);
#97 = CARTESIAN_POINT('',(-26.,23.5,0.));
#98 = CIRCLE('',#99,5.);
#99 = AXIS2_PLACEMENT_3D('',#100,#101,#102);
#100 = CARTESIAN_POINT('',(-21.,23.5,0.));
#101 = DIRECTION('',(-0.,0.,-1.));
#102 = DIRECTION('',(0.,1.,0.));
#103 = ORIENTED_EDGE('',*,*,#104,.T.);
#104 = EDGE_CURVE('',#96,#105,#107,.T.);
#105 = VERTEX_POINT('',#106);
#106 = CARTESIAN_POINT('',(-26.,-9.6,3.552713678801E-15));
#107 = LINE('',#108,#109);
#108 = CARTESIAN_POINT('',(-26.,-2.5,0.));
#109 = VECTOR('',#110,1.);
#110 = DIRECTION('',(0.,-1.,0.));
#111 = ORIENTED_EDGE('',*,*,#112,.F.);
#112 = EDGE_CURVE('',#113,#105,#115,.T.);
#113 = VERTEX_POINT('',#114);
#114 = CARTESIAN_POINT('',(-21.,-9.6,3.552713678801E-15));
#115 = LINE('',#116,#117);
#116 = CARTESIAN_POINT('',(-20.,-9.6,0.));
#117 = VECTOR('',#118,1.);
#118 = DIRECTION('',(-1.,0.,0.));
#119 = ORIENTED_EDGE('',*,*,#120,.F.);
#120 = EDGE_CURVE('',#121,#113,#123,.T.);
#121 = VERTEX_POINT('',#122);
#122 = CARTESIAN_POINT('',(-21.,-0.245,0.));
#123 = LINE('',#124,#125);
#124 = CARTESIAN_POINT('',(-21.,-36.6275,0.));
#125 = VECTOR('',#126,1.);
#126 = DIRECTION('',(0.,-1.,0.));
#127 = ORIENTED_EDGE('',*,*,#128,.F.);
#128 = EDGE_CURVE('',#24,#121,#129,.T.);
#129 = LINE('',#130,#131);
#130 = CARTESIAN_POINT('',(-27.5,-0.245,0.));
#131 = VECTOR('',#132,1.);
#132 = DIRECTION('',(1.,0.,-0.));
#133 = ORIENTED_EDGE('',*,*,#21,.F.);
#134 = ORIENTED_EDGE('',*,*,#135,.T.);
#135 = EDGE_CURVE('',#22,#136,#138,.T.);
#136 = VERTEX_POINT('',#137);
#137 = CARTESIAN_POINT('',(-18.35424868893,26.5,0.));
#138 = CIRCLE('',#139,4.);
#139 = AXIS2_PLACEMENT_3D('',#140,#141,#142);
#140 = CARTESIAN_POINT('',(-21.,23.5,0.));
#141 = DIRECTION('',(0.,0.,1.));
#142 = DIRECTION('',(1.,0.,-0.));
#143 = ORIENTED_EDGE('',*,*,#144,.F.);
#144 = EDGE_CURVE('',#78,#136,#145,.T.);
#145 = LINE('',#146,#147);
#146 = CARTESIAN_POINT('',(50.,26.5,0.));
#147 = VECTOR('',#148,1.);
#148 = DIRECTION('',(-1.,0.,0.));
#149 = PLANE('',#150);
#150 = AXIS2_PLACEMENT_3D('',#151,#152,#153);
#151 = CARTESIAN_POINT('',(-31.,-28.5,0.));
#152 = DIRECTION('',(0.,0.,1.));
#153 = DIRECTION('',(1.,0.,-0.));
#154 = ADVANCED_FACE('',(#155),#173,.T.);
#155 = FACE_BOUND('',#156,.T.);
#156 = EDGE_LOOP('',(#157,#158,#159,#167));
#157 = ORIENTED_EDGE('',*,*,#128,.F.);
#158 = ORIENTED_EDGE('',*,*,#63,.T.);
#159 = ORIENTED_EDGE('',*,*,#160,.T.);
#160 = EDGE_CURVE('',#56,#161,#163,.T.);
#161 = VERTEX_POINT('',#162);
#162 = CARTESIAN_POINT('',(-21.,-0.245,17.875));
#163 = LINE('',#164,#165);
#164 = CARTESIAN_POINT('',(-24.,-0.245,17.875));
#165 = VECTOR('',#166,1.);
#166 = DIRECTION('',(1.,0.,-0.));
#167 = ORIENTED_EDGE('',*,*,#168,.F.);
#168 = EDGE_CURVE('',#121,#161,#169,.T.);
#169 = LINE('',#170,#171);
#170 = CARTESIAN_POINT('',(-21.,-0.245,-17.875));
#171 = VECTOR('',#172,1.);
#172 = DIRECTION('',(0.,0.,1.));
#173 = PLANE('',#174);
#174 = AXIS2_PLACEMENT_3D('',#175,#176,#177);
#175 = CARTESIAN_POINT('',(-24.,-0.245,-17.875));
#176 = DIRECTION('',(-0.,1.,0.));
#177 = DIRECTION('',(0.,0.,1.));
#178 = ADVANCED_FACE('',(#179),#197,.T.);
#179 = FACE_BOUND('',#180,.T.);
#180 = EDGE_LOOP('',(#181,#182,#190,#196));
#181 = ORIENTED_EDGE('',*,*,#55,.F.);
#182 = ORIENTED_EDGE('',*,*,#183,.F.);
#183 = EDGE_CURVE('',#184,#48,#186,.T.);
#184 = VERTEX_POINT('',#185);
#185 = CARTESIAN_POINT('',(-21.,-28.5,17.875));
#186 = LINE('',#187,#188);
#187 = CARTESIAN_POINT('',(-27.5,-28.5,17.875));
#188 = VECTOR('',#189,1.);
#189 = DIRECTION('',(-1.,-0.,0.));
#190 = ORIENTED_EDGE('',*,*,#191,.T.);
#191 = EDGE_CURVE('',#184,#161,#192,.T.);
#192 = LINE('',#193,#194);
#193 = CARTESIAN_POINT('',(-21.,-44.755,17.875));
#194 = VECTOR('',#195,1.);
#195 = DIRECTION('',(-0.,1.,0.));
#196 = ORIENTED_EDGE('',*,*,#160,.F.);
#197 = PLANE('',#198);
#198 = AXIS2_PLACEMENT_3D('',#199,#200,#201);
#199 = CARTESIAN_POINT('',(-24.,-44.755,17.875));
#200 = DIRECTION('',(0.,0.,1.));
#201 = DIRECTION('',(1.,0.,-0.));
#202 = ADVANCED_FACE('',(#203),#237,.F.);
#203 = FACE_BOUND('',#204,.F.);
#204 = EDGE_LOOP('',(#205,#206,#207,#215,#223,#231));
#205 = ORIENTED_EDGE('',*,*,#47,.F.);
#206 = ORIENTED_EDGE('',*,*,#183,.F.);
#207 = ORIENTED_EDGE('',*,*,#208,.F.);
#208 = EDGE_CURVE('',#209,#184,#211,.T.);
#209 = VERTEX_POINT('',#210);
#210 = CARTESIAN_POINT('',(-21.,-28.5,11.419719786405));
#211 = LINE('',#212,#213);
#212 = CARTESIAN_POINT('',(-21.,-28.5,-8.9375));
#213 = VECTOR('',#214,1.);
#214 = DIRECTION('',(0.,0.,1.));
#215 = ORIENTED_EDGE('',*,*,#216,.T.);
#216 = EDGE_CURVE('',#209,#217,#219,.T.);
#217 = VERTEX_POINT('',#218);
#218 = CARTESIAN_POINT('',(-26.,-28.5,11.419719786405));
#219 = LINE('',#220,#221);
#220 = CARTESIAN_POINT('',(-20.,-28.5,11.419719786405));
#221 = VECTOR('',#222,1.);
#222 = DIRECTION('',(-1.,0.,0.));
#223 = ORIENTED_EDGE('',*,*,#224,.T.);
#224 = EDGE_CURVE('',#217,#225,#227,.T.);
#225 = VERTEX_POINT('',#226);
#226 = CARTESIAN_POINT('',(-26.,-28.5,20.));
#227 = LINE('',#228,#229);
#228 = CARTESIAN_POINT('',(-26.,-28.5,-14.));
#229 = VECTOR('',#230,1.);
#230 = DIRECTION('',(0.,0.,1.));
#231 = ORIENTED_EDGE('',*,*,#232,.F.);
#232 = EDGE_CURVE('',#40,#225,#233,.T.);
#233 = LINE('',#234,#235);
#234 = CARTESIAN_POINT('',(12.,-28.5,20.));
#235 = VECTOR('',#236,1.);
#236 = DIRECTION('',(-1.,-0.,0.));
#237 = PLANE('',#238);
#238 = AXIS2_PLACEMENT_3D('',#239,#240,#241);
#239 = CARTESIAN_POINT('',(-31.,-28.5,0.));
#240 = DIRECTION('',(-0.,1.,0.));
#241 = DIRECTION('',(0.,0.,1.));
#242 = ADVANCED_FACE('',(#243,#304),#315,.T.);
#243 = FACE_BOUND('',#244,.T.);
#244 = EDGE_LOOP('',(#245,#253,#254,#255,#264,#273,#281,#289,#297));
#245 = ORIENTED_EDGE('',*,*,#246,.T.);
#246 = EDGE_CURVE('',#247,#225,#249,.T.);
#247 = VERTEX_POINT('',#248);
#248 = CARTESIAN_POINT('',(-26.,23.5,20.));
#249 = LINE('',#250,#251);
#250 = CARTESIAN_POINT('',(-26.,23.5,20.));
#251 = VECTOR('',#252,1.);
#252 = DIRECTION('',(0.,-1.,0.));
#253 = ORIENTED_EDGE('',*,*,#232,.F.);
#254 = ORIENTED_EDGE('',*,*,#39,.T.);
#255 = ORIENTED_EDGE('',*,*,#256,.T.);
#256 = EDGE_CURVE('',#32,#257,#259,.T.);
#257 = VERTEX_POINT('',#258);
#258 = CARTESIAN_POINT('',(-17.,23.5,20.));
#259 = CIRCLE('',#260,4.);
#260 = AXIS2_PLACEMENT_3D('',#261,#262,#263);
#261 = CARTESIAN_POINT('',(-21.,23.5,20.));
#262 = DIRECTION('',(0.,0.,1.));
#263 = DIRECTION('',(1.,0.,-0.));
#264 = ORIENTED_EDGE('',*,*,#265,.T.);
#265 = EDGE_CURVE('',#257,#266,#268,.T.);
#266 = VERTEX_POINT('',#267);
#267 = CARTESIAN_POINT('',(-18.35424868893,26.5,20.));
#268 = CIRCLE('',#269,4.);
#269 = AXIS2_PLACEMENT_3D('',#270,#271,#272);
#270 = CARTESIAN_POINT('',(-21.,23.5,20.));
#271 = DIRECTION('',(0.,0.,1.));
#272 = DIRECTION('',(1.,0.,-0.));
#273 = ORIENTED_EDGE('',*,*,#274,.T.);
#274 = EDGE_CURVE('',#266,#275,#277,.T.);
#275 = VERTEX_POINT('',#276);
#276 = CARTESIAN_POINT('',(26.,26.5,20.));
#277 = LINE('',#278,#279);
#278 = CARTESIAN_POINT('',(93.,26.5,20.));
#279 = VECTOR('',#280,1.);
#280 = DIRECTION('',(1.,0.,-0.));
#281 = ORIENTED_EDGE('',*,*,#282,.T.);
#282 = EDGE_CURVE('',#275,#283,#285,.T.);
#283 = VERTEX_POINT('',#284);
#284 = CARTESIAN_POINT('',(26.,28.5,20.));
#285 = LINE('',#286,#287);
#286 = CARTESIAN_POINT('',(26.,-25.5,20.));
#287 = VECTOR('',#288,1.);
#288 = DIRECTION('',(-0.,1.,0.));
#289 = ORIENTED_EDGE('',*,*,#290,.T.);
#290 = EDGE_CURVE('',#283,#291,#293,.T.);
#291 = VERTEX_POINT('',#292);
#292 = CARTESIAN_POINT('',(-21.,28.5,20.));
#293 = LINE('',#294,#295);
#294 = CARTESIAN_POINT('',(131.,28.5,20.));
#295 = VECTOR('',#296,1.);
#296 = DIRECTION('',(-1.,0.,0.));
#297 = ORIENTED_EDGE('',*,*,#298,.T.);
#298 = EDGE_CURVE('',#291,#247,#299,.T.);
#299 = CIRCLE('',#300,5.);
#300 = AXIS2_PLACEMENT_3D('',#301,#302,#303);
#301 = CARTESIAN_POINT('',(-21.,23.5,20.));
#302 = DIRECTION('',(0.,-0.,1.));
#303 = DIRECTION('',(0.,1.,0.));
#304 = FACE_BOUND('',#305,.T.);
#305 = EDGE_LOOP('',(#306));
#306 = ORIENTED_EDGE('',*,*,#307,.F.);
#307 = EDGE_CURVE('',#308,#308,#310,.T.);
#308 = VERTEX_POINT('',#309);
#309 = CARTESIAN_POINT('',(-18.9,23.5,20.));
#310 = CIRCLE('',#311,2.1);
#311 = AXIS2_PLACEMENT_3D('',#312,#313,#314);
#312 = CARTESIAN_POINT('',(-21.,23.5,20.));
#313 = DIRECTION('',(0.,0.,1.));
#314 = DIRECTION('',(1.,0.,-0.));
#315 = PLANE('',#316);
#316 = AXIS2_PLACEMENT_3D('',#317,#318,#319);
#317 = CARTESIAN_POINT('',(55.,-22.5,20.));
#318 = DIRECTION('',(0.,0.,1.));
#319 = DIRECTION('',(1.,0.,-0.));
#320 = ADVANCED_FACE('',(#321),#333,.T.);
#321 = FACE_BOUND('',#322,.T.);
#322 = EDGE_LOOP('',(#323,#324,#325,#326,#332));
#323 = ORIENTED_EDGE('',*,*,#256,.F.);
#324 = ORIENTED_EDGE('',*,*,#31,.F.);
#325 = ORIENTED_EDGE('',*,*,#135,.T.);
#326 = ORIENTED_EDGE('',*,*,#327,.T.);
#327 = EDGE_CURVE('',#136,#266,#328,.T.);
#328 = LINE('',#329,#330);
#329 = CARTESIAN_POINT('',(-18.35424868893,26.5,-25.));
#330 = VECTOR('',#331,1.);
#331 = DIRECTION('',(0.,0.,1.));
#332 = ORIENTED_EDGE('',*,*,#265,.F.);
#333 = CYLINDRICAL_SURFACE('',#334,4.);
#334 = AXIS2_PLACEMENT_3D('',#335,#336,#337);
#335 = CARTESIAN_POINT('',(-21.,23.5,-25.));
#336 = DIRECTION('',(0.,0.,1.));
#337 = DIRECTION('',(1.,0.,-0.));
#338 = ADVANCED_FACE('',(#339),#355,.T.);
#339 = FACE_BOUND('',#340,.T.);
#340 = EDGE_LOOP('',(#341,#347,#348,#354));
#341 = ORIENTED_EDGE('',*,*,#342,.F.);
#342 = EDGE_CURVE('',#78,#275,#343,.T.);
#343 = LINE('',#344,#345);
#344 = CARTESIAN_POINT('',(26.,26.5,-12.5));
#345 = VECTOR('',#346,1.);
#346 = DIRECTION('',(0.,0.,1.));
#347 = ORIENTED_EDGE('',*,*,#77,.T.);
#348 = ORIENTED_EDGE('',*,*,#349,.T.);
#349 = EDGE_CURVE('',#80,#283,#350,.T.);
#350 = LINE('',#351,#352);
#351 = CARTESIAN_POINT('',(26.,28.5,-14.));
#352 = VECTOR('',#353,1.);
#353 = DIRECTION('',(0.,0.,1.));
#354 = ORIENTED_EDGE('',*,*,#282,.F.);
#355 = PLANE('',#356);
#356 = AXIS2_PLACEMENT_3D('',#357,#358,#359);
#357 = CARTESIAN_POINT('',(26.,-28.5,0.));
#358 = DIRECTION('',(1.,0.,-0.));
#359 = DIRECTION('',(0.,0.,1.));
#360 = ADVANCED_FACE('',(#361),#367,.T.);
#361 = FACE_BOUND('',#362,.T.);
#362 = EDGE_LOOP('',(#363,#364,#365,#366));
#363 = ORIENTED_EDGE('',*,*,#327,.F.);
#364 = ORIENTED_EDGE('',*,*,#144,.F.);
#365 = ORIENTED_EDGE('',*,*,#342,.T.);
#366 = ORIENTED_EDGE('',*,*,#274,.F.);
#367 = PLANE('',#368);
#368 = AXIS2_PLACEMENT_3D('',#369,#370,#371);
#369 = CARTESIAN_POINT('',(131.,26.5,-25.));
#370 = DIRECTION('',(0.,-1.,0.));
#371 = DIRECTION('',(-1.,0.,0.));
#372 = ADVANCED_FACE('',(#373,#386),#436,.T.);
#373 = FACE_BOUND('',#374,.T.);
#374 = EDGE_LOOP('',(#375,#376,#377,#384,#385));
#375 = ORIENTED_EDGE('',*,*,#191,.F.);
#376 = ORIENTED_EDGE('',*,*,#208,.F.);
#377 = ORIENTED_EDGE('',*,*,#378,.T.);
#378 = EDGE_CURVE('',#209,#113,#379,.T.);
#379 = CIRCLE('',#380,12.9);
#380 = AXIS2_PLACEMENT_3D('',#381,#382,#383);
#381 = CARTESIAN_POINT('',(-21.,-22.5,0.));
#382 = DIRECTION('',(-1.,0.,0.));
#383 = DIRECTION('',(0.,0.,-1.));
#384 = ORIENTED_EDGE('',*,*,#120,.F.);
#385 = ORIENTED_EDGE('',*,*,#168,.T.);
#386 = FACE_BOUND('',#387,.T.);
#387 = EDGE_LOOP('',(#388,#398,#406,#414,#422,#430));
#388 = ORIENTED_EDGE('',*,*,#389,.F.);
#389 = EDGE_CURVE('',#390,#392,#394,.T.);
#390 = VERTEX_POINT('',#391);
#391 = CARTESIAN_POINT('',(-21.,-3.168078061835,11.225));
#392 = VERTEX_POINT('',#393);
#393 = CARTESIAN_POINT('',(-21.,-5.246539030917,14.825));
#394 = LINE('',#395,#396);
#395 = CARTESIAN_POINT('',(-21.,-3.168078061835,11.225));
#396 = VECTOR('',#397,1.);
#397 = DIRECTION('',(0.,-0.5,0.866025403784));
#398 = ORIENTED_EDGE('',*,*,#399,.F.);
#399 = EDGE_CURVE('',#400,#390,#402,.T.);
#400 = VERTEX_POINT('',#401);
#401 = CARTESIAN_POINT('',(-21.,-5.246539030917,7.625));
#402 = LINE('',#403,#404);
#403 = CARTESIAN_POINT('',(-21.,-5.246539030917,7.625));
#404 = VECTOR('',#405,1.);
#405 = DIRECTION('',(0.,0.5,0.866025403784));
#406 = ORIENTED_EDGE('',*,*,#407,.F.);
#407 = EDGE_CURVE('',#408,#400,#410,.T.);
#408 = VERTEX_POINT('',#409);
#409 = CARTESIAN_POINT('',(-21.,-9.403460969083,7.625));
#410 = LINE('',#411,#412);
#411 = CARTESIAN_POINT('',(-21.,-9.403460969083,7.625));
#412 = VECTOR('',#413,1.);
#413 = DIRECTION('',(0.,1.,0.));
#414 = ORIENTED_EDGE('',*,*,#415,.F.);
#415 = EDGE_CURVE('',#416,#408,#418,.T.);
#416 = VERTEX_POINT('',#417);
#417 = CARTESIAN_POINT('',(-21.,-11.48192193816,11.225));
#418 = LINE('',#419,#420);
#419 = CARTESIAN_POINT('',(-21.,-11.48192193816,11.225));
#420 = VECTOR('',#421,1.);
#421 = DIRECTION('',(0.,0.5,-0.866025403784));
#422 = ORIENTED_EDGE('',*,*,#423,.F.);
#423 = EDGE_CURVE('',#424,#416,#426,.T.);
#424 = VERTEX_POINT('',#425);
#425 = CARTESIAN_POINT('',(-21.,-9.403460969083,14.825));
#426 = LINE('',#427,#428);
#427 = CARTESIAN_POINT('',(-21.,-9.403460969083,14.825));
#428 = VECTOR('',#429,1.);
#429 = DIRECTION('',(0.,-0.5,-0.866025403784));
#430 = ORIENTED_EDGE('',*,*,#431,.F.);
#431 = EDGE_CURVE('',#392,#424,#432,.T.);
#432 = LINE('',#433,#434);
#433 = CARTESIAN_POINT('',(-21.,-5.246539030917,14.825));
#434 = VECTOR('',#435,1.);
#435 = DIRECTION('',(0.,-1.,0.));
#436 = PLANE('',#437);
#437 = AXIS2_PLACEMENT_3D('',#438,#439,#440);
#438 = CARTESIAN_POINT('',(-21.,-44.755,-17.875));
#439 = DIRECTION('',(1.,0.,-0.));
#440 = DIRECTION('',(0.,0.,1.));
#441 = ADVANCED_FACE('',(#442),#454,.F.);
#442 = FACE_BOUND('',#443,.F.);
#443 = EDGE_LOOP('',(#444,#451,#452,#453));
#444 = ORIENTED_EDGE('',*,*,#445,.F.);
#445 = EDGE_CURVE('',#217,#105,#446,.T.);
#446 = CIRCLE('',#447,12.9);
#447 = AXIS2_PLACEMENT_3D('',#448,#449,#450);
#448 = CARTESIAN_POINT('',(-26.,-22.5,0.));
#449 = DIRECTION('',(-1.,0.,0.));
#450 = DIRECTION('',(0.,0.,-1.));
#451 = ORIENTED_EDGE('',*,*,#216,.F.);
#452 = ORIENTED_EDGE('',*,*,#378,.T.);
#453 = ORIENTED_EDGE('',*,*,#112,.T.);
#454 = CYLINDRICAL_SURFACE('',#455,12.9);
#455 = AXIS2_PLACEMENT_3D('',#456,#457,#458);
#456 = CARTESIAN_POINT('',(-20.,-22.5,0.));
#457 = DIRECTION('',(-1.,0.,0.));
#458 = DIRECTION('',(0.,0.,-1.));
#459 = ADVANCED_FACE('',(#460,#472),#483,.F.);
#460 = FACE_BOUND('',#461,.F.);
#461 = EDGE_LOOP('',(#462,#463,#469,#470,#471));
#462 = ORIENTED_EDGE('',*,*,#104,.F.);
#463 = ORIENTED_EDGE('',*,*,#464,.T.);
#464 = EDGE_CURVE('',#96,#247,#465,.T.);
#465 = LINE('',#466,#467);
#466 = CARTESIAN_POINT('',(-26.,23.5,-28.));
#467 = VECTOR('',#468,1.);
#468 = DIRECTION('',(0.,0.,1.));
#469 = ORIENTED_EDGE('',*,*,#246,.T.);
#470 = ORIENTED_EDGE('',*,*,#224,.F.);
#471 = ORIENTED_EDGE('',*,*,#445,.T.);
#472 = FACE_BOUND('',#473,.F.);
#473 = EDGE_LOOP('',(#474));
#474 = ORIENTED_EDGE('',*,*,#475,.T.);
#475 = EDGE_CURVE('',#476,#476,#478,.T.);
#476 = VERTEX_POINT('',#477);
#477 = CARTESIAN_POINT('',(-26.,-7.325,9.025));
#478 = CIRCLE('',#479,2.2);
#479 = AXIS2_PLACEMENT_3D('',#480,#481,#482);
#480 = CARTESIAN_POINT('',(-26.,-7.325,11.225));
#481 = DIRECTION('',(-1.,0.,0.));
#482 = DIRECTION('',(0.,0.,-1.));
#483 = PLANE('',#484);
#484 = AXIS2_PLACEMENT_3D('',#485,#486,#487);
#485 = CARTESIAN_POINT('',(-26.,23.5,-28.));
#486 = DIRECTION('',(1.,0.,-0.));
#487 = DIRECTION('',(0.,-1.,0.));
#488 = ADVANCED_FACE('',(#489),#500,.T.);
#489 = FACE_BOUND('',#490,.F.);
#490 = EDGE_LOOP('',(#491,#492,#498,#499));
#491 = ORIENTED_EDGE('',*,*,#95,.T.);
#492 = ORIENTED_EDGE('',*,*,#493,.T.);
#493 = EDGE_CURVE('',#88,#291,#494,.T.);
#494 = LINE('',#495,#496);
#495 = CARTESIAN_POINT('',(-21.,28.5,-28.));
#496 = VECTOR('',#497,1.);
#497 = DIRECTION('',(0.,0.,1.));
#498 = ORIENTED_EDGE('',*,*,#298,.T.);
#499 = ORIENTED_EDGE('',*,*,#464,.F.);
#500 = CYLINDRICAL_SURFACE('',#501,5.);
#501 = AXIS2_PLACEMENT_3D('',#502,#503,#504);
#502 = CARTESIAN_POINT('',(-21.,23.5,-28.));
#503 = DIRECTION('',(-0.,0.,-1.));
#504 = DIRECTION('',(0.,1.,0.));
#505 = ADVANCED_FACE('',(#506),#512,.F.);
#506 = FACE_BOUND('',#507,.F.);
#507 = EDGE_LOOP('',(#508,#509,#510,#511));
#508 = ORIENTED_EDGE('',*,*,#349,.T.);
#509 = ORIENTED_EDGE('',*,*,#290,.T.);
#510 = ORIENTED_EDGE('',*,*,#493,.F.);
#511 = ORIENTED_EDGE('',*,*,#87,.F.);
#512 = PLANE('',#513);
#513 = AXIS2_PLACEMENT_3D('',#514,#515,#516);
#514 = CARTESIAN_POINT('',(131.,28.5,-28.));
#515 = DIRECTION('',(0.,-1.,0.));
#516 = DIRECTION('',(-1.,0.,0.));
#517 = ADVANCED_FACE('',(#518),#537,.F.);
#518 = FACE_BOUND('',#519,.F.);
#519 = EDGE_LOOP('',(#520,#521,#529,#536));
#520 = ORIENTED_EDGE('',*,*,#307,.F.);
#521 = ORIENTED_EDGE('',*,*,#522,.F.);
#522 = EDGE_CURVE('',#523,#308,#525,.T.);
#523 = VERTEX_POINT('',#524);
#524 = CARTESIAN_POINT('',(-18.9,23.5,12.));
#525 = LINE('',#526,#527);
#526 = CARTESIAN_POINT('',(-18.9,23.5,12.));
#527 = VECTOR('',#528,1.);
#528 = DIRECTION('',(0.,0.,1.));
#529 = ORIENTED_EDGE('',*,*,#530,.T.);
#530 = EDGE_CURVE('',#523,#523,#531,.T.);
#531 = CIRCLE('',#532,2.1);
#532 = AXIS2_PLACEMENT_3D('',#533,#534,#535);
#533 = CARTESIAN_POINT('',(-21.,23.5,12.));
#534 = DIRECTION('',(0.,0.,1.));
#535 = DIRECTION('',(1.,0.,-0.));
#536 = ORIENTED_EDGE('',*,*,#522,.T.);
#537 = CYLINDRICAL_SURFACE('',#538,2.1);
#538 = AXIS2_PLACEMENT_3D('',#539,#540,#541);
#539 = CARTESIAN_POINT('',(-21.,23.5,12.));
#540 = DIRECTION('',(0.,0.,1.));
#541 = DIRECTION('',(1.,0.,-0.));
#542 = ADVANCED_FACE('',(#543),#568,.F.);
#543 = FACE_BOUND('',#544,.F.);
#544 = EDGE_LOOP('',(#545,#553,#561,#567));
#545 = ORIENTED_EDGE('',*,*,#546,.T.);
#546 = EDGE_CURVE('',#390,#547,#549,.T.);
#547 = VERTEX_POINT('',#548);
#548 = CARTESIAN_POINT('',(-24.2,-3.168078061835,11.225));
#549 = LINE('',#550,#551);
#550 = CARTESIAN_POINT('',(-21.,-3.168078061835,11.225));
#551 = VECTOR('',#552,1.);
#552 = DIRECTION('',(-1.,0.,0.));
#553 = ORIENTED_EDGE('',*,*,#554,.T.);
#554 = EDGE_CURVE('',#547,#555,#557,.T.);
#555 = VERTEX_POINT('',#556);
#556 = CARTESIAN_POINT('',(-24.2,-5.246539030917,14.825));
#557 = LINE('',#558,#559);
#558 = CARTESIAN_POINT('',(-24.2,-3.168078061835,11.225));
#559 = VECTOR('',#560,1.);
#560 = DIRECTION('',(0.,-0.5,0.866025403784));
#561 = ORIENTED_EDGE('',*,*,#562,.F.);
#562 = EDGE_CURVE('',#392,#555,#563,.T.);
#563 = LINE('',#564,#565);
#564 = CARTESIAN_POINT('',(-21.,-5.246539030917,14.825));
#565 = VECTOR('',#566,1.);
#566 = DIRECTION('',(-1.,0.,0.));
#567 = ORIENTED_EDGE('',*,*,#389,.F.);
#568 = PLANE('',#569);
#569 = AXIS2_PLACEMENT_3D('',#570,#571,#572);
#570 = CARTESIAN_POINT('',(-21.,-3.168078061835,11.225));
#571 = DIRECTION('',(0.,0.866025403784,0.5));
#572 = DIRECTION('',(0.,-0.5,0.866025403784));
#573 = ADVANCED_FACE('',(#574),#592,.F.);
#574 = FACE_BOUND('',#575,.F.);
#575 = EDGE_LOOP('',(#576,#584,#590,#591));
#576 = ORIENTED_EDGE('',*,*,#577,.T.);
#577 = EDGE_CURVE('',#400,#578,#580,.T.);
#578 = VERTEX_POINT('',#579);
#579 = CARTESIAN_POINT('',(-24.2,-5.246539030917,7.625));
#580 = LINE('',#581,#582);
#581 = CARTESIAN_POINT('',(-21.,-5.246539030917,7.625));
#582 = VECTOR('',#583,1.);
#583 = DIRECTION('',(-1.,0.,0.));
#584 = ORIENTED_EDGE('',*,*,#585,.T.);
#585 = EDGE_CURVE('',#578,#547,#586,.T.);
#586 = LINE('',#587,#588);
#587 = CARTESIAN_POINT('',(-24.2,-5.246539030917,7.625));
#588 = VECTOR('',#589,1.);
#589 = DIRECTION('',(0.,0.5,0.866025403784));
#590 = ORIENTED_EDGE('',*,*,#546,.F.);
#591 = ORIENTED_EDGE('',*,*,#399,.F.);
#592 = PLANE('',#593);
#593 = AXIS2_PLACEMENT_3D('',#594,#595,#596);
#594 = CARTESIAN_POINT('',(-21.,-5.246539030917,7.625));
#595 = DIRECTION('',(0.,0.866025403784,-0.5));
#596 = DIRECTION('',(0.,0.5,0.866025403784));
#597 = ADVANCED_FACE('',(#598),#616,.F.);
#598 = FACE_BOUND('',#599,.F.);
#599 = EDGE_LOOP('',(#600,#601,#609,#615));
#600 = ORIENTED_EDGE('',*,*,#562,.T.);
#601 = ORIENTED_EDGE('',*,*,#602,.T.);
#602 = EDGE_CURVE('',#555,#603,#605,.T.);
#603 = VERTEX_POINT('',#604);
#604 = CARTESIAN_POINT('',(-24.2,-9.403460969083,14.825));
#605 = LINE('',#606,#607);
#606 = CARTESIAN_POINT('',(-24.2,-5.246539030917,14.825));
#607 = VECTOR('',#608,1.);
#608 = DIRECTION('',(0.,-1.,0.));
#609 = ORIENTED_EDGE('',*,*,#610,.F.);
#610 = EDGE_CURVE('',#424,#603,#611,.T.);
#611 = LINE('',#612,#613);
#612 = CARTESIAN_POINT('',(-21.,-9.403460969083,14.825));
#613 = VECTOR('',#614,1.);
#614 = DIRECTION('',(-1.,0.,0.));
#615 = ORIENTED_EDGE('',*,*,#431,.F.);
#616 = PLANE('',#617);
#617 = AXIS2_PLACEMENT_3D('',#618,#619,#620);
#618 = CARTESIAN_POINT('',(-21.,-5.246539030917,14.825));
#619 = DIRECTION('',(0.,0.,1.));
#620 = DIRECTION('',(0.,-1.,0.));
#621 = ADVANCED_FACE('',(#622),#640,.F.);
#622 = FACE_BOUND('',#623,.F.);
#623 = EDGE_LOOP('',(#624,#632,#638,#639));
#624 = ORIENTED_EDGE('',*,*,#625,.T.);
#625 = EDGE_CURVE('',#408,#626,#628,.T.);
#626 = VERTEX_POINT('',#627);
#627 = CARTESIAN_POINT('',(-24.2,-9.403460969083,7.625));
#628 = LINE('',#629,#630);
#629 = CARTESIAN_POINT('',(-21.,-9.403460969083,7.625));
#630 = VECTOR('',#631,1.);
#631 = DIRECTION('',(-1.,0.,0.));
#632 = ORIENTED_EDGE('',*,*,#633,.T.);
#633 = EDGE_CURVE('',#626,#578,#634,.T.);
#634 = LINE('',#635,#636);
#635 = CARTESIAN_POINT('',(-24.2,-9.403460969083,7.625));
#636 = VECTOR('',#637,1.);
#637 = DIRECTION('',(0.,1.,0.));
#638 = ORIENTED_EDGE('',*,*,#577,.F.);
#639 = ORIENTED_EDGE('',*,*,#407,.F.);
#640 = PLANE('',#641);
#641 = AXIS2_PLACEMENT_3D('',#642,#643,#644);
#642 = CARTESIAN_POINT('',(-21.,-9.403460969083,7.625));
#643 = DIRECTION('',(0.,0.,-1.));
#644 = DIRECTION('',(0.,1.,0.));
#645 = ADVANCED_FACE('',(#646),#664,.F.);
#646 = FACE_BOUND('',#647,.F.);
#647 = EDGE_LOOP('',(#648,#649,#657,#663));
#648 = ORIENTED_EDGE('',*,*,#610,.T.);
#649 = ORIENTED_EDGE('',*,*,#650,.T.);
#650 = EDGE_CURVE('',#603,#651,#653,.T.);
#651 = VERTEX_POINT('',#652);
#652 = CARTESIAN_POINT('',(-24.2,-11.48192193816,11.225));
#653 = LINE('',#654,#655);
#654 = CARTESIAN_POINT('',(-24.2,-9.403460969083,14.825));
#655 = VECTOR('',#656,1.);
#656 = DIRECTION('',(0.,-0.5,-0.866025403784));
#657 = ORIENTED_EDGE('',*,*,#658,.F.);
#658 = EDGE_CURVE('',#416,#651,#659,.T.);
#659 = LINE('',#660,#661);
#660 = CARTESIAN_POINT('',(-21.,-11.48192193816,11.225));
#661 = VECTOR('',#662,1.);
#662 = DIRECTION('',(-1.,0.,0.));
#663 = ORIENTED_EDGE('',*,*,#423,.F.);
#664 = PLANE('',#665);
#665 = AXIS2_PLACEMENT_3D('',#666,#667,#668);
#666 = CARTESIAN_POINT('',(-21.,-9.403460969083,14.825));
#667 = DIRECTION('',(0.,-0.866025403784,0.5));
#668 = DIRECTION('',(0.,-0.5,-0.866025403784));
#669 = ADVANCED_FACE('',(#670),#681,.F.);
#670 = FACE_BOUND('',#671,.F.);
#671 = EDGE_LOOP('',(#672,#673,#679,#680));
#672 = ORIENTED_EDGE('',*,*,#658,.T.);
#673 = ORIENTED_EDGE('',*,*,#674,.T.);
#674 = EDGE_CURVE('',#651,#626,#675,.T.);
#675 = LINE('',#676,#677);
#676 = CARTESIAN_POINT('',(-24.2,-11.48192193816,11.225));
#677 = VECTOR('',#678,1.);
#678 = DIRECTION('',(0.,0.5,-0.866025403784));
#679 = ORIENTED_EDGE('',*,*,#625,.F.);
#680 = ORIENTED_EDGE('',*,*,#415,.F.);
#681 = PLANE('',#682);
#682 = AXIS2_PLACEMENT_3D('',#683,#684,#685);
#683 = CARTESIAN_POINT('',(-21.,-11.48192193816,11.225));
#684 = DIRECTION('',(-0.,-0.866025403784,-0.5));
#685 = DIRECTION('',(0.,0.5,-0.866025403784));
#686 = ADVANCED_FACE('',(#687),#706,.F.);
#687 = FACE_BOUND('',#688,.F.);
#688 = EDGE_LOOP('',(#689,#697,#698,#699));
#689 = ORIENTED_EDGE('',*,*,#690,.T.);
#690 = EDGE_CURVE('',#691,#476,#693,.T.);
#691 = VERTEX_POINT('',#692);
#692 = CARTESIAN_POINT('',(-24.2,-7.325,9.025));
#693 = LINE('',#694,#695);
#694 = CARTESIAN_POINT('',(-20.,-7.325,9.025));
#695 = VECTOR('',#696,1.);
#696 = DIRECTION('',(-1.,0.,0.));
#697 = ORIENTED_EDGE('',*,*,#475,.F.);
#698 = ORIENTED_EDGE('',*,*,#690,.F.);
#699 = ORIENTED_EDGE('',*,*,#700,.T.);
#700 = EDGE_CURVE('',#691,#691,#701,.T.);
#701 = CIRCLE('',#702,2.2);
#702 = AXIS2_PLACEMENT_3D('',#703,#704,#705);
#703 = CARTESIAN_POINT('',(-24.2,-7.325,11.225));
#704 = DIRECTION('',(-1.,0.,0.));
#705 = DIRECTION('',(0.,0.,-1.));
#706 = CYLINDRICAL_SURFACE('',#707,2.2);
#707 = AXIS2_PLACEMENT_3D('',#708,#709,#710);
#708 = CARTESIAN_POINT('',(-20.,-7.325,11.225));
#709 = DIRECTION('',(-1.,0.,0.));
#710 = DIRECTION('',(0.,0.,-1.));
#711 = ADVANCED_FACE('',(#712),#715,.T.);
#712 = FACE_BOUND('',#713,.F.);
#713 = EDGE_LOOP('',(#714));
#714 = ORIENTED_EDGE('',*,*,#530,.F.);
#715 = PLANE('',#716);
#716 = AXIS2_PLACEMENT_3D('',#717,#718,#719);
#717 = CARTESIAN_POINT('',(-21.,23.5,12.));
#718 = DIRECTION('',(0.,0.,1.));
#719 = DIRECTION('',(1.,0.,-0.));
#720 = ADVANCED_FACE('',(#721,#729),#732,.T.);
#721 = FACE_BOUND('',#722,.T.);
#722 = EDGE_LOOP('',(#723,#724,#725,#726,#727,#728));
#723 = ORIENTED_EDGE('',*,*,#554,.T.);
#724 = ORIENTED_EDGE('',*,*,#602,.T.);
#725 = ORIENTED_EDGE('',*,*,#650,.T.);
#726 = ORIENTED_EDGE('',*,*,#674,.T.);
#727 = ORIENTED_EDGE('',*,*,#633,.T.);
#728 = ORIENTED_EDGE('',*,*,#585,.T.);
#729 = FACE_BOUND('',#730,.T.);
#730 = EDGE_LOOP('',(#731));
#731 = ORIENTED_EDGE('',*,*,#700,.T.);
#732 = PLANE('',#733);
#733 = AXIS2_PLACEMENT_3D('',#734,#735,#736);
#734 = CARTESIAN_POINT('',(-24.2,-7.325,11.225));
#735 = DIRECTION('',(1.,0.,0.));
#736 = DIRECTION('',(-0.,0.,1.));
#737 = ( GEOMETRIC_REPRESENTATION_CONTEXT(3) 
GLOBAL_UNCERTAINTY_ASSIGNED_CONTEXT((#741)) GLOBAL_UNIT_ASSIGNED_CONTEXT
((#738,#739,#740)) REPRESENTATION_CONTEXT('Context #1',
  '3D Context with UNIT and UNCERTAINTY') );
#738 = ( LENGTH_UNIT() NAMED_UNIT(*) SI_UNIT(.MILLI.,.METRE.) );
#739 = ( NAMED_UNIT(*) PLANE_ANGLE_UNIT() SI_UNIT($,.RADIAN.) );
#740 = ( NAMED_UNIT(*) SI_UNIT($,.STERADIAN.) SOLID_ANGLE_UNIT() );
#741 = UNCERTAINTY_MEASURE_WITH_UNIT(LENGTH_MEASURE(1.E-07),#738,
  'distance_accuracy_value','confusion accuracy');
#742 = PRODUCT_RELATED_PRODUCT_CATEGORY('part',$,(#7));
ENDSEC;
END-ISO-10303-21;
