ISO-10303-21;
HEADER;
FILE_DESCRIPTION(('FreeCAD Model'),'2;1');
FILE_NAME('Open CASCADE Shape Model','2026-09-20T22:45:44',('FreeCAD'),(
    'FreeCAD'),'Open CASCADE STEP processor 7.8','FreeCAD','Unknown');
FILE_SCHEMA(('AUTOMOTIVE_DESIGN { 1 0 10303 214 1 1 1 1 }'));
ENDSEC;
DATA;
#1 = APPLICATION_PROTOCOL_DEFINITION('international standard',
  'automotive_design',2000,#2);
#2 = APPLICATION_CONTEXT(
  'core data for automotive mechanical design processes');
#3 = SHAPE_DEFINITION_REPRESENTATION(#4,#10);
#4 = PRODUCT_DEFINITION_SHAPE('','',#5);
#5 = PRODUCT_DEFINITION('design','',#6,#9);
#6 = PRODUCT_DEFINITION_FORMATION('','',#7);
#7 = PRODUCT('Open CASCADE STEP translator 7.8 14',
  'Open CASCADE STEP translator 7.8 14','',(#8));
#8 = PRODUCT_CONTEXT('',#2,'mechanical');
#9 = PRODUCT_DEFINITION_CONTEXT('part definition',#2,'design');
#10 = ADVANCED_BREP_SHAPE_REPRESENTATION('',(#11,#15),#1851);
#11 = AXIS2_PLACEMENT_3D('',#12,#13,#14);
#12 = CARTESIAN_POINT('',(0.,0.,0.));
#13 = DIRECTION('',(0.,0.,1.));
#14 = DIRECTION('',(1.,0.,-0.));
#15 = MANIFOLD_SOLID_BREP('',#16);
#16 = CLOSED_SHELL('',(#17,#59,#90,#121,#287,#409,#426,#443,#460,#477,
    #489,#514,#539,#564,#596,#620,#644,#669,#694,#718,#742,#760,#785,
    #817,#841,#866,#890,#915,#939,#964,#981,#1040,#1099,#1158,#1384,
    #1443,#1465,#1482,#1499,#1516,#1533,#1545,#1567,#1584,#1601,#1618,
    #1635,#1647,#1669,#1686,#1703,#1720,#1737,#1749,#1771,#1788,#1805,
    #1822,#1839));
#17 = ADVANCED_FACE('',(#18),#54,.T.);
#18 = FACE_BOUND('',#19,.F.);
#19 = EDGE_LOOP('',(#20,#30,#39,#47));
#20 = ORIENTED_EDGE('',*,*,#21,.T.);
#21 = EDGE_CURVE('',#22,#24,#26,.T.);
#22 = VERTEX_POINT('',#23);
#23 = CARTESIAN_POINT('',(30.495,-23.755,0.));
#24 = VERTEX_POINT('',#25);
#25 = CARTESIAN_POINT('',(30.495,-23.755,2.));
#26 = LINE('',#27,#28);
#27 = CARTESIAN_POINT('',(30.495,-23.755,0.));
#28 = VECTOR('',#29,1.);
#29 = DIRECTION('',(0.,0.,1.));
#30 = ORIENTED_EDGE('',*,*,#31,.T.);
#31 = EDGE_CURVE('',#24,#32,#34,.T.);
#32 = VERTEX_POINT('',#33);
#33 = CARTESIAN_POINT('',(33.495,-20.755,2.));
#34 = CIRCLE('',#35,3.);
#35 = AXIS2_PLACEMENT_3D('',#36,#37,#38);
#36 = CARTESIAN_POINT('',(30.495,-20.755,2.));
#37 = DIRECTION('',(0.,0.,1.));
#38 = DIRECTION('',(-1.184237892934E-15,-1.,0.));
#39 = ORIENTED_EDGE('',*,*,#40,.F.);
#40 = EDGE_CURVE('',#41,#32,#43,.T.);
#41 = VERTEX_POINT('',#42);
#42 = CARTESIAN_POINT('',(33.495,-20.755,0.));
#43 = LINE('',#44,#45);
#44 = CARTESIAN_POINT('',(33.495,-20.755,0.));
#45 = VECTOR('',#46,1.);
#46 = DIRECTION('',(0.,0.,1.));
#47 = ORIENTED_EDGE('',*,*,#48,.F.);
#48 = EDGE_CURVE('',#22,#41,#49,.T.);
#49 = CIRCLE('',#50,3.);
#50 = AXIS2_PLACEMENT_3D('',#51,#52,#53);
#51 = CARTESIAN_POINT('',(30.495,-20.755,0.));
#52 = DIRECTION('',(0.,0.,1.));
#53 = DIRECTION('',(-1.184237892934E-15,-1.,0.));
#54 = CYLINDRICAL_SURFACE('',#55,3.);
#55 = AXIS2_PLACEMENT_3D('',#56,#57,#58);
#56 = CARTESIAN_POINT('',(30.495,-20.755,0.));
#57 = DIRECTION('',(-0.,-0.,-1.));
#58 = DIRECTION('',(-1.184237892934E-15,-1.,0.));
#59 = ADVANCED_FACE('',(#60),#85,.F.);
#60 = FACE_BOUND('',#61,.F.);
#61 = EDGE_LOOP('',(#62,#72,#78,#79));
#62 = ORIENTED_EDGE('',*,*,#63,.T.);
#63 = EDGE_CURVE('',#64,#66,#68,.T.);
#64 = VERTEX_POINT('',#65);
#65 = CARTESIAN_POINT('',(-30.495,-23.755,0.));
#66 = VERTEX_POINT('',#67);
#67 = CARTESIAN_POINT('',(-30.495,-23.755,2.));
#68 = LINE('',#69,#70);
#69 = CARTESIAN_POINT('',(-30.495,-23.755,0.));
#70 = VECTOR('',#71,1.);
#71 = DIRECTION('',(0.,0.,1.));
#72 = ORIENTED_EDGE('',*,*,#73,.T.);
#73 = EDGE_CURVE('',#66,#24,#74,.T.);
#74 = LINE('',#75,#76);
#75 = CARTESIAN_POINT('',(-30.495,-23.755,2.));
#76 = VECTOR('',#77,1.);
#77 = DIRECTION('',(1.,0.,0.));
#78 = ORIENTED_EDGE('',*,*,#21,.F.);
#79 = ORIENTED_EDGE('',*,*,#80,.F.);
#80 = EDGE_CURVE('',#64,#22,#81,.T.);
#81 = LINE('',#82,#83);
#82 = CARTESIAN_POINT('',(-30.495,-23.755,0.));
#83 = VECTOR('',#84,1.);
#84 = DIRECTION('',(1.,0.,0.));
#85 = PLANE('',#86);
#86 = AXIS2_PLACEMENT_3D('',#87,#88,#89);
#87 = CARTESIAN_POINT('',(-30.495,-23.755,0.));
#88 = DIRECTION('',(0.,1.,0.));
#89 = DIRECTION('',(1.,0.,0.));
#90 = ADVANCED_FACE('',(#91),#116,.F.);
#91 = FACE_BOUND('',#92,.F.);
#92 = EDGE_LOOP('',(#93,#94,#102,#110));
#93 = ORIENTED_EDGE('',*,*,#40,.T.);
#94 = ORIENTED_EDGE('',*,*,#95,.T.);
#95 = EDGE_CURVE('',#32,#96,#98,.T.);
#96 = VERTEX_POINT('',#97);
#97 = CARTESIAN_POINT('',(33.495,20.755,2.));
#98 = LINE('',#99,#100);
#99 = CARTESIAN_POINT('',(33.495,-20.755,2.));
#100 = VECTOR('',#101,1.);
#101 = DIRECTION('',(0.,1.,0.));
#102 = ORIENTED_EDGE('',*,*,#103,.F.);
#103 = EDGE_CURVE('',#104,#96,#106,.T.);
#104 = VERTEX_POINT('',#105);
#105 = CARTESIAN_POINT('',(33.495,20.755,0.));
#106 = LINE('',#107,#108);
#107 = CARTESIAN_POINT('',(33.495,20.755,0.));
#108 = VECTOR('',#109,1.);
#109 = DIRECTION('',(0.,0.,1.));
#110 = ORIENTED_EDGE('',*,*,#111,.F.);
#111 = EDGE_CURVE('',#41,#104,#112,.T.);
#112 = LINE('',#113,#114);
#113 = CARTESIAN_POINT('',(33.495,-20.755,0.));
#114 = VECTOR('',#115,1.);
#115 = DIRECTION('',(0.,1.,0.));
#116 = PLANE('',#117);
#117 = AXIS2_PLACEMENT_3D('',#118,#119,#120);
#118 = CARTESIAN_POINT('',(33.495,-20.755,0.));
#119 = DIRECTION('',(-1.,0.,0.));
#120 = DIRECTION('',(0.,1.,0.));
#121 = ADVANCED_FACE('',(#122,#168,#179,#190,#201,#271),#282,.F.);
#122 = FACE_BOUND('',#123,.F.);
#123 = EDGE_LOOP('',(#124,#125,#126,#135,#143,#152,#160,#167));
#124 = ORIENTED_EDGE('',*,*,#48,.T.);
#125 = ORIENTED_EDGE('',*,*,#111,.T.);
#126 = ORIENTED_EDGE('',*,*,#127,.T.);
#127 = EDGE_CURVE('',#104,#128,#130,.T.);
#128 = VERTEX_POINT('',#129);
#129 = CARTESIAN_POINT('',(30.495,23.755,0.));
#130 = CIRCLE('',#131,3.);
#131 = AXIS2_PLACEMENT_3D('',#132,#133,#134);
#132 = CARTESIAN_POINT('',(30.495,20.755,0.));
#133 = DIRECTION('',(0.,0.,1.));
#134 = DIRECTION('',(1.,-1.184237892934E-15,0.));
#135 = ORIENTED_EDGE('',*,*,#136,.T.);
#136 = EDGE_CURVE('',#128,#137,#139,.T.);
#137 = VERTEX_POINT('',#138);
#138 = CARTESIAN_POINT('',(-30.495,23.755,0.));
#139 = LINE('',#140,#141);
#140 = CARTESIAN_POINT('',(30.495,23.755,0.));
#141 = VECTOR('',#142,1.);
#142 = DIRECTION('',(-1.,0.,0.));
#143 = ORIENTED_EDGE('',*,*,#144,.T.);
#144 = EDGE_CURVE('',#137,#145,#147,.T.);
#145 = VERTEX_POINT('',#146);
#146 = CARTESIAN_POINT('',(-33.495,20.755,0.));
#147 = CIRCLE('',#148,3.);
#148 = AXIS2_PLACEMENT_3D('',#149,#150,#151);
#149 = CARTESIAN_POINT('',(-30.495,20.755,0.));
#150 = DIRECTION('',(0.,0.,1.));
#151 = DIRECTION('',(1.184237892934E-15,1.,-0.));
#152 = ORIENTED_EDGE('',*,*,#153,.T.);
#153 = EDGE_CURVE('',#145,#154,#156,.T.);
#154 = VERTEX_POINT('',#155);
#155 = CARTESIAN_POINT('',(-33.495,-20.755,0.));
#156 = LINE('',#157,#158);
#157 = CARTESIAN_POINT('',(-33.495,20.755,0.));
#158 = VECTOR('',#159,1.);
#159 = DIRECTION('',(0.,-1.,0.));
#160 = ORIENTED_EDGE('',*,*,#161,.T.);
#161 = EDGE_CURVE('',#154,#64,#162,.T.);
#162 = CIRCLE('',#163,3.);
#163 = AXIS2_PLACEMENT_3D('',#164,#165,#166);
#164 = CARTESIAN_POINT('',(-30.495,-20.755,0.));
#165 = DIRECTION('',(0.,0.,1.));
#166 = DIRECTION('',(-1.,1.184237892934E-15,0.));
#167 = ORIENTED_EDGE('',*,*,#80,.T.);
#168 = FACE_BOUND('',#169,.F.);
#169 = EDGE_LOOP('',(#170));
#170 = ORIENTED_EDGE('',*,*,#171,.F.);
#171 = EDGE_CURVE('',#172,#172,#174,.T.);
#172 = VERTEX_POINT('',#173);
#173 = CARTESIAN_POINT('',(-20.215,-13.105,0.));
#174 = CIRCLE('',#175,2.2);
#175 = AXIS2_PLACEMENT_3D('',#176,#177,#178);
#176 = CARTESIAN_POINT('',(-22.415,-13.105,0.));
#177 = DIRECTION('',(0.,0.,1.));
#178 = DIRECTION('',(1.,0.,-0.));
#179 = FACE_BOUND('',#180,.F.);
#180 = EDGE_LOOP('',(#181));
#181 = ORIENTED_EDGE('',*,*,#182,.F.);
#182 = EDGE_CURVE('',#183,#183,#185,.T.);
#183 = VERTEX_POINT('',#184);
#184 = CARTESIAN_POINT('',(24.615,-13.105,0.));
#185 = CIRCLE('',#186,2.2);
#186 = AXIS2_PLACEMENT_3D('',#187,#188,#189);
#187 = CARTESIAN_POINT('',(22.415,-13.105,0.));
#188 = DIRECTION('',(0.,0.,1.));
#189 = DIRECTION('',(1.,0.,-0.));
#190 = FACE_BOUND('',#191,.F.);
#191 = EDGE_LOOP('',(#192));
#192 = ORIENTED_EDGE('',*,*,#193,.F.);
#193 = EDGE_CURVE('',#194,#194,#196,.T.);
#194 = VERTEX_POINT('',#195);
#195 = CARTESIAN_POINT('',(-20.215,13.105,0.));
#196 = CIRCLE('',#197,2.2);
#197 = AXIS2_PLACEMENT_3D('',#198,#199,#200);
#198 = CARTESIAN_POINT('',(-22.415,13.105,0.));
#199 = DIRECTION('',(0.,0.,1.));
#200 = DIRECTION('',(1.,0.,-0.));
#201 = FACE_BOUND('',#202,.F.);
#202 = EDGE_LOOP('',(#203,#214,#222,#231,#239,#248,#256,#265));
#203 = ORIENTED_EDGE('',*,*,#204,.F.);
#204 = EDGE_CURVE('',#205,#207,#209,.T.);
#205 = VERTEX_POINT('',#206);
#206 = CARTESIAN_POINT('',(-19.,-7.,0.));
#207 = VERTEX_POINT('',#208);
#208 = CARTESIAN_POINT('',(-14.,-12.,0.));
#209 = CIRCLE('',#210,5.);
#210 = AXIS2_PLACEMENT_3D('',#211,#212,#213);
#211 = CARTESIAN_POINT('',(-14.,-7.,0.));
#212 = DIRECTION('',(0.,0.,1.));
#213 = DIRECTION('',(1.,0.,-0.));
#214 = ORIENTED_EDGE('',*,*,#215,.T.);
#215 = EDGE_CURVE('',#205,#216,#218,.T.);
#216 = VERTEX_POINT('',#217);
#217 = CARTESIAN_POINT('',(-19.,7.,0.));
#218 = LINE('',#219,#220);
#219 = CARTESIAN_POINT('',(-19.,-3.5,0.));
#220 = VECTOR('',#221,1.);
#221 = DIRECTION('',(-0.,1.,0.));
#222 = ORIENTED_EDGE('',*,*,#223,.F.);
#223 = EDGE_CURVE('',#224,#216,#226,.T.);
#224 = VERTEX_POINT('',#225);
#225 = CARTESIAN_POINT('',(-14.,12.,0.));
#226 = CIRCLE('',#227,5.);
#227 = AXIS2_PLACEMENT_3D('',#228,#229,#230);
#228 = CARTESIAN_POINT('',(-14.,7.,0.));
#229 = DIRECTION('',(0.,0.,1.));
#230 = DIRECTION('',(1.,0.,-0.));
#231 = ORIENTED_EDGE('',*,*,#232,.F.);
#232 = EDGE_CURVE('',#233,#224,#235,.T.);
#233 = VERTEX_POINT('',#234);
#234 = CARTESIAN_POINT('',(14.,12.,0.));
#235 = LINE('',#236,#237);
#236 = CARTESIAN_POINT('',(-7.,12.,0.));
#237 = VECTOR('',#238,1.);
#238 = DIRECTION('',(-1.,-0.,0.));
#239 = ORIENTED_EDGE('',*,*,#240,.F.);
#240 = EDGE_CURVE('',#241,#233,#243,.T.);
#241 = VERTEX_POINT('',#242);
#242 = CARTESIAN_POINT('',(19.,7.,0.));
#243 = CIRCLE('',#244,5.);
#244 = AXIS2_PLACEMENT_3D('',#245,#246,#247);
#245 = CARTESIAN_POINT('',(14.,7.,0.));
#246 = DIRECTION('',(0.,0.,1.));
#247 = DIRECTION('',(1.,0.,-0.));
#248 = ORIENTED_EDGE('',*,*,#249,.F.);
#249 = EDGE_CURVE('',#250,#241,#252,.T.);
#250 = VERTEX_POINT('',#251);
#251 = CARTESIAN_POINT('',(19.,-7.,0.));
#252 = LINE('',#253,#254);
#253 = CARTESIAN_POINT('',(19.,-3.5,0.));
#254 = VECTOR('',#255,1.);
#255 = DIRECTION('',(-0.,1.,0.));
#256 = ORIENTED_EDGE('',*,*,#257,.F.);
#257 = EDGE_CURVE('',#258,#250,#260,.T.);
#258 = VERTEX_POINT('',#259);
#259 = CARTESIAN_POINT('',(14.,-12.,0.));
#260 = CIRCLE('',#261,5.);
#261 = AXIS2_PLACEMENT_3D('',#262,#263,#264);
#262 = CARTESIAN_POINT('',(14.,-7.,0.));
#263 = DIRECTION('',(0.,0.,1.));
#264 = DIRECTION('',(1.,0.,-0.));
#265 = ORIENTED_EDGE('',*,*,#266,.T.);
#266 = EDGE_CURVE('',#258,#207,#267,.T.);
#267 = LINE('',#268,#269);
#268 = CARTESIAN_POINT('',(-7.,-12.,0.));
#269 = VECTOR('',#270,1.);
#270 = DIRECTION('',(-1.,-0.,0.));
#271 = FACE_BOUND('',#272,.F.);
#272 = EDGE_LOOP('',(#273));
#273 = ORIENTED_EDGE('',*,*,#274,.F.);
#274 = EDGE_CURVE('',#275,#275,#277,.T.);
#275 = VERTEX_POINT('',#276);
#276 = CARTESIAN_POINT('',(24.615,13.105,0.));
#277 = CIRCLE('',#278,2.2);
#278 = AXIS2_PLACEMENT_3D('',#279,#280,#281);
#279 = CARTESIAN_POINT('',(22.415,13.105,0.));
#280 = DIRECTION('',(0.,0.,1.));
#281 = DIRECTION('',(1.,0.,-0.));
#282 = PLANE('',#283);
#283 = AXIS2_PLACEMENT_3D('',#284,#285,#286);
#284 = CARTESIAN_POINT('',(-1.525076830616E-15,0.,0.));
#285 = DIRECTION('',(0.,0.,1.));
#286 = DIRECTION('',(1.,0.,-0.));
#287 = ADVANCED_FACE('',(#288,#334),#404,.T.);
#288 = FACE_BOUND('',#289,.T.);
#289 = EDGE_LOOP('',(#290,#291,#292,#301,#309,#318,#326,#333));
#290 = ORIENTED_EDGE('',*,*,#31,.T.);
#291 = ORIENTED_EDGE('',*,*,#95,.T.);
#292 = ORIENTED_EDGE('',*,*,#293,.T.);
#293 = EDGE_CURVE('',#96,#294,#296,.T.);
#294 = VERTEX_POINT('',#295);
#295 = CARTESIAN_POINT('',(30.495,23.755,2.));
#296 = CIRCLE('',#297,3.);
#297 = AXIS2_PLACEMENT_3D('',#298,#299,#300);
#298 = CARTESIAN_POINT('',(30.495,20.755,2.));
#299 = DIRECTION('',(0.,0.,1.));
#300 = DIRECTION('',(1.,-1.184237892934E-15,0.));
#301 = ORIENTED_EDGE('',*,*,#302,.T.);
#302 = EDGE_CURVE('',#294,#303,#305,.T.);
#303 = VERTEX_POINT('',#304);
#304 = CARTESIAN_POINT('',(-30.495,23.755,2.));
#305 = LINE('',#306,#307);
#306 = CARTESIAN_POINT('',(30.495,23.755,2.));
#307 = VECTOR('',#308,1.);
#308 = DIRECTION('',(-1.,0.,0.));
#309 = ORIENTED_EDGE('',*,*,#310,.T.);
#310 = EDGE_CURVE('',#303,#311,#313,.T.);
#311 = VERTEX_POINT('',#312);
#312 = CARTESIAN_POINT('',(-33.495,20.755,2.));
#313 = CIRCLE('',#314,3.);
#314 = AXIS2_PLACEMENT_3D('',#315,#316,#317);
#315 = CARTESIAN_POINT('',(-30.495,20.755,2.));
#316 = DIRECTION('',(0.,0.,1.));
#317 = DIRECTION('',(1.184237892934E-15,1.,-0.));
#318 = ORIENTED_EDGE('',*,*,#319,.T.);
#319 = EDGE_CURVE('',#311,#320,#322,.T.);
#320 = VERTEX_POINT('',#321);
#321 = CARTESIAN_POINT('',(-33.495,-20.755,2.));
#322 = LINE('',#323,#324);
#323 = CARTESIAN_POINT('',(-33.495,20.755,2.));
#324 = VECTOR('',#325,1.);
#325 = DIRECTION('',(0.,-1.,0.));
#326 = ORIENTED_EDGE('',*,*,#327,.T.);
#327 = EDGE_CURVE('',#320,#66,#328,.T.);
#328 = CIRCLE('',#329,3.);
#329 = AXIS2_PLACEMENT_3D('',#330,#331,#332);
#330 = CARTESIAN_POINT('',(-30.495,-20.755,2.));
#331 = DIRECTION('',(0.,0.,1.));
#332 = DIRECTION('',(-1.,1.184237892934E-15,0.));
#333 = ORIENTED_EDGE('',*,*,#73,.T.);
#334 = FACE_BOUND('',#335,.T.);
#335 = EDGE_LOOP('',(#336,#347,#355,#364,#372,#381,#389,#398));
#336 = ORIENTED_EDGE('',*,*,#337,.F.);
#337 = EDGE_CURVE('',#338,#340,#342,.T.);
#338 = VERTEX_POINT('',#339);
#339 = CARTESIAN_POINT('',(27.495,-19.755,2.));
#340 = VERTEX_POINT('',#341);
#341 = CARTESIAN_POINT('',(29.495,-17.755,2.));
#342 = CIRCLE('',#343,2.);
#343 = AXIS2_PLACEMENT_3D('',#344,#345,#346);
#344 = CARTESIAN_POINT('',(27.495,-17.755,2.));
#345 = DIRECTION('',(0.,0.,1.));
#346 = DIRECTION('',(-1.7763568394E-15,-1.,0.));
#347 = ORIENTED_EDGE('',*,*,#348,.F.);
#348 = EDGE_CURVE('',#349,#338,#351,.T.);
#349 = VERTEX_POINT('',#350);
#350 = CARTESIAN_POINT('',(-27.495,-19.755,2.));
#351 = LINE('',#352,#353);
#352 = CARTESIAN_POINT('',(-27.495,-19.755,2.));
#353 = VECTOR('',#354,1.);
#354 = DIRECTION('',(1.,0.,0.));
#355 = ORIENTED_EDGE('',*,*,#356,.F.);
#356 = EDGE_CURVE('',#357,#349,#359,.T.);
#357 = VERTEX_POINT('',#358);
#358 = CARTESIAN_POINT('',(-29.495,-17.755,2.));
#359 = CIRCLE('',#360,2.);
#360 = AXIS2_PLACEMENT_3D('',#361,#362,#363);
#361 = CARTESIAN_POINT('',(-27.495,-17.755,2.));
#362 = DIRECTION('',(0.,0.,1.));
#363 = DIRECTION('',(-1.,1.7763568394E-15,0.));
#364 = ORIENTED_EDGE('',*,*,#365,.F.);
#365 = EDGE_CURVE('',#366,#357,#368,.T.);
#366 = VERTEX_POINT('',#367);
#367 = CARTESIAN_POINT('',(-29.495,17.755,2.));
#368 = LINE('',#369,#370);
#369 = CARTESIAN_POINT('',(-29.495,17.755,2.));
#370 = VECTOR('',#371,1.);
#371 = DIRECTION('',(0.,-1.,0.));
#372 = ORIENTED_EDGE('',*,*,#373,.F.);
#373 = EDGE_CURVE('',#374,#366,#376,.T.);
#374 = VERTEX_POINT('',#375);
#375 = CARTESIAN_POINT('',(-27.495,19.755,2.));
#376 = CIRCLE('',#377,2.);
#377 = AXIS2_PLACEMENT_3D('',#378,#379,#380);
#378 = CARTESIAN_POINT('',(-27.495,17.755,2.));
#379 = DIRECTION('',(0.,0.,1.));
#380 = DIRECTION('',(1.7763568394E-15,1.,-0.));
#381 = ORIENTED_EDGE('',*,*,#382,.F.);
#382 = EDGE_CURVE('',#383,#374,#385,.T.);
#383 = VERTEX_POINT('',#384);
#384 = CARTESIAN_POINT('',(27.495,19.755,2.));
#385 = LINE('',#386,#387);
#386 = CARTESIAN_POINT('',(27.495,19.755,2.));
#387 = VECTOR('',#388,1.);
#388 = DIRECTION('',(-1.,0.,0.));
#389 = ORIENTED_EDGE('',*,*,#390,.F.);
#390 = EDGE_CURVE('',#391,#383,#393,.T.);
#391 = VERTEX_POINT('',#392);
#392 = CARTESIAN_POINT('',(29.495,17.755,2.));
#393 = CIRCLE('',#394,2.);
#394 = AXIS2_PLACEMENT_3D('',#395,#396,#397);
#395 = CARTESIAN_POINT('',(27.495,17.755,2.));
#396 = DIRECTION('',(0.,0.,1.));
#397 = DIRECTION('',(1.,-1.7763568394E-15,0.));
#398 = ORIENTED_EDGE('',*,*,#399,.F.);
#399 = EDGE_CURVE('',#340,#391,#400,.T.);
#400 = LINE('',#401,#402);
#401 = CARTESIAN_POINT('',(29.495,-17.755,2.));
#402 = VECTOR('',#403,1.);
#403 = DIRECTION('',(0.,1.,0.));
#404 = PLANE('',#405);
#405 = AXIS2_PLACEMENT_3D('',#406,#407,#408);
#406 = CARTESIAN_POINT('',(-1.525076830616E-15,0.,2.));
#407 = DIRECTION('',(0.,0.,1.));
#408 = DIRECTION('',(1.,0.,-0.));
#409 = ADVANCED_FACE('',(#410),#421,.T.);
#410 = FACE_BOUND('',#411,.F.);
#411 = EDGE_LOOP('',(#412,#418,#419,#420));
#412 = ORIENTED_EDGE('',*,*,#413,.T.);
#413 = EDGE_CURVE('',#154,#320,#414,.T.);
#414 = LINE('',#415,#416);
#415 = CARTESIAN_POINT('',(-33.495,-20.755,0.));
#416 = VECTOR('',#417,1.);
#417 = DIRECTION('',(0.,0.,1.));
#418 = ORIENTED_EDGE('',*,*,#327,.T.);
#419 = ORIENTED_EDGE('',*,*,#63,.F.);
#420 = ORIENTED_EDGE('',*,*,#161,.F.);
#421 = CYLINDRICAL_SURFACE('',#422,3.);
#422 = AXIS2_PLACEMENT_3D('',#423,#424,#425);
#423 = CARTESIAN_POINT('',(-30.495,-20.755,0.));
#424 = DIRECTION('',(-0.,-0.,-1.));
#425 = DIRECTION('',(-1.,1.184237892934E-15,0.));
#426 = ADVANCED_FACE('',(#427),#438,.T.);
#427 = FACE_BOUND('',#428,.F.);
#428 = EDGE_LOOP('',(#429,#430,#431,#437));
#429 = ORIENTED_EDGE('',*,*,#103,.T.);
#430 = ORIENTED_EDGE('',*,*,#293,.T.);
#431 = ORIENTED_EDGE('',*,*,#432,.F.);
#432 = EDGE_CURVE('',#128,#294,#433,.T.);
#433 = LINE('',#434,#435);
#434 = CARTESIAN_POINT('',(30.495,23.755,0.));
#435 = VECTOR('',#436,1.);
#436 = DIRECTION('',(0.,0.,1.));
#437 = ORIENTED_EDGE('',*,*,#127,.F.);
#438 = CYLINDRICAL_SURFACE('',#439,3.);
#439 = AXIS2_PLACEMENT_3D('',#440,#441,#442);
#440 = CARTESIAN_POINT('',(30.495,20.755,0.));
#441 = DIRECTION('',(-0.,-0.,-1.));
#442 = DIRECTION('',(1.,-1.184237892934E-15,0.));
#443 = ADVANCED_FACE('',(#444),#455,.F.);
#444 = FACE_BOUND('',#445,.F.);
#445 = EDGE_LOOP('',(#446,#452,#453,#454));
#446 = ORIENTED_EDGE('',*,*,#447,.T.);
#447 = EDGE_CURVE('',#145,#311,#448,.T.);
#448 = LINE('',#449,#450);
#449 = CARTESIAN_POINT('',(-33.495,20.755,0.));
#450 = VECTOR('',#451,1.);
#451 = DIRECTION('',(0.,0.,1.));
#452 = ORIENTED_EDGE('',*,*,#319,.T.);
#453 = ORIENTED_EDGE('',*,*,#413,.F.);
#454 = ORIENTED_EDGE('',*,*,#153,.F.);
#455 = PLANE('',#456);
#456 = AXIS2_PLACEMENT_3D('',#457,#458,#459);
#457 = CARTESIAN_POINT('',(-33.495,20.755,0.));
#458 = DIRECTION('',(1.,0.,-0.));
#459 = DIRECTION('',(0.,-1.,0.));
#460 = ADVANCED_FACE('',(#461),#472,.F.);
#461 = FACE_BOUND('',#462,.F.);
#462 = EDGE_LOOP('',(#463,#464,#465,#471));
#463 = ORIENTED_EDGE('',*,*,#432,.T.);
#464 = ORIENTED_EDGE('',*,*,#302,.T.);
#465 = ORIENTED_EDGE('',*,*,#466,.F.);
#466 = EDGE_CURVE('',#137,#303,#467,.T.);
#467 = LINE('',#468,#469);
#468 = CARTESIAN_POINT('',(-30.495,23.755,0.));
#469 = VECTOR('',#470,1.);
#470 = DIRECTION('',(0.,0.,1.));
#471 = ORIENTED_EDGE('',*,*,#136,.F.);
#472 = PLANE('',#473);
#473 = AXIS2_PLACEMENT_3D('',#474,#475,#476);
#474 = CARTESIAN_POINT('',(30.495,23.755,0.));
#475 = DIRECTION('',(0.,-1.,0.));
#476 = DIRECTION('',(-1.,0.,0.));
#477 = ADVANCED_FACE('',(#478),#484,.T.);
#478 = FACE_BOUND('',#479,.F.);
#479 = EDGE_LOOP('',(#480,#481,#482,#483));
#480 = ORIENTED_EDGE('',*,*,#466,.T.);
#481 = ORIENTED_EDGE('',*,*,#310,.T.);
#482 = ORIENTED_EDGE('',*,*,#447,.F.);
#483 = ORIENTED_EDGE('',*,*,#144,.F.);
#484 = CYLINDRICAL_SURFACE('',#485,3.);
#485 = AXIS2_PLACEMENT_3D('',#486,#487,#488);
#486 = CARTESIAN_POINT('',(-30.495,20.755,0.));
#487 = DIRECTION('',(-0.,-0.,-1.));
#488 = DIRECTION('',(1.184237892934E-15,1.,-0.));
#489 = ADVANCED_FACE('',(#490),#509,.F.);
#490 = FACE_BOUND('',#491,.F.);
#491 = EDGE_LOOP('',(#492,#501,#507,#508));
#492 = ORIENTED_EDGE('',*,*,#493,.F.);
#493 = EDGE_CURVE('',#494,#494,#496,.T.);
#494 = VERTEX_POINT('',#495);
#495 = CARTESIAN_POINT('',(-20.215,-13.105,1.8));
#496 = CIRCLE('',#497,2.2);
#497 = AXIS2_PLACEMENT_3D('',#498,#499,#500);
#498 = CARTESIAN_POINT('',(-22.415,-13.105,1.8));
#499 = DIRECTION('',(0.,0.,1.));
#500 = DIRECTION('',(1.,0.,-0.));
#501 = ORIENTED_EDGE('',*,*,#502,.F.);
#502 = EDGE_CURVE('',#172,#494,#503,.T.);
#503 = LINE('',#504,#505);
#504 = CARTESIAN_POINT('',(-20.215,-13.105,-1.));
#505 = VECTOR('',#506,1.);
#506 = DIRECTION('',(0.,0.,1.));
#507 = ORIENTED_EDGE('',*,*,#171,.T.);
#508 = ORIENTED_EDGE('',*,*,#502,.T.);
#509 = CYLINDRICAL_SURFACE('',#510,2.2);
#510 = AXIS2_PLACEMENT_3D('',#511,#512,#513);
#511 = CARTESIAN_POINT('',(-22.415,-13.105,-1.));
#512 = DIRECTION('',(0.,0.,1.));
#513 = DIRECTION('',(1.,0.,-0.));
#514 = ADVANCED_FACE('',(#515),#534,.F.);
#515 = FACE_BOUND('',#516,.F.);
#516 = EDGE_LOOP('',(#517,#526,#532,#533));
#517 = ORIENTED_EDGE('',*,*,#518,.F.);
#518 = EDGE_CURVE('',#519,#519,#521,.T.);
#519 = VERTEX_POINT('',#520);
#520 = CARTESIAN_POINT('',(24.615,-13.105,1.8));
#521 = CIRCLE('',#522,2.2);
#522 = AXIS2_PLACEMENT_3D('',#523,#524,#525);
#523 = CARTESIAN_POINT('',(22.415,-13.105,1.8));
#524 = DIRECTION('',(0.,0.,1.));
#525 = DIRECTION('',(1.,0.,-0.));
#526 = ORIENTED_EDGE('',*,*,#527,.F.);
#527 = EDGE_CURVE('',#183,#519,#528,.T.);
#528 = LINE('',#529,#530);
#529 = CARTESIAN_POINT('',(24.615,-13.105,-1.));
#530 = VECTOR('',#531,1.);
#531 = DIRECTION('',(0.,0.,1.));
#532 = ORIENTED_EDGE('',*,*,#182,.T.);
#533 = ORIENTED_EDGE('',*,*,#527,.T.);
#534 = CYLINDRICAL_SURFACE('',#535,2.2);
#535 = AXIS2_PLACEMENT_3D('',#536,#537,#538);
#536 = CARTESIAN_POINT('',(22.415,-13.105,-1.));
#537 = DIRECTION('',(0.,0.,1.));
#538 = DIRECTION('',(1.,0.,-0.));
#539 = ADVANCED_FACE('',(#540),#559,.F.);
#540 = FACE_BOUND('',#541,.F.);
#541 = EDGE_LOOP('',(#542,#551,#557,#558));
#542 = ORIENTED_EDGE('',*,*,#543,.F.);
#543 = EDGE_CURVE('',#544,#544,#546,.T.);
#544 = VERTEX_POINT('',#545);
#545 = CARTESIAN_POINT('',(-20.215,13.105,1.8));
#546 = CIRCLE('',#547,2.2);
#547 = AXIS2_PLACEMENT_3D('',#548,#549,#550);
#548 = CARTESIAN_POINT('',(-22.415,13.105,1.8));
#549 = DIRECTION('',(0.,0.,1.));
#550 = DIRECTION('',(1.,0.,-0.));
#551 = ORIENTED_EDGE('',*,*,#552,.F.);
#552 = EDGE_CURVE('',#194,#544,#553,.T.);
#553 = LINE('',#554,#555);
#554 = CARTESIAN_POINT('',(-20.215,13.105,-1.));
#555 = VECTOR('',#556,1.);
#556 = DIRECTION('',(0.,0.,1.));
#557 = ORIENTED_EDGE('',*,*,#193,.T.);
#558 = ORIENTED_EDGE('',*,*,#552,.T.);
#559 = CYLINDRICAL_SURFACE('',#560,2.2);
#560 = AXIS2_PLACEMENT_3D('',#561,#562,#563);
#561 = CARTESIAN_POINT('',(-22.415,13.105,-1.));
#562 = DIRECTION('',(0.,0.,1.));
#563 = DIRECTION('',(1.,0.,-0.));
#564 = ADVANCED_FACE('',(#565),#591,.F.);
#565 = FACE_BOUND('',#566,.F.);
#566 = EDGE_LOOP('',(#567,#578,#584,#585));
#567 = ORIENTED_EDGE('',*,*,#568,.F.);
#568 = EDGE_CURVE('',#569,#571,#573,.T.);
#569 = VERTEX_POINT('',#570);
#570 = CARTESIAN_POINT('',(-19.,-7.,5.));
#571 = VERTEX_POINT('',#572);
#572 = CARTESIAN_POINT('',(-14.,-12.,5.));
#573 = CIRCLE('',#574,5.);
#574 = AXIS2_PLACEMENT_3D('',#575,#576,#577);
#575 = CARTESIAN_POINT('',(-14.,-7.,5.));
#576 = DIRECTION('',(0.,0.,1.));
#577 = DIRECTION('',(1.,0.,-0.));
#578 = ORIENTED_EDGE('',*,*,#579,.F.);
#579 = EDGE_CURVE('',#205,#569,#580,.T.);
#580 = LINE('',#581,#582);
#581 = CARTESIAN_POINT('',(-19.,-7.,-1.));
#582 = VECTOR('',#583,1.);
#583 = DIRECTION('',(0.,0.,1.));
#584 = ORIENTED_EDGE('',*,*,#204,.T.);
#585 = ORIENTED_EDGE('',*,*,#586,.T.);
#586 = EDGE_CURVE('',#207,#571,#587,.T.);
#587 = LINE('',#588,#589);
#588 = CARTESIAN_POINT('',(-14.,-12.,-1.));
#589 = VECTOR('',#590,1.);
#590 = DIRECTION('',(0.,0.,1.));
#591 = CYLINDRICAL_SURFACE('',#592,5.);
#592 = AXIS2_PLACEMENT_3D('',#593,#594,#595);
#593 = CARTESIAN_POINT('',(-14.,-7.,-1.));
#594 = DIRECTION('',(0.,0.,1.));
#595 = DIRECTION('',(1.,0.,-0.));
#596 = ADVANCED_FACE('',(#597),#615,.T.);
#597 = FACE_BOUND('',#598,.T.);
#598 = EDGE_LOOP('',(#599,#600,#601,#609));
#599 = ORIENTED_EDGE('',*,*,#579,.F.);
#600 = ORIENTED_EDGE('',*,*,#215,.T.);
#601 = ORIENTED_EDGE('',*,*,#602,.T.);
#602 = EDGE_CURVE('',#216,#603,#605,.T.);
#603 = VERTEX_POINT('',#604);
#604 = CARTESIAN_POINT('',(-19.,7.,5.));
#605 = LINE('',#606,#607);
#606 = CARTESIAN_POINT('',(-19.,7.,-1.));
#607 = VECTOR('',#608,1.);
#608 = DIRECTION('',(0.,0.,1.));
#609 = ORIENTED_EDGE('',*,*,#610,.F.);
#610 = EDGE_CURVE('',#569,#603,#611,.T.);
#611 = LINE('',#612,#613);
#612 = CARTESIAN_POINT('',(-19.,-3.5,5.));
#613 = VECTOR('',#614,1.);
#614 = DIRECTION('',(-0.,1.,0.));
#615 = PLANE('',#616);
#616 = AXIS2_PLACEMENT_3D('',#617,#618,#619);
#617 = CARTESIAN_POINT('',(-19.,-7.,-1.));
#618 = DIRECTION('',(1.,0.,-0.));
#619 = DIRECTION('',(0.,0.,1.));
#620 = ADVANCED_FACE('',(#621),#639,.T.);
#621 = FACE_BOUND('',#622,.T.);
#622 = EDGE_LOOP('',(#623,#624,#625,#633));
#623 = ORIENTED_EDGE('',*,*,#266,.T.);
#624 = ORIENTED_EDGE('',*,*,#586,.T.);
#625 = ORIENTED_EDGE('',*,*,#626,.F.);
#626 = EDGE_CURVE('',#627,#571,#629,.T.);
#627 = VERTEX_POINT('',#628);
#628 = CARTESIAN_POINT('',(14.,-12.,5.));
#629 = LINE('',#630,#631);
#630 = CARTESIAN_POINT('',(-7.,-12.,5.));
#631 = VECTOR('',#632,1.);
#632 = DIRECTION('',(-1.,-0.,0.));
#633 = ORIENTED_EDGE('',*,*,#634,.F.);
#634 = EDGE_CURVE('',#258,#627,#635,.T.);
#635 = LINE('',#636,#637);
#636 = CARTESIAN_POINT('',(14.,-12.,-1.));
#637 = VECTOR('',#638,1.);
#638 = DIRECTION('',(0.,0.,1.));
#639 = PLANE('',#640);
#640 = AXIS2_PLACEMENT_3D('',#641,#642,#643);
#641 = CARTESIAN_POINT('',(-14.,-12.,-1.));
#642 = DIRECTION('',(-0.,1.,0.));
#643 = DIRECTION('',(0.,0.,1.));
#644 = ADVANCED_FACE('',(#645),#664,.F.);
#645 = FACE_BOUND('',#646,.F.);
#646 = EDGE_LOOP('',(#647,#656,#662,#663));
#647 = ORIENTED_EDGE('',*,*,#648,.F.);
#648 = EDGE_CURVE('',#649,#603,#651,.T.);
#649 = VERTEX_POINT('',#650);
#650 = CARTESIAN_POINT('',(-14.,12.,5.));
#651 = CIRCLE('',#652,5.);
#652 = AXIS2_PLACEMENT_3D('',#653,#654,#655);
#653 = CARTESIAN_POINT('',(-14.,7.,5.));
#654 = DIRECTION('',(0.,0.,1.));
#655 = DIRECTION('',(1.,0.,-0.));
#656 = ORIENTED_EDGE('',*,*,#657,.F.);
#657 = EDGE_CURVE('',#224,#649,#658,.T.);
#658 = LINE('',#659,#660);
#659 = CARTESIAN_POINT('',(-14.,12.,-1.));
#660 = VECTOR('',#661,1.);
#661 = DIRECTION('',(0.,0.,1.));
#662 = ORIENTED_EDGE('',*,*,#223,.T.);
#663 = ORIENTED_EDGE('',*,*,#602,.T.);
#664 = CYLINDRICAL_SURFACE('',#665,5.);
#665 = AXIS2_PLACEMENT_3D('',#666,#667,#668);
#666 = CARTESIAN_POINT('',(-14.,7.,-1.));
#667 = DIRECTION('',(0.,0.,1.));
#668 = DIRECTION('',(1.,0.,-0.));
#669 = ADVANCED_FACE('',(#670),#689,.F.);
#670 = FACE_BOUND('',#671,.F.);
#671 = EDGE_LOOP('',(#672,#681,#682,#683));
#672 = ORIENTED_EDGE('',*,*,#673,.F.);
#673 = EDGE_CURVE('',#627,#674,#676,.T.);
#674 = VERTEX_POINT('',#675);
#675 = CARTESIAN_POINT('',(19.,-7.,5.));
#676 = CIRCLE('',#677,5.);
#677 = AXIS2_PLACEMENT_3D('',#678,#679,#680);
#678 = CARTESIAN_POINT('',(14.,-7.,5.));
#679 = DIRECTION('',(0.,0.,1.));
#680 = DIRECTION('',(1.,0.,-0.));
#681 = ORIENTED_EDGE('',*,*,#634,.F.);
#682 = ORIENTED_EDGE('',*,*,#257,.T.);
#683 = ORIENTED_EDGE('',*,*,#684,.T.);
#684 = EDGE_CURVE('',#250,#674,#685,.T.);
#685 = LINE('',#686,#687);
#686 = CARTESIAN_POINT('',(19.,-7.,-1.));
#687 = VECTOR('',#688,1.);
#688 = DIRECTION('',(0.,0.,1.));
#689 = CYLINDRICAL_SURFACE('',#690,5.);
#690 = AXIS2_PLACEMENT_3D('',#691,#692,#693);
#691 = CARTESIAN_POINT('',(14.,-7.,-1.));
#692 = DIRECTION('',(0.,0.,1.));
#693 = DIRECTION('',(1.,0.,-0.));
#694 = ADVANCED_FACE('',(#695),#713,.F.);
#695 = FACE_BOUND('',#696,.F.);
#696 = EDGE_LOOP('',(#697,#698,#699,#707));
#697 = ORIENTED_EDGE('',*,*,#232,.T.);
#698 = ORIENTED_EDGE('',*,*,#657,.T.);
#699 = ORIENTED_EDGE('',*,*,#700,.F.);
#700 = EDGE_CURVE('',#701,#649,#703,.T.);
#701 = VERTEX_POINT('',#702);
#702 = CARTESIAN_POINT('',(14.,12.,5.));
#703 = LINE('',#704,#705);
#704 = CARTESIAN_POINT('',(-7.,12.,5.));
#705 = VECTOR('',#706,1.);
#706 = DIRECTION('',(-1.,-0.,0.));
#707 = ORIENTED_EDGE('',*,*,#708,.F.);
#708 = EDGE_CURVE('',#233,#701,#709,.T.);
#709 = LINE('',#710,#711);
#710 = CARTESIAN_POINT('',(14.,12.,-1.));
#711 = VECTOR('',#712,1.);
#712 = DIRECTION('',(0.,0.,1.));
#713 = PLANE('',#714);
#714 = AXIS2_PLACEMENT_3D('',#715,#716,#717);
#715 = CARTESIAN_POINT('',(-14.,12.,-1.));
#716 = DIRECTION('',(-0.,1.,0.));
#717 = DIRECTION('',(0.,0.,1.));
#718 = ADVANCED_FACE('',(#719),#737,.F.);
#719 = FACE_BOUND('',#720,.F.);
#720 = EDGE_LOOP('',(#721,#722,#723,#731));
#721 = ORIENTED_EDGE('',*,*,#684,.F.);
#722 = ORIENTED_EDGE('',*,*,#249,.T.);
#723 = ORIENTED_EDGE('',*,*,#724,.T.);
#724 = EDGE_CURVE('',#241,#725,#727,.T.);
#725 = VERTEX_POINT('',#726);
#726 = CARTESIAN_POINT('',(19.,7.,5.));
#727 = LINE('',#728,#729);
#728 = CARTESIAN_POINT('',(19.,7.,-1.));
#729 = VECTOR('',#730,1.);
#730 = DIRECTION('',(0.,0.,1.));
#731 = ORIENTED_EDGE('',*,*,#732,.F.);
#732 = EDGE_CURVE('',#674,#725,#733,.T.);
#733 = LINE('',#734,#735);
#734 = CARTESIAN_POINT('',(19.,-3.5,5.));
#735 = VECTOR('',#736,1.);
#736 = DIRECTION('',(-0.,1.,0.));
#737 = PLANE('',#738);
#738 = AXIS2_PLACEMENT_3D('',#739,#740,#741);
#739 = CARTESIAN_POINT('',(19.,-7.,-1.));
#740 = DIRECTION('',(1.,0.,-0.));
#741 = DIRECTION('',(0.,0.,1.));
#742 = ADVANCED_FACE('',(#743),#755,.F.);
#743 = FACE_BOUND('',#744,.F.);
#744 = EDGE_LOOP('',(#745,#752,#753,#754));
#745 = ORIENTED_EDGE('',*,*,#746,.F.);
#746 = EDGE_CURVE('',#725,#701,#747,.T.);
#747 = CIRCLE('',#748,5.);
#748 = AXIS2_PLACEMENT_3D('',#749,#750,#751);
#749 = CARTESIAN_POINT('',(14.,7.,5.));
#750 = DIRECTION('',(0.,0.,1.));
#751 = DIRECTION('',(1.,0.,-0.));
#752 = ORIENTED_EDGE('',*,*,#724,.F.);
#753 = ORIENTED_EDGE('',*,*,#240,.T.);
#754 = ORIENTED_EDGE('',*,*,#708,.T.);
#755 = CYLINDRICAL_SURFACE('',#756,5.);
#756 = AXIS2_PLACEMENT_3D('',#757,#758,#759);
#757 = CARTESIAN_POINT('',(14.,7.,-1.));
#758 = DIRECTION('',(0.,0.,1.));
#759 = DIRECTION('',(1.,0.,-0.));
#760 = ADVANCED_FACE('',(#761),#780,.F.);
#761 = FACE_BOUND('',#762,.F.);
#762 = EDGE_LOOP('',(#763,#772,#778,#779));
#763 = ORIENTED_EDGE('',*,*,#764,.F.);
#764 = EDGE_CURVE('',#765,#765,#767,.T.);
#765 = VERTEX_POINT('',#766);
#766 = CARTESIAN_POINT('',(24.615,13.105,1.8));
#767 = CIRCLE('',#768,2.2);
#768 = AXIS2_PLACEMENT_3D('',#769,#770,#771);
#769 = CARTESIAN_POINT('',(22.415,13.105,1.8));
#770 = DIRECTION('',(0.,0.,1.));
#771 = DIRECTION('',(1.,0.,-0.));
#772 = ORIENTED_EDGE('',*,*,#773,.F.);
#773 = EDGE_CURVE('',#275,#765,#774,.T.);
#774 = LINE('',#775,#776);
#775 = CARTESIAN_POINT('',(24.615,13.105,-1.));
#776 = VECTOR('',#777,1.);
#777 = DIRECTION('',(0.,0.,1.));
#778 = ORIENTED_EDGE('',*,*,#274,.T.);
#779 = ORIENTED_EDGE('',*,*,#773,.T.);
#780 = CYLINDRICAL_SURFACE('',#781,2.2);
#781 = AXIS2_PLACEMENT_3D('',#782,#783,#784);
#782 = CARTESIAN_POINT('',(22.415,13.105,-1.));
#783 = DIRECTION('',(0.,0.,1.));
#784 = DIRECTION('',(1.,0.,-0.));
#785 = ADVANCED_FACE('',(#786),#812,.T.);
#786 = FACE_BOUND('',#787,.F.);
#787 = EDGE_LOOP('',(#788,#796,#805,#811));
#788 = ORIENTED_EDGE('',*,*,#789,.T.);
#789 = EDGE_CURVE('',#338,#790,#792,.T.);
#790 = VERTEX_POINT('',#791);
#791 = CARTESIAN_POINT('',(27.495,-19.755,5.));
#792 = LINE('',#793,#794);
#793 = CARTESIAN_POINT('',(27.495,-19.755,2.));
#794 = VECTOR('',#795,1.);
#795 = DIRECTION('',(0.,0.,1.));
#796 = ORIENTED_EDGE('',*,*,#797,.T.);
#797 = EDGE_CURVE('',#790,#798,#800,.T.);
#798 = VERTEX_POINT('',#799);
#799 = CARTESIAN_POINT('',(29.495,-17.755,5.));
#800 = CIRCLE('',#801,2.);
#801 = AXIS2_PLACEMENT_3D('',#802,#803,#804);
#802 = CARTESIAN_POINT('',(27.495,-17.755,5.));
#803 = DIRECTION('',(0.,0.,1.));
#804 = DIRECTION('',(-1.7763568394E-15,-1.,0.));
#805 = ORIENTED_EDGE('',*,*,#806,.F.);
#806 = EDGE_CURVE('',#340,#798,#807,.T.);
#807 = LINE('',#808,#809);
#808 = CARTESIAN_POINT('',(29.495,-17.755,2.));
#809 = VECTOR('',#810,1.);
#810 = DIRECTION('',(0.,0.,1.));
#811 = ORIENTED_EDGE('',*,*,#337,.F.);
#812 = CYLINDRICAL_SURFACE('',#813,2.);
#813 = AXIS2_PLACEMENT_3D('',#814,#815,#816);
#814 = CARTESIAN_POINT('',(27.495,-17.755,2.));
#815 = DIRECTION('',(-0.,-0.,-1.));
#816 = DIRECTION('',(-1.7763568394E-15,-1.,0.));
#817 = ADVANCED_FACE('',(#818),#836,.F.);
#818 = FACE_BOUND('',#819,.F.);
#819 = EDGE_LOOP('',(#820,#821,#829,#835));
#820 = ORIENTED_EDGE('',*,*,#806,.T.);
#821 = ORIENTED_EDGE('',*,*,#822,.T.);
#822 = EDGE_CURVE('',#798,#823,#825,.T.);
#823 = VERTEX_POINT('',#824);
#824 = CARTESIAN_POINT('',(29.495,17.755,5.));
#825 = LINE('',#826,#827);
#826 = CARTESIAN_POINT('',(29.495,-17.755,5.));
#827 = VECTOR('',#828,1.);
#828 = DIRECTION('',(0.,1.,0.));
#829 = ORIENTED_EDGE('',*,*,#830,.F.);
#830 = EDGE_CURVE('',#391,#823,#831,.T.);
#831 = LINE('',#832,#833);
#832 = CARTESIAN_POINT('',(29.495,17.755,2.));
#833 = VECTOR('',#834,1.);
#834 = DIRECTION('',(0.,0.,1.));
#835 = ORIENTED_EDGE('',*,*,#399,.F.);
#836 = PLANE('',#837);
#837 = AXIS2_PLACEMENT_3D('',#838,#839,#840);
#838 = CARTESIAN_POINT('',(29.495,-17.755,2.));
#839 = DIRECTION('',(-1.,0.,0.));
#840 = DIRECTION('',(0.,1.,0.));
#841 = ADVANCED_FACE('',(#842),#861,.T.);
#842 = FACE_BOUND('',#843,.F.);
#843 = EDGE_LOOP('',(#844,#845,#854,#860));
#844 = ORIENTED_EDGE('',*,*,#830,.T.);
#845 = ORIENTED_EDGE('',*,*,#846,.T.);
#846 = EDGE_CURVE('',#823,#847,#849,.T.);
#847 = VERTEX_POINT('',#848);
#848 = CARTESIAN_POINT('',(27.495,19.755,5.));
#849 = CIRCLE('',#850,2.);
#850 = AXIS2_PLACEMENT_3D('',#851,#852,#853);
#851 = CARTESIAN_POINT('',(27.495,17.755,5.));
#852 = DIRECTION('',(0.,0.,1.));
#853 = DIRECTION('',(1.,-1.7763568394E-15,0.));
#854 = ORIENTED_EDGE('',*,*,#855,.F.);
#855 = EDGE_CURVE('',#383,#847,#856,.T.);
#856 = LINE('',#857,#858);
#857 = CARTESIAN_POINT('',(27.495,19.755,2.));
#858 = VECTOR('',#859,1.);
#859 = DIRECTION('',(0.,0.,1.));
#860 = ORIENTED_EDGE('',*,*,#390,.F.);
#861 = CYLINDRICAL_SURFACE('',#862,2.);
#862 = AXIS2_PLACEMENT_3D('',#863,#864,#865);
#863 = CARTESIAN_POINT('',(27.495,17.755,2.));
#864 = DIRECTION('',(-0.,-0.,-1.));
#865 = DIRECTION('',(1.,-1.7763568394E-15,0.));
#866 = ADVANCED_FACE('',(#867),#885,.F.);
#867 = FACE_BOUND('',#868,.F.);
#868 = EDGE_LOOP('',(#869,#870,#878,#884));
#869 = ORIENTED_EDGE('',*,*,#855,.T.);
#870 = ORIENTED_EDGE('',*,*,#871,.T.);
#871 = EDGE_CURVE('',#847,#872,#874,.T.);
#872 = VERTEX_POINT('',#873);
#873 = CARTESIAN_POINT('',(-27.495,19.755,5.));
#874 = LINE('',#875,#876);
#875 = CARTESIAN_POINT('',(27.495,19.755,5.));
#876 = VECTOR('',#877,1.);
#877 = DIRECTION('',(-1.,0.,0.));
#878 = ORIENTED_EDGE('',*,*,#879,.F.);
#879 = EDGE_CURVE('',#374,#872,#880,.T.);
#880 = LINE('',#881,#882);
#881 = CARTESIAN_POINT('',(-27.495,19.755,2.));
#882 = VECTOR('',#883,1.);
#883 = DIRECTION('',(0.,0.,1.));
#884 = ORIENTED_EDGE('',*,*,#382,.F.);
#885 = PLANE('',#886);
#886 = AXIS2_PLACEMENT_3D('',#887,#888,#889);
#887 = CARTESIAN_POINT('',(27.495,19.755,2.));
#888 = DIRECTION('',(0.,-1.,0.));
#889 = DIRECTION('',(-1.,0.,0.));
#890 = ADVANCED_FACE('',(#891),#910,.T.);
#891 = FACE_BOUND('',#892,.F.);
#892 = EDGE_LOOP('',(#893,#894,#903,#909));
#893 = ORIENTED_EDGE('',*,*,#879,.T.);
#894 = ORIENTED_EDGE('',*,*,#895,.T.);
#895 = EDGE_CURVE('',#872,#896,#898,.T.);
#896 = VERTEX_POINT('',#897);
#897 = CARTESIAN_POINT('',(-29.495,17.755,5.));
#898 = CIRCLE('',#899,2.);
#899 = AXIS2_PLACEMENT_3D('',#900,#901,#902);
#900 = CARTESIAN_POINT('',(-27.495,17.755,5.));
#901 = DIRECTION('',(0.,0.,1.));
#902 = DIRECTION('',(1.7763568394E-15,1.,-0.));
#903 = ORIENTED_EDGE('',*,*,#904,.F.);
#904 = EDGE_CURVE('',#366,#896,#905,.T.);
#905 = LINE('',#906,#907);
#906 = CARTESIAN_POINT('',(-29.495,17.755,2.));
#907 = VECTOR('',#908,1.);
#908 = DIRECTION('',(0.,0.,1.));
#909 = ORIENTED_EDGE('',*,*,#373,.F.);
#910 = CYLINDRICAL_SURFACE('',#911,2.);
#911 = AXIS2_PLACEMENT_3D('',#912,#913,#914);
#912 = CARTESIAN_POINT('',(-27.495,17.755,2.));
#913 = DIRECTION('',(-0.,-0.,-1.));
#914 = DIRECTION('',(1.7763568394E-15,1.,-0.));
#915 = ADVANCED_FACE('',(#916),#934,.F.);
#916 = FACE_BOUND('',#917,.F.);
#917 = EDGE_LOOP('',(#918,#919,#927,#933));
#918 = ORIENTED_EDGE('',*,*,#904,.T.);
#919 = ORIENTED_EDGE('',*,*,#920,.T.);
#920 = EDGE_CURVE('',#896,#921,#923,.T.);
#921 = VERTEX_POINT('',#922);
#922 = CARTESIAN_POINT('',(-29.495,-17.755,5.));
#923 = LINE('',#924,#925);
#924 = CARTESIAN_POINT('',(-29.495,17.755,5.));
#925 = VECTOR('',#926,1.);
#926 = DIRECTION('',(0.,-1.,0.));
#927 = ORIENTED_EDGE('',*,*,#928,.F.);
#928 = EDGE_CURVE('',#357,#921,#929,.T.);
#929 = LINE('',#930,#931);
#930 = CARTESIAN_POINT('',(-29.495,-17.755,2.));
#931 = VECTOR('',#932,1.);
#932 = DIRECTION('',(0.,0.,1.));
#933 = ORIENTED_EDGE('',*,*,#365,.F.);
#934 = PLANE('',#935);
#935 = AXIS2_PLACEMENT_3D('',#936,#937,#938);
#936 = CARTESIAN_POINT('',(-29.495,17.755,2.));
#937 = DIRECTION('',(1.,0.,-0.));
#938 = DIRECTION('',(0.,-1.,0.));
#939 = ADVANCED_FACE('',(#940),#959,.T.);
#940 = FACE_BOUND('',#941,.F.);
#941 = EDGE_LOOP('',(#942,#943,#952,#958));
#942 = ORIENTED_EDGE('',*,*,#928,.T.);
#943 = ORIENTED_EDGE('',*,*,#944,.T.);
#944 = EDGE_CURVE('',#921,#945,#947,.T.);
#945 = VERTEX_POINT('',#946);
#946 = CARTESIAN_POINT('',(-27.495,-19.755,5.));
#947 = CIRCLE('',#948,2.);
#948 = AXIS2_PLACEMENT_3D('',#949,#950,#951);
#949 = CARTESIAN_POINT('',(-27.495,-17.755,5.));
#950 = DIRECTION('',(0.,0.,1.));
#951 = DIRECTION('',(-1.,1.7763568394E-15,0.));
#952 = ORIENTED_EDGE('',*,*,#953,.F.);
#953 = EDGE_CURVE('',#349,#945,#954,.T.);
#954 = LINE('',#955,#956);
#955 = CARTESIAN_POINT('',(-27.495,-19.755,2.));
#956 = VECTOR('',#957,1.);
#957 = DIRECTION('',(0.,0.,1.));
#958 = ORIENTED_EDGE('',*,*,#356,.F.);
#959 = CYLINDRICAL_SURFACE('',#960,2.);
#960 = AXIS2_PLACEMENT_3D('',#961,#962,#963);
#961 = CARTESIAN_POINT('',(-27.495,-17.755,2.));
#962 = DIRECTION('',(-0.,-0.,-1.));
#963 = DIRECTION('',(-1.,1.7763568394E-15,0.));
#964 = ADVANCED_FACE('',(#965),#976,.F.);
#965 = FACE_BOUND('',#966,.F.);
#966 = EDGE_LOOP('',(#967,#968,#974,#975));
#967 = ORIENTED_EDGE('',*,*,#953,.T.);
#968 = ORIENTED_EDGE('',*,*,#969,.T.);
#969 = EDGE_CURVE('',#945,#790,#970,.T.);
#970 = LINE('',#971,#972);
#971 = CARTESIAN_POINT('',(-27.495,-19.755,5.));
#972 = VECTOR('',#973,1.);
#973 = DIRECTION('',(1.,0.,0.));
#974 = ORIENTED_EDGE('',*,*,#789,.F.);
#975 = ORIENTED_EDGE('',*,*,#348,.F.);
#976 = PLANE('',#977);
#977 = AXIS2_PLACEMENT_3D('',#978,#979,#980);
#978 = CARTESIAN_POINT('',(-27.495,-19.755,2.));
#979 = DIRECTION('',(0.,1.,0.));
#980 = DIRECTION('',(1.,0.,0.));
#981 = ADVANCED_FACE('',(#982,#1032),#1035,.T.);
#982 = FACE_BOUND('',#983,.T.);
#983 = EDGE_LOOP('',(#984,#994,#1002,#1010,#1018,#1026));
#984 = ORIENTED_EDGE('',*,*,#985,.T.);
#985 = EDGE_CURVE('',#986,#988,#990,.T.);
#986 = VERTEX_POINT('',#987);
#987 = CARTESIAN_POINT('',(-18.25807806183,-13.105,1.8));
#988 = VERTEX_POINT('',#989);
#989 = CARTESIAN_POINT('',(-20.33653903091,-9.505,1.8));
#990 = LINE('',#991,#992);
#991 = CARTESIAN_POINT('',(-18.25807806183,-13.105,1.8));
#992 = VECTOR('',#993,1.);
#993 = DIRECTION('',(-0.5,0.866025403784,0.));
#994 = ORIENTED_EDGE('',*,*,#995,.T.);
#995 = EDGE_CURVE('',#988,#996,#998,.T.);
#996 = VERTEX_POINT('',#997);
#997 = CARTESIAN_POINT('',(-24.49346096908,-9.505,1.8));
#998 = LINE('',#999,#1000);
#999 = CARTESIAN_POINT('',(-20.33653903091,-9.505,1.8));
#1000 = VECTOR('',#1001,1.);
#1001 = DIRECTION('',(-1.,4.273250414186E-16,0.));
#1002 = ORIENTED_EDGE('',*,*,#1003,.T.);
#1003 = EDGE_CURVE('',#996,#1004,#1006,.T.);
#1004 = VERTEX_POINT('',#1005);
#1005 = CARTESIAN_POINT('',(-26.57192193816,-13.105,1.8));
#1006 = LINE('',#1007,#1008);
#1007 = CARTESIAN_POINT('',(-24.49346096908,-9.505,1.8));
#1008 = VECTOR('',#1009,1.);
#1009 = DIRECTION('',(-0.5,-0.866025403784,0.));
#1010 = ORIENTED_EDGE('',*,*,#1011,.T.);
#1011 = EDGE_CURVE('',#1004,#1012,#1014,.T.);
#1012 = VERTEX_POINT('',#1013);
#1013 = CARTESIAN_POINT('',(-24.49346096908,-16.705,1.8));
#1014 = LINE('',#1015,#1016);
#1015 = CARTESIAN_POINT('',(-26.57192193816,-13.105,1.8));
#1016 = VECTOR('',#1017,1.);
#1017 = DIRECTION('',(0.5,-0.866025403784,0.));
#1018 = ORIENTED_EDGE('',*,*,#1019,.T.);
#1019 = EDGE_CURVE('',#1012,#1020,#1022,.T.);
#1020 = VERTEX_POINT('',#1021);
#1021 = CARTESIAN_POINT('',(-20.33653903091,-16.705,1.8));
#1022 = LINE('',#1023,#1024);
#1023 = CARTESIAN_POINT('',(-24.49346096908,-16.705,1.8));
#1024 = VECTOR('',#1025,1.);
#1025 = DIRECTION('',(1.,-8.546500828371E-16,0.));
#1026 = ORIENTED_EDGE('',*,*,#1027,.T.);
#1027 = EDGE_CURVE('',#1020,#986,#1028,.T.);
#1028 = LINE('',#1029,#1030);
#1029 = CARTESIAN_POINT('',(-20.33653903091,-16.705,1.8));
#1030 = VECTOR('',#1031,1.);
#1031 = DIRECTION('',(0.5,0.866025403784,0.));
#1032 = FACE_BOUND('',#1033,.T.);
#1033 = EDGE_LOOP('',(#1034));
#1034 = ORIENTED_EDGE('',*,*,#493,.F.);
#1035 = PLANE('',#1036);
#1036 = AXIS2_PLACEMENT_3D('',#1037,#1038,#1039);
#1037 = CARTESIAN_POINT('',(-22.415,-13.105,1.8));
#1038 = DIRECTION('',(0.,0.,1.));
#1039 = DIRECTION('',(1.,0.,-0.));
#1040 = ADVANCED_FACE('',(#1041,#1091),#1094,.T.);
#1041 = FACE_BOUND('',#1042,.T.);
#1042 = EDGE_LOOP('',(#1043,#1053,#1061,#1069,#1077,#1085));
#1043 = ORIENTED_EDGE('',*,*,#1044,.T.);
#1044 = EDGE_CURVE('',#1045,#1047,#1049,.T.);
#1045 = VERTEX_POINT('',#1046);
#1046 = CARTESIAN_POINT('',(26.571921938165,-13.105,1.8));
#1047 = VERTEX_POINT('',#1048);
#1048 = CARTESIAN_POINT('',(24.493460969083,-9.505,1.8));
#1049 = LINE('',#1050,#1051);
#1050 = CARTESIAN_POINT('',(26.571921938165,-13.105,1.8));
#1051 = VECTOR('',#1052,1.);
#1052 = DIRECTION('',(-0.5,0.866025403784,0.));
#1053 = ORIENTED_EDGE('',*,*,#1054,.T.);
#1054 = EDGE_CURVE('',#1047,#1055,#1057,.T.);
#1055 = VERTEX_POINT('',#1056);
#1056 = CARTESIAN_POINT('',(20.336539030917,-9.505,1.8));
#1057 = LINE('',#1058,#1059);
#1058 = CARTESIAN_POINT('',(24.493460969083,-9.505,1.8));
#1059 = VECTOR('',#1060,1.);
#1060 = DIRECTION('',(-1.,4.273250414186E-16,0.));
#1061 = ORIENTED_EDGE('',*,*,#1062,.T.);
#1062 = EDGE_CURVE('',#1055,#1063,#1065,.T.);
#1063 = VERTEX_POINT('',#1064);
#1064 = CARTESIAN_POINT('',(18.258078061835,-13.105,1.8));
#1065 = LINE('',#1066,#1067);
#1066 = CARTESIAN_POINT('',(20.336539030917,-9.505,1.8));
#1067 = VECTOR('',#1068,1.);
#1068 = DIRECTION('',(-0.5,-0.866025403784,0.));
#1069 = ORIENTED_EDGE('',*,*,#1070,.T.);
#1070 = EDGE_CURVE('',#1063,#1071,#1073,.T.);
#1071 = VERTEX_POINT('',#1072);
#1072 = CARTESIAN_POINT('',(20.336539030917,-16.705,1.8));
#1073 = LINE('',#1074,#1075);
#1074 = CARTESIAN_POINT('',(18.258078061835,-13.105,1.8));
#1075 = VECTOR('',#1076,1.);
#1076 = DIRECTION('',(0.5,-0.866025403784,0.));
#1077 = ORIENTED_EDGE('',*,*,#1078,.T.);
#1078 = EDGE_CURVE('',#1071,#1079,#1081,.T.);
#1079 = VERTEX_POINT('',#1080);
#1080 = CARTESIAN_POINT('',(24.493460969083,-16.705,1.8));
#1081 = LINE('',#1082,#1083);
#1082 = CARTESIAN_POINT('',(20.336539030917,-16.705,1.8));
#1083 = VECTOR('',#1084,1.);
#1084 = DIRECTION('',(1.,-8.546500828371E-16,0.));
#1085 = ORIENTED_EDGE('',*,*,#1086,.T.);
#1086 = EDGE_CURVE('',#1079,#1045,#1087,.T.);
#1087 = LINE('',#1088,#1089);
#1088 = CARTESIAN_POINT('',(24.493460969083,-16.705,1.8));
#1089 = VECTOR('',#1090,1.);
#1090 = DIRECTION('',(0.5,0.866025403784,0.));
#1091 = FACE_BOUND('',#1092,.T.);
#1092 = EDGE_LOOP('',(#1093));
#1093 = ORIENTED_EDGE('',*,*,#518,.F.);
#1094 = PLANE('',#1095);
#1095 = AXIS2_PLACEMENT_3D('',#1096,#1097,#1098);
#1096 = CARTESIAN_POINT('',(22.415,-13.105,1.8));
#1097 = DIRECTION('',(0.,0.,1.));
#1098 = DIRECTION('',(1.,0.,-0.));
#1099 = ADVANCED_FACE('',(#1100,#1150),#1153,.T.);
#1100 = FACE_BOUND('',#1101,.T.);
#1101 = EDGE_LOOP('',(#1102,#1112,#1120,#1128,#1136,#1144));
#1102 = ORIENTED_EDGE('',*,*,#1103,.T.);
#1103 = EDGE_CURVE('',#1104,#1106,#1108,.T.);
#1104 = VERTEX_POINT('',#1105);
#1105 = CARTESIAN_POINT('',(-18.25807806183,13.105,1.8));
#1106 = VERTEX_POINT('',#1107);
#1107 = CARTESIAN_POINT('',(-20.33653903091,16.705,1.8));
#1108 = LINE('',#1109,#1110);
#1109 = CARTESIAN_POINT('',(-18.25807806183,13.105,1.8));
#1110 = VECTOR('',#1111,1.);
#1111 = DIRECTION('',(-0.5,0.866025403784,0.));
#1112 = ORIENTED_EDGE('',*,*,#1113,.T.);
#1113 = EDGE_CURVE('',#1106,#1114,#1116,.T.);
#1114 = VERTEX_POINT('',#1115);
#1115 = CARTESIAN_POINT('',(-24.49346096908,16.705,1.8));
#1116 = LINE('',#1117,#1118);
#1117 = CARTESIAN_POINT('',(-20.33653903091,16.705,1.8));
#1118 = VECTOR('',#1119,1.);
#1119 = DIRECTION('',(-1.,0.,0.));
#1120 = ORIENTED_EDGE('',*,*,#1121,.T.);
#1121 = EDGE_CURVE('',#1114,#1122,#1124,.T.);
#1122 = VERTEX_POINT('',#1123);
#1123 = CARTESIAN_POINT('',(-26.57192193816,13.105,1.8));
#1124 = LINE('',#1125,#1126);
#1125 = CARTESIAN_POINT('',(-24.49346096908,16.705,1.8));
#1126 = VECTOR('',#1127,1.);
#1127 = DIRECTION('',(-0.5,-0.866025403784,0.));
#1128 = ORIENTED_EDGE('',*,*,#1129,.T.);
#1129 = EDGE_CURVE('',#1122,#1130,#1132,.T.);
#1130 = VERTEX_POINT('',#1131);
#1131 = CARTESIAN_POINT('',(-24.49346096908,9.505,1.8));
#1132 = LINE('',#1133,#1134);
#1133 = CARTESIAN_POINT('',(-26.57192193816,13.105,1.8));
#1134 = VECTOR('',#1135,1.);
#1135 = DIRECTION('',(0.5,-0.866025403784,0.));
#1136 = ORIENTED_EDGE('',*,*,#1137,.T.);
#1137 = EDGE_CURVE('',#1130,#1138,#1140,.T.);
#1138 = VERTEX_POINT('',#1139);
#1139 = CARTESIAN_POINT('',(-20.33653903091,9.505,1.8));
#1140 = LINE('',#1141,#1142);
#1141 = CARTESIAN_POINT('',(-24.49346096908,9.505,1.8));
#1142 = VECTOR('',#1143,1.);
#1143 = DIRECTION('',(1.,0.,0.));
#1144 = ORIENTED_EDGE('',*,*,#1145,.T.);
#1145 = EDGE_CURVE('',#1138,#1104,#1146,.T.);
#1146 = LINE('',#1147,#1148);
#1147 = CARTESIAN_POINT('',(-20.33653903091,9.505,1.8));
#1148 = VECTOR('',#1149,1.);
#1149 = DIRECTION('',(0.5,0.866025403784,0.));
#1150 = FACE_BOUND('',#1151,.T.);
#1151 = EDGE_LOOP('',(#1152));
#1152 = ORIENTED_EDGE('',*,*,#543,.F.);
#1153 = PLANE('',#1154);
#1154 = AXIS2_PLACEMENT_3D('',#1155,#1156,#1157);
#1155 = CARTESIAN_POINT('',(-22.415,13.105,1.8));
#1156 = DIRECTION('',(0.,0.,1.));
#1157 = DIRECTION('',(1.,0.,-0.));
#1158 = ADVANCED_FACE('',(#1159,#1169,#1219,#1269,#1279,#1329),#1379,.T.
  );
#1159 = FACE_BOUND('',#1160,.T.);
#1160 = EDGE_LOOP('',(#1161,#1162,#1163,#1164,#1165,#1166,#1167,#1168));
#1161 = ORIENTED_EDGE('',*,*,#797,.T.);
#1162 = ORIENTED_EDGE('',*,*,#822,.T.);
#1163 = ORIENTED_EDGE('',*,*,#846,.T.);
#1164 = ORIENTED_EDGE('',*,*,#871,.T.);
#1165 = ORIENTED_EDGE('',*,*,#895,.T.);
#1166 = ORIENTED_EDGE('',*,*,#920,.T.);
#1167 = ORIENTED_EDGE('',*,*,#944,.T.);
#1168 = ORIENTED_EDGE('',*,*,#969,.T.);
#1169 = FACE_BOUND('',#1170,.T.);
#1170 = EDGE_LOOP('',(#1171,#1181,#1189,#1197,#1205,#1213));
#1171 = ORIENTED_EDGE('',*,*,#1172,.T.);
#1172 = EDGE_CURVE('',#1173,#1175,#1177,.T.);
#1173 = VERTEX_POINT('',#1174);
#1174 = CARTESIAN_POINT('',(-24.49346096908,-9.505,5.));
#1175 = VERTEX_POINT('',#1176);
#1176 = CARTESIAN_POINT('',(-20.33653903091,-9.505,5.));
#1177 = LINE('',#1178,#1179);
#1178 = CARTESIAN_POINT('',(-10.16826951545,-9.505,5.));
#1179 = VECTOR('',#1180,1.);
#1180 = DIRECTION('',(1.,-4.273250414186E-16,0.));
#1181 = ORIENTED_EDGE('',*,*,#1182,.T.);
#1182 = EDGE_CURVE('',#1175,#1183,#1185,.T.);
#1183 = VERTEX_POINT('',#1184);
#1184 = CARTESIAN_POINT('',(-18.25807806183,-13.105,5.));
#1185 = LINE('',#1186,#1187);
#1186 = CARTESIAN_POINT('',(-18.81313403325,-12.14361485645,5.));
#1187 = VECTOR('',#1188,1.);
#1188 = DIRECTION('',(0.5,-0.866025403784,0.));
#1189 = ORIENTED_EDGE('',*,*,#1190,.T.);
#1190 = EDGE_CURVE('',#1183,#1191,#1193,.T.);
#1191 = VERTEX_POINT('',#1192);
#1192 = CARTESIAN_POINT('',(-20.33653903091,-16.705,5.));
#1193 = LINE('',#1194,#1195);
#1194 = CARTESIAN_POINT('',(-14.17773305949,-6.037635143543,5.));
#1195 = VECTOR('',#1196,1.);
#1196 = DIRECTION('',(-0.5,-0.866025403784,0.));
#1197 = ORIENTED_EDGE('',*,*,#1198,.T.);
#1198 = EDGE_CURVE('',#1191,#1199,#1201,.T.);
#1199 = VERTEX_POINT('',#1200);
#1200 = CARTESIAN_POINT('',(-24.49346096908,-16.705,5.));
#1201 = LINE('',#1202,#1203);
#1202 = CARTESIAN_POINT('',(-12.24673048454,-16.705,5.));
#1203 = VECTOR('',#1204,1.);
#1204 = DIRECTION('',(-1.,8.546500828371E-16,0.));
#1205 = ORIENTED_EDGE('',*,*,#1206,.T.);
#1206 = EDGE_CURVE('',#1199,#1207,#1209,.T.);
#1207 = VERTEX_POINT('',#1208);
#1208 = CARTESIAN_POINT('',(-26.57192193816,-13.105,5.));
#1209 = LINE('',#1210,#1211);
#1210 = CARTESIAN_POINT('',(-26.08774742504,-13.94361485645,5.));
#1211 = VECTOR('',#1212,1.);
#1212 = DIRECTION('',(-0.5,0.866025403784,0.));
#1213 = ORIENTED_EDGE('',*,*,#1214,.T.);
#1214 = EDGE_CURVE('',#1207,#1173,#1215,.T.);
#1215 = LINE('',#1216,#1217);
#1216 = CARTESIAN_POINT('',(-19.3738854822,-0.637635143543,5.));
#1217 = VECTOR('',#1218,1.);
#1218 = DIRECTION('',(0.5,0.866025403784,-0.));
#1219 = FACE_BOUND('',#1220,.T.);
#1220 = EDGE_LOOP('',(#1221,#1231,#1239,#1247,#1255,#1263));
#1221 = ORIENTED_EDGE('',*,*,#1222,.T.);
#1222 = EDGE_CURVE('',#1223,#1225,#1227,.T.);
#1223 = VERTEX_POINT('',#1224);
#1224 = CARTESIAN_POINT('',(20.336539030917,-9.505,5.));
#1225 = VERTEX_POINT('',#1226);
#1226 = CARTESIAN_POINT('',(24.493460969083,-9.505,5.));
#1227 = LINE('',#1228,#1229);
#1228 = CARTESIAN_POINT('',(12.246730484541,-9.505,5.));
#1229 = VECTOR('',#1230,1.);
#1230 = DIRECTION('',(1.,-4.273250414186E-16,0.));
#1231 = ORIENTED_EDGE('',*,*,#1232,.T.);
#1232 = EDGE_CURVE('',#1225,#1233,#1235,.T.);
#1233 = VERTEX_POINT('',#1234);
#1234 = CARTESIAN_POINT('',(26.571921938165,-13.105,5.));
#1235 = LINE('',#1236,#1237);
#1236 = CARTESIAN_POINT('',(20.413115966746,-2.437635143543,5.));
#1237 = VECTOR('',#1238,1.);
#1238 = DIRECTION('',(0.5,-0.866025403784,0.));
#1239 = ORIENTED_EDGE('',*,*,#1240,.T.);
#1240 = EDGE_CURVE('',#1233,#1241,#1243,.T.);
#1241 = VERTEX_POINT('',#1242);
#1242 = CARTESIAN_POINT('',(24.493460969083,-16.705,5.));
#1243 = LINE('',#1244,#1245);
#1244 = CARTESIAN_POINT('',(25.048516940502,-15.74361485645,5.));
#1245 = VECTOR('',#1246,1.);
#1246 = DIRECTION('',(-0.5,-0.866025403784,0.));
#1247 = ORIENTED_EDGE('',*,*,#1248,.T.);
#1248 = EDGE_CURVE('',#1241,#1249,#1251,.T.);
#1249 = VERTEX_POINT('',#1250);
#1250 = CARTESIAN_POINT('',(20.336539030917,-16.705,5.));
#1251 = LINE('',#1252,#1253);
#1252 = CARTESIAN_POINT('',(10.168269515459,-16.705,5.));
#1253 = VECTOR('',#1254,1.);
#1254 = DIRECTION('',(-1.,8.546500828371E-16,0.));
#1255 = ORIENTED_EDGE('',*,*,#1256,.T.);
#1256 = EDGE_CURVE('',#1249,#1257,#1259,.T.);
#1257 = VERTEX_POINT('',#1258);
#1258 = CARTESIAN_POINT('',(18.258078061835,-13.105,5.));
#1259 = LINE('',#1260,#1261);
#1260 = CARTESIAN_POINT('',(13.138502574957,-4.237635143543,5.));
#1261 = VECTOR('',#1262,1.);
#1262 = DIRECTION('',(-0.5,0.866025403784,0.));
#1263 = ORIENTED_EDGE('',*,*,#1264,.T.);
#1264 = EDGE_CURVE('',#1257,#1223,#1265,.T.);
#1265 = LINE('',#1266,#1267);
#1266 = CARTESIAN_POINT('',(19.852364517795,-10.34361485645,5.));
#1267 = VECTOR('',#1268,1.);
#1268 = DIRECTION('',(0.5,0.866025403784,-0.));
#1269 = FACE_BOUND('',#1270,.T.);
#1270 = EDGE_LOOP('',(#1271,#1272,#1273,#1274,#1275,#1276,#1277,#1278));
#1271 = ORIENTED_EDGE('',*,*,#568,.F.);
#1272 = ORIENTED_EDGE('',*,*,#610,.T.);
#1273 = ORIENTED_EDGE('',*,*,#648,.F.);
#1274 = ORIENTED_EDGE('',*,*,#700,.F.);
#1275 = ORIENTED_EDGE('',*,*,#746,.F.);
#1276 = ORIENTED_EDGE('',*,*,#732,.F.);
#1277 = ORIENTED_EDGE('',*,*,#673,.F.);
#1278 = ORIENTED_EDGE('',*,*,#626,.T.);
#1279 = FACE_BOUND('',#1280,.T.);
#1280 = EDGE_LOOP('',(#1281,#1291,#1299,#1307,#1315,#1323));
#1281 = ORIENTED_EDGE('',*,*,#1282,.T.);
#1282 = EDGE_CURVE('',#1283,#1285,#1287,.T.);
#1283 = VERTEX_POINT('',#1284);
#1284 = CARTESIAN_POINT('',(-24.49346096908,16.705,5.));
#1285 = VERTEX_POINT('',#1286);
#1286 = CARTESIAN_POINT('',(-20.33653903091,16.705,5.));
#1287 = LINE('',#1288,#1289);
#1288 = CARTESIAN_POINT('',(-10.16826951545,16.705,5.));
#1289 = VECTOR('',#1290,1.);
#1290 = DIRECTION('',(1.,0.,-0.));
#1291 = ORIENTED_EDGE('',*,*,#1292,.T.);
#1292 = EDGE_CURVE('',#1285,#1293,#1295,.T.);
#1293 = VERTEX_POINT('',#1294);
#1294 = CARTESIAN_POINT('',(-18.25807806183,13.105,5.));
#1295 = LINE('',#1296,#1297);
#1296 = CARTESIAN_POINT('',(-13.13850257495,4.237635143543,5.));
#1297 = VECTOR('',#1298,1.);
#1298 = DIRECTION('',(0.5,-0.866025403784,0.));
#1299 = ORIENTED_EDGE('',*,*,#1300,.T.);
#1300 = EDGE_CURVE('',#1293,#1301,#1303,.T.);
#1301 = VERTEX_POINT('',#1302);
#1302 = CARTESIAN_POINT('',(-20.33653903091,9.505,5.));
#1303 = LINE('',#1304,#1305);
#1304 = CARTESIAN_POINT('',(-19.85236451779,10.343614856457,5.));
#1305 = VECTOR('',#1306,1.);
#1306 = DIRECTION('',(-0.5,-0.866025403784,0.));
#1307 = ORIENTED_EDGE('',*,*,#1308,.T.);
#1308 = EDGE_CURVE('',#1301,#1309,#1311,.T.);
#1309 = VERTEX_POINT('',#1310);
#1310 = CARTESIAN_POINT('',(-24.49346096908,9.505,5.));
#1311 = LINE('',#1312,#1313);
#1312 = CARTESIAN_POINT('',(-12.24673048454,9.505,5.));
#1313 = VECTOR('',#1314,1.);
#1314 = DIRECTION('',(-1.,0.,0.));
#1315 = ORIENTED_EDGE('',*,*,#1316,.T.);
#1316 = EDGE_CURVE('',#1309,#1317,#1319,.T.);
#1317 = VERTEX_POINT('',#1318);
#1318 = CARTESIAN_POINT('',(-26.57192193816,13.105,5.));
#1319 = LINE('',#1320,#1321);
#1320 = CARTESIAN_POINT('',(-20.41311596674,2.437635143543,5.));
#1321 = VECTOR('',#1322,1.);
#1322 = DIRECTION('',(-0.5,0.866025403784,0.));
#1323 = ORIENTED_EDGE('',*,*,#1324,.T.);
#1324 = EDGE_CURVE('',#1317,#1283,#1325,.T.);
#1325 = LINE('',#1326,#1327);
#1326 = CARTESIAN_POINT('',(-25.0485169405,15.743614856457,5.));
#1327 = VECTOR('',#1328,1.);
#1328 = DIRECTION('',(0.5,0.866025403784,-0.));
#1329 = FACE_BOUND('',#1330,.T.);
#1330 = EDGE_LOOP('',(#1331,#1341,#1349,#1357,#1365,#1373));
#1331 = ORIENTED_EDGE('',*,*,#1332,.T.);
#1332 = EDGE_CURVE('',#1333,#1335,#1337,.T.);
#1333 = VERTEX_POINT('',#1334);
#1334 = CARTESIAN_POINT('',(20.336539030917,16.705,5.));
#1335 = VERTEX_POINT('',#1336);
#1336 = CARTESIAN_POINT('',(24.493460969083,16.705,5.));
#1337 = LINE('',#1338,#1339);
#1338 = CARTESIAN_POINT('',(12.246730484541,16.705,5.));
#1339 = VECTOR('',#1340,1.);
#1340 = DIRECTION('',(1.,0.,-0.));
#1341 = ORIENTED_EDGE('',*,*,#1342,.T.);
#1342 = EDGE_CURVE('',#1335,#1343,#1345,.T.);
#1343 = VERTEX_POINT('',#1344);
#1344 = CARTESIAN_POINT('',(26.571921938165,13.105,5.));
#1345 = LINE('',#1346,#1347);
#1346 = CARTESIAN_POINT('',(26.087747425043,13.943614856457,5.));
#1347 = VECTOR('',#1348,1.);
#1348 = DIRECTION('',(0.5,-0.866025403784,0.));
#1349 = ORIENTED_EDGE('',*,*,#1350,.T.);
#1350 = EDGE_CURVE('',#1343,#1351,#1353,.T.);
#1351 = VERTEX_POINT('',#1352);
#1352 = CARTESIAN_POINT('',(24.493460969083,9.505,5.));
#1353 = LINE('',#1354,#1355);
#1354 = CARTESIAN_POINT('',(19.373885482205,0.637635143543,5.));
#1355 = VECTOR('',#1356,1.);
#1356 = DIRECTION('',(-0.5,-0.866025403784,0.));
#1357 = ORIENTED_EDGE('',*,*,#1358,.T.);
#1358 = EDGE_CURVE('',#1351,#1359,#1361,.T.);
#1359 = VERTEX_POINT('',#1360);
#1360 = CARTESIAN_POINT('',(20.336539030917,9.505,5.));
#1361 = LINE('',#1362,#1363);
#1362 = CARTESIAN_POINT('',(10.168269515459,9.505,5.));
#1363 = VECTOR('',#1364,1.);
#1364 = DIRECTION('',(-1.,0.,0.));
#1365 = ORIENTED_EDGE('',*,*,#1366,.T.);
#1366 = EDGE_CURVE('',#1359,#1367,#1369,.T.);
#1367 = VERTEX_POINT('',#1368);
#1368 = CARTESIAN_POINT('',(18.258078061835,13.105,5.));
#1369 = LINE('',#1370,#1371);
#1370 = CARTESIAN_POINT('',(18.813134033254,12.143614856457,5.));
#1371 = VECTOR('',#1372,1.);
#1372 = DIRECTION('',(-0.5,0.866025403784,0.));
#1373 = ORIENTED_EDGE('',*,*,#1374,.T.);
#1374 = EDGE_CURVE('',#1367,#1333,#1375,.T.);
#1375 = LINE('',#1376,#1377);
#1376 = CARTESIAN_POINT('',(14.177733059498,6.037635143543,5.));
#1377 = VECTOR('',#1378,1.);
#1378 = DIRECTION('',(0.5,0.866025403784,-0.));
#1379 = PLANE('',#1380);
#1380 = AXIS2_PLACEMENT_3D('',#1381,#1382,#1383);
#1381 = CARTESIAN_POINT('',(0.,-1.175523625086E-15,5.));
#1382 = DIRECTION('',(0.,0.,1.));
#1383 = DIRECTION('',(1.,0.,-0.));
#1384 = ADVANCED_FACE('',(#1385,#1435),#1438,.T.);
#1385 = FACE_BOUND('',#1386,.T.);
#1386 = EDGE_LOOP('',(#1387,#1397,#1405,#1413,#1421,#1429));
#1387 = ORIENTED_EDGE('',*,*,#1388,.T.);
#1388 = EDGE_CURVE('',#1389,#1391,#1393,.T.);
#1389 = VERTEX_POINT('',#1390);
#1390 = CARTESIAN_POINT('',(26.571921938165,13.105,1.8));
#1391 = VERTEX_POINT('',#1392);
#1392 = CARTESIAN_POINT('',(24.493460969083,16.705,1.8));
#1393 = LINE('',#1394,#1395);
#1394 = CARTESIAN_POINT('',(26.571921938165,13.105,1.8));
#1395 = VECTOR('',#1396,1.);
#1396 = DIRECTION('',(-0.5,0.866025403784,0.));
#1397 = ORIENTED_EDGE('',*,*,#1398,.T.);
#1398 = EDGE_CURVE('',#1391,#1399,#1401,.T.);
#1399 = VERTEX_POINT('',#1400);
#1400 = CARTESIAN_POINT('',(20.336539030917,16.705,1.8));
#1401 = LINE('',#1402,#1403);
#1402 = CARTESIAN_POINT('',(24.493460969083,16.705,1.8));
#1403 = VECTOR('',#1404,1.);
#1404 = DIRECTION('',(-1.,0.,0.));
#1405 = ORIENTED_EDGE('',*,*,#1406,.T.);
#1406 = EDGE_CURVE('',#1399,#1407,#1409,.T.);
#1407 = VERTEX_POINT('',#1408);
#1408 = CARTESIAN_POINT('',(18.258078061835,13.105,1.8));
#1409 = LINE('',#1410,#1411);
#1410 = CARTESIAN_POINT('',(20.336539030917,16.705,1.8));
#1411 = VECTOR('',#1412,1.);
#1412 = DIRECTION('',(-0.5,-0.866025403784,0.));
#1413 = ORIENTED_EDGE('',*,*,#1414,.T.);
#1414 = EDGE_CURVE('',#1407,#1415,#1417,.T.);
#1415 = VERTEX_POINT('',#1416);
#1416 = CARTESIAN_POINT('',(20.336539030917,9.505,1.8));
#1417 = LINE('',#1418,#1419);
#1418 = CARTESIAN_POINT('',(18.258078061835,13.105,1.8));
#1419 = VECTOR('',#1420,1.);
#1420 = DIRECTION('',(0.5,-0.866025403784,0.));
#1421 = ORIENTED_EDGE('',*,*,#1422,.T.);
#1422 = EDGE_CURVE('',#1415,#1423,#1425,.T.);
#1423 = VERTEX_POINT('',#1424);
#1424 = CARTESIAN_POINT('',(24.493460969083,9.505,1.8));
#1425 = LINE('',#1426,#1427);
#1426 = CARTESIAN_POINT('',(20.336539030917,9.505,1.8));
#1427 = VECTOR('',#1428,1.);
#1428 = DIRECTION('',(1.,0.,0.));
#1429 = ORIENTED_EDGE('',*,*,#1430,.T.);
#1430 = EDGE_CURVE('',#1423,#1389,#1431,.T.);
#1431 = LINE('',#1432,#1433);
#1432 = CARTESIAN_POINT('',(24.493460969083,9.505,1.8));
#1433 = VECTOR('',#1434,1.);
#1434 = DIRECTION('',(0.5,0.866025403784,0.));
#1435 = FACE_BOUND('',#1436,.T.);
#1436 = EDGE_LOOP('',(#1437));
#1437 = ORIENTED_EDGE('',*,*,#764,.F.);
#1438 = PLANE('',#1439);
#1439 = AXIS2_PLACEMENT_3D('',#1440,#1441,#1442);
#1440 = CARTESIAN_POINT('',(22.415,13.105,1.8));
#1441 = DIRECTION('',(0.,0.,1.));
#1442 = DIRECTION('',(1.,0.,-0.));
#1443 = ADVANCED_FACE('',(#1444),#1460,.T.);
#1444 = FACE_BOUND('',#1445,.T.);
#1445 = EDGE_LOOP('',(#1446,#1447,#1453,#1454));
#1446 = ORIENTED_EDGE('',*,*,#985,.F.);
#1447 = ORIENTED_EDGE('',*,*,#1448,.T.);
#1448 = EDGE_CURVE('',#986,#1183,#1449,.T.);
#1449 = LINE('',#1450,#1451);
#1450 = CARTESIAN_POINT('',(-18.25807806183,-13.105,1.8));
#1451 = VECTOR('',#1452,1.);
#1452 = DIRECTION('',(0.,0.,1.));
#1453 = ORIENTED_EDGE('',*,*,#1182,.F.);
#1454 = ORIENTED_EDGE('',*,*,#1455,.F.);
#1455 = EDGE_CURVE('',#988,#1175,#1456,.T.);
#1456 = LINE('',#1457,#1458);
#1457 = CARTESIAN_POINT('',(-20.33653903091,-9.505,1.8));
#1458 = VECTOR('',#1459,1.);
#1459 = DIRECTION('',(0.,0.,1.));
#1460 = PLANE('',#1461);
#1461 = AXIS2_PLACEMENT_3D('',#1462,#1463,#1464);
#1462 = CARTESIAN_POINT('',(-18.25807806183,-13.105,1.8));
#1463 = DIRECTION('',(-0.866025403784,-0.5,0.));
#1464 = DIRECTION('',(-0.5,0.866025403784,0.));
#1465 = ADVANCED_FACE('',(#1466),#1477,.T.);
#1466 = FACE_BOUND('',#1467,.T.);
#1467 = EDGE_LOOP('',(#1468,#1469,#1475,#1476));
#1468 = ORIENTED_EDGE('',*,*,#1027,.F.);
#1469 = ORIENTED_EDGE('',*,*,#1470,.T.);
#1470 = EDGE_CURVE('',#1020,#1191,#1471,.T.);
#1471 = LINE('',#1472,#1473);
#1472 = CARTESIAN_POINT('',(-20.33653903091,-16.705,1.8));
#1473 = VECTOR('',#1474,1.);
#1474 = DIRECTION('',(0.,0.,1.));
#1475 = ORIENTED_EDGE('',*,*,#1190,.F.);
#1476 = ORIENTED_EDGE('',*,*,#1448,.F.);
#1477 = PLANE('',#1478);
#1478 = AXIS2_PLACEMENT_3D('',#1479,#1480,#1481);
#1479 = CARTESIAN_POINT('',(-20.33653903091,-16.705,1.8));
#1480 = DIRECTION('',(-0.866025403784,0.5,0.));
#1481 = DIRECTION('',(0.5,0.866025403784,0.));
#1482 = ADVANCED_FACE('',(#1483),#1494,.T.);
#1483 = FACE_BOUND('',#1484,.T.);
#1484 = EDGE_LOOP('',(#1485,#1486,#1487,#1488));
#1485 = ORIENTED_EDGE('',*,*,#995,.F.);
#1486 = ORIENTED_EDGE('',*,*,#1455,.T.);
#1487 = ORIENTED_EDGE('',*,*,#1172,.F.);
#1488 = ORIENTED_EDGE('',*,*,#1489,.F.);
#1489 = EDGE_CURVE('',#996,#1173,#1490,.T.);
#1490 = LINE('',#1491,#1492);
#1491 = CARTESIAN_POINT('',(-24.49346096908,-9.505,1.8));
#1492 = VECTOR('',#1493,1.);
#1493 = DIRECTION('',(0.,0.,1.));
#1494 = PLANE('',#1495);
#1495 = AXIS2_PLACEMENT_3D('',#1496,#1497,#1498);
#1496 = CARTESIAN_POINT('',(-20.33653903091,-9.505,1.8));
#1497 = DIRECTION('',(-4.273250414186E-16,-1.,0.));
#1498 = DIRECTION('',(-1.,4.273250414186E-16,0.));
#1499 = ADVANCED_FACE('',(#1500),#1511,.T.);
#1500 = FACE_BOUND('',#1501,.T.);
#1501 = EDGE_LOOP('',(#1502,#1503,#1509,#1510));
#1502 = ORIENTED_EDGE('',*,*,#1019,.F.);
#1503 = ORIENTED_EDGE('',*,*,#1504,.T.);
#1504 = EDGE_CURVE('',#1012,#1199,#1505,.T.);
#1505 = LINE('',#1506,#1507);
#1506 = CARTESIAN_POINT('',(-24.49346096908,-16.705,1.8));
#1507 = VECTOR('',#1508,1.);
#1508 = DIRECTION('',(0.,0.,1.));
#1509 = ORIENTED_EDGE('',*,*,#1198,.F.);
#1510 = ORIENTED_EDGE('',*,*,#1470,.F.);
#1511 = PLANE('',#1512);
#1512 = AXIS2_PLACEMENT_3D('',#1513,#1514,#1515);
#1513 = CARTESIAN_POINT('',(-24.49346096908,-16.705,1.8));
#1514 = DIRECTION('',(8.546500828371E-16,1.,-0.));
#1515 = DIRECTION('',(1.,-8.546500828371E-16,0.));
#1516 = ADVANCED_FACE('',(#1517),#1528,.T.);
#1517 = FACE_BOUND('',#1518,.T.);
#1518 = EDGE_LOOP('',(#1519,#1520,#1521,#1522));
#1519 = ORIENTED_EDGE('',*,*,#1003,.F.);
#1520 = ORIENTED_EDGE('',*,*,#1489,.T.);
#1521 = ORIENTED_EDGE('',*,*,#1214,.F.);
#1522 = ORIENTED_EDGE('',*,*,#1523,.F.);
#1523 = EDGE_CURVE('',#1004,#1207,#1524,.T.);
#1524 = LINE('',#1525,#1526);
#1525 = CARTESIAN_POINT('',(-26.57192193816,-13.105,1.8));
#1526 = VECTOR('',#1527,1.);
#1527 = DIRECTION('',(0.,0.,1.));
#1528 = PLANE('',#1529);
#1529 = AXIS2_PLACEMENT_3D('',#1530,#1531,#1532);
#1530 = CARTESIAN_POINT('',(-24.49346096908,-9.505,1.8));
#1531 = DIRECTION('',(0.866025403784,-0.5,0.));
#1532 = DIRECTION('',(-0.5,-0.866025403784,0.));
#1533 = ADVANCED_FACE('',(#1534),#1540,.T.);
#1534 = FACE_BOUND('',#1535,.T.);
#1535 = EDGE_LOOP('',(#1536,#1537,#1538,#1539));
#1536 = ORIENTED_EDGE('',*,*,#1011,.F.);
#1537 = ORIENTED_EDGE('',*,*,#1523,.T.);
#1538 = ORIENTED_EDGE('',*,*,#1206,.F.);
#1539 = ORIENTED_EDGE('',*,*,#1504,.F.);
#1540 = PLANE('',#1541);
#1541 = AXIS2_PLACEMENT_3D('',#1542,#1543,#1544);
#1542 = CARTESIAN_POINT('',(-26.57192193816,-13.105,1.8));
#1543 = DIRECTION('',(0.866025403784,0.5,-0.));
#1544 = DIRECTION('',(0.5,-0.866025403784,0.));
#1545 = ADVANCED_FACE('',(#1546),#1562,.T.);
#1546 = FACE_BOUND('',#1547,.T.);
#1547 = EDGE_LOOP('',(#1548,#1549,#1555,#1556));
#1548 = ORIENTED_EDGE('',*,*,#1044,.F.);
#1549 = ORIENTED_EDGE('',*,*,#1550,.T.);
#1550 = EDGE_CURVE('',#1045,#1233,#1551,.T.);
#1551 = LINE('',#1552,#1553);
#1552 = CARTESIAN_POINT('',(26.571921938165,-13.105,1.8));
#1553 = VECTOR('',#1554,1.);
#1554 = DIRECTION('',(0.,0.,1.));
#1555 = ORIENTED_EDGE('',*,*,#1232,.F.);
#1556 = ORIENTED_EDGE('',*,*,#1557,.F.);
#1557 = EDGE_CURVE('',#1047,#1225,#1558,.T.);
#1558 = LINE('',#1559,#1560);
#1559 = CARTESIAN_POINT('',(24.493460969083,-9.505,1.8));
#1560 = VECTOR('',#1561,1.);
#1561 = DIRECTION('',(0.,0.,1.));
#1562 = PLANE('',#1563);
#1563 = AXIS2_PLACEMENT_3D('',#1564,#1565,#1566);
#1564 = CARTESIAN_POINT('',(26.571921938165,-13.105,1.8));
#1565 = DIRECTION('',(-0.866025403784,-0.5,0.));
#1566 = DIRECTION('',(-0.5,0.866025403784,0.));
#1567 = ADVANCED_FACE('',(#1568),#1579,.T.);
#1568 = FACE_BOUND('',#1569,.T.);
#1569 = EDGE_LOOP('',(#1570,#1571,#1577,#1578));
#1570 = ORIENTED_EDGE('',*,*,#1086,.F.);
#1571 = ORIENTED_EDGE('',*,*,#1572,.T.);
#1572 = EDGE_CURVE('',#1079,#1241,#1573,.T.);
#1573 = LINE('',#1574,#1575);
#1574 = CARTESIAN_POINT('',(24.493460969083,-16.705,1.8));
#1575 = VECTOR('',#1576,1.);
#1576 = DIRECTION('',(0.,0.,1.));
#1577 = ORIENTED_EDGE('',*,*,#1240,.F.);
#1578 = ORIENTED_EDGE('',*,*,#1550,.F.);
#1579 = PLANE('',#1580);
#1580 = AXIS2_PLACEMENT_3D('',#1581,#1582,#1583);
#1581 = CARTESIAN_POINT('',(24.493460969083,-16.705,1.8));
#1582 = DIRECTION('',(-0.866025403784,0.5,0.));
#1583 = DIRECTION('',(0.5,0.866025403784,0.));
#1584 = ADVANCED_FACE('',(#1585),#1596,.T.);
#1585 = FACE_BOUND('',#1586,.T.);
#1586 = EDGE_LOOP('',(#1587,#1588,#1589,#1590));
#1587 = ORIENTED_EDGE('',*,*,#1054,.F.);
#1588 = ORIENTED_EDGE('',*,*,#1557,.T.);
#1589 = ORIENTED_EDGE('',*,*,#1222,.F.);
#1590 = ORIENTED_EDGE('',*,*,#1591,.F.);
#1591 = EDGE_CURVE('',#1055,#1223,#1592,.T.);
#1592 = LINE('',#1593,#1594);
#1593 = CARTESIAN_POINT('',(20.336539030917,-9.505,1.8));
#1594 = VECTOR('',#1595,1.);
#1595 = DIRECTION('',(0.,0.,1.));
#1596 = PLANE('',#1597);
#1597 = AXIS2_PLACEMENT_3D('',#1598,#1599,#1600);
#1598 = CARTESIAN_POINT('',(24.493460969083,-9.505,1.8));
#1599 = DIRECTION('',(-4.273250414186E-16,-1.,0.));
#1600 = DIRECTION('',(-1.,4.273250414186E-16,0.));
#1601 = ADVANCED_FACE('',(#1602),#1613,.T.);
#1602 = FACE_BOUND('',#1603,.T.);
#1603 = EDGE_LOOP('',(#1604,#1605,#1611,#1612));
#1604 = ORIENTED_EDGE('',*,*,#1078,.F.);
#1605 = ORIENTED_EDGE('',*,*,#1606,.T.);
#1606 = EDGE_CURVE('',#1071,#1249,#1607,.T.);
#1607 = LINE('',#1608,#1609);
#1608 = CARTESIAN_POINT('',(20.336539030917,-16.705,1.8));
#1609 = VECTOR('',#1610,1.);
#1610 = DIRECTION('',(0.,0.,1.));
#1611 = ORIENTED_EDGE('',*,*,#1248,.F.);
#1612 = ORIENTED_EDGE('',*,*,#1572,.F.);
#1613 = PLANE('',#1614);
#1614 = AXIS2_PLACEMENT_3D('',#1615,#1616,#1617);
#1615 = CARTESIAN_POINT('',(20.336539030917,-16.705,1.8));
#1616 = DIRECTION('',(8.546500828371E-16,1.,-0.));
#1617 = DIRECTION('',(1.,-8.546500828371E-16,0.));
#1618 = ADVANCED_FACE('',(#1619),#1630,.T.);
#1619 = FACE_BOUND('',#1620,.T.);
#1620 = EDGE_LOOP('',(#1621,#1622,#1623,#1624));
#1621 = ORIENTED_EDGE('',*,*,#1062,.F.);
#1622 = ORIENTED_EDGE('',*,*,#1591,.T.);
#1623 = ORIENTED_EDGE('',*,*,#1264,.F.);
#1624 = ORIENTED_EDGE('',*,*,#1625,.F.);
#1625 = EDGE_CURVE('',#1063,#1257,#1626,.T.);
#1626 = LINE('',#1627,#1628);
#1627 = CARTESIAN_POINT('',(18.258078061835,-13.105,1.8));
#1628 = VECTOR('',#1629,1.);
#1629 = DIRECTION('',(0.,0.,1.));
#1630 = PLANE('',#1631);
#1631 = AXIS2_PLACEMENT_3D('',#1632,#1633,#1634);
#1632 = CARTESIAN_POINT('',(20.336539030917,-9.505,1.8));
#1633 = DIRECTION('',(0.866025403784,-0.5,0.));
#1634 = DIRECTION('',(-0.5,-0.866025403784,0.));
#1635 = ADVANCED_FACE('',(#1636),#1642,.T.);
#1636 = FACE_BOUND('',#1637,.T.);
#1637 = EDGE_LOOP('',(#1638,#1639,#1640,#1641));
#1638 = ORIENTED_EDGE('',*,*,#1070,.F.);
#1639 = ORIENTED_EDGE('',*,*,#1625,.T.);
#1640 = ORIENTED_EDGE('',*,*,#1256,.F.);
#1641 = ORIENTED_EDGE('',*,*,#1606,.F.);
#1642 = PLANE('',#1643);
#1643 = AXIS2_PLACEMENT_3D('',#1644,#1645,#1646);
#1644 = CARTESIAN_POINT('',(18.258078061835,-13.105,1.8));
#1645 = DIRECTION('',(0.866025403784,0.5,-0.));
#1646 = DIRECTION('',(0.5,-0.866025403784,0.));
#1647 = ADVANCED_FACE('',(#1648),#1664,.T.);
#1648 = FACE_BOUND('',#1649,.T.);
#1649 = EDGE_LOOP('',(#1650,#1651,#1657,#1658));
#1650 = ORIENTED_EDGE('',*,*,#1103,.F.);
#1651 = ORIENTED_EDGE('',*,*,#1652,.T.);
#1652 = EDGE_CURVE('',#1104,#1293,#1653,.T.);
#1653 = LINE('',#1654,#1655);
#1654 = CARTESIAN_POINT('',(-18.25807806183,13.105,1.8));
#1655 = VECTOR('',#1656,1.);
#1656 = DIRECTION('',(0.,0.,1.));
#1657 = ORIENTED_EDGE('',*,*,#1292,.F.);
#1658 = ORIENTED_EDGE('',*,*,#1659,.F.);
#1659 = EDGE_CURVE('',#1106,#1285,#1660,.T.);
#1660 = LINE('',#1661,#1662);
#1661 = CARTESIAN_POINT('',(-20.33653903091,16.705,1.8));
#1662 = VECTOR('',#1663,1.);
#1663 = DIRECTION('',(0.,0.,1.));
#1664 = PLANE('',#1665);
#1665 = AXIS2_PLACEMENT_3D('',#1666,#1667,#1668);
#1666 = CARTESIAN_POINT('',(-18.25807806183,13.105,1.8));
#1667 = DIRECTION('',(-0.866025403784,-0.5,0.));
#1668 = DIRECTION('',(-0.5,0.866025403784,0.));
#1669 = ADVANCED_FACE('',(#1670),#1681,.T.);
#1670 = FACE_BOUND('',#1671,.T.);
#1671 = EDGE_LOOP('',(#1672,#1673,#1679,#1680));
#1672 = ORIENTED_EDGE('',*,*,#1145,.F.);
#1673 = ORIENTED_EDGE('',*,*,#1674,.T.);
#1674 = EDGE_CURVE('',#1138,#1301,#1675,.T.);
#1675 = LINE('',#1676,#1677);
#1676 = CARTESIAN_POINT('',(-20.33653903091,9.505,1.8));
#1677 = VECTOR('',#1678,1.);
#1678 = DIRECTION('',(0.,0.,1.));
#1679 = ORIENTED_EDGE('',*,*,#1300,.F.);
#1680 = ORIENTED_EDGE('',*,*,#1652,.F.);
#1681 = PLANE('',#1682);
#1682 = AXIS2_PLACEMENT_3D('',#1683,#1684,#1685);
#1683 = CARTESIAN_POINT('',(-20.33653903091,9.505,1.8));
#1684 = DIRECTION('',(-0.866025403784,0.5,0.));
#1685 = DIRECTION('',(0.5,0.866025403784,0.));
#1686 = ADVANCED_FACE('',(#1687),#1698,.T.);
#1687 = FACE_BOUND('',#1688,.T.);
#1688 = EDGE_LOOP('',(#1689,#1690,#1691,#1692));
#1689 = ORIENTED_EDGE('',*,*,#1113,.F.);
#1690 = ORIENTED_EDGE('',*,*,#1659,.T.);
#1691 = ORIENTED_EDGE('',*,*,#1282,.F.);
#1692 = ORIENTED_EDGE('',*,*,#1693,.F.);
#1693 = EDGE_CURVE('',#1114,#1283,#1694,.T.);
#1694 = LINE('',#1695,#1696);
#1695 = CARTESIAN_POINT('',(-24.49346096908,16.705,1.8));
#1696 = VECTOR('',#1697,1.);
#1697 = DIRECTION('',(0.,0.,1.));
#1698 = PLANE('',#1699);
#1699 = AXIS2_PLACEMENT_3D('',#1700,#1701,#1702);
#1700 = CARTESIAN_POINT('',(-20.33653903091,16.705,1.8));
#1701 = DIRECTION('',(0.,-1.,0.));
#1702 = DIRECTION('',(-1.,0.,0.));
#1703 = ADVANCED_FACE('',(#1704),#1715,.T.);
#1704 = FACE_BOUND('',#1705,.T.);
#1705 = EDGE_LOOP('',(#1706,#1707,#1713,#1714));
#1706 = ORIENTED_EDGE('',*,*,#1137,.F.);
#1707 = ORIENTED_EDGE('',*,*,#1708,.T.);
#1708 = EDGE_CURVE('',#1130,#1309,#1709,.T.);
#1709 = LINE('',#1710,#1711);
#1710 = CARTESIAN_POINT('',(-24.49346096908,9.505,1.8));
#1711 = VECTOR('',#1712,1.);
#1712 = DIRECTION('',(0.,0.,1.));
#1713 = ORIENTED_EDGE('',*,*,#1308,.F.);
#1714 = ORIENTED_EDGE('',*,*,#1674,.F.);
#1715 = PLANE('',#1716);
#1716 = AXIS2_PLACEMENT_3D('',#1717,#1718,#1719);
#1717 = CARTESIAN_POINT('',(-24.49346096908,9.505,1.8));
#1718 = DIRECTION('',(0.,1.,0.));
#1719 = DIRECTION('',(1.,0.,0.));
#1720 = ADVANCED_FACE('',(#1721),#1732,.T.);
#1721 = FACE_BOUND('',#1722,.T.);
#1722 = EDGE_LOOP('',(#1723,#1724,#1725,#1726));
#1723 = ORIENTED_EDGE('',*,*,#1121,.F.);
#1724 = ORIENTED_EDGE('',*,*,#1693,.T.);
#1725 = ORIENTED_EDGE('',*,*,#1324,.F.);
#1726 = ORIENTED_EDGE('',*,*,#1727,.F.);
#1727 = EDGE_CURVE('',#1122,#1317,#1728,.T.);
#1728 = LINE('',#1729,#1730);
#1729 = CARTESIAN_POINT('',(-26.57192193816,13.105,1.8));
#1730 = VECTOR('',#1731,1.);
#1731 = DIRECTION('',(0.,0.,1.));
#1732 = PLANE('',#1733);
#1733 = AXIS2_PLACEMENT_3D('',#1734,#1735,#1736);
#1734 = CARTESIAN_POINT('',(-24.49346096908,16.705,1.8));
#1735 = DIRECTION('',(0.866025403784,-0.5,0.));
#1736 = DIRECTION('',(-0.5,-0.866025403784,0.));
#1737 = ADVANCED_FACE('',(#1738),#1744,.T.);
#1738 = FACE_BOUND('',#1739,.T.);
#1739 = EDGE_LOOP('',(#1740,#1741,#1742,#1743));
#1740 = ORIENTED_EDGE('',*,*,#1129,.F.);
#1741 = ORIENTED_EDGE('',*,*,#1727,.T.);
#1742 = ORIENTED_EDGE('',*,*,#1316,.F.);
#1743 = ORIENTED_EDGE('',*,*,#1708,.F.);
#1744 = PLANE('',#1745);
#1745 = AXIS2_PLACEMENT_3D('',#1746,#1747,#1748);
#1746 = CARTESIAN_POINT('',(-26.57192193816,13.105,1.8));
#1747 = DIRECTION('',(0.866025403784,0.5,-0.));
#1748 = DIRECTION('',(0.5,-0.866025403784,0.));
#1749 = ADVANCED_FACE('',(#1750),#1766,.T.);
#1750 = FACE_BOUND('',#1751,.T.);
#1751 = EDGE_LOOP('',(#1752,#1753,#1759,#1760));
#1752 = ORIENTED_EDGE('',*,*,#1398,.F.);
#1753 = ORIENTED_EDGE('',*,*,#1754,.T.);
#1754 = EDGE_CURVE('',#1391,#1335,#1755,.T.);
#1755 = LINE('',#1756,#1757);
#1756 = CARTESIAN_POINT('',(24.493460969083,16.705,1.8));
#1757 = VECTOR('',#1758,1.);
#1758 = DIRECTION('',(0.,0.,1.));
#1759 = ORIENTED_EDGE('',*,*,#1332,.F.);
#1760 = ORIENTED_EDGE('',*,*,#1761,.F.);
#1761 = EDGE_CURVE('',#1399,#1333,#1762,.T.);
#1762 = LINE('',#1763,#1764);
#1763 = CARTESIAN_POINT('',(20.336539030917,16.705,1.8));
#1764 = VECTOR('',#1765,1.);
#1765 = DIRECTION('',(0.,0.,1.));
#1766 = PLANE('',#1767);
#1767 = AXIS2_PLACEMENT_3D('',#1768,#1769,#1770);
#1768 = CARTESIAN_POINT('',(24.493460969083,16.705,1.8));
#1769 = DIRECTION('',(0.,-1.,0.));
#1770 = DIRECTION('',(-1.,0.,0.));
#1771 = ADVANCED_FACE('',(#1772),#1783,.T.);
#1772 = FACE_BOUND('',#1773,.T.);
#1773 = EDGE_LOOP('',(#1774,#1775,#1776,#1777));
#1774 = ORIENTED_EDGE('',*,*,#1406,.F.);
#1775 = ORIENTED_EDGE('',*,*,#1761,.T.);
#1776 = ORIENTED_EDGE('',*,*,#1374,.F.);
#1777 = ORIENTED_EDGE('',*,*,#1778,.F.);
#1778 = EDGE_CURVE('',#1407,#1367,#1779,.T.);
#1779 = LINE('',#1780,#1781);
#1780 = CARTESIAN_POINT('',(18.258078061835,13.105,1.8));
#1781 = VECTOR('',#1782,1.);
#1782 = DIRECTION('',(0.,0.,1.));
#1783 = PLANE('',#1784);
#1784 = AXIS2_PLACEMENT_3D('',#1785,#1786,#1787);
#1785 = CARTESIAN_POINT('',(20.336539030917,16.705,1.8));
#1786 = DIRECTION('',(0.866025403784,-0.5,0.));
#1787 = DIRECTION('',(-0.5,-0.866025403784,0.));
#1788 = ADVANCED_FACE('',(#1789),#1800,.T.);
#1789 = FACE_BOUND('',#1790,.T.);
#1790 = EDGE_LOOP('',(#1791,#1792,#1793,#1794));
#1791 = ORIENTED_EDGE('',*,*,#1414,.F.);
#1792 = ORIENTED_EDGE('',*,*,#1778,.T.);
#1793 = ORIENTED_EDGE('',*,*,#1366,.F.);
#1794 = ORIENTED_EDGE('',*,*,#1795,.F.);
#1795 = EDGE_CURVE('',#1415,#1359,#1796,.T.);
#1796 = LINE('',#1797,#1798);
#1797 = CARTESIAN_POINT('',(20.336539030917,9.505,1.8));
#1798 = VECTOR('',#1799,1.);
#1799 = DIRECTION('',(0.,0.,1.));
#1800 = PLANE('',#1801);
#1801 = AXIS2_PLACEMENT_3D('',#1802,#1803,#1804);
#1802 = CARTESIAN_POINT('',(18.258078061835,13.105,1.8));
#1803 = DIRECTION('',(0.866025403784,0.5,-0.));
#1804 = DIRECTION('',(0.5,-0.866025403784,0.));
#1805 = ADVANCED_FACE('',(#1806),#1817,.T.);
#1806 = FACE_BOUND('',#1807,.T.);
#1807 = EDGE_LOOP('',(#1808,#1809,#1810,#1811));
#1808 = ORIENTED_EDGE('',*,*,#1422,.F.);
#1809 = ORIENTED_EDGE('',*,*,#1795,.T.);
#1810 = ORIENTED_EDGE('',*,*,#1358,.F.);
#1811 = ORIENTED_EDGE('',*,*,#1812,.F.);
#1812 = EDGE_CURVE('',#1423,#1351,#1813,.T.);
#1813 = LINE('',#1814,#1815);
#1814 = CARTESIAN_POINT('',(24.493460969083,9.505,1.8));
#1815 = VECTOR('',#1816,1.);
#1816 = DIRECTION('',(0.,0.,1.));
#1817 = PLANE('',#1818);
#1818 = AXIS2_PLACEMENT_3D('',#1819,#1820,#1821);
#1819 = CARTESIAN_POINT('',(20.336539030917,9.505,1.8));
#1820 = DIRECTION('',(0.,1.,0.));
#1821 = DIRECTION('',(1.,0.,0.));
#1822 = ADVANCED_FACE('',(#1823),#1834,.T.);
#1823 = FACE_BOUND('',#1824,.T.);
#1824 = EDGE_LOOP('',(#1825,#1826,#1827,#1828));
#1825 = ORIENTED_EDGE('',*,*,#1430,.F.);
#1826 = ORIENTED_EDGE('',*,*,#1812,.T.);
#1827 = ORIENTED_EDGE('',*,*,#1350,.F.);
#1828 = ORIENTED_EDGE('',*,*,#1829,.F.);
#1829 = EDGE_CURVE('',#1389,#1343,#1830,.T.);
#1830 = LINE('',#1831,#1832);
#1831 = CARTESIAN_POINT('',(26.571921938165,13.105,1.8));
#1832 = VECTOR('',#1833,1.);
#1833 = DIRECTION('',(0.,0.,1.));
#1834 = PLANE('',#1835);
#1835 = AXIS2_PLACEMENT_3D('',#1836,#1837,#1838);
#1836 = CARTESIAN_POINT('',(24.493460969083,9.505,1.8));
#1837 = DIRECTION('',(-0.866025403784,0.5,0.));
#1838 = DIRECTION('',(0.5,0.866025403784,0.));
#1839 = ADVANCED_FACE('',(#1840),#1846,.T.);
#1840 = FACE_BOUND('',#1841,.T.);
#1841 = EDGE_LOOP('',(#1842,#1843,#1844,#1845));
#1842 = ORIENTED_EDGE('',*,*,#1388,.F.);
#1843 = ORIENTED_EDGE('',*,*,#1829,.T.);
#1844 = ORIENTED_EDGE('',*,*,#1342,.F.);
#1845 = ORIENTED_EDGE('',*,*,#1754,.F.);
#1846 = PLANE('',#1847);
#1847 = AXIS2_PLACEMENT_3D('',#1848,#1849,#1850);
#1848 = CARTESIAN_POINT('',(26.571921938165,13.105,1.8));
#1849 = DIRECTION('',(-0.866025403784,-0.5,0.));
#1850 = DIRECTION('',(-0.5,0.866025403784,0.));
#1851 = ( GEOMETRIC_REPRESENTATION_CONTEXT(3) 
GLOBAL_UNCERTAINTY_ASSIGNED_CONTEXT((#1855)) 
GLOBAL_UNIT_ASSIGNED_CONTEXT((#1852,#1853,#1854)) REPRESENTATION_CONTEXT
('Context #1','3D Context with UNIT and UNCERTAINTY') );
#1852 = ( LENGTH_UNIT() NAMED_UNIT(*) SI_UNIT(.MILLI.,.METRE.) );
#1853 = ( NAMED_UNIT(*) PLANE_ANGLE_UNIT() SI_UNIT($,.RADIAN.) );
#1854 = ( NAMED_UNIT(*) SI_UNIT($,.STERADIAN.) SOLID_ANGLE_UNIT() );
#1855 = UNCERTAINTY_MEASURE_WITH_UNIT(LENGTH_MEASURE(1.E-07),#1852,
  'distance_accuracy_value','confusion accuracy');
#1856 = PRODUCT_RELATED_PRODUCT_CATEGORY('part',$,(#7));
ENDSEC;
END-ISO-10303-21;
