%TF.GenerationSoftware,KiCad,Pcbnew,10.0.3*%
%TF.CreationDate,2026-08-06T21:59:00+12:00*%
%TF.ProjectId,rcm,72636d2e-6b69-4636-9164-5f7063625858,A*%
%TF.SameCoordinates,Original*%
%TF.FileFunction,Drillmap*%
%TF.FilePolarity,Positive*%
%FSLAX45Y45*%
G04 Gerber Fmt 4.5, Leading zero omitted, Abs format (unit mm)*
G04 Created by KiCad (PCBNEW 10.0.3) date 2026-08-06 21:59:00*
%MOMM*%
%LPD*%
G01*
G04 APERTURE LIST*
%ADD10C,0.100000*%
%ADD11C,0.200000*%
%ADD12C,0.120000*%
G04 APERTURE END LIST*
D10*
X0Y-300000D02*
G75*
G02*
X300000Y0I300000J0D01*
G01*
X0Y-6700000D02*
X0Y-300000D01*
X300000Y0D02*
X13700000Y0D01*
X300000Y-7000000D02*
G75*
G02*
X0Y-6700000I0J300000D01*
G01*
X13700000Y0D02*
G75*
G02*
X14000000Y-300000I0J-300000D01*
G01*
X13700000Y-7000000D02*
X300000Y-7000000D01*
X14000000Y-300000D02*
X14000000Y-6700000D01*
X14000000Y-6700000D02*
G75*
G02*
X13700000Y-7000000I-300000J0D01*
G01*
D11*
D10*
X433940Y-2762260D02*
X463940Y-2792260D01*
X463940Y-2762260D02*
X433940Y-2792260D01*
X687270Y-3434580D02*
X717270Y-3464580D01*
X717270Y-3434580D02*
X687270Y-3464580D01*
X812500Y-1643550D02*
X842500Y-1673550D01*
X842500Y-1643550D02*
X812500Y-1673550D01*
X981700Y-2520100D02*
X1011700Y-2550100D01*
X1011700Y-2520100D02*
X981700Y-2550100D01*
X1205340Y-2435350D02*
X1235340Y-2465350D01*
X1235340Y-2435350D02*
X1205340Y-2465350D01*
X1238380Y-3734090D02*
X1268380Y-3764090D01*
X1268380Y-3734090D02*
X1238380Y-3764090D01*
X1291490Y-3887500D02*
X1321490Y-3917500D01*
X1321490Y-3887500D02*
X1291490Y-3917500D01*
X1291490Y-5652780D02*
X1321490Y-5682780D01*
X1321490Y-5652780D02*
X1291490Y-5682780D01*
X1325370Y-3757500D02*
X1355370Y-3787500D01*
X1355370Y-3757500D02*
X1325370Y-3787500D01*
X1352930Y-2764370D02*
X1382930Y-2794370D01*
X1382930Y-2764370D02*
X1352930Y-2794370D01*
X1407920Y-3667020D02*
X1437920Y-3697020D01*
X1437920Y-3667020D02*
X1407920Y-3697020D01*
X1442210Y-5143780D02*
X1472210Y-5173780D01*
X1472210Y-5143780D02*
X1442210Y-5173780D01*
X1519660Y-2779050D02*
X1549660Y-2809050D01*
X1549660Y-2779050D02*
X1519660Y-2809050D01*
X1577820Y-4091510D02*
X1607820Y-4121510D01*
X1607820Y-4091510D02*
X1577820Y-4121510D01*
X1578910Y-3948670D02*
X1608910Y-3978670D01*
X1608910Y-3948670D02*
X1578910Y-3978670D01*
X1590000Y-3308990D02*
X1620000Y-3338990D01*
X1620000Y-3308990D02*
X1590000Y-3338990D01*
X1625470Y-4017500D02*
X1655470Y-4047500D01*
X1655470Y-4017500D02*
X1625470Y-4047500D01*
X1772410Y-3935130D02*
X1802410Y-3965130D01*
X1802410Y-3935130D02*
X1772410Y-3965130D01*
X2263560Y-3608660D02*
X2293560Y-3638660D01*
X2293560Y-3608660D02*
X2263560Y-3638660D01*
X2364390Y-4074590D02*
X2394390Y-4104590D01*
X2394390Y-4074590D02*
X2364390Y-4104590D01*
X2441900Y-5902590D02*
X2471900Y-5932590D01*
X2471900Y-5902590D02*
X2441900Y-5932590D01*
X2577360Y-4007560D02*
X2607360Y-4037560D01*
X2607360Y-4007560D02*
X2577360Y-4037560D01*
X2706630Y-3935130D02*
X2736630Y-3965130D01*
X2736630Y-3935130D02*
X2706630Y-3965130D01*
X2923090Y-4461890D02*
X2953090Y-4491890D01*
X2953090Y-4461890D02*
X2923090Y-4491890D01*
X2962580Y-4344610D02*
X2992580Y-4374610D01*
X2992580Y-4344610D02*
X2962580Y-4374610D01*
X3040200Y-5900240D02*
X3070200Y-5930240D01*
X3070200Y-5900240D02*
X3040200Y-5930240D01*
X3120920Y-3623030D02*
X3150920Y-3653030D01*
X3150920Y-3623030D02*
X3120920Y-3653030D01*
X3460450Y-4985000D02*
X3490450Y-5015000D01*
X3490450Y-4985000D02*
X3460450Y-5015000D01*
X3583860Y-4084290D02*
X3613860Y-4114290D01*
X3613860Y-4084290D02*
X3583860Y-4114290D01*
X3601500Y-4381520D02*
X3631500Y-4411520D01*
X3631500Y-4381520D02*
X3601500Y-4411520D01*
X3744380Y-5673700D02*
X3774380Y-5703700D01*
X3774380Y-5673700D02*
X3744380Y-5703700D01*
X3855500Y-3887140D02*
X3885500Y-3917140D01*
X3885500Y-3887140D02*
X3855500Y-3917140D01*
X3855500Y-4081180D02*
X3885500Y-4111180D01*
X3885500Y-4081180D02*
X3855500Y-4111180D01*
X3956250Y-5200000D02*
X3986250Y-5230000D01*
X3986250Y-5200000D02*
X3956250Y-5230000D01*
X4168810Y-4480410D02*
X4198810Y-4510410D01*
X4198810Y-4480410D02*
X4168810Y-4510410D01*
X4299790Y-993750D02*
X4329790Y-1023750D01*
X4329790Y-993750D02*
X4299790Y-1023750D01*
X4445270Y-5210000D02*
X4475270Y-5240000D01*
X4475270Y-5210000D02*
X4445270Y-5240000D01*
X4540000Y-4080000D02*
X4570000Y-4110000D01*
X4570000Y-4080000D02*
X4540000Y-4110000D01*
X4577720Y-3951650D02*
X4607720Y-3981650D01*
X4607720Y-3951650D02*
X4577720Y-3981650D01*
X4605780Y-3264370D02*
X4635780Y-3294370D01*
X4635780Y-3264370D02*
X4605780Y-3294370D01*
X4893630Y-5885000D02*
X4923630Y-5915000D01*
X4923630Y-5885000D02*
X4893630Y-5915000D01*
X5726920Y-4135350D02*
X5756920Y-4165350D01*
X5756920Y-4135350D02*
X5726920Y-4165350D01*
X5743720Y-5764660D02*
X5773720Y-5794660D01*
X5773720Y-5764660D02*
X5743720Y-5794660D01*
X5949020Y-3659730D02*
X5979020Y-3689730D01*
X5979020Y-3659730D02*
X5949020Y-3689730D01*
X5976940Y-4082500D02*
X6006940Y-4112500D01*
X6006940Y-4082500D02*
X5976940Y-4112500D01*
X5977970Y-3952500D02*
X6007970Y-3982500D01*
X6007970Y-3952500D02*
X5977970Y-3982500D01*
X5983470Y-1090520D02*
X6013470Y-1120520D01*
X6013470Y-1090520D02*
X5983470Y-1120520D01*
X5999990Y-3822500D02*
X6029990Y-3852500D01*
X6029990Y-3822500D02*
X5999990Y-3852500D01*
X6136140Y-3659730D02*
X6166140Y-3689730D01*
X6166140Y-3659730D02*
X6136140Y-3689730D01*
X6161200Y-3887500D02*
X6191200Y-3917500D01*
X6191200Y-3887500D02*
X6161200Y-3917500D01*
X6192720Y-3440000D02*
X6222720Y-3470000D01*
X6222720Y-3440000D02*
X6192720Y-3470000D01*
X6598910Y-4017500D02*
X6628910Y-4047500D01*
X6628910Y-4017500D02*
X6598910Y-4047500D01*
X6653910Y-5990190D02*
X6683910Y-6020190D01*
X6683910Y-5990190D02*
X6653910Y-6020190D01*
X6667360Y-3579660D02*
X6697360Y-3609660D01*
X6697360Y-3579660D02*
X6667360Y-3609660D01*
X6789980Y-1268480D02*
X6819980Y-1298480D01*
X6819980Y-1268480D02*
X6789980Y-1298480D01*
X6840420Y-2644940D02*
X6870420Y-2674940D01*
X6870420Y-2644940D02*
X6840420Y-2674940D01*
X6890520Y-1090520D02*
X6920520Y-1120520D01*
X6920520Y-1090520D02*
X6890520Y-1120520D01*
X6900940Y-2705110D02*
X6930940Y-2735110D01*
X6930940Y-2705110D02*
X6900940Y-2735110D01*
X6920580Y-3865760D02*
X6950580Y-3895760D01*
X6950580Y-3865760D02*
X6920580Y-3895760D01*
X6976290Y-5672230D02*
X7006290Y-5702230D01*
X7006290Y-5672230D02*
X6976290Y-5702230D01*
X7040330Y-5210000D02*
X7070330Y-5240000D01*
X7070330Y-5210000D02*
X7040330Y-5240000D01*
X7189850Y-3737500D02*
X7219850Y-3767500D01*
X7219850Y-3737500D02*
X7189850Y-3767500D01*
X7190480Y-4103730D02*
X7220480Y-4133730D01*
X7220480Y-4103730D02*
X7190480Y-4133730D01*
X7320050Y-5386090D02*
X7350050Y-5416090D01*
X7350050Y-5386090D02*
X7320050Y-5416090D01*
X7331300Y-1931990D02*
X7361300Y-1961990D01*
X7361300Y-1931990D02*
X7331300Y-1961990D01*
X7331670Y-2519980D02*
X7361670Y-2549980D01*
X7361670Y-2519980D02*
X7331670Y-2549980D01*
X7333170Y-4490860D02*
X7363170Y-4520860D01*
X7363170Y-4490860D02*
X7333170Y-4520860D01*
X7435700Y-3642020D02*
X7465700Y-3672020D01*
X7465700Y-3642020D02*
X7435700Y-3672020D01*
X7451470Y-4371370D02*
X7481470Y-4401370D01*
X7481470Y-4371370D02*
X7451470Y-4401370D01*
X7824380Y-3157130D02*
X7854380Y-3187130D01*
X7854380Y-3157130D02*
X7824380Y-3187130D01*
X7826160Y-3468210D02*
X7856160Y-3498210D01*
X7856160Y-3468210D02*
X7826160Y-3498210D01*
X7848810Y-4018000D02*
X7878810Y-4048000D01*
X7878810Y-4018000D02*
X7848810Y-4048000D01*
X7849200Y-3887280D02*
X7879200Y-3917280D01*
X7879200Y-3887280D02*
X7849200Y-3917280D01*
X7853510Y-1875350D02*
X7883510Y-1905350D01*
X7883510Y-1875350D02*
X7853510Y-1905350D01*
X7919640Y-2839690D02*
X7949640Y-2869690D01*
X7949640Y-2839690D02*
X7919640Y-2869690D01*
X7955210Y-4085970D02*
X7985210Y-4115970D01*
X7985210Y-4085970D02*
X7955210Y-4115970D01*
X7956050Y-5435000D02*
X7986050Y-5465000D01*
X7986050Y-5435000D02*
X7956050Y-5465000D01*
X7978300Y-1846420D02*
X8008300Y-1876420D01*
X8008300Y-1846420D02*
X7978300Y-1876420D01*
X7979180Y-3924220D02*
X8009180Y-3954220D01*
X8009180Y-3924220D02*
X7979180Y-3954220D01*
X8004500Y-4887210D02*
X8034500Y-4917210D01*
X8034500Y-4887210D02*
X8004500Y-4917210D01*
X8045550Y-2072870D02*
X8075550Y-2102870D01*
X8075550Y-2072870D02*
X8045550Y-2102870D01*
X8045910Y-2310000D02*
X8075910Y-2340000D01*
X8075910Y-2310000D02*
X8045910Y-2340000D01*
X8055330Y-3072460D02*
X8085330Y-3102460D01*
X8085330Y-3072460D02*
X8055330Y-3102460D01*
X8081250Y-1560220D02*
X8111250Y-1590220D01*
X8111250Y-1560220D02*
X8081250Y-1590220D01*
X8086770Y-1443750D02*
X8116770Y-1473750D01*
X8116770Y-1443750D02*
X8086770Y-1473750D01*
X8091050Y-2546630D02*
X8121050Y-2576630D01*
X8121050Y-2546630D02*
X8091050Y-2576630D01*
X8170280Y-2768930D02*
X8200280Y-2798930D01*
X8200280Y-2768930D02*
X8170280Y-2798930D01*
X8188550Y-1664440D02*
X8218550Y-1694440D01*
X8218550Y-1664440D02*
X8188550Y-1694440D01*
X8429830Y-1565070D02*
X8459830Y-1595070D01*
X8459830Y-1565070D02*
X8429830Y-1595070D01*
X8452450Y-2824710D02*
X8482450Y-2854710D01*
X8482450Y-2824710D02*
X8452450Y-2854710D01*
X8459340Y-5386250D02*
X8489340Y-5416250D01*
X8489340Y-5386250D02*
X8459340Y-5416250D01*
X8534130Y-2807080D02*
X8564130Y-2837080D01*
X8564130Y-2807080D02*
X8534130Y-2837080D01*
X8549060Y-1651000D02*
X8579060Y-1681000D01*
X8579060Y-1651000D02*
X8549060Y-1681000D01*
X8560000Y-3080830D02*
X8590000Y-3110830D01*
X8590000Y-3080830D02*
X8560000Y-3110830D01*
X8587340Y-3863720D02*
X8617340Y-3893720D01*
X8617340Y-3863720D02*
X8587340Y-3893720D01*
X8589230Y-3212730D02*
X8619230Y-3242730D01*
X8619230Y-3212730D02*
X8589230Y-3242730D01*
X8618650Y-2760280D02*
X8648650Y-2790280D01*
X8648650Y-2760280D02*
X8618650Y-2790280D01*
X8688560Y-3762500D02*
X8718560Y-3792500D01*
X8718560Y-3762500D02*
X8688560Y-3792500D01*
X8750640Y-3702330D02*
X8780640Y-3732330D01*
X8780640Y-3702330D02*
X8750640Y-3732330D01*
X8764460Y-2824050D02*
X8794460Y-2854050D01*
X8794460Y-2824050D02*
X8764460Y-2854050D01*
X8826630Y-2110000D02*
X8856630Y-2140000D01*
X8856630Y-2110000D02*
X8826630Y-2140000D01*
X9302670Y-2360000D02*
X9332670Y-2390000D01*
X9332670Y-2360000D02*
X9302670Y-2390000D01*
X9325420Y-2630790D02*
X9355420Y-2660790D01*
X9355420Y-2630790D02*
X9325420Y-2660790D01*
X9371210Y-2235110D02*
X9401210Y-2265110D01*
X9401210Y-2235110D02*
X9371210Y-2265110D01*
X9553210Y-4139980D02*
X9583210Y-4169980D01*
X9583210Y-4139980D02*
X9553210Y-4169980D01*
X9642820Y-1922530D02*
X9672820Y-1952530D01*
X9672820Y-1922530D02*
X9642820Y-1952530D01*
X9737320Y-1375500D02*
X9767320Y-1405500D01*
X9767320Y-1375500D02*
X9737320Y-1405500D01*
X9816050Y-4017500D02*
X9846050Y-4047500D01*
X9846050Y-4017500D02*
X9816050Y-4047500D01*
X9854840Y-3822500D02*
X9884840Y-3852500D01*
X9884840Y-3822500D02*
X9854840Y-3852500D01*
X9873400Y-1678400D02*
X9903400Y-1708400D01*
X9903400Y-1678400D02*
X9873400Y-1708400D01*
X9918620Y-4000050D02*
X9948620Y-4030050D01*
X9948620Y-4000050D02*
X9918620Y-4030050D01*
X10010220Y-5662170D02*
X10040220Y-5692170D01*
X10040220Y-5662170D02*
X10010220Y-5692170D01*
X10024090Y-2303800D02*
X10054090Y-2333800D01*
X10054090Y-2303800D02*
X10024090Y-2333800D01*
X10070390Y-5385270D02*
X10100390Y-5415270D01*
X10100390Y-5385270D02*
X10070390Y-5415270D01*
X10072530Y-4220350D02*
X10102530Y-4250350D01*
X10102530Y-4220350D02*
X10072530Y-4250350D01*
X10125060Y-3915310D02*
X10155060Y-3945310D01*
X10155060Y-3915310D02*
X10125060Y-3945310D01*
X10125340Y-4082500D02*
X10155340Y-4112500D01*
X10155340Y-4082500D02*
X10125340Y-4112500D01*
X10169650Y-2274570D02*
X10199650Y-2304570D01*
X10199650Y-2274570D02*
X10169650Y-2304570D01*
X10218150Y-913850D02*
X10248150Y-943850D01*
X10248150Y-913850D02*
X10218150Y-943850D01*
X10286060Y-1248500D02*
X10316060Y-1278500D01*
X10316060Y-1248500D02*
X10286060Y-1278500D01*
X10376580Y-3922600D02*
X10406580Y-3952600D01*
X10406580Y-3922600D02*
X10376580Y-3952600D01*
X10434300Y-4065660D02*
X10464300Y-4095660D01*
X10464300Y-4065660D02*
X10434300Y-4095660D01*
X10443260Y-1185150D02*
X10473260Y-1215150D01*
X10473260Y-1185150D02*
X10443260Y-1215150D01*
X10496080Y-2926370D02*
X10526080Y-2956370D01*
X10526080Y-2926370D02*
X10496080Y-2956370D01*
X10513220Y-5444230D02*
X10543220Y-5474230D01*
X10543220Y-5444230D02*
X10513220Y-5474230D01*
X10521030Y-2396440D02*
X10551030Y-2426440D01*
X10551030Y-2396440D02*
X10521030Y-2426440D01*
X10599140Y-5093750D02*
X10629140Y-5123750D01*
X10629140Y-5093750D02*
X10599140Y-5123750D01*
X10672150Y-4027850D02*
X10702150Y-4057850D01*
X10702150Y-4027850D02*
X10672150Y-4057850D01*
X10672610Y-2448620D02*
X10702610Y-2478620D01*
X10702610Y-2448620D02*
X10672610Y-2478620D01*
X10737400Y-3005290D02*
X10767400Y-3035290D01*
X10767400Y-3005290D02*
X10737400Y-3035290D01*
X10800770Y-3965720D02*
X10830770Y-3995720D01*
X10830770Y-3965720D02*
X10800770Y-3995720D01*
X10805090Y-3586030D02*
X10835090Y-3616030D01*
X10835090Y-3586030D02*
X10805090Y-3616030D01*
X10823720Y-4051930D02*
X10853720Y-4081930D01*
X10853720Y-4051930D02*
X10823720Y-4081930D01*
X10835540Y-2696830D02*
X10865540Y-2726830D01*
X10865540Y-2696830D02*
X10835540Y-2726830D01*
X10981780Y-3524040D02*
X11011780Y-3554040D01*
X11011780Y-3524040D02*
X10981780Y-3554040D01*
X11034850Y-1380430D02*
X11064850Y-1410430D01*
X11064850Y-1380430D02*
X11034850Y-1410430D01*
X11065000Y-4104700D02*
X11095000Y-4134700D01*
X11095000Y-4104700D02*
X11065000Y-4134700D01*
X11080630Y-5174370D02*
X11110630Y-5204370D01*
X11110630Y-5174370D02*
X11080630Y-5204370D01*
X11087590Y-1774850D02*
X11117590Y-1804850D01*
X11117590Y-1774850D02*
X11087590Y-1804850D01*
X11184890Y-3603710D02*
X11214890Y-3633710D01*
X11214890Y-3603710D02*
X11184890Y-3633710D01*
X11273160Y-3891650D02*
X11303160Y-3921650D01*
X11303160Y-3891650D02*
X11273160Y-3921650D01*
X11425820Y-5230900D02*
X11455820Y-5260900D01*
X11455820Y-5230900D02*
X11425820Y-5260900D01*
X11514460Y-3572200D02*
X11544460Y-3602200D01*
X11544460Y-3572200D02*
X11514460Y-3602200D01*
X11635380Y-3624900D02*
X11665380Y-3654900D01*
X11665380Y-3624900D02*
X11635380Y-3654900D01*
X11826080Y-3500180D02*
X11856080Y-3530180D01*
X11856080Y-3500180D02*
X11826080Y-3530180D01*
X11884180Y-3565220D02*
X11914180Y-3595220D01*
X11914180Y-3565220D02*
X11884180Y-3595220D01*
X11939500Y-4193230D02*
X11969500Y-4223230D01*
X11969500Y-4193230D02*
X11939500Y-4223230D01*
X11946650Y-2751550D02*
X11976650Y-2781550D01*
X11976650Y-2751550D02*
X11946650Y-2781550D01*
X12344040Y-3874210D02*
X12374040Y-3904210D01*
X12374040Y-3874210D02*
X12344040Y-3904210D01*
X12421960Y-4032500D02*
X12451960Y-4062500D01*
X12451960Y-4032500D02*
X12421960Y-4062500D01*
X12491110Y-2165070D02*
X12521110Y-2195070D01*
X12521110Y-2165070D02*
X12491110Y-2195070D01*
X12531080Y-3896230D02*
X12561080Y-3926230D01*
X12561080Y-3896230D02*
X12531080Y-3926230D01*
X12996720Y-1752590D02*
X13026720Y-1782590D01*
X13026720Y-1752590D02*
X12996720Y-1782590D01*
X13023200Y-3798200D02*
X13053200Y-3828200D01*
X13053200Y-3798200D02*
X13023200Y-3828200D01*
X13065800Y-2224840D02*
X13095800Y-2254840D01*
X13095800Y-2224840D02*
X13065800Y-2254840D01*
X13306370Y-2110000D02*
X13336370Y-2140000D01*
X13336370Y-2110000D02*
X13306370Y-2140000D01*
X13299500Y-1568000D02*
G75*
G02*
X13239500Y-1568000I-30000J0D01*
G01*
X13239500Y-1568000D02*
G75*
G02*
X13299500Y-1568000I30000J0D01*
G01*
X13214500Y-1598000D02*
X13324500Y-1598000D01*
X13324500Y-1538000D02*
G75*
G02*
X13324500Y-1598000I0J-30000D01*
G01*
X13324500Y-1538000D02*
X13214500Y-1538000D01*
X13214500Y-1538000D02*
G75*
G03*
X13214500Y-1598000I0J-30000D01*
G01*
X13299500Y-2432000D02*
G75*
G02*
X13239500Y-2432000I-30000J0D01*
G01*
X13239500Y-2432000D02*
G75*
G02*
X13299500Y-2432000I30000J0D01*
G01*
X13214500Y-2462000D02*
X13324500Y-2462000D01*
X13324500Y-2402000D02*
G75*
G02*
X13324500Y-2462000I0J-30000D01*
G01*
X13324500Y-2402000D02*
X13214500Y-2402000D01*
X13214500Y-2402000D02*
G75*
G03*
X13214500Y-2462000I0J-30000D01*
G01*
X13717500Y-1568000D02*
G75*
G02*
X13657500Y-1568000I-30000J0D01*
G01*
X13657500Y-1568000D02*
G75*
G02*
X13717500Y-1568000I30000J0D01*
G01*
X13657500Y-1598000D02*
X13717500Y-1598000D01*
X13717500Y-1538000D02*
G75*
G02*
X13717500Y-1598000I0J-30000D01*
G01*
X13717500Y-1538000D02*
X13657500Y-1538000D01*
X13657500Y-1538000D02*
G75*
G03*
X13657500Y-1598000I0J-30000D01*
G01*
X13717500Y-2432000D02*
G75*
G02*
X13657500Y-2432000I-30000J0D01*
G01*
X13657500Y-2432000D02*
G75*
G02*
X13717500Y-2432000I30000J0D01*
G01*
X13657500Y-2462000D02*
X13717500Y-2462000D01*
X13717500Y-2402000D02*
G75*
G02*
X13717500Y-2462000I0J-30000D01*
G01*
X13717500Y-2402000D02*
X13657500Y-2402000D01*
X13657500Y-2402000D02*
G75*
G03*
X13657500Y-2462000I0J-30000D01*
G01*
X2960000Y-1510000D02*
X2960000Y-1610000D01*
X2910000Y-1560000D02*
X3010000Y-1560000D01*
X2960000Y-1860000D02*
X2960000Y-1960000D01*
X2910000Y-1910000D02*
X3010000Y-1910000D01*
X2960000Y-2210000D02*
X2960000Y-2310000D01*
X2910000Y-2260000D02*
X3010000Y-2260000D01*
X2960000Y-2560000D02*
X2960000Y-2660000D01*
X2910000Y-2610000D02*
X3010000Y-2610000D01*
X5650000Y-2950000D02*
X5650000Y-3050000D01*
X5600000Y-3000000D02*
X5700000Y-3000000D01*
X5740000Y-1320000D02*
X5740000Y-1420000D01*
X5690000Y-1370000D02*
X5790000Y-1370000D01*
X5740000Y-1574000D02*
X5740000Y-1674000D01*
X5690000Y-1624000D02*
X5790000Y-1624000D01*
X5740000Y-1828000D02*
X5740000Y-1928000D01*
X5690000Y-1878000D02*
X5790000Y-1878000D01*
X5740000Y-2082000D02*
X5740000Y-2182000D01*
X5690000Y-2132000D02*
X5790000Y-2132000D01*
X5740000Y-2336000D02*
X5740000Y-2436000D01*
X5690000Y-2386000D02*
X5790000Y-2386000D01*
X5740000Y-2590000D02*
X5740000Y-2690000D01*
X5690000Y-2640000D02*
X5790000Y-2640000D01*
X5904000Y-2950000D02*
X5904000Y-3050000D01*
X5854000Y-3000000D02*
X5954000Y-3000000D01*
X6158000Y-2950000D02*
X6158000Y-3050000D01*
X6108000Y-3000000D02*
X6208000Y-3000000D01*
X6400000Y-3350000D02*
X6400000Y-3450000D01*
X6350000Y-3400000D02*
X6450000Y-3400000D01*
X6654000Y-3350000D02*
X6654000Y-3450000D01*
X6604000Y-3400000D02*
X6704000Y-3400000D01*
X6908000Y-3350000D02*
X6908000Y-3450000D01*
X6858000Y-3400000D02*
X6958000Y-3400000D01*
X7162000Y-3350000D02*
X7162000Y-3450000D01*
X7112000Y-3400000D02*
X7212000Y-3400000D01*
X7416000Y-3350000D02*
X7416000Y-3450000D01*
X7366000Y-3400000D02*
X7466000Y-3400000D01*
D12*
X1672427Y-6542427D02*
X1672427Y-6457573D01*
X1587573Y-6457573D01*
X1587573Y-6542427D01*
X1672427Y-6542427D01*
X2022427Y-6542427D02*
X2022427Y-6457573D01*
X1937573Y-6457573D01*
X1937573Y-6542427D01*
X2022427Y-6542427D01*
X2372427Y-6542427D02*
X2372427Y-6457573D01*
X2287573Y-6457573D01*
X2287573Y-6542427D01*
X2372427Y-6542427D01*
X2722427Y-6542427D02*
X2722427Y-6457573D01*
X2637573Y-6457573D01*
X2637573Y-6542427D01*
X2722427Y-6542427D01*
X3072427Y-6542427D02*
X3072427Y-6457573D01*
X2987573Y-6457573D01*
X2987573Y-6542427D01*
X3072427Y-6542427D01*
X3342427Y-542427D02*
X3342427Y-457573D01*
X3257573Y-457573D01*
X3257573Y-542427D01*
X3342427Y-542427D01*
X3422427Y-6542427D02*
X3422427Y-6457573D01*
X3337573Y-6457573D01*
X3337573Y-6542427D01*
X3422427Y-6542427D01*
X3692427Y-542427D02*
X3692427Y-457573D01*
X3607573Y-457573D01*
X3607573Y-542427D01*
X3692427Y-542427D01*
X3772427Y-6542427D02*
X3772427Y-6457573D01*
X3687573Y-6457573D01*
X3687573Y-6542427D01*
X3772427Y-6542427D01*
X4842427Y-542427D02*
X4842427Y-457573D01*
X4757573Y-457573D01*
X4757573Y-542427D01*
X4842427Y-542427D01*
X5192427Y-542427D02*
X5192427Y-457573D01*
X5107573Y-457573D01*
X5107573Y-542427D01*
X5192427Y-542427D01*
X6072427Y-6542427D02*
X6072427Y-6457573D01*
X5987573Y-6457573D01*
X5987573Y-6542427D01*
X6072427Y-6542427D01*
X6342427Y-542427D02*
X6342427Y-457573D01*
X6257573Y-457573D01*
X6257573Y-542427D01*
X6342427Y-542427D01*
X6422427Y-6542427D02*
X6422427Y-6457573D01*
X6337573Y-6457573D01*
X6337573Y-6542427D01*
X6422427Y-6542427D01*
X6692427Y-542427D02*
X6692427Y-457573D01*
X6607573Y-457573D01*
X6607573Y-542427D01*
X6692427Y-542427D01*
X6772427Y-6542427D02*
X6772427Y-6457573D01*
X6687573Y-6457573D01*
X6687573Y-6542427D01*
X6772427Y-6542427D01*
X7042427Y-542427D02*
X7042427Y-457573D01*
X6957573Y-457573D01*
X6957573Y-542427D01*
X7042427Y-542427D01*
X7122427Y-6542427D02*
X7122427Y-6457573D01*
X7037573Y-6457573D01*
X7037573Y-6542427D01*
X7122427Y-6542427D01*
X7472427Y-6542427D02*
X7472427Y-6457573D01*
X7387573Y-6457573D01*
X7387573Y-6542427D01*
X7472427Y-6542427D01*
X7822427Y-6542427D02*
X7822427Y-6457573D01*
X7737573Y-6457573D01*
X7737573Y-6542427D01*
X7822427Y-6542427D01*
X8172427Y-6542427D02*
X8172427Y-6457573D01*
X8087573Y-6457573D01*
X8087573Y-6542427D01*
X8172427Y-6542427D01*
X8192427Y-542427D02*
X8192427Y-457573D01*
X8107573Y-457573D01*
X8107573Y-542427D01*
X8192427Y-542427D01*
X8542427Y-542427D02*
X8542427Y-457573D01*
X8457573Y-457573D01*
X8457573Y-542427D01*
X8542427Y-542427D01*
X8892427Y-542427D02*
X8892427Y-457573D01*
X8807573Y-457573D01*
X8807573Y-542427D01*
X8892427Y-542427D01*
X10042427Y-542427D02*
X10042427Y-457573D01*
X9957573Y-457573D01*
X9957573Y-542427D01*
X10042427Y-542427D01*
X10392427Y-542427D02*
X10392427Y-457573D01*
X10307573Y-457573D01*
X10307573Y-542427D01*
X10392427Y-542427D01*
X10472427Y-6542427D02*
X10472427Y-6457573D01*
X10387573Y-6457573D01*
X10387573Y-6542427D01*
X10472427Y-6542427D01*
X10742427Y-542427D02*
X10742427Y-457573D01*
X10657573Y-457573D01*
X10657573Y-542427D01*
X10742427Y-542427D01*
X10822427Y-6542427D02*
X10822427Y-6457573D01*
X10737573Y-6457573D01*
X10737573Y-6542427D01*
X10822427Y-6542427D01*
X11172427Y-6542427D02*
X11172427Y-6457573D01*
X11087573Y-6457573D01*
X11087573Y-6542427D01*
X11172427Y-6542427D01*
X11522427Y-6542427D02*
X11522427Y-6457573D01*
X11437573Y-6457573D01*
X11437573Y-6542427D01*
X11522427Y-6542427D01*
X11872427Y-6542427D02*
X11872427Y-6457573D01*
X11787573Y-6457573D01*
X11787573Y-6542427D01*
X11872427Y-6542427D01*
X12222427Y-6542427D02*
X12222427Y-6457573D01*
X12137573Y-6457573D01*
X12137573Y-6542427D01*
X12222427Y-6542427D01*
X12572427Y-6542427D02*
X12572427Y-6457573D01*
X12487573Y-6457573D01*
X12487573Y-6542427D01*
X12572427Y-6542427D01*
D11*
X255777Y-7316484D02*
X255777Y-7116484D01*
X255777Y-7116484D02*
X303396Y-7116484D01*
X303396Y-7116484D02*
X331967Y-7126008D01*
X331967Y-7126008D02*
X351015Y-7145055D01*
X351015Y-7145055D02*
X360539Y-7164103D01*
X360539Y-7164103D02*
X370062Y-7202198D01*
X370062Y-7202198D02*
X370062Y-7230769D01*
X370062Y-7230769D02*
X360539Y-7268865D01*
X360539Y-7268865D02*
X351015Y-7287912D01*
X351015Y-7287912D02*
X331967Y-7306960D01*
X331967Y-7306960D02*
X303396Y-7316484D01*
X303396Y-7316484D02*
X255777Y-7316484D01*
X455777Y-7316484D02*
X455777Y-7183150D01*
X455777Y-7221246D02*
X465301Y-7202198D01*
X465301Y-7202198D02*
X474824Y-7192674D01*
X474824Y-7192674D02*
X493872Y-7183150D01*
X493872Y-7183150D02*
X512920Y-7183150D01*
X579586Y-7316484D02*
X579586Y-7183150D01*
X579586Y-7116484D02*
X570063Y-7126008D01*
X570063Y-7126008D02*
X579586Y-7135531D01*
X579586Y-7135531D02*
X589110Y-7126008D01*
X589110Y-7126008D02*
X579586Y-7116484D01*
X579586Y-7116484D02*
X579586Y-7135531D01*
X703396Y-7316484D02*
X684348Y-7306960D01*
X684348Y-7306960D02*
X674824Y-7287912D01*
X674824Y-7287912D02*
X674824Y-7116484D01*
X808158Y-7316484D02*
X789110Y-7306960D01*
X789110Y-7306960D02*
X779586Y-7287912D01*
X779586Y-7287912D02*
X779586Y-7116484D01*
X1036729Y-7316484D02*
X1036729Y-7116484D01*
X1036729Y-7116484D02*
X1103396Y-7259341D01*
X1103396Y-7259341D02*
X1170063Y-7116484D01*
X1170063Y-7116484D02*
X1170063Y-7316484D01*
X1351015Y-7316484D02*
X1351015Y-7211722D01*
X1351015Y-7211722D02*
X1341491Y-7192674D01*
X1341491Y-7192674D02*
X1322444Y-7183150D01*
X1322444Y-7183150D02*
X1284348Y-7183150D01*
X1284348Y-7183150D02*
X1265301Y-7192674D01*
X1351015Y-7306960D02*
X1331967Y-7316484D01*
X1331967Y-7316484D02*
X1284348Y-7316484D01*
X1284348Y-7316484D02*
X1265301Y-7306960D01*
X1265301Y-7306960D02*
X1255777Y-7287912D01*
X1255777Y-7287912D02*
X1255777Y-7268865D01*
X1255777Y-7268865D02*
X1265301Y-7249817D01*
X1265301Y-7249817D02*
X1284348Y-7240293D01*
X1284348Y-7240293D02*
X1331967Y-7240293D01*
X1331967Y-7240293D02*
X1351015Y-7230769D01*
X1446253Y-7183150D02*
X1446253Y-7383150D01*
X1446253Y-7192674D02*
X1465301Y-7183150D01*
X1465301Y-7183150D02*
X1503396Y-7183150D01*
X1503396Y-7183150D02*
X1522443Y-7192674D01*
X1522443Y-7192674D02*
X1531967Y-7202198D01*
X1531967Y-7202198D02*
X1541491Y-7221246D01*
X1541491Y-7221246D02*
X1541491Y-7278388D01*
X1541491Y-7278388D02*
X1531967Y-7297436D01*
X1531967Y-7297436D02*
X1522443Y-7306960D01*
X1522443Y-7306960D02*
X1503396Y-7316484D01*
X1503396Y-7316484D02*
X1465301Y-7316484D01*
X1465301Y-7316484D02*
X1446253Y-7306960D01*
X1627205Y-7297436D02*
X1636729Y-7306960D01*
X1636729Y-7306960D02*
X1627205Y-7316484D01*
X1627205Y-7316484D02*
X1617682Y-7306960D01*
X1617682Y-7306960D02*
X1627205Y-7297436D01*
X1627205Y-7297436D02*
X1627205Y-7316484D01*
X1627205Y-7192674D02*
X1636729Y-7202198D01*
X1636729Y-7202198D02*
X1627205Y-7211722D01*
X1627205Y-7211722D02*
X1617682Y-7202198D01*
X1617682Y-7202198D02*
X1627205Y-7192674D01*
X1627205Y-7192674D02*
X1627205Y-7211722D01*
D10*
X-35000Y-7630000D02*
X-5000Y-7660000D01*
X-5000Y-7630000D02*
X-35000Y-7660000D01*
D11*
X293872Y-7536484D02*
X312920Y-7536484D01*
X312920Y-7536484D02*
X331967Y-7546008D01*
X331967Y-7546008D02*
X341491Y-7555531D01*
X341491Y-7555531D02*
X351015Y-7574579D01*
X351015Y-7574579D02*
X360539Y-7612674D01*
X360539Y-7612674D02*
X360539Y-7660293D01*
X360539Y-7660293D02*
X351015Y-7698388D01*
X351015Y-7698388D02*
X341491Y-7717436D01*
X341491Y-7717436D02*
X331967Y-7726960D01*
X331967Y-7726960D02*
X312920Y-7736484D01*
X312920Y-7736484D02*
X293872Y-7736484D01*
X293872Y-7736484D02*
X274824Y-7726960D01*
X274824Y-7726960D02*
X265301Y-7717436D01*
X265301Y-7717436D02*
X255777Y-7698388D01*
X255777Y-7698388D02*
X246253Y-7660293D01*
X246253Y-7660293D02*
X246253Y-7612674D01*
X246253Y-7612674D02*
X255777Y-7574579D01*
X255777Y-7574579D02*
X265301Y-7555531D01*
X265301Y-7555531D02*
X274824Y-7546008D01*
X274824Y-7546008D02*
X293872Y-7536484D01*
X446253Y-7717436D02*
X455777Y-7726960D01*
X455777Y-7726960D02*
X446253Y-7736484D01*
X446253Y-7736484D02*
X436729Y-7726960D01*
X436729Y-7726960D02*
X446253Y-7717436D01*
X446253Y-7717436D02*
X446253Y-7736484D01*
X522443Y-7536484D02*
X646253Y-7536484D01*
X646253Y-7536484D02*
X579586Y-7612674D01*
X579586Y-7612674D02*
X608158Y-7612674D01*
X608158Y-7612674D02*
X627205Y-7622198D01*
X627205Y-7622198D02*
X636729Y-7631722D01*
X636729Y-7631722D02*
X646253Y-7650769D01*
X646253Y-7650769D02*
X646253Y-7698388D01*
X646253Y-7698388D02*
X636729Y-7717436D01*
X636729Y-7717436D02*
X627205Y-7726960D01*
X627205Y-7726960D02*
X608158Y-7736484D01*
X608158Y-7736484D02*
X551015Y-7736484D01*
X551015Y-7736484D02*
X531967Y-7726960D01*
X531967Y-7726960D02*
X522443Y-7717436D01*
X770062Y-7536484D02*
X789110Y-7536484D01*
X789110Y-7536484D02*
X808158Y-7546008D01*
X808158Y-7546008D02*
X817682Y-7555531D01*
X817682Y-7555531D02*
X827205Y-7574579D01*
X827205Y-7574579D02*
X836729Y-7612674D01*
X836729Y-7612674D02*
X836729Y-7660293D01*
X836729Y-7660293D02*
X827205Y-7698388D01*
X827205Y-7698388D02*
X817682Y-7717436D01*
X817682Y-7717436D02*
X808158Y-7726960D01*
X808158Y-7726960D02*
X789110Y-7736484D01*
X789110Y-7736484D02*
X770062Y-7736484D01*
X770062Y-7736484D02*
X751015Y-7726960D01*
X751015Y-7726960D02*
X741491Y-7717436D01*
X741491Y-7717436D02*
X731967Y-7698388D01*
X731967Y-7698388D02*
X722443Y-7660293D01*
X722443Y-7660293D02*
X722443Y-7612674D01*
X722443Y-7612674D02*
X731967Y-7574579D01*
X731967Y-7574579D02*
X741491Y-7555531D01*
X741491Y-7555531D02*
X751015Y-7546008D01*
X751015Y-7546008D02*
X770062Y-7536484D01*
X960539Y-7536484D02*
X979586Y-7536484D01*
X979586Y-7536484D02*
X998634Y-7546008D01*
X998634Y-7546008D02*
X1008158Y-7555531D01*
X1008158Y-7555531D02*
X1017682Y-7574579D01*
X1017682Y-7574579D02*
X1027205Y-7612674D01*
X1027205Y-7612674D02*
X1027205Y-7660293D01*
X1027205Y-7660293D02*
X1017682Y-7698388D01*
X1017682Y-7698388D02*
X1008158Y-7717436D01*
X1008158Y-7717436D02*
X998634Y-7726960D01*
X998634Y-7726960D02*
X979586Y-7736484D01*
X979586Y-7736484D02*
X960539Y-7736484D01*
X960539Y-7736484D02*
X941491Y-7726960D01*
X941491Y-7726960D02*
X931967Y-7717436D01*
X931967Y-7717436D02*
X922443Y-7698388D01*
X922443Y-7698388D02*
X912920Y-7660293D01*
X912920Y-7660293D02*
X912920Y-7612674D01*
X912920Y-7612674D02*
X922443Y-7574579D01*
X922443Y-7574579D02*
X931967Y-7555531D01*
X931967Y-7555531D02*
X941491Y-7546008D01*
X941491Y-7546008D02*
X960539Y-7536484D01*
X1112920Y-7736484D02*
X1112920Y-7603150D01*
X1112920Y-7622198D02*
X1122444Y-7612674D01*
X1122444Y-7612674D02*
X1141491Y-7603150D01*
X1141491Y-7603150D02*
X1170063Y-7603150D01*
X1170063Y-7603150D02*
X1189110Y-7612674D01*
X1189110Y-7612674D02*
X1198634Y-7631722D01*
X1198634Y-7631722D02*
X1198634Y-7736484D01*
X1198634Y-7631722D02*
X1208158Y-7612674D01*
X1208158Y-7612674D02*
X1227205Y-7603150D01*
X1227205Y-7603150D02*
X1255777Y-7603150D01*
X1255777Y-7603150D02*
X1274825Y-7612674D01*
X1274825Y-7612674D02*
X1284348Y-7631722D01*
X1284348Y-7631722D02*
X1284348Y-7736484D01*
X1379586Y-7736484D02*
X1379586Y-7603150D01*
X1379586Y-7622198D02*
X1389110Y-7612674D01*
X1389110Y-7612674D02*
X1408158Y-7603150D01*
X1408158Y-7603150D02*
X1436729Y-7603150D01*
X1436729Y-7603150D02*
X1455777Y-7612674D01*
X1455777Y-7612674D02*
X1465301Y-7631722D01*
X1465301Y-7631722D02*
X1465301Y-7736484D01*
X1465301Y-7631722D02*
X1474824Y-7612674D01*
X1474824Y-7612674D02*
X1493872Y-7603150D01*
X1493872Y-7603150D02*
X1522443Y-7603150D01*
X1522443Y-7603150D02*
X1541491Y-7612674D01*
X1541491Y-7612674D02*
X1551015Y-7631722D01*
X1551015Y-7631722D02*
X1551015Y-7736484D01*
X1941491Y-7526960D02*
X1770063Y-7784103D01*
X2198634Y-7536484D02*
X2217682Y-7536484D01*
X2217682Y-7536484D02*
X2236729Y-7546008D01*
X2236729Y-7546008D02*
X2246253Y-7555531D01*
X2246253Y-7555531D02*
X2255777Y-7574579D01*
X2255777Y-7574579D02*
X2265301Y-7612674D01*
X2265301Y-7612674D02*
X2265301Y-7660293D01*
X2265301Y-7660293D02*
X2255777Y-7698388D01*
X2255777Y-7698388D02*
X2246253Y-7717436D01*
X2246253Y-7717436D02*
X2236729Y-7726960D01*
X2236729Y-7726960D02*
X2217682Y-7736484D01*
X2217682Y-7736484D02*
X2198634Y-7736484D01*
X2198634Y-7736484D02*
X2179587Y-7726960D01*
X2179587Y-7726960D02*
X2170063Y-7717436D01*
X2170063Y-7717436D02*
X2160539Y-7698388D01*
X2160539Y-7698388D02*
X2151015Y-7660293D01*
X2151015Y-7660293D02*
X2151015Y-7612674D01*
X2151015Y-7612674D02*
X2160539Y-7574579D01*
X2160539Y-7574579D02*
X2170063Y-7555531D01*
X2170063Y-7555531D02*
X2179587Y-7546008D01*
X2179587Y-7546008D02*
X2198634Y-7536484D01*
X2351015Y-7717436D02*
X2360539Y-7726960D01*
X2360539Y-7726960D02*
X2351015Y-7736484D01*
X2351015Y-7736484D02*
X2341491Y-7726960D01*
X2341491Y-7726960D02*
X2351015Y-7717436D01*
X2351015Y-7717436D02*
X2351015Y-7736484D01*
X2484348Y-7536484D02*
X2503396Y-7536484D01*
X2503396Y-7536484D02*
X2522444Y-7546008D01*
X2522444Y-7546008D02*
X2531968Y-7555531D01*
X2531968Y-7555531D02*
X2541491Y-7574579D01*
X2541491Y-7574579D02*
X2551015Y-7612674D01*
X2551015Y-7612674D02*
X2551015Y-7660293D01*
X2551015Y-7660293D02*
X2541491Y-7698388D01*
X2541491Y-7698388D02*
X2531968Y-7717436D01*
X2531968Y-7717436D02*
X2522444Y-7726960D01*
X2522444Y-7726960D02*
X2503396Y-7736484D01*
X2503396Y-7736484D02*
X2484348Y-7736484D01*
X2484348Y-7736484D02*
X2465301Y-7726960D01*
X2465301Y-7726960D02*
X2455777Y-7717436D01*
X2455777Y-7717436D02*
X2446253Y-7698388D01*
X2446253Y-7698388D02*
X2436729Y-7660293D01*
X2436729Y-7660293D02*
X2436729Y-7612674D01*
X2436729Y-7612674D02*
X2446253Y-7574579D01*
X2446253Y-7574579D02*
X2455777Y-7555531D01*
X2455777Y-7555531D02*
X2465301Y-7546008D01*
X2465301Y-7546008D02*
X2484348Y-7536484D01*
X2741491Y-7736484D02*
X2627206Y-7736484D01*
X2684348Y-7736484D02*
X2684348Y-7536484D01*
X2684348Y-7536484D02*
X2665301Y-7565055D01*
X2665301Y-7565055D02*
X2646253Y-7584103D01*
X2646253Y-7584103D02*
X2627206Y-7593627D01*
X2931967Y-7736484D02*
X2817682Y-7736484D01*
X2874825Y-7736484D02*
X2874825Y-7536484D01*
X2874825Y-7536484D02*
X2855777Y-7565055D01*
X2855777Y-7565055D02*
X2836729Y-7584103D01*
X2836729Y-7584103D02*
X2817682Y-7593627D01*
X3046253Y-7622198D02*
X3027206Y-7612674D01*
X3027206Y-7612674D02*
X3017682Y-7603150D01*
X3017682Y-7603150D02*
X3008158Y-7584103D01*
X3008158Y-7584103D02*
X3008158Y-7574579D01*
X3008158Y-7574579D02*
X3017682Y-7555531D01*
X3017682Y-7555531D02*
X3027206Y-7546008D01*
X3027206Y-7546008D02*
X3046253Y-7536484D01*
X3046253Y-7536484D02*
X3084348Y-7536484D01*
X3084348Y-7536484D02*
X3103396Y-7546008D01*
X3103396Y-7546008D02*
X3112920Y-7555531D01*
X3112920Y-7555531D02*
X3122444Y-7574579D01*
X3122444Y-7574579D02*
X3122444Y-7584103D01*
X3122444Y-7584103D02*
X3112920Y-7603150D01*
X3112920Y-7603150D02*
X3103396Y-7612674D01*
X3103396Y-7612674D02*
X3084348Y-7622198D01*
X3084348Y-7622198D02*
X3046253Y-7622198D01*
X3046253Y-7622198D02*
X3027206Y-7631722D01*
X3027206Y-7631722D02*
X3017682Y-7641246D01*
X3017682Y-7641246D02*
X3008158Y-7660293D01*
X3008158Y-7660293D02*
X3008158Y-7698388D01*
X3008158Y-7698388D02*
X3017682Y-7717436D01*
X3017682Y-7717436D02*
X3027206Y-7726960D01*
X3027206Y-7726960D02*
X3046253Y-7736484D01*
X3046253Y-7736484D02*
X3084348Y-7736484D01*
X3084348Y-7736484D02*
X3103396Y-7726960D01*
X3103396Y-7726960D02*
X3112920Y-7717436D01*
X3112920Y-7717436D02*
X3122444Y-7698388D01*
X3122444Y-7698388D02*
X3122444Y-7660293D01*
X3122444Y-7660293D02*
X3112920Y-7641246D01*
X3112920Y-7641246D02*
X3103396Y-7631722D01*
X3103396Y-7631722D02*
X3084348Y-7622198D01*
X3198634Y-7536484D02*
X3198634Y-7574579D01*
X3274825Y-7536484D02*
X3274825Y-7574579D01*
X3570063Y-7812674D02*
X3560539Y-7803150D01*
X3560539Y-7803150D02*
X3541491Y-7774579D01*
X3541491Y-7774579D02*
X3531968Y-7755531D01*
X3531968Y-7755531D02*
X3522444Y-7726960D01*
X3522444Y-7726960D02*
X3512920Y-7679341D01*
X3512920Y-7679341D02*
X3512920Y-7641246D01*
X3512920Y-7641246D02*
X3522444Y-7593627D01*
X3522444Y-7593627D02*
X3531968Y-7565055D01*
X3531968Y-7565055D02*
X3541491Y-7546008D01*
X3541491Y-7546008D02*
X3560539Y-7517436D01*
X3560539Y-7517436D02*
X3570063Y-7507912D01*
X3751015Y-7736484D02*
X3636729Y-7736484D01*
X3693872Y-7736484D02*
X3693872Y-7536484D01*
X3693872Y-7536484D02*
X3674825Y-7565055D01*
X3674825Y-7565055D02*
X3655777Y-7584103D01*
X3655777Y-7584103D02*
X3636729Y-7593627D01*
X3931968Y-7536484D02*
X3836729Y-7536484D01*
X3836729Y-7536484D02*
X3827206Y-7631722D01*
X3827206Y-7631722D02*
X3836729Y-7622198D01*
X3836729Y-7622198D02*
X3855777Y-7612674D01*
X3855777Y-7612674D02*
X3903396Y-7612674D01*
X3903396Y-7612674D02*
X3922444Y-7622198D01*
X3922444Y-7622198D02*
X3931968Y-7631722D01*
X3931968Y-7631722D02*
X3941491Y-7650769D01*
X3941491Y-7650769D02*
X3941491Y-7698388D01*
X3941491Y-7698388D02*
X3931968Y-7717436D01*
X3931968Y-7717436D02*
X3922444Y-7726960D01*
X3922444Y-7726960D02*
X3903396Y-7736484D01*
X3903396Y-7736484D02*
X3855777Y-7736484D01*
X3855777Y-7736484D02*
X3836729Y-7726960D01*
X3836729Y-7726960D02*
X3827206Y-7717436D01*
X4112920Y-7536484D02*
X4074825Y-7536484D01*
X4074825Y-7536484D02*
X4055777Y-7546008D01*
X4055777Y-7546008D02*
X4046253Y-7555531D01*
X4046253Y-7555531D02*
X4027206Y-7584103D01*
X4027206Y-7584103D02*
X4017682Y-7622198D01*
X4017682Y-7622198D02*
X4017682Y-7698388D01*
X4017682Y-7698388D02*
X4027206Y-7717436D01*
X4027206Y-7717436D02*
X4036729Y-7726960D01*
X4036729Y-7726960D02*
X4055777Y-7736484D01*
X4055777Y-7736484D02*
X4093872Y-7736484D01*
X4093872Y-7736484D02*
X4112920Y-7726960D01*
X4112920Y-7726960D02*
X4122444Y-7717436D01*
X4122444Y-7717436D02*
X4131968Y-7698388D01*
X4131968Y-7698388D02*
X4131968Y-7650769D01*
X4131968Y-7650769D02*
X4122444Y-7631722D01*
X4122444Y-7631722D02*
X4112920Y-7622198D01*
X4112920Y-7622198D02*
X4093872Y-7612674D01*
X4093872Y-7612674D02*
X4055777Y-7612674D01*
X4055777Y-7612674D02*
X4036729Y-7622198D01*
X4036729Y-7622198D02*
X4027206Y-7631722D01*
X4027206Y-7631722D02*
X4017682Y-7650769D01*
X4370063Y-7736484D02*
X4370063Y-7536484D01*
X4455777Y-7736484D02*
X4455777Y-7631722D01*
X4455777Y-7631722D02*
X4446253Y-7612674D01*
X4446253Y-7612674D02*
X4427206Y-7603150D01*
X4427206Y-7603150D02*
X4398634Y-7603150D01*
X4398634Y-7603150D02*
X4379587Y-7612674D01*
X4379587Y-7612674D02*
X4370063Y-7622198D01*
X4579587Y-7736484D02*
X4560539Y-7726960D01*
X4560539Y-7726960D02*
X4551015Y-7717436D01*
X4551015Y-7717436D02*
X4541492Y-7698388D01*
X4541492Y-7698388D02*
X4541492Y-7641246D01*
X4541492Y-7641246D02*
X4551015Y-7622198D01*
X4551015Y-7622198D02*
X4560539Y-7612674D01*
X4560539Y-7612674D02*
X4579587Y-7603150D01*
X4579587Y-7603150D02*
X4608158Y-7603150D01*
X4608158Y-7603150D02*
X4627206Y-7612674D01*
X4627206Y-7612674D02*
X4636730Y-7622198D01*
X4636730Y-7622198D02*
X4646253Y-7641246D01*
X4646253Y-7641246D02*
X4646253Y-7698388D01*
X4646253Y-7698388D02*
X4636730Y-7717436D01*
X4636730Y-7717436D02*
X4627206Y-7726960D01*
X4627206Y-7726960D02*
X4608158Y-7736484D01*
X4608158Y-7736484D02*
X4579587Y-7736484D01*
X4760539Y-7736484D02*
X4741492Y-7726960D01*
X4741492Y-7726960D02*
X4731968Y-7707912D01*
X4731968Y-7707912D02*
X4731968Y-7536484D01*
X4912920Y-7726960D02*
X4893873Y-7736484D01*
X4893873Y-7736484D02*
X4855777Y-7736484D01*
X4855777Y-7736484D02*
X4836730Y-7726960D01*
X4836730Y-7726960D02*
X4827206Y-7707912D01*
X4827206Y-7707912D02*
X4827206Y-7631722D01*
X4827206Y-7631722D02*
X4836730Y-7612674D01*
X4836730Y-7612674D02*
X4855777Y-7603150D01*
X4855777Y-7603150D02*
X4893873Y-7603150D01*
X4893873Y-7603150D02*
X4912920Y-7612674D01*
X4912920Y-7612674D02*
X4922444Y-7631722D01*
X4922444Y-7631722D02*
X4922444Y-7650769D01*
X4922444Y-7650769D02*
X4827206Y-7669817D01*
X4998634Y-7726960D02*
X5017682Y-7736484D01*
X5017682Y-7736484D02*
X5055777Y-7736484D01*
X5055777Y-7736484D02*
X5074825Y-7726960D01*
X5074825Y-7726960D02*
X5084349Y-7707912D01*
X5084349Y-7707912D02*
X5084349Y-7698388D01*
X5084349Y-7698388D02*
X5074825Y-7679341D01*
X5074825Y-7679341D02*
X5055777Y-7669817D01*
X5055777Y-7669817D02*
X5027206Y-7669817D01*
X5027206Y-7669817D02*
X5008158Y-7660293D01*
X5008158Y-7660293D02*
X4998634Y-7641246D01*
X4998634Y-7641246D02*
X4998634Y-7631722D01*
X4998634Y-7631722D02*
X5008158Y-7612674D01*
X5008158Y-7612674D02*
X5027206Y-7603150D01*
X5027206Y-7603150D02*
X5055777Y-7603150D01*
X5055777Y-7603150D02*
X5074825Y-7612674D01*
X5151015Y-7812674D02*
X5160539Y-7803150D01*
X5160539Y-7803150D02*
X5179587Y-7774579D01*
X5179587Y-7774579D02*
X5189111Y-7755531D01*
X5189111Y-7755531D02*
X5198634Y-7726960D01*
X5198634Y-7726960D02*
X5208158Y-7679341D01*
X5208158Y-7679341D02*
X5208158Y-7641246D01*
X5208158Y-7641246D02*
X5198634Y-7593627D01*
X5198634Y-7593627D02*
X5189111Y-7565055D01*
X5189111Y-7565055D02*
X5179587Y-7546008D01*
X5179587Y-7546008D02*
X5160539Y-7517436D01*
X5160539Y-7517436D02*
X5151015Y-7507912D01*
D10*
X-5000Y-7909000D02*
G75*
G02*
X-65000Y-7909000I-30000J0D01*
G01*
X-65000Y-7909000D02*
G75*
G02*
X-5000Y-7909000I30000J0D01*
G01*
D11*
X293872Y-7800484D02*
X312920Y-7800484D01*
X312920Y-7800484D02*
X331967Y-7810008D01*
X331967Y-7810008D02*
X341491Y-7819531D01*
X341491Y-7819531D02*
X351015Y-7838579D01*
X351015Y-7838579D02*
X360539Y-7876674D01*
X360539Y-7876674D02*
X360539Y-7924293D01*
X360539Y-7924293D02*
X351015Y-7962388D01*
X351015Y-7962388D02*
X341491Y-7981436D01*
X341491Y-7981436D02*
X331967Y-7990960D01*
X331967Y-7990960D02*
X312920Y-8000484D01*
X312920Y-8000484D02*
X293872Y-8000484D01*
X293872Y-8000484D02*
X274824Y-7990960D01*
X274824Y-7990960D02*
X265301Y-7981436D01*
X265301Y-7981436D02*
X255777Y-7962388D01*
X255777Y-7962388D02*
X246253Y-7924293D01*
X246253Y-7924293D02*
X246253Y-7876674D01*
X246253Y-7876674D02*
X255777Y-7838579D01*
X255777Y-7838579D02*
X265301Y-7819531D01*
X265301Y-7819531D02*
X274824Y-7810008D01*
X274824Y-7810008D02*
X293872Y-7800484D01*
X446253Y-7981436D02*
X455777Y-7990960D01*
X455777Y-7990960D02*
X446253Y-8000484D01*
X446253Y-8000484D02*
X436729Y-7990960D01*
X436729Y-7990960D02*
X446253Y-7981436D01*
X446253Y-7981436D02*
X446253Y-8000484D01*
X627205Y-7800484D02*
X589110Y-7800484D01*
X589110Y-7800484D02*
X570063Y-7810008D01*
X570063Y-7810008D02*
X560539Y-7819531D01*
X560539Y-7819531D02*
X541491Y-7848103D01*
X541491Y-7848103D02*
X531967Y-7886198D01*
X531967Y-7886198D02*
X531967Y-7962388D01*
X531967Y-7962388D02*
X541491Y-7981436D01*
X541491Y-7981436D02*
X551015Y-7990960D01*
X551015Y-7990960D02*
X570063Y-8000484D01*
X570063Y-8000484D02*
X608158Y-8000484D01*
X608158Y-8000484D02*
X627205Y-7990960D01*
X627205Y-7990960D02*
X636729Y-7981436D01*
X636729Y-7981436D02*
X646253Y-7962388D01*
X646253Y-7962388D02*
X646253Y-7914769D01*
X646253Y-7914769D02*
X636729Y-7895722D01*
X636729Y-7895722D02*
X627205Y-7886198D01*
X627205Y-7886198D02*
X608158Y-7876674D01*
X608158Y-7876674D02*
X570063Y-7876674D01*
X570063Y-7876674D02*
X551015Y-7886198D01*
X551015Y-7886198D02*
X541491Y-7895722D01*
X541491Y-7895722D02*
X531967Y-7914769D01*
X770062Y-7800484D02*
X789110Y-7800484D01*
X789110Y-7800484D02*
X808158Y-7810008D01*
X808158Y-7810008D02*
X817682Y-7819531D01*
X817682Y-7819531D02*
X827205Y-7838579D01*
X827205Y-7838579D02*
X836729Y-7876674D01*
X836729Y-7876674D02*
X836729Y-7924293D01*
X836729Y-7924293D02*
X827205Y-7962388D01*
X827205Y-7962388D02*
X817682Y-7981436D01*
X817682Y-7981436D02*
X808158Y-7990960D01*
X808158Y-7990960D02*
X789110Y-8000484D01*
X789110Y-8000484D02*
X770062Y-8000484D01*
X770062Y-8000484D02*
X751015Y-7990960D01*
X751015Y-7990960D02*
X741491Y-7981436D01*
X741491Y-7981436D02*
X731967Y-7962388D01*
X731967Y-7962388D02*
X722443Y-7924293D01*
X722443Y-7924293D02*
X722443Y-7876674D01*
X722443Y-7876674D02*
X731967Y-7838579D01*
X731967Y-7838579D02*
X741491Y-7819531D01*
X741491Y-7819531D02*
X751015Y-7810008D01*
X751015Y-7810008D02*
X770062Y-7800484D01*
X960539Y-7800484D02*
X979586Y-7800484D01*
X979586Y-7800484D02*
X998634Y-7810008D01*
X998634Y-7810008D02*
X1008158Y-7819531D01*
X1008158Y-7819531D02*
X1017682Y-7838579D01*
X1017682Y-7838579D02*
X1027205Y-7876674D01*
X1027205Y-7876674D02*
X1027205Y-7924293D01*
X1027205Y-7924293D02*
X1017682Y-7962388D01*
X1017682Y-7962388D02*
X1008158Y-7981436D01*
X1008158Y-7981436D02*
X998634Y-7990960D01*
X998634Y-7990960D02*
X979586Y-8000484D01*
X979586Y-8000484D02*
X960539Y-8000484D01*
X960539Y-8000484D02*
X941491Y-7990960D01*
X941491Y-7990960D02*
X931967Y-7981436D01*
X931967Y-7981436D02*
X922443Y-7962388D01*
X922443Y-7962388D02*
X912920Y-7924293D01*
X912920Y-7924293D02*
X912920Y-7876674D01*
X912920Y-7876674D02*
X922443Y-7838579D01*
X922443Y-7838579D02*
X931967Y-7819531D01*
X931967Y-7819531D02*
X941491Y-7810008D01*
X941491Y-7810008D02*
X960539Y-7800484D01*
X1112920Y-8000484D02*
X1112920Y-7867150D01*
X1112920Y-7886198D02*
X1122444Y-7876674D01*
X1122444Y-7876674D02*
X1141491Y-7867150D01*
X1141491Y-7867150D02*
X1170063Y-7867150D01*
X1170063Y-7867150D02*
X1189110Y-7876674D01*
X1189110Y-7876674D02*
X1198634Y-7895722D01*
X1198634Y-7895722D02*
X1198634Y-8000484D01*
X1198634Y-7895722D02*
X1208158Y-7876674D01*
X1208158Y-7876674D02*
X1227205Y-7867150D01*
X1227205Y-7867150D02*
X1255777Y-7867150D01*
X1255777Y-7867150D02*
X1274825Y-7876674D01*
X1274825Y-7876674D02*
X1284348Y-7895722D01*
X1284348Y-7895722D02*
X1284348Y-8000484D01*
X1379586Y-8000484D02*
X1379586Y-7867150D01*
X1379586Y-7886198D02*
X1389110Y-7876674D01*
X1389110Y-7876674D02*
X1408158Y-7867150D01*
X1408158Y-7867150D02*
X1436729Y-7867150D01*
X1436729Y-7867150D02*
X1455777Y-7876674D01*
X1455777Y-7876674D02*
X1465301Y-7895722D01*
X1465301Y-7895722D02*
X1465301Y-8000484D01*
X1465301Y-7895722D02*
X1474824Y-7876674D01*
X1474824Y-7876674D02*
X1493872Y-7867150D01*
X1493872Y-7867150D02*
X1522443Y-7867150D01*
X1522443Y-7867150D02*
X1541491Y-7876674D01*
X1541491Y-7876674D02*
X1551015Y-7895722D01*
X1551015Y-7895722D02*
X1551015Y-8000484D01*
X1941491Y-7790960D02*
X1770063Y-8048103D01*
X2198634Y-7800484D02*
X2217682Y-7800484D01*
X2217682Y-7800484D02*
X2236729Y-7810008D01*
X2236729Y-7810008D02*
X2246253Y-7819531D01*
X2246253Y-7819531D02*
X2255777Y-7838579D01*
X2255777Y-7838579D02*
X2265301Y-7876674D01*
X2265301Y-7876674D02*
X2265301Y-7924293D01*
X2265301Y-7924293D02*
X2255777Y-7962388D01*
X2255777Y-7962388D02*
X2246253Y-7981436D01*
X2246253Y-7981436D02*
X2236729Y-7990960D01*
X2236729Y-7990960D02*
X2217682Y-8000484D01*
X2217682Y-8000484D02*
X2198634Y-8000484D01*
X2198634Y-8000484D02*
X2179587Y-7990960D01*
X2179587Y-7990960D02*
X2170063Y-7981436D01*
X2170063Y-7981436D02*
X2160539Y-7962388D01*
X2160539Y-7962388D02*
X2151015Y-7924293D01*
X2151015Y-7924293D02*
X2151015Y-7876674D01*
X2151015Y-7876674D02*
X2160539Y-7838579D01*
X2160539Y-7838579D02*
X2170063Y-7819531D01*
X2170063Y-7819531D02*
X2179587Y-7810008D01*
X2179587Y-7810008D02*
X2198634Y-7800484D01*
X2351015Y-7981436D02*
X2360539Y-7990960D01*
X2360539Y-7990960D02*
X2351015Y-8000484D01*
X2351015Y-8000484D02*
X2341491Y-7990960D01*
X2341491Y-7990960D02*
X2351015Y-7981436D01*
X2351015Y-7981436D02*
X2351015Y-8000484D01*
X2484348Y-7800484D02*
X2503396Y-7800484D01*
X2503396Y-7800484D02*
X2522444Y-7810008D01*
X2522444Y-7810008D02*
X2531968Y-7819531D01*
X2531968Y-7819531D02*
X2541491Y-7838579D01*
X2541491Y-7838579D02*
X2551015Y-7876674D01*
X2551015Y-7876674D02*
X2551015Y-7924293D01*
X2551015Y-7924293D02*
X2541491Y-7962388D01*
X2541491Y-7962388D02*
X2531968Y-7981436D01*
X2531968Y-7981436D02*
X2522444Y-7990960D01*
X2522444Y-7990960D02*
X2503396Y-8000484D01*
X2503396Y-8000484D02*
X2484348Y-8000484D01*
X2484348Y-8000484D02*
X2465301Y-7990960D01*
X2465301Y-7990960D02*
X2455777Y-7981436D01*
X2455777Y-7981436D02*
X2446253Y-7962388D01*
X2446253Y-7962388D02*
X2436729Y-7924293D01*
X2436729Y-7924293D02*
X2436729Y-7876674D01*
X2436729Y-7876674D02*
X2446253Y-7838579D01*
X2446253Y-7838579D02*
X2455777Y-7819531D01*
X2455777Y-7819531D02*
X2465301Y-7810008D01*
X2465301Y-7810008D02*
X2484348Y-7800484D01*
X2627206Y-7819531D02*
X2636729Y-7810008D01*
X2636729Y-7810008D02*
X2655777Y-7800484D01*
X2655777Y-7800484D02*
X2703396Y-7800484D01*
X2703396Y-7800484D02*
X2722444Y-7810008D01*
X2722444Y-7810008D02*
X2731968Y-7819531D01*
X2731968Y-7819531D02*
X2741491Y-7838579D01*
X2741491Y-7838579D02*
X2741491Y-7857627D01*
X2741491Y-7857627D02*
X2731968Y-7886198D01*
X2731968Y-7886198D02*
X2617682Y-8000484D01*
X2617682Y-8000484D02*
X2741491Y-8000484D01*
X2808158Y-7800484D02*
X2931967Y-7800484D01*
X2931967Y-7800484D02*
X2865301Y-7876674D01*
X2865301Y-7876674D02*
X2893872Y-7876674D01*
X2893872Y-7876674D02*
X2912920Y-7886198D01*
X2912920Y-7886198D02*
X2922444Y-7895722D01*
X2922444Y-7895722D02*
X2931967Y-7914769D01*
X2931967Y-7914769D02*
X2931967Y-7962388D01*
X2931967Y-7962388D02*
X2922444Y-7981436D01*
X2922444Y-7981436D02*
X2912920Y-7990960D01*
X2912920Y-7990960D02*
X2893872Y-8000484D01*
X2893872Y-8000484D02*
X2836729Y-8000484D01*
X2836729Y-8000484D02*
X2817682Y-7990960D01*
X2817682Y-7990960D02*
X2808158Y-7981436D01*
X3103396Y-7800484D02*
X3065301Y-7800484D01*
X3065301Y-7800484D02*
X3046253Y-7810008D01*
X3046253Y-7810008D02*
X3036729Y-7819531D01*
X3036729Y-7819531D02*
X3017682Y-7848103D01*
X3017682Y-7848103D02*
X3008158Y-7886198D01*
X3008158Y-7886198D02*
X3008158Y-7962388D01*
X3008158Y-7962388D02*
X3017682Y-7981436D01*
X3017682Y-7981436D02*
X3027206Y-7990960D01*
X3027206Y-7990960D02*
X3046253Y-8000484D01*
X3046253Y-8000484D02*
X3084348Y-8000484D01*
X3084348Y-8000484D02*
X3103396Y-7990960D01*
X3103396Y-7990960D02*
X3112920Y-7981436D01*
X3112920Y-7981436D02*
X3122444Y-7962388D01*
X3122444Y-7962388D02*
X3122444Y-7914769D01*
X3122444Y-7914769D02*
X3112920Y-7895722D01*
X3112920Y-7895722D02*
X3103396Y-7886198D01*
X3103396Y-7886198D02*
X3084348Y-7876674D01*
X3084348Y-7876674D02*
X3046253Y-7876674D01*
X3046253Y-7876674D02*
X3027206Y-7886198D01*
X3027206Y-7886198D02*
X3017682Y-7895722D01*
X3017682Y-7895722D02*
X3008158Y-7914769D01*
X3198634Y-7800484D02*
X3198634Y-7838579D01*
X3274825Y-7800484D02*
X3274825Y-7838579D01*
X3570063Y-8076674D02*
X3560539Y-8067150D01*
X3560539Y-8067150D02*
X3541491Y-8038579D01*
X3541491Y-8038579D02*
X3531968Y-8019531D01*
X3531968Y-8019531D02*
X3522444Y-7990960D01*
X3522444Y-7990960D02*
X3512920Y-7943341D01*
X3512920Y-7943341D02*
X3512920Y-7905246D01*
X3512920Y-7905246D02*
X3522444Y-7857627D01*
X3522444Y-7857627D02*
X3531968Y-7829055D01*
X3531968Y-7829055D02*
X3541491Y-7810008D01*
X3541491Y-7810008D02*
X3560539Y-7781436D01*
X3560539Y-7781436D02*
X3570063Y-7771912D01*
X3684348Y-7800484D02*
X3703396Y-7800484D01*
X3703396Y-7800484D02*
X3722444Y-7810008D01*
X3722444Y-7810008D02*
X3731968Y-7819531D01*
X3731968Y-7819531D02*
X3741491Y-7838579D01*
X3741491Y-7838579D02*
X3751015Y-7876674D01*
X3751015Y-7876674D02*
X3751015Y-7924293D01*
X3751015Y-7924293D02*
X3741491Y-7962388D01*
X3741491Y-7962388D02*
X3731968Y-7981436D01*
X3731968Y-7981436D02*
X3722444Y-7990960D01*
X3722444Y-7990960D02*
X3703396Y-8000484D01*
X3703396Y-8000484D02*
X3684348Y-8000484D01*
X3684348Y-8000484D02*
X3665301Y-7990960D01*
X3665301Y-7990960D02*
X3655777Y-7981436D01*
X3655777Y-7981436D02*
X3646253Y-7962388D01*
X3646253Y-7962388D02*
X3636729Y-7924293D01*
X3636729Y-7924293D02*
X3636729Y-7876674D01*
X3636729Y-7876674D02*
X3646253Y-7838579D01*
X3646253Y-7838579D02*
X3655777Y-7819531D01*
X3655777Y-7819531D02*
X3665301Y-7810008D01*
X3665301Y-7810008D02*
X3684348Y-7800484D01*
X3989110Y-8000484D02*
X3989110Y-7800484D01*
X4074825Y-8000484D02*
X4074825Y-7895722D01*
X4074825Y-7895722D02*
X4065301Y-7876674D01*
X4065301Y-7876674D02*
X4046253Y-7867150D01*
X4046253Y-7867150D02*
X4017682Y-7867150D01*
X4017682Y-7867150D02*
X3998634Y-7876674D01*
X3998634Y-7876674D02*
X3989110Y-7886198D01*
X4198634Y-8000484D02*
X4179587Y-7990960D01*
X4179587Y-7990960D02*
X4170063Y-7981436D01*
X4170063Y-7981436D02*
X4160539Y-7962388D01*
X4160539Y-7962388D02*
X4160539Y-7905246D01*
X4160539Y-7905246D02*
X4170063Y-7886198D01*
X4170063Y-7886198D02*
X4179587Y-7876674D01*
X4179587Y-7876674D02*
X4198634Y-7867150D01*
X4198634Y-7867150D02*
X4227206Y-7867150D01*
X4227206Y-7867150D02*
X4246253Y-7876674D01*
X4246253Y-7876674D02*
X4255777Y-7886198D01*
X4255777Y-7886198D02*
X4265301Y-7905246D01*
X4265301Y-7905246D02*
X4265301Y-7962388D01*
X4265301Y-7962388D02*
X4255777Y-7981436D01*
X4255777Y-7981436D02*
X4246253Y-7990960D01*
X4246253Y-7990960D02*
X4227206Y-8000484D01*
X4227206Y-8000484D02*
X4198634Y-8000484D01*
X4379587Y-8000484D02*
X4360539Y-7990960D01*
X4360539Y-7990960D02*
X4351015Y-7971912D01*
X4351015Y-7971912D02*
X4351015Y-7800484D01*
X4531968Y-7990960D02*
X4512920Y-8000484D01*
X4512920Y-8000484D02*
X4474825Y-8000484D01*
X4474825Y-8000484D02*
X4455777Y-7990960D01*
X4455777Y-7990960D02*
X4446253Y-7971912D01*
X4446253Y-7971912D02*
X4446253Y-7895722D01*
X4446253Y-7895722D02*
X4455777Y-7876674D01*
X4455777Y-7876674D02*
X4474825Y-7867150D01*
X4474825Y-7867150D02*
X4512920Y-7867150D01*
X4512920Y-7867150D02*
X4531968Y-7876674D01*
X4531968Y-7876674D02*
X4541492Y-7895722D01*
X4541492Y-7895722D02*
X4541492Y-7914769D01*
X4541492Y-7914769D02*
X4446253Y-7933817D01*
X4617682Y-7990960D02*
X4636730Y-8000484D01*
X4636730Y-8000484D02*
X4674825Y-8000484D01*
X4674825Y-8000484D02*
X4693873Y-7990960D01*
X4693873Y-7990960D02*
X4703396Y-7971912D01*
X4703396Y-7971912D02*
X4703396Y-7962388D01*
X4703396Y-7962388D02*
X4693873Y-7943341D01*
X4693873Y-7943341D02*
X4674825Y-7933817D01*
X4674825Y-7933817D02*
X4646253Y-7933817D01*
X4646253Y-7933817D02*
X4627206Y-7924293D01*
X4627206Y-7924293D02*
X4617682Y-7905246D01*
X4617682Y-7905246D02*
X4617682Y-7895722D01*
X4617682Y-7895722D02*
X4627206Y-7876674D01*
X4627206Y-7876674D02*
X4646253Y-7867150D01*
X4646253Y-7867150D02*
X4674825Y-7867150D01*
X4674825Y-7867150D02*
X4693873Y-7876674D01*
X4941492Y-7924293D02*
X5093873Y-7924293D01*
X5017682Y-8000484D02*
X5017682Y-7848103D01*
X5427206Y-7867150D02*
X5427206Y-8000484D01*
X5379587Y-7790960D02*
X5331968Y-7933817D01*
X5331968Y-7933817D02*
X5455777Y-7933817D01*
X5674825Y-7990960D02*
X5693873Y-8000484D01*
X5693873Y-8000484D02*
X5731968Y-8000484D01*
X5731968Y-8000484D02*
X5751015Y-7990960D01*
X5751015Y-7990960D02*
X5760539Y-7971912D01*
X5760539Y-7971912D02*
X5760539Y-7962388D01*
X5760539Y-7962388D02*
X5751015Y-7943341D01*
X5751015Y-7943341D02*
X5731968Y-7933817D01*
X5731968Y-7933817D02*
X5703396Y-7933817D01*
X5703396Y-7933817D02*
X5684349Y-7924293D01*
X5684349Y-7924293D02*
X5674825Y-7905246D01*
X5674825Y-7905246D02*
X5674825Y-7895722D01*
X5674825Y-7895722D02*
X5684349Y-7876674D01*
X5684349Y-7876674D02*
X5703396Y-7867150D01*
X5703396Y-7867150D02*
X5731968Y-7867150D01*
X5731968Y-7867150D02*
X5751015Y-7876674D01*
X5874825Y-8000484D02*
X5855777Y-7990960D01*
X5855777Y-7990960D02*
X5846254Y-7971912D01*
X5846254Y-7971912D02*
X5846254Y-7800484D01*
X5979587Y-8000484D02*
X5960539Y-7990960D01*
X5960539Y-7990960D02*
X5951015Y-7981436D01*
X5951015Y-7981436D02*
X5941492Y-7962388D01*
X5941492Y-7962388D02*
X5941492Y-7905246D01*
X5941492Y-7905246D02*
X5951015Y-7886198D01*
X5951015Y-7886198D02*
X5960539Y-7876674D01*
X5960539Y-7876674D02*
X5979587Y-7867150D01*
X5979587Y-7867150D02*
X6008158Y-7867150D01*
X6008158Y-7867150D02*
X6027206Y-7876674D01*
X6027206Y-7876674D02*
X6036730Y-7886198D01*
X6036730Y-7886198D02*
X6046254Y-7905246D01*
X6046254Y-7905246D02*
X6046254Y-7962388D01*
X6046254Y-7962388D02*
X6036730Y-7981436D01*
X6036730Y-7981436D02*
X6027206Y-7990960D01*
X6027206Y-7990960D02*
X6008158Y-8000484D01*
X6008158Y-8000484D02*
X5979587Y-8000484D01*
X6103396Y-7867150D02*
X6179587Y-7867150D01*
X6131968Y-7800484D02*
X6131968Y-7971912D01*
X6131968Y-7971912D02*
X6141492Y-7990960D01*
X6141492Y-7990960D02*
X6160539Y-8000484D01*
X6160539Y-8000484D02*
X6179587Y-8000484D01*
X6236730Y-7990960D02*
X6255777Y-8000484D01*
X6255777Y-8000484D02*
X6293873Y-8000484D01*
X6293873Y-8000484D02*
X6312920Y-7990960D01*
X6312920Y-7990960D02*
X6322444Y-7971912D01*
X6322444Y-7971912D02*
X6322444Y-7962388D01*
X6322444Y-7962388D02*
X6312920Y-7943341D01*
X6312920Y-7943341D02*
X6293873Y-7933817D01*
X6293873Y-7933817D02*
X6265301Y-7933817D01*
X6265301Y-7933817D02*
X6246254Y-7924293D01*
X6246254Y-7924293D02*
X6236730Y-7905246D01*
X6236730Y-7905246D02*
X6236730Y-7895722D01*
X6236730Y-7895722D02*
X6246254Y-7876674D01*
X6246254Y-7876674D02*
X6265301Y-7867150D01*
X6265301Y-7867150D02*
X6293873Y-7867150D01*
X6293873Y-7867150D02*
X6312920Y-7876674D01*
X6389111Y-8076674D02*
X6398635Y-8067150D01*
X6398635Y-8067150D02*
X6417682Y-8038579D01*
X6417682Y-8038579D02*
X6427206Y-8019531D01*
X6427206Y-8019531D02*
X6436730Y-7990960D01*
X6436730Y-7990960D02*
X6446254Y-7943341D01*
X6446254Y-7943341D02*
X6446254Y-7905246D01*
X6446254Y-7905246D02*
X6436730Y-7857627D01*
X6436730Y-7857627D02*
X6427206Y-7829055D01*
X6427206Y-7829055D02*
X6417682Y-7810008D01*
X6417682Y-7810008D02*
X6398635Y-7781436D01*
X6398635Y-7781436D02*
X6389111Y-7771912D01*
D10*
X-55000Y-8123000D02*
X-55000Y-8223000D01*
X-105000Y-8173000D02*
X-5000Y-8173000D01*
D11*
X360539Y-8264484D02*
X246253Y-8264484D01*
X303396Y-8264484D02*
X303396Y-8064484D01*
X303396Y-8064484D02*
X284348Y-8093055D01*
X284348Y-8093055D02*
X265301Y-8112103D01*
X265301Y-8112103D02*
X246253Y-8121627D01*
X446253Y-8245436D02*
X455777Y-8254960D01*
X455777Y-8254960D02*
X446253Y-8264484D01*
X446253Y-8264484D02*
X436729Y-8254960D01*
X436729Y-8254960D02*
X446253Y-8245436D01*
X446253Y-8245436D02*
X446253Y-8264484D01*
X579586Y-8064484D02*
X598634Y-8064484D01*
X598634Y-8064484D02*
X617682Y-8074008D01*
X617682Y-8074008D02*
X627205Y-8083531D01*
X627205Y-8083531D02*
X636729Y-8102579D01*
X636729Y-8102579D02*
X646253Y-8140674D01*
X646253Y-8140674D02*
X646253Y-8188293D01*
X646253Y-8188293D02*
X636729Y-8226388D01*
X636729Y-8226388D02*
X627205Y-8245436D01*
X627205Y-8245436D02*
X617682Y-8254960D01*
X617682Y-8254960D02*
X598634Y-8264484D01*
X598634Y-8264484D02*
X579586Y-8264484D01*
X579586Y-8264484D02*
X560539Y-8254960D01*
X560539Y-8254960D02*
X551015Y-8245436D01*
X551015Y-8245436D02*
X541491Y-8226388D01*
X541491Y-8226388D02*
X531967Y-8188293D01*
X531967Y-8188293D02*
X531967Y-8140674D01*
X531967Y-8140674D02*
X541491Y-8102579D01*
X541491Y-8102579D02*
X551015Y-8083531D01*
X551015Y-8083531D02*
X560539Y-8074008D01*
X560539Y-8074008D02*
X579586Y-8064484D01*
X770062Y-8064484D02*
X789110Y-8064484D01*
X789110Y-8064484D02*
X808158Y-8074008D01*
X808158Y-8074008D02*
X817682Y-8083531D01*
X817682Y-8083531D02*
X827205Y-8102579D01*
X827205Y-8102579D02*
X836729Y-8140674D01*
X836729Y-8140674D02*
X836729Y-8188293D01*
X836729Y-8188293D02*
X827205Y-8226388D01*
X827205Y-8226388D02*
X817682Y-8245436D01*
X817682Y-8245436D02*
X808158Y-8254960D01*
X808158Y-8254960D02*
X789110Y-8264484D01*
X789110Y-8264484D02*
X770062Y-8264484D01*
X770062Y-8264484D02*
X751015Y-8254960D01*
X751015Y-8254960D02*
X741491Y-8245436D01*
X741491Y-8245436D02*
X731967Y-8226388D01*
X731967Y-8226388D02*
X722443Y-8188293D01*
X722443Y-8188293D02*
X722443Y-8140674D01*
X722443Y-8140674D02*
X731967Y-8102579D01*
X731967Y-8102579D02*
X741491Y-8083531D01*
X741491Y-8083531D02*
X751015Y-8074008D01*
X751015Y-8074008D02*
X770062Y-8064484D01*
X960539Y-8064484D02*
X979586Y-8064484D01*
X979586Y-8064484D02*
X998634Y-8074008D01*
X998634Y-8074008D02*
X1008158Y-8083531D01*
X1008158Y-8083531D02*
X1017682Y-8102579D01*
X1017682Y-8102579D02*
X1027205Y-8140674D01*
X1027205Y-8140674D02*
X1027205Y-8188293D01*
X1027205Y-8188293D02*
X1017682Y-8226388D01*
X1017682Y-8226388D02*
X1008158Y-8245436D01*
X1008158Y-8245436D02*
X998634Y-8254960D01*
X998634Y-8254960D02*
X979586Y-8264484D01*
X979586Y-8264484D02*
X960539Y-8264484D01*
X960539Y-8264484D02*
X941491Y-8254960D01*
X941491Y-8254960D02*
X931967Y-8245436D01*
X931967Y-8245436D02*
X922443Y-8226388D01*
X922443Y-8226388D02*
X912920Y-8188293D01*
X912920Y-8188293D02*
X912920Y-8140674D01*
X912920Y-8140674D02*
X922443Y-8102579D01*
X922443Y-8102579D02*
X931967Y-8083531D01*
X931967Y-8083531D02*
X941491Y-8074008D01*
X941491Y-8074008D02*
X960539Y-8064484D01*
X1112920Y-8264484D02*
X1112920Y-8131150D01*
X1112920Y-8150198D02*
X1122444Y-8140674D01*
X1122444Y-8140674D02*
X1141491Y-8131150D01*
X1141491Y-8131150D02*
X1170063Y-8131150D01*
X1170063Y-8131150D02*
X1189110Y-8140674D01*
X1189110Y-8140674D02*
X1198634Y-8159722D01*
X1198634Y-8159722D02*
X1198634Y-8264484D01*
X1198634Y-8159722D02*
X1208158Y-8140674D01*
X1208158Y-8140674D02*
X1227205Y-8131150D01*
X1227205Y-8131150D02*
X1255777Y-8131150D01*
X1255777Y-8131150D02*
X1274825Y-8140674D01*
X1274825Y-8140674D02*
X1284348Y-8159722D01*
X1284348Y-8159722D02*
X1284348Y-8264484D01*
X1379586Y-8264484D02*
X1379586Y-8131150D01*
X1379586Y-8150198D02*
X1389110Y-8140674D01*
X1389110Y-8140674D02*
X1408158Y-8131150D01*
X1408158Y-8131150D02*
X1436729Y-8131150D01*
X1436729Y-8131150D02*
X1455777Y-8140674D01*
X1455777Y-8140674D02*
X1465301Y-8159722D01*
X1465301Y-8159722D02*
X1465301Y-8264484D01*
X1465301Y-8159722D02*
X1474824Y-8140674D01*
X1474824Y-8140674D02*
X1493872Y-8131150D01*
X1493872Y-8131150D02*
X1522443Y-8131150D01*
X1522443Y-8131150D02*
X1541491Y-8140674D01*
X1541491Y-8140674D02*
X1551015Y-8159722D01*
X1551015Y-8159722D02*
X1551015Y-8264484D01*
X1941491Y-8054960D02*
X1770063Y-8312103D01*
X2198634Y-8064484D02*
X2217682Y-8064484D01*
X2217682Y-8064484D02*
X2236729Y-8074008D01*
X2236729Y-8074008D02*
X2246253Y-8083531D01*
X2246253Y-8083531D02*
X2255777Y-8102579D01*
X2255777Y-8102579D02*
X2265301Y-8140674D01*
X2265301Y-8140674D02*
X2265301Y-8188293D01*
X2265301Y-8188293D02*
X2255777Y-8226388D01*
X2255777Y-8226388D02*
X2246253Y-8245436D01*
X2246253Y-8245436D02*
X2236729Y-8254960D01*
X2236729Y-8254960D02*
X2217682Y-8264484D01*
X2217682Y-8264484D02*
X2198634Y-8264484D01*
X2198634Y-8264484D02*
X2179587Y-8254960D01*
X2179587Y-8254960D02*
X2170063Y-8245436D01*
X2170063Y-8245436D02*
X2160539Y-8226388D01*
X2160539Y-8226388D02*
X2151015Y-8188293D01*
X2151015Y-8188293D02*
X2151015Y-8140674D01*
X2151015Y-8140674D02*
X2160539Y-8102579D01*
X2160539Y-8102579D02*
X2170063Y-8083531D01*
X2170063Y-8083531D02*
X2179587Y-8074008D01*
X2179587Y-8074008D02*
X2198634Y-8064484D01*
X2351015Y-8245436D02*
X2360539Y-8254960D01*
X2360539Y-8254960D02*
X2351015Y-8264484D01*
X2351015Y-8264484D02*
X2341491Y-8254960D01*
X2341491Y-8254960D02*
X2351015Y-8245436D01*
X2351015Y-8245436D02*
X2351015Y-8264484D01*
X2484348Y-8064484D02*
X2503396Y-8064484D01*
X2503396Y-8064484D02*
X2522444Y-8074008D01*
X2522444Y-8074008D02*
X2531968Y-8083531D01*
X2531968Y-8083531D02*
X2541491Y-8102579D01*
X2541491Y-8102579D02*
X2551015Y-8140674D01*
X2551015Y-8140674D02*
X2551015Y-8188293D01*
X2551015Y-8188293D02*
X2541491Y-8226388D01*
X2541491Y-8226388D02*
X2531968Y-8245436D01*
X2531968Y-8245436D02*
X2522444Y-8254960D01*
X2522444Y-8254960D02*
X2503396Y-8264484D01*
X2503396Y-8264484D02*
X2484348Y-8264484D01*
X2484348Y-8264484D02*
X2465301Y-8254960D01*
X2465301Y-8254960D02*
X2455777Y-8245436D01*
X2455777Y-8245436D02*
X2446253Y-8226388D01*
X2446253Y-8226388D02*
X2436729Y-8188293D01*
X2436729Y-8188293D02*
X2436729Y-8140674D01*
X2436729Y-8140674D02*
X2446253Y-8102579D01*
X2446253Y-8102579D02*
X2455777Y-8083531D01*
X2455777Y-8083531D02*
X2465301Y-8074008D01*
X2465301Y-8074008D02*
X2484348Y-8064484D01*
X2617682Y-8064484D02*
X2741491Y-8064484D01*
X2741491Y-8064484D02*
X2674825Y-8140674D01*
X2674825Y-8140674D02*
X2703396Y-8140674D01*
X2703396Y-8140674D02*
X2722444Y-8150198D01*
X2722444Y-8150198D02*
X2731968Y-8159722D01*
X2731968Y-8159722D02*
X2741491Y-8178769D01*
X2741491Y-8178769D02*
X2741491Y-8226388D01*
X2741491Y-8226388D02*
X2731968Y-8245436D01*
X2731968Y-8245436D02*
X2722444Y-8254960D01*
X2722444Y-8254960D02*
X2703396Y-8264484D01*
X2703396Y-8264484D02*
X2646253Y-8264484D01*
X2646253Y-8264484D02*
X2627206Y-8254960D01*
X2627206Y-8254960D02*
X2617682Y-8245436D01*
X2836729Y-8264484D02*
X2874825Y-8264484D01*
X2874825Y-8264484D02*
X2893872Y-8254960D01*
X2893872Y-8254960D02*
X2903396Y-8245436D01*
X2903396Y-8245436D02*
X2922444Y-8216865D01*
X2922444Y-8216865D02*
X2931967Y-8178769D01*
X2931967Y-8178769D02*
X2931967Y-8102579D01*
X2931967Y-8102579D02*
X2922444Y-8083531D01*
X2922444Y-8083531D02*
X2912920Y-8074008D01*
X2912920Y-8074008D02*
X2893872Y-8064484D01*
X2893872Y-8064484D02*
X2855777Y-8064484D01*
X2855777Y-8064484D02*
X2836729Y-8074008D01*
X2836729Y-8074008D02*
X2827206Y-8083531D01*
X2827206Y-8083531D02*
X2817682Y-8102579D01*
X2817682Y-8102579D02*
X2817682Y-8150198D01*
X2817682Y-8150198D02*
X2827206Y-8169246D01*
X2827206Y-8169246D02*
X2836729Y-8178769D01*
X2836729Y-8178769D02*
X2855777Y-8188293D01*
X2855777Y-8188293D02*
X2893872Y-8188293D01*
X2893872Y-8188293D02*
X2912920Y-8178769D01*
X2912920Y-8178769D02*
X2922444Y-8169246D01*
X2922444Y-8169246D02*
X2931967Y-8150198D01*
X3103396Y-8131150D02*
X3103396Y-8264484D01*
X3055777Y-8054960D02*
X3008158Y-8197817D01*
X3008158Y-8197817D02*
X3131967Y-8197817D01*
X3198634Y-8064484D02*
X3198634Y-8102579D01*
X3274825Y-8064484D02*
X3274825Y-8102579D01*
X3570063Y-8340674D02*
X3560539Y-8331150D01*
X3560539Y-8331150D02*
X3541491Y-8302579D01*
X3541491Y-8302579D02*
X3531968Y-8283531D01*
X3531968Y-8283531D02*
X3522444Y-8254960D01*
X3522444Y-8254960D02*
X3512920Y-8207341D01*
X3512920Y-8207341D02*
X3512920Y-8169246D01*
X3512920Y-8169246D02*
X3522444Y-8121627D01*
X3522444Y-8121627D02*
X3531968Y-8093055D01*
X3531968Y-8093055D02*
X3541491Y-8074008D01*
X3541491Y-8074008D02*
X3560539Y-8045436D01*
X3560539Y-8045436D02*
X3570063Y-8035912D01*
X3751015Y-8264484D02*
X3636729Y-8264484D01*
X3693872Y-8264484D02*
X3693872Y-8064484D01*
X3693872Y-8064484D02*
X3674825Y-8093055D01*
X3674825Y-8093055D02*
X3655777Y-8112103D01*
X3655777Y-8112103D02*
X3636729Y-8121627D01*
X3865301Y-8150198D02*
X3846253Y-8140674D01*
X3846253Y-8140674D02*
X3836729Y-8131150D01*
X3836729Y-8131150D02*
X3827206Y-8112103D01*
X3827206Y-8112103D02*
X3827206Y-8102579D01*
X3827206Y-8102579D02*
X3836729Y-8083531D01*
X3836729Y-8083531D02*
X3846253Y-8074008D01*
X3846253Y-8074008D02*
X3865301Y-8064484D01*
X3865301Y-8064484D02*
X3903396Y-8064484D01*
X3903396Y-8064484D02*
X3922444Y-8074008D01*
X3922444Y-8074008D02*
X3931968Y-8083531D01*
X3931968Y-8083531D02*
X3941491Y-8102579D01*
X3941491Y-8102579D02*
X3941491Y-8112103D01*
X3941491Y-8112103D02*
X3931968Y-8131150D01*
X3931968Y-8131150D02*
X3922444Y-8140674D01*
X3922444Y-8140674D02*
X3903396Y-8150198D01*
X3903396Y-8150198D02*
X3865301Y-8150198D01*
X3865301Y-8150198D02*
X3846253Y-8159722D01*
X3846253Y-8159722D02*
X3836729Y-8169246D01*
X3836729Y-8169246D02*
X3827206Y-8188293D01*
X3827206Y-8188293D02*
X3827206Y-8226388D01*
X3827206Y-8226388D02*
X3836729Y-8245436D01*
X3836729Y-8245436D02*
X3846253Y-8254960D01*
X3846253Y-8254960D02*
X3865301Y-8264484D01*
X3865301Y-8264484D02*
X3903396Y-8264484D01*
X3903396Y-8264484D02*
X3922444Y-8254960D01*
X3922444Y-8254960D02*
X3931968Y-8245436D01*
X3931968Y-8245436D02*
X3941491Y-8226388D01*
X3941491Y-8226388D02*
X3941491Y-8188293D01*
X3941491Y-8188293D02*
X3931968Y-8169246D01*
X3931968Y-8169246D02*
X3922444Y-8159722D01*
X3922444Y-8159722D02*
X3903396Y-8150198D01*
X4179587Y-8264484D02*
X4179587Y-8064484D01*
X4265301Y-8264484D02*
X4265301Y-8159722D01*
X4265301Y-8159722D02*
X4255777Y-8140674D01*
X4255777Y-8140674D02*
X4236730Y-8131150D01*
X4236730Y-8131150D02*
X4208158Y-8131150D01*
X4208158Y-8131150D02*
X4189110Y-8140674D01*
X4189110Y-8140674D02*
X4179587Y-8150198D01*
X4389111Y-8264484D02*
X4370063Y-8254960D01*
X4370063Y-8254960D02*
X4360539Y-8245436D01*
X4360539Y-8245436D02*
X4351015Y-8226388D01*
X4351015Y-8226388D02*
X4351015Y-8169246D01*
X4351015Y-8169246D02*
X4360539Y-8150198D01*
X4360539Y-8150198D02*
X4370063Y-8140674D01*
X4370063Y-8140674D02*
X4389111Y-8131150D01*
X4389111Y-8131150D02*
X4417682Y-8131150D01*
X4417682Y-8131150D02*
X4436730Y-8140674D01*
X4436730Y-8140674D02*
X4446253Y-8150198D01*
X4446253Y-8150198D02*
X4455777Y-8169246D01*
X4455777Y-8169246D02*
X4455777Y-8226388D01*
X4455777Y-8226388D02*
X4446253Y-8245436D01*
X4446253Y-8245436D02*
X4436730Y-8254960D01*
X4436730Y-8254960D02*
X4417682Y-8264484D01*
X4417682Y-8264484D02*
X4389111Y-8264484D01*
X4570063Y-8264484D02*
X4551015Y-8254960D01*
X4551015Y-8254960D02*
X4541492Y-8235912D01*
X4541492Y-8235912D02*
X4541492Y-8064484D01*
X4722444Y-8254960D02*
X4703396Y-8264484D01*
X4703396Y-8264484D02*
X4665301Y-8264484D01*
X4665301Y-8264484D02*
X4646253Y-8254960D01*
X4646253Y-8254960D02*
X4636730Y-8235912D01*
X4636730Y-8235912D02*
X4636730Y-8159722D01*
X4636730Y-8159722D02*
X4646253Y-8140674D01*
X4646253Y-8140674D02*
X4665301Y-8131150D01*
X4665301Y-8131150D02*
X4703396Y-8131150D01*
X4703396Y-8131150D02*
X4722444Y-8140674D01*
X4722444Y-8140674D02*
X4731968Y-8159722D01*
X4731968Y-8159722D02*
X4731968Y-8178769D01*
X4731968Y-8178769D02*
X4636730Y-8197817D01*
X4808158Y-8254960D02*
X4827206Y-8264484D01*
X4827206Y-8264484D02*
X4865301Y-8264484D01*
X4865301Y-8264484D02*
X4884349Y-8254960D01*
X4884349Y-8254960D02*
X4893873Y-8235912D01*
X4893873Y-8235912D02*
X4893873Y-8226388D01*
X4893873Y-8226388D02*
X4884349Y-8207341D01*
X4884349Y-8207341D02*
X4865301Y-8197817D01*
X4865301Y-8197817D02*
X4836730Y-8197817D01*
X4836730Y-8197817D02*
X4817682Y-8188293D01*
X4817682Y-8188293D02*
X4808158Y-8169246D01*
X4808158Y-8169246D02*
X4808158Y-8159722D01*
X4808158Y-8159722D02*
X4817682Y-8140674D01*
X4817682Y-8140674D02*
X4836730Y-8131150D01*
X4836730Y-8131150D02*
X4865301Y-8131150D01*
X4865301Y-8131150D02*
X4884349Y-8140674D01*
X4960539Y-8340674D02*
X4970063Y-8331150D01*
X4970063Y-8331150D02*
X4989111Y-8302579D01*
X4989111Y-8302579D02*
X4998634Y-8283531D01*
X4998634Y-8283531D02*
X5008158Y-8254960D01*
X5008158Y-8254960D02*
X5017682Y-8207341D01*
X5017682Y-8207341D02*
X5017682Y-8169246D01*
X5017682Y-8169246D02*
X5008158Y-8121627D01*
X5008158Y-8121627D02*
X4998634Y-8093055D01*
X4998634Y-8093055D02*
X4989111Y-8074008D01*
X4989111Y-8074008D02*
X4970063Y-8045436D01*
X4970063Y-8045436D02*
X4960539Y-8035912D01*
D12*
X-22573Y-8479427D02*
X-22573Y-8394573D01*
X-107427Y-8394573D01*
X-107427Y-8479427D01*
X-22573Y-8479427D01*
D11*
X360539Y-8528484D02*
X246253Y-8528484D01*
X303396Y-8528484D02*
X303396Y-8328484D01*
X303396Y-8328484D02*
X284348Y-8357055D01*
X284348Y-8357055D02*
X265301Y-8376103D01*
X265301Y-8376103D02*
X246253Y-8385627D01*
X446253Y-8509436D02*
X455777Y-8518960D01*
X455777Y-8518960D02*
X446253Y-8528484D01*
X446253Y-8528484D02*
X436729Y-8518960D01*
X436729Y-8518960D02*
X446253Y-8509436D01*
X446253Y-8509436D02*
X446253Y-8528484D01*
X531967Y-8347531D02*
X541491Y-8338008D01*
X541491Y-8338008D02*
X560539Y-8328484D01*
X560539Y-8328484D02*
X608158Y-8328484D01*
X608158Y-8328484D02*
X627205Y-8338008D01*
X627205Y-8338008D02*
X636729Y-8347531D01*
X636729Y-8347531D02*
X646253Y-8366579D01*
X646253Y-8366579D02*
X646253Y-8385627D01*
X646253Y-8385627D02*
X636729Y-8414198D01*
X636729Y-8414198D02*
X522443Y-8528484D01*
X522443Y-8528484D02*
X646253Y-8528484D01*
X770062Y-8328484D02*
X789110Y-8328484D01*
X789110Y-8328484D02*
X808158Y-8338008D01*
X808158Y-8338008D02*
X817682Y-8347531D01*
X817682Y-8347531D02*
X827205Y-8366579D01*
X827205Y-8366579D02*
X836729Y-8404674D01*
X836729Y-8404674D02*
X836729Y-8452293D01*
X836729Y-8452293D02*
X827205Y-8490389D01*
X827205Y-8490389D02*
X817682Y-8509436D01*
X817682Y-8509436D02*
X808158Y-8518960D01*
X808158Y-8518960D02*
X789110Y-8528484D01*
X789110Y-8528484D02*
X770062Y-8528484D01*
X770062Y-8528484D02*
X751015Y-8518960D01*
X751015Y-8518960D02*
X741491Y-8509436D01*
X741491Y-8509436D02*
X731967Y-8490389D01*
X731967Y-8490389D02*
X722443Y-8452293D01*
X722443Y-8452293D02*
X722443Y-8404674D01*
X722443Y-8404674D02*
X731967Y-8366579D01*
X731967Y-8366579D02*
X741491Y-8347531D01*
X741491Y-8347531D02*
X751015Y-8338008D01*
X751015Y-8338008D02*
X770062Y-8328484D01*
X960539Y-8328484D02*
X979586Y-8328484D01*
X979586Y-8328484D02*
X998634Y-8338008D01*
X998634Y-8338008D02*
X1008158Y-8347531D01*
X1008158Y-8347531D02*
X1017682Y-8366579D01*
X1017682Y-8366579D02*
X1027205Y-8404674D01*
X1027205Y-8404674D02*
X1027205Y-8452293D01*
X1027205Y-8452293D02*
X1017682Y-8490389D01*
X1017682Y-8490389D02*
X1008158Y-8509436D01*
X1008158Y-8509436D02*
X998634Y-8518960D01*
X998634Y-8518960D02*
X979586Y-8528484D01*
X979586Y-8528484D02*
X960539Y-8528484D01*
X960539Y-8528484D02*
X941491Y-8518960D01*
X941491Y-8518960D02*
X931967Y-8509436D01*
X931967Y-8509436D02*
X922443Y-8490389D01*
X922443Y-8490389D02*
X912920Y-8452293D01*
X912920Y-8452293D02*
X912920Y-8404674D01*
X912920Y-8404674D02*
X922443Y-8366579D01*
X922443Y-8366579D02*
X931967Y-8347531D01*
X931967Y-8347531D02*
X941491Y-8338008D01*
X941491Y-8338008D02*
X960539Y-8328484D01*
X1112920Y-8528484D02*
X1112920Y-8395150D01*
X1112920Y-8414198D02*
X1122444Y-8404674D01*
X1122444Y-8404674D02*
X1141491Y-8395150D01*
X1141491Y-8395150D02*
X1170063Y-8395150D01*
X1170063Y-8395150D02*
X1189110Y-8404674D01*
X1189110Y-8404674D02*
X1198634Y-8423722D01*
X1198634Y-8423722D02*
X1198634Y-8528484D01*
X1198634Y-8423722D02*
X1208158Y-8404674D01*
X1208158Y-8404674D02*
X1227205Y-8395150D01*
X1227205Y-8395150D02*
X1255777Y-8395150D01*
X1255777Y-8395150D02*
X1274825Y-8404674D01*
X1274825Y-8404674D02*
X1284348Y-8423722D01*
X1284348Y-8423722D02*
X1284348Y-8528484D01*
X1379586Y-8528484D02*
X1379586Y-8395150D01*
X1379586Y-8414198D02*
X1389110Y-8404674D01*
X1389110Y-8404674D02*
X1408158Y-8395150D01*
X1408158Y-8395150D02*
X1436729Y-8395150D01*
X1436729Y-8395150D02*
X1455777Y-8404674D01*
X1455777Y-8404674D02*
X1465301Y-8423722D01*
X1465301Y-8423722D02*
X1465301Y-8528484D01*
X1465301Y-8423722D02*
X1474824Y-8404674D01*
X1474824Y-8404674D02*
X1493872Y-8395150D01*
X1493872Y-8395150D02*
X1522443Y-8395150D01*
X1522443Y-8395150D02*
X1541491Y-8404674D01*
X1541491Y-8404674D02*
X1551015Y-8423722D01*
X1551015Y-8423722D02*
X1551015Y-8528484D01*
X1941491Y-8318960D02*
X1770063Y-8576103D01*
X2198634Y-8328484D02*
X2217682Y-8328484D01*
X2217682Y-8328484D02*
X2236729Y-8338008D01*
X2236729Y-8338008D02*
X2246253Y-8347531D01*
X2246253Y-8347531D02*
X2255777Y-8366579D01*
X2255777Y-8366579D02*
X2265301Y-8404674D01*
X2265301Y-8404674D02*
X2265301Y-8452293D01*
X2265301Y-8452293D02*
X2255777Y-8490389D01*
X2255777Y-8490389D02*
X2246253Y-8509436D01*
X2246253Y-8509436D02*
X2236729Y-8518960D01*
X2236729Y-8518960D02*
X2217682Y-8528484D01*
X2217682Y-8528484D02*
X2198634Y-8528484D01*
X2198634Y-8528484D02*
X2179587Y-8518960D01*
X2179587Y-8518960D02*
X2170063Y-8509436D01*
X2170063Y-8509436D02*
X2160539Y-8490389D01*
X2160539Y-8490389D02*
X2151015Y-8452293D01*
X2151015Y-8452293D02*
X2151015Y-8404674D01*
X2151015Y-8404674D02*
X2160539Y-8366579D01*
X2160539Y-8366579D02*
X2170063Y-8347531D01*
X2170063Y-8347531D02*
X2179587Y-8338008D01*
X2179587Y-8338008D02*
X2198634Y-8328484D01*
X2351015Y-8509436D02*
X2360539Y-8518960D01*
X2360539Y-8518960D02*
X2351015Y-8528484D01*
X2351015Y-8528484D02*
X2341491Y-8518960D01*
X2341491Y-8518960D02*
X2351015Y-8509436D01*
X2351015Y-8509436D02*
X2351015Y-8528484D01*
X2484348Y-8328484D02*
X2503396Y-8328484D01*
X2503396Y-8328484D02*
X2522444Y-8338008D01*
X2522444Y-8338008D02*
X2531968Y-8347531D01*
X2531968Y-8347531D02*
X2541491Y-8366579D01*
X2541491Y-8366579D02*
X2551015Y-8404674D01*
X2551015Y-8404674D02*
X2551015Y-8452293D01*
X2551015Y-8452293D02*
X2541491Y-8490389D01*
X2541491Y-8490389D02*
X2531968Y-8509436D01*
X2531968Y-8509436D02*
X2522444Y-8518960D01*
X2522444Y-8518960D02*
X2503396Y-8528484D01*
X2503396Y-8528484D02*
X2484348Y-8528484D01*
X2484348Y-8528484D02*
X2465301Y-8518960D01*
X2465301Y-8518960D02*
X2455777Y-8509436D01*
X2455777Y-8509436D02*
X2446253Y-8490389D01*
X2446253Y-8490389D02*
X2436729Y-8452293D01*
X2436729Y-8452293D02*
X2436729Y-8404674D01*
X2436729Y-8404674D02*
X2446253Y-8366579D01*
X2446253Y-8366579D02*
X2455777Y-8347531D01*
X2455777Y-8347531D02*
X2465301Y-8338008D01*
X2465301Y-8338008D02*
X2484348Y-8328484D01*
X2722444Y-8395150D02*
X2722444Y-8528484D01*
X2674825Y-8318960D02*
X2627206Y-8461817D01*
X2627206Y-8461817D02*
X2751015Y-8461817D01*
X2808158Y-8328484D02*
X2941491Y-8328484D01*
X2941491Y-8328484D02*
X2855777Y-8528484D01*
X3008158Y-8347531D02*
X3017682Y-8338008D01*
X3017682Y-8338008D02*
X3036729Y-8328484D01*
X3036729Y-8328484D02*
X3084348Y-8328484D01*
X3084348Y-8328484D02*
X3103396Y-8338008D01*
X3103396Y-8338008D02*
X3112920Y-8347531D01*
X3112920Y-8347531D02*
X3122444Y-8366579D01*
X3122444Y-8366579D02*
X3122444Y-8385627D01*
X3122444Y-8385627D02*
X3112920Y-8414198D01*
X3112920Y-8414198D02*
X2998634Y-8528484D01*
X2998634Y-8528484D02*
X3122444Y-8528484D01*
X3198634Y-8328484D02*
X3198634Y-8366579D01*
X3274825Y-8328484D02*
X3274825Y-8366579D01*
X3570063Y-8604674D02*
X3560539Y-8595150D01*
X3560539Y-8595150D02*
X3541491Y-8566579D01*
X3541491Y-8566579D02*
X3531968Y-8547531D01*
X3531968Y-8547531D02*
X3522444Y-8518960D01*
X3522444Y-8518960D02*
X3512920Y-8471341D01*
X3512920Y-8471341D02*
X3512920Y-8433246D01*
X3512920Y-8433246D02*
X3522444Y-8385627D01*
X3522444Y-8385627D02*
X3531968Y-8357055D01*
X3531968Y-8357055D02*
X3541491Y-8338008D01*
X3541491Y-8338008D02*
X3560539Y-8309436D01*
X3560539Y-8309436D02*
X3570063Y-8299912D01*
X3627206Y-8328484D02*
X3751015Y-8328484D01*
X3751015Y-8328484D02*
X3684348Y-8404674D01*
X3684348Y-8404674D02*
X3712920Y-8404674D01*
X3712920Y-8404674D02*
X3731968Y-8414198D01*
X3731968Y-8414198D02*
X3741491Y-8423722D01*
X3741491Y-8423722D02*
X3751015Y-8442770D01*
X3751015Y-8442770D02*
X3751015Y-8490389D01*
X3751015Y-8490389D02*
X3741491Y-8509436D01*
X3741491Y-8509436D02*
X3731968Y-8518960D01*
X3731968Y-8518960D02*
X3712920Y-8528484D01*
X3712920Y-8528484D02*
X3655777Y-8528484D01*
X3655777Y-8528484D02*
X3636729Y-8518960D01*
X3636729Y-8518960D02*
X3627206Y-8509436D01*
X3922444Y-8395150D02*
X3922444Y-8528484D01*
X3874825Y-8318960D02*
X3827206Y-8461817D01*
X3827206Y-8461817D02*
X3951015Y-8461817D01*
X4179587Y-8528484D02*
X4179587Y-8328484D01*
X4265301Y-8528484D02*
X4265301Y-8423722D01*
X4265301Y-8423722D02*
X4255777Y-8404674D01*
X4255777Y-8404674D02*
X4236730Y-8395150D01*
X4236730Y-8395150D02*
X4208158Y-8395150D01*
X4208158Y-8395150D02*
X4189110Y-8404674D01*
X4189110Y-8404674D02*
X4179587Y-8414198D01*
X4389111Y-8528484D02*
X4370063Y-8518960D01*
X4370063Y-8518960D02*
X4360539Y-8509436D01*
X4360539Y-8509436D02*
X4351015Y-8490389D01*
X4351015Y-8490389D02*
X4351015Y-8433246D01*
X4351015Y-8433246D02*
X4360539Y-8414198D01*
X4360539Y-8414198D02*
X4370063Y-8404674D01*
X4370063Y-8404674D02*
X4389111Y-8395150D01*
X4389111Y-8395150D02*
X4417682Y-8395150D01*
X4417682Y-8395150D02*
X4436730Y-8404674D01*
X4436730Y-8404674D02*
X4446253Y-8414198D01*
X4446253Y-8414198D02*
X4455777Y-8433246D01*
X4455777Y-8433246D02*
X4455777Y-8490389D01*
X4455777Y-8490389D02*
X4446253Y-8509436D01*
X4446253Y-8509436D02*
X4436730Y-8518960D01*
X4436730Y-8518960D02*
X4417682Y-8528484D01*
X4417682Y-8528484D02*
X4389111Y-8528484D01*
X4570063Y-8528484D02*
X4551015Y-8518960D01*
X4551015Y-8518960D02*
X4541492Y-8499912D01*
X4541492Y-8499912D02*
X4541492Y-8328484D01*
X4722444Y-8518960D02*
X4703396Y-8528484D01*
X4703396Y-8528484D02*
X4665301Y-8528484D01*
X4665301Y-8528484D02*
X4646253Y-8518960D01*
X4646253Y-8518960D02*
X4636730Y-8499912D01*
X4636730Y-8499912D02*
X4636730Y-8423722D01*
X4636730Y-8423722D02*
X4646253Y-8404674D01*
X4646253Y-8404674D02*
X4665301Y-8395150D01*
X4665301Y-8395150D02*
X4703396Y-8395150D01*
X4703396Y-8395150D02*
X4722444Y-8404674D01*
X4722444Y-8404674D02*
X4731968Y-8423722D01*
X4731968Y-8423722D02*
X4731968Y-8442770D01*
X4731968Y-8442770D02*
X4636730Y-8461817D01*
X4808158Y-8518960D02*
X4827206Y-8528484D01*
X4827206Y-8528484D02*
X4865301Y-8528484D01*
X4865301Y-8528484D02*
X4884349Y-8518960D01*
X4884349Y-8518960D02*
X4893873Y-8499912D01*
X4893873Y-8499912D02*
X4893873Y-8490389D01*
X4893873Y-8490389D02*
X4884349Y-8471341D01*
X4884349Y-8471341D02*
X4865301Y-8461817D01*
X4865301Y-8461817D02*
X4836730Y-8461817D01*
X4836730Y-8461817D02*
X4817682Y-8452293D01*
X4817682Y-8452293D02*
X4808158Y-8433246D01*
X4808158Y-8433246D02*
X4808158Y-8423722D01*
X4808158Y-8423722D02*
X4817682Y-8404674D01*
X4817682Y-8404674D02*
X4836730Y-8395150D01*
X4836730Y-8395150D02*
X4865301Y-8395150D01*
X4865301Y-8395150D02*
X4884349Y-8404674D01*
X4960539Y-8604674D02*
X4970063Y-8595150D01*
X4970063Y-8595150D02*
X4989111Y-8566579D01*
X4989111Y-8566579D02*
X4998634Y-8547531D01*
X4998634Y-8547531D02*
X5008158Y-8518960D01*
X5008158Y-8518960D02*
X5017682Y-8471341D01*
X5017682Y-8471341D02*
X5017682Y-8433246D01*
X5017682Y-8433246D02*
X5008158Y-8385627D01*
X5008158Y-8385627D02*
X4998634Y-8357055D01*
X4998634Y-8357055D02*
X4989111Y-8338008D01*
X4989111Y-8338008D02*
X4970063Y-8309436D01*
X4970063Y-8309436D02*
X4960539Y-8299912D01*
M02*
