M48
; DRILL file KiCad 10.0.3 date 2026-08-08T19:08:54
; FORMAT={-:-/ absolute / metric / decimal}
; #@! TF.CreationDate,2026-08-08T19:08:54+12:00
; #@! TF.GenerationSoftware,Kicad,Pcbnew,10.0.3
; #@! TF.FileFunction,Plated,1,4,PTH
FMAT,2
METRIC
; #@! TA.AperFunction,Plated,PTH,ViaDrill
T1C0.300
; #@! TA.AperFunction,Plated,PTH,ViaDrill
T2C0.400
; #@! TA.AperFunction,Plated,PTH,ViaDrill
T3C0.500
; #@! TA.AperFunction,Plated,PTH,ComponentDrill
T4C0.600
; #@! TA.AperFunction,Plated,PTH,ComponentDrill
T5C1.000
; #@! TA.AperFunction,Plated,PTH,ComponentDrill
T6C1.200
%
G90
G05
T1
X4.25Y-27.5
X6.5Y-30.5
X8.925Y-25.626
X11.0Y-29.0
X11.0Y-31.5
X11.0Y-34.25
X11.013Y-34.967
X12.603Y-48.834
X12.934Y-40.989
X13.391Y-39.683
X14.0Y-32.5
X15.0Y-9.25
X15.657Y-37.12
X15.924Y-38.375
X16.014Y-39.181
X16.25Y-30.5
X16.307Y-40.174
X16.426Y-40.976
X16.5Y-8.5
X17.25Y-36.167
X17.625Y-9.125
X17.69Y-32.646
X18.75Y-26.5
X22.5Y-28.5
X23.0Y-44.75
X25.367Y-36.217
X29.25Y-37.5
X31.0Y-44.25
X32.75Y-22.75
X32.75Y-25.75
X33.346Y-43.985
X33.634Y-29.084
X37.169Y-35.645
X37.435Y-39.004
X39.312Y-41.157
X40.501Y-39.999
X41.0Y-30.25
X42.212Y-46.767
X44.608Y-40.195
X50.5Y-10.088
X51.058Y-33.942
X51.662Y-37.525
X53.752Y-36.504
X54.853Y-35.593
X55.5Y-39.0
X56.951Y-39.725
X57.0Y-38.75
X59.91Y-41.205
X60.25Y-28.75
X60.314Y-40.515
X61.103Y-40.647
X61.545Y-36.724
X61.777Y-13.286
X62.123Y-39.627
X62.419Y-26.953
X63.18Y-17.639
X66.022Y-40.496
X67.643Y-36.034
X67.678Y-44.974
X67.779Y-7.865
X68.411Y-35.432
X70.5Y-45.75
X71.451Y-13.887
X71.5Y-11.055
X71.566Y-45.6
X72.031Y-15.5
X72.166Y-47.6
X72.795Y-44.526
X73.25Y-32.0
X73.5Y-36.5
X73.797Y-26.354
X75.494Y-36.244
X76.355Y-40.977
X76.484Y-15.729
X77.091Y-39.59
X77.184Y-14.539
X78.004Y-26.287
X78.019Y-24.006
X78.416Y-30.698
X80.028Y-14.116
X80.124Y-40.878
X80.31Y-39.273
X80.606Y-27.061
X80.833Y-44.5
X81.629Y-31.046
X81.684Y-19.607
X81.962Y-23.14
X82.266Y-25.75
X82.895Y-27.057
X82.959Y-40.655
X83.803Y-27.731
X83.975Y-39.034
X84.294Y-28.375
X84.484Y-16.365
X84.653Y-21.456
X85.09Y-22.154
X85.11Y-22.956
X85.217Y-23.758
X85.287Y-16.562
X85.547Y-31.78
X85.827Y-32.703
X86.234Y-26.639
X86.401Y-31.19
X87.42Y-20.702
X88.791Y-14.129
X89.356Y-21.022
X89.953Y-30.787
X90.677Y-33.964
X90.754Y-17.055
X91.04Y-30.933
X91.49Y-18.038
X91.969Y-21.275
X91.973Y-23.75
X92.326Y-22.965
X92.851Y-23.78
X94.106Y-39.863
X94.15Y-22.743
X94.5Y-5.0
X97.0Y-21.0
X97.363Y-25.284
X98.113Y-11.037
X98.187Y-40.325
X98.381Y-38.656
X98.417Y-6.261
X98.5Y-14.0
X98.597Y-47.576
X98.605Y-34.5
X98.707Y-18.643
X99.379Y-41.625
X99.781Y-51.087
X100.004Y-18.208
X101.0Y-37.819
X101.75Y-6.258
X101.798Y-48.231
X102.25Y-25.25
X103.307Y-44.434
X103.75Y-20.25
X104.0Y-39.5
X104.603Y-43.25
X104.749Y-36.48
X104.894Y-39.774
X104.924Y-44.326
X105.5Y-22.703
X105.75Y-23.5
X107.633Y-39.336
X108.29Y-40.41
X108.417Y-9.667
X108.448Y-39.004
X109.04Y-40.983
X110.093Y-39.034
X110.91Y-38.975
X111.052Y-18.0
X111.084Y-5.924
X111.195Y-34.836
X111.75Y-45.25
X112.242Y-25.569
X112.453Y-6.858
X112.458Y-8.135
X112.67Y-30.802
X112.739Y-5.595
X113.0Y-24.0
X113.038Y-9.405
X113.822Y-16.438
X114.36Y-28.367
X114.745Y-16.293
X115.646Y-36.041
X115.948Y-31.048
X116.052Y-38.805
X116.848Y-45.588
X117.215Y-37.546
X117.814Y-24.022
X118.182Y-34.946
X118.795Y-37.847
X119.624Y-41.068
X121.185Y-39.055
X121.87Y-36.037
X122.332Y-40.429
X123.165Y-40.987
X124.572Y-40.075
X127.161Y-39.009
X129.0Y-21.0
X130.06Y-22.456
X130.279Y-16.432
X130.673Y-17.6
T2
X36.867Y-32.0
X37.25Y-33.0
T3
X4.25Y-18.5
X6.0Y-18.5
X7.5Y-18.5
T5
X29.6Y-15.6
X29.6Y-19.1
X29.6Y-22.6
X29.6Y-26.1
X56.5Y-30.0
X57.4Y-13.7
X57.4Y-16.24
X57.4Y-18.78
X57.4Y-21.32
X57.4Y-23.86
X57.4Y-26.4
X59.04Y-30.0
X61.58Y-30.0
X64.0Y-34.0
X66.54Y-34.0
X69.08Y-34.0
X71.62Y-34.0
X74.16Y-34.0
T6
X16.3Y-65.0
X19.8Y-65.0
X23.3Y-65.0
X26.8Y-65.0
X30.3Y-65.0
X33.0Y-5.0
X33.8Y-65.0
X36.5Y-5.0
X37.3Y-65.0
X48.0Y-5.0
X51.5Y-5.0
X60.3Y-65.0
X63.0Y-5.0
X63.8Y-65.0
X66.5Y-5.0
X67.3Y-65.0
X70.0Y-5.0
X70.8Y-65.0
X74.3Y-65.0
X77.8Y-65.0
X81.3Y-65.0
X81.5Y-5.0
X85.0Y-5.0
X88.5Y-5.0
X100.0Y-5.0
X103.5Y-5.0
X104.3Y-65.0
X107.0Y-5.0
X107.8Y-65.0
X111.3Y-65.0
X114.8Y-65.0
X118.3Y-65.0
X121.8Y-65.0
X125.3Y-65.0
T4
X132.145Y-15.68G85X133.245Y-15.68
G05
X132.145Y-24.32G85X133.245Y-24.32
G05
X136.575Y-15.68G85X137.175Y-15.68
G05
X136.575Y-24.32G85X137.175Y-24.32
G05
M30
