%TF.GenerationSoftware,KiCad,Pcbnew,10.0.3*%
%TF.CreationDate,2026-08-06T21:59:00+12:00*%
%TF.ProjectId,rcm,72636d2e-6b69-4636-9164-5f7063625858,A*%
%TF.SameCoordinates,Original*%
%TF.FileFunction,Soldermask,Bot*%
%TF.FilePolarity,Negative*%
%FSLAX46Y46*%
G04 Gerber Fmt 4.6, Leading zero omitted, Abs format (unit mm)*
G04 Created by KiCad (PCBNEW 10.0.3) date 2026-08-06 21:59:00*
%MOMM*%
%LPD*%
G01*
G04 APERTURE LIST*
G04 Aperture macros list*
%AMRoundRect*
0 Rectangle with rounded corners*
0 $1 Rounding radius*
0 $2 $3 $4 $5 $6 $7 $8 $9 X,Y pos of 4 corners*
0 Add a 4 corners polygon primitive as box body*
4,1,4,$2,$3,$4,$5,$6,$7,$8,$9,$2,$3,0*
0 Add four circle primitives for the rounded corners*
1,1,$1+$1,$2,$3*
1,1,$1+$1,$4,$5*
1,1,$1+$1,$6,$7*
1,1,$1+$1,$8,$9*
0 Add four rect primitives between the rounded corners*
20,1,$1+$1,$2,$3,$4,$5,0*
20,1,$1+$1,$4,$5,$6,$7,0*
20,1,$1+$1,$6,$7,$8,$9,0*
20,1,$1+$1,$8,$9,$2,$3,0*%
G04 Aperture macros list end*
%ADD10R,1.700000X1.700000*%
%ADD11C,1.700000*%
%ADD12RoundRect,0.575000X0.575000X0.575000X-0.575000X0.575000X-0.575000X-0.575000X0.575000X-0.575000X0*%
%ADD13C,2.300000*%
%ADD14RoundRect,0.575000X-0.575000X-0.575000X0.575000X-0.575000X0.575000X0.575000X-0.575000X0.575000X0*%
%ADD15C,0.650000*%
%ADD16O,2.100000X1.000000*%
%ADD17O,1.600000X1.000000*%
%ADD18C,3.200000*%
G04 APERTURE END LIST*
D10*
%TO.C,J_SWD*%
X64000000Y-34000000D03*
D11*
X66540000Y-34000000D03*
X69080000Y-34000000D03*
X71620000Y-34000000D03*
X74160000Y-34000000D03*
%TD*%
D12*
%TO.C,J_CAN1*%
X88500000Y-5000000D03*
D13*
X85000000Y-5000000D03*
X81500000Y-5000000D03*
%TD*%
D12*
%TO.C,J_CAN2*%
X107000000Y-5000000D03*
D13*
X103500000Y-5000000D03*
X100000000Y-5000000D03*
%TD*%
D14*
%TO.C,J_CH1*%
X16300000Y-65000000D03*
D13*
X19800000Y-65000000D03*
X23300000Y-65000000D03*
X26800000Y-65000000D03*
X30300000Y-65000000D03*
X33800000Y-65000000D03*
X37300000Y-65000000D03*
%TD*%
D15*
%TO.C,J_USB*%
X133195000Y-22890000D03*
X133195000Y-17110000D03*
D16*
X132695000Y-24320000D03*
D17*
X136875000Y-24320000D03*
D16*
X132695000Y-15680000D03*
D17*
X136875000Y-15680000D03*
%TD*%
D10*
%TO.C,JB1*%
X29600000Y-15600000D03*
D11*
X29600000Y-19100000D03*
X29600000Y-22600000D03*
X29600000Y-26100000D03*
%TD*%
D18*
%TO.C,H3*%
X5000000Y-65000000D03*
%TD*%
D10*
%TO.C,JB2*%
X57400000Y-13700000D03*
D11*
X57400000Y-16240000D03*
X57400000Y-18780000D03*
X57400000Y-21320000D03*
X57400000Y-23860000D03*
X57400000Y-26400000D03*
%TD*%
D10*
%TO.C,J_BOOT*%
X56500000Y-30000000D03*
D11*
X59040000Y-30000000D03*
X61580000Y-30000000D03*
%TD*%
D12*
%TO.C,J_AUX*%
X70000000Y-5000000D03*
D13*
X66500000Y-5000000D03*
X63000000Y-5000000D03*
%TD*%
D18*
%TO.C,H2*%
X135000000Y-5000000D03*
%TD*%
D12*
%TO.C,J_IGN*%
X51500000Y-5000000D03*
D13*
X48000000Y-5000000D03*
%TD*%
D18*
%TO.C,H1*%
X5000000Y-5000000D03*
%TD*%
D12*
%TO.C,J_PWR*%
X36500000Y-5000000D03*
D13*
X33000000Y-5000000D03*
%TD*%
D14*
%TO.C,J_CH3*%
X104300000Y-65000000D03*
D13*
X107800000Y-65000000D03*
X111300000Y-65000000D03*
X114800000Y-65000000D03*
X118300000Y-65000000D03*
X121800000Y-65000000D03*
X125300000Y-65000000D03*
%TD*%
D18*
%TO.C,H4*%
X135000000Y-65000000D03*
%TD*%
D14*
%TO.C,J_CH2*%
X60300000Y-65000000D03*
D13*
X63800000Y-65000000D03*
X67300000Y-65000000D03*
X70800000Y-65000000D03*
X74300000Y-65000000D03*
X77800000Y-65000000D03*
X81300000Y-65000000D03*
%TD*%
M02*
