%TF.GenerationSoftware,KiCad,Pcbnew,10.0.3*%
%TF.CreationDate,2026-08-06T18:36:44+12:00*%
%TF.ProjectId,rcm,72636d2e-6b69-4636-9164-5f7063625858,A*%
%TF.SameCoordinates,Original*%
%TF.FileFunction,Copper,L1,Top*%
%TF.FilePolarity,Positive*%
%FSLAX46Y46*%
G04 Gerber Fmt 4.6, Leading zero omitted, Abs format (unit mm)*
G04 Created by KiCad (PCBNEW 10.0.3) date 2026-08-06 18:36:44*
%MOMM*%
%LPD*%
G01*
G04 APERTURE LIST*
G04 Aperture macros list*
%AMRoundRect*
0 Rectangle with rounded corners*
0 $1 Rounding radius*
0 $2 $3 $4 $5 $6 $7 $8 $9 X,Y pos of 4 corners*
0 Add a 4 corners polygon primitive as box body*
4,1,4,$2,$3,$4,$5,$6,$7,$8,$9,$2,$3,0*
0 Add four circle primitives for the rounded corners*
1,1,$1+$1,$2,$3*
1,1,$1+$1,$4,$5*
1,1,$1+$1,$6,$7*
1,1,$1+$1,$8,$9*
0 Add four rect primitives between the rounded corners*
20,1,$1+$1,$2,$3,$4,$5,0*
20,1,$1+$1,$4,$5,$6,$7,0*
20,1,$1+$1,$6,$7,$8,$9,0*
20,1,$1+$1,$8,$9,$2,$3,0*%
G04 Aperture macros list end*
%TA.AperFunction,SMDPad,CuDef*%
%ADD10RoundRect,0.250000X-0.262500X-0.450000X0.262500X-0.450000X0.262500X0.450000X-0.262500X0.450000X0*%
%TD*%
%TA.AperFunction,SMDPad,CuDef*%
%ADD11RoundRect,0.250000X0.262500X0.450000X-0.262500X0.450000X-0.262500X-0.450000X0.262500X-0.450000X0*%
%TD*%
%TA.AperFunction,SMDPad,CuDef*%
%ADD12RoundRect,0.250000X1.450000X-0.312500X1.450000X0.312500X-1.450000X0.312500X-1.450000X-0.312500X0*%
%TD*%
%TA.AperFunction,SMDPad,CuDef*%
%ADD13RoundRect,0.250000X0.450000X-0.262500X0.450000X0.262500X-0.450000X0.262500X-0.450000X-0.262500X0*%
%TD*%
%TA.AperFunction,SMDPad,CuDef*%
%ADD14RoundRect,0.150000X0.500000X-0.150000X0.500000X0.150000X-0.500000X0.150000X-0.500000X-0.150000X0*%
%TD*%
%TA.AperFunction,SMDPad,CuDef*%
%ADD15RoundRect,0.075000X0.575000X-0.075000X0.575000X0.075000X-0.575000X0.075000X-0.575000X-0.075000X0*%
%TD*%
%TA.AperFunction,ComponentPad*%
%ADD16O,2.100000X1.000000*%
%TD*%
%TA.AperFunction,ComponentPad*%
%ADD17O,1.600000X1.000000*%
%TD*%
%TA.AperFunction,SMDPad,CuDef*%
%ADD18RoundRect,0.150000X0.150000X-0.825000X0.150000X0.825000X-0.150000X0.825000X-0.150000X-0.825000X0*%
%TD*%
%TA.AperFunction,SMDPad,CuDef*%
%ADD19RoundRect,0.250000X-0.250000X-0.475000X0.250000X-0.475000X0.250000X0.475000X-0.250000X0.475000X0*%
%TD*%
%TA.AperFunction,SMDPad,CuDef*%
%ADD20RoundRect,0.243750X-0.243750X-0.456250X0.243750X-0.456250X0.243750X0.456250X-0.243750X0.456250X0*%
%TD*%
%TA.AperFunction,SMDPad,CuDef*%
%ADD21RoundRect,0.250000X0.475000X-0.250000X0.475000X0.250000X-0.475000X0.250000X-0.475000X-0.250000X0*%
%TD*%
%TA.AperFunction,SMDPad,CuDef*%
%ADD22RoundRect,0.100000X-0.637500X-0.100000X0.637500X-0.100000X0.637500X0.100000X-0.637500X0.100000X0*%
%TD*%
%TA.AperFunction,ComponentPad*%
%ADD23R,1.700000X1.700000*%
%TD*%
%TA.AperFunction,ComponentPad*%
%ADD24C,1.700000*%
%TD*%
%TA.AperFunction,ComponentPad*%
%ADD25RoundRect,0.575000X0.575000X0.575000X-0.575000X0.575000X-0.575000X-0.575000X0.575000X-0.575000X0*%
%TD*%
%TA.AperFunction,ComponentPad*%
%ADD26C,2.300000*%
%TD*%
%TA.AperFunction,SMDPad,CuDef*%
%ADD27RoundRect,0.150000X-0.825000X-0.150000X0.825000X-0.150000X0.825000X0.150000X-0.825000X0.150000X0*%
%TD*%
%TA.AperFunction,SMDPad,CuDef*%
%ADD28R,0.675000X0.250000*%
%TD*%
%TA.AperFunction,SMDPad,CuDef*%
%ADD29R,0.250000X0.675000*%
%TD*%
%TA.AperFunction,SMDPad,CuDef*%
%ADD30R,1.800000X1.000000*%
%TD*%
%TA.AperFunction,SMDPad,CuDef*%
%ADD31R,1.310000X0.450000*%
%TD*%
%TA.AperFunction,SMDPad,CuDef*%
%ADD32R,2.650000X4.000000*%
%TD*%
%TA.AperFunction,SMDPad,CuDef*%
%ADD33RoundRect,0.250000X0.650000X-1.000000X0.650000X1.000000X-0.650000X1.000000X-0.650000X-1.000000X0*%
%TD*%
%TA.AperFunction,SMDPad,CuDef*%
%ADD34RoundRect,0.250000X1.100000X-0.325000X1.100000X0.325000X-1.100000X0.325000X-1.100000X-0.325000X0*%
%TD*%
%TA.AperFunction,ComponentPad*%
%ADD35RoundRect,0.575000X-0.575000X-0.575000X0.575000X-0.575000X0.575000X0.575000X-0.575000X0.575000X0*%
%TD*%
%TA.AperFunction,SMDPad,CuDef*%
%ADD36RoundRect,0.375000X-0.625000X-0.375000X0.625000X-0.375000X0.625000X0.375000X-0.625000X0.375000X0*%
%TD*%
%TA.AperFunction,SMDPad,CuDef*%
%ADD37RoundRect,0.500000X-0.500000X-1.400000X0.500000X-1.400000X0.500000X1.400000X-0.500000X1.400000X0*%
%TD*%
%TA.AperFunction,SMDPad,CuDef*%
%ADD38RoundRect,0.075000X-0.700000X-0.075000X0.700000X-0.075000X0.700000X0.075000X-0.700000X0.075000X0*%
%TD*%
%TA.AperFunction,SMDPad,CuDef*%
%ADD39RoundRect,0.075000X-0.075000X-0.700000X0.075000X-0.700000X0.075000X0.700000X-0.075000X0.700000X0*%
%TD*%
%TA.AperFunction,SMDPad,CuDef*%
%ADD40R,1.700000X1.000000*%
%TD*%
%TA.AperFunction,SMDPad,CuDef*%
%ADD41RoundRect,0.150000X-0.587500X-0.150000X0.587500X-0.150000X0.587500X0.150000X-0.587500X0.150000X0*%
%TD*%
%TA.AperFunction,SMDPad,CuDef*%
%ADD42RoundRect,0.250000X0.950000X-0.750000X0.950000X0.750000X-0.950000X0.750000X-0.950000X-0.750000X0*%
%TD*%
%TA.AperFunction,ViaPad*%
%ADD43C,0.600000*%
%TD*%
%TA.AperFunction,Conductor*%
%ADD44C,0.200000*%
%TD*%
G04 APERTURE END LIST*
D10*
%TO.P,R_PU10,1*%
%TO.N,CH10*%
X63887500Y-59000000D03*
%TO.P,R_PU10,2*%
%TO.N,+12V_P*%
X65712500Y-59000000D03*
%TD*%
D11*
%TO.P,R_SL1,1*%
%TO.N,SNS1*%
X9712500Y-50000000D03*
%TO.P,R_SL1,2*%
%TO.N,GND*%
X7887500Y-50000000D03*
%TD*%
D12*
%TO.P,F1,1*%
%TO.N,+12V_IN*%
X6000000Y-16137500D03*
%TO.P,F1,2*%
%TO.N,+12V_FUSED*%
X6000000Y-11862500D03*
%TD*%
D13*
%TO.P,R_AL3,1*%
%TO.N,ASNS3*%
X76000000Y-11912500D03*
%TO.P,R_AL3,2*%
%TO.N,GND*%
X76000000Y-10087500D03*
%TD*%
D14*
%TO.P,J_USB,A1*%
%TO.N,GND*%
X132055000Y-23200000D03*
%TO.P,J_USB,A4*%
%TO.N,USB_VBUS*%
X132055000Y-22400000D03*
D15*
%TO.P,J_USB,A5*%
%TO.N,USB_CC1*%
X132055000Y-21250000D03*
%TO.P,J_USB,A6*%
%TO.N,USB_DP*%
X132055000Y-20250000D03*
%TO.P,J_USB,A7*%
%TO.N,USB_DM*%
X132055000Y-19750000D03*
%TO.P,J_USB,A8*%
%TO.N,unconnected-(J_USB-SBU1-PadA8)*%
X132055000Y-18750000D03*
D14*
%TO.P,J_USB,A9*%
%TO.N,USB_VBUS*%
X132055000Y-17600000D03*
%TO.P,J_USB,A12*%
%TO.N,GND*%
X132055000Y-16800000D03*
%TO.P,J_USB,B1*%
X132055000Y-16800000D03*
%TO.P,J_USB,B4*%
%TO.N,USB_VBUS*%
X132055000Y-17600000D03*
D15*
%TO.P,J_USB,B5*%
%TO.N,USB_CC2*%
X132055000Y-18250000D03*
%TO.P,J_USB,B6*%
%TO.N,USB_DP*%
X132055000Y-19250000D03*
%TO.P,J_USB,B7*%
%TO.N,USB_DM*%
X132055000Y-20750000D03*
%TO.P,J_USB,B8*%
%TO.N,unconnected-(J_USB-SBU2-PadB8)*%
X132055000Y-21750000D03*
D14*
%TO.P,J_USB,B9*%
%TO.N,USB_VBUS*%
X132055000Y-22400000D03*
%TO.P,J_USB,B12*%
%TO.N,GND*%
X132055000Y-23200000D03*
D16*
%TO.P,J_USB,SH*%
X132695000Y-24320000D03*
D17*
X136875000Y-24320000D03*
D16*
X132695000Y-15680000D03*
D17*
X136875000Y-15680000D03*
%TD*%
D10*
%TO.P,R_CC1,1*%
%TO.N,USB_CC1*%
X126087500Y-21250000D03*
%TO.P,R_CC1,2*%
%TO.N,GND*%
X127912500Y-21250000D03*
%TD*%
D18*
%TO.P,U_SO3,1*%
%TO.N,DRV16*%
X106355000Y-42475000D03*
%TO.P,U_SO3,2*%
%TO.N,DRV17*%
X107625000Y-42475000D03*
%TO.P,U_SO3,3*%
%TO.N,DRV18*%
X108895000Y-42475000D03*
%TO.P,U_SO3,4*%
%TO.N,DRV19*%
X110165000Y-42475000D03*
%TO.P,U_SO3,5*%
%TO.N,DRV20*%
X111435000Y-42475000D03*
%TO.P,U_SO3,6*%
%TO.N,DRV21*%
X112705000Y-42475000D03*
%TO.P,U_SO3,7*%
%TO.N,unconnected-(U_SO3-QH-Pad7)*%
X113975000Y-42475000D03*
%TO.P,U_SO3,8*%
%TO.N,GND*%
X115245000Y-42475000D03*
%TO.P,U_SO3,9*%
%TO.N,SR_CH32*%
X115245000Y-37525000D03*
%TO.P,U_SO3,10*%
%TO.N,+3V3*%
X113975000Y-37525000D03*
%TO.P,U_SO3,11*%
%TO.N,SR_SCK*%
X112705000Y-37525000D03*
%TO.P,U_SO3,12*%
%TO.N,SR_RCLK*%
X111435000Y-37525000D03*
%TO.P,U_SO3,13*%
%TO.N,SR_OE_N*%
X110165000Y-37525000D03*
%TO.P,U_SO3,14*%
%TO.N,SR_MOSI*%
X108895000Y-37525000D03*
%TO.P,U_SO3,15*%
%TO.N,DRV15*%
X107625000Y-37525000D03*
%TO.P,U_SO3,16*%
%TO.N,+3V3*%
X106355000Y-37525000D03*
%TD*%
D10*
%TO.P,R_PU4,1*%
%TO.N,CH4*%
X25887500Y-59000000D03*
%TO.P,R_PU4,2*%
%TO.N,+12V_P*%
X27712500Y-59000000D03*
%TD*%
%TO.P,R_LPD,1*%
%TO.N,LATCH_IN*%
X12087500Y-29000000D03*
%TO.P,R_LPD,2*%
%TO.N,GND*%
X13912500Y-29000000D03*
%TD*%
D19*
%TO.P,C_M5,1*%
%TO.N,+3V3*%
X95050000Y-15500000D03*
%TO.P,C_M5,2*%
%TO.N,GND*%
X96950000Y-15500000D03*
%TD*%
%TO.P,C_Y2B,1*%
%TO.N,LSE_OUT*%
X70050000Y-22500000D03*
%TO.P,C_Y2B,2*%
%TO.N,GND*%
X71950000Y-22500000D03*
%TD*%
D10*
%TO.P,R_PU19,1*%
%TO.N,CH19*%
X119887500Y-59000000D03*
%TO.P,R_PU19,2*%
%TO.N,+12V_P*%
X121712500Y-59000000D03*
%TD*%
D11*
%TO.P,R_SL18,1*%
%TO.N,SNS18*%
X115712500Y-50000000D03*
%TO.P,R_SL18,2*%
%TO.N,GND*%
X113887500Y-50000000D03*
%TD*%
D10*
%TO.P,R_SH3,1*%
%TO.N,CH3*%
X19887500Y-54500000D03*
%TO.P,R_SH3,2*%
%TO.N,SNS3*%
X21712500Y-54500000D03*
%TD*%
D20*
%TO.P,D_LED1,1*%
%TO.N,GND*%
X22062500Y-5000000D03*
%TO.P,D_LED1,2*%
%TO.N,LED1_A*%
X23937500Y-5000000D03*
%TD*%
D21*
%TO.P,C_SI3,1*%
%TO.N,+3V3*%
X131300000Y-40950000D03*
%TO.P,C_SI3,2*%
%TO.N,GND*%
X131300000Y-39050000D03*
%TD*%
D22*
%TO.P,U_DRV1,1*%
%TO.N,DRV1*%
X8937500Y-37725000D03*
%TO.P,U_DRV1,2*%
%TO.N,DRV2*%
X8937500Y-38375000D03*
%TO.P,U_DRV1,3*%
%TO.N,DRV3*%
X8937500Y-39025000D03*
%TO.P,U_DRV1,4*%
%TO.N,DRV4*%
X8937500Y-39675000D03*
%TO.P,U_DRV1,5*%
%TO.N,DRV5*%
X8937500Y-40325000D03*
%TO.P,U_DRV1,6*%
%TO.N,DRV6*%
X8937500Y-40975000D03*
%TO.P,U_DRV1,7*%
%TO.N,DRV7*%
X8937500Y-41625000D03*
%TO.P,U_DRV1,8*%
%TO.N,GND*%
X8937500Y-42275000D03*
%TO.P,U_DRV1,9*%
%TO.N,+12V_P*%
X14662500Y-42275000D03*
%TO.P,U_DRV1,10*%
%TO.N,CH7*%
X14662500Y-41625000D03*
%TO.P,U_DRV1,11*%
%TO.N,CH6*%
X14662500Y-40975000D03*
%TO.P,U_DRV1,12*%
%TO.N,CH5*%
X14662500Y-40325000D03*
%TO.P,U_DRV1,13*%
%TO.N,CH4*%
X14662500Y-39675000D03*
%TO.P,U_DRV1,14*%
%TO.N,CH3*%
X14662500Y-39025000D03*
%TO.P,U_DRV1,15*%
%TO.N,CH2*%
X14662500Y-38375000D03*
%TO.P,U_DRV1,16*%
%TO.N,CH1*%
X14662500Y-37725000D03*
%TD*%
D11*
%TO.P,R_SL13,1*%
%TO.N,SNS13*%
X83712500Y-50000000D03*
%TO.P,R_SL13,2*%
%TO.N,GND*%
X81887500Y-50000000D03*
%TD*%
D23*
%TO.P,J_SWD,1*%
%TO.N,+3V3*%
X64000000Y-34000000D03*
D24*
%TO.P,J_SWD,2*%
%TO.N,SWDIO*%
X66540000Y-34000000D03*
%TO.P,J_SWD,3*%
%TO.N,SWCLK*%
X69080000Y-34000000D03*
%TO.P,J_SWD,4*%
%TO.N,NRST*%
X71620000Y-34000000D03*
%TO.P,J_SWD,5*%
%TO.N,GND*%
X74160000Y-34000000D03*
%TD*%
D10*
%TO.P,R_PU18,1*%
%TO.N,CH18*%
X113887500Y-59000000D03*
%TO.P,R_PU18,2*%
%TO.N,+12V_P*%
X115712500Y-59000000D03*
%TD*%
D19*
%TO.P,C_LSW,1*%
%TO.N,+12V_SW*%
X16050000Y-34500000D03*
%TO.P,C_LSW,2*%
%TO.N,GND*%
X17950000Y-34500000D03*
%TD*%
%TO.P,C_Y1A,1*%
%TO.N,HSE_IN*%
X70050000Y-25500000D03*
%TO.P,C_Y1A,2*%
%TO.N,GND*%
X71950000Y-25500000D03*
%TD*%
D25*
%TO.P,J_AUX,1*%
%TO.N,AUX1*%
X70000000Y-5000000D03*
D26*
%TO.P,J_AUX,2*%
%TO.N,AUX2*%
X66500000Y-5000000D03*
%TO.P,J_AUX,3*%
%TO.N,AUX3*%
X63000000Y-5000000D03*
%TD*%
D22*
%TO.P,U_DRV3,1*%
%TO.N,DRV15*%
X96937500Y-37725000D03*
%TO.P,U_DRV3,2*%
%TO.N,DRV16*%
X96937500Y-38375000D03*
%TO.P,U_DRV3,3*%
%TO.N,DRV17*%
X96937500Y-39025000D03*
%TO.P,U_DRV3,4*%
%TO.N,DRV18*%
X96937500Y-39675000D03*
%TO.P,U_DRV3,5*%
%TO.N,DRV19*%
X96937500Y-40325000D03*
%TO.P,U_DRV3,6*%
%TO.N,DRV20*%
X96937500Y-40975000D03*
%TO.P,U_DRV3,7*%
%TO.N,DRV21*%
X96937500Y-41625000D03*
%TO.P,U_DRV3,8*%
%TO.N,GND*%
X96937500Y-42275000D03*
%TO.P,U_DRV3,9*%
%TO.N,+12V_P*%
X102662500Y-42275000D03*
%TO.P,U_DRV3,10*%
%TO.N,CH21*%
X102662500Y-41625000D03*
%TO.P,U_DRV3,11*%
%TO.N,CH20*%
X102662500Y-40975000D03*
%TO.P,U_DRV3,12*%
%TO.N,CH19*%
X102662500Y-40325000D03*
%TO.P,U_DRV3,13*%
%TO.N,CH18*%
X102662500Y-39675000D03*
%TO.P,U_DRV3,14*%
%TO.N,CH17*%
X102662500Y-39025000D03*
%TO.P,U_DRV3,15*%
%TO.N,CH16*%
X102662500Y-38375000D03*
%TO.P,U_DRV3,16*%
%TO.N,CH15*%
X102662500Y-37725000D03*
%TD*%
D21*
%TO.P,C_5V,1*%
%TO.N,+5V*%
X35000000Y-31950000D03*
%TO.P,C_5V,2*%
%TO.N,GND*%
X35000000Y-30050000D03*
%TD*%
D19*
%TO.P,C_M3,1*%
%TO.N,+3V3*%
X87050000Y-15500000D03*
%TO.P,C_M3,2*%
%TO.N,GND*%
X88950000Y-15500000D03*
%TD*%
D18*
%TO.P,U_SI1,1*%
%TO.N,SR_PL*%
X32355000Y-42475000D03*
%TO.P,U_SI1,2*%
%TO.N,SR_SCK*%
X33625000Y-42475000D03*
%TO.P,U_SI1,3*%
%TO.N,SNS5*%
X34895000Y-42475000D03*
%TO.P,U_SI1,4*%
%TO.N,SNS6*%
X36165000Y-42475000D03*
%TO.P,U_SI1,5*%
%TO.N,SNS7*%
X37435000Y-42475000D03*
%TO.P,U_SI1,6*%
%TO.N,ASNS1*%
X38705000Y-42475000D03*
%TO.P,U_SI1,7*%
%TO.N,unconnected-(U_SI1-~{Q7}-Pad7)*%
X39975000Y-42475000D03*
%TO.P,U_SI1,8*%
%TO.N,GND*%
X41245000Y-42475000D03*
%TO.P,U_SI1,9*%
%TO.N,SR_DI12*%
X41245000Y-37525000D03*
%TO.P,U_SI1,10*%
%TO.N,GND*%
X39975000Y-37525000D03*
%TO.P,U_SI1,11*%
%TO.N,SNS1*%
X38705000Y-37525000D03*
%TO.P,U_SI1,12*%
%TO.N,SNS2*%
X37435000Y-37525000D03*
%TO.P,U_SI1,13*%
%TO.N,SNS3*%
X36165000Y-37525000D03*
%TO.P,U_SI1,14*%
%TO.N,SNS4*%
X34895000Y-37525000D03*
%TO.P,U_SI1,15*%
%TO.N,GND*%
X33625000Y-37525000D03*
%TO.P,U_SI1,16*%
%TO.N,+3V3*%
X32355000Y-37525000D03*
%TD*%
D10*
%TO.P,R_SH4,1*%
%TO.N,CH4*%
X25887500Y-54500000D03*
%TO.P,R_SH4,2*%
%TO.N,SNS4*%
X27712500Y-54500000D03*
%TD*%
%TO.P,R_PU20,1*%
%TO.N,CH20*%
X125887500Y-59000000D03*
%TO.P,R_PU20,2*%
%TO.N,+12V_P*%
X127712500Y-59000000D03*
%TD*%
D27*
%TO.P,U_CAN,1*%
%TO.N,CAN_TX*%
X101525000Y-10095000D03*
%TO.P,U_CAN,2*%
%TO.N,GND*%
X101525000Y-11365000D03*
%TO.P,U_CAN,3*%
%TO.N,+3V3*%
X101525000Y-12635000D03*
%TO.P,U_CAN,4*%
%TO.N,CAN_RX*%
X101525000Y-13905000D03*
%TO.P,U_CAN,5*%
%TO.N,unconnected-(U_CAN-Vref-Pad5)*%
X106475000Y-13905000D03*
%TO.P,U_CAN,6*%
%TO.N,CANL*%
X106475000Y-12635000D03*
%TO.P,U_CAN,7*%
%TO.N,CANH*%
X106475000Y-11365000D03*
%TO.P,U_CAN,8*%
%TO.N,CAN_RS*%
X106475000Y-10095000D03*
%TD*%
D10*
%TO.P,R_SH11,1*%
%TO.N,CH11*%
X69887500Y-54500000D03*
%TO.P,R_SH11,2*%
%TO.N,SNS11*%
X71712500Y-54500000D03*
%TD*%
%TO.P,R_PU2,1*%
%TO.N,CH2*%
X13887500Y-59000000D03*
%TO.P,R_PU2,2*%
%TO.N,+12V_P*%
X15712500Y-59000000D03*
%TD*%
D11*
%TO.P,R_SL11,1*%
%TO.N,SNS11*%
X71712500Y-50000000D03*
%TO.P,R_SL11,2*%
%TO.N,GND*%
X69887500Y-50000000D03*
%TD*%
D28*
%TO.P,U_IMU,1*%
%TO.N,IMU_SDO*%
X103737500Y-25250000D03*
%TO.P,U_IMU,2*%
%TO.N,unconnected-(U_IMU-ASDx-Pad2)*%
X103737500Y-25750000D03*
%TO.P,U_IMU,3*%
%TO.N,unconnected-(U_IMU-ASCx-Pad3)*%
X103737500Y-26250000D03*
%TO.P,U_IMU,4*%
%TO.N,IMU_INT1*%
X103737500Y-26750000D03*
D29*
%TO.P,U_IMU,5*%
%TO.N,+3V3*%
X104500000Y-27012500D03*
%TO.P,U_IMU,6*%
%TO.N,GND*%
X105000000Y-27012500D03*
%TO.P,U_IMU,7*%
X105500000Y-27012500D03*
D28*
%TO.P,U_IMU,8*%
%TO.N,+3V3*%
X106262500Y-26750000D03*
%TO.P,U_IMU,9*%
%TO.N,unconnected-(U_IMU-INT2-Pad9)*%
X106262500Y-26250000D03*
%TO.P,U_IMU,10*%
%TO.N,unconnected-(U_IMU-OCSB-Pad10)*%
X106262500Y-25750000D03*
%TO.P,U_IMU,11*%
%TO.N,unconnected-(U_IMU-OSDO-Pad11)*%
X106262500Y-25250000D03*
D29*
%TO.P,U_IMU,12*%
%TO.N,+3V3*%
X105500000Y-24987500D03*
%TO.P,U_IMU,13*%
%TO.N,IMU_SCL*%
X105000000Y-24987500D03*
%TO.P,U_IMU,14*%
%TO.N,IMU_SDA*%
X104500000Y-24987500D03*
%TD*%
D11*
%TO.P,R_SL6,1*%
%TO.N,SNS6*%
X39712500Y-50000000D03*
%TO.P,R_SL6,2*%
%TO.N,GND*%
X37887500Y-50000000D03*
%TD*%
D13*
%TO.P,R_AL2,1*%
%TO.N,ASNS2*%
X70000000Y-11912500D03*
%TO.P,R_AL2,2*%
%TO.N,GND*%
X70000000Y-10087500D03*
%TD*%
D22*
%TO.P,U_DRV2,1*%
%TO.N,DRV8*%
X52937500Y-37725000D03*
%TO.P,U_DRV2,2*%
%TO.N,DRV9*%
X52937500Y-38375000D03*
%TO.P,U_DRV2,3*%
%TO.N,DRV10*%
X52937500Y-39025000D03*
%TO.P,U_DRV2,4*%
%TO.N,DRV11*%
X52937500Y-39675000D03*
%TO.P,U_DRV2,5*%
%TO.N,DRV12*%
X52937500Y-40325000D03*
%TO.P,U_DRV2,6*%
%TO.N,DRV13*%
X52937500Y-40975000D03*
%TO.P,U_DRV2,7*%
%TO.N,DRV14*%
X52937500Y-41625000D03*
%TO.P,U_DRV2,8*%
%TO.N,GND*%
X52937500Y-42275000D03*
%TO.P,U_DRV2,9*%
%TO.N,+12V_P*%
X58662500Y-42275000D03*
%TO.P,U_DRV2,10*%
%TO.N,CH14*%
X58662500Y-41625000D03*
%TO.P,U_DRV2,11*%
%TO.N,CH13*%
X58662500Y-40975000D03*
%TO.P,U_DRV2,12*%
%TO.N,CH12*%
X58662500Y-40325000D03*
%TO.P,U_DRV2,13*%
%TO.N,CH11*%
X58662500Y-39675000D03*
%TO.P,U_DRV2,14*%
%TO.N,CH10*%
X58662500Y-39025000D03*
%TO.P,U_DRV2,15*%
%TO.N,CH9*%
X58662500Y-38375000D03*
%TO.P,U_DRV2,16*%
%TO.N,CH8*%
X58662500Y-37725000D03*
%TD*%
D21*
%TO.P,C_3V3I,1*%
%TO.N,+3V3*%
X39000000Y-31950000D03*
%TO.P,C_3V3I,2*%
%TO.N,GND*%
X39000000Y-30050000D03*
%TD*%
D13*
%TO.P,R_ADDR,1*%
%TO.N,IMU_SDO*%
X116000000Y-25912500D03*
%TO.P,R_ADDR,2*%
%TO.N,GND*%
X116000000Y-24087500D03*
%TD*%
D30*
%TO.P,Y2,1*%
%TO.N,LSE_IN*%
X76000000Y-19750000D03*
%TO.P,Y2,2*%
%TO.N,LSE_OUT*%
X76000000Y-22250000D03*
%TD*%
D20*
%TO.P,D_LED2,1*%
%TO.N,GND*%
X27062500Y-5000000D03*
%TO.P,D_LED2,2*%
%TO.N,LED2_A*%
X28937500Y-5000000D03*
%TD*%
D10*
%TO.P,R_PU6,1*%
%TO.N,CH6*%
X37887500Y-59000000D03*
%TO.P,R_PU6,2*%
%TO.N,+12V_P*%
X39712500Y-59000000D03*
%TD*%
D31*
%TO.P,U_LATCH,1*%
%TO.N,LATCH_GND*%
X9150000Y-20050000D03*
%TO.P,U_LATCH,2*%
%TO.N,LATCH_IN*%
X9150000Y-20700000D03*
%TO.P,U_LATCH,3*%
%TO.N,GND*%
X9150000Y-21350000D03*
%TO.P,U_LATCH,4*%
%TO.N,unconnected-(U_LATCH-IS-Pad4)*%
X9155000Y-22000000D03*
%TO.P,U_LATCH,5*%
%TO.N,unconnected-(U_LATCH-NC-Pad5)*%
X9150000Y-22650000D03*
%TO.P,U_LATCH,6*%
%TO.N,unconnected-(U_LATCH-NC-Pad6)*%
X9150000Y-23300000D03*
%TO.P,U_LATCH,7*%
%TO.N,unconnected-(U_LATCH-NC-Pad7)*%
X9150000Y-23950000D03*
%TO.P,U_LATCH,8*%
%TO.N,+12V_SW*%
X14850000Y-23950000D03*
%TO.P,U_LATCH,9*%
X14850000Y-23300000D03*
%TO.P,U_LATCH,10*%
X14850000Y-22650000D03*
%TO.P,U_LATCH,11*%
%TO.N,unconnected-(U_LATCH-NC-Pad11)*%
X14850000Y-22000000D03*
%TO.P,U_LATCH,12*%
%TO.N,+12V_SW*%
X14850000Y-21350000D03*
%TO.P,U_LATCH,13*%
X14850000Y-20700000D03*
%TO.P,U_LATCH,14*%
X14850000Y-20050000D03*
D32*
%TO.P,U_LATCH,15*%
%TO.N,+12V_P*%
X12000000Y-22000000D03*
%TD*%
D10*
%TO.P,R_PU1,1*%
%TO.N,CH1*%
X7887500Y-59000000D03*
%TO.P,R_PU1,2*%
%TO.N,+12V_P*%
X9712500Y-59000000D03*
%TD*%
%TO.P,R_CC2,1*%
%TO.N,USB_CC2*%
X126087500Y-18250000D03*
%TO.P,R_CC2,2*%
%TO.N,GND*%
X127912500Y-18250000D03*
%TD*%
%TO.P,R_PU3,1*%
%TO.N,CH3*%
X19887500Y-59000000D03*
%TO.P,R_PU3,2*%
%TO.N,+12V_P*%
X21712500Y-59000000D03*
%TD*%
D13*
%TO.P,R_ADDR_ALT,1*%
%TO.N,IMU_SDO*%
X116000000Y-29412500D03*
%TO.P,R_ADDR_ALT,2*%
%TO.N,+3V3*%
X116000000Y-27587500D03*
%TD*%
D10*
%TO.P,R_SH21,1*%
%TO.N,CH21*%
X131887500Y-54500000D03*
%TO.P,R_SH21,2*%
%TO.N,SNS21*%
X133712500Y-54500000D03*
%TD*%
D19*
%TO.P,C_M4,1*%
%TO.N,+3V3*%
X91050000Y-15500000D03*
%TO.P,C_M4,2*%
%TO.N,GND*%
X92950000Y-15500000D03*
%TD*%
D33*
%TO.P,D1,1*%
%TO.N,+12V_FUSED*%
X10000000Y-16000000D03*
%TO.P,D1,2*%
%TO.N,+12V_P*%
X10000000Y-12000000D03*
%TD*%
D13*
%TO.P,R_BOOT,1*%
%TO.N,BOOT0*%
X83250000Y-16412500D03*
%TO.P,R_BOOT,2*%
%TO.N,GND*%
X83250000Y-14587500D03*
%TD*%
D18*
%TO.P,U_SO2,1*%
%TO.N,DRV9*%
X62355000Y-42475000D03*
%TO.P,U_SO2,2*%
%TO.N,DRV10*%
X63625000Y-42475000D03*
%TO.P,U_SO2,3*%
%TO.N,DRV11*%
X64895000Y-42475000D03*
%TO.P,U_SO2,4*%
%TO.N,DRV12*%
X66165000Y-42475000D03*
%TO.P,U_SO2,5*%
%TO.N,DRV13*%
X67435000Y-42475000D03*
%TO.P,U_SO2,6*%
%TO.N,DRV14*%
X68705000Y-42475000D03*
%TO.P,U_SO2,7*%
%TO.N,unconnected-(U_SO2-QH-Pad7)*%
X69975000Y-42475000D03*
%TO.P,U_SO2,8*%
%TO.N,GND*%
X71245000Y-42475000D03*
%TO.P,U_SO2,9*%
%TO.N,SR_CH21*%
X71245000Y-37525000D03*
%TO.P,U_SO2,10*%
%TO.N,+3V3*%
X69975000Y-37525000D03*
%TO.P,U_SO2,11*%
%TO.N,SR_SCK*%
X68705000Y-37525000D03*
%TO.P,U_SO2,12*%
%TO.N,SR_RCLK*%
X67435000Y-37525000D03*
%TO.P,U_SO2,13*%
%TO.N,SR_OE_N*%
X66165000Y-37525000D03*
%TO.P,U_SO2,14*%
%TO.N,SR_CH32*%
X64895000Y-37525000D03*
%TO.P,U_SO2,15*%
%TO.N,DRV8*%
X63625000Y-37525000D03*
%TO.P,U_SO2,16*%
%TO.N,+3V3*%
X62355000Y-37525000D03*
%TD*%
D33*
%TO.P,D2,1*%
%TO.N,+12V_P*%
X14000000Y-16000000D03*
%TO.P,D2,2*%
%TO.N,GND*%
X14000000Y-12000000D03*
%TD*%
D10*
%TO.P,R_SH8,1*%
%TO.N,CH8*%
X51887500Y-54500000D03*
%TO.P,R_SH8,2*%
%TO.N,SNS8*%
X53712500Y-54500000D03*
%TD*%
D27*
%TO.P,U_EEP,1*%
%TO.N,EEP_CS*%
X101525000Y-31095000D03*
%TO.P,U_EEP,2*%
%TO.N,EEP_MISO*%
X101525000Y-32365000D03*
%TO.P,U_EEP,3*%
%TO.N,+3V3*%
X101525000Y-33635000D03*
%TO.P,U_EEP,4*%
%TO.N,GND*%
X101525000Y-34905000D03*
%TO.P,U_EEP,5*%
%TO.N,EEP_MOSI*%
X106475000Y-34905000D03*
%TO.P,U_EEP,6*%
%TO.N,EEP_SCK*%
X106475000Y-33635000D03*
%TO.P,U_EEP,7*%
%TO.N,+3V3*%
X106475000Y-32365000D03*
%TO.P,U_EEP,8*%
X106475000Y-31095000D03*
%TD*%
D11*
%TO.P,R_SL21,1*%
%TO.N,SNS21*%
X133712500Y-50000000D03*
%TO.P,R_SL21,2*%
%TO.N,GND*%
X131887500Y-50000000D03*
%TD*%
D21*
%TO.P,C_IMU1,1*%
%TO.N,+3V3*%
X111000000Y-25950000D03*
%TO.P,C_IMU1,2*%
%TO.N,GND*%
X111000000Y-24050000D03*
%TD*%
D10*
%TO.P,R_SH17,1*%
%TO.N,CH17*%
X107887500Y-54500000D03*
%TO.P,R_SH17,2*%
%TO.N,SNS17*%
X109712500Y-54500000D03*
%TD*%
%TO.P,R_SH12,1*%
%TO.N,CH12*%
X75887500Y-54500000D03*
%TO.P,R_SH12,2*%
%TO.N,SNS12*%
X77712500Y-54500000D03*
%TD*%
D19*
%TO.P,C_LVS,1*%
%TO.N,+12V_P*%
X12050000Y-34500000D03*
%TO.P,C_LVS,2*%
%TO.N,GND*%
X13950000Y-34500000D03*
%TD*%
D13*
%TO.P,R_AH1,1*%
%TO.N,AUX1*%
X61000000Y-11912500D03*
%TO.P,R_AH1,2*%
%TO.N,ASNS1*%
X61000000Y-10087500D03*
%TD*%
D10*
%TO.P,R_IGH,1*%
%TO.N,LATCH_IGN*%
X4087500Y-29000000D03*
%TO.P,R_IGH,2*%
%TO.N,IGN_SENSE*%
X5912500Y-29000000D03*
%TD*%
D25*
%TO.P,J_CAN2,1*%
%TO.N,CANH*%
X107000000Y-5000000D03*
D26*
%TO.P,J_CAN2,2*%
%TO.N,CANL*%
X103500000Y-5000000D03*
%TO.P,J_CAN2,3*%
%TO.N,GND*%
X100000000Y-5000000D03*
%TD*%
D10*
%TO.P,R_SH13,1*%
%TO.N,CH13*%
X81887500Y-54500000D03*
%TO.P,R_SH13,2*%
%TO.N,SNS13*%
X83712500Y-54500000D03*
%TD*%
D19*
%TO.P,C_VDDA,1*%
%TO.N,+3V3*%
X81050000Y-33000000D03*
%TO.P,C_VDDA,2*%
%TO.N,GND*%
X82950000Y-33000000D03*
%TD*%
D34*
%TO.P,C_BULK,1*%
%TO.N,+12V_P*%
X18000000Y-15475000D03*
%TO.P,C_BULK,2*%
%TO.N,GND*%
X18000000Y-12525000D03*
%TD*%
D10*
%TO.P,R_SH6,1*%
%TO.N,CH6*%
X37887500Y-54500000D03*
%TO.P,R_SH6,2*%
%TO.N,SNS6*%
X39712500Y-54500000D03*
%TD*%
%TO.P,R_TJ,1*%
%TO.N,CAN_TERM*%
X107087500Y-18000000D03*
%TO.P,R_TJ,2*%
%TO.N,CANL*%
X108912500Y-18000000D03*
%TD*%
D13*
%TO.P,R_AL1,1*%
%TO.N,ASNS1*%
X64000000Y-11912500D03*
%TO.P,R_AL1,2*%
%TO.N,GND*%
X64000000Y-10087500D03*
%TD*%
D10*
%TO.P,R_SH19,1*%
%TO.N,CH19*%
X119887500Y-54500000D03*
%TO.P,R_SH19,2*%
%TO.N,SNS19*%
X121712500Y-54500000D03*
%TD*%
D11*
%TO.P,R_SL4,1*%
%TO.N,SNS4*%
X27712500Y-50000000D03*
%TO.P,R_SL4,2*%
%TO.N,GND*%
X25887500Y-50000000D03*
%TD*%
D10*
%TO.P,R_LIGN,1*%
%TO.N,LATCH_IGN*%
X16087500Y-29000000D03*
%TO.P,R_LIGN,2*%
%TO.N,LATCH_IN*%
X17912500Y-29000000D03*
%TD*%
D11*
%TO.P,R_SL12,1*%
%TO.N,SNS12*%
X77712500Y-50000000D03*
%TO.P,R_SL12,2*%
%TO.N,GND*%
X75887500Y-50000000D03*
%TD*%
%TO.P,R_SL2,1*%
%TO.N,SNS2*%
X15712500Y-50000000D03*
%TO.P,R_SL2,2*%
%TO.N,GND*%
X13887500Y-50000000D03*
%TD*%
D21*
%TO.P,C_SI2,1*%
%TO.N,+3V3*%
X87300000Y-40950000D03*
%TO.P,C_SI2,2*%
%TO.N,GND*%
X87300000Y-39050000D03*
%TD*%
D10*
%TO.P,R_SH9,1*%
%TO.N,CH9*%
X57887500Y-54500000D03*
%TO.P,R_SH9,2*%
%TO.N,SNS9*%
X59712500Y-54500000D03*
%TD*%
D11*
%TO.P,R_SL7,1*%
%TO.N,SNS7*%
X45712500Y-50000000D03*
%TO.P,R_SL7,2*%
%TO.N,GND*%
X43887500Y-50000000D03*
%TD*%
D10*
%TO.P,R_SH14,1*%
%TO.N,CH14*%
X87887500Y-54500000D03*
%TO.P,R_SH14,2*%
%TO.N,SNS14*%
X89712500Y-54500000D03*
%TD*%
D13*
%TO.P,R_AH3,1*%
%TO.N,AUX3*%
X73000000Y-11912500D03*
%TO.P,R_AH3,2*%
%TO.N,ASNS3*%
X73000000Y-10087500D03*
%TD*%
D10*
%TO.P,R_PU15,1*%
%TO.N,CH15*%
X95887500Y-59000000D03*
%TO.P,R_PU15,2*%
%TO.N,+12V_P*%
X97712500Y-59000000D03*
%TD*%
D35*
%TO.P,J_CH3,1*%
%TO.N,CH15*%
X104300000Y-65000000D03*
D26*
%TO.P,J_CH3,2*%
%TO.N,CH16*%
X107800000Y-65000000D03*
%TO.P,J_CH3,3*%
%TO.N,CH17*%
X111300000Y-65000000D03*
%TO.P,J_CH3,4*%
%TO.N,CH18*%
X114800000Y-65000000D03*
%TO.P,J_CH3,5*%
%TO.N,CH19*%
X118300000Y-65000000D03*
%TO.P,J_CH3,6*%
%TO.N,CH20*%
X121800000Y-65000000D03*
%TO.P,J_CH3,7*%
%TO.N,CH21*%
X125300000Y-65000000D03*
%TD*%
D21*
%TO.P,C_SI1,1*%
%TO.N,+3V3*%
X43300000Y-40950000D03*
%TO.P,C_SI1,2*%
%TO.N,GND*%
X43300000Y-39050000D03*
%TD*%
D13*
%TO.P,R_OE,1*%
%TO.N,+3V3*%
X116000000Y-33912500D03*
%TO.P,R_OE,2*%
%TO.N,SR_OE_N*%
X116000000Y-32087500D03*
%TD*%
D11*
%TO.P,R_SL10,1*%
%TO.N,SNS10*%
X65712500Y-50000000D03*
%TO.P,R_SL10,2*%
%TO.N,GND*%
X63887500Y-50000000D03*
%TD*%
D10*
%TO.P,R_SH16,1*%
%TO.N,CH16*%
X101887500Y-54500000D03*
%TO.P,R_SH16,2*%
%TO.N,SNS16*%
X103712500Y-54500000D03*
%TD*%
D11*
%TO.P,R_SL9,1*%
%TO.N,SNS9*%
X59712500Y-50000000D03*
%TO.P,R_SL9,2*%
%TO.N,GND*%
X57887500Y-50000000D03*
%TD*%
D18*
%TO.P,U_SI3,1*%
%TO.N,SR_PL*%
X120355000Y-42475000D03*
%TO.P,U_SI3,2*%
%TO.N,SR_SCK*%
X121625000Y-42475000D03*
%TO.P,U_SI3,3*%
%TO.N,SNS19*%
X122895000Y-42475000D03*
%TO.P,U_SI3,4*%
%TO.N,SNS20*%
X124165000Y-42475000D03*
%TO.P,U_SI3,5*%
%TO.N,SNS21*%
X125435000Y-42475000D03*
%TO.P,U_SI3,6*%
%TO.N,ASNS3*%
X126705000Y-42475000D03*
%TO.P,U_SI3,7*%
%TO.N,unconnected-(U_SI3-~{Q7}-Pad7)*%
X127975000Y-42475000D03*
%TO.P,U_SI3,8*%
%TO.N,GND*%
X129245000Y-42475000D03*
%TO.P,U_SI3,9*%
%TO.N,SR_MISO*%
X129245000Y-37525000D03*
%TO.P,U_SI3,10*%
%TO.N,SR_DI23*%
X127975000Y-37525000D03*
%TO.P,U_SI3,11*%
%TO.N,SNS15*%
X126705000Y-37525000D03*
%TO.P,U_SI3,12*%
%TO.N,SNS16*%
X125435000Y-37525000D03*
%TO.P,U_SI3,13*%
%TO.N,SNS17*%
X124165000Y-37525000D03*
%TO.P,U_SI3,14*%
%TO.N,SNS18*%
X122895000Y-37525000D03*
%TO.P,U_SI3,15*%
%TO.N,GND*%
X121625000Y-37525000D03*
%TO.P,U_SI3,16*%
%TO.N,+3V3*%
X120355000Y-37525000D03*
%TD*%
D21*
%TO.P,C_IMU2,1*%
%TO.N,+3V3*%
X111000000Y-29450000D03*
%TO.P,C_IMU2,2*%
%TO.N,GND*%
X111000000Y-27550000D03*
%TD*%
D10*
%TO.P,R_SH15,1*%
%TO.N,CH15*%
X95887500Y-54500000D03*
%TO.P,R_SH15,2*%
%TO.N,SNS15*%
X97712500Y-54500000D03*
%TD*%
%TO.P,R_TERM,1*%
%TO.N,CANH*%
X102087500Y-18000000D03*
%TO.P,R_TERM,2*%
%TO.N,CAN_TERM*%
X103912500Y-18000000D03*
%TD*%
D13*
%TO.P,R_SDA,1*%
%TO.N,+3V3*%
X121000000Y-25912500D03*
%TO.P,R_SDA,2*%
%TO.N,IMU_SDA*%
X121000000Y-24087500D03*
%TD*%
%TO.P,R_SCL,1*%
%TO.N,+3V3*%
X121000000Y-29412500D03*
%TO.P,R_SCL,2*%
%TO.N,IMU_SCL*%
X121000000Y-27587500D03*
%TD*%
D19*
%TO.P,C_M1,1*%
%TO.N,+3V3*%
X73050000Y-15500000D03*
%TO.P,C_M1,2*%
%TO.N,GND*%
X74950000Y-15500000D03*
%TD*%
D10*
%TO.P,R_SH1,1*%
%TO.N,CH1*%
X7887500Y-54500000D03*
%TO.P,R_SH1,2*%
%TO.N,SNS1*%
X9712500Y-54500000D03*
%TD*%
D36*
%TO.P,U_LDO,1*%
%TO.N,GND*%
X24850000Y-28700000D03*
%TO.P,U_LDO,2*%
%TO.N,+3V3*%
X24850000Y-31000000D03*
D37*
X31150000Y-31000000D03*
D36*
%TO.P,U_LDO,3*%
%TO.N,+5V*%
X24850000Y-33300000D03*
%TD*%
D10*
%TO.P,R_SH7,1*%
%TO.N,CH7*%
X43887500Y-54500000D03*
%TO.P,R_SH7,2*%
%TO.N,SNS7*%
X45712500Y-54500000D03*
%TD*%
D21*
%TO.P,C_SO3,1*%
%TO.N,+3V3*%
X117300000Y-40950000D03*
%TO.P,C_SO3,2*%
%TO.N,GND*%
X117300000Y-39050000D03*
%TD*%
D11*
%TO.P,R_SL20,1*%
%TO.N,SNS20*%
X127712500Y-50000000D03*
%TO.P,R_SL20,2*%
%TO.N,GND*%
X125887500Y-50000000D03*
%TD*%
D35*
%TO.P,J_CH1,1*%
%TO.N,CH1*%
X16300000Y-65000000D03*
D26*
%TO.P,J_CH1,2*%
%TO.N,CH2*%
X19800000Y-65000000D03*
%TO.P,J_CH1,3*%
%TO.N,CH3*%
X23300000Y-65000000D03*
%TO.P,J_CH1,4*%
%TO.N,CH4*%
X26800000Y-65000000D03*
%TO.P,J_CH1,5*%
%TO.N,CH5*%
X30300000Y-65000000D03*
%TO.P,J_CH1,6*%
%TO.N,CH6*%
X33800000Y-65000000D03*
%TO.P,J_CH1,7*%
%TO.N,CH7*%
X37300000Y-65000000D03*
%TD*%
D11*
%TO.P,R_SL14,1*%
%TO.N,SNS14*%
X89712500Y-50000000D03*
%TO.P,R_SL14,2*%
%TO.N,GND*%
X87887500Y-50000000D03*
%TD*%
D19*
%TO.P,C_MB,1*%
%TO.N,+3V3*%
X100050000Y-20000000D03*
%TO.P,C_MB,2*%
%TO.N,GND*%
X101950000Y-20000000D03*
%TD*%
D10*
%TO.P,R_PU5,1*%
%TO.N,CH5*%
X31887500Y-59000000D03*
%TO.P,R_PU5,2*%
%TO.N,+12V_P*%
X33712500Y-59000000D03*
%TD*%
%TO.P,R_PU9,1*%
%TO.N,CH9*%
X57887500Y-59000000D03*
%TO.P,R_PU9,2*%
%TO.N,+12V_P*%
X59712500Y-59000000D03*
%TD*%
D25*
%TO.P,J_PWR,1*%
%TO.N,+12V_IN*%
X36500000Y-5000000D03*
D26*
%TO.P,J_PWR,2*%
%TO.N,GND*%
X33000000Y-5000000D03*
%TD*%
D18*
%TO.P,U_SI2,1*%
%TO.N,SR_PL*%
X76355000Y-42475000D03*
%TO.P,U_SI2,2*%
%TO.N,SR_SCK*%
X77625000Y-42475000D03*
%TO.P,U_SI2,3*%
%TO.N,SNS12*%
X78895000Y-42475000D03*
%TO.P,U_SI2,4*%
%TO.N,SNS13*%
X80165000Y-42475000D03*
%TO.P,U_SI2,5*%
%TO.N,SNS14*%
X81435000Y-42475000D03*
%TO.P,U_SI2,6*%
%TO.N,ASNS2*%
X82705000Y-42475000D03*
%TO.P,U_SI2,7*%
%TO.N,unconnected-(U_SI2-~{Q7}-Pad7)*%
X83975000Y-42475000D03*
%TO.P,U_SI2,8*%
%TO.N,GND*%
X85245000Y-42475000D03*
%TO.P,U_SI2,9*%
%TO.N,SR_DI23*%
X85245000Y-37525000D03*
%TO.P,U_SI2,10*%
%TO.N,SR_DI12*%
X83975000Y-37525000D03*
%TO.P,U_SI2,11*%
%TO.N,SNS8*%
X82705000Y-37525000D03*
%TO.P,U_SI2,12*%
%TO.N,SNS9*%
X81435000Y-37525000D03*
%TO.P,U_SI2,13*%
%TO.N,SNS10*%
X80165000Y-37525000D03*
%TO.P,U_SI2,14*%
%TO.N,SNS11*%
X78895000Y-37525000D03*
%TO.P,U_SI2,15*%
%TO.N,GND*%
X77625000Y-37525000D03*
%TO.P,U_SI2,16*%
%TO.N,+3V3*%
X76355000Y-37525000D03*
%TD*%
D10*
%TO.P,R_PU16,1*%
%TO.N,CH16*%
X101887500Y-59000000D03*
%TO.P,R_PU16,2*%
%TO.N,+12V_P*%
X103712500Y-59000000D03*
%TD*%
D21*
%TO.P,C_CAN,1*%
%TO.N,+3V3*%
X110000000Y-12950000D03*
%TO.P,C_CAN,2*%
%TO.N,GND*%
X110000000Y-11050000D03*
%TD*%
D23*
%TO.P,J_BOOT,1*%
%TO.N,+3V3*%
X56500000Y-30000000D03*
D24*
%TO.P,J_BOOT,2*%
%TO.N,BOOT0*%
X59040000Y-30000000D03*
%TO.P,J_BOOT,3*%
%TO.N,GND*%
X61580000Y-30000000D03*
%TD*%
D10*
%TO.P,R_PU17,1*%
%TO.N,CH17*%
X107887500Y-59000000D03*
%TO.P,R_PU17,2*%
%TO.N,+12V_P*%
X109712500Y-59000000D03*
%TD*%
D11*
%TO.P,R_SL15,1*%
%TO.N,SNS15*%
X97712500Y-50000000D03*
%TO.P,R_SL15,2*%
%TO.N,GND*%
X95887500Y-50000000D03*
%TD*%
D23*
%TO.P,JB2,1*%
%TO.N,+5V*%
X57400000Y-13700000D03*
D24*
X57400000Y-16240000D03*
X57400000Y-18780000D03*
%TO.P,JB2,2*%
%TO.N,GND*%
X57400000Y-21320000D03*
X57400000Y-23860000D03*
X57400000Y-26400000D03*
%TD*%
D21*
%TO.P,C_NRST,1*%
%TO.N,NRST*%
X95500000Y-22950000D03*
%TO.P,C_NRST,2*%
%TO.N,GND*%
X95500000Y-21050000D03*
%TD*%
D11*
%TO.P,R_SL5,1*%
%TO.N,SNS5*%
X33712500Y-50000000D03*
%TO.P,R_SL5,2*%
%TO.N,GND*%
X31887500Y-50000000D03*
%TD*%
D10*
%TO.P,R_SH20,1*%
%TO.N,CH20*%
X125887500Y-54500000D03*
%TO.P,R_SH20,2*%
%TO.N,SNS20*%
X127712500Y-54500000D03*
%TD*%
D38*
%TO.P,U_MCU,1*%
%TO.N,+3V3*%
X79325000Y-20250000D03*
%TO.P,U_MCU,2*%
%TO.N,unconnected-(U_MCU-PC13-Pad2)*%
X79325000Y-20750000D03*
%TO.P,U_MCU,3*%
%TO.N,LSE_IN*%
X79325000Y-21250000D03*
%TO.P,U_MCU,4*%
%TO.N,LSE_OUT*%
X79325000Y-21750000D03*
%TO.P,U_MCU,5*%
%TO.N,HSE_IN*%
X79325000Y-22250000D03*
%TO.P,U_MCU,6*%
%TO.N,HSE_OUT*%
X79325000Y-22750000D03*
%TO.P,U_MCU,7*%
%TO.N,NRST*%
X79325000Y-23250000D03*
%TO.P,U_MCU,8*%
%TO.N,unconnected-(U_MCU-PC0-Pad8)*%
X79325000Y-23750000D03*
%TO.P,U_MCU,9*%
%TO.N,unconnected-(U_MCU-PC1-Pad9)*%
X79325000Y-24250000D03*
%TO.P,U_MCU,10*%
%TO.N,unconnected-(U_MCU-PC2-Pad10)*%
X79325000Y-24750000D03*
%TO.P,U_MCU,11*%
%TO.N,unconnected-(U_MCU-PC3-Pad11)*%
X79325000Y-25250000D03*
%TO.P,U_MCU,12*%
%TO.N,GND*%
X79325000Y-25750000D03*
%TO.P,U_MCU,13*%
%TO.N,+3V3*%
X79325000Y-26250000D03*
%TO.P,U_MCU,14*%
%TO.N,IGN_SENSE*%
X79325000Y-26750000D03*
%TO.P,U_MCU,15*%
%TO.N,IMU_INT1*%
X79325000Y-27250000D03*
%TO.P,U_MCU,16*%
%TO.N,unconnected-(U_MCU-PA2-Pad16)*%
X79325000Y-27750000D03*
D39*
%TO.P,U_MCU,17*%
%TO.N,unconnected-(U_MCU-PA3-Pad17)*%
X81250000Y-29675000D03*
%TO.P,U_MCU,18*%
%TO.N,GND*%
X81750000Y-29675000D03*
%TO.P,U_MCU,19*%
%TO.N,+3V3*%
X82250000Y-29675000D03*
%TO.P,U_MCU,20*%
%TO.N,unconnected-(U_MCU-PA4-Pad20)*%
X82750000Y-29675000D03*
%TO.P,U_MCU,21*%
%TO.N,SR_SCK*%
X83250000Y-29675000D03*
%TO.P,U_MCU,22*%
%TO.N,SR_MISO*%
X83750000Y-29675000D03*
%TO.P,U_MCU,23*%
%TO.N,SR_MOSI*%
X84250000Y-29675000D03*
%TO.P,U_MCU,24*%
%TO.N,unconnected-(U_MCU-PC4-Pad24)*%
X84750000Y-29675000D03*
%TO.P,U_MCU,25*%
%TO.N,unconnected-(U_MCU-PC5-Pad25)*%
X85250000Y-29675000D03*
%TO.P,U_MCU,26*%
%TO.N,SR_RCLK*%
X85750000Y-29675000D03*
%TO.P,U_MCU,27*%
%TO.N,SR_PL*%
X86250000Y-29675000D03*
%TO.P,U_MCU,28*%
%TO.N,SR_OE_N*%
X86750000Y-29675000D03*
%TO.P,U_MCU,29*%
%TO.N,LATCH_HOLD*%
X87250000Y-29675000D03*
%TO.P,U_MCU,30*%
%TO.N,VCAP1*%
X87750000Y-29675000D03*
%TO.P,U_MCU,31*%
%TO.N,GND*%
X88250000Y-29675000D03*
%TO.P,U_MCU,32*%
%TO.N,+3V3*%
X88750000Y-29675000D03*
D38*
%TO.P,U_MCU,33*%
%TO.N,EEP_CS*%
X90675000Y-27750000D03*
%TO.P,U_MCU,34*%
%TO.N,EEP_SCK*%
X90675000Y-27250000D03*
%TO.P,U_MCU,35*%
%TO.N,EEP_MISO*%
X90675000Y-26750000D03*
%TO.P,U_MCU,36*%
%TO.N,EEP_MOSI*%
X90675000Y-26250000D03*
%TO.P,U_MCU,37*%
%TO.N,unconnected-(U_MCU-PC6-Pad37)*%
X90675000Y-25750000D03*
%TO.P,U_MCU,38*%
%TO.N,unconnected-(U_MCU-PC7-Pad38)*%
X90675000Y-25250000D03*
%TO.P,U_MCU,39*%
%TO.N,unconnected-(U_MCU-PC8-Pad39)*%
X90675000Y-24750000D03*
%TO.P,U_MCU,40*%
%TO.N,unconnected-(U_MCU-PC9-Pad40)*%
X90675000Y-24250000D03*
%TO.P,U_MCU,41*%
%TO.N,LED1*%
X90675000Y-23750000D03*
%TO.P,U_MCU,42*%
%TO.N,unconnected-(U_MCU-PA9-Pad42)*%
X90675000Y-23250000D03*
%TO.P,U_MCU,43*%
%TO.N,unconnected-(U_MCU-PA10-Pad43)*%
X90675000Y-22750000D03*
%TO.P,U_MCU,44*%
%TO.N,USB_DM*%
X90675000Y-22250000D03*
%TO.P,U_MCU,45*%
%TO.N,USB_DP*%
X90675000Y-21750000D03*
%TO.P,U_MCU,46*%
%TO.N,SWDIO*%
X90675000Y-21250000D03*
%TO.P,U_MCU,47*%
%TO.N,GND*%
X90675000Y-20750000D03*
%TO.P,U_MCU,48*%
%TO.N,+3V3*%
X90675000Y-20250000D03*
D39*
%TO.P,U_MCU,49*%
%TO.N,SWCLK*%
X88750000Y-18325000D03*
%TO.P,U_MCU,50*%
%TO.N,unconnected-(U_MCU-PA15-Pad50)*%
X88250000Y-18325000D03*
%TO.P,U_MCU,51*%
%TO.N,unconnected-(U_MCU-PC10-Pad51)*%
X87750000Y-18325000D03*
%TO.P,U_MCU,52*%
%TO.N,unconnected-(U_MCU-PC11-Pad52)*%
X87250000Y-18325000D03*
%TO.P,U_MCU,53*%
%TO.N,unconnected-(U_MCU-PC12-Pad53)*%
X86750000Y-18325000D03*
%TO.P,U_MCU,54*%
%TO.N,unconnected-(U_MCU-PD2-Pad54)*%
X86250000Y-18325000D03*
%TO.P,U_MCU,55*%
%TO.N,unconnected-(U_MCU-PB3-Pad55)*%
X85750000Y-18325000D03*
%TO.P,U_MCU,56*%
%TO.N,unconnected-(U_MCU-PB4-Pad56)*%
X85250000Y-18325000D03*
%TO.P,U_MCU,57*%
%TO.N,LED2*%
X84750000Y-18325000D03*
%TO.P,U_MCU,58*%
%TO.N,IMU_SCL*%
X84250000Y-18325000D03*
%TO.P,U_MCU,59*%
%TO.N,IMU_SDA*%
X83750000Y-18325000D03*
%TO.P,U_MCU,60*%
%TO.N,BOOT0*%
X83250000Y-18325000D03*
%TO.P,U_MCU,61*%
%TO.N,CAN_RX*%
X82750000Y-18325000D03*
%TO.P,U_MCU,62*%
%TO.N,CAN_TX*%
X82250000Y-18325000D03*
%TO.P,U_MCU,63*%
%TO.N,GND*%
X81750000Y-18325000D03*
%TO.P,U_MCU,64*%
%TO.N,+3V3*%
X81250000Y-18325000D03*
%TD*%
D23*
%TO.P,JB1,1*%
%TO.N,+12V_SW*%
X29600000Y-15600000D03*
D24*
X29600000Y-19100000D03*
%TO.P,JB1,2*%
%TO.N,GND*%
X29600000Y-22600000D03*
X29600000Y-26100000D03*
%TD*%
D11*
%TO.P,R_SL8,1*%
%TO.N,SNS8*%
X53712500Y-50000000D03*
%TO.P,R_SL8,2*%
%TO.N,GND*%
X51887500Y-50000000D03*
%TD*%
D21*
%TO.P,C_3V3O,1*%
%TO.N,+3V3*%
X43000000Y-31950000D03*
%TO.P,C_3V3O,2*%
%TO.N,GND*%
X43000000Y-30050000D03*
%TD*%
D10*
%TO.P,R_LED2,1*%
%TO.N,LED2*%
X27087500Y-9000000D03*
%TO.P,R_LED2,2*%
%TO.N,LED2_A*%
X28912500Y-9000000D03*
%TD*%
%TO.P,R_LG,1*%
%TO.N,LATCH_GND*%
X8087500Y-29000000D03*
%TO.P,R_LG,2*%
%TO.N,GND*%
X9912500Y-29000000D03*
%TD*%
%TO.P,R_SH2,1*%
%TO.N,CH2*%
X13887500Y-54500000D03*
%TO.P,R_SH2,2*%
%TO.N,SNS2*%
X15712500Y-54500000D03*
%TD*%
%TO.P,R_PU8,1*%
%TO.N,CH8*%
X51887500Y-59000000D03*
%TO.P,R_PU8,2*%
%TO.N,+12V_P*%
X53712500Y-59000000D03*
%TD*%
D19*
%TO.P,C_Y2A,1*%
%TO.N,LSE_IN*%
X70050000Y-19500000D03*
%TO.P,C_Y2A,2*%
%TO.N,GND*%
X71950000Y-19500000D03*
%TD*%
D21*
%TO.P,C_SO2,1*%
%TO.N,+3V3*%
X73300000Y-40950000D03*
%TO.P,C_SO2,2*%
%TO.N,GND*%
X73300000Y-39050000D03*
%TD*%
D10*
%TO.P,R_PU14,1*%
%TO.N,CH14*%
X87887500Y-59000000D03*
%TO.P,R_PU14,2*%
%TO.N,+12V_P*%
X89712500Y-59000000D03*
%TD*%
D21*
%TO.P,C_SO1,1*%
%TO.N,+3V3*%
X29300000Y-40950000D03*
%TO.P,C_SO1,2*%
%TO.N,GND*%
X29300000Y-39050000D03*
%TD*%
D10*
%TO.P,R_LED1,1*%
%TO.N,LED1*%
X22087500Y-9000000D03*
%TO.P,R_LED1,2*%
%TO.N,LED1_A*%
X23912500Y-9000000D03*
%TD*%
%TO.P,R_LHOLD,1*%
%TO.N,LATCH_HOLD*%
X8087500Y-34500000D03*
%TO.P,R_LHOLD,2*%
%TO.N,LATCH_IN*%
X9912500Y-34500000D03*
%TD*%
D11*
%TO.P,R_SL3,1*%
%TO.N,SNS3*%
X21712500Y-50000000D03*
%TO.P,R_SL3,2*%
%TO.N,GND*%
X19887500Y-50000000D03*
%TD*%
D40*
%TO.P,SW_RST,1*%
%TO.N,NRST*%
X46850000Y-30100000D03*
X53150000Y-30100000D03*
%TO.P,SW_RST,2*%
%TO.N,GND*%
X46850000Y-33900000D03*
X53150000Y-33900000D03*
%TD*%
D10*
%TO.P,R_PU13,1*%
%TO.N,CH13*%
X81887500Y-59000000D03*
%TO.P,R_PU13,2*%
%TO.N,+12V_P*%
X83712500Y-59000000D03*
%TD*%
%TO.P,R_IGL,1*%
%TO.N,IGN_SENSE*%
X4087500Y-34500000D03*
%TO.P,R_IGL,2*%
%TO.N,GND*%
X5912500Y-34500000D03*
%TD*%
%TO.P,R_PU11,1*%
%TO.N,CH11*%
X69887500Y-59000000D03*
%TO.P,R_PU11,2*%
%TO.N,+12V_P*%
X71712500Y-59000000D03*
%TD*%
D41*
%TO.P,D_CAN,1*%
%TO.N,CANH*%
X117062500Y-17050000D03*
%TO.P,D_CAN,2*%
%TO.N,CANL*%
X117062500Y-18950000D03*
%TO.P,D_CAN,3*%
%TO.N,GND*%
X118937500Y-18000000D03*
%TD*%
D11*
%TO.P,R_SL16,1*%
%TO.N,SNS16*%
X103712500Y-50000000D03*
%TO.P,R_SL16,2*%
%TO.N,GND*%
X101887500Y-50000000D03*
%TD*%
D18*
%TO.P,U_SO1,1*%
%TO.N,DRV2*%
X18355000Y-42475000D03*
%TO.P,U_SO1,2*%
%TO.N,DRV3*%
X19625000Y-42475000D03*
%TO.P,U_SO1,3*%
%TO.N,DRV4*%
X20895000Y-42475000D03*
%TO.P,U_SO1,4*%
%TO.N,DRV5*%
X22165000Y-42475000D03*
%TO.P,U_SO1,5*%
%TO.N,DRV6*%
X23435000Y-42475000D03*
%TO.P,U_SO1,6*%
%TO.N,DRV7*%
X24705000Y-42475000D03*
%TO.P,U_SO1,7*%
%TO.N,unconnected-(U_SO1-QH-Pad7)*%
X25975000Y-42475000D03*
%TO.P,U_SO1,8*%
%TO.N,GND*%
X27245000Y-42475000D03*
%TO.P,U_SO1,9*%
%TO.N,unconnected-(U_SO1-QH'-Pad9)*%
X27245000Y-37525000D03*
%TO.P,U_SO1,10*%
%TO.N,+3V3*%
X25975000Y-37525000D03*
%TO.P,U_SO1,11*%
%TO.N,SR_SCK*%
X24705000Y-37525000D03*
%TO.P,U_SO1,12*%
%TO.N,SR_RCLK*%
X23435000Y-37525000D03*
%TO.P,U_SO1,13*%
%TO.N,SR_OE_N*%
X22165000Y-37525000D03*
%TO.P,U_SO1,14*%
%TO.N,SR_CH21*%
X20895000Y-37525000D03*
%TO.P,U_SO1,15*%
%TO.N,DRV1*%
X19625000Y-37525000D03*
%TO.P,U_SO1,16*%
%TO.N,+3V3*%
X18355000Y-37525000D03*
%TD*%
D10*
%TO.P,R_PU12,1*%
%TO.N,CH12*%
X75887500Y-59000000D03*
%TO.P,R_PU12,2*%
%TO.N,+12V_P*%
X77712500Y-59000000D03*
%TD*%
%TO.P,R_SH18,1*%
%TO.N,CH18*%
X113887500Y-54500000D03*
%TO.P,R_SH18,2*%
%TO.N,SNS18*%
X115712500Y-54500000D03*
%TD*%
D13*
%TO.P,R_AH2,1*%
%TO.N,AUX2*%
X67000000Y-11912500D03*
%TO.P,R_AH2,2*%
%TO.N,ASNS2*%
X67000000Y-10087500D03*
%TD*%
D19*
%TO.P,C_Y1B,1*%
%TO.N,HSE_OUT*%
X65050000Y-28500000D03*
%TO.P,C_Y1B,2*%
%TO.N,GND*%
X66950000Y-28500000D03*
%TD*%
%TO.P,C_M2,1*%
%TO.N,+3V3*%
X78050000Y-15500000D03*
%TO.P,C_M2,2*%
%TO.N,GND*%
X79950000Y-15500000D03*
%TD*%
D35*
%TO.P,J_CH2,1*%
%TO.N,CH8*%
X60300000Y-65000000D03*
D26*
%TO.P,J_CH2,2*%
%TO.N,CH9*%
X63800000Y-65000000D03*
%TO.P,J_CH2,3*%
%TO.N,CH10*%
X67300000Y-65000000D03*
%TO.P,J_CH2,4*%
%TO.N,CH11*%
X70800000Y-65000000D03*
%TO.P,J_CH2,5*%
%TO.N,CH12*%
X74300000Y-65000000D03*
%TO.P,J_CH2,6*%
%TO.N,CH13*%
X77800000Y-65000000D03*
%TO.P,J_CH2,7*%
%TO.N,CH14*%
X81300000Y-65000000D03*
%TD*%
D25*
%TO.P,J_CAN1,1*%
%TO.N,CANH*%
X88500000Y-5000000D03*
D26*
%TO.P,J_CAN1,2*%
%TO.N,CANL*%
X85000000Y-5000000D03*
%TO.P,J_CAN1,3*%
%TO.N,GND*%
X81500000Y-5000000D03*
%TD*%
D11*
%TO.P,R_SL17,1*%
%TO.N,SNS17*%
X109712500Y-50000000D03*
%TO.P,R_SL17,2*%
%TO.N,GND*%
X107887500Y-50000000D03*
%TD*%
D10*
%TO.P,R_SH5,1*%
%TO.N,CH5*%
X31887500Y-54500000D03*
%TO.P,R_SH5,2*%
%TO.N,SNS5*%
X33712500Y-54500000D03*
%TD*%
%TO.P,R_PU21,1*%
%TO.N,CH21*%
X131887500Y-59000000D03*
%TO.P,R_PU21,2*%
%TO.N,+12V_P*%
X133712500Y-59000000D03*
%TD*%
%TO.P,R_SH10,1*%
%TO.N,CH10*%
X63887500Y-54500000D03*
%TO.P,R_SH10,2*%
%TO.N,SNS10*%
X65712500Y-54500000D03*
%TD*%
D25*
%TO.P,J_IGN,1*%
%TO.N,LATCH_IGN*%
X51500000Y-5000000D03*
D26*
%TO.P,J_IGN,2*%
%TO.N,GND*%
X48000000Y-5000000D03*
%TD*%
D19*
%TO.P,C_VCAP,1*%
%TO.N,VCAP1*%
X87050000Y-33000000D03*
%TO.P,C_VCAP,2*%
%TO.N,GND*%
X88950000Y-33000000D03*
%TD*%
D10*
%TO.P,R_RS,1*%
%TO.N,CAN_RS*%
X112087500Y-18000000D03*
%TO.P,R_RS,2*%
%TO.N,GND*%
X113912500Y-18000000D03*
%TD*%
D21*
%TO.P,C_EEP,1*%
%TO.N,+3V3*%
X110000000Y-33950000D03*
%TO.P,C_EEP,2*%
%TO.N,GND*%
X110000000Y-32050000D03*
%TD*%
D10*
%TO.P,R_PU7,1*%
%TO.N,CH7*%
X43887500Y-59000000D03*
%TO.P,R_PU7,2*%
%TO.N,+12V_P*%
X45712500Y-59000000D03*
%TD*%
D11*
%TO.P,R_SL19,1*%
%TO.N,SNS19*%
X121712500Y-50000000D03*
%TO.P,R_SL19,2*%
%TO.N,GND*%
X119887500Y-50000000D03*
%TD*%
D42*
%TO.P,Y1,1*%
%TO.N,HSE_IN*%
X76000000Y-28850000D03*
%TO.P,Y1,2*%
%TO.N,HSE_OUT*%
X76000000Y-25150000D03*
%TD*%
D43*
%TO.N,CH10*%
X61649800Y-59151300D03*
X57271800Y-39025000D03*
%TO.N,+12V_P*%
X13187600Y-57601400D03*
X11003500Y-34444600D03*
X57408400Y-41931300D03*
X12828000Y-41321000D03*
X11029000Y-58976900D03*
X55378400Y-57941800D03*
%TO.N,SNS1*%
X38662900Y-39014000D03*
X10760600Y-50089400D03*
%TO.N,GND*%
X132194800Y-38155200D03*
X129689000Y-51087500D03*
X77985600Y-24348600D03*
X72858400Y-42398100D03*
X79746800Y-34305800D03*
X125614300Y-48789800D03*
X76665500Y-27290800D03*
X66990000Y-48924900D03*
X97863000Y-16943200D03*
X84266300Y-36021900D03*
X95399400Y-19445600D03*
X81750000Y-19612700D03*
%TO.N,ASNS3*%
X98431800Y-12123200D03*
X125323100Y-40987100D03*
%TO.N,USB_VBUS*%
X130892400Y-22400000D03*
X130889900Y-17600000D03*
%TO.N,USB_DP*%
X98222600Y-19429800D03*
X94406600Y-21750000D03*
%TO.N,USB_DM*%
X89397400Y-22250000D03*
X129741800Y-20647000D03*
%TO.N,DRV17*%
X110800000Y-43742800D03*
X93864500Y-41845000D03*
%TO.N,DRV18*%
X98314600Y-39675000D03*
X103911900Y-38612100D03*
%TO.N,DRV19*%
X99455800Y-45032200D03*
X103865000Y-44215000D03*
%TO.N,DRV20*%
X105548000Y-38394100D03*
X95669800Y-40605100D03*
%TO.N,DRV21*%
X95682400Y-41878300D03*
X105643700Y-39815700D03*
%TO.N,SR_CH32*%
X68671100Y-39906700D03*
X112243500Y-35976400D03*
%TO.N,+3V3*%
X69321500Y-36082200D03*
X63977700Y-35918300D03*
%TO.N,SR_SCK*%
X117014100Y-36204200D03*
X88797200Y-34354300D03*
X33625000Y-43956300D03*
X123331000Y-40974200D03*
X41839200Y-44759700D03*
X30602500Y-36181800D03*
%TO.N,SR_RCLK*%
X84807300Y-28088700D03*
X112185400Y-32248200D03*
%TO.N,SR_OE_N*%
X22724600Y-36139200D03*
X86027100Y-28100400D03*
X67169200Y-39025700D03*
X114580100Y-32726400D03*
%TO.N,SR_MOSI*%
X108817900Y-36029000D03*
X85748000Y-33565400D03*
%TO.N,CH4*%
X15974500Y-39675000D03*
X19215800Y-56658600D03*
%TO.N,LATCH_IN*%
X18817000Y-28095500D03*
X11070100Y-28387400D03*
%TO.N,CH19*%
X116289300Y-55710000D03*
X102288300Y-43073000D03*
%TO.N,SNS18*%
X117085300Y-50000000D03*
X120108100Y-39927300D03*
%TO.N,CH3*%
X13461800Y-56686100D03*
X13400600Y-39025000D03*
%TO.N,SNS3*%
X27074700Y-52250000D03*
X35616400Y-39728600D03*
%TO.N,DRV7*%
X9289100Y-36669700D03*
X12227600Y-44600200D03*
%TO.N,CH7*%
X17168000Y-41682800D03*
%TO.N,CH6*%
X16978900Y-40861100D03*
%TO.N,CH5*%
X16787900Y-40036400D03*
%TO.N,CH2*%
X12617600Y-38375000D03*
%TO.N,CH1*%
X15896900Y-37336300D03*
%TO.N,SWDIO*%
X82369300Y-21306900D03*
%TO.N,SWCLK*%
X89410500Y-18077500D03*
%TO.N,NRST*%
X93573500Y-23375500D03*
X81086700Y-23577900D03*
%TO.N,CH18*%
X112832200Y-59151300D03*
X102255300Y-43893200D03*
%TO.N,HSE_IN*%
X80622200Y-21972700D03*
X73549400Y-28386400D03*
%TO.N,AUX1*%
X59984700Y-11055200D03*
%TO.N,AUX2*%
X66004700Y-11055200D03*
%TO.N,AUX3*%
X71041300Y-11055200D03*
%TO.N,CH21*%
X103975700Y-41625000D03*
%TO.N,CH20*%
X117852500Y-56823600D03*
X104318600Y-42835000D03*
%TO.N,CH17*%
X105796500Y-54012500D03*
X100977200Y-44015600D03*
%TO.N,CH16*%
X102504800Y-55677400D03*
%TO.N,CH15*%
X94352000Y-54500000D03*
%TO.N,SR_PL*%
X70080300Y-46035300D03*
X122601900Y-44483300D03*
X85095200Y-32963600D03*
%TO.N,ASNS1*%
X58192400Y-10013600D03*
X40197900Y-45058400D03*
%TO.N,SR_DI12*%
X61991700Y-36022000D03*
X82246400Y-35957600D03*
%TO.N,SNS4*%
X29104000Y-50000000D03*
X34709100Y-39314300D03*
%TO.N,CAN_TX*%
X94153900Y-11521400D03*
X81134800Y-16883800D03*
%TO.N,CAN_RX*%
X93736200Y-19640000D03*
X96881200Y-14096100D03*
%TO.N,CANH*%
X105796500Y-15910400D03*
%TO.N,CAN_RS*%
X110574600Y-7212500D03*
X110922500Y-18191500D03*
%TO.N,CH11*%
X60573400Y-39675000D03*
X68591400Y-59398800D03*
X69887500Y-52724100D03*
%TO.N,SNS11*%
X77694600Y-39701400D03*
X72745100Y-50000000D03*
%TO.N,IMU_SDO*%
X112550100Y-28480400D03*
X103862100Y-24616400D03*
%TO.N,IMU_INT1*%
X103844700Y-28526300D03*
X81733700Y-27248400D03*
%TO.N,IMU_SDA*%
X83750000Y-19602800D03*
X100479500Y-21950300D03*
X99819500Y-24007200D03*
%TO.N,ASNS2*%
X82705000Y-39005500D03*
X72042100Y-12849600D03*
X68078400Y-29887000D03*
X77716600Y-29339200D03*
%TO.N,CH14*%
X60568000Y-41727200D03*
%TO.N,CH13*%
X60952700Y-40975000D03*
%TO.N,CH12*%
X59922100Y-40325000D03*
%TO.N,CH9*%
X59906900Y-38934700D03*
X58726800Y-55967500D03*
%TO.N,CH8*%
X58122600Y-56887000D03*
X59928500Y-37725000D03*
%TO.N,BOOT0*%
X82028000Y-16609600D03*
%TO.N,SR_CH21*%
X70319800Y-36038900D03*
X49119500Y-23827100D03*
%TO.N,SNS8*%
X79847000Y-40685900D03*
X69103800Y-46517800D03*
%TO.N,EEP_SCK*%
X104208600Y-30300800D03*
X100123900Y-28631100D03*
%TO.N,SNS17*%
X121689400Y-39874800D03*
X115099100Y-51851500D03*
%TO.N,LATCH_IGN*%
X8187000Y-27617800D03*
X16087500Y-27764800D03*
%TO.N,IGN_SENSE*%
X9313100Y-30511600D03*
X27313700Y-25059500D03*
%TO.N,SNS10*%
X68203000Y-50000000D03*
X76892800Y-40303100D03*
%TO.N,SR_MISO*%
X85063600Y-31572100D03*
X117225400Y-33971500D03*
%TO.N,SR_DI23*%
X87950100Y-37525000D03*
X118529000Y-35373700D03*
%TO.N,SNS15*%
X98947200Y-50156200D03*
X98179300Y-53279700D03*
X122484200Y-39228200D03*
%TO.N,LATCH_HOLD*%
X10763900Y-32767000D03*
X83982100Y-26968500D03*
%TO.N,LED1*%
X57200200Y-12244500D03*
X87658900Y-23750000D03*
%TO.N,LED2*%
X84750000Y-17031400D03*
X71819700Y-14306200D03*
%TD*%
%TO.N,CH10*%
D44*
X58662500Y-39025000D02*
X57271800Y-39025000D01*
X63887500Y-59000000D02*
X63887500Y-54500000D01*
X63736200Y-59151300D02*
X63887500Y-59000000D01*
X61649800Y-59151300D02*
X63736200Y-59151300D01*
%TO.N,+12V_P*%
X76700500Y-57988000D02*
X72724500Y-57988000D01*
X89712500Y-57993500D02*
X97712500Y-57993500D01*
X77712500Y-59000000D02*
X76700500Y-57988000D01*
X102904300Y-42516800D02*
X102904300Y-46411500D01*
X110715200Y-60002700D02*
X114709800Y-60002700D01*
X104715200Y-57997300D02*
X103712500Y-59000000D01*
X38233600Y-66478900D02*
X29691300Y-66478900D01*
X128724500Y-57988000D02*
X127712500Y-59000000D01*
X9735600Y-58976900D02*
X9712500Y-59000000D01*
X70709800Y-60002700D02*
X72550100Y-61843000D01*
X53712500Y-59000000D02*
X52709800Y-60002700D01*
X60715200Y-60002700D02*
X59712500Y-59000000D01*
X126693200Y-57980700D02*
X127712500Y-59000000D01*
X45712500Y-59000000D02*
X44700500Y-57988000D01*
X114709800Y-60002700D02*
X115712500Y-59000000D01*
X84719000Y-57993500D02*
X89712500Y-57993500D01*
X72550100Y-61843000D02*
X72550100Y-65361700D01*
X54770700Y-57941800D02*
X55378400Y-57941800D01*
X115712500Y-59000000D02*
X116731800Y-57980700D01*
X71712500Y-59000000D02*
X70709800Y-60002700D01*
X14662500Y-42275000D02*
X14596600Y-42209100D01*
X12940600Y-25242300D02*
X12940600Y-33609400D01*
X102779000Y-52953500D02*
X102779100Y-52953500D01*
X100670600Y-48645200D02*
X100670600Y-50845100D01*
X13187600Y-57601400D02*
X14313900Y-57601400D01*
X82257100Y-66455400D02*
X89712500Y-59000000D01*
X46715200Y-60002700D02*
X45712500Y-59000000D01*
X14000000Y-16000000D02*
X12000000Y-18000000D01*
X102904300Y-46411500D02*
X100670600Y-48645200D01*
X10000000Y-12000000D02*
X14000000Y-16000000D01*
X109712500Y-59000000D02*
X108709800Y-57997300D01*
X103145100Y-55446700D02*
X103145100Y-57554400D01*
X21712500Y-57942200D02*
X21712500Y-59000000D01*
X120693200Y-57980700D02*
X126693200Y-57980700D01*
X102662500Y-42275000D02*
X102904300Y-42516800D01*
X12000000Y-24301700D02*
X12940600Y-25242300D01*
X133712500Y-59000000D02*
X132700500Y-57988000D01*
X70709800Y-60002700D02*
X65712500Y-60002700D01*
X103145100Y-57554400D02*
X102706000Y-57993500D01*
X27712500Y-57942200D02*
X27712500Y-59000000D01*
X40724500Y-57988000D02*
X39712500Y-59000000D01*
X132700500Y-57988000D02*
X128724500Y-57988000D01*
X52709800Y-60002700D02*
X46715200Y-60002700D01*
X73643800Y-66455400D02*
X82257100Y-66455400D01*
X72550100Y-65361700D02*
X73643800Y-66455400D01*
X14596600Y-42209100D02*
X13824000Y-42209100D01*
X45712500Y-59000000D02*
X38233600Y-66478900D01*
X32654700Y-57942200D02*
X27712500Y-57942200D01*
X33712500Y-59000000D02*
X32654700Y-57942200D01*
X14313900Y-57601400D02*
X15712500Y-59000000D01*
X102779100Y-52953500D02*
X102779100Y-55080700D01*
X83712500Y-59000000D02*
X84719000Y-57993500D01*
X121712500Y-59000000D02*
X120693200Y-57980700D01*
X57752100Y-42275000D02*
X57408400Y-41931300D01*
X28550100Y-65337700D02*
X28550100Y-59837600D01*
X55378400Y-57941800D02*
X58654300Y-57941800D01*
X58654300Y-57941800D02*
X59712500Y-59000000D01*
X65712500Y-60002700D02*
X65712500Y-59000000D01*
X27712500Y-57942200D02*
X21712500Y-57942200D01*
X97712500Y-57993500D02*
X102706000Y-57993500D01*
X12935900Y-41321000D02*
X12828000Y-41321000D01*
X21712500Y-57942200D02*
X16770300Y-57942200D01*
X100670600Y-50845100D02*
X102779000Y-52953500D01*
X65712500Y-60002700D02*
X60715200Y-60002700D01*
X16770300Y-57942200D02*
X15712500Y-59000000D01*
X58662500Y-42275000D02*
X57752100Y-42275000D01*
X11003500Y-34444600D02*
X11994600Y-34444600D01*
X29691300Y-66478900D02*
X28550100Y-65337700D01*
X53712500Y-59000000D02*
X54770700Y-57941800D01*
X97712500Y-57993500D02*
X97712500Y-59000000D01*
X11994600Y-34444600D02*
X12050000Y-34500000D01*
X102779100Y-55080700D02*
X103145100Y-55446700D01*
X13824000Y-42209100D02*
X12935900Y-41321000D01*
X14525000Y-15475000D02*
X14000000Y-16000000D01*
X89712500Y-57993500D02*
X89712500Y-59000000D01*
X18000000Y-15475000D02*
X14525000Y-15475000D01*
X11029000Y-58976900D02*
X9735600Y-58976900D01*
X72724500Y-57988000D02*
X71712500Y-59000000D01*
X109712500Y-59000000D02*
X110715200Y-60002700D01*
X102706000Y-57993500D02*
X103712500Y-59000000D01*
X44700500Y-57988000D02*
X40724500Y-57988000D01*
X116731800Y-57980700D02*
X120693200Y-57980700D01*
X108709800Y-57997300D02*
X104715200Y-57997300D01*
X28550100Y-59837600D02*
X27712500Y-59000000D01*
X12000000Y-22000000D02*
X12000000Y-24301700D01*
X12940600Y-33609400D02*
X12050000Y-34500000D01*
X12000000Y-18000000D02*
X12000000Y-22000000D01*
%TO.N,SNS1*%
X38705000Y-38971900D02*
X38662900Y-39014000D01*
X38705000Y-37525000D02*
X38705000Y-38971900D01*
X10760600Y-50089400D02*
X9801900Y-50089400D01*
X9712500Y-50000000D02*
X9712500Y-54500000D01*
X9801900Y-50089400D02*
X9712500Y-50000000D01*
%TO.N,GND*%
X58799900Y-55135500D02*
X59201700Y-55537300D01*
X113887500Y-50000000D02*
X112844600Y-48957100D01*
X8193300Y-24441300D02*
X8193300Y-21350000D01*
X119887500Y-48988700D02*
X115591200Y-48988700D01*
X121625000Y-37525000D02*
X121625000Y-37176800D01*
X12837400Y-48949900D02*
X13887500Y-50000000D01*
X78524400Y-7975600D02*
X76412500Y-10087500D01*
X124876200Y-48988700D02*
X125145800Y-49258300D01*
X109938200Y-29151600D02*
X103601600Y-29151600D01*
X75887500Y-50000000D02*
X74871000Y-48983500D01*
X89398900Y-33448900D02*
X88950000Y-33000000D01*
X45698300Y-32748300D02*
X43000000Y-30050000D01*
X105500000Y-27012500D02*
X105500000Y-26373300D01*
X69543000Y-24431200D02*
X66950000Y-27024200D01*
X78206300Y-25750000D02*
X76665500Y-27290800D01*
X9150000Y-21350000D02*
X8193300Y-21350000D01*
X57887500Y-50000000D02*
X56848300Y-48960800D01*
X8937500Y-42275000D02*
X12484700Y-45822200D01*
X72421400Y-14555400D02*
X72421400Y-13987400D01*
X27062500Y-3969300D02*
X23093200Y-3969300D01*
X9914800Y-30760800D02*
X9914800Y-29002300D01*
X125145800Y-49258300D02*
X125887500Y-50000000D01*
X66990000Y-48924900D02*
X66990000Y-48983500D01*
X39975000Y-37158700D02*
X39975000Y-37525000D01*
X30330400Y-39250800D02*
X30330400Y-41516600D01*
X88950000Y-33000000D02*
X88250000Y-32300000D01*
X128054200Y-39272000D02*
X129245000Y-39272000D01*
X72247300Y-14729500D02*
X72421400Y-14555400D01*
X76488900Y-39050000D02*
X73300000Y-39050000D01*
X83250000Y-14587500D02*
X80552400Y-14587500D01*
X72247300Y-17095900D02*
X72247300Y-14729500D01*
X120240800Y-24943000D02*
X124219500Y-24943000D01*
X87887500Y-50000000D02*
X88806600Y-49080900D01*
X115591200Y-48988700D02*
X115245000Y-48642500D01*
X70000000Y-10087500D02*
X70000000Y-9262400D01*
X81750000Y-29675000D02*
X81750000Y-30575000D01*
X63887500Y-51822600D02*
X63887500Y-50000000D01*
X109938200Y-29151600D02*
X109938200Y-31988200D01*
X78202900Y-55531100D02*
X81887500Y-51846500D01*
X86216200Y-40133800D02*
X87300000Y-39050000D01*
X112844600Y-48957100D02*
X108930400Y-48957100D01*
X120536600Y-39050000D02*
X117300000Y-39050000D01*
X19887500Y-50000000D02*
X20945300Y-48942200D01*
X129769500Y-16393000D02*
X127912500Y-18250000D01*
X81500000Y-5000000D02*
X78524400Y-7975600D01*
X132055000Y-16800000D02*
X131648000Y-16393000D01*
X83378800Y-14458700D02*
X83250000Y-14587500D01*
X27245000Y-42889600D02*
X27245000Y-42475000D01*
X78747500Y-13987400D02*
X79950000Y-15189900D01*
X12490900Y-35959100D02*
X13950000Y-34500000D01*
X14986800Y-35536800D02*
X16913200Y-35536800D01*
X69887500Y-48983500D02*
X69887500Y-50000000D01*
X29300000Y-39050000D02*
X30129600Y-39050000D01*
X27450000Y-26100000D02*
X24850000Y-28700000D01*
X118937500Y-18000000D02*
X113912500Y-18000000D01*
X29600000Y-26100000D02*
X31050000Y-26100000D01*
X110199000Y-11050000D02*
X110000000Y-11050000D01*
X32702700Y-55040100D02*
X33192100Y-55529500D01*
X86484700Y-42543500D02*
X96669000Y-42543500D01*
X113912500Y-18000000D02*
X113912500Y-14763500D01*
X88605000Y-37745000D02*
X88605000Y-36140800D01*
X66950000Y-27024200D02*
X66950000Y-28500000D01*
X88605000Y-36140800D02*
X84385200Y-36140800D01*
X129689000Y-51087500D02*
X130800000Y-51087500D01*
X94850400Y-48962900D02*
X95887500Y-50000000D01*
X129862500Y-23200000D02*
X127912500Y-21250000D01*
X121625000Y-37176800D02*
X122955800Y-35846000D01*
X32472400Y-40742900D02*
X30829700Y-42385600D01*
X88806600Y-49080900D02*
X88806600Y-48962900D01*
X33625000Y-37525000D02*
X33625000Y-37156300D01*
X103601600Y-29151600D02*
X95500000Y-21050000D01*
X77625000Y-36427600D02*
X79746800Y-34305800D01*
X38890200Y-51002700D02*
X38817000Y-50929500D01*
X39975000Y-37881200D02*
X39975000Y-37525000D01*
X7371600Y-35959100D02*
X7481600Y-35959100D01*
X52937500Y-42275000D02*
X41445000Y-42275000D01*
X88806600Y-48962900D02*
X88806600Y-46036600D01*
X14000000Y-12000000D02*
X21000000Y-5000000D01*
X129245000Y-42475000D02*
X129245000Y-39272000D01*
X130800000Y-51087500D02*
X131887500Y-50000000D01*
X131648000Y-16393000D02*
X131343300Y-16393000D01*
X46850000Y-33900000D02*
X45698300Y-33900000D01*
X111000000Y-27550000D02*
X110898300Y-27651700D01*
X86216200Y-42275000D02*
X86216200Y-40133800D01*
X65450000Y-30000000D02*
X66950000Y-28500000D01*
X9912500Y-29000000D02*
X9912500Y-26160500D01*
X24312400Y-45822200D02*
X27245000Y-42889600D01*
X88250000Y-32300000D02*
X88250000Y-29675000D01*
X42884800Y-51002700D02*
X38890200Y-51002700D01*
X25887500Y-48942200D02*
X25887500Y-50000000D01*
X8937600Y-48949900D02*
X12837400Y-48949900D01*
X89398900Y-35346900D02*
X89398900Y-34905000D01*
X101950000Y-20000000D02*
X98893200Y-16943200D01*
X108930400Y-48957100D02*
X107887500Y-50000000D01*
X72247300Y-17095900D02*
X73112400Y-17095900D01*
X76412500Y-10087500D02*
X76000000Y-10087500D01*
X29600000Y-26100000D02*
X27450000Y-26100000D01*
X31887500Y-50000000D02*
X30829700Y-48942200D01*
X81887500Y-51846500D02*
X81887500Y-50000000D01*
X35000000Y-30050000D02*
X39000000Y-30050000D01*
X31050000Y-26100000D02*
X35000000Y-30050000D01*
X65500000Y-11587500D02*
X65500000Y-11923800D01*
X70000000Y-9262400D02*
X64825100Y-9262400D01*
X99962400Y-10257800D02*
X101069600Y-11365000D01*
X120224000Y-19286500D02*
X119178700Y-18241200D01*
X126876000Y-19286500D02*
X120224000Y-19286500D01*
X86216200Y-42275000D02*
X85445000Y-42275000D01*
X76000000Y-10087500D02*
X75174900Y-9262400D01*
X131343300Y-23911700D02*
X132055000Y-23200000D01*
X70770000Y-21320000D02*
X71950000Y-22500000D01*
X69215300Y-18801300D02*
X70920700Y-17095900D01*
X59201700Y-55537300D02*
X60172800Y-55537300D01*
X99962400Y-7975600D02*
X99962400Y-10257800D01*
X33192100Y-55529500D02*
X34217000Y-55529500D01*
X131078000Y-39272000D02*
X131300000Y-39050000D01*
X132695000Y-24320000D02*
X131343300Y-24320000D01*
X100000000Y-7938000D02*
X100000000Y-5000000D01*
X105500000Y-27012500D02*
X105500000Y-27651700D01*
X127340000Y-36545300D02*
X127340000Y-38557800D01*
X119178700Y-18241200D02*
X117419900Y-20000000D01*
X78206300Y-25750000D02*
X78206300Y-24569300D01*
X95200000Y-20750000D02*
X90675000Y-20750000D01*
X116000000Y-24087500D02*
X119385300Y-24087500D01*
X77625000Y-37525000D02*
X77625000Y-36427600D01*
X72120900Y-13686900D02*
X72421400Y-13987400D01*
X43887500Y-50000000D02*
X42884800Y-51002700D01*
X91908700Y-14458700D02*
X92950000Y-15500000D01*
X14525000Y-12525000D02*
X14000000Y-12000000D01*
X101887500Y-50000000D02*
X102931900Y-48955600D01*
X78206300Y-24569300D02*
X77985600Y-24348600D01*
X132090300Y-25147300D02*
X134946000Y-25147300D01*
X7887500Y-50000000D02*
X8937600Y-48949900D01*
X31887500Y-50000000D02*
X32702700Y-50815200D01*
X126640700Y-35846000D02*
X127340000Y-36545300D01*
X84385200Y-36140800D02*
X84266300Y-36021900D01*
X79950000Y-15189900D02*
X79950000Y-15500000D01*
X66990000Y-48983500D02*
X69887500Y-48983500D01*
X13950000Y-34500000D02*
X14986800Y-35536800D01*
X7481600Y-35959100D02*
X7481600Y-41525000D01*
X121625000Y-37525000D02*
X121625000Y-37961600D01*
X46650000Y-26400000D02*
X57400000Y-26400000D01*
X122955800Y-35846000D02*
X126640700Y-35846000D01*
X106843100Y-48955600D02*
X107887500Y-50000000D01*
X111000000Y-27550000D02*
X109938200Y-28611800D01*
X88806600Y-46036600D02*
X85245000Y-42475000D01*
X48000000Y-5000000D02*
X48000000Y-6521700D01*
X77625000Y-37525000D02*
X77625000Y-37913900D01*
X99962400Y-7975600D02*
X100000000Y-7938000D01*
X115245000Y-42475000D02*
X115245000Y-48642500D01*
X79746800Y-34305800D02*
X81644200Y-34305800D01*
X117419900Y-20000000D02*
X101950000Y-20000000D01*
X43300000Y-39050000D02*
X41245000Y-39050000D01*
X124219500Y-24943000D02*
X127912500Y-21250000D01*
X89398900Y-34905000D02*
X89398900Y-33448900D01*
X119887500Y-48988700D02*
X124876200Y-48988700D01*
X12837400Y-45822200D02*
X12837400Y-48949900D01*
X131300000Y-39050000D02*
X132194800Y-38155200D01*
X5912500Y-34500000D02*
X7371600Y-35959100D01*
X70920700Y-17095900D02*
X72247300Y-17095900D01*
X81750000Y-19612700D02*
X81750000Y-18325000D01*
X96669000Y-42543500D02*
X96937500Y-42275000D01*
X125614300Y-48789800D02*
X125145800Y-49258300D01*
X21000000Y-5000000D02*
X22062500Y-5000000D01*
X105000000Y-26553200D02*
X105000000Y-27012500D01*
X65500000Y-11923800D02*
X67263100Y-13686900D01*
X38817000Y-50929500D02*
X37887500Y-50000000D01*
X77137100Y-55531100D02*
X78202900Y-55531100D01*
X88950000Y-14458700D02*
X91908700Y-14458700D01*
X105179900Y-26373300D02*
X105000000Y-26553200D01*
X18000000Y-12525000D02*
X14525000Y-12525000D01*
X119887500Y-48988700D02*
X119887500Y-50000000D01*
X132055000Y-23200000D02*
X132055000Y-25112000D01*
X75174900Y-9262400D02*
X70000000Y-9262400D01*
X111037500Y-24087500D02*
X111000000Y-24050000D01*
X81750000Y-30575000D02*
X78325000Y-34000000D01*
X13912500Y-34462500D02*
X13912500Y-29000000D01*
X95200000Y-20750000D02*
X95399400Y-20550600D01*
X9914800Y-29002300D02*
X9912500Y-29000000D01*
X57887500Y-50000000D02*
X58799900Y-50912400D01*
X134946000Y-25147300D02*
X135773300Y-24320000D01*
X34217000Y-55529500D02*
X38817000Y-50929500D01*
X72421400Y-13987400D02*
X78747500Y-13987400D01*
X119385300Y-24087500D02*
X120240800Y-24943000D01*
X131343300Y-24320000D02*
X131343300Y-23911700D01*
X41245000Y-40742900D02*
X41245000Y-42475000D01*
X61580000Y-30000000D02*
X65450000Y-30000000D01*
X116000000Y-24087500D02*
X111037500Y-24087500D01*
X95500000Y-21050000D02*
X95200000Y-20750000D01*
X33625000Y-37156300D02*
X34543200Y-36238100D01*
X81644200Y-34305800D02*
X82950000Y-33000000D01*
X60172800Y-55537300D02*
X63887500Y-51822600D01*
X89398900Y-34905000D02*
X101525000Y-34905000D01*
X32266300Y-39250800D02*
X30330400Y-39250800D01*
X69215300Y-21320000D02*
X69215300Y-18801300D01*
X75887500Y-50000000D02*
X76737800Y-50850300D01*
X132055000Y-23200000D02*
X129862500Y-23200000D01*
X53150000Y-33900000D02*
X46850000Y-33900000D01*
X41245000Y-39050000D02*
X41143800Y-39050000D01*
X73300500Y-17149500D02*
X73166000Y-17149500D01*
X78325000Y-34000000D02*
X74160000Y-34000000D01*
X9912500Y-26160500D02*
X8193300Y-24441300D01*
X13950000Y-34500000D02*
X13912500Y-34462500D01*
X127912500Y-18250000D02*
X126876000Y-19286500D01*
X105500000Y-26373300D02*
X105179900Y-26373300D01*
X136875000Y-24320000D02*
X135773300Y-24320000D01*
X77625000Y-37913900D02*
X76488900Y-39050000D01*
X17950000Y-34500000D02*
X17950000Y-32375500D01*
X115245000Y-48642500D02*
X113887500Y-50000000D01*
X31969300Y-3969300D02*
X27062500Y-3969300D01*
X88950000Y-14458700D02*
X83378800Y-14458700D01*
X43000000Y-30050000D02*
X39000000Y-30050000D01*
X6175600Y-34500000D02*
X9914800Y-30760800D01*
X71950000Y-25500000D02*
X73740800Y-27290800D01*
X136875000Y-15680000D02*
X132695000Y-15680000D01*
X7481600Y-41525000D02*
X8231600Y-42275000D01*
X113912500Y-14763500D02*
X110199000Y-11050000D01*
X97863000Y-16943200D02*
X97863000Y-16413000D01*
X110898300Y-27651700D02*
X105500000Y-27651700D01*
X97863000Y-16413000D02*
X96950000Y-15500000D01*
X78524400Y-7975600D02*
X99962400Y-7975600D01*
X27062500Y-3969300D02*
X27062500Y-5000000D01*
X60434200Y-6521700D02*
X64000000Y-10087500D01*
X79325000Y-25750000D02*
X78206300Y-25750000D01*
X76737800Y-55131800D02*
X77137100Y-55531100D01*
X30129600Y-39050000D02*
X30330400Y-39250800D01*
X76737800Y-50850300D02*
X76737800Y-55131800D01*
X33625000Y-37892100D02*
X32266300Y-39250800D01*
X73379900Y-42398100D02*
X74330300Y-41447700D01*
X12837400Y-45822200D02*
X24312400Y-45822200D01*
X64000000Y-10087500D02*
X65500000Y-11587500D01*
X8231600Y-42275000D02*
X8937500Y-42275000D01*
X132055000Y-25112000D02*
X132090300Y-25147300D01*
X85445000Y-42275000D02*
X85245000Y-42475000D01*
X127340000Y-38557800D02*
X128054200Y-39272000D01*
X72781500Y-42475000D02*
X72858400Y-42398100D01*
X48000000Y-6521700D02*
X60434200Y-6521700D01*
X109938200Y-31988200D02*
X110000000Y-32050000D01*
X88950000Y-15500000D02*
X88950000Y-14458700D01*
X16913200Y-35536800D02*
X17950000Y-34500000D01*
X30829700Y-48942200D02*
X25887500Y-48942200D01*
X86216200Y-42275000D02*
X86484700Y-42543500D01*
X17950000Y-32375500D02*
X27725500Y-22600000D01*
X102931900Y-48955600D02*
X106843100Y-48955600D01*
X131343300Y-15680000D02*
X131343300Y-16393000D01*
X70881200Y-24431200D02*
X69543000Y-24431200D01*
X69215300Y-21320000D02*
X70770000Y-21320000D01*
X12484700Y-45822200D02*
X12837400Y-45822200D01*
X88806600Y-48962900D02*
X94850400Y-48962900D01*
X132695000Y-15680000D02*
X131343300Y-15680000D01*
X41445000Y-42275000D02*
X41245000Y-42475000D01*
X43000000Y-30050000D02*
X46650000Y-26400000D01*
X30829700Y-42385600D02*
X30829700Y-48942200D01*
X98893200Y-16943200D02*
X97863000Y-16943200D01*
X118937500Y-18000000D02*
X119178700Y-18241200D01*
X95399400Y-20550600D02*
X95399400Y-19445600D01*
X73112400Y-17095900D02*
X73166000Y-17149500D01*
X87300000Y-39050000D02*
X88605000Y-37745000D01*
X57400000Y-21320000D02*
X69215300Y-21320000D01*
X72858400Y-42398100D02*
X73379900Y-42398100D01*
X33000000Y-5000000D02*
X31969300Y-3969300D01*
X5912500Y-34500000D02*
X6175600Y-34500000D01*
X29372000Y-42475000D02*
X27245000Y-42475000D01*
X45698300Y-33900000D02*
X45698300Y-32748300D01*
X32702700Y-50815200D02*
X32702700Y-55040100D01*
X33625000Y-37525000D02*
X33625000Y-37892100D01*
X30330400Y-41516600D02*
X29372000Y-42475000D01*
X7481600Y-35959100D02*
X12490900Y-35959100D01*
X74871000Y-48983500D02*
X69887500Y-48983500D01*
X88605000Y-36140800D02*
X89398900Y-35346900D01*
X71950000Y-25500000D02*
X70881200Y-24431200D01*
X52926700Y-48960800D02*
X51887500Y-50000000D01*
X80552400Y-14587500D02*
X79950000Y-15189900D01*
X41245000Y-39050000D02*
X41245000Y-40742900D01*
X64825100Y-9262400D02*
X64000000Y-10087500D01*
X23093200Y-3969300D02*
X22062500Y-5000000D01*
X131343300Y-16393000D02*
X129769500Y-16393000D01*
X71245000Y-42475000D02*
X72781500Y-42475000D01*
X58799900Y-50912400D02*
X58799900Y-55135500D01*
X129245000Y-39272000D02*
X131078000Y-39272000D01*
X67263100Y-13686900D02*
X72120900Y-13686900D01*
X27725500Y-22600000D02*
X29600000Y-22600000D01*
X34521700Y-6521700D02*
X33000000Y-5000000D01*
X41143800Y-39050000D02*
X39975000Y-37881200D01*
X74330300Y-41447700D02*
X74330300Y-40080300D01*
X39054400Y-36238100D02*
X39975000Y-37158700D01*
X101069600Y-11365000D02*
X101525000Y-11365000D01*
X34543200Y-36238100D02*
X39054400Y-36238100D01*
X41245000Y-40742900D02*
X32472400Y-40742900D01*
X74950000Y-15500000D02*
X73300500Y-17149500D01*
X48000000Y-6521700D02*
X34521700Y-6521700D01*
X121625000Y-37961600D02*
X120536600Y-39050000D01*
X71950000Y-19500000D02*
X73166000Y-18284000D01*
X20945300Y-48942200D02*
X25887500Y-48942200D01*
X73166000Y-18284000D02*
X73166000Y-17149500D01*
X74330300Y-40080300D02*
X73300000Y-39050000D01*
X64904000Y-48983500D02*
X66990000Y-48983500D01*
X63887500Y-50000000D02*
X64904000Y-48983500D01*
X56848300Y-48960800D02*
X52926700Y-48960800D01*
X109938200Y-28611800D02*
X109938200Y-29151600D01*
X73740800Y-27290800D02*
X76665500Y-27290800D01*
%TO.N,+12V_IN*%
X35000800Y-3500800D02*
X36500000Y-5000000D01*
X3966100Y-14103600D02*
X3966100Y-11325700D01*
X6000000Y-16137500D02*
X3966100Y-14103600D01*
X3966100Y-11325700D02*
X11791000Y-3500800D01*
X11791000Y-3500800D02*
X35000800Y-3500800D01*
%TO.N,+12V_FUSED*%
X6000000Y-12000000D02*
X6000000Y-11862500D01*
X10000000Y-16000000D02*
X6000000Y-12000000D01*
%TO.N,ASNS3*%
X73000000Y-10087500D02*
X74175000Y-10087500D01*
X126705000Y-42076600D02*
X125615500Y-40987100D01*
X126705000Y-42475000D02*
X126705000Y-42076600D01*
X76000000Y-11912500D02*
X76210700Y-12123200D01*
X74175000Y-10087500D02*
X76000000Y-11912500D01*
X76210700Y-12123200D02*
X98431800Y-12123200D01*
X125615500Y-40987100D02*
X125323100Y-40987100D01*
%TO.N,USB_VBUS*%
X132055000Y-17600000D02*
X130889900Y-17600000D01*
X132055000Y-22400000D02*
X130892400Y-22400000D01*
%TO.N,USB_CC1*%
X128459200Y-20215200D02*
X129494000Y-21250000D01*
X126087500Y-21250000D02*
X127122300Y-20215200D01*
X127122300Y-20215200D02*
X128459200Y-20215200D01*
X129494000Y-21250000D02*
X132055000Y-21250000D01*
%TO.N,USB_DP*%
X131098100Y-19976200D02*
X131371900Y-20250000D01*
X98222700Y-19698000D02*
X98222700Y-19429800D01*
X99565200Y-21040500D02*
X98222700Y-19698000D01*
X131098100Y-19800300D02*
X121663300Y-19800300D01*
X131284200Y-19250000D02*
X131098100Y-19436100D01*
X131371900Y-20250000D02*
X132055000Y-20250000D01*
X98222700Y-19429800D02*
X98222600Y-19429800D01*
X121663300Y-19800300D02*
X120423100Y-21040500D01*
X120423100Y-21040500D02*
X99565200Y-21040500D01*
X90675000Y-21750000D02*
X94406600Y-21750000D01*
X132055000Y-19250000D02*
X131284200Y-19250000D01*
X131098100Y-19436100D02*
X131098100Y-19800300D01*
X131098100Y-19800300D02*
X131098100Y-19976200D01*
%TO.N,USB_DM*%
X132812800Y-20750000D02*
X133014000Y-20548800D01*
X132055000Y-20750000D02*
X132812800Y-20750000D01*
X133014000Y-20011200D02*
X132752800Y-19750000D01*
X133014000Y-20548800D02*
X133014000Y-20011200D01*
X90675000Y-22250000D02*
X89397400Y-22250000D01*
X129844800Y-20750000D02*
X132055000Y-20750000D01*
X129741800Y-20647000D02*
X129844800Y-20750000D01*
X132752800Y-19750000D02*
X132055000Y-19750000D01*
%TO.N,USB_CC2*%
X138007400Y-16047600D02*
X138007400Y-15375100D01*
X132055000Y-18250000D02*
X135805000Y-18250000D01*
X138007400Y-15375100D02*
X137471700Y-14839400D01*
X129498100Y-14839400D02*
X126087500Y-18250000D01*
X135805000Y-18250000D02*
X138007400Y-16047600D01*
X137471700Y-14839400D02*
X129498100Y-14839400D01*
%TO.N,DRV16*%
X105012200Y-38720200D02*
X103492800Y-37200800D01*
X103492800Y-37200800D02*
X100884300Y-37200800D01*
X99710100Y-38375000D02*
X96937500Y-38375000D01*
X106355000Y-42475000D02*
X106355000Y-41549600D01*
X106355000Y-41549600D02*
X105012200Y-40206800D01*
X105012200Y-40206800D02*
X105012200Y-38720200D01*
X100884300Y-37200800D02*
X99710100Y-38375000D01*
%TO.N,DRV17*%
X93864500Y-41359800D02*
X93864500Y-41845000D01*
X107625000Y-42080100D02*
X107625000Y-42475000D01*
X110800000Y-43742800D02*
X110800000Y-41455500D01*
X110800000Y-41455500D02*
X110523700Y-41179200D01*
X96937500Y-39025000D02*
X96199300Y-39025000D01*
X108525900Y-41179200D02*
X107625000Y-42080100D01*
X96199300Y-39025000D02*
X93864500Y-41359800D01*
X110523700Y-41179200D02*
X108525900Y-41179200D01*
%TO.N,DRV18*%
X98314600Y-39675000D02*
X96937500Y-39675000D01*
X108044400Y-43781300D02*
X105991300Y-43781300D01*
X108895000Y-42930700D02*
X108044400Y-43781300D01*
X103911900Y-40031900D02*
X103911900Y-38612100D01*
X105752700Y-41872700D02*
X103911900Y-40031900D01*
X108895000Y-42475000D02*
X108895000Y-42930700D01*
X105752700Y-43542700D02*
X105752700Y-41872700D01*
X105991300Y-43781300D02*
X105752700Y-43542700D01*
%TO.N,DRV19*%
X108800700Y-44215000D02*
X110165000Y-42850700D01*
X99455800Y-42162000D02*
X99455800Y-45032200D01*
X97618800Y-40325000D02*
X99455800Y-42162000D01*
X96937500Y-40325000D02*
X97618800Y-40325000D01*
X110165000Y-42850700D02*
X110165000Y-42475000D01*
X103865000Y-44215000D02*
X108800700Y-44215000D01*
%TO.N,DRV20*%
X106762900Y-39609000D02*
X105548000Y-38394100D01*
X111515400Y-39609000D02*
X106762900Y-39609000D01*
X96937500Y-40975000D02*
X96039700Y-40975000D01*
X111435000Y-42884600D02*
X112306000Y-43755600D01*
X113060300Y-43755600D02*
X113340000Y-43475900D01*
X113340000Y-41433600D02*
X111515400Y-39609000D01*
X113340000Y-43475900D02*
X113340000Y-41433600D01*
X111435000Y-42475000D02*
X111435000Y-42884600D01*
X96039700Y-40975000D02*
X95669800Y-40605100D01*
X112306000Y-43755600D02*
X113060300Y-43755600D01*
%TO.N,DRV21*%
X96937500Y-41625000D02*
X95935700Y-41625000D01*
X111054900Y-40477400D02*
X106305400Y-40477400D01*
X112705000Y-42127500D02*
X111054900Y-40477400D01*
X112705000Y-42475000D02*
X112705000Y-42127500D01*
X95935700Y-41625000D02*
X95682400Y-41878300D01*
X106305400Y-40477400D02*
X105643700Y-39815700D01*
%TO.N,SR_CH32*%
X117635600Y-36458100D02*
X117635600Y-35972300D01*
X115245000Y-37525000D02*
X116568700Y-37525000D01*
X64895000Y-37976400D02*
X66825300Y-39906700D01*
X116568700Y-37525000D02*
X117635600Y-36458100D01*
X64895000Y-37525000D02*
X64895000Y-37976400D01*
X112666500Y-35553400D02*
X112243500Y-35976400D01*
X66825300Y-39906700D02*
X68671100Y-39906700D01*
X117635600Y-35972300D02*
X117216700Y-35553400D01*
X117216700Y-35553400D02*
X112666500Y-35553400D01*
%TO.N,+3V3*%
X122011300Y-26923800D02*
X122011300Y-28401200D01*
X24850000Y-31000000D02*
X31150000Y-31000000D01*
X110000000Y-12950000D02*
X109680000Y-13270000D01*
X91050000Y-16552600D02*
X93997400Y-16552600D01*
X70859200Y-38811300D02*
X72261400Y-38811300D01*
X62146600Y-34701700D02*
X45751700Y-34701700D01*
X81667800Y-15500000D02*
X80533100Y-16634700D01*
X80547800Y-18652200D02*
X80547800Y-19810400D01*
X38148600Y-32801400D02*
X32951400Y-32801400D01*
X69975000Y-37927100D02*
X70859200Y-38811300D01*
X108427200Y-35522800D02*
X102821100Y-35522800D01*
X69975000Y-37525000D02*
X69975000Y-36735700D01*
X79184700Y-16634700D02*
X80533100Y-16634700D01*
X121000000Y-25912500D02*
X122011300Y-26923800D01*
X81050000Y-33000000D02*
X82250000Y-31800000D01*
X62848300Y-34000000D02*
X62146600Y-34701700D01*
X19216000Y-38837600D02*
X21530000Y-38837600D01*
X112027700Y-26977700D02*
X112027700Y-28152000D01*
X82335500Y-27521400D02*
X82335500Y-26973300D01*
X81688400Y-25165000D02*
X81688400Y-20696100D01*
X117825000Y-29412500D02*
X116000000Y-27587500D01*
X18355000Y-37525000D02*
X18355000Y-37976600D01*
X71637200Y-31597300D02*
X72263900Y-30970600D01*
X72263900Y-30970600D02*
X77934700Y-30970600D01*
X118037300Y-37170100D02*
X120000100Y-37170100D01*
X95050000Y-15076500D02*
X95050000Y-15500000D01*
X121000000Y-29412500D02*
X117825000Y-29412500D01*
X32951400Y-32801400D02*
X31150000Y-31000000D01*
X82335500Y-26973300D02*
X81612200Y-26250000D01*
X101525000Y-12635000D02*
X101525000Y-12746800D01*
X80875000Y-18325000D02*
X80547800Y-18652200D01*
X109680000Y-13270000D02*
X102048200Y-13270000D01*
X73269000Y-37525000D02*
X76355000Y-37525000D01*
X82250000Y-31800000D02*
X82250000Y-29675000D01*
X81688400Y-20696100D02*
X89157200Y-20696100D01*
X113975000Y-38805600D02*
X114246300Y-39076900D01*
X73050000Y-15500000D02*
X74123000Y-14427000D01*
X96602700Y-16552700D02*
X100050000Y-20000000D01*
X29218900Y-37525000D02*
X27567800Y-39176100D01*
X113975000Y-37525000D02*
X113975000Y-38805600D01*
X72261400Y-38811300D02*
X72261400Y-38532600D01*
X101525000Y-33635000D02*
X92710000Y-33635000D01*
X76977000Y-14427000D02*
X78050000Y-15500000D01*
X79325000Y-26250000D02*
X81612200Y-26250000D01*
X81688400Y-25165000D02*
X81612200Y-25241200D01*
X118037300Y-37170100D02*
X118037300Y-35736800D01*
X63565100Y-35918300D02*
X63977700Y-35918300D01*
X25975000Y-37944800D02*
X25082200Y-38837600D01*
X72261400Y-39911400D02*
X72261400Y-38811300D01*
X74123000Y-14427000D02*
X76977000Y-14427000D01*
X105500000Y-24348300D02*
X108830300Y-24348300D01*
X89603300Y-20250000D02*
X90675000Y-20250000D01*
X85095100Y-25165000D02*
X81688400Y-25165000D01*
X117019800Y-32892700D02*
X116000000Y-33912500D01*
X73300000Y-40950000D02*
X72261400Y-39911400D01*
X93997400Y-16552700D02*
X96602700Y-16552700D01*
X31150000Y-31000000D02*
X27133700Y-35016300D01*
X117019800Y-30239400D02*
X117019800Y-32892700D01*
X57651700Y-30287900D02*
X58961100Y-31597300D01*
X117635600Y-37170100D02*
X118037300Y-37170100D01*
X92710000Y-33635000D02*
X88750000Y-29675000D01*
X107688500Y-39207300D02*
X106355000Y-37873800D01*
X39000000Y-31950000D02*
X38148600Y-32801400D01*
X106262500Y-26750000D02*
X110200000Y-26750000D01*
X111789400Y-30239400D02*
X111582100Y-30446700D01*
X25082200Y-38837600D02*
X21530000Y-38837600D01*
X45751700Y-34701700D02*
X43000000Y-31950000D01*
X105500000Y-24987500D02*
X105500000Y-25626700D01*
X69975000Y-36735700D02*
X69321500Y-36082200D01*
X102821100Y-34522500D02*
X102821100Y-35522800D01*
X80547800Y-19810400D02*
X81433500Y-20696100D01*
X110200000Y-26750000D02*
X111000000Y-25950000D01*
X32355000Y-37525000D02*
X29218900Y-37525000D01*
X97379700Y-12746800D02*
X95050000Y-15076500D01*
X87050000Y-15500000D02*
X88102600Y-16552600D01*
X111000000Y-29179700D02*
X111000000Y-29450000D01*
X112027700Y-28152000D02*
X111000000Y-29179700D01*
X64000000Y-34000000D02*
X62848300Y-34000000D01*
X80547800Y-19810400D02*
X79764600Y-19810400D01*
X132825100Y-37912300D02*
X132825100Y-39424900D01*
X89157200Y-20696100D02*
X89603300Y-20250000D01*
X25975000Y-37944800D02*
X27206300Y-39176100D01*
X111789400Y-30239400D02*
X111000000Y-29450000D01*
X92727200Y-35522800D02*
X102821100Y-35522800D01*
X113573300Y-39207300D02*
X107688500Y-39207300D01*
X114246300Y-39076900D02*
X115728800Y-39076900D01*
X117019800Y-32892700D02*
X127805500Y-32892700D01*
X116213000Y-33912500D02*
X116000000Y-33912500D01*
X69975000Y-37525000D02*
X69975000Y-37927100D01*
X47539400Y-36710600D02*
X61540600Y-36710600D01*
X106355000Y-37873800D02*
X106355000Y-37525000D01*
X108415000Y-32365000D02*
X110000000Y-33950000D01*
X132825100Y-39424900D02*
X131300000Y-40950000D01*
X111582100Y-30446700D02*
X111582100Y-32367900D01*
X81612200Y-25241200D02*
X81612200Y-26250000D01*
X105246600Y-25626700D02*
X104500000Y-26373300D01*
X117825000Y-29412500D02*
X117019800Y-30217700D01*
X101525000Y-33635000D02*
X101933600Y-33635000D01*
X104500000Y-27012500D02*
X104500000Y-26373300D01*
X117019800Y-30217700D02*
X117019800Y-30239400D01*
X72261400Y-38532600D02*
X73269000Y-37525000D01*
X88750000Y-28819900D02*
X85095100Y-25165000D01*
X118037300Y-35736800D02*
X116213000Y-33912500D01*
X43300000Y-40950000D02*
X47539400Y-36710600D01*
X81433500Y-20696100D02*
X81688400Y-20696100D01*
X61540600Y-36710600D02*
X62156700Y-37326700D01*
X113975000Y-38805600D02*
X113573300Y-39207300D01*
X122011300Y-28401200D02*
X121000000Y-29412500D01*
X117300000Y-40950000D02*
X117300000Y-40648100D01*
X22996700Y-35016300D02*
X21530000Y-36483000D01*
X87050000Y-15500000D02*
X81667800Y-15500000D01*
X115728800Y-39076900D02*
X117635600Y-37170100D01*
X58961100Y-31597300D02*
X71637200Y-31597300D01*
X21530000Y-36483000D02*
X21530000Y-38837600D01*
X56500000Y-30000000D02*
X57651700Y-30000000D01*
X62156700Y-37326700D02*
X62355000Y-37525000D01*
X110000000Y-33950000D02*
X108427200Y-35522800D01*
X105500000Y-24987500D02*
X105500000Y-24348300D01*
X25975000Y-37525000D02*
X25975000Y-37944800D01*
X27206300Y-39176100D02*
X27567800Y-39176100D01*
X62156700Y-37326700D02*
X63565100Y-35918300D01*
X93997400Y-16552600D02*
X95050000Y-15500000D01*
X78050000Y-15500000D02*
X79184700Y-16634700D01*
X76355000Y-36846800D02*
X76355000Y-37525000D01*
X80201800Y-33000000D02*
X76355000Y-36846800D01*
X105500000Y-25626700D02*
X105246600Y-25626700D01*
X43000000Y-31950000D02*
X39000000Y-31950000D01*
X27567800Y-39176100D02*
X27567800Y-39217800D01*
X102048200Y-13270000D02*
X101525000Y-12746800D01*
X27133700Y-35016300D02*
X22996700Y-35016300D01*
X111000000Y-25950000D02*
X112027700Y-26977700D01*
X27567800Y-39217800D02*
X29300000Y-40950000D01*
X101933600Y-33635000D02*
X102821100Y-34522500D01*
X101525000Y-12746800D02*
X97379700Y-12746800D01*
X93997400Y-16552600D02*
X93997400Y-16552700D01*
X117019800Y-30239400D02*
X111789400Y-30239400D01*
X18355000Y-37976600D02*
X19216000Y-38837600D01*
X108830300Y-24348300D02*
X110432000Y-25950000D01*
X120000100Y-37170100D02*
X120355000Y-37525000D01*
X110432000Y-25950000D02*
X111000000Y-25950000D01*
X81050000Y-33000000D02*
X80201800Y-33000000D01*
X57651700Y-30000000D02*
X57651700Y-30287900D01*
X80533100Y-16634700D02*
X80533100Y-17983100D01*
X91050000Y-15500000D02*
X91050000Y-16552600D01*
X127805500Y-32892700D02*
X132825100Y-37912300D01*
X87300000Y-40950000D02*
X92727200Y-35522800D01*
X106475000Y-32365000D02*
X108415000Y-32365000D01*
X77934700Y-30970600D02*
X81055100Y-27850200D01*
X82006700Y-27850200D02*
X82335500Y-27521400D01*
X117300000Y-40648100D02*
X115728800Y-39076900D01*
X79764600Y-19810400D02*
X79325000Y-20250000D01*
X80533100Y-17983100D02*
X80875000Y-18325000D01*
X88102600Y-16552600D02*
X91050000Y-16552600D01*
X106475000Y-31095000D02*
X106475000Y-32365000D01*
X88750000Y-29675000D02*
X88750000Y-28819900D01*
X81055100Y-27850200D02*
X82006700Y-27850200D01*
X80875000Y-18325000D02*
X81250000Y-18325000D01*
X111582100Y-32367900D02*
X110000000Y-33950000D01*
%TO.N,SR_SCK*%
X46603500Y-44759700D02*
X47759100Y-45915300D01*
X79355000Y-39682500D02*
X77625000Y-41412500D01*
X83783500Y-33727700D02*
X82887900Y-34623300D01*
X73288000Y-43752400D02*
X75867400Y-41173000D01*
X41839200Y-44759700D02*
X46603500Y-44759700D01*
X33625000Y-43956300D02*
X33625000Y-42475000D01*
X80800000Y-38574600D02*
X79692100Y-39682500D01*
X77385500Y-41173000D02*
X77625000Y-41412500D01*
X83783500Y-33727700D02*
X84410100Y-34354300D01*
X82661900Y-34623300D02*
X80800000Y-36485200D01*
X70610000Y-43505500D02*
X70610000Y-40872200D01*
X113632500Y-36204200D02*
X117014100Y-36204200D01*
X79692100Y-39682500D02*
X79355000Y-39682500D01*
X47759100Y-45915300D02*
X68200200Y-45915300D01*
X24705000Y-37163600D02*
X24705000Y-37525000D01*
X70610000Y-43505500D02*
X70856900Y-43752400D01*
X75867400Y-41173000D02*
X77385500Y-41173000D01*
X83783500Y-31814100D02*
X83250000Y-31280600D01*
X70610000Y-40872200D02*
X68705000Y-38967200D01*
X112705000Y-37131700D02*
X113632500Y-36204200D01*
X121625000Y-42475000D02*
X121625000Y-42130300D01*
X68200200Y-45915300D02*
X70610000Y-43505500D01*
X30602500Y-36181800D02*
X25686800Y-36181800D01*
X68705000Y-38967200D02*
X68705000Y-37525000D01*
X70856900Y-43752400D02*
X73288000Y-43752400D01*
X122781100Y-40974200D02*
X123331000Y-40974200D01*
X83250000Y-31280600D02*
X83250000Y-29675000D01*
X25686800Y-36181800D02*
X24705000Y-37163600D01*
X77625000Y-42475000D02*
X77625000Y-41412500D01*
X82887900Y-34623300D02*
X82661900Y-34623300D01*
X80800000Y-36485200D02*
X80800000Y-38574600D01*
X112705000Y-37525000D02*
X112705000Y-37131700D01*
X84410100Y-34354300D02*
X88797200Y-34354300D01*
X83783500Y-33727700D02*
X83783500Y-31814100D01*
X121625000Y-42130300D02*
X122781100Y-40974200D01*
%TO.N,SR_RCLK*%
X112185400Y-33818900D02*
X112185400Y-32248200D01*
X63315500Y-35316500D02*
X63214000Y-35418000D01*
X67435000Y-37117900D02*
X69225800Y-35327100D01*
X71987100Y-35327100D02*
X72890000Y-34424200D01*
X84807300Y-28542200D02*
X84807300Y-28088700D01*
X23435000Y-37135900D02*
X23435000Y-37525000D01*
X111435000Y-37525000D02*
X111435000Y-37925300D01*
X72890000Y-33637000D02*
X75154700Y-31372300D01*
X111435000Y-37925300D02*
X110554700Y-38805600D01*
X85750000Y-29675000D02*
X85750000Y-28839500D01*
X109558000Y-36446300D02*
X112185400Y-33818900D01*
X25152900Y-35418000D02*
X23435000Y-37135900D01*
X67435000Y-37117900D02*
X67435000Y-37525000D01*
X85452700Y-28542200D02*
X84807300Y-28542200D01*
X109830900Y-38805600D02*
X109558000Y-38532700D01*
X109558000Y-38532700D02*
X109558000Y-36446300D01*
X78180600Y-31372300D02*
X81010700Y-28542200D01*
X63214000Y-35418000D02*
X25152900Y-35418000D01*
X81010700Y-28542200D02*
X84807300Y-28542200D01*
X65633600Y-35316500D02*
X63315500Y-35316500D01*
X69225800Y-35327100D02*
X71987100Y-35327100D01*
X67435000Y-37117900D02*
X65633600Y-35316500D01*
X110554700Y-38805600D02*
X109830900Y-38805600D01*
X85750000Y-28839500D02*
X85452700Y-28542200D01*
X75154700Y-31372300D02*
X78180600Y-31372300D01*
X72890000Y-34424200D02*
X72890000Y-33637000D01*
%TO.N,SR_OE_N*%
X22165000Y-36698800D02*
X22165000Y-37525000D01*
X116000000Y-32087500D02*
X115219000Y-32087500D01*
X86750000Y-29675000D02*
X86750000Y-28823300D01*
X66165000Y-37525000D02*
X66165000Y-38021500D01*
X115219000Y-32087500D02*
X114580100Y-32726400D01*
X86750000Y-28823300D02*
X86027100Y-28100400D01*
X110165000Y-37141500D02*
X114580100Y-32726400D01*
X66165000Y-38021500D02*
X67169200Y-39025700D01*
X22724600Y-36139200D02*
X22165000Y-36698800D01*
X110165000Y-37525000D02*
X110165000Y-37141500D01*
%TO.N,SR_MOSI*%
X84250000Y-30483100D02*
X84549000Y-30782100D01*
X108895000Y-36106100D02*
X108817900Y-36029000D01*
X84493400Y-32711300D02*
X84493400Y-33265100D01*
X108895000Y-37525000D02*
X108895000Y-36106100D01*
X84493400Y-33265100D02*
X84793700Y-33565400D01*
X85698800Y-31356200D02*
X85698800Y-31788100D01*
X84250000Y-29675000D02*
X84250000Y-30483100D01*
X84549000Y-30782100D02*
X85124700Y-30782100D01*
X85245700Y-32241200D02*
X84963500Y-32241200D01*
X85124700Y-30782100D02*
X85698800Y-31356200D01*
X84793700Y-33565400D02*
X85748000Y-33565400D01*
X85698800Y-31788100D02*
X85245700Y-32241200D01*
X84963500Y-32241200D02*
X84493400Y-32711300D01*
%TO.N,DRV15*%
X107625000Y-37155600D02*
X107625000Y-37525000D01*
X106682400Y-36213000D02*
X107625000Y-37155600D01*
X98449500Y-36213000D02*
X106682400Y-36213000D01*
X96937500Y-37725000D02*
X98449500Y-36213000D01*
%TO.N,CH4*%
X19215800Y-56658600D02*
X23728900Y-56658600D01*
X23728900Y-56658600D02*
X25887500Y-54500000D01*
X26800000Y-59912500D02*
X25887500Y-59000000D01*
X14662500Y-39675000D02*
X15974500Y-39675000D01*
X26800000Y-65000000D02*
X26800000Y-59912500D01*
%TO.N,LATCH_IN*%
X10343400Y-27660700D02*
X11070100Y-28387400D01*
X9150000Y-20700000D02*
X10106700Y-20700000D01*
X9912500Y-34500000D02*
X12087500Y-32325000D01*
X11474900Y-28387400D02*
X12087500Y-29000000D01*
X12087500Y-32325000D02*
X12087500Y-29000000D01*
X18817000Y-28095500D02*
X17912500Y-29000000D01*
X10343400Y-20936700D02*
X10343400Y-27660700D01*
X11070100Y-28387400D02*
X11474900Y-28387400D01*
X10106700Y-20700000D02*
X10343400Y-20936700D01*
%TO.N,LSE_OUT*%
X75502100Y-23549600D02*
X71099600Y-23549600D01*
X77701700Y-21750000D02*
X77201700Y-22250000D01*
X76000100Y-22250000D02*
X77201700Y-22250000D01*
X76000100Y-22250000D02*
X76000000Y-22250000D01*
X71099600Y-23549600D02*
X70050000Y-22500000D01*
X79325000Y-21750000D02*
X77701700Y-21750000D01*
X76000000Y-22250000D02*
X76000000Y-23051700D01*
X76000000Y-23051700D02*
X75502100Y-23549600D01*
%TO.N,CH19*%
X101588300Y-40743000D02*
X101588300Y-42530700D01*
X116289300Y-55710000D02*
X117499300Y-54500000D01*
X118300000Y-65000000D02*
X119887500Y-63412500D01*
X102130600Y-43073000D02*
X102288300Y-43073000D01*
X101588300Y-42530700D02*
X102130600Y-43073000D01*
X102662500Y-40325000D02*
X102006300Y-40325000D01*
X119887500Y-63412500D02*
X119887500Y-59000000D01*
X117499300Y-54500000D02*
X119887500Y-54500000D01*
X102006300Y-40325000D02*
X101588300Y-40743000D01*
%TO.N,SNS18*%
X120786100Y-39927300D02*
X120108100Y-39927300D01*
X115712500Y-50000000D02*
X117085300Y-50000000D01*
X122895000Y-37958800D02*
X121580700Y-39273100D01*
X115712500Y-50000000D02*
X115712500Y-54500000D01*
X121440300Y-39273100D02*
X120786100Y-39927300D01*
X121580700Y-39273100D02*
X121440300Y-39273100D01*
X122895000Y-37525000D02*
X122895000Y-37958800D01*
%TO.N,CH3*%
X19887500Y-61587500D02*
X19887500Y-59000000D01*
X17701400Y-56686100D02*
X19887500Y-54500000D01*
X14662500Y-39025000D02*
X13400600Y-39025000D01*
X23300000Y-65000000D02*
X19887500Y-61587500D01*
X13461800Y-56686100D02*
X17701400Y-56686100D01*
%TO.N,SNS3*%
X21712500Y-54500000D02*
X21712500Y-52250000D01*
X21712500Y-52250000D02*
X27074700Y-52250000D01*
X36165000Y-37525000D02*
X35616400Y-38073600D01*
X21712500Y-52250000D02*
X21712500Y-50000000D01*
X35616400Y-38073600D02*
X35616400Y-39728600D01*
%TO.N,LED1_A*%
X23937500Y-5000000D02*
X23912500Y-5025000D01*
X23912500Y-5025000D02*
X23912500Y-9000000D01*
%TO.N,DRV1*%
X8937500Y-37725000D02*
X9084700Y-37725000D01*
X9084700Y-37725000D02*
X10162000Y-36647700D01*
X17923700Y-36246100D02*
X18720600Y-36246100D01*
X17522100Y-36647700D02*
X17923700Y-36246100D01*
X18720600Y-36246100D02*
X19625000Y-37150500D01*
X10162000Y-36647700D02*
X17522100Y-36647700D01*
X19625000Y-37150500D02*
X19625000Y-37525000D01*
%TO.N,DRV2*%
X13657700Y-42610800D02*
X13659800Y-42610800D01*
X12226300Y-41027300D02*
X12226300Y-41571700D01*
X10840300Y-39558700D02*
X10840300Y-39641300D01*
X8937500Y-38375000D02*
X10140000Y-38375000D01*
X13993300Y-42944300D02*
X17885700Y-42944300D01*
X12578900Y-41924300D02*
X12971200Y-41924300D01*
X12226300Y-41571700D02*
X12578900Y-41924300D01*
X10890300Y-39508700D02*
X10840300Y-39558700D01*
X13659800Y-42610800D02*
X13993300Y-42944300D01*
X17885700Y-42944300D02*
X18355000Y-42475000D01*
X10140000Y-38375000D02*
X10890300Y-39125300D01*
X10840300Y-39641300D02*
X12226300Y-41027300D01*
X12971200Y-41924300D02*
X13657700Y-42610800D01*
X10890300Y-39125300D02*
X10890300Y-39508700D01*
%TO.N,DRV3*%
X12804900Y-42326000D02*
X13491400Y-43012500D01*
X10222000Y-39025000D02*
X10472700Y-39275700D01*
X13493500Y-43012500D02*
X13827000Y-43346000D01*
X11824600Y-41341500D02*
X11824600Y-41738000D01*
X12412600Y-42326000D02*
X12804900Y-42326000D01*
X10472700Y-39358300D02*
X10397300Y-39433700D01*
X13827000Y-43346000D02*
X17068000Y-43346000D01*
X10397300Y-39433700D02*
X10397300Y-39766300D01*
X19625000Y-42819700D02*
X19625000Y-42475000D01*
X10972300Y-40341300D02*
X10972300Y-40489200D01*
X18674900Y-43769800D02*
X19625000Y-42819700D01*
X8937500Y-39025000D02*
X10222000Y-39025000D01*
X13491400Y-43012500D02*
X13493500Y-43012500D01*
X17068000Y-43346000D02*
X17491800Y-43769800D01*
X11824600Y-41738000D02*
X12412600Y-42326000D01*
X17491800Y-43769800D02*
X18674900Y-43769800D01*
X10397300Y-39766300D02*
X10972300Y-40341300D01*
X10472700Y-39275700D02*
X10472700Y-39358300D01*
X10972300Y-40489200D02*
X11824600Y-41341500D01*
%TO.N,DRV4*%
X9738100Y-39675000D02*
X9738100Y-39675100D01*
X12638600Y-42727700D02*
X13325100Y-43414200D01*
X11422900Y-41509900D02*
X11422900Y-41904300D01*
X12246300Y-42727700D02*
X12638600Y-42727700D01*
X10570600Y-40507600D02*
X10570600Y-40655500D01*
X20895000Y-42819700D02*
X20895000Y-42475000D01*
X11422900Y-41904300D02*
X12246300Y-42727700D01*
X10823000Y-40910000D02*
X11422900Y-41509900D01*
X19543200Y-44171500D02*
X20895000Y-42819700D01*
X13327200Y-43414200D02*
X14084500Y-44171500D01*
X8937500Y-39675000D02*
X9738100Y-39675000D01*
X13325100Y-43414200D02*
X13327200Y-43414200D01*
X14084500Y-44171500D02*
X19543200Y-44171500D01*
X10570600Y-40655500D02*
X10823000Y-40907900D01*
X9738100Y-39675100D02*
X10570600Y-40507600D01*
X10823000Y-40907900D02*
X10823000Y-40910000D01*
%TO.N,DRV5*%
X12080000Y-43129400D02*
X12472300Y-43129400D01*
X12472300Y-43129400D02*
X13917600Y-44574700D01*
X20492400Y-44574700D02*
X22165000Y-42902100D01*
X11021200Y-41676200D02*
X11021200Y-42070600D01*
X8937500Y-40325000D02*
X9670000Y-40325000D01*
X9670000Y-40325000D02*
X11021200Y-41676200D01*
X11021200Y-42070600D02*
X12080000Y-43129400D01*
X13917600Y-44574700D02*
X20492400Y-44574700D01*
X22165000Y-42902100D02*
X22165000Y-42475000D01*
%TO.N,DRV6*%
X10619500Y-42236900D02*
X10619500Y-42000800D01*
X21312700Y-44989800D02*
X13468100Y-44989800D01*
X10619500Y-42000800D02*
X9593700Y-40975000D01*
X13468100Y-44989800D02*
X12476800Y-43998500D01*
X12381100Y-43998500D02*
X10619500Y-42236900D01*
X23435000Y-42475000D02*
X23435000Y-42867500D01*
X9593700Y-40975000D02*
X8937500Y-40975000D01*
X12476800Y-43998500D02*
X12381100Y-43998500D01*
X23435000Y-42867500D02*
X21312700Y-44989800D01*
%TO.N,DRV7*%
X22143300Y-45420500D02*
X24705000Y-42858800D01*
X8266000Y-41625000D02*
X7883300Y-41242300D01*
X7883300Y-37473000D02*
X8686600Y-36669700D01*
X12227600Y-44600200D02*
X13047900Y-45420500D01*
X13047900Y-45420500D02*
X22143300Y-45420500D01*
X8937500Y-41625000D02*
X8266000Y-41625000D01*
X7883300Y-41242300D02*
X7883300Y-37473000D01*
X8686600Y-36669700D02*
X9289100Y-36669700D01*
X24705000Y-42858800D02*
X24705000Y-42475000D01*
%TO.N,CH7*%
X14662500Y-41625000D02*
X17110200Y-41625000D01*
X38854000Y-63446000D02*
X38854000Y-60045000D01*
X42842500Y-60045000D02*
X43887500Y-59000000D01*
X17110200Y-41625000D02*
X17168000Y-41682800D01*
X38854000Y-60045000D02*
X38854000Y-58325800D01*
X38854000Y-58325800D02*
X42679800Y-54500000D01*
X37300000Y-65000000D02*
X38854000Y-63446000D01*
X42679800Y-54500000D02*
X43887500Y-54500000D01*
X38854000Y-60045000D02*
X42842500Y-60045000D01*
%TO.N,CH6*%
X14662500Y-40975000D02*
X16865000Y-40975000D01*
X33800000Y-65000000D02*
X33800000Y-63087500D01*
X16865000Y-40975000D02*
X16978900Y-40861100D01*
X33800000Y-63087500D02*
X37887500Y-59000000D01*
X37887500Y-54500000D02*
X37887500Y-59000000D01*
%TO.N,CH5*%
X31887500Y-60028200D02*
X31887500Y-59000000D01*
X30300000Y-65000000D02*
X31887500Y-63412500D01*
X14662500Y-40325000D02*
X16499300Y-40325000D01*
X31887500Y-55068000D02*
X34572600Y-57753100D01*
X31887500Y-63412500D02*
X31887500Y-60028200D01*
X34180000Y-60028200D02*
X31887500Y-60028200D01*
X34572600Y-59635600D02*
X34180000Y-60028200D01*
X31887500Y-54500000D02*
X31887500Y-55068000D01*
X34572600Y-57753100D02*
X34572600Y-59635600D01*
X16499300Y-40325000D02*
X16787900Y-40036400D01*
%TO.N,CH2*%
X13887500Y-54500000D02*
X12585900Y-55801600D01*
X12585900Y-57850500D02*
X13735400Y-59000000D01*
X14662500Y-38375000D02*
X12617600Y-38375000D01*
X12585900Y-55801600D02*
X12585900Y-57850500D01*
X19800000Y-65000000D02*
X13887500Y-59087500D01*
X13735400Y-59000000D02*
X13887500Y-59000000D01*
X13887500Y-59087500D02*
X13887500Y-59000000D01*
%TO.N,CH1*%
X15051200Y-37336300D02*
X14662500Y-37725000D01*
X16300000Y-65000000D02*
X13887500Y-65000000D01*
X13887500Y-65000000D02*
X7887500Y-59000000D01*
X15896900Y-37336300D02*
X15051200Y-37336300D01*
X7887500Y-54500000D02*
X7887500Y-59000000D01*
%TO.N,SNS13*%
X83712500Y-50000000D02*
X80165000Y-46452500D01*
X83712500Y-50000000D02*
X83712500Y-54500000D01*
X80165000Y-46452500D02*
X80165000Y-42475000D01*
%TO.N,SWDIO*%
X82369300Y-21306900D02*
X82426200Y-21250000D01*
X82426200Y-21250000D02*
X90675000Y-21250000D01*
%TO.N,SWCLK*%
X88750000Y-18325000D02*
X88997500Y-18077500D01*
X88997500Y-18077500D02*
X89410500Y-18077500D01*
%TO.N,NRST*%
X71620000Y-34000000D02*
X70186700Y-32566700D01*
X53150000Y-30100000D02*
X54301700Y-30100000D01*
X95074500Y-23375500D02*
X95500000Y-22950000D01*
X93573500Y-23375500D02*
X95074500Y-23375500D01*
X70186700Y-32566700D02*
X56768400Y-32566700D01*
X80758800Y-23250000D02*
X81086700Y-23577900D01*
X53150000Y-30100000D02*
X46850000Y-30100000D01*
X56768400Y-32566700D02*
X54301700Y-30100000D01*
X79325000Y-23250000D02*
X80758800Y-23250000D01*
%TO.N,CH18*%
X101915700Y-39675000D02*
X101142800Y-40447900D01*
X101142800Y-42780700D02*
X102255300Y-43893200D01*
X101142800Y-40447900D02*
X101142800Y-42780700D01*
X112832200Y-59151300D02*
X113736200Y-59151300D01*
X113736200Y-59151300D02*
X113887500Y-59000000D01*
X113887500Y-54500000D02*
X113887500Y-59000000D01*
X102662500Y-39675000D02*
X101915700Y-39675000D01*
%TO.N,+12V_SW*%
X16756700Y-19100000D02*
X15806700Y-20050000D01*
X15806700Y-20700000D02*
X15806700Y-21350000D01*
X15162000Y-23950000D02*
X15806700Y-23950000D01*
X15162000Y-23950000D02*
X15162000Y-33612000D01*
X14850000Y-21350000D02*
X15806700Y-21350000D01*
X14850000Y-23950000D02*
X15162000Y-23950000D01*
X15162000Y-33612000D02*
X16050000Y-34500000D01*
X15806700Y-20050000D02*
X15806700Y-20700000D01*
X14850000Y-20050000D02*
X15806700Y-20050000D01*
X14850000Y-22650000D02*
X15806700Y-22650000D01*
X15806700Y-23300000D02*
X15806700Y-23950000D01*
X14850000Y-20700000D02*
X15806700Y-20700000D01*
X15806700Y-21350000D02*
X15806700Y-22650000D01*
X14850000Y-23300000D02*
X15806700Y-23300000D01*
X29600000Y-19100000D02*
X16756700Y-19100000D01*
X15806700Y-22650000D02*
X15806700Y-23300000D01*
%TO.N,HSE_IN*%
X72936400Y-28386400D02*
X70050000Y-25500000D01*
X76000000Y-28850000D02*
X74013000Y-28850000D01*
X79325000Y-22250000D02*
X80344900Y-22250000D01*
X80344900Y-22250000D02*
X80622200Y-21972700D01*
X74013000Y-28850000D02*
X73549400Y-28386400D01*
X73549400Y-28386400D02*
X72936400Y-28386400D01*
%TO.N,AUX1*%
X60142700Y-11055200D02*
X61000000Y-11912500D01*
X59984700Y-11055200D02*
X60142700Y-11055200D01*
%TO.N,AUX2*%
X66142700Y-11055200D02*
X67000000Y-11912500D01*
X66004700Y-11055200D02*
X66142700Y-11055200D01*
%TO.N,AUX3*%
X72142700Y-11055200D02*
X73000000Y-11912500D01*
X71041300Y-11055200D02*
X72142700Y-11055200D01*
%TO.N,CH21*%
X131887500Y-59000000D02*
X132936300Y-60048800D01*
X132936300Y-60048800D02*
X134236100Y-60048800D01*
X134575000Y-57187500D02*
X131887500Y-54500000D01*
X125300000Y-65000000D02*
X131300000Y-59000000D01*
X134236100Y-60048800D02*
X134575000Y-59709900D01*
X131300000Y-59000000D02*
X131887500Y-59000000D01*
X102662500Y-41625000D02*
X103975700Y-41625000D01*
X134575000Y-59709900D02*
X134575000Y-57187500D01*
%TO.N,CH20*%
X104223000Y-40975000D02*
X104612000Y-41364000D01*
X104612000Y-41364000D02*
X104612000Y-42541600D01*
X102662500Y-40975000D02*
X104223000Y-40975000D01*
X125887500Y-59000000D02*
X123865100Y-61022400D01*
X125887500Y-54500000D02*
X123563900Y-56823600D01*
X123865100Y-61022400D02*
X122197200Y-61022400D01*
X122197200Y-64602800D02*
X121800000Y-65000000D01*
X123563900Y-56823600D02*
X117852500Y-56823600D01*
X122197200Y-61022400D02*
X122197200Y-64602800D01*
X104612000Y-42541600D02*
X104318600Y-42835000D01*
%TO.N,CH17*%
X110170200Y-60045600D02*
X110170200Y-63870200D01*
X100731300Y-40229400D02*
X101935700Y-39025000D01*
X107887500Y-59000000D02*
X108933100Y-60045600D01*
X107400000Y-54012500D02*
X107887500Y-54500000D01*
X110170200Y-63870200D02*
X111300000Y-65000000D01*
X100731300Y-43769700D02*
X100731300Y-40229400D01*
X108933100Y-60045600D02*
X110170200Y-60045600D01*
X105796500Y-54012500D02*
X107400000Y-54012500D01*
X101935700Y-39025000D02*
X102662500Y-39025000D01*
X100977200Y-44015600D02*
X100731300Y-43769700D01*
%TO.N,CH16*%
X101887500Y-55060100D02*
X102504800Y-55677400D01*
X101887500Y-54500000D02*
X101887500Y-55060100D01*
X100459200Y-46310300D02*
X100268900Y-46500600D01*
X102662500Y-38375000D02*
X101945000Y-38375000D01*
X100459200Y-44583500D02*
X100459200Y-46310300D01*
X101887500Y-59087500D02*
X101887500Y-59000000D01*
X107800000Y-65000000D02*
X101887500Y-59087500D01*
X101945000Y-38375000D02*
X100308600Y-40011400D01*
X100268900Y-46500600D02*
X100268900Y-52881400D01*
X100308600Y-44432900D02*
X100459200Y-44583500D01*
X100268900Y-52881400D02*
X101887500Y-54500000D01*
X100308600Y-40011400D02*
X100308600Y-44432900D01*
%TO.N,CH15*%
X102662500Y-37725000D02*
X101986700Y-37725000D01*
X94352000Y-54500000D02*
X95887500Y-54500000D01*
X99906900Y-44599300D02*
X100057500Y-44749900D01*
X99800000Y-46401500D02*
X99800000Y-50587500D01*
X103490100Y-65000000D02*
X98537100Y-60047000D01*
X104300000Y-65000000D02*
X103490100Y-65000000D01*
X100057500Y-46144000D02*
X99800000Y-46401500D01*
X101986700Y-37725000D02*
X99906900Y-39804800D01*
X99906900Y-39804800D02*
X99906900Y-44599300D01*
X99800000Y-50587500D02*
X95887500Y-54500000D01*
X96934500Y-60047000D02*
X95887500Y-59000000D01*
X100057500Y-44749900D02*
X100057500Y-46144000D01*
X98537100Y-60047000D02*
X96934500Y-60047000D01*
%TO.N,+5V*%
X23532400Y-31982400D02*
X24850000Y-33300000D01*
X32015600Y-28777800D02*
X26725000Y-28777800D01*
X24037000Y-29850000D02*
X23539900Y-29352900D01*
X35000000Y-31950000D02*
X35000000Y-31762200D01*
X23539900Y-29352900D02*
X23539900Y-27982500D01*
X27068200Y-24454200D02*
X51725800Y-24454200D01*
X35000000Y-31762200D02*
X32015600Y-28777800D01*
X26725000Y-28777800D02*
X25652800Y-29850000D01*
X24037000Y-29850000D02*
X23532400Y-30354600D01*
X25652800Y-29850000D02*
X24037000Y-29850000D01*
X51725800Y-24454200D02*
X57400000Y-18780000D01*
X23532400Y-30354600D02*
X23532400Y-31982400D01*
X23539900Y-27982500D02*
X27068200Y-24454200D01*
%TO.N,SR_PL*%
X86250000Y-31808800D02*
X85095200Y-32963600D01*
X32355000Y-42064700D02*
X32355000Y-42475000D01*
X33270100Y-41149600D02*
X32355000Y-42064700D01*
X40293100Y-44456700D02*
X39307400Y-43471000D01*
X70080300Y-46035300D02*
X69961100Y-45916100D01*
X69961100Y-45916100D02*
X68854700Y-45916100D01*
X86250000Y-29675000D02*
X86250000Y-31808800D01*
X39307400Y-43471000D02*
X39307400Y-41403500D01*
X70080300Y-46035300D02*
X72794700Y-46035300D01*
X68854700Y-45916100D02*
X68453900Y-46316900D01*
X39307400Y-41403500D02*
X39053500Y-41149600D01*
X39053500Y-41149600D02*
X33270100Y-41149600D01*
X68453900Y-46316900D02*
X68453900Y-46317000D01*
X68453900Y-46317000D02*
X47492900Y-46317000D01*
X122601900Y-44483300D02*
X121955900Y-44483300D01*
X47492900Y-46317000D02*
X47091200Y-45915300D01*
X47091200Y-45915300D02*
X41905700Y-45915300D01*
X40447100Y-44456700D02*
X40293100Y-44456700D01*
X120355000Y-42882400D02*
X120355000Y-42475000D01*
X72794700Y-46035300D02*
X76355000Y-42475000D01*
X121955900Y-44483300D02*
X120355000Y-42882400D01*
X41905700Y-45915300D02*
X40447100Y-44456700D01*
%TO.N,SNS5*%
X33712500Y-50000000D02*
X33712500Y-54500000D01*
X34895000Y-48817500D02*
X34895000Y-42475000D01*
X33712500Y-50000000D02*
X34895000Y-48817500D01*
%TO.N,SNS6*%
X39712500Y-50000000D02*
X40751300Y-48961200D01*
X44380200Y-48961200D02*
X44747500Y-49328500D01*
X44747500Y-50706000D02*
X40953500Y-54500000D01*
X44747500Y-49328500D02*
X44747500Y-50706000D01*
X40751300Y-48961200D02*
X44380200Y-48961200D01*
X40953500Y-54500000D02*
X39712500Y-54500000D01*
X36165000Y-42475000D02*
X36165000Y-46452500D01*
X36165000Y-46452500D02*
X39712500Y-50000000D01*
%TO.N,SNS7*%
X45712500Y-50000000D02*
X45712500Y-49716000D01*
X45712500Y-49716000D02*
X42506500Y-46510000D01*
X45712500Y-50000000D02*
X45712500Y-54500000D01*
X42506500Y-46510000D02*
X40797100Y-46510000D01*
X37435000Y-43147900D02*
X37435000Y-42475000D01*
X40797100Y-46510000D02*
X37435000Y-43147900D01*
%TO.N,ASNS1*%
X60926100Y-10013600D02*
X61000000Y-10087500D01*
X62825000Y-11912500D02*
X61000000Y-10087500D01*
X58192400Y-10013600D02*
X60926100Y-10013600D01*
X64000000Y-11912500D02*
X62825000Y-11912500D01*
X38705000Y-42475000D02*
X38705000Y-43565500D01*
X38705000Y-43565500D02*
X40197900Y-45058400D01*
%TO.N,SR_DI12*%
X41245000Y-37525000D02*
X42748000Y-36022000D01*
X83975000Y-37161200D02*
X82771400Y-35957600D01*
X82771400Y-35957600D02*
X82246400Y-35957600D01*
X83975000Y-37525000D02*
X83975000Y-37161200D01*
X42748000Y-36022000D02*
X61991700Y-36022000D01*
%TO.N,SNS2*%
X32284700Y-40330300D02*
X35865600Y-40330300D01*
X35865600Y-40330300D02*
X37435000Y-38760900D01*
X15712500Y-50000000D02*
X17437000Y-48275500D01*
X15712500Y-50000000D02*
X15712500Y-54500000D01*
X37435000Y-38760900D02*
X37435000Y-37525000D01*
X24339500Y-48275500D02*
X32284700Y-40330300D01*
X17437000Y-48275500D02*
X24339500Y-48275500D01*
%TO.N,SNS4*%
X34895000Y-37525000D02*
X34895000Y-39128400D01*
X34895000Y-39128400D02*
X34709100Y-39314300D01*
X27712500Y-54500000D02*
X27712500Y-50000000D01*
X27712500Y-50000000D02*
X29104000Y-50000000D01*
%TO.N,CAN_TX*%
X102810200Y-11710400D02*
X102810200Y-10927400D01*
X99365100Y-11521400D02*
X99843700Y-12000000D01*
X99843700Y-12000000D02*
X102520600Y-12000000D01*
X94153900Y-11521400D02*
X99365100Y-11521400D01*
X82250000Y-17499200D02*
X81998800Y-17248000D01*
X82250000Y-18325000D02*
X82250000Y-17499200D01*
X102810200Y-10927400D02*
X101977800Y-10095000D01*
X81499000Y-17248000D02*
X81134800Y-16883800D01*
X101977800Y-10095000D02*
X101525000Y-10095000D01*
X102520600Y-12000000D02*
X102810200Y-11710400D01*
X81998800Y-17248000D02*
X81499000Y-17248000D01*
%TO.N,CAN_RX*%
X82750000Y-19480400D02*
X83512300Y-20242700D01*
X101333900Y-14096100D02*
X101525000Y-13905000D01*
X83512300Y-20242700D02*
X88977500Y-20242700D01*
X82750000Y-18325000D02*
X82750000Y-19480400D01*
X89580200Y-19640000D02*
X93736200Y-19640000D01*
X96881200Y-14096100D02*
X101333900Y-14096100D01*
X88977500Y-20242700D02*
X89580200Y-19640000D01*
%TO.N,CANL*%
X103500000Y-10035600D02*
X106099400Y-12635000D01*
X116979400Y-19033100D02*
X109945600Y-19033100D01*
X106475000Y-12635000D02*
X106983400Y-12126600D01*
X111076200Y-15836300D02*
X108912500Y-18000000D01*
X109945600Y-19033100D02*
X108912500Y-18000000D01*
X117062500Y-18950000D02*
X116979400Y-19033100D01*
X86460400Y-3539600D02*
X85000000Y-5000000D01*
X111076200Y-12506600D02*
X111076200Y-15836300D01*
X103500000Y-5000000D02*
X102039600Y-3539600D01*
X110696200Y-12126600D02*
X111076200Y-12506600D01*
X106099400Y-12635000D02*
X106475000Y-12635000D01*
X102039600Y-3539600D02*
X86460400Y-3539600D01*
X106983400Y-12126600D02*
X110696200Y-12126600D01*
X103500000Y-5000000D02*
X103500000Y-10035600D01*
%TO.N,CANH*%
X108761900Y-10242700D02*
X107639600Y-11365000D01*
X105164600Y-10435900D02*
X105164600Y-6835400D01*
X104177100Y-15910400D02*
X105796500Y-15910400D01*
X107639600Y-11365000D02*
X106475000Y-11365000D01*
X102087500Y-18000000D02*
X104177100Y-15910400D01*
X106093700Y-11365000D02*
X105164600Y-10435900D01*
X117062500Y-17050000D02*
X117062500Y-16540800D01*
X110764400Y-10242700D02*
X108761900Y-10242700D01*
X106475000Y-11365000D02*
X106093700Y-11365000D01*
X105164600Y-6835400D02*
X107000000Y-5000000D01*
X117062500Y-16540800D02*
X110764400Y-10242700D01*
%TO.N,CAN_RS*%
X106475000Y-10095000D02*
X109357500Y-7212500D01*
X110922500Y-18191500D02*
X111896000Y-18191500D01*
X111896000Y-18191500D02*
X112087500Y-18000000D01*
X109357500Y-7212500D02*
X110574600Y-7212500D01*
%TO.N,CH11*%
X58662500Y-39675000D02*
X60573400Y-39675000D01*
X69887500Y-59000000D02*
X69887500Y-54500000D01*
X69887500Y-59000000D02*
X69488700Y-59398800D01*
X69887500Y-52724100D02*
X69887500Y-54500000D01*
X69488700Y-59398800D02*
X68591400Y-59398800D01*
%TO.N,SNS11*%
X78895000Y-38501000D02*
X77694600Y-39701400D01*
X71712500Y-50000000D02*
X71712500Y-54500000D01*
X78895000Y-37525000D02*
X78895000Y-38501000D01*
X71712500Y-50000000D02*
X72745100Y-50000000D01*
%TO.N,IMU_SDO*%
X103737500Y-25250000D02*
X103737500Y-24741000D01*
X116000000Y-25912500D02*
X114988700Y-26923800D01*
X112550100Y-28480400D02*
X114909500Y-28480400D01*
X103737500Y-24741000D02*
X103862100Y-24616400D01*
X114988700Y-28401200D02*
X116000000Y-29412500D01*
X114988700Y-26923800D02*
X114988700Y-28401200D01*
X114909500Y-28480400D02*
X114988700Y-28401200D01*
%TO.N,IMU_INT1*%
X81732100Y-27250000D02*
X81733700Y-27248400D01*
X103737500Y-28419100D02*
X103844700Y-28526300D01*
X79325000Y-27250000D02*
X81732100Y-27250000D01*
X103737500Y-26750000D02*
X103737500Y-28419100D01*
%TO.N,IMU_SCL*%
X105000000Y-24237700D02*
X104297100Y-23534800D01*
X105000000Y-24237700D02*
X105301100Y-23936600D01*
X100378300Y-23534800D02*
X95648600Y-18805100D01*
X105301100Y-23936600D02*
X108986800Y-23936600D01*
X89647300Y-18805100D02*
X89036000Y-19416400D01*
X118504200Y-25091700D02*
X121000000Y-27587500D01*
X108986800Y-23936600D02*
X110141900Y-25091700D01*
X104297100Y-23534800D02*
X100378300Y-23534800D01*
X84250000Y-19146200D02*
X84250000Y-18325000D01*
X89036000Y-19416400D02*
X84520200Y-19416400D01*
X84520200Y-19416400D02*
X84250000Y-19146200D01*
X110141900Y-25091700D02*
X118504200Y-25091700D01*
X105000000Y-24987500D02*
X105000000Y-24237700D01*
X95648600Y-18805100D02*
X89647300Y-18805100D01*
%TO.N,IMU_SDA*%
X104158900Y-24007200D02*
X104500000Y-24348300D01*
X100479500Y-21950300D02*
X118862800Y-21950300D01*
X118862800Y-21950300D02*
X121000000Y-24087500D01*
X104500000Y-24987500D02*
X104500000Y-24348300D01*
X83750000Y-18325000D02*
X83750000Y-19602800D01*
X99819500Y-24007200D02*
X104158900Y-24007200D01*
%TO.N,ASNS2*%
X72042100Y-12849600D02*
X71105000Y-11912500D01*
X77236300Y-30167200D02*
X77837300Y-29566200D01*
X68175000Y-10087500D02*
X70000000Y-11912500D01*
X77837300Y-29459900D02*
X77716600Y-29339200D01*
X67000000Y-10087500D02*
X68175000Y-10087500D01*
X71105000Y-11912500D02*
X70000000Y-11912500D01*
X82705000Y-42475000D02*
X82705000Y-39005500D01*
X77837300Y-29566200D02*
X77837300Y-29459900D01*
X68358600Y-30167200D02*
X77236300Y-30167200D01*
X68078400Y-29887000D02*
X68358600Y-30167200D01*
%TO.N,DRV8*%
X60253100Y-37119200D02*
X61978600Y-38844700D01*
X53543300Y-37119200D02*
X60253100Y-37119200D01*
X61978600Y-38844700D02*
X62674700Y-38844700D01*
X52937500Y-37725000D02*
X53543300Y-37119200D01*
X62674700Y-38844700D02*
X63625000Y-37894400D01*
X63625000Y-37894400D02*
X63625000Y-37525000D01*
%TO.N,DRV9*%
X57414500Y-42793200D02*
X62036800Y-42793200D01*
X52937500Y-38375000D02*
X53643800Y-38375000D01*
X56564000Y-41942700D02*
X57414500Y-42793200D01*
X62036800Y-42793200D02*
X62355000Y-42475000D01*
X56564000Y-41295200D02*
X56564000Y-41942700D01*
X53643800Y-38375000D02*
X56564000Y-41295200D01*
%TO.N,DRV10*%
X57820900Y-43782800D02*
X62679600Y-43782800D01*
X53596300Y-39025000D02*
X56162300Y-41591000D01*
X52937500Y-39025000D02*
X53596300Y-39025000D01*
X56162300Y-42124200D02*
X57820900Y-43782800D01*
X63625000Y-42837400D02*
X63625000Y-42475000D01*
X56162300Y-41591000D02*
X56162300Y-42124200D01*
X62679600Y-43782800D02*
X63625000Y-42837400D01*
%TO.N,DRV11*%
X57682800Y-44225500D02*
X63506900Y-44225500D01*
X55760600Y-41838400D02*
X55760600Y-42303300D01*
X63506900Y-44225500D02*
X64895000Y-42837400D01*
X64895000Y-42837400D02*
X64895000Y-42475000D01*
X52937500Y-39675000D02*
X53597200Y-39675000D01*
X55760600Y-42303300D02*
X57682800Y-44225500D01*
X53597200Y-39675000D02*
X55760600Y-41838400D01*
%TO.N,DRV12*%
X52937500Y-40325000D02*
X53607000Y-40325000D01*
X55358900Y-42476300D02*
X57558100Y-44675500D01*
X64326700Y-44675500D02*
X66165000Y-42837200D01*
X57558100Y-44675500D02*
X64326700Y-44675500D01*
X55358900Y-42076900D02*
X55358900Y-42476300D01*
X53607000Y-40325000D02*
X55358900Y-42076900D01*
X66165000Y-42837200D02*
X66165000Y-42475000D01*
%TO.N,DRV13*%
X65176000Y-45094900D02*
X67435000Y-42835900D01*
X57372500Y-45094900D02*
X65176000Y-45094900D01*
X67435000Y-42835900D02*
X67435000Y-42475000D01*
X54637300Y-42359700D02*
X57372500Y-45094900D01*
X53616900Y-40975000D02*
X54637300Y-41995400D01*
X54637300Y-41995400D02*
X54637300Y-42359700D01*
X52937500Y-40975000D02*
X53616900Y-40975000D01*
%TO.N,DRV14*%
X54235600Y-42239700D02*
X54235600Y-42540200D01*
X53620900Y-41625000D02*
X54235600Y-42239700D01*
X54235600Y-42540200D02*
X57194300Y-45498900D01*
X66033300Y-45498900D02*
X68705000Y-42827200D01*
X57194300Y-45498900D02*
X66033300Y-45498900D01*
X68705000Y-42827200D02*
X68705000Y-42475000D01*
X52937500Y-41625000D02*
X53620900Y-41625000D01*
%TO.N,CH14*%
X86842500Y-60045000D02*
X87887500Y-59000000D01*
X82854000Y-60045000D02*
X86842500Y-60045000D01*
X60465800Y-41625000D02*
X60568000Y-41727200D01*
X82854000Y-60045000D02*
X82854000Y-58327700D01*
X82854000Y-63446000D02*
X82854000Y-60045000D01*
X82854000Y-58327700D02*
X86681700Y-54500000D01*
X81300000Y-65000000D02*
X82854000Y-63446000D01*
X86681700Y-54500000D02*
X87887500Y-54500000D01*
X58662500Y-41625000D02*
X60465800Y-41625000D01*
%TO.N,CH13*%
X77800000Y-65000000D02*
X77800000Y-63087500D01*
X58662500Y-40975000D02*
X60952700Y-40975000D01*
X77800000Y-63087500D02*
X81887500Y-59000000D01*
X81887500Y-59000000D02*
X81887500Y-54500000D01*
%TO.N,CH12*%
X78582400Y-59625800D02*
X78187300Y-60020900D01*
X74300000Y-65000000D02*
X75887500Y-63412500D01*
X78187300Y-60020900D02*
X75887500Y-60020900D01*
X78582400Y-57762900D02*
X78582400Y-59625800D01*
X75887500Y-63412500D02*
X75887500Y-60020900D01*
X58662500Y-40325000D02*
X59922100Y-40325000D01*
X75887500Y-54500000D02*
X75887500Y-55068000D01*
X75887500Y-60020900D02*
X75887500Y-59000000D01*
X75887500Y-55068000D02*
X78582400Y-57762900D01*
%TO.N,CH9*%
X59347200Y-38375000D02*
X59906900Y-38934700D01*
X57887500Y-55128200D02*
X57887500Y-54500000D01*
X57887500Y-59087500D02*
X57887500Y-59000000D01*
X58726800Y-55967500D02*
X57887500Y-55128200D01*
X58662500Y-38375000D02*
X59347200Y-38375000D01*
X63800000Y-65000000D02*
X57887500Y-59087500D01*
%TO.N,CH8*%
X51887500Y-59000000D02*
X51887500Y-56887000D01*
X51887500Y-56887000D02*
X58122600Y-56887000D01*
X51887500Y-56887000D02*
X51887500Y-54500000D01*
X58662500Y-37725000D02*
X59928500Y-37725000D01*
%TO.N,LSE_IN*%
X75593800Y-20557000D02*
X71107000Y-20557000D01*
X76000000Y-19750000D02*
X76000000Y-20150800D01*
X76000000Y-20150800D02*
X76000000Y-20551700D01*
X79325000Y-21250000D02*
X76698300Y-21250000D01*
X76000000Y-20150800D02*
X75593800Y-20557000D01*
X71107000Y-20557000D02*
X70050000Y-19500000D01*
X76698300Y-21250000D02*
X76000000Y-20551700D01*
%TO.N,LED2_A*%
X28937500Y-5000000D02*
X28912500Y-5025000D01*
X28912500Y-5025000D02*
X28912500Y-9000000D01*
%TO.N,LATCH_GND*%
X9150000Y-20050000D02*
X8193300Y-20050000D01*
X7763000Y-20480300D02*
X7763000Y-25833800D01*
X7763000Y-25833800D02*
X8869500Y-26940300D01*
X8193300Y-20050000D02*
X7763000Y-20480300D01*
X8869500Y-28218000D02*
X8087500Y-29000000D01*
X8869500Y-26940300D02*
X8869500Y-28218000D01*
%TO.N,SNS21*%
X125435000Y-42824800D02*
X130973500Y-48363300D01*
X125435000Y-42475000D02*
X125435000Y-42824800D01*
X132075800Y-48363300D02*
X133712500Y-50000000D01*
X133712500Y-50000000D02*
X133712500Y-54500000D01*
X130973500Y-48363300D02*
X132075800Y-48363300D01*
%TO.N,BOOT0*%
X83250000Y-16412500D02*
X83052900Y-16609600D01*
X83250000Y-18325000D02*
X83250000Y-16806700D01*
X83250000Y-16806700D02*
X83052900Y-16609600D01*
X83052900Y-16609600D02*
X82028000Y-16609600D01*
%TO.N,SR_CH21*%
X71245000Y-36964100D02*
X70319800Y-36038900D01*
X20895000Y-37525000D02*
X20895000Y-30002600D01*
X20895000Y-30002600D02*
X27070500Y-23827100D01*
X71245000Y-37525000D02*
X71245000Y-36964100D01*
X27070500Y-23827100D02*
X49119500Y-23827100D01*
%TO.N,SNS8*%
X53712500Y-51062800D02*
X53712500Y-54500000D01*
X51037000Y-50684800D02*
X51415000Y-51062800D01*
X53712500Y-50000000D02*
X53712500Y-51062800D01*
X53670500Y-46718700D02*
X51037000Y-49352200D01*
X68902900Y-46718700D02*
X53670500Y-46718700D01*
X82705000Y-37921100D02*
X79940200Y-40685900D01*
X51415000Y-51062800D02*
X53712500Y-51062800D01*
X79940200Y-40685900D02*
X79847000Y-40685900D01*
X82705000Y-37525000D02*
X82705000Y-37921100D01*
X69103800Y-46517800D02*
X68902900Y-46718700D01*
X51037000Y-49352200D02*
X51037000Y-50684800D01*
%TO.N,EEP_CS*%
X94020000Y-31095000D02*
X101525000Y-31095000D01*
X90675000Y-27750000D02*
X94020000Y-31095000D01*
%TO.N,EEP_MISO*%
X102855100Y-31394100D02*
X102855100Y-30803800D01*
X102855100Y-30803800D02*
X100725600Y-28674300D01*
X100373100Y-28029400D02*
X100080700Y-28029400D01*
X101525000Y-32365000D02*
X101884200Y-32365000D01*
X100725600Y-28674300D02*
X100725600Y-28381900D01*
X100725600Y-28381900D02*
X100373100Y-28029400D01*
X98801300Y-26750000D02*
X90675000Y-26750000D01*
X101884200Y-32365000D02*
X102855100Y-31394100D01*
X100080700Y-28029400D02*
X98801300Y-26750000D01*
%TO.N,EEP_MOSI*%
X104509100Y-31597400D02*
X104509100Y-33386600D01*
X106027500Y-34905000D02*
X106475000Y-34905000D01*
X99161700Y-26250000D02*
X104509100Y-31597400D01*
X90675000Y-26250000D02*
X99161700Y-26250000D01*
X104509100Y-33386600D02*
X106027500Y-34905000D01*
%TO.N,EEP_SCK*%
X90675000Y-27250000D02*
X98246000Y-27250000D01*
X99627100Y-28631100D02*
X100123900Y-28631100D01*
X105052100Y-32583200D02*
X106103900Y-33635000D01*
X98246000Y-27250000D02*
X99627100Y-28631100D01*
X104208600Y-30300800D02*
X105052100Y-31144300D01*
X105052100Y-31144300D02*
X105052100Y-32583200D01*
X106103900Y-33635000D02*
X106475000Y-33635000D01*
%TO.N,SNS17*%
X109712500Y-51851500D02*
X115099100Y-51851500D01*
X124165000Y-38625800D02*
X124165000Y-37525000D01*
X122916000Y-39874800D02*
X124165000Y-38625800D01*
X121689400Y-39874800D02*
X122916000Y-39874800D01*
X109712500Y-50000000D02*
X109712500Y-51851500D01*
X109712500Y-51851500D02*
X109712500Y-54500000D01*
%TO.N,SNS12*%
X77712500Y-50000000D02*
X78895000Y-48817500D01*
X78895000Y-48817500D02*
X78895000Y-42475000D01*
X77712500Y-50000000D02*
X77712500Y-54500000D01*
%TO.N,LATCH_IGN*%
X4087500Y-29000000D02*
X5469700Y-27617800D01*
X16087500Y-27764800D02*
X16087500Y-29000000D01*
X5469700Y-27617800D02*
X8187000Y-27617800D01*
%TO.N,IGN_SENSE*%
X77402600Y-30568900D02*
X78318300Y-29653200D01*
X27467300Y-24905900D02*
X56341000Y-24905900D01*
X4087500Y-34500000D02*
X4087500Y-30825000D01*
X60310000Y-30422200D02*
X61083400Y-31195600D01*
X5912500Y-29000000D02*
X7424100Y-30511600D01*
X27313700Y-25059500D02*
X27467300Y-24905900D01*
X78216500Y-27046800D02*
X78513300Y-26750000D01*
X56341000Y-24905900D02*
X56628100Y-25193000D01*
X56628100Y-25193000D02*
X57882300Y-25193000D01*
X7424100Y-30511600D02*
X9313100Y-30511600D01*
X78513300Y-26750000D02*
X79325000Y-26750000D01*
X78318300Y-28969300D02*
X78216500Y-28867500D01*
X78216500Y-28867500D02*
X78216500Y-27046800D01*
X78318300Y-29653200D02*
X78318300Y-28969300D01*
X61083400Y-31195600D02*
X69024800Y-31195600D01*
X69651500Y-30568900D02*
X77402600Y-30568900D01*
X69024800Y-31195600D02*
X69651500Y-30568900D01*
X4087500Y-30825000D02*
X5912500Y-29000000D01*
X60310000Y-27620700D02*
X60310000Y-30422200D01*
X57882300Y-25193000D02*
X60310000Y-27620700D01*
%TO.N,CAN_TERM*%
X103912500Y-18000000D02*
X107087500Y-18000000D01*
%TO.N,SNS19*%
X126382300Y-51006600D02*
X126747800Y-50641100D01*
X121712500Y-50000000D02*
X121712500Y-54500000D01*
X126747800Y-50641100D02*
X126747800Y-48938700D01*
X122719100Y-51006600D02*
X126382300Y-51006600D01*
X126747800Y-48938700D02*
X123203600Y-45394500D01*
X123203600Y-42783600D02*
X122895000Y-42475000D01*
X123203600Y-45394500D02*
X123203600Y-42783600D01*
X121712500Y-50000000D02*
X122719100Y-51006600D01*
%TO.N,SNS9*%
X78260000Y-43459000D02*
X78260000Y-41422100D01*
X79858500Y-40084200D02*
X81435000Y-38507700D01*
X62592100Y-47120400D02*
X74598600Y-47120400D01*
X59712500Y-50000000D02*
X62592100Y-47120400D01*
X81435000Y-38507700D02*
X81435000Y-37525000D01*
X78260000Y-41422100D02*
X79597900Y-40084200D01*
X59712500Y-50000000D02*
X59712500Y-54500000D01*
X74598600Y-47120400D02*
X78260000Y-43459000D01*
X79597900Y-40084200D02*
X79858500Y-40084200D01*
%TO.N,SNS14*%
X89712500Y-51054700D02*
X89712500Y-54500000D01*
X89712500Y-51054700D02*
X87442800Y-51054700D01*
X89712500Y-50000000D02*
X89712500Y-51054700D01*
X81435000Y-45046900D02*
X81435000Y-42475000D01*
X87442800Y-51054700D02*
X81435000Y-45046900D01*
%TO.N,SNS10*%
X65712500Y-50000000D02*
X65712500Y-54500000D01*
X65712500Y-50000000D02*
X68203000Y-50000000D01*
X80165000Y-38081900D02*
X77943800Y-40303100D01*
X80165000Y-37525000D02*
X80165000Y-38081900D01*
X77943800Y-40303100D02*
X76892800Y-40303100D01*
%TO.N,SNS16*%
X103712500Y-51005400D02*
X103712500Y-54500000D01*
X122929100Y-40476500D02*
X120427900Y-40476500D01*
X116595600Y-41821200D02*
X115918400Y-41144000D01*
X115918400Y-41144000D02*
X114937100Y-41144000D01*
X103712500Y-50000000D02*
X103712500Y-51005400D01*
X114937100Y-41144000D02*
X114610000Y-41471100D01*
X101072300Y-49278300D02*
X101072300Y-50678800D01*
X110295500Y-47808800D02*
X102541800Y-47808800D01*
X101072300Y-50678800D02*
X101398900Y-51005400D01*
X125435000Y-37525000D02*
X125435000Y-37970600D01*
X114610000Y-41471100D02*
X114610000Y-43494300D01*
X102541800Y-47808800D02*
X101072300Y-49278300D01*
X120427900Y-40476500D02*
X119083200Y-41821200D01*
X101398900Y-51005400D02*
X103712500Y-51005400D01*
X119083200Y-41821200D02*
X116595600Y-41821200D01*
X114610000Y-43494300D02*
X110295500Y-47808800D01*
X125435000Y-37970600D02*
X122929100Y-40476500D01*
%TO.N,SNS20*%
X124165000Y-44475000D02*
X124165000Y-42475000D01*
X127712500Y-54500000D02*
X127712500Y-50000000D01*
X127712500Y-48022500D02*
X124165000Y-44475000D01*
X127712500Y-50000000D02*
X127712500Y-48022500D01*
%TO.N,SR_MISO*%
X84753300Y-31572100D02*
X85063600Y-31572100D01*
X126042400Y-33971500D02*
X117225400Y-33971500D01*
X83750000Y-30568800D02*
X84753300Y-31572100D01*
X129245000Y-37174100D02*
X126042400Y-33971500D01*
X83750000Y-29675000D02*
X83750000Y-30568800D01*
X129245000Y-37525000D02*
X129245000Y-37174100D01*
%TO.N,SR_DI23*%
X126742700Y-35373700D02*
X118529000Y-35373700D01*
X127975000Y-37525000D02*
X127975000Y-36606000D01*
X85245000Y-37525000D02*
X87950100Y-37525000D01*
X127975000Y-36606000D02*
X126742700Y-35373700D01*
%TO.N,SNS15*%
X122867400Y-39228200D02*
X122484200Y-39228200D01*
X97712500Y-54500000D02*
X97712500Y-53746500D01*
X98947200Y-50156200D02*
X97868700Y-50156200D01*
X125876500Y-36247700D02*
X123827600Y-36247700D01*
X123562700Y-36512600D02*
X123562700Y-38532900D01*
X123562700Y-38532900D02*
X122867400Y-39228200D01*
X97712500Y-53746500D02*
X98179300Y-53279700D01*
X123827600Y-36247700D02*
X123562700Y-36512600D01*
X126705000Y-37525000D02*
X126705000Y-37076200D01*
X126705000Y-37076200D02*
X125876500Y-36247700D01*
X97868700Y-50156200D02*
X97712500Y-50000000D01*
%TO.N,HSE_OUT*%
X74879500Y-24029500D02*
X69307500Y-24029500D01*
X65050000Y-28287000D02*
X65050000Y-28500000D01*
X76000000Y-25150000D02*
X74879500Y-24029500D01*
X69307500Y-24029500D02*
X65050000Y-28287000D01*
X78400000Y-22750000D02*
X76000000Y-25150000D01*
X79325000Y-22750000D02*
X78400000Y-22750000D01*
%TO.N,LATCH_HOLD*%
X87250000Y-28411300D02*
X85807200Y-26968500D01*
X87250000Y-29675000D02*
X87250000Y-28411300D01*
X9820500Y-32767000D02*
X10763900Y-32767000D01*
X8087500Y-34500000D02*
X9820500Y-32767000D01*
X85807200Y-26968500D02*
X83982100Y-26968500D01*
%TO.N,VCAP1*%
X87750000Y-29675000D02*
X87750000Y-32300000D01*
X87750000Y-32300000D02*
X87050000Y-33000000D01*
%TO.N,LED1*%
X22087500Y-9000000D02*
X25332000Y-12244500D01*
X90675000Y-23750000D02*
X87658900Y-23750000D01*
X25332000Y-12244500D02*
X57200200Y-12244500D01*
%TO.N,LED2*%
X71819700Y-14306200D02*
X60132900Y-14306200D01*
X60132900Y-14306200D02*
X55990000Y-10163300D01*
X55990000Y-10163300D02*
X28250800Y-10163300D01*
X84750000Y-18325000D02*
X84750000Y-17031400D01*
X28250800Y-10163300D02*
X27087500Y-9000000D01*
%TD*%
M02*
