M48
; DRILL file KiCad 10.0.3 date 2026-08-06T17:31:46
; FORMAT={-:-/ absolute / metric / decimal}
; #@! TF.CreationDate,2026-08-06T17:31:46+12:00
; #@! TF.GenerationSoftware,Kicad,Pcbnew,10.0.3
; #@! TF.FileFunction,Plated,1,2,PTH
FMAT,2
METRIC
; #@! TA.AperFunction,Plated,PTH,ViaDrill
T1C0.300
; #@! TA.AperFunction,Plated,PTH,ComponentDrill
T2C0.600
; #@! TA.AperFunction,Plated,PTH,ComponentDrill
T3C1.000
; #@! TA.AperFunction,Plated,PTH,ComponentDrill
T4C1.200
%
G90
G05
T1
X8.232Y-27.787
X8.497Y-19.302
X8.569Y-16.585
X9.475Y-43.013
X10.178Y-41.311
X10.204Y-38.004
X10.335Y-54.256
X11.031Y-34.286
X12.034Y-38.835
X13.233Y-42.929
X13.236Y-48.053
X13.439Y-53.149
X14.953Y-51.945
X15.387Y-31.291
X15.403Y-30.455
X15.922Y-38.574
X15.93Y-54.581
X16.597Y-45.402
X17.044Y-42.27
X17.134Y-41.421
X19.973Y-39.022
X20.615Y-39.683
X23.664Y-40.216
X24.062Y-38.797
X24.85Y-51.663
X28.001Y-33.3
X28.639Y-37.523
X28.667Y-54.529
X29.205Y-36.77
X31.91Y-54.523
X34.895Y-43.977
X35.249Y-40.426
X35.535Y-39.593
X36.165Y-43.968
X36.86Y-39.361
X38.082Y-18.78
X38.104Y-38.996
X38.463Y-51.957
X38.73Y-43.96
X40.17Y-45.914
X40.404Y-40.978
X42.933Y-51.035
X43.123Y-12.527
X43.145Y-10.088
X43.566Y-54.788
X47.052Y-35.149
X47.6Y-46.943
X52.302Y-52.55
X54.688Y-38.425
X54.856Y-36.988
X55.935Y-42.614
X56.144Y-40.173
X56.48Y-50.635
X56.536Y-39.391
X56.895Y-43.893
X57.375Y-39.16
X57.422Y-38.035
X57.611Y-42.829
X57.978Y-35.005
X58.319Y-51.939
X59.228Y-45.339
X59.985Y-11.055
X59.996Y-41.318
X60.244Y-27.825
X61.162Y-52.588
X61.171Y-38.867
X61.731Y-36.017
X61.755Y-54.428
X61.822Y-43.843
X62.057Y-39.779
X63.06Y-38.864
X63.26Y-30.807
X63.602Y-40.443
X64.671Y-46.586
X64.683Y-39.719
X65.591Y-45.763
X66.008Y-50.912
X66.521Y-40.16
X66.814Y-38.804
X67.01Y-59.87
X67.016Y-50.916
X68.143Y-39.839
X68.768Y-39.253
X70.144Y-40.585
X70.933Y-11.055
X71.826Y-36.19
X72.026Y-55.053
X72.048Y-37.525
X72.621Y-46.586
X73.217Y-54.298
X75.54Y-58.952
X75.91Y-54.523
X75.966Y-45.929
X76.039Y-33.426
X77.087Y-11.206
X77.456Y-35.901
X77.97Y-32.758
X78.557Y-35.845
X78.823Y-39.676
X78.824Y-32.758
X78.897Y-40.974
X78.95Y-19.588
X79.483Y-40.236
X79.533Y-36.24
X80.135Y-43.958
X80.418Y-16.745
X80.592Y-28.815
X80.646Y-21.974
X80.833Y-36.194
X81.435Y-35.652
X81.523Y-23.357
X81.647Y-21.272
X81.932Y-43.903
X81.945Y-19.722
X82.189Y-34.559
X82.266Y-52.548
X82.637Y-31.269
X82.775Y-19.623
X83.44Y-30.964
X84.304Y-30.972
X84.336Y-24.478
X84.471Y-16.412
X85.359Y-32.909
X85.467Y-30.957
X85.875Y-15.345
X86.502Y-13.905
X86.527Y-27.698
X86.87Y-31.002
X87.217Y-21.616
X87.981Y-17.023
X89.016Y-27.596
X89.395Y-26.75
X90.008Y-55.627
X90.883Y-31.461
X92.104Y-26.659
X93.747Y-46.061
X94.011Y-22.242
X94.106Y-36.225
X94.3Y-33.033
X94.617Y-47.96
X95.268Y-27.28
X95.309Y-41.525
X95.67Y-40.325
X95.833Y-50.091
X96.324Y-24.817
X96.671Y-52.554
X96.885Y-56.75
X96.938Y-42.984
X97.087Y-45.322
X98.14Y-35.53
X98.427Y-38.544
X98.757Y-41.183
X99.229Y-32.365
X99.585Y-46.833
X99.618Y-47.96
X99.851Y-54.561
X100.028Y-35.346
X100.853Y-44.85
X101.285Y-37.785
X101.345Y-45.813
X101.745Y-48.352
X102.166Y-15.201
X102.86Y-44.306
X102.897Y-25.25
X103.056Y-33.867
X103.92Y-40.975
X104.434Y-45.29
X104.509Y-42.232
X104.867Y-44.589
X105.024Y-36.723
X105.238Y-45.997
X105.767Y-16.979
X105.877Y-23.827
X105.986Y-15.909
X106.986Y-41.181
X107.236Y-47.838
X107.767Y-51.71
X108.539Y-30.493
X109.253Y-35.789
X109.446Y-51.95
X112.359Y-35.791
X112.583Y-29.856
X116.014Y-52.775
X116.055Y-37.579
X116.663Y-43.075
X117.295Y-54.624
X117.406Y-23.419
X118.859Y-35.263
X119.253Y-34.521
X120.193Y-40.367
X121.003Y-40.459
X121.909Y-28.496
X122.911Y-40.074
X123.694Y-51.087
X124.767Y-43.78
X124.886Y-39.346
X125.057Y-21.837
X126.417Y-40.985
X127.753Y-54.582
X128.762Y-35.877
X129.492Y-20.228
X129.66Y-53.727
X130.834Y-17.6
X130.9Y-22.4
T3
X29.6Y-15.6
X29.6Y-19.1
X29.6Y-22.6
X29.6Y-26.1
X56.5Y-30.0
X57.4Y-13.7
X57.4Y-16.24
X57.4Y-18.78
X57.4Y-21.32
X57.4Y-23.86
X57.4Y-26.4
X59.04Y-30.0
X61.58Y-30.0
X64.0Y-34.0
X66.54Y-34.0
X69.08Y-34.0
X71.62Y-34.0
X74.16Y-34.0
T4
X16.3Y-65.0
X19.8Y-65.0
X23.3Y-65.0
X26.8Y-65.0
X30.3Y-65.0
X33.0Y-5.0
X33.8Y-65.0
X36.5Y-5.0
X37.3Y-65.0
X48.0Y-5.0
X51.5Y-5.0
X60.3Y-65.0
X63.0Y-5.0
X63.8Y-65.0
X66.5Y-5.0
X67.3Y-65.0
X70.0Y-5.0
X70.8Y-65.0
X74.3Y-65.0
X77.8Y-65.0
X81.3Y-65.0
X81.5Y-5.0
X85.0Y-5.0
X88.5Y-5.0
X100.0Y-5.0
X103.5Y-5.0
X104.3Y-65.0
X107.0Y-5.0
X107.8Y-65.0
X111.3Y-65.0
X114.8Y-65.0
X118.3Y-65.0
X121.8Y-65.0
X125.3Y-65.0
T2
X132.145Y-15.68G85X133.245Y-15.68
G05
X132.145Y-24.32G85X133.245Y-24.32
G05
X136.575Y-15.68G85X137.175Y-15.68
G05
X136.575Y-24.32G85X137.175Y-24.32
G05
M30
