%TF.GenerationSoftware,KiCad,Pcbnew,10.0.3*%
%TF.CreationDate,2026-08-06T18:36:45+12:00*%
%TF.ProjectId,rcm,72636d2e-6b69-4636-9164-5f7063625858,A*%
%TF.SameCoordinates,Original*%
%TF.FileFunction,Drillmap*%
%TF.FilePolarity,Positive*%
%FSLAX45Y45*%
G04 Gerber Fmt 4.5, Leading zero omitted, Abs format (unit mm)*
G04 Created by KiCad (PCBNEW 10.0.3) date 2026-08-06 18:36:45*
%MOMM*%
%LPD*%
G01*
G04 APERTURE LIST*
%ADD10C,0.100000*%
%ADD11C,0.200000*%
%ADD12C,0.120000*%
G04 APERTURE END LIST*
D10*
X0Y-300000D02*
G75*
G02*
X300000Y0I300000J0D01*
G01*
X0Y-6700000D02*
X0Y-300000D01*
X300000Y0D02*
X13700000Y0D01*
X300000Y-7000000D02*
G75*
G02*
X0Y-6700000I0J300000D01*
G01*
X13700000Y0D02*
G75*
G02*
X14000000Y-300000I0J-300000D01*
G01*
X13700000Y-7000000D02*
X300000Y-7000000D01*
X14000000Y-300000D02*
X14000000Y-6700000D01*
X14000000Y-6700000D02*
G75*
G02*
X13700000Y-7000000I-300000J0D01*
G01*
D11*
D10*
X803700Y-2746780D02*
X833700Y-2776780D01*
X833700Y-2746780D02*
X803700Y-2776780D01*
X913910Y-3651970D02*
X943910Y-3681970D01*
X943910Y-3651970D02*
X913910Y-3681970D01*
X916310Y-3036160D02*
X946310Y-3066160D01*
X946310Y-3036160D02*
X916310Y-3066160D01*
X1061060Y-4993940D02*
X1091060Y-5023940D01*
X1091060Y-4993940D02*
X1061060Y-5023940D01*
X1061390Y-3261700D02*
X1091390Y-3291700D01*
X1091390Y-3261700D02*
X1061390Y-3291700D01*
X1085350Y-3429460D02*
X1115350Y-3459460D01*
X1115350Y-3429460D02*
X1085350Y-3459460D01*
X1087900Y-5882690D02*
X1117900Y-5912690D01*
X1117900Y-5882690D02*
X1087900Y-5912690D01*
X1092010Y-2823740D02*
X1122010Y-2853740D01*
X1122010Y-2823740D02*
X1092010Y-2853740D01*
X1207760Y-4445020D02*
X1237760Y-4475020D01*
X1237760Y-4445020D02*
X1207760Y-4475020D01*
X1246760Y-3822500D02*
X1276760Y-3852500D01*
X1276760Y-3822500D02*
X1246760Y-3852500D01*
X1267800Y-4117100D02*
X1297800Y-4147100D01*
X1297800Y-4117100D02*
X1267800Y-4147100D01*
X1303760Y-5745140D02*
X1333760Y-5775140D01*
X1333760Y-5745140D02*
X1303760Y-5775140D01*
X1325060Y-3887500D02*
X1355060Y-3917500D01*
X1355060Y-3887500D02*
X1325060Y-3917500D01*
X1331180Y-5653610D02*
X1361180Y-5683610D01*
X1361180Y-5653610D02*
X1331180Y-5683610D01*
X1574690Y-3718630D02*
X1604690Y-3748630D01*
X1604690Y-3718630D02*
X1574690Y-3748630D01*
X1582450Y-3952500D02*
X1612450Y-3982500D01*
X1612450Y-3952500D02*
X1582450Y-3982500D01*
X1593750Y-2761480D02*
X1623750Y-2791480D01*
X1623750Y-2761480D02*
X1593750Y-2791480D01*
X1663790Y-3988640D02*
X1693790Y-4018640D01*
X1693790Y-3988640D02*
X1663790Y-4018640D01*
X1682890Y-4071110D02*
X1712890Y-4101110D01*
X1712890Y-4071110D02*
X1682890Y-4101110D01*
X1701800Y-4153280D02*
X1731800Y-4183280D01*
X1731800Y-4153280D02*
X1701800Y-4183280D01*
X1866700Y-2794550D02*
X1896700Y-2824550D01*
X1896700Y-2794550D02*
X1866700Y-2824550D01*
X1906580Y-5650860D02*
X1936580Y-5680860D01*
X1936580Y-5650860D02*
X1906580Y-5680860D01*
X2257460Y-3598920D02*
X2287460Y-3628920D01*
X2287460Y-3598920D02*
X2257460Y-3628920D01*
X2692470Y-5210000D02*
X2722470Y-5240000D01*
X2722470Y-5210000D02*
X2692470Y-5240000D01*
X2716370Y-2490950D02*
X2746370Y-2520950D01*
X2746370Y-2490950D02*
X2716370Y-2520950D01*
X2895400Y-4985000D02*
X2925400Y-5015000D01*
X2925400Y-4985000D02*
X2895400Y-5015000D01*
X3045250Y-3603180D02*
X3075250Y-3633180D01*
X3075250Y-3603180D02*
X3045250Y-3633180D01*
X3347500Y-4380630D02*
X3377500Y-4410630D01*
X3377500Y-4380630D02*
X3347500Y-4410630D01*
X3455910Y-3916430D02*
X3485910Y-3946430D01*
X3485910Y-3916430D02*
X3455910Y-3946430D01*
X3546640Y-3957860D02*
X3576640Y-3987860D01*
X3576640Y-3957860D02*
X3546640Y-3987860D01*
X3851290Y-3886400D02*
X3881290Y-3916400D01*
X3881290Y-3886400D02*
X3851290Y-3916400D01*
X4004790Y-4490840D02*
X4034790Y-4520840D01*
X4034790Y-4490840D02*
X4004790Y-4520840D01*
X4168920Y-4460970D02*
X4198920Y-4490970D01*
X4198920Y-4460970D02*
X4168920Y-4490970D01*
X4896950Y-2367710D02*
X4926950Y-2397710D01*
X4926950Y-2367710D02*
X4896950Y-2397710D01*
X5522840Y-5779180D02*
X5552840Y-5809180D01*
X5552840Y-5779180D02*
X5522840Y-5809180D01*
X5705020Y-1209450D02*
X5735020Y-1239450D01*
X5735020Y-1209450D02*
X5705020Y-1239450D01*
X5712180Y-3887500D02*
X5742180Y-3917500D01*
X5742180Y-3887500D02*
X5712180Y-3917500D01*
X5725840Y-4178130D02*
X5755840Y-4208130D01*
X5755840Y-4178130D02*
X5725840Y-4208130D01*
X5797260Y-5673700D02*
X5827260Y-5703700D01*
X5827260Y-5673700D02*
X5797260Y-5703700D01*
X5804240Y-986360D02*
X5834240Y-1016360D01*
X5834240Y-986360D02*
X5804240Y-1016360D01*
X5857680Y-5581750D02*
X5887680Y-5611750D01*
X5887680Y-5581750D02*
X5857680Y-5611750D01*
X5975690Y-3878470D02*
X6005690Y-3908470D01*
X6005690Y-3878470D02*
X5975690Y-3908470D01*
X5977210Y-4017500D02*
X6007210Y-4047500D01*
X6007210Y-4017500D02*
X5977210Y-4047500D01*
X5977850Y-3757500D02*
X6007850Y-3787500D01*
X6007850Y-3757500D02*
X5977850Y-3787500D01*
X5983470Y-1090520D02*
X6013470Y-1120520D01*
X6013470Y-1090520D02*
X5983470Y-1120520D01*
X6041800Y-4157720D02*
X6071800Y-4187720D01*
X6071800Y-4157720D02*
X6041800Y-4187720D01*
X6042340Y-3952500D02*
X6072340Y-3982500D01*
X6072340Y-3952500D02*
X6042340Y-3982500D01*
X6080270Y-4082500D02*
X6110270Y-4112500D01*
X6110270Y-4082500D02*
X6080270Y-4112500D01*
X6149980Y-5900130D02*
X6179980Y-5930130D01*
X6179980Y-5900130D02*
X6149980Y-5930130D01*
X6184170Y-3587200D02*
X6214170Y-3617200D01*
X6214170Y-3587200D02*
X6184170Y-3617200D01*
X6382770Y-3576830D02*
X6412770Y-3606830D01*
X6412770Y-3576830D02*
X6382770Y-3606830D01*
X6585470Y-1090520D02*
X6615470Y-1120520D01*
X6615470Y-1090520D02*
X6585470Y-1120520D01*
X6684000Y-4877490D02*
X6714000Y-4907490D01*
X6714000Y-4877490D02*
X6684000Y-4907490D01*
X6701920Y-3887570D02*
X6731920Y-3917570D01*
X6731920Y-3887570D02*
X6701920Y-3917570D01*
X6792840Y-2973700D02*
X6822840Y-3003700D01*
X6822840Y-2973700D02*
X6792840Y-3003700D01*
X6805300Y-4985000D02*
X6835300Y-5015000D01*
X6835300Y-4985000D02*
X6805300Y-5015000D01*
X6844140Y-5924880D02*
X6874140Y-5954880D01*
X6874140Y-5924880D02*
X6844140Y-5954880D01*
X6852110Y-3975670D02*
X6882110Y-4005670D01*
X6882110Y-3975670D02*
X6852110Y-4005670D01*
X6895380Y-4636780D02*
X6925380Y-4666780D01*
X6925380Y-4636780D02*
X6895380Y-4666780D01*
X6917150Y-3593220D02*
X6947150Y-3623220D01*
X6947150Y-3593220D02*
X6917150Y-3623220D01*
X6973750Y-5257410D02*
X7003750Y-5287410D01*
X7003750Y-5257410D02*
X6973750Y-5287410D01*
X6993030Y-4588530D02*
X7023030Y-4618530D01*
X7023030Y-4588530D02*
X6993030Y-4618530D01*
X7016980Y-3588890D02*
X7046980Y-3618890D01*
X7046980Y-3588890D02*
X7016980Y-3618890D01*
X7089130Y-1090520D02*
X7119130Y-1120520D01*
X7119130Y-1090520D02*
X7089130Y-1120520D01*
X7166970Y-1415620D02*
X7196970Y-1445620D01*
X7196970Y-1415620D02*
X7166970Y-1445620D01*
X7189210Y-1269960D02*
X7219210Y-1299960D01*
X7219210Y-1269960D02*
X7189210Y-1299960D01*
X7259510Y-4985000D02*
X7289510Y-5015000D01*
X7289510Y-4985000D02*
X7259510Y-5015000D01*
X7270840Y-4224810D02*
X7300840Y-4254810D01*
X7300840Y-4224810D02*
X7270840Y-4254810D01*
X7339940Y-2823640D02*
X7369940Y-2853640D01*
X7369940Y-2823640D02*
X7339940Y-2853640D01*
X7651550Y-2714080D02*
X7681550Y-2744080D01*
X7681550Y-2714080D02*
X7651550Y-2744080D01*
X7674280Y-4015310D02*
X7704280Y-4045310D01*
X7704280Y-4015310D02*
X7674280Y-4045310D01*
X7754460Y-3955140D02*
X7784460Y-3985140D01*
X7784460Y-3955140D02*
X7754460Y-3985140D01*
X7756660Y-2918920D02*
X7786660Y-2948920D01*
X7786660Y-2918920D02*
X7756660Y-2948920D01*
X7783560Y-2419860D02*
X7813560Y-2449860D01*
X7813560Y-2419860D02*
X7783560Y-2449860D01*
X7959680Y-3415580D02*
X7989680Y-3445580D01*
X7989680Y-3415580D02*
X7959680Y-3445580D01*
X7969700Y-4053590D02*
X7999700Y-4083590D01*
X7999700Y-4053590D02*
X7969700Y-4083590D01*
X8047220Y-2182270D02*
X8077220Y-2212270D01*
X8077220Y-2182270D02*
X8047220Y-2212270D01*
X8093670Y-2342790D02*
X8123670Y-2372790D01*
X8123670Y-2342790D02*
X8093670Y-2372790D01*
X8098480Y-1673380D02*
X8128480Y-1703380D01*
X8128480Y-1673380D02*
X8098480Y-1703380D01*
X8158370Y-2709840D02*
X8188370Y-2739840D01*
X8188370Y-2709840D02*
X8158370Y-2739840D01*
X8160000Y-1946270D02*
X8190000Y-1976270D01*
X8190000Y-1946270D02*
X8160000Y-1976270D01*
X8187800Y-1645960D02*
X8217800Y-1675960D01*
X8217800Y-1645960D02*
X8187800Y-1675960D01*
X8209640Y-3580760D02*
X8239640Y-3610760D01*
X8239640Y-3580760D02*
X8209640Y-3610760D01*
X8221930Y-2115690D02*
X8251930Y-2145690D01*
X8251930Y-2115690D02*
X8221930Y-2145690D01*
X8255500Y-3885550D02*
X8285500Y-3915550D01*
X8285500Y-3885550D02*
X8255500Y-3915550D01*
X8360000Y-1945280D02*
X8390000Y-1975280D01*
X8390000Y-1945280D02*
X8360000Y-1975280D01*
X8383210Y-2681850D02*
X8413210Y-2711850D01*
X8413210Y-2681850D02*
X8383210Y-2711850D01*
X8411630Y-3587190D02*
X8441630Y-3617190D01*
X8441630Y-3587190D02*
X8411630Y-3617190D01*
X8460000Y-1688140D02*
X8490000Y-1718140D01*
X8490000Y-1688140D02*
X8460000Y-1718140D01*
X8465730Y-2793870D02*
X8495730Y-2823870D01*
X8495730Y-2793870D02*
X8465730Y-2823870D01*
X8491360Y-3142210D02*
X8521360Y-3172210D01*
X8521360Y-3142210D02*
X8491360Y-3172210D01*
X8494520Y-3281360D02*
X8524520Y-3311360D01*
X8524520Y-3281360D02*
X8494520Y-3311360D01*
X8559800Y-3341540D02*
X8589800Y-3371540D01*
X8589800Y-3341540D02*
X8559800Y-3371540D01*
X8587710Y-2795040D02*
X8617710Y-2825040D01*
X8617710Y-2795040D02*
X8587710Y-2825040D01*
X8750890Y-2360000D02*
X8780890Y-2390000D01*
X8780890Y-2360000D02*
X8750890Y-2390000D01*
X8780010Y-3737500D02*
X8810010Y-3767500D01*
X8810010Y-3737500D02*
X8780010Y-3767500D01*
X8864720Y-3420430D02*
X8894720Y-3450430D01*
X8894720Y-3420430D02*
X8864720Y-3450430D01*
X8924740Y-2210000D02*
X8954740Y-2240000D01*
X8954740Y-2210000D02*
X8924740Y-2240000D01*
X8926050Y-1792750D02*
X8956050Y-1822750D01*
X8956050Y-1792750D02*
X8926050Y-1822750D01*
X9342350Y-2322550D02*
X9372350Y-2352550D01*
X9372350Y-2322550D02*
X9342350Y-2352550D01*
X9358620Y-1949000D02*
X9388620Y-1979000D01*
X9388620Y-1949000D02*
X9358620Y-1979000D01*
X9371450Y-4169500D02*
X9401450Y-4199500D01*
X9401450Y-4169500D02*
X9371450Y-4199500D01*
X9400390Y-1137140D02*
X9430390Y-1167140D01*
X9430390Y-1137140D02*
X9400390Y-1167140D01*
X9420200Y-5435000D02*
X9450200Y-5465000D01*
X9450200Y-5435000D02*
X9420200Y-5465000D01*
X9425660Y-2160000D02*
X9455660Y-2190000D01*
X9455660Y-2160000D02*
X9425660Y-2190000D01*
X9524940Y-1929560D02*
X9554940Y-1959560D01*
X9554940Y-1929560D02*
X9524940Y-1959560D01*
X9551980Y-4045510D02*
X9581980Y-4075510D01*
X9581980Y-4045510D02*
X9551980Y-4075510D01*
X9553240Y-4172830D02*
X9583240Y-4202830D01*
X9583240Y-4172830D02*
X9553240Y-4202830D01*
X9673120Y-1394610D02*
X9703120Y-1424610D01*
X9703120Y-1394610D02*
X9673120Y-1424610D01*
X9771300Y-1679320D02*
X9801300Y-1709320D01*
X9801300Y-1679320D02*
X9771300Y-1709320D01*
X9802930Y-5312970D02*
X9832930Y-5342970D01*
X9832930Y-5312970D02*
X9802930Y-5342970D01*
X9807260Y-1927980D02*
X9837260Y-1957980D01*
X9837260Y-1927980D02*
X9807260Y-1957980D01*
X9816460Y-3952500D02*
X9846460Y-3982500D01*
X9846460Y-3952500D02*
X9816460Y-3982500D01*
X9828180Y-1197320D02*
X9858180Y-1227320D01*
X9858180Y-1197320D02*
X9828180Y-1227320D01*
X9879720Y-5000620D02*
X9909720Y-5030620D01*
X9909720Y-5000620D02*
X9879720Y-5030620D01*
X9930580Y-4488220D02*
X9960580Y-4518220D01*
X9960580Y-4488220D02*
X9930580Y-4518220D01*
X9966950Y-2385720D02*
X9996950Y-2415720D01*
X9996950Y-2385720D02*
X9966950Y-2415720D01*
X9997390Y-2848110D02*
X10027390Y-2878110D01*
X10027390Y-2848110D02*
X9997390Y-2878110D01*
X10032950Y-2180030D02*
X10062950Y-2210030D01*
X10062950Y-2180030D02*
X10032950Y-2210030D01*
X10082720Y-4386560D02*
X10112720Y-4416560D01*
X10112720Y-4386560D02*
X10082720Y-4416560D01*
X10210530Y-4374320D02*
X10240530Y-4404320D01*
X10240530Y-4374320D02*
X10210530Y-4404320D01*
X10213830Y-4292300D02*
X10243830Y-4322300D01*
X10243830Y-4292300D02*
X10213830Y-4322300D01*
X10235480Y-5552740D02*
X10265480Y-5582740D01*
X10265480Y-5552740D02*
X10235480Y-5582740D01*
X10369470Y-2837630D02*
X10399470Y-2867630D01*
X10399470Y-2837630D02*
X10369470Y-2867630D01*
X10371210Y-2446640D02*
X10401210Y-2476640D01*
X10401210Y-2446640D02*
X10371210Y-2476640D01*
X10371500Y-4406500D02*
X10401500Y-4436500D01*
X10401500Y-4406500D02*
X10371500Y-4436500D01*
X10376190Y-3846210D02*
X10406190Y-3876210D01*
X10406190Y-3846210D02*
X10376190Y-3876210D01*
X10382570Y-4147500D02*
X10412570Y-4177500D01*
X10412570Y-4147500D02*
X10382570Y-4177500D01*
X10405860Y-3015080D02*
X10435860Y-3045080D01*
X10435860Y-3015080D02*
X10405860Y-3045080D01*
X10416860Y-4268500D02*
X10446860Y-4298500D01*
X10446860Y-4268500D02*
X10416860Y-4298500D01*
X10539800Y-3824410D02*
X10569800Y-3854410D01*
X10569800Y-3824410D02*
X10539800Y-3854410D01*
X10549370Y-3966570D02*
X10579370Y-3996570D01*
X10579370Y-3966570D02*
X10549370Y-3996570D01*
X10564650Y-1576040D02*
X10594650Y-1606040D01*
X10594650Y-1576040D02*
X10564650Y-1606040D01*
X10564650Y-5386250D02*
X10594650Y-5416250D01*
X10594650Y-5386250D02*
X10564650Y-5416250D01*
X10866790Y-3587900D02*
X10896790Y-3617900D01*
X10896790Y-3587900D02*
X10866790Y-3617900D01*
X11042460Y-706250D02*
X11072460Y-736250D01*
X11072460Y-706250D02*
X11042460Y-736250D01*
X11065000Y-4359280D02*
X11095000Y-4389280D01*
X11095000Y-4359280D02*
X11065000Y-4389280D01*
X11077250Y-1804150D02*
X11107250Y-1834150D01*
X11107250Y-1804150D02*
X11077250Y-1834150D01*
X11203540Y-3209820D02*
X11233540Y-3239820D01*
X11233540Y-3209820D02*
X11203540Y-3239820D01*
X11209350Y-3582640D02*
X11239350Y-3612640D01*
X11239350Y-3582640D02*
X11209350Y-3612640D01*
X11240010Y-2833040D02*
X11270010Y-2863040D01*
X11270010Y-2833040D02*
X11240010Y-2863040D01*
X11268220Y-5900130D02*
X11298220Y-5930130D01*
X11298220Y-5900130D02*
X11268220Y-5930130D01*
X11443010Y-3257640D02*
X11473010Y-3287640D01*
X11473010Y-3257640D02*
X11443010Y-3287640D01*
X11494910Y-5170150D02*
X11524910Y-5200150D01*
X11524910Y-5170150D02*
X11494910Y-5200150D01*
X11613930Y-5556000D02*
X11643930Y-5586000D01*
X11643930Y-5556000D02*
X11613930Y-5586000D01*
X11686410Y-3605420D02*
X11716410Y-3635420D01*
X11716410Y-3605420D02*
X11686410Y-3635420D01*
X11693530Y-4985000D02*
X11723530Y-5015000D01*
X11723530Y-4985000D02*
X11693530Y-5015000D01*
X11707540Y-3382150D02*
X11737540Y-3412150D01*
X11737540Y-3382150D02*
X11707540Y-3412150D01*
X11770250Y-5667360D02*
X11800250Y-5697360D01*
X11800250Y-5667360D02*
X11770250Y-5697360D01*
X11837900Y-3522370D02*
X11867900Y-3552370D01*
X11867900Y-3522370D02*
X11837900Y-3552370D01*
X11995810Y-3977730D02*
X12025810Y-4007730D01*
X12025810Y-3977730D02*
X11995810Y-4007730D01*
X12153940Y-3972480D02*
X12183940Y-4002480D01*
X12183940Y-3972480D02*
X12153940Y-4002480D01*
X12233420Y-3907820D02*
X12263420Y-3937820D01*
X12263420Y-3907820D02*
X12233420Y-3937820D01*
X12245190Y-4433330D02*
X12275190Y-4463330D01*
X12275190Y-4433330D02*
X12245190Y-4463330D01*
X12318100Y-4082420D02*
X12348100Y-4112420D01*
X12348100Y-4082420D02*
X12318100Y-4112420D01*
X12517310Y-4083710D02*
X12547310Y-4113710D01*
X12547310Y-4083710D02*
X12517310Y-4113710D01*
X12546430Y-4863980D02*
X12576430Y-4893980D01*
X12576430Y-4863980D02*
X12546430Y-4893980D01*
X12953900Y-5093750D02*
X12983900Y-5123750D01*
X12983900Y-5093750D02*
X12953900Y-5123750D01*
X12959180Y-2049700D02*
X12989180Y-2079700D01*
X12989180Y-2049700D02*
X12959180Y-2079700D01*
X13073990Y-1745000D02*
X13103990Y-1775000D01*
X13103990Y-1745000D02*
X13073990Y-1775000D01*
X13074240Y-2225000D02*
X13104240Y-2255000D01*
X13104240Y-2225000D02*
X13074240Y-2255000D01*
X13204480Y-3800520D02*
X13234480Y-3830520D01*
X13234480Y-3800520D02*
X13204480Y-3830520D01*
X13299500Y-1568000D02*
G75*
G02*
X13239500Y-1568000I-30000J0D01*
G01*
X13239500Y-1568000D02*
G75*
G02*
X13299500Y-1568000I30000J0D01*
G01*
X13214500Y-1598000D02*
X13324500Y-1598000D01*
X13324500Y-1538000D02*
G75*
G02*
X13324500Y-1598000I0J-30000D01*
G01*
X13324500Y-1538000D02*
X13214500Y-1538000D01*
X13214500Y-1538000D02*
G75*
G03*
X13214500Y-1598000I0J-30000D01*
G01*
X13299500Y-2432000D02*
G75*
G02*
X13239500Y-2432000I-30000J0D01*
G01*
X13239500Y-2432000D02*
G75*
G02*
X13299500Y-2432000I30000J0D01*
G01*
X13214500Y-2462000D02*
X13324500Y-2462000D01*
X13324500Y-2402000D02*
G75*
G02*
X13324500Y-2462000I0J-30000D01*
G01*
X13324500Y-2402000D02*
X13214500Y-2402000D01*
X13214500Y-2402000D02*
G75*
G03*
X13214500Y-2462000I0J-30000D01*
G01*
X13717500Y-1568000D02*
G75*
G02*
X13657500Y-1568000I-30000J0D01*
G01*
X13657500Y-1568000D02*
G75*
G02*
X13717500Y-1568000I30000J0D01*
G01*
X13657500Y-1598000D02*
X13717500Y-1598000D01*
X13717500Y-1538000D02*
G75*
G02*
X13717500Y-1598000I0J-30000D01*
G01*
X13717500Y-1538000D02*
X13657500Y-1538000D01*
X13657500Y-1538000D02*
G75*
G03*
X13657500Y-1598000I0J-30000D01*
G01*
X13717500Y-2432000D02*
G75*
G02*
X13657500Y-2432000I-30000J0D01*
G01*
X13657500Y-2432000D02*
G75*
G02*
X13717500Y-2432000I30000J0D01*
G01*
X13657500Y-2462000D02*
X13717500Y-2462000D01*
X13717500Y-2402000D02*
G75*
G02*
X13717500Y-2462000I0J-30000D01*
G01*
X13717500Y-2402000D02*
X13657500Y-2402000D01*
X13657500Y-2402000D02*
G75*
G03*
X13657500Y-2462000I0J-30000D01*
G01*
X2960000Y-1510000D02*
X2960000Y-1610000D01*
X2910000Y-1560000D02*
X3010000Y-1560000D01*
X2960000Y-1860000D02*
X2960000Y-1960000D01*
X2910000Y-1910000D02*
X3010000Y-1910000D01*
X2960000Y-2210000D02*
X2960000Y-2310000D01*
X2910000Y-2260000D02*
X3010000Y-2260000D01*
X2960000Y-2560000D02*
X2960000Y-2660000D01*
X2910000Y-2610000D02*
X3010000Y-2610000D01*
X5650000Y-2950000D02*
X5650000Y-3050000D01*
X5600000Y-3000000D02*
X5700000Y-3000000D01*
X5740000Y-1320000D02*
X5740000Y-1420000D01*
X5690000Y-1370000D02*
X5790000Y-1370000D01*
X5740000Y-1574000D02*
X5740000Y-1674000D01*
X5690000Y-1624000D02*
X5790000Y-1624000D01*
X5740000Y-1828000D02*
X5740000Y-1928000D01*
X5690000Y-1878000D02*
X5790000Y-1878000D01*
X5740000Y-2082000D02*
X5740000Y-2182000D01*
X5690000Y-2132000D02*
X5790000Y-2132000D01*
X5740000Y-2336000D02*
X5740000Y-2436000D01*
X5690000Y-2386000D02*
X5790000Y-2386000D01*
X5740000Y-2590000D02*
X5740000Y-2690000D01*
X5690000Y-2640000D02*
X5790000Y-2640000D01*
X5904000Y-2950000D02*
X5904000Y-3050000D01*
X5854000Y-3000000D02*
X5954000Y-3000000D01*
X6158000Y-2950000D02*
X6158000Y-3050000D01*
X6108000Y-3000000D02*
X6208000Y-3000000D01*
X6400000Y-3350000D02*
X6400000Y-3450000D01*
X6350000Y-3400000D02*
X6450000Y-3400000D01*
X6654000Y-3350000D02*
X6654000Y-3450000D01*
X6604000Y-3400000D02*
X6704000Y-3400000D01*
X6908000Y-3350000D02*
X6908000Y-3450000D01*
X6858000Y-3400000D02*
X6958000Y-3400000D01*
X7162000Y-3350000D02*
X7162000Y-3450000D01*
X7112000Y-3400000D02*
X7212000Y-3400000D01*
X7416000Y-3350000D02*
X7416000Y-3450000D01*
X7366000Y-3400000D02*
X7466000Y-3400000D01*
D12*
X1672427Y-6542427D02*
X1672427Y-6457573D01*
X1587573Y-6457573D01*
X1587573Y-6542427D01*
X1672427Y-6542427D01*
X2022427Y-6542427D02*
X2022427Y-6457573D01*
X1937573Y-6457573D01*
X1937573Y-6542427D01*
X2022427Y-6542427D01*
X2372427Y-6542427D02*
X2372427Y-6457573D01*
X2287573Y-6457573D01*
X2287573Y-6542427D01*
X2372427Y-6542427D01*
X2722427Y-6542427D02*
X2722427Y-6457573D01*
X2637573Y-6457573D01*
X2637573Y-6542427D01*
X2722427Y-6542427D01*
X3072427Y-6542427D02*
X3072427Y-6457573D01*
X2987573Y-6457573D01*
X2987573Y-6542427D01*
X3072427Y-6542427D01*
X3342427Y-542427D02*
X3342427Y-457573D01*
X3257573Y-457573D01*
X3257573Y-542427D01*
X3342427Y-542427D01*
X3422427Y-6542427D02*
X3422427Y-6457573D01*
X3337573Y-6457573D01*
X3337573Y-6542427D01*
X3422427Y-6542427D01*
X3692427Y-542427D02*
X3692427Y-457573D01*
X3607573Y-457573D01*
X3607573Y-542427D01*
X3692427Y-542427D01*
X3772427Y-6542427D02*
X3772427Y-6457573D01*
X3687573Y-6457573D01*
X3687573Y-6542427D01*
X3772427Y-6542427D01*
X4842427Y-542427D02*
X4842427Y-457573D01*
X4757573Y-457573D01*
X4757573Y-542427D01*
X4842427Y-542427D01*
X5192427Y-542427D02*
X5192427Y-457573D01*
X5107573Y-457573D01*
X5107573Y-542427D01*
X5192427Y-542427D01*
X6072427Y-6542427D02*
X6072427Y-6457573D01*
X5987573Y-6457573D01*
X5987573Y-6542427D01*
X6072427Y-6542427D01*
X6342427Y-542427D02*
X6342427Y-457573D01*
X6257573Y-457573D01*
X6257573Y-542427D01*
X6342427Y-542427D01*
X6422427Y-6542427D02*
X6422427Y-6457573D01*
X6337573Y-6457573D01*
X6337573Y-6542427D01*
X6422427Y-6542427D01*
X6692427Y-542427D02*
X6692427Y-457573D01*
X6607573Y-457573D01*
X6607573Y-542427D01*
X6692427Y-542427D01*
X6772427Y-6542427D02*
X6772427Y-6457573D01*
X6687573Y-6457573D01*
X6687573Y-6542427D01*
X6772427Y-6542427D01*
X7042427Y-542427D02*
X7042427Y-457573D01*
X6957573Y-457573D01*
X6957573Y-542427D01*
X7042427Y-542427D01*
X7122427Y-6542427D02*
X7122427Y-6457573D01*
X7037573Y-6457573D01*
X7037573Y-6542427D01*
X7122427Y-6542427D01*
X7472427Y-6542427D02*
X7472427Y-6457573D01*
X7387573Y-6457573D01*
X7387573Y-6542427D01*
X7472427Y-6542427D01*
X7822427Y-6542427D02*
X7822427Y-6457573D01*
X7737573Y-6457573D01*
X7737573Y-6542427D01*
X7822427Y-6542427D01*
X8172427Y-6542427D02*
X8172427Y-6457573D01*
X8087573Y-6457573D01*
X8087573Y-6542427D01*
X8172427Y-6542427D01*
X8192427Y-542427D02*
X8192427Y-457573D01*
X8107573Y-457573D01*
X8107573Y-542427D01*
X8192427Y-542427D01*
X8542427Y-542427D02*
X8542427Y-457573D01*
X8457573Y-457573D01*
X8457573Y-542427D01*
X8542427Y-542427D01*
X8892427Y-542427D02*
X8892427Y-457573D01*
X8807573Y-457573D01*
X8807573Y-542427D01*
X8892427Y-542427D01*
X10042427Y-542427D02*
X10042427Y-457573D01*
X9957573Y-457573D01*
X9957573Y-542427D01*
X10042427Y-542427D01*
X10392427Y-542427D02*
X10392427Y-457573D01*
X10307573Y-457573D01*
X10307573Y-542427D01*
X10392427Y-542427D01*
X10472427Y-6542427D02*
X10472427Y-6457573D01*
X10387573Y-6457573D01*
X10387573Y-6542427D01*
X10472427Y-6542427D01*
X10742427Y-542427D02*
X10742427Y-457573D01*
X10657573Y-457573D01*
X10657573Y-542427D01*
X10742427Y-542427D01*
X10822427Y-6542427D02*
X10822427Y-6457573D01*
X10737573Y-6457573D01*
X10737573Y-6542427D01*
X10822427Y-6542427D01*
X11172427Y-6542427D02*
X11172427Y-6457573D01*
X11087573Y-6457573D01*
X11087573Y-6542427D01*
X11172427Y-6542427D01*
X11522427Y-6542427D02*
X11522427Y-6457573D01*
X11437573Y-6457573D01*
X11437573Y-6542427D01*
X11522427Y-6542427D01*
X11872427Y-6542427D02*
X11872427Y-6457573D01*
X11787573Y-6457573D01*
X11787573Y-6542427D01*
X11872427Y-6542427D01*
X12222427Y-6542427D02*
X12222427Y-6457573D01*
X12137573Y-6457573D01*
X12137573Y-6542427D01*
X12222427Y-6542427D01*
X12572427Y-6542427D02*
X12572427Y-6457573D01*
X12487573Y-6457573D01*
X12487573Y-6542427D01*
X12572427Y-6542427D01*
D11*
X255777Y-7316484D02*
X255777Y-7116484D01*
X255777Y-7116484D02*
X303396Y-7116484D01*
X303396Y-7116484D02*
X331967Y-7126008D01*
X331967Y-7126008D02*
X351015Y-7145055D01*
X351015Y-7145055D02*
X360539Y-7164103D01*
X360539Y-7164103D02*
X370062Y-7202198D01*
X370062Y-7202198D02*
X370062Y-7230769D01*
X370062Y-7230769D02*
X360539Y-7268865D01*
X360539Y-7268865D02*
X351015Y-7287912D01*
X351015Y-7287912D02*
X331967Y-7306960D01*
X331967Y-7306960D02*
X303396Y-7316484D01*
X303396Y-7316484D02*
X255777Y-7316484D01*
X455777Y-7316484D02*
X455777Y-7183150D01*
X455777Y-7221246D02*
X465301Y-7202198D01*
X465301Y-7202198D02*
X474824Y-7192674D01*
X474824Y-7192674D02*
X493872Y-7183150D01*
X493872Y-7183150D02*
X512920Y-7183150D01*
X579586Y-7316484D02*
X579586Y-7183150D01*
X579586Y-7116484D02*
X570063Y-7126008D01*
X570063Y-7126008D02*
X579586Y-7135531D01*
X579586Y-7135531D02*
X589110Y-7126008D01*
X589110Y-7126008D02*
X579586Y-7116484D01*
X579586Y-7116484D02*
X579586Y-7135531D01*
X703396Y-7316484D02*
X684348Y-7306960D01*
X684348Y-7306960D02*
X674824Y-7287912D01*
X674824Y-7287912D02*
X674824Y-7116484D01*
X808158Y-7316484D02*
X789110Y-7306960D01*
X789110Y-7306960D02*
X779586Y-7287912D01*
X779586Y-7287912D02*
X779586Y-7116484D01*
X1036729Y-7316484D02*
X1036729Y-7116484D01*
X1036729Y-7116484D02*
X1103396Y-7259341D01*
X1103396Y-7259341D02*
X1170063Y-7116484D01*
X1170063Y-7116484D02*
X1170063Y-7316484D01*
X1351015Y-7316484D02*
X1351015Y-7211722D01*
X1351015Y-7211722D02*
X1341491Y-7192674D01*
X1341491Y-7192674D02*
X1322444Y-7183150D01*
X1322444Y-7183150D02*
X1284348Y-7183150D01*
X1284348Y-7183150D02*
X1265301Y-7192674D01*
X1351015Y-7306960D02*
X1331967Y-7316484D01*
X1331967Y-7316484D02*
X1284348Y-7316484D01*
X1284348Y-7316484D02*
X1265301Y-7306960D01*
X1265301Y-7306960D02*
X1255777Y-7287912D01*
X1255777Y-7287912D02*
X1255777Y-7268865D01*
X1255777Y-7268865D02*
X1265301Y-7249817D01*
X1265301Y-7249817D02*
X1284348Y-7240293D01*
X1284348Y-7240293D02*
X1331967Y-7240293D01*
X1331967Y-7240293D02*
X1351015Y-7230769D01*
X1446253Y-7183150D02*
X1446253Y-7383150D01*
X1446253Y-7192674D02*
X1465301Y-7183150D01*
X1465301Y-7183150D02*
X1503396Y-7183150D01*
X1503396Y-7183150D02*
X1522443Y-7192674D01*
X1522443Y-7192674D02*
X1531967Y-7202198D01*
X1531967Y-7202198D02*
X1541491Y-7221246D01*
X1541491Y-7221246D02*
X1541491Y-7278388D01*
X1541491Y-7278388D02*
X1531967Y-7297436D01*
X1531967Y-7297436D02*
X1522443Y-7306960D01*
X1522443Y-7306960D02*
X1503396Y-7316484D01*
X1503396Y-7316484D02*
X1465301Y-7316484D01*
X1465301Y-7316484D02*
X1446253Y-7306960D01*
X1627205Y-7297436D02*
X1636729Y-7306960D01*
X1636729Y-7306960D02*
X1627205Y-7316484D01*
X1627205Y-7316484D02*
X1617682Y-7306960D01*
X1617682Y-7306960D02*
X1627205Y-7297436D01*
X1627205Y-7297436D02*
X1627205Y-7316484D01*
X1627205Y-7192674D02*
X1636729Y-7202198D01*
X1636729Y-7202198D02*
X1627205Y-7211722D01*
X1627205Y-7211722D02*
X1617682Y-7202198D01*
X1617682Y-7202198D02*
X1627205Y-7192674D01*
X1627205Y-7192674D02*
X1627205Y-7211722D01*
D10*
X-35000Y-7630000D02*
X-5000Y-7660000D01*
X-5000Y-7630000D02*
X-35000Y-7660000D01*
D11*
X293872Y-7536484D02*
X312920Y-7536484D01*
X312920Y-7536484D02*
X331967Y-7546008D01*
X331967Y-7546008D02*
X341491Y-7555531D01*
X341491Y-7555531D02*
X351015Y-7574579D01*
X351015Y-7574579D02*
X360539Y-7612674D01*
X360539Y-7612674D02*
X360539Y-7660293D01*
X360539Y-7660293D02*
X351015Y-7698388D01*
X351015Y-7698388D02*
X341491Y-7717436D01*
X341491Y-7717436D02*
X331967Y-7726960D01*
X331967Y-7726960D02*
X312920Y-7736484D01*
X312920Y-7736484D02*
X293872Y-7736484D01*
X293872Y-7736484D02*
X274824Y-7726960D01*
X274824Y-7726960D02*
X265301Y-7717436D01*
X265301Y-7717436D02*
X255777Y-7698388D01*
X255777Y-7698388D02*
X246253Y-7660293D01*
X246253Y-7660293D02*
X246253Y-7612674D01*
X246253Y-7612674D02*
X255777Y-7574579D01*
X255777Y-7574579D02*
X265301Y-7555531D01*
X265301Y-7555531D02*
X274824Y-7546008D01*
X274824Y-7546008D02*
X293872Y-7536484D01*
X446253Y-7717436D02*
X455777Y-7726960D01*
X455777Y-7726960D02*
X446253Y-7736484D01*
X446253Y-7736484D02*
X436729Y-7726960D01*
X436729Y-7726960D02*
X446253Y-7717436D01*
X446253Y-7717436D02*
X446253Y-7736484D01*
X522443Y-7536484D02*
X646253Y-7536484D01*
X646253Y-7536484D02*
X579586Y-7612674D01*
X579586Y-7612674D02*
X608158Y-7612674D01*
X608158Y-7612674D02*
X627205Y-7622198D01*
X627205Y-7622198D02*
X636729Y-7631722D01*
X636729Y-7631722D02*
X646253Y-7650769D01*
X646253Y-7650769D02*
X646253Y-7698388D01*
X646253Y-7698388D02*
X636729Y-7717436D01*
X636729Y-7717436D02*
X627205Y-7726960D01*
X627205Y-7726960D02*
X608158Y-7736484D01*
X608158Y-7736484D02*
X551015Y-7736484D01*
X551015Y-7736484D02*
X531967Y-7726960D01*
X531967Y-7726960D02*
X522443Y-7717436D01*
X770062Y-7536484D02*
X789110Y-7536484D01*
X789110Y-7536484D02*
X808158Y-7546008D01*
X808158Y-7546008D02*
X817682Y-7555531D01*
X817682Y-7555531D02*
X827205Y-7574579D01*
X827205Y-7574579D02*
X836729Y-7612674D01*
X836729Y-7612674D02*
X836729Y-7660293D01*
X836729Y-7660293D02*
X827205Y-7698388D01*
X827205Y-7698388D02*
X817682Y-7717436D01*
X817682Y-7717436D02*
X808158Y-7726960D01*
X808158Y-7726960D02*
X789110Y-7736484D01*
X789110Y-7736484D02*
X770062Y-7736484D01*
X770062Y-7736484D02*
X751015Y-7726960D01*
X751015Y-7726960D02*
X741491Y-7717436D01*
X741491Y-7717436D02*
X731967Y-7698388D01*
X731967Y-7698388D02*
X722443Y-7660293D01*
X722443Y-7660293D02*
X722443Y-7612674D01*
X722443Y-7612674D02*
X731967Y-7574579D01*
X731967Y-7574579D02*
X741491Y-7555531D01*
X741491Y-7555531D02*
X751015Y-7546008D01*
X751015Y-7546008D02*
X770062Y-7536484D01*
X960539Y-7536484D02*
X979586Y-7536484D01*
X979586Y-7536484D02*
X998634Y-7546008D01*
X998634Y-7546008D02*
X1008158Y-7555531D01*
X1008158Y-7555531D02*
X1017682Y-7574579D01*
X1017682Y-7574579D02*
X1027205Y-7612674D01*
X1027205Y-7612674D02*
X1027205Y-7660293D01*
X1027205Y-7660293D02*
X1017682Y-7698388D01*
X1017682Y-7698388D02*
X1008158Y-7717436D01*
X1008158Y-7717436D02*
X998634Y-7726960D01*
X998634Y-7726960D02*
X979586Y-7736484D01*
X979586Y-7736484D02*
X960539Y-7736484D01*
X960539Y-7736484D02*
X941491Y-7726960D01*
X941491Y-7726960D02*
X931967Y-7717436D01*
X931967Y-7717436D02*
X922443Y-7698388D01*
X922443Y-7698388D02*
X912920Y-7660293D01*
X912920Y-7660293D02*
X912920Y-7612674D01*
X912920Y-7612674D02*
X922443Y-7574579D01*
X922443Y-7574579D02*
X931967Y-7555531D01*
X931967Y-7555531D02*
X941491Y-7546008D01*
X941491Y-7546008D02*
X960539Y-7536484D01*
X1112920Y-7736484D02*
X1112920Y-7603150D01*
X1112920Y-7622198D02*
X1122444Y-7612674D01*
X1122444Y-7612674D02*
X1141491Y-7603150D01*
X1141491Y-7603150D02*
X1170063Y-7603150D01*
X1170063Y-7603150D02*
X1189110Y-7612674D01*
X1189110Y-7612674D02*
X1198634Y-7631722D01*
X1198634Y-7631722D02*
X1198634Y-7736484D01*
X1198634Y-7631722D02*
X1208158Y-7612674D01*
X1208158Y-7612674D02*
X1227205Y-7603150D01*
X1227205Y-7603150D02*
X1255777Y-7603150D01*
X1255777Y-7603150D02*
X1274825Y-7612674D01*
X1274825Y-7612674D02*
X1284348Y-7631722D01*
X1284348Y-7631722D02*
X1284348Y-7736484D01*
X1379586Y-7736484D02*
X1379586Y-7603150D01*
X1379586Y-7622198D02*
X1389110Y-7612674D01*
X1389110Y-7612674D02*
X1408158Y-7603150D01*
X1408158Y-7603150D02*
X1436729Y-7603150D01*
X1436729Y-7603150D02*
X1455777Y-7612674D01*
X1455777Y-7612674D02*
X1465301Y-7631722D01*
X1465301Y-7631722D02*
X1465301Y-7736484D01*
X1465301Y-7631722D02*
X1474824Y-7612674D01*
X1474824Y-7612674D02*
X1493872Y-7603150D01*
X1493872Y-7603150D02*
X1522443Y-7603150D01*
X1522443Y-7603150D02*
X1541491Y-7612674D01*
X1541491Y-7612674D02*
X1551015Y-7631722D01*
X1551015Y-7631722D02*
X1551015Y-7736484D01*
X1941491Y-7526960D02*
X1770063Y-7784103D01*
X2198634Y-7536484D02*
X2217682Y-7536484D01*
X2217682Y-7536484D02*
X2236729Y-7546008D01*
X2236729Y-7546008D02*
X2246253Y-7555531D01*
X2246253Y-7555531D02*
X2255777Y-7574579D01*
X2255777Y-7574579D02*
X2265301Y-7612674D01*
X2265301Y-7612674D02*
X2265301Y-7660293D01*
X2265301Y-7660293D02*
X2255777Y-7698388D01*
X2255777Y-7698388D02*
X2246253Y-7717436D01*
X2246253Y-7717436D02*
X2236729Y-7726960D01*
X2236729Y-7726960D02*
X2217682Y-7736484D01*
X2217682Y-7736484D02*
X2198634Y-7736484D01*
X2198634Y-7736484D02*
X2179587Y-7726960D01*
X2179587Y-7726960D02*
X2170063Y-7717436D01*
X2170063Y-7717436D02*
X2160539Y-7698388D01*
X2160539Y-7698388D02*
X2151015Y-7660293D01*
X2151015Y-7660293D02*
X2151015Y-7612674D01*
X2151015Y-7612674D02*
X2160539Y-7574579D01*
X2160539Y-7574579D02*
X2170063Y-7555531D01*
X2170063Y-7555531D02*
X2179587Y-7546008D01*
X2179587Y-7546008D02*
X2198634Y-7536484D01*
X2351015Y-7717436D02*
X2360539Y-7726960D01*
X2360539Y-7726960D02*
X2351015Y-7736484D01*
X2351015Y-7736484D02*
X2341491Y-7726960D01*
X2341491Y-7726960D02*
X2351015Y-7717436D01*
X2351015Y-7717436D02*
X2351015Y-7736484D01*
X2484348Y-7536484D02*
X2503396Y-7536484D01*
X2503396Y-7536484D02*
X2522444Y-7546008D01*
X2522444Y-7546008D02*
X2531968Y-7555531D01*
X2531968Y-7555531D02*
X2541491Y-7574579D01*
X2541491Y-7574579D02*
X2551015Y-7612674D01*
X2551015Y-7612674D02*
X2551015Y-7660293D01*
X2551015Y-7660293D02*
X2541491Y-7698388D01*
X2541491Y-7698388D02*
X2531968Y-7717436D01*
X2531968Y-7717436D02*
X2522444Y-7726960D01*
X2522444Y-7726960D02*
X2503396Y-7736484D01*
X2503396Y-7736484D02*
X2484348Y-7736484D01*
X2484348Y-7736484D02*
X2465301Y-7726960D01*
X2465301Y-7726960D02*
X2455777Y-7717436D01*
X2455777Y-7717436D02*
X2446253Y-7698388D01*
X2446253Y-7698388D02*
X2436729Y-7660293D01*
X2436729Y-7660293D02*
X2436729Y-7612674D01*
X2436729Y-7612674D02*
X2446253Y-7574579D01*
X2446253Y-7574579D02*
X2455777Y-7555531D01*
X2455777Y-7555531D02*
X2465301Y-7546008D01*
X2465301Y-7546008D02*
X2484348Y-7536484D01*
X2741491Y-7736484D02*
X2627206Y-7736484D01*
X2684348Y-7736484D02*
X2684348Y-7536484D01*
X2684348Y-7536484D02*
X2665301Y-7565055D01*
X2665301Y-7565055D02*
X2646253Y-7584103D01*
X2646253Y-7584103D02*
X2627206Y-7593627D01*
X2931967Y-7736484D02*
X2817682Y-7736484D01*
X2874825Y-7736484D02*
X2874825Y-7536484D01*
X2874825Y-7536484D02*
X2855777Y-7565055D01*
X2855777Y-7565055D02*
X2836729Y-7584103D01*
X2836729Y-7584103D02*
X2817682Y-7593627D01*
X3046253Y-7622198D02*
X3027206Y-7612674D01*
X3027206Y-7612674D02*
X3017682Y-7603150D01*
X3017682Y-7603150D02*
X3008158Y-7584103D01*
X3008158Y-7584103D02*
X3008158Y-7574579D01*
X3008158Y-7574579D02*
X3017682Y-7555531D01*
X3017682Y-7555531D02*
X3027206Y-7546008D01*
X3027206Y-7546008D02*
X3046253Y-7536484D01*
X3046253Y-7536484D02*
X3084348Y-7536484D01*
X3084348Y-7536484D02*
X3103396Y-7546008D01*
X3103396Y-7546008D02*
X3112920Y-7555531D01*
X3112920Y-7555531D02*
X3122444Y-7574579D01*
X3122444Y-7574579D02*
X3122444Y-7584103D01*
X3122444Y-7584103D02*
X3112920Y-7603150D01*
X3112920Y-7603150D02*
X3103396Y-7612674D01*
X3103396Y-7612674D02*
X3084348Y-7622198D01*
X3084348Y-7622198D02*
X3046253Y-7622198D01*
X3046253Y-7622198D02*
X3027206Y-7631722D01*
X3027206Y-7631722D02*
X3017682Y-7641246D01*
X3017682Y-7641246D02*
X3008158Y-7660293D01*
X3008158Y-7660293D02*
X3008158Y-7698388D01*
X3008158Y-7698388D02*
X3017682Y-7717436D01*
X3017682Y-7717436D02*
X3027206Y-7726960D01*
X3027206Y-7726960D02*
X3046253Y-7736484D01*
X3046253Y-7736484D02*
X3084348Y-7736484D01*
X3084348Y-7736484D02*
X3103396Y-7726960D01*
X3103396Y-7726960D02*
X3112920Y-7717436D01*
X3112920Y-7717436D02*
X3122444Y-7698388D01*
X3122444Y-7698388D02*
X3122444Y-7660293D01*
X3122444Y-7660293D02*
X3112920Y-7641246D01*
X3112920Y-7641246D02*
X3103396Y-7631722D01*
X3103396Y-7631722D02*
X3084348Y-7622198D01*
X3198634Y-7536484D02*
X3198634Y-7574579D01*
X3274825Y-7536484D02*
X3274825Y-7574579D01*
X3570063Y-7812674D02*
X3560539Y-7803150D01*
X3560539Y-7803150D02*
X3541491Y-7774579D01*
X3541491Y-7774579D02*
X3531968Y-7755531D01*
X3531968Y-7755531D02*
X3522444Y-7726960D01*
X3522444Y-7726960D02*
X3512920Y-7679341D01*
X3512920Y-7679341D02*
X3512920Y-7641246D01*
X3512920Y-7641246D02*
X3522444Y-7593627D01*
X3522444Y-7593627D02*
X3531968Y-7565055D01*
X3531968Y-7565055D02*
X3541491Y-7546008D01*
X3541491Y-7546008D02*
X3560539Y-7517436D01*
X3560539Y-7517436D02*
X3570063Y-7507912D01*
X3751015Y-7736484D02*
X3636729Y-7736484D01*
X3693872Y-7736484D02*
X3693872Y-7536484D01*
X3693872Y-7536484D02*
X3674825Y-7565055D01*
X3674825Y-7565055D02*
X3655777Y-7584103D01*
X3655777Y-7584103D02*
X3636729Y-7593627D01*
X3922444Y-7536484D02*
X3884348Y-7536484D01*
X3884348Y-7536484D02*
X3865301Y-7546008D01*
X3865301Y-7546008D02*
X3855777Y-7555531D01*
X3855777Y-7555531D02*
X3836729Y-7584103D01*
X3836729Y-7584103D02*
X3827206Y-7622198D01*
X3827206Y-7622198D02*
X3827206Y-7698388D01*
X3827206Y-7698388D02*
X3836729Y-7717436D01*
X3836729Y-7717436D02*
X3846253Y-7726960D01*
X3846253Y-7726960D02*
X3865301Y-7736484D01*
X3865301Y-7736484D02*
X3903396Y-7736484D01*
X3903396Y-7736484D02*
X3922444Y-7726960D01*
X3922444Y-7726960D02*
X3931968Y-7717436D01*
X3931968Y-7717436D02*
X3941491Y-7698388D01*
X3941491Y-7698388D02*
X3941491Y-7650769D01*
X3941491Y-7650769D02*
X3931968Y-7631722D01*
X3931968Y-7631722D02*
X3922444Y-7622198D01*
X3922444Y-7622198D02*
X3903396Y-7612674D01*
X3903396Y-7612674D02*
X3865301Y-7612674D01*
X3865301Y-7612674D02*
X3846253Y-7622198D01*
X3846253Y-7622198D02*
X3836729Y-7631722D01*
X3836729Y-7631722D02*
X3827206Y-7650769D01*
X4017682Y-7555531D02*
X4027206Y-7546008D01*
X4027206Y-7546008D02*
X4046253Y-7536484D01*
X4046253Y-7536484D02*
X4093872Y-7536484D01*
X4093872Y-7536484D02*
X4112920Y-7546008D01*
X4112920Y-7546008D02*
X4122444Y-7555531D01*
X4122444Y-7555531D02*
X4131968Y-7574579D01*
X4131968Y-7574579D02*
X4131968Y-7593627D01*
X4131968Y-7593627D02*
X4122444Y-7622198D01*
X4122444Y-7622198D02*
X4008158Y-7736484D01*
X4008158Y-7736484D02*
X4131968Y-7736484D01*
X4370063Y-7736484D02*
X4370063Y-7536484D01*
X4455777Y-7736484D02*
X4455777Y-7631722D01*
X4455777Y-7631722D02*
X4446253Y-7612674D01*
X4446253Y-7612674D02*
X4427206Y-7603150D01*
X4427206Y-7603150D02*
X4398634Y-7603150D01*
X4398634Y-7603150D02*
X4379587Y-7612674D01*
X4379587Y-7612674D02*
X4370063Y-7622198D01*
X4579587Y-7736484D02*
X4560539Y-7726960D01*
X4560539Y-7726960D02*
X4551015Y-7717436D01*
X4551015Y-7717436D02*
X4541492Y-7698388D01*
X4541492Y-7698388D02*
X4541492Y-7641246D01*
X4541492Y-7641246D02*
X4551015Y-7622198D01*
X4551015Y-7622198D02*
X4560539Y-7612674D01*
X4560539Y-7612674D02*
X4579587Y-7603150D01*
X4579587Y-7603150D02*
X4608158Y-7603150D01*
X4608158Y-7603150D02*
X4627206Y-7612674D01*
X4627206Y-7612674D02*
X4636730Y-7622198D01*
X4636730Y-7622198D02*
X4646253Y-7641246D01*
X4646253Y-7641246D02*
X4646253Y-7698388D01*
X4646253Y-7698388D02*
X4636730Y-7717436D01*
X4636730Y-7717436D02*
X4627206Y-7726960D01*
X4627206Y-7726960D02*
X4608158Y-7736484D01*
X4608158Y-7736484D02*
X4579587Y-7736484D01*
X4760539Y-7736484D02*
X4741492Y-7726960D01*
X4741492Y-7726960D02*
X4731968Y-7707912D01*
X4731968Y-7707912D02*
X4731968Y-7536484D01*
X4912920Y-7726960D02*
X4893873Y-7736484D01*
X4893873Y-7736484D02*
X4855777Y-7736484D01*
X4855777Y-7736484D02*
X4836730Y-7726960D01*
X4836730Y-7726960D02*
X4827206Y-7707912D01*
X4827206Y-7707912D02*
X4827206Y-7631722D01*
X4827206Y-7631722D02*
X4836730Y-7612674D01*
X4836730Y-7612674D02*
X4855777Y-7603150D01*
X4855777Y-7603150D02*
X4893873Y-7603150D01*
X4893873Y-7603150D02*
X4912920Y-7612674D01*
X4912920Y-7612674D02*
X4922444Y-7631722D01*
X4922444Y-7631722D02*
X4922444Y-7650769D01*
X4922444Y-7650769D02*
X4827206Y-7669817D01*
X4998634Y-7726960D02*
X5017682Y-7736484D01*
X5017682Y-7736484D02*
X5055777Y-7736484D01*
X5055777Y-7736484D02*
X5074825Y-7726960D01*
X5074825Y-7726960D02*
X5084349Y-7707912D01*
X5084349Y-7707912D02*
X5084349Y-7698388D01*
X5084349Y-7698388D02*
X5074825Y-7679341D01*
X5074825Y-7679341D02*
X5055777Y-7669817D01*
X5055777Y-7669817D02*
X5027206Y-7669817D01*
X5027206Y-7669817D02*
X5008158Y-7660293D01*
X5008158Y-7660293D02*
X4998634Y-7641246D01*
X4998634Y-7641246D02*
X4998634Y-7631722D01*
X4998634Y-7631722D02*
X5008158Y-7612674D01*
X5008158Y-7612674D02*
X5027206Y-7603150D01*
X5027206Y-7603150D02*
X5055777Y-7603150D01*
X5055777Y-7603150D02*
X5074825Y-7612674D01*
X5151015Y-7812674D02*
X5160539Y-7803150D01*
X5160539Y-7803150D02*
X5179587Y-7774579D01*
X5179587Y-7774579D02*
X5189111Y-7755531D01*
X5189111Y-7755531D02*
X5198634Y-7726960D01*
X5198634Y-7726960D02*
X5208158Y-7679341D01*
X5208158Y-7679341D02*
X5208158Y-7641246D01*
X5208158Y-7641246D02*
X5198634Y-7593627D01*
X5198634Y-7593627D02*
X5189111Y-7565055D01*
X5189111Y-7565055D02*
X5179587Y-7546008D01*
X5179587Y-7546008D02*
X5160539Y-7517436D01*
X5160539Y-7517436D02*
X5151015Y-7507912D01*
D10*
X-5000Y-7909000D02*
G75*
G02*
X-65000Y-7909000I-30000J0D01*
G01*
X-65000Y-7909000D02*
G75*
G02*
X-5000Y-7909000I30000J0D01*
G01*
D11*
X293872Y-7800484D02*
X312920Y-7800484D01*
X312920Y-7800484D02*
X331967Y-7810008D01*
X331967Y-7810008D02*
X341491Y-7819531D01*
X341491Y-7819531D02*
X351015Y-7838579D01*
X351015Y-7838579D02*
X360539Y-7876674D01*
X360539Y-7876674D02*
X360539Y-7924293D01*
X360539Y-7924293D02*
X351015Y-7962388D01*
X351015Y-7962388D02*
X341491Y-7981436D01*
X341491Y-7981436D02*
X331967Y-7990960D01*
X331967Y-7990960D02*
X312920Y-8000484D01*
X312920Y-8000484D02*
X293872Y-8000484D01*
X293872Y-8000484D02*
X274824Y-7990960D01*
X274824Y-7990960D02*
X265301Y-7981436D01*
X265301Y-7981436D02*
X255777Y-7962388D01*
X255777Y-7962388D02*
X246253Y-7924293D01*
X246253Y-7924293D02*
X246253Y-7876674D01*
X246253Y-7876674D02*
X255777Y-7838579D01*
X255777Y-7838579D02*
X265301Y-7819531D01*
X265301Y-7819531D02*
X274824Y-7810008D01*
X274824Y-7810008D02*
X293872Y-7800484D01*
X446253Y-7981436D02*
X455777Y-7990960D01*
X455777Y-7990960D02*
X446253Y-8000484D01*
X446253Y-8000484D02*
X436729Y-7990960D01*
X436729Y-7990960D02*
X446253Y-7981436D01*
X446253Y-7981436D02*
X446253Y-8000484D01*
X627205Y-7800484D02*
X589110Y-7800484D01*
X589110Y-7800484D02*
X570063Y-7810008D01*
X570063Y-7810008D02*
X560539Y-7819531D01*
X560539Y-7819531D02*
X541491Y-7848103D01*
X541491Y-7848103D02*
X531967Y-7886198D01*
X531967Y-7886198D02*
X531967Y-7962388D01*
X531967Y-7962388D02*
X541491Y-7981436D01*
X541491Y-7981436D02*
X551015Y-7990960D01*
X551015Y-7990960D02*
X570063Y-8000484D01*
X570063Y-8000484D02*
X608158Y-8000484D01*
X608158Y-8000484D02*
X627205Y-7990960D01*
X627205Y-7990960D02*
X636729Y-7981436D01*
X636729Y-7981436D02*
X646253Y-7962388D01*
X646253Y-7962388D02*
X646253Y-7914769D01*
X646253Y-7914769D02*
X636729Y-7895722D01*
X636729Y-7895722D02*
X627205Y-7886198D01*
X627205Y-7886198D02*
X608158Y-7876674D01*
X608158Y-7876674D02*
X570063Y-7876674D01*
X570063Y-7876674D02*
X551015Y-7886198D01*
X551015Y-7886198D02*
X541491Y-7895722D01*
X541491Y-7895722D02*
X531967Y-7914769D01*
X770062Y-7800484D02*
X789110Y-7800484D01*
X789110Y-7800484D02*
X808158Y-7810008D01*
X808158Y-7810008D02*
X817682Y-7819531D01*
X817682Y-7819531D02*
X827205Y-7838579D01*
X827205Y-7838579D02*
X836729Y-7876674D01*
X836729Y-7876674D02*
X836729Y-7924293D01*
X836729Y-7924293D02*
X827205Y-7962388D01*
X827205Y-7962388D02*
X817682Y-7981436D01*
X817682Y-7981436D02*
X808158Y-7990960D01*
X808158Y-7990960D02*
X789110Y-8000484D01*
X789110Y-8000484D02*
X770062Y-8000484D01*
X770062Y-8000484D02*
X751015Y-7990960D01*
X751015Y-7990960D02*
X741491Y-7981436D01*
X741491Y-7981436D02*
X731967Y-7962388D01*
X731967Y-7962388D02*
X722443Y-7924293D01*
X722443Y-7924293D02*
X722443Y-7876674D01*
X722443Y-7876674D02*
X731967Y-7838579D01*
X731967Y-7838579D02*
X741491Y-7819531D01*
X741491Y-7819531D02*
X751015Y-7810008D01*
X751015Y-7810008D02*
X770062Y-7800484D01*
X960539Y-7800484D02*
X979586Y-7800484D01*
X979586Y-7800484D02*
X998634Y-7810008D01*
X998634Y-7810008D02*
X1008158Y-7819531D01*
X1008158Y-7819531D02*
X1017682Y-7838579D01*
X1017682Y-7838579D02*
X1027205Y-7876674D01*
X1027205Y-7876674D02*
X1027205Y-7924293D01*
X1027205Y-7924293D02*
X1017682Y-7962388D01*
X1017682Y-7962388D02*
X1008158Y-7981436D01*
X1008158Y-7981436D02*
X998634Y-7990960D01*
X998634Y-7990960D02*
X979586Y-8000484D01*
X979586Y-8000484D02*
X960539Y-8000484D01*
X960539Y-8000484D02*
X941491Y-7990960D01*
X941491Y-7990960D02*
X931967Y-7981436D01*
X931967Y-7981436D02*
X922443Y-7962388D01*
X922443Y-7962388D02*
X912920Y-7924293D01*
X912920Y-7924293D02*
X912920Y-7876674D01*
X912920Y-7876674D02*
X922443Y-7838579D01*
X922443Y-7838579D02*
X931967Y-7819531D01*
X931967Y-7819531D02*
X941491Y-7810008D01*
X941491Y-7810008D02*
X960539Y-7800484D01*
X1112920Y-8000484D02*
X1112920Y-7867150D01*
X1112920Y-7886198D02*
X1122444Y-7876674D01*
X1122444Y-7876674D02*
X1141491Y-7867150D01*
X1141491Y-7867150D02*
X1170063Y-7867150D01*
X1170063Y-7867150D02*
X1189110Y-7876674D01*
X1189110Y-7876674D02*
X1198634Y-7895722D01*
X1198634Y-7895722D02*
X1198634Y-8000484D01*
X1198634Y-7895722D02*
X1208158Y-7876674D01*
X1208158Y-7876674D02*
X1227205Y-7867150D01*
X1227205Y-7867150D02*
X1255777Y-7867150D01*
X1255777Y-7867150D02*
X1274825Y-7876674D01*
X1274825Y-7876674D02*
X1284348Y-7895722D01*
X1284348Y-7895722D02*
X1284348Y-8000484D01*
X1379586Y-8000484D02*
X1379586Y-7867150D01*
X1379586Y-7886198D02*
X1389110Y-7876674D01*
X1389110Y-7876674D02*
X1408158Y-7867150D01*
X1408158Y-7867150D02*
X1436729Y-7867150D01*
X1436729Y-7867150D02*
X1455777Y-7876674D01*
X1455777Y-7876674D02*
X1465301Y-7895722D01*
X1465301Y-7895722D02*
X1465301Y-8000484D01*
X1465301Y-7895722D02*
X1474824Y-7876674D01*
X1474824Y-7876674D02*
X1493872Y-7867150D01*
X1493872Y-7867150D02*
X1522443Y-7867150D01*
X1522443Y-7867150D02*
X1541491Y-7876674D01*
X1541491Y-7876674D02*
X1551015Y-7895722D01*
X1551015Y-7895722D02*
X1551015Y-8000484D01*
X1941491Y-7790960D02*
X1770063Y-8048103D01*
X2198634Y-7800484D02*
X2217682Y-7800484D01*
X2217682Y-7800484D02*
X2236729Y-7810008D01*
X2236729Y-7810008D02*
X2246253Y-7819531D01*
X2246253Y-7819531D02*
X2255777Y-7838579D01*
X2255777Y-7838579D02*
X2265301Y-7876674D01*
X2265301Y-7876674D02*
X2265301Y-7924293D01*
X2265301Y-7924293D02*
X2255777Y-7962388D01*
X2255777Y-7962388D02*
X2246253Y-7981436D01*
X2246253Y-7981436D02*
X2236729Y-7990960D01*
X2236729Y-7990960D02*
X2217682Y-8000484D01*
X2217682Y-8000484D02*
X2198634Y-8000484D01*
X2198634Y-8000484D02*
X2179587Y-7990960D01*
X2179587Y-7990960D02*
X2170063Y-7981436D01*
X2170063Y-7981436D02*
X2160539Y-7962388D01*
X2160539Y-7962388D02*
X2151015Y-7924293D01*
X2151015Y-7924293D02*
X2151015Y-7876674D01*
X2151015Y-7876674D02*
X2160539Y-7838579D01*
X2160539Y-7838579D02*
X2170063Y-7819531D01*
X2170063Y-7819531D02*
X2179587Y-7810008D01*
X2179587Y-7810008D02*
X2198634Y-7800484D01*
X2351015Y-7981436D02*
X2360539Y-7990960D01*
X2360539Y-7990960D02*
X2351015Y-8000484D01*
X2351015Y-8000484D02*
X2341491Y-7990960D01*
X2341491Y-7990960D02*
X2351015Y-7981436D01*
X2351015Y-7981436D02*
X2351015Y-8000484D01*
X2484348Y-7800484D02*
X2503396Y-7800484D01*
X2503396Y-7800484D02*
X2522444Y-7810008D01*
X2522444Y-7810008D02*
X2531968Y-7819531D01*
X2531968Y-7819531D02*
X2541491Y-7838579D01*
X2541491Y-7838579D02*
X2551015Y-7876674D01*
X2551015Y-7876674D02*
X2551015Y-7924293D01*
X2551015Y-7924293D02*
X2541491Y-7962388D01*
X2541491Y-7962388D02*
X2531968Y-7981436D01*
X2531968Y-7981436D02*
X2522444Y-7990960D01*
X2522444Y-7990960D02*
X2503396Y-8000484D01*
X2503396Y-8000484D02*
X2484348Y-8000484D01*
X2484348Y-8000484D02*
X2465301Y-7990960D01*
X2465301Y-7990960D02*
X2455777Y-7981436D01*
X2455777Y-7981436D02*
X2446253Y-7962388D01*
X2446253Y-7962388D02*
X2436729Y-7924293D01*
X2436729Y-7924293D02*
X2436729Y-7876674D01*
X2436729Y-7876674D02*
X2446253Y-7838579D01*
X2446253Y-7838579D02*
X2455777Y-7819531D01*
X2455777Y-7819531D02*
X2465301Y-7810008D01*
X2465301Y-7810008D02*
X2484348Y-7800484D01*
X2627206Y-7819531D02*
X2636729Y-7810008D01*
X2636729Y-7810008D02*
X2655777Y-7800484D01*
X2655777Y-7800484D02*
X2703396Y-7800484D01*
X2703396Y-7800484D02*
X2722444Y-7810008D01*
X2722444Y-7810008D02*
X2731968Y-7819531D01*
X2731968Y-7819531D02*
X2741491Y-7838579D01*
X2741491Y-7838579D02*
X2741491Y-7857627D01*
X2741491Y-7857627D02*
X2731968Y-7886198D01*
X2731968Y-7886198D02*
X2617682Y-8000484D01*
X2617682Y-8000484D02*
X2741491Y-8000484D01*
X2808158Y-7800484D02*
X2931967Y-7800484D01*
X2931967Y-7800484D02*
X2865301Y-7876674D01*
X2865301Y-7876674D02*
X2893872Y-7876674D01*
X2893872Y-7876674D02*
X2912920Y-7886198D01*
X2912920Y-7886198D02*
X2922444Y-7895722D01*
X2922444Y-7895722D02*
X2931967Y-7914769D01*
X2931967Y-7914769D02*
X2931967Y-7962388D01*
X2931967Y-7962388D02*
X2922444Y-7981436D01*
X2922444Y-7981436D02*
X2912920Y-7990960D01*
X2912920Y-7990960D02*
X2893872Y-8000484D01*
X2893872Y-8000484D02*
X2836729Y-8000484D01*
X2836729Y-8000484D02*
X2817682Y-7990960D01*
X2817682Y-7990960D02*
X2808158Y-7981436D01*
X3103396Y-7800484D02*
X3065301Y-7800484D01*
X3065301Y-7800484D02*
X3046253Y-7810008D01*
X3046253Y-7810008D02*
X3036729Y-7819531D01*
X3036729Y-7819531D02*
X3017682Y-7848103D01*
X3017682Y-7848103D02*
X3008158Y-7886198D01*
X3008158Y-7886198D02*
X3008158Y-7962388D01*
X3008158Y-7962388D02*
X3017682Y-7981436D01*
X3017682Y-7981436D02*
X3027206Y-7990960D01*
X3027206Y-7990960D02*
X3046253Y-8000484D01*
X3046253Y-8000484D02*
X3084348Y-8000484D01*
X3084348Y-8000484D02*
X3103396Y-7990960D01*
X3103396Y-7990960D02*
X3112920Y-7981436D01*
X3112920Y-7981436D02*
X3122444Y-7962388D01*
X3122444Y-7962388D02*
X3122444Y-7914769D01*
X3122444Y-7914769D02*
X3112920Y-7895722D01*
X3112920Y-7895722D02*
X3103396Y-7886198D01*
X3103396Y-7886198D02*
X3084348Y-7876674D01*
X3084348Y-7876674D02*
X3046253Y-7876674D01*
X3046253Y-7876674D02*
X3027206Y-7886198D01*
X3027206Y-7886198D02*
X3017682Y-7895722D01*
X3017682Y-7895722D02*
X3008158Y-7914769D01*
X3198634Y-7800484D02*
X3198634Y-7838579D01*
X3274825Y-7800484D02*
X3274825Y-7838579D01*
X3570063Y-8076674D02*
X3560539Y-8067150D01*
X3560539Y-8067150D02*
X3541491Y-8038579D01*
X3541491Y-8038579D02*
X3531968Y-8019531D01*
X3531968Y-8019531D02*
X3522444Y-7990960D01*
X3522444Y-7990960D02*
X3512920Y-7943341D01*
X3512920Y-7943341D02*
X3512920Y-7905246D01*
X3512920Y-7905246D02*
X3522444Y-7857627D01*
X3522444Y-7857627D02*
X3531968Y-7829055D01*
X3531968Y-7829055D02*
X3541491Y-7810008D01*
X3541491Y-7810008D02*
X3560539Y-7781436D01*
X3560539Y-7781436D02*
X3570063Y-7771912D01*
X3684348Y-7800484D02*
X3703396Y-7800484D01*
X3703396Y-7800484D02*
X3722444Y-7810008D01*
X3722444Y-7810008D02*
X3731968Y-7819531D01*
X3731968Y-7819531D02*
X3741491Y-7838579D01*
X3741491Y-7838579D02*
X3751015Y-7876674D01*
X3751015Y-7876674D02*
X3751015Y-7924293D01*
X3751015Y-7924293D02*
X3741491Y-7962388D01*
X3741491Y-7962388D02*
X3731968Y-7981436D01*
X3731968Y-7981436D02*
X3722444Y-7990960D01*
X3722444Y-7990960D02*
X3703396Y-8000484D01*
X3703396Y-8000484D02*
X3684348Y-8000484D01*
X3684348Y-8000484D02*
X3665301Y-7990960D01*
X3665301Y-7990960D02*
X3655777Y-7981436D01*
X3655777Y-7981436D02*
X3646253Y-7962388D01*
X3646253Y-7962388D02*
X3636729Y-7924293D01*
X3636729Y-7924293D02*
X3636729Y-7876674D01*
X3636729Y-7876674D02*
X3646253Y-7838579D01*
X3646253Y-7838579D02*
X3655777Y-7819531D01*
X3655777Y-7819531D02*
X3665301Y-7810008D01*
X3665301Y-7810008D02*
X3684348Y-7800484D01*
X3989110Y-8000484D02*
X3989110Y-7800484D01*
X4074825Y-8000484D02*
X4074825Y-7895722D01*
X4074825Y-7895722D02*
X4065301Y-7876674D01*
X4065301Y-7876674D02*
X4046253Y-7867150D01*
X4046253Y-7867150D02*
X4017682Y-7867150D01*
X4017682Y-7867150D02*
X3998634Y-7876674D01*
X3998634Y-7876674D02*
X3989110Y-7886198D01*
X4198634Y-8000484D02*
X4179587Y-7990960D01*
X4179587Y-7990960D02*
X4170063Y-7981436D01*
X4170063Y-7981436D02*
X4160539Y-7962388D01*
X4160539Y-7962388D02*
X4160539Y-7905246D01*
X4160539Y-7905246D02*
X4170063Y-7886198D01*
X4170063Y-7886198D02*
X4179587Y-7876674D01*
X4179587Y-7876674D02*
X4198634Y-7867150D01*
X4198634Y-7867150D02*
X4227206Y-7867150D01*
X4227206Y-7867150D02*
X4246253Y-7876674D01*
X4246253Y-7876674D02*
X4255777Y-7886198D01*
X4255777Y-7886198D02*
X4265301Y-7905246D01*
X4265301Y-7905246D02*
X4265301Y-7962388D01*
X4265301Y-7962388D02*
X4255777Y-7981436D01*
X4255777Y-7981436D02*
X4246253Y-7990960D01*
X4246253Y-7990960D02*
X4227206Y-8000484D01*
X4227206Y-8000484D02*
X4198634Y-8000484D01*
X4379587Y-8000484D02*
X4360539Y-7990960D01*
X4360539Y-7990960D02*
X4351015Y-7971912D01*
X4351015Y-7971912D02*
X4351015Y-7800484D01*
X4531968Y-7990960D02*
X4512920Y-8000484D01*
X4512920Y-8000484D02*
X4474825Y-8000484D01*
X4474825Y-8000484D02*
X4455777Y-7990960D01*
X4455777Y-7990960D02*
X4446253Y-7971912D01*
X4446253Y-7971912D02*
X4446253Y-7895722D01*
X4446253Y-7895722D02*
X4455777Y-7876674D01*
X4455777Y-7876674D02*
X4474825Y-7867150D01*
X4474825Y-7867150D02*
X4512920Y-7867150D01*
X4512920Y-7867150D02*
X4531968Y-7876674D01*
X4531968Y-7876674D02*
X4541492Y-7895722D01*
X4541492Y-7895722D02*
X4541492Y-7914769D01*
X4541492Y-7914769D02*
X4446253Y-7933817D01*
X4617682Y-7990960D02*
X4636730Y-8000484D01*
X4636730Y-8000484D02*
X4674825Y-8000484D01*
X4674825Y-8000484D02*
X4693873Y-7990960D01*
X4693873Y-7990960D02*
X4703396Y-7971912D01*
X4703396Y-7971912D02*
X4703396Y-7962388D01*
X4703396Y-7962388D02*
X4693873Y-7943341D01*
X4693873Y-7943341D02*
X4674825Y-7933817D01*
X4674825Y-7933817D02*
X4646253Y-7933817D01*
X4646253Y-7933817D02*
X4627206Y-7924293D01*
X4627206Y-7924293D02*
X4617682Y-7905246D01*
X4617682Y-7905246D02*
X4617682Y-7895722D01*
X4617682Y-7895722D02*
X4627206Y-7876674D01*
X4627206Y-7876674D02*
X4646253Y-7867150D01*
X4646253Y-7867150D02*
X4674825Y-7867150D01*
X4674825Y-7867150D02*
X4693873Y-7876674D01*
X4941492Y-7924293D02*
X5093873Y-7924293D01*
X5017682Y-8000484D02*
X5017682Y-7848103D01*
X5427206Y-7867150D02*
X5427206Y-8000484D01*
X5379587Y-7790960D02*
X5331968Y-7933817D01*
X5331968Y-7933817D02*
X5455777Y-7933817D01*
X5674825Y-7990960D02*
X5693873Y-8000484D01*
X5693873Y-8000484D02*
X5731968Y-8000484D01*
X5731968Y-8000484D02*
X5751015Y-7990960D01*
X5751015Y-7990960D02*
X5760539Y-7971912D01*
X5760539Y-7971912D02*
X5760539Y-7962388D01*
X5760539Y-7962388D02*
X5751015Y-7943341D01*
X5751015Y-7943341D02*
X5731968Y-7933817D01*
X5731968Y-7933817D02*
X5703396Y-7933817D01*
X5703396Y-7933817D02*
X5684349Y-7924293D01*
X5684349Y-7924293D02*
X5674825Y-7905246D01*
X5674825Y-7905246D02*
X5674825Y-7895722D01*
X5674825Y-7895722D02*
X5684349Y-7876674D01*
X5684349Y-7876674D02*
X5703396Y-7867150D01*
X5703396Y-7867150D02*
X5731968Y-7867150D01*
X5731968Y-7867150D02*
X5751015Y-7876674D01*
X5874825Y-8000484D02*
X5855777Y-7990960D01*
X5855777Y-7990960D02*
X5846254Y-7971912D01*
X5846254Y-7971912D02*
X5846254Y-7800484D01*
X5979587Y-8000484D02*
X5960539Y-7990960D01*
X5960539Y-7990960D02*
X5951015Y-7981436D01*
X5951015Y-7981436D02*
X5941492Y-7962388D01*
X5941492Y-7962388D02*
X5941492Y-7905246D01*
X5941492Y-7905246D02*
X5951015Y-7886198D01*
X5951015Y-7886198D02*
X5960539Y-7876674D01*
X5960539Y-7876674D02*
X5979587Y-7867150D01*
X5979587Y-7867150D02*
X6008158Y-7867150D01*
X6008158Y-7867150D02*
X6027206Y-7876674D01*
X6027206Y-7876674D02*
X6036730Y-7886198D01*
X6036730Y-7886198D02*
X6046254Y-7905246D01*
X6046254Y-7905246D02*
X6046254Y-7962388D01*
X6046254Y-7962388D02*
X6036730Y-7981436D01*
X6036730Y-7981436D02*
X6027206Y-7990960D01*
X6027206Y-7990960D02*
X6008158Y-8000484D01*
X6008158Y-8000484D02*
X5979587Y-8000484D01*
X6103396Y-7867150D02*
X6179587Y-7867150D01*
X6131968Y-7800484D02*
X6131968Y-7971912D01*
X6131968Y-7971912D02*
X6141492Y-7990960D01*
X6141492Y-7990960D02*
X6160539Y-8000484D01*
X6160539Y-8000484D02*
X6179587Y-8000484D01*
X6236730Y-7990960D02*
X6255777Y-8000484D01*
X6255777Y-8000484D02*
X6293873Y-8000484D01*
X6293873Y-8000484D02*
X6312920Y-7990960D01*
X6312920Y-7990960D02*
X6322444Y-7971912D01*
X6322444Y-7971912D02*
X6322444Y-7962388D01*
X6322444Y-7962388D02*
X6312920Y-7943341D01*
X6312920Y-7943341D02*
X6293873Y-7933817D01*
X6293873Y-7933817D02*
X6265301Y-7933817D01*
X6265301Y-7933817D02*
X6246254Y-7924293D01*
X6246254Y-7924293D02*
X6236730Y-7905246D01*
X6236730Y-7905246D02*
X6236730Y-7895722D01*
X6236730Y-7895722D02*
X6246254Y-7876674D01*
X6246254Y-7876674D02*
X6265301Y-7867150D01*
X6265301Y-7867150D02*
X6293873Y-7867150D01*
X6293873Y-7867150D02*
X6312920Y-7876674D01*
X6389111Y-8076674D02*
X6398635Y-8067150D01*
X6398635Y-8067150D02*
X6417682Y-8038579D01*
X6417682Y-8038579D02*
X6427206Y-8019531D01*
X6427206Y-8019531D02*
X6436730Y-7990960D01*
X6436730Y-7990960D02*
X6446254Y-7943341D01*
X6446254Y-7943341D02*
X6446254Y-7905246D01*
X6446254Y-7905246D02*
X6436730Y-7857627D01*
X6436730Y-7857627D02*
X6427206Y-7829055D01*
X6427206Y-7829055D02*
X6417682Y-7810008D01*
X6417682Y-7810008D02*
X6398635Y-7781436D01*
X6398635Y-7781436D02*
X6389111Y-7771912D01*
D10*
X-55000Y-8123000D02*
X-55000Y-8223000D01*
X-105000Y-8173000D02*
X-5000Y-8173000D01*
D11*
X360539Y-8264484D02*
X246253Y-8264484D01*
X303396Y-8264484D02*
X303396Y-8064484D01*
X303396Y-8064484D02*
X284348Y-8093055D01*
X284348Y-8093055D02*
X265301Y-8112103D01*
X265301Y-8112103D02*
X246253Y-8121627D01*
X446253Y-8245436D02*
X455777Y-8254960D01*
X455777Y-8254960D02*
X446253Y-8264484D01*
X446253Y-8264484D02*
X436729Y-8254960D01*
X436729Y-8254960D02*
X446253Y-8245436D01*
X446253Y-8245436D02*
X446253Y-8264484D01*
X579586Y-8064484D02*
X598634Y-8064484D01*
X598634Y-8064484D02*
X617682Y-8074008D01*
X617682Y-8074008D02*
X627205Y-8083531D01*
X627205Y-8083531D02*
X636729Y-8102579D01*
X636729Y-8102579D02*
X646253Y-8140674D01*
X646253Y-8140674D02*
X646253Y-8188293D01*
X646253Y-8188293D02*
X636729Y-8226388D01*
X636729Y-8226388D02*
X627205Y-8245436D01*
X627205Y-8245436D02*
X617682Y-8254960D01*
X617682Y-8254960D02*
X598634Y-8264484D01*
X598634Y-8264484D02*
X579586Y-8264484D01*
X579586Y-8264484D02*
X560539Y-8254960D01*
X560539Y-8254960D02*
X551015Y-8245436D01*
X551015Y-8245436D02*
X541491Y-8226388D01*
X541491Y-8226388D02*
X531967Y-8188293D01*
X531967Y-8188293D02*
X531967Y-8140674D01*
X531967Y-8140674D02*
X541491Y-8102579D01*
X541491Y-8102579D02*
X551015Y-8083531D01*
X551015Y-8083531D02*
X560539Y-8074008D01*
X560539Y-8074008D02*
X579586Y-8064484D01*
X770062Y-8064484D02*
X789110Y-8064484D01*
X789110Y-8064484D02*
X808158Y-8074008D01*
X808158Y-8074008D02*
X817682Y-8083531D01*
X817682Y-8083531D02*
X827205Y-8102579D01*
X827205Y-8102579D02*
X836729Y-8140674D01*
X836729Y-8140674D02*
X836729Y-8188293D01*
X836729Y-8188293D02*
X827205Y-8226388D01*
X827205Y-8226388D02*
X817682Y-8245436D01*
X817682Y-8245436D02*
X808158Y-8254960D01*
X808158Y-8254960D02*
X789110Y-8264484D01*
X789110Y-8264484D02*
X770062Y-8264484D01*
X770062Y-8264484D02*
X751015Y-8254960D01*
X751015Y-8254960D02*
X741491Y-8245436D01*
X741491Y-8245436D02*
X731967Y-8226388D01*
X731967Y-8226388D02*
X722443Y-8188293D01*
X722443Y-8188293D02*
X722443Y-8140674D01*
X722443Y-8140674D02*
X731967Y-8102579D01*
X731967Y-8102579D02*
X741491Y-8083531D01*
X741491Y-8083531D02*
X751015Y-8074008D01*
X751015Y-8074008D02*
X770062Y-8064484D01*
X960539Y-8064484D02*
X979586Y-8064484D01*
X979586Y-8064484D02*
X998634Y-8074008D01*
X998634Y-8074008D02*
X1008158Y-8083531D01*
X1008158Y-8083531D02*
X1017682Y-8102579D01*
X1017682Y-8102579D02*
X1027205Y-8140674D01*
X1027205Y-8140674D02*
X1027205Y-8188293D01*
X1027205Y-8188293D02*
X1017682Y-8226388D01*
X1017682Y-8226388D02*
X1008158Y-8245436D01*
X1008158Y-8245436D02*
X998634Y-8254960D01*
X998634Y-8254960D02*
X979586Y-8264484D01*
X979586Y-8264484D02*
X960539Y-8264484D01*
X960539Y-8264484D02*
X941491Y-8254960D01*
X941491Y-8254960D02*
X931967Y-8245436D01*
X931967Y-8245436D02*
X922443Y-8226388D01*
X922443Y-8226388D02*
X912920Y-8188293D01*
X912920Y-8188293D02*
X912920Y-8140674D01*
X912920Y-8140674D02*
X922443Y-8102579D01*
X922443Y-8102579D02*
X931967Y-8083531D01*
X931967Y-8083531D02*
X941491Y-8074008D01*
X941491Y-8074008D02*
X960539Y-8064484D01*
X1112920Y-8264484D02*
X1112920Y-8131150D01*
X1112920Y-8150198D02*
X1122444Y-8140674D01*
X1122444Y-8140674D02*
X1141491Y-8131150D01*
X1141491Y-8131150D02*
X1170063Y-8131150D01*
X1170063Y-8131150D02*
X1189110Y-8140674D01*
X1189110Y-8140674D02*
X1198634Y-8159722D01*
X1198634Y-8159722D02*
X1198634Y-8264484D01*
X1198634Y-8159722D02*
X1208158Y-8140674D01*
X1208158Y-8140674D02*
X1227205Y-8131150D01*
X1227205Y-8131150D02*
X1255777Y-8131150D01*
X1255777Y-8131150D02*
X1274825Y-8140674D01*
X1274825Y-8140674D02*
X1284348Y-8159722D01*
X1284348Y-8159722D02*
X1284348Y-8264484D01*
X1379586Y-8264484D02*
X1379586Y-8131150D01*
X1379586Y-8150198D02*
X1389110Y-8140674D01*
X1389110Y-8140674D02*
X1408158Y-8131150D01*
X1408158Y-8131150D02*
X1436729Y-8131150D01*
X1436729Y-8131150D02*
X1455777Y-8140674D01*
X1455777Y-8140674D02*
X1465301Y-8159722D01*
X1465301Y-8159722D02*
X1465301Y-8264484D01*
X1465301Y-8159722D02*
X1474824Y-8140674D01*
X1474824Y-8140674D02*
X1493872Y-8131150D01*
X1493872Y-8131150D02*
X1522443Y-8131150D01*
X1522443Y-8131150D02*
X1541491Y-8140674D01*
X1541491Y-8140674D02*
X1551015Y-8159722D01*
X1551015Y-8159722D02*
X1551015Y-8264484D01*
X1941491Y-8054960D02*
X1770063Y-8312103D01*
X2198634Y-8064484D02*
X2217682Y-8064484D01*
X2217682Y-8064484D02*
X2236729Y-8074008D01*
X2236729Y-8074008D02*
X2246253Y-8083531D01*
X2246253Y-8083531D02*
X2255777Y-8102579D01*
X2255777Y-8102579D02*
X2265301Y-8140674D01*
X2265301Y-8140674D02*
X2265301Y-8188293D01*
X2265301Y-8188293D02*
X2255777Y-8226388D01*
X2255777Y-8226388D02*
X2246253Y-8245436D01*
X2246253Y-8245436D02*
X2236729Y-8254960D01*
X2236729Y-8254960D02*
X2217682Y-8264484D01*
X2217682Y-8264484D02*
X2198634Y-8264484D01*
X2198634Y-8264484D02*
X2179587Y-8254960D01*
X2179587Y-8254960D02*
X2170063Y-8245436D01*
X2170063Y-8245436D02*
X2160539Y-8226388D01*
X2160539Y-8226388D02*
X2151015Y-8188293D01*
X2151015Y-8188293D02*
X2151015Y-8140674D01*
X2151015Y-8140674D02*
X2160539Y-8102579D01*
X2160539Y-8102579D02*
X2170063Y-8083531D01*
X2170063Y-8083531D02*
X2179587Y-8074008D01*
X2179587Y-8074008D02*
X2198634Y-8064484D01*
X2351015Y-8245436D02*
X2360539Y-8254960D01*
X2360539Y-8254960D02*
X2351015Y-8264484D01*
X2351015Y-8264484D02*
X2341491Y-8254960D01*
X2341491Y-8254960D02*
X2351015Y-8245436D01*
X2351015Y-8245436D02*
X2351015Y-8264484D01*
X2484348Y-8064484D02*
X2503396Y-8064484D01*
X2503396Y-8064484D02*
X2522444Y-8074008D01*
X2522444Y-8074008D02*
X2531968Y-8083531D01*
X2531968Y-8083531D02*
X2541491Y-8102579D01*
X2541491Y-8102579D02*
X2551015Y-8140674D01*
X2551015Y-8140674D02*
X2551015Y-8188293D01*
X2551015Y-8188293D02*
X2541491Y-8226388D01*
X2541491Y-8226388D02*
X2531968Y-8245436D01*
X2531968Y-8245436D02*
X2522444Y-8254960D01*
X2522444Y-8254960D02*
X2503396Y-8264484D01*
X2503396Y-8264484D02*
X2484348Y-8264484D01*
X2484348Y-8264484D02*
X2465301Y-8254960D01*
X2465301Y-8254960D02*
X2455777Y-8245436D01*
X2455777Y-8245436D02*
X2446253Y-8226388D01*
X2446253Y-8226388D02*
X2436729Y-8188293D01*
X2436729Y-8188293D02*
X2436729Y-8140674D01*
X2436729Y-8140674D02*
X2446253Y-8102579D01*
X2446253Y-8102579D02*
X2455777Y-8083531D01*
X2455777Y-8083531D02*
X2465301Y-8074008D01*
X2465301Y-8074008D02*
X2484348Y-8064484D01*
X2617682Y-8064484D02*
X2741491Y-8064484D01*
X2741491Y-8064484D02*
X2674825Y-8140674D01*
X2674825Y-8140674D02*
X2703396Y-8140674D01*
X2703396Y-8140674D02*
X2722444Y-8150198D01*
X2722444Y-8150198D02*
X2731968Y-8159722D01*
X2731968Y-8159722D02*
X2741491Y-8178769D01*
X2741491Y-8178769D02*
X2741491Y-8226388D01*
X2741491Y-8226388D02*
X2731968Y-8245436D01*
X2731968Y-8245436D02*
X2722444Y-8254960D01*
X2722444Y-8254960D02*
X2703396Y-8264484D01*
X2703396Y-8264484D02*
X2646253Y-8264484D01*
X2646253Y-8264484D02*
X2627206Y-8254960D01*
X2627206Y-8254960D02*
X2617682Y-8245436D01*
X2836729Y-8264484D02*
X2874825Y-8264484D01*
X2874825Y-8264484D02*
X2893872Y-8254960D01*
X2893872Y-8254960D02*
X2903396Y-8245436D01*
X2903396Y-8245436D02*
X2922444Y-8216865D01*
X2922444Y-8216865D02*
X2931967Y-8178769D01*
X2931967Y-8178769D02*
X2931967Y-8102579D01*
X2931967Y-8102579D02*
X2922444Y-8083531D01*
X2922444Y-8083531D02*
X2912920Y-8074008D01*
X2912920Y-8074008D02*
X2893872Y-8064484D01*
X2893872Y-8064484D02*
X2855777Y-8064484D01*
X2855777Y-8064484D02*
X2836729Y-8074008D01*
X2836729Y-8074008D02*
X2827206Y-8083531D01*
X2827206Y-8083531D02*
X2817682Y-8102579D01*
X2817682Y-8102579D02*
X2817682Y-8150198D01*
X2817682Y-8150198D02*
X2827206Y-8169246D01*
X2827206Y-8169246D02*
X2836729Y-8178769D01*
X2836729Y-8178769D02*
X2855777Y-8188293D01*
X2855777Y-8188293D02*
X2893872Y-8188293D01*
X2893872Y-8188293D02*
X2912920Y-8178769D01*
X2912920Y-8178769D02*
X2922444Y-8169246D01*
X2922444Y-8169246D02*
X2931967Y-8150198D01*
X3103396Y-8131150D02*
X3103396Y-8264484D01*
X3055777Y-8054960D02*
X3008158Y-8197817D01*
X3008158Y-8197817D02*
X3131967Y-8197817D01*
X3198634Y-8064484D02*
X3198634Y-8102579D01*
X3274825Y-8064484D02*
X3274825Y-8102579D01*
X3570063Y-8340674D02*
X3560539Y-8331150D01*
X3560539Y-8331150D02*
X3541491Y-8302579D01*
X3541491Y-8302579D02*
X3531968Y-8283531D01*
X3531968Y-8283531D02*
X3522444Y-8254960D01*
X3522444Y-8254960D02*
X3512920Y-8207341D01*
X3512920Y-8207341D02*
X3512920Y-8169246D01*
X3512920Y-8169246D02*
X3522444Y-8121627D01*
X3522444Y-8121627D02*
X3531968Y-8093055D01*
X3531968Y-8093055D02*
X3541491Y-8074008D01*
X3541491Y-8074008D02*
X3560539Y-8045436D01*
X3560539Y-8045436D02*
X3570063Y-8035912D01*
X3751015Y-8264484D02*
X3636729Y-8264484D01*
X3693872Y-8264484D02*
X3693872Y-8064484D01*
X3693872Y-8064484D02*
X3674825Y-8093055D01*
X3674825Y-8093055D02*
X3655777Y-8112103D01*
X3655777Y-8112103D02*
X3636729Y-8121627D01*
X3865301Y-8150198D02*
X3846253Y-8140674D01*
X3846253Y-8140674D02*
X3836729Y-8131150D01*
X3836729Y-8131150D02*
X3827206Y-8112103D01*
X3827206Y-8112103D02*
X3827206Y-8102579D01*
X3827206Y-8102579D02*
X3836729Y-8083531D01*
X3836729Y-8083531D02*
X3846253Y-8074008D01*
X3846253Y-8074008D02*
X3865301Y-8064484D01*
X3865301Y-8064484D02*
X3903396Y-8064484D01*
X3903396Y-8064484D02*
X3922444Y-8074008D01*
X3922444Y-8074008D02*
X3931968Y-8083531D01*
X3931968Y-8083531D02*
X3941491Y-8102579D01*
X3941491Y-8102579D02*
X3941491Y-8112103D01*
X3941491Y-8112103D02*
X3931968Y-8131150D01*
X3931968Y-8131150D02*
X3922444Y-8140674D01*
X3922444Y-8140674D02*
X3903396Y-8150198D01*
X3903396Y-8150198D02*
X3865301Y-8150198D01*
X3865301Y-8150198D02*
X3846253Y-8159722D01*
X3846253Y-8159722D02*
X3836729Y-8169246D01*
X3836729Y-8169246D02*
X3827206Y-8188293D01*
X3827206Y-8188293D02*
X3827206Y-8226388D01*
X3827206Y-8226388D02*
X3836729Y-8245436D01*
X3836729Y-8245436D02*
X3846253Y-8254960D01*
X3846253Y-8254960D02*
X3865301Y-8264484D01*
X3865301Y-8264484D02*
X3903396Y-8264484D01*
X3903396Y-8264484D02*
X3922444Y-8254960D01*
X3922444Y-8254960D02*
X3931968Y-8245436D01*
X3931968Y-8245436D02*
X3941491Y-8226388D01*
X3941491Y-8226388D02*
X3941491Y-8188293D01*
X3941491Y-8188293D02*
X3931968Y-8169246D01*
X3931968Y-8169246D02*
X3922444Y-8159722D01*
X3922444Y-8159722D02*
X3903396Y-8150198D01*
X4179587Y-8264484D02*
X4179587Y-8064484D01*
X4265301Y-8264484D02*
X4265301Y-8159722D01*
X4265301Y-8159722D02*
X4255777Y-8140674D01*
X4255777Y-8140674D02*
X4236730Y-8131150D01*
X4236730Y-8131150D02*
X4208158Y-8131150D01*
X4208158Y-8131150D02*
X4189110Y-8140674D01*
X4189110Y-8140674D02*
X4179587Y-8150198D01*
X4389111Y-8264484D02*
X4370063Y-8254960D01*
X4370063Y-8254960D02*
X4360539Y-8245436D01*
X4360539Y-8245436D02*
X4351015Y-8226388D01*
X4351015Y-8226388D02*
X4351015Y-8169246D01*
X4351015Y-8169246D02*
X4360539Y-8150198D01*
X4360539Y-8150198D02*
X4370063Y-8140674D01*
X4370063Y-8140674D02*
X4389111Y-8131150D01*
X4389111Y-8131150D02*
X4417682Y-8131150D01*
X4417682Y-8131150D02*
X4436730Y-8140674D01*
X4436730Y-8140674D02*
X4446253Y-8150198D01*
X4446253Y-8150198D02*
X4455777Y-8169246D01*
X4455777Y-8169246D02*
X4455777Y-8226388D01*
X4455777Y-8226388D02*
X4446253Y-8245436D01*
X4446253Y-8245436D02*
X4436730Y-8254960D01*
X4436730Y-8254960D02*
X4417682Y-8264484D01*
X4417682Y-8264484D02*
X4389111Y-8264484D01*
X4570063Y-8264484D02*
X4551015Y-8254960D01*
X4551015Y-8254960D02*
X4541492Y-8235912D01*
X4541492Y-8235912D02*
X4541492Y-8064484D01*
X4722444Y-8254960D02*
X4703396Y-8264484D01*
X4703396Y-8264484D02*
X4665301Y-8264484D01*
X4665301Y-8264484D02*
X4646253Y-8254960D01*
X4646253Y-8254960D02*
X4636730Y-8235912D01*
X4636730Y-8235912D02*
X4636730Y-8159722D01*
X4636730Y-8159722D02*
X4646253Y-8140674D01*
X4646253Y-8140674D02*
X4665301Y-8131150D01*
X4665301Y-8131150D02*
X4703396Y-8131150D01*
X4703396Y-8131150D02*
X4722444Y-8140674D01*
X4722444Y-8140674D02*
X4731968Y-8159722D01*
X4731968Y-8159722D02*
X4731968Y-8178769D01*
X4731968Y-8178769D02*
X4636730Y-8197817D01*
X4808158Y-8254960D02*
X4827206Y-8264484D01*
X4827206Y-8264484D02*
X4865301Y-8264484D01*
X4865301Y-8264484D02*
X4884349Y-8254960D01*
X4884349Y-8254960D02*
X4893873Y-8235912D01*
X4893873Y-8235912D02*
X4893873Y-8226388D01*
X4893873Y-8226388D02*
X4884349Y-8207341D01*
X4884349Y-8207341D02*
X4865301Y-8197817D01*
X4865301Y-8197817D02*
X4836730Y-8197817D01*
X4836730Y-8197817D02*
X4817682Y-8188293D01*
X4817682Y-8188293D02*
X4808158Y-8169246D01*
X4808158Y-8169246D02*
X4808158Y-8159722D01*
X4808158Y-8159722D02*
X4817682Y-8140674D01*
X4817682Y-8140674D02*
X4836730Y-8131150D01*
X4836730Y-8131150D02*
X4865301Y-8131150D01*
X4865301Y-8131150D02*
X4884349Y-8140674D01*
X4960539Y-8340674D02*
X4970063Y-8331150D01*
X4970063Y-8331150D02*
X4989111Y-8302579D01*
X4989111Y-8302579D02*
X4998634Y-8283531D01*
X4998634Y-8283531D02*
X5008158Y-8254960D01*
X5008158Y-8254960D02*
X5017682Y-8207341D01*
X5017682Y-8207341D02*
X5017682Y-8169246D01*
X5017682Y-8169246D02*
X5008158Y-8121627D01*
X5008158Y-8121627D02*
X4998634Y-8093055D01*
X4998634Y-8093055D02*
X4989111Y-8074008D01*
X4989111Y-8074008D02*
X4970063Y-8045436D01*
X4970063Y-8045436D02*
X4960539Y-8035912D01*
D12*
X-22573Y-8479427D02*
X-22573Y-8394573D01*
X-107427Y-8394573D01*
X-107427Y-8479427D01*
X-22573Y-8479427D01*
D11*
X360539Y-8528484D02*
X246253Y-8528484D01*
X303396Y-8528484D02*
X303396Y-8328484D01*
X303396Y-8328484D02*
X284348Y-8357055D01*
X284348Y-8357055D02*
X265301Y-8376103D01*
X265301Y-8376103D02*
X246253Y-8385627D01*
X446253Y-8509436D02*
X455777Y-8518960D01*
X455777Y-8518960D02*
X446253Y-8528484D01*
X446253Y-8528484D02*
X436729Y-8518960D01*
X436729Y-8518960D02*
X446253Y-8509436D01*
X446253Y-8509436D02*
X446253Y-8528484D01*
X531967Y-8347531D02*
X541491Y-8338008D01*
X541491Y-8338008D02*
X560539Y-8328484D01*
X560539Y-8328484D02*
X608158Y-8328484D01*
X608158Y-8328484D02*
X627205Y-8338008D01*
X627205Y-8338008D02*
X636729Y-8347531D01*
X636729Y-8347531D02*
X646253Y-8366579D01*
X646253Y-8366579D02*
X646253Y-8385627D01*
X646253Y-8385627D02*
X636729Y-8414198D01*
X636729Y-8414198D02*
X522443Y-8528484D01*
X522443Y-8528484D02*
X646253Y-8528484D01*
X770062Y-8328484D02*
X789110Y-8328484D01*
X789110Y-8328484D02*
X808158Y-8338008D01*
X808158Y-8338008D02*
X817682Y-8347531D01*
X817682Y-8347531D02*
X827205Y-8366579D01*
X827205Y-8366579D02*
X836729Y-8404674D01*
X836729Y-8404674D02*
X836729Y-8452293D01*
X836729Y-8452293D02*
X827205Y-8490389D01*
X827205Y-8490389D02*
X817682Y-8509436D01*
X817682Y-8509436D02*
X808158Y-8518960D01*
X808158Y-8518960D02*
X789110Y-8528484D01*
X789110Y-8528484D02*
X770062Y-8528484D01*
X770062Y-8528484D02*
X751015Y-8518960D01*
X751015Y-8518960D02*
X741491Y-8509436D01*
X741491Y-8509436D02*
X731967Y-8490389D01*
X731967Y-8490389D02*
X722443Y-8452293D01*
X722443Y-8452293D02*
X722443Y-8404674D01*
X722443Y-8404674D02*
X731967Y-8366579D01*
X731967Y-8366579D02*
X741491Y-8347531D01*
X741491Y-8347531D02*
X751015Y-8338008D01*
X751015Y-8338008D02*
X770062Y-8328484D01*
X960539Y-8328484D02*
X979586Y-8328484D01*
X979586Y-8328484D02*
X998634Y-8338008D01*
X998634Y-8338008D02*
X1008158Y-8347531D01*
X1008158Y-8347531D02*
X1017682Y-8366579D01*
X1017682Y-8366579D02*
X1027205Y-8404674D01*
X1027205Y-8404674D02*
X1027205Y-8452293D01*
X1027205Y-8452293D02*
X1017682Y-8490389D01*
X1017682Y-8490389D02*
X1008158Y-8509436D01*
X1008158Y-8509436D02*
X998634Y-8518960D01*
X998634Y-8518960D02*
X979586Y-8528484D01*
X979586Y-8528484D02*
X960539Y-8528484D01*
X960539Y-8528484D02*
X941491Y-8518960D01*
X941491Y-8518960D02*
X931967Y-8509436D01*
X931967Y-8509436D02*
X922443Y-8490389D01*
X922443Y-8490389D02*
X912920Y-8452293D01*
X912920Y-8452293D02*
X912920Y-8404674D01*
X912920Y-8404674D02*
X922443Y-8366579D01*
X922443Y-8366579D02*
X931967Y-8347531D01*
X931967Y-8347531D02*
X941491Y-8338008D01*
X941491Y-8338008D02*
X960539Y-8328484D01*
X1112920Y-8528484D02*
X1112920Y-8395150D01*
X1112920Y-8414198D02*
X1122444Y-8404674D01*
X1122444Y-8404674D02*
X1141491Y-8395150D01*
X1141491Y-8395150D02*
X1170063Y-8395150D01*
X1170063Y-8395150D02*
X1189110Y-8404674D01*
X1189110Y-8404674D02*
X1198634Y-8423722D01*
X1198634Y-8423722D02*
X1198634Y-8528484D01*
X1198634Y-8423722D02*
X1208158Y-8404674D01*
X1208158Y-8404674D02*
X1227205Y-8395150D01*
X1227205Y-8395150D02*
X1255777Y-8395150D01*
X1255777Y-8395150D02*
X1274825Y-8404674D01*
X1274825Y-8404674D02*
X1284348Y-8423722D01*
X1284348Y-8423722D02*
X1284348Y-8528484D01*
X1379586Y-8528484D02*
X1379586Y-8395150D01*
X1379586Y-8414198D02*
X1389110Y-8404674D01*
X1389110Y-8404674D02*
X1408158Y-8395150D01*
X1408158Y-8395150D02*
X1436729Y-8395150D01*
X1436729Y-8395150D02*
X1455777Y-8404674D01*
X1455777Y-8404674D02*
X1465301Y-8423722D01*
X1465301Y-8423722D02*
X1465301Y-8528484D01*
X1465301Y-8423722D02*
X1474824Y-8404674D01*
X1474824Y-8404674D02*
X1493872Y-8395150D01*
X1493872Y-8395150D02*
X1522443Y-8395150D01*
X1522443Y-8395150D02*
X1541491Y-8404674D01*
X1541491Y-8404674D02*
X1551015Y-8423722D01*
X1551015Y-8423722D02*
X1551015Y-8528484D01*
X1941491Y-8318960D02*
X1770063Y-8576103D01*
X2198634Y-8328484D02*
X2217682Y-8328484D01*
X2217682Y-8328484D02*
X2236729Y-8338008D01*
X2236729Y-8338008D02*
X2246253Y-8347531D01*
X2246253Y-8347531D02*
X2255777Y-8366579D01*
X2255777Y-8366579D02*
X2265301Y-8404674D01*
X2265301Y-8404674D02*
X2265301Y-8452293D01*
X2265301Y-8452293D02*
X2255777Y-8490389D01*
X2255777Y-8490389D02*
X2246253Y-8509436D01*
X2246253Y-8509436D02*
X2236729Y-8518960D01*
X2236729Y-8518960D02*
X2217682Y-8528484D01*
X2217682Y-8528484D02*
X2198634Y-8528484D01*
X2198634Y-8528484D02*
X2179587Y-8518960D01*
X2179587Y-8518960D02*
X2170063Y-8509436D01*
X2170063Y-8509436D02*
X2160539Y-8490389D01*
X2160539Y-8490389D02*
X2151015Y-8452293D01*
X2151015Y-8452293D02*
X2151015Y-8404674D01*
X2151015Y-8404674D02*
X2160539Y-8366579D01*
X2160539Y-8366579D02*
X2170063Y-8347531D01*
X2170063Y-8347531D02*
X2179587Y-8338008D01*
X2179587Y-8338008D02*
X2198634Y-8328484D01*
X2351015Y-8509436D02*
X2360539Y-8518960D01*
X2360539Y-8518960D02*
X2351015Y-8528484D01*
X2351015Y-8528484D02*
X2341491Y-8518960D01*
X2341491Y-8518960D02*
X2351015Y-8509436D01*
X2351015Y-8509436D02*
X2351015Y-8528484D01*
X2484348Y-8328484D02*
X2503396Y-8328484D01*
X2503396Y-8328484D02*
X2522444Y-8338008D01*
X2522444Y-8338008D02*
X2531968Y-8347531D01*
X2531968Y-8347531D02*
X2541491Y-8366579D01*
X2541491Y-8366579D02*
X2551015Y-8404674D01*
X2551015Y-8404674D02*
X2551015Y-8452293D01*
X2551015Y-8452293D02*
X2541491Y-8490389D01*
X2541491Y-8490389D02*
X2531968Y-8509436D01*
X2531968Y-8509436D02*
X2522444Y-8518960D01*
X2522444Y-8518960D02*
X2503396Y-8528484D01*
X2503396Y-8528484D02*
X2484348Y-8528484D01*
X2484348Y-8528484D02*
X2465301Y-8518960D01*
X2465301Y-8518960D02*
X2455777Y-8509436D01*
X2455777Y-8509436D02*
X2446253Y-8490389D01*
X2446253Y-8490389D02*
X2436729Y-8452293D01*
X2436729Y-8452293D02*
X2436729Y-8404674D01*
X2436729Y-8404674D02*
X2446253Y-8366579D01*
X2446253Y-8366579D02*
X2455777Y-8347531D01*
X2455777Y-8347531D02*
X2465301Y-8338008D01*
X2465301Y-8338008D02*
X2484348Y-8328484D01*
X2722444Y-8395150D02*
X2722444Y-8528484D01*
X2674825Y-8318960D02*
X2627206Y-8461817D01*
X2627206Y-8461817D02*
X2751015Y-8461817D01*
X2808158Y-8328484D02*
X2941491Y-8328484D01*
X2941491Y-8328484D02*
X2855777Y-8528484D01*
X3008158Y-8347531D02*
X3017682Y-8338008D01*
X3017682Y-8338008D02*
X3036729Y-8328484D01*
X3036729Y-8328484D02*
X3084348Y-8328484D01*
X3084348Y-8328484D02*
X3103396Y-8338008D01*
X3103396Y-8338008D02*
X3112920Y-8347531D01*
X3112920Y-8347531D02*
X3122444Y-8366579D01*
X3122444Y-8366579D02*
X3122444Y-8385627D01*
X3122444Y-8385627D02*
X3112920Y-8414198D01*
X3112920Y-8414198D02*
X2998634Y-8528484D01*
X2998634Y-8528484D02*
X3122444Y-8528484D01*
X3198634Y-8328484D02*
X3198634Y-8366579D01*
X3274825Y-8328484D02*
X3274825Y-8366579D01*
X3570063Y-8604674D02*
X3560539Y-8595150D01*
X3560539Y-8595150D02*
X3541491Y-8566579D01*
X3541491Y-8566579D02*
X3531968Y-8547531D01*
X3531968Y-8547531D02*
X3522444Y-8518960D01*
X3522444Y-8518960D02*
X3512920Y-8471341D01*
X3512920Y-8471341D02*
X3512920Y-8433246D01*
X3512920Y-8433246D02*
X3522444Y-8385627D01*
X3522444Y-8385627D02*
X3531968Y-8357055D01*
X3531968Y-8357055D02*
X3541491Y-8338008D01*
X3541491Y-8338008D02*
X3560539Y-8309436D01*
X3560539Y-8309436D02*
X3570063Y-8299912D01*
X3627206Y-8328484D02*
X3751015Y-8328484D01*
X3751015Y-8328484D02*
X3684348Y-8404674D01*
X3684348Y-8404674D02*
X3712920Y-8404674D01*
X3712920Y-8404674D02*
X3731968Y-8414198D01*
X3731968Y-8414198D02*
X3741491Y-8423722D01*
X3741491Y-8423722D02*
X3751015Y-8442770D01*
X3751015Y-8442770D02*
X3751015Y-8490389D01*
X3751015Y-8490389D02*
X3741491Y-8509436D01*
X3741491Y-8509436D02*
X3731968Y-8518960D01*
X3731968Y-8518960D02*
X3712920Y-8528484D01*
X3712920Y-8528484D02*
X3655777Y-8528484D01*
X3655777Y-8528484D02*
X3636729Y-8518960D01*
X3636729Y-8518960D02*
X3627206Y-8509436D01*
X3922444Y-8395150D02*
X3922444Y-8528484D01*
X3874825Y-8318960D02*
X3827206Y-8461817D01*
X3827206Y-8461817D02*
X3951015Y-8461817D01*
X4179587Y-8528484D02*
X4179587Y-8328484D01*
X4265301Y-8528484D02*
X4265301Y-8423722D01*
X4265301Y-8423722D02*
X4255777Y-8404674D01*
X4255777Y-8404674D02*
X4236730Y-8395150D01*
X4236730Y-8395150D02*
X4208158Y-8395150D01*
X4208158Y-8395150D02*
X4189110Y-8404674D01*
X4189110Y-8404674D02*
X4179587Y-8414198D01*
X4389111Y-8528484D02*
X4370063Y-8518960D01*
X4370063Y-8518960D02*
X4360539Y-8509436D01*
X4360539Y-8509436D02*
X4351015Y-8490389D01*
X4351015Y-8490389D02*
X4351015Y-8433246D01*
X4351015Y-8433246D02*
X4360539Y-8414198D01*
X4360539Y-8414198D02*
X4370063Y-8404674D01*
X4370063Y-8404674D02*
X4389111Y-8395150D01*
X4389111Y-8395150D02*
X4417682Y-8395150D01*
X4417682Y-8395150D02*
X4436730Y-8404674D01*
X4436730Y-8404674D02*
X4446253Y-8414198D01*
X4446253Y-8414198D02*
X4455777Y-8433246D01*
X4455777Y-8433246D02*
X4455777Y-8490389D01*
X4455777Y-8490389D02*
X4446253Y-8509436D01*
X4446253Y-8509436D02*
X4436730Y-8518960D01*
X4436730Y-8518960D02*
X4417682Y-8528484D01*
X4417682Y-8528484D02*
X4389111Y-8528484D01*
X4570063Y-8528484D02*
X4551015Y-8518960D01*
X4551015Y-8518960D02*
X4541492Y-8499912D01*
X4541492Y-8499912D02*
X4541492Y-8328484D01*
X4722444Y-8518960D02*
X4703396Y-8528484D01*
X4703396Y-8528484D02*
X4665301Y-8528484D01*
X4665301Y-8528484D02*
X4646253Y-8518960D01*
X4646253Y-8518960D02*
X4636730Y-8499912D01*
X4636730Y-8499912D02*
X4636730Y-8423722D01*
X4636730Y-8423722D02*
X4646253Y-8404674D01*
X4646253Y-8404674D02*
X4665301Y-8395150D01*
X4665301Y-8395150D02*
X4703396Y-8395150D01*
X4703396Y-8395150D02*
X4722444Y-8404674D01*
X4722444Y-8404674D02*
X4731968Y-8423722D01*
X4731968Y-8423722D02*
X4731968Y-8442770D01*
X4731968Y-8442770D02*
X4636730Y-8461817D01*
X4808158Y-8518960D02*
X4827206Y-8528484D01*
X4827206Y-8528484D02*
X4865301Y-8528484D01*
X4865301Y-8528484D02*
X4884349Y-8518960D01*
X4884349Y-8518960D02*
X4893873Y-8499912D01*
X4893873Y-8499912D02*
X4893873Y-8490389D01*
X4893873Y-8490389D02*
X4884349Y-8471341D01*
X4884349Y-8471341D02*
X4865301Y-8461817D01*
X4865301Y-8461817D02*
X4836730Y-8461817D01*
X4836730Y-8461817D02*
X4817682Y-8452293D01*
X4817682Y-8452293D02*
X4808158Y-8433246D01*
X4808158Y-8433246D02*
X4808158Y-8423722D01*
X4808158Y-8423722D02*
X4817682Y-8404674D01*
X4817682Y-8404674D02*
X4836730Y-8395150D01*
X4836730Y-8395150D02*
X4865301Y-8395150D01*
X4865301Y-8395150D02*
X4884349Y-8404674D01*
X4960539Y-8604674D02*
X4970063Y-8595150D01*
X4970063Y-8595150D02*
X4989111Y-8566579D01*
X4989111Y-8566579D02*
X4998634Y-8547531D01*
X4998634Y-8547531D02*
X5008158Y-8518960D01*
X5008158Y-8518960D02*
X5017682Y-8471341D01*
X5017682Y-8471341D02*
X5017682Y-8433246D01*
X5017682Y-8433246D02*
X5008158Y-8385627D01*
X5008158Y-8385627D02*
X4998634Y-8357055D01*
X4998634Y-8357055D02*
X4989111Y-8338008D01*
X4989111Y-8338008D02*
X4970063Y-8309436D01*
X4970063Y-8309436D02*
X4960539Y-8299912D01*
M02*
