%TF.GenerationSoftware,KiCad,Pcbnew,10.0.3*%
%TF.CreationDate,2026-08-06T20:56:13+12:00*%
%TF.ProjectId,rcm,72636d2e-6b69-4636-9164-5f7063625858,A*%
%TF.SameCoordinates,Original*%
%TF.FileFunction,Drillmap*%
%TF.FilePolarity,Positive*%
%FSLAX45Y45*%
G04 Gerber Fmt 4.5, Leading zero omitted, Abs format (unit mm)*
G04 Created by KiCad (PCBNEW 10.0.3) date 2026-08-06 20:56:13*
%MOMM*%
%LPD*%
G01*
G04 APERTURE LIST*
%ADD10C,0.100000*%
%ADD11C,0.200000*%
%ADD12C,0.320000*%
G04 APERTURE END LIST*
D10*
X0Y-300000D02*
G75*
G02*
X300000Y0I300000J0D01*
G01*
X0Y-6700000D02*
X0Y-300000D01*
X300000Y0D02*
X13700000Y0D01*
X300000Y-7000000D02*
G75*
G02*
X0Y-6700000I0J300000D01*
G01*
X13700000Y0D02*
G75*
G02*
X14000000Y-300000I0J-300000D01*
G01*
X13700000Y-7000000D02*
X300000Y-7000000D01*
X14000000Y-300000D02*
X14000000Y-6700000D01*
X14000000Y-6700000D02*
G75*
G02*
X13700000Y-7000000I-300000J0D01*
G01*
D11*
D10*
X13287000Y-1678500D02*
X13352000Y-1743500D01*
X13352000Y-1678500D02*
X13287000Y-1743500D01*
X13287000Y-2256500D02*
X13352000Y-2321500D01*
X13352000Y-2256500D02*
X13287000Y-2321500D01*
D12*
X660000Y-500000D02*
G75*
G02*
X340000Y-500000I-160000J0D01*
G01*
X340000Y-500000D02*
G75*
G02*
X660000Y-500000I160000J0D01*
G01*
X660000Y-6500000D02*
G75*
G02*
X340000Y-6500000I-160000J0D01*
G01*
X340000Y-6500000D02*
G75*
G02*
X660000Y-6500000I160000J0D01*
G01*
X13660000Y-500000D02*
G75*
G02*
X13340000Y-500000I-160000J0D01*
G01*
X13340000Y-500000D02*
G75*
G02*
X13660000Y-500000I160000J0D01*
G01*
X13660000Y-6500000D02*
G75*
G02*
X13340000Y-6500000I-160000J0D01*
G01*
X13340000Y-6500000D02*
G75*
G02*
X13660000Y-6500000I160000J0D01*
G01*
D11*
X255777Y-7316484D02*
X255777Y-7116484D01*
X255777Y-7116484D02*
X303396Y-7116484D01*
X303396Y-7116484D02*
X331967Y-7126008D01*
X331967Y-7126008D02*
X351015Y-7145055D01*
X351015Y-7145055D02*
X360539Y-7164103D01*
X360539Y-7164103D02*
X370062Y-7202198D01*
X370062Y-7202198D02*
X370062Y-7230769D01*
X370062Y-7230769D02*
X360539Y-7268865D01*
X360539Y-7268865D02*
X351015Y-7287912D01*
X351015Y-7287912D02*
X331967Y-7306960D01*
X331967Y-7306960D02*
X303396Y-7316484D01*
X303396Y-7316484D02*
X255777Y-7316484D01*
X455777Y-7316484D02*
X455777Y-7183150D01*
X455777Y-7221246D02*
X465301Y-7202198D01*
X465301Y-7202198D02*
X474824Y-7192674D01*
X474824Y-7192674D02*
X493872Y-7183150D01*
X493872Y-7183150D02*
X512920Y-7183150D01*
X579586Y-7316484D02*
X579586Y-7183150D01*
X579586Y-7116484D02*
X570063Y-7126008D01*
X570063Y-7126008D02*
X579586Y-7135531D01*
X579586Y-7135531D02*
X589110Y-7126008D01*
X589110Y-7126008D02*
X579586Y-7116484D01*
X579586Y-7116484D02*
X579586Y-7135531D01*
X703396Y-7316484D02*
X684348Y-7306960D01*
X684348Y-7306960D02*
X674824Y-7287912D01*
X674824Y-7287912D02*
X674824Y-7116484D01*
X808158Y-7316484D02*
X789110Y-7306960D01*
X789110Y-7306960D02*
X779586Y-7287912D01*
X779586Y-7287912D02*
X779586Y-7116484D01*
X1036729Y-7316484D02*
X1036729Y-7116484D01*
X1036729Y-7116484D02*
X1103396Y-7259341D01*
X1103396Y-7259341D02*
X1170063Y-7116484D01*
X1170063Y-7116484D02*
X1170063Y-7316484D01*
X1351015Y-7316484D02*
X1351015Y-7211722D01*
X1351015Y-7211722D02*
X1341491Y-7192674D01*
X1341491Y-7192674D02*
X1322444Y-7183150D01*
X1322444Y-7183150D02*
X1284348Y-7183150D01*
X1284348Y-7183150D02*
X1265301Y-7192674D01*
X1351015Y-7306960D02*
X1331967Y-7316484D01*
X1331967Y-7316484D02*
X1284348Y-7316484D01*
X1284348Y-7316484D02*
X1265301Y-7306960D01*
X1265301Y-7306960D02*
X1255777Y-7287912D01*
X1255777Y-7287912D02*
X1255777Y-7268865D01*
X1255777Y-7268865D02*
X1265301Y-7249817D01*
X1265301Y-7249817D02*
X1284348Y-7240293D01*
X1284348Y-7240293D02*
X1331967Y-7240293D01*
X1331967Y-7240293D02*
X1351015Y-7230769D01*
X1446253Y-7183150D02*
X1446253Y-7383150D01*
X1446253Y-7192674D02*
X1465301Y-7183150D01*
X1465301Y-7183150D02*
X1503396Y-7183150D01*
X1503396Y-7183150D02*
X1522443Y-7192674D01*
X1522443Y-7192674D02*
X1531967Y-7202198D01*
X1531967Y-7202198D02*
X1541491Y-7221246D01*
X1541491Y-7221246D02*
X1541491Y-7278388D01*
X1541491Y-7278388D02*
X1531967Y-7297436D01*
X1531967Y-7297436D02*
X1522443Y-7306960D01*
X1522443Y-7306960D02*
X1503396Y-7316484D01*
X1503396Y-7316484D02*
X1465301Y-7316484D01*
X1465301Y-7316484D02*
X1446253Y-7306960D01*
X1627205Y-7297436D02*
X1636729Y-7306960D01*
X1636729Y-7306960D02*
X1627205Y-7316484D01*
X1627205Y-7316484D02*
X1617682Y-7306960D01*
X1617682Y-7306960D02*
X1627205Y-7297436D01*
X1627205Y-7297436D02*
X1627205Y-7316484D01*
X1627205Y-7192674D02*
X1636729Y-7202198D01*
X1636729Y-7202198D02*
X1627205Y-7211722D01*
X1627205Y-7211722D02*
X1617682Y-7202198D01*
X1617682Y-7202198D02*
X1627205Y-7192674D01*
X1627205Y-7192674D02*
X1627205Y-7211722D01*
D10*
X-70000Y-7612500D02*
X-5000Y-7677500D01*
X-5000Y-7612500D02*
X-70000Y-7677500D01*
D11*
X293872Y-7536484D02*
X312920Y-7536484D01*
X312920Y-7536484D02*
X331967Y-7546008D01*
X331967Y-7546008D02*
X341491Y-7555531D01*
X341491Y-7555531D02*
X351015Y-7574579D01*
X351015Y-7574579D02*
X360539Y-7612674D01*
X360539Y-7612674D02*
X360539Y-7660293D01*
X360539Y-7660293D02*
X351015Y-7698388D01*
X351015Y-7698388D02*
X341491Y-7717436D01*
X341491Y-7717436D02*
X331967Y-7726960D01*
X331967Y-7726960D02*
X312920Y-7736484D01*
X312920Y-7736484D02*
X293872Y-7736484D01*
X293872Y-7736484D02*
X274824Y-7726960D01*
X274824Y-7726960D02*
X265301Y-7717436D01*
X265301Y-7717436D02*
X255777Y-7698388D01*
X255777Y-7698388D02*
X246253Y-7660293D01*
X246253Y-7660293D02*
X246253Y-7612674D01*
X246253Y-7612674D02*
X255777Y-7574579D01*
X255777Y-7574579D02*
X265301Y-7555531D01*
X265301Y-7555531D02*
X274824Y-7546008D01*
X274824Y-7546008D02*
X293872Y-7536484D01*
X446253Y-7717436D02*
X455777Y-7726960D01*
X455777Y-7726960D02*
X446253Y-7736484D01*
X446253Y-7736484D02*
X436729Y-7726960D01*
X436729Y-7726960D02*
X446253Y-7717436D01*
X446253Y-7717436D02*
X446253Y-7736484D01*
X627205Y-7536484D02*
X589110Y-7536484D01*
X589110Y-7536484D02*
X570063Y-7546008D01*
X570063Y-7546008D02*
X560539Y-7555531D01*
X560539Y-7555531D02*
X541491Y-7584103D01*
X541491Y-7584103D02*
X531967Y-7622198D01*
X531967Y-7622198D02*
X531967Y-7698388D01*
X531967Y-7698388D02*
X541491Y-7717436D01*
X541491Y-7717436D02*
X551015Y-7726960D01*
X551015Y-7726960D02*
X570063Y-7736484D01*
X570063Y-7736484D02*
X608158Y-7736484D01*
X608158Y-7736484D02*
X627205Y-7726960D01*
X627205Y-7726960D02*
X636729Y-7717436D01*
X636729Y-7717436D02*
X646253Y-7698388D01*
X646253Y-7698388D02*
X646253Y-7650769D01*
X646253Y-7650769D02*
X636729Y-7631722D01*
X636729Y-7631722D02*
X627205Y-7622198D01*
X627205Y-7622198D02*
X608158Y-7612674D01*
X608158Y-7612674D02*
X570063Y-7612674D01*
X570063Y-7612674D02*
X551015Y-7622198D01*
X551015Y-7622198D02*
X541491Y-7631722D01*
X541491Y-7631722D02*
X531967Y-7650769D01*
X827205Y-7536484D02*
X731967Y-7536484D01*
X731967Y-7536484D02*
X722443Y-7631722D01*
X722443Y-7631722D02*
X731967Y-7622198D01*
X731967Y-7622198D02*
X751015Y-7612674D01*
X751015Y-7612674D02*
X798634Y-7612674D01*
X798634Y-7612674D02*
X817682Y-7622198D01*
X817682Y-7622198D02*
X827205Y-7631722D01*
X827205Y-7631722D02*
X836729Y-7650769D01*
X836729Y-7650769D02*
X836729Y-7698388D01*
X836729Y-7698388D02*
X827205Y-7717436D01*
X827205Y-7717436D02*
X817682Y-7726960D01*
X817682Y-7726960D02*
X798634Y-7736484D01*
X798634Y-7736484D02*
X751015Y-7736484D01*
X751015Y-7736484D02*
X731967Y-7726960D01*
X731967Y-7726960D02*
X722443Y-7717436D01*
X960539Y-7536484D02*
X979586Y-7536484D01*
X979586Y-7536484D02*
X998634Y-7546008D01*
X998634Y-7546008D02*
X1008158Y-7555531D01*
X1008158Y-7555531D02*
X1017682Y-7574579D01*
X1017682Y-7574579D02*
X1027205Y-7612674D01*
X1027205Y-7612674D02*
X1027205Y-7660293D01*
X1027205Y-7660293D02*
X1017682Y-7698388D01*
X1017682Y-7698388D02*
X1008158Y-7717436D01*
X1008158Y-7717436D02*
X998634Y-7726960D01*
X998634Y-7726960D02*
X979586Y-7736484D01*
X979586Y-7736484D02*
X960539Y-7736484D01*
X960539Y-7736484D02*
X941491Y-7726960D01*
X941491Y-7726960D02*
X931967Y-7717436D01*
X931967Y-7717436D02*
X922443Y-7698388D01*
X922443Y-7698388D02*
X912920Y-7660293D01*
X912920Y-7660293D02*
X912920Y-7612674D01*
X912920Y-7612674D02*
X922443Y-7574579D01*
X922443Y-7574579D02*
X931967Y-7555531D01*
X931967Y-7555531D02*
X941491Y-7546008D01*
X941491Y-7546008D02*
X960539Y-7536484D01*
X1112920Y-7736484D02*
X1112920Y-7603150D01*
X1112920Y-7622198D02*
X1122444Y-7612674D01*
X1122444Y-7612674D02*
X1141491Y-7603150D01*
X1141491Y-7603150D02*
X1170063Y-7603150D01*
X1170063Y-7603150D02*
X1189110Y-7612674D01*
X1189110Y-7612674D02*
X1198634Y-7631722D01*
X1198634Y-7631722D02*
X1198634Y-7736484D01*
X1198634Y-7631722D02*
X1208158Y-7612674D01*
X1208158Y-7612674D02*
X1227205Y-7603150D01*
X1227205Y-7603150D02*
X1255777Y-7603150D01*
X1255777Y-7603150D02*
X1274825Y-7612674D01*
X1274825Y-7612674D02*
X1284348Y-7631722D01*
X1284348Y-7631722D02*
X1284348Y-7736484D01*
X1379586Y-7736484D02*
X1379586Y-7603150D01*
X1379586Y-7622198D02*
X1389110Y-7612674D01*
X1389110Y-7612674D02*
X1408158Y-7603150D01*
X1408158Y-7603150D02*
X1436729Y-7603150D01*
X1436729Y-7603150D02*
X1455777Y-7612674D01*
X1455777Y-7612674D02*
X1465301Y-7631722D01*
X1465301Y-7631722D02*
X1465301Y-7736484D01*
X1465301Y-7631722D02*
X1474824Y-7612674D01*
X1474824Y-7612674D02*
X1493872Y-7603150D01*
X1493872Y-7603150D02*
X1522443Y-7603150D01*
X1522443Y-7603150D02*
X1541491Y-7612674D01*
X1541491Y-7612674D02*
X1551015Y-7631722D01*
X1551015Y-7631722D02*
X1551015Y-7736484D01*
X1941491Y-7526960D02*
X1770063Y-7784103D01*
X2198634Y-7536484D02*
X2217682Y-7536484D01*
X2217682Y-7536484D02*
X2236729Y-7546008D01*
X2236729Y-7546008D02*
X2246253Y-7555531D01*
X2246253Y-7555531D02*
X2255777Y-7574579D01*
X2255777Y-7574579D02*
X2265301Y-7612674D01*
X2265301Y-7612674D02*
X2265301Y-7660293D01*
X2265301Y-7660293D02*
X2255777Y-7698388D01*
X2255777Y-7698388D02*
X2246253Y-7717436D01*
X2246253Y-7717436D02*
X2236729Y-7726960D01*
X2236729Y-7726960D02*
X2217682Y-7736484D01*
X2217682Y-7736484D02*
X2198634Y-7736484D01*
X2198634Y-7736484D02*
X2179587Y-7726960D01*
X2179587Y-7726960D02*
X2170063Y-7717436D01*
X2170063Y-7717436D02*
X2160539Y-7698388D01*
X2160539Y-7698388D02*
X2151015Y-7660293D01*
X2151015Y-7660293D02*
X2151015Y-7612674D01*
X2151015Y-7612674D02*
X2160539Y-7574579D01*
X2160539Y-7574579D02*
X2170063Y-7555531D01*
X2170063Y-7555531D02*
X2179587Y-7546008D01*
X2179587Y-7546008D02*
X2198634Y-7536484D01*
X2351015Y-7717436D02*
X2360539Y-7726960D01*
X2360539Y-7726960D02*
X2351015Y-7736484D01*
X2351015Y-7736484D02*
X2341491Y-7726960D01*
X2341491Y-7726960D02*
X2351015Y-7717436D01*
X2351015Y-7717436D02*
X2351015Y-7736484D01*
X2484348Y-7536484D02*
X2503396Y-7536484D01*
X2503396Y-7536484D02*
X2522444Y-7546008D01*
X2522444Y-7546008D02*
X2531968Y-7555531D01*
X2531968Y-7555531D02*
X2541491Y-7574579D01*
X2541491Y-7574579D02*
X2551015Y-7612674D01*
X2551015Y-7612674D02*
X2551015Y-7660293D01*
X2551015Y-7660293D02*
X2541491Y-7698388D01*
X2541491Y-7698388D02*
X2531968Y-7717436D01*
X2531968Y-7717436D02*
X2522444Y-7726960D01*
X2522444Y-7726960D02*
X2503396Y-7736484D01*
X2503396Y-7736484D02*
X2484348Y-7736484D01*
X2484348Y-7736484D02*
X2465301Y-7726960D01*
X2465301Y-7726960D02*
X2455777Y-7717436D01*
X2455777Y-7717436D02*
X2446253Y-7698388D01*
X2446253Y-7698388D02*
X2436729Y-7660293D01*
X2436729Y-7660293D02*
X2436729Y-7612674D01*
X2436729Y-7612674D02*
X2446253Y-7574579D01*
X2446253Y-7574579D02*
X2455777Y-7555531D01*
X2455777Y-7555531D02*
X2465301Y-7546008D01*
X2465301Y-7546008D02*
X2484348Y-7536484D01*
X2627206Y-7555531D02*
X2636729Y-7546008D01*
X2636729Y-7546008D02*
X2655777Y-7536484D01*
X2655777Y-7536484D02*
X2703396Y-7536484D01*
X2703396Y-7536484D02*
X2722444Y-7546008D01*
X2722444Y-7546008D02*
X2731968Y-7555531D01*
X2731968Y-7555531D02*
X2741491Y-7574579D01*
X2741491Y-7574579D02*
X2741491Y-7593627D01*
X2741491Y-7593627D02*
X2731968Y-7622198D01*
X2731968Y-7622198D02*
X2617682Y-7736484D01*
X2617682Y-7736484D02*
X2741491Y-7736484D01*
X2922444Y-7536484D02*
X2827206Y-7536484D01*
X2827206Y-7536484D02*
X2817682Y-7631722D01*
X2817682Y-7631722D02*
X2827206Y-7622198D01*
X2827206Y-7622198D02*
X2846253Y-7612674D01*
X2846253Y-7612674D02*
X2893872Y-7612674D01*
X2893872Y-7612674D02*
X2912920Y-7622198D01*
X2912920Y-7622198D02*
X2922444Y-7631722D01*
X2922444Y-7631722D02*
X2931967Y-7650769D01*
X2931967Y-7650769D02*
X2931967Y-7698388D01*
X2931967Y-7698388D02*
X2922444Y-7717436D01*
X2922444Y-7717436D02*
X2912920Y-7726960D01*
X2912920Y-7726960D02*
X2893872Y-7736484D01*
X2893872Y-7736484D02*
X2846253Y-7736484D01*
X2846253Y-7736484D02*
X2827206Y-7726960D01*
X2827206Y-7726960D02*
X2817682Y-7717436D01*
X3103396Y-7536484D02*
X3065301Y-7536484D01*
X3065301Y-7536484D02*
X3046253Y-7546008D01*
X3046253Y-7546008D02*
X3036729Y-7555531D01*
X3036729Y-7555531D02*
X3017682Y-7584103D01*
X3017682Y-7584103D02*
X3008158Y-7622198D01*
X3008158Y-7622198D02*
X3008158Y-7698388D01*
X3008158Y-7698388D02*
X3017682Y-7717436D01*
X3017682Y-7717436D02*
X3027206Y-7726960D01*
X3027206Y-7726960D02*
X3046253Y-7736484D01*
X3046253Y-7736484D02*
X3084348Y-7736484D01*
X3084348Y-7736484D02*
X3103396Y-7726960D01*
X3103396Y-7726960D02*
X3112920Y-7717436D01*
X3112920Y-7717436D02*
X3122444Y-7698388D01*
X3122444Y-7698388D02*
X3122444Y-7650769D01*
X3122444Y-7650769D02*
X3112920Y-7631722D01*
X3112920Y-7631722D02*
X3103396Y-7622198D01*
X3103396Y-7622198D02*
X3084348Y-7612674D01*
X3084348Y-7612674D02*
X3046253Y-7612674D01*
X3046253Y-7612674D02*
X3027206Y-7622198D01*
X3027206Y-7622198D02*
X3017682Y-7631722D01*
X3017682Y-7631722D02*
X3008158Y-7650769D01*
X3198634Y-7536484D02*
X3198634Y-7574579D01*
X3274825Y-7536484D02*
X3274825Y-7574579D01*
X3570063Y-7812674D02*
X3560539Y-7803150D01*
X3560539Y-7803150D02*
X3541491Y-7774579D01*
X3541491Y-7774579D02*
X3531968Y-7755531D01*
X3531968Y-7755531D02*
X3522444Y-7726960D01*
X3522444Y-7726960D02*
X3512920Y-7679341D01*
X3512920Y-7679341D02*
X3512920Y-7641246D01*
X3512920Y-7641246D02*
X3522444Y-7593627D01*
X3522444Y-7593627D02*
X3531968Y-7565055D01*
X3531968Y-7565055D02*
X3541491Y-7546008D01*
X3541491Y-7546008D02*
X3560539Y-7517436D01*
X3560539Y-7517436D02*
X3570063Y-7507912D01*
X3636729Y-7555531D02*
X3646253Y-7546008D01*
X3646253Y-7546008D02*
X3665301Y-7536484D01*
X3665301Y-7536484D02*
X3712920Y-7536484D01*
X3712920Y-7536484D02*
X3731968Y-7546008D01*
X3731968Y-7546008D02*
X3741491Y-7555531D01*
X3741491Y-7555531D02*
X3751015Y-7574579D01*
X3751015Y-7574579D02*
X3751015Y-7593627D01*
X3751015Y-7593627D02*
X3741491Y-7622198D01*
X3741491Y-7622198D02*
X3627206Y-7736484D01*
X3627206Y-7736484D02*
X3751015Y-7736484D01*
X3989110Y-7736484D02*
X3989110Y-7536484D01*
X4074825Y-7736484D02*
X4074825Y-7631722D01*
X4074825Y-7631722D02*
X4065301Y-7612674D01*
X4065301Y-7612674D02*
X4046253Y-7603150D01*
X4046253Y-7603150D02*
X4017682Y-7603150D01*
X4017682Y-7603150D02*
X3998634Y-7612674D01*
X3998634Y-7612674D02*
X3989110Y-7622198D01*
X4198634Y-7736484D02*
X4179587Y-7726960D01*
X4179587Y-7726960D02*
X4170063Y-7717436D01*
X4170063Y-7717436D02*
X4160539Y-7698388D01*
X4160539Y-7698388D02*
X4160539Y-7641246D01*
X4160539Y-7641246D02*
X4170063Y-7622198D01*
X4170063Y-7622198D02*
X4179587Y-7612674D01*
X4179587Y-7612674D02*
X4198634Y-7603150D01*
X4198634Y-7603150D02*
X4227206Y-7603150D01*
X4227206Y-7603150D02*
X4246253Y-7612674D01*
X4246253Y-7612674D02*
X4255777Y-7622198D01*
X4255777Y-7622198D02*
X4265301Y-7641246D01*
X4265301Y-7641246D02*
X4265301Y-7698388D01*
X4265301Y-7698388D02*
X4255777Y-7717436D01*
X4255777Y-7717436D02*
X4246253Y-7726960D01*
X4246253Y-7726960D02*
X4227206Y-7736484D01*
X4227206Y-7736484D02*
X4198634Y-7736484D01*
X4379587Y-7736484D02*
X4360539Y-7726960D01*
X4360539Y-7726960D02*
X4351015Y-7707912D01*
X4351015Y-7707912D02*
X4351015Y-7536484D01*
X4531968Y-7726960D02*
X4512920Y-7736484D01*
X4512920Y-7736484D02*
X4474825Y-7736484D01*
X4474825Y-7736484D02*
X4455777Y-7726960D01*
X4455777Y-7726960D02*
X4446253Y-7707912D01*
X4446253Y-7707912D02*
X4446253Y-7631722D01*
X4446253Y-7631722D02*
X4455777Y-7612674D01*
X4455777Y-7612674D02*
X4474825Y-7603150D01*
X4474825Y-7603150D02*
X4512920Y-7603150D01*
X4512920Y-7603150D02*
X4531968Y-7612674D01*
X4531968Y-7612674D02*
X4541492Y-7631722D01*
X4541492Y-7631722D02*
X4541492Y-7650769D01*
X4541492Y-7650769D02*
X4446253Y-7669817D01*
X4617682Y-7726960D02*
X4636730Y-7736484D01*
X4636730Y-7736484D02*
X4674825Y-7736484D01*
X4674825Y-7736484D02*
X4693873Y-7726960D01*
X4693873Y-7726960D02*
X4703396Y-7707912D01*
X4703396Y-7707912D02*
X4703396Y-7698388D01*
X4703396Y-7698388D02*
X4693873Y-7679341D01*
X4693873Y-7679341D02*
X4674825Y-7669817D01*
X4674825Y-7669817D02*
X4646253Y-7669817D01*
X4646253Y-7669817D02*
X4627206Y-7660293D01*
X4627206Y-7660293D02*
X4617682Y-7641246D01*
X4617682Y-7641246D02*
X4617682Y-7631722D01*
X4617682Y-7631722D02*
X4627206Y-7612674D01*
X4627206Y-7612674D02*
X4646253Y-7603150D01*
X4646253Y-7603150D02*
X4674825Y-7603150D01*
X4674825Y-7603150D02*
X4693873Y-7612674D01*
X4770063Y-7812674D02*
X4779587Y-7803150D01*
X4779587Y-7803150D02*
X4798634Y-7774579D01*
X4798634Y-7774579D02*
X4808158Y-7755531D01*
X4808158Y-7755531D02*
X4817682Y-7726960D01*
X4817682Y-7726960D02*
X4827206Y-7679341D01*
X4827206Y-7679341D02*
X4827206Y-7641246D01*
X4827206Y-7641246D02*
X4817682Y-7593627D01*
X4817682Y-7593627D02*
X4808158Y-7565055D01*
X4808158Y-7565055D02*
X4798634Y-7546008D01*
X4798634Y-7546008D02*
X4779587Y-7517436D01*
X4779587Y-7517436D02*
X4770063Y-7507912D01*
X5131968Y-7812674D02*
X5122444Y-7803150D01*
X5122444Y-7803150D02*
X5103396Y-7774579D01*
X5103396Y-7774579D02*
X5093873Y-7755531D01*
X5093873Y-7755531D02*
X5084349Y-7726960D01*
X5084349Y-7726960D02*
X5074825Y-7679341D01*
X5074825Y-7679341D02*
X5074825Y-7641246D01*
X5074825Y-7641246D02*
X5084349Y-7593627D01*
X5084349Y-7593627D02*
X5093873Y-7565055D01*
X5093873Y-7565055D02*
X5103396Y-7546008D01*
X5103396Y-7546008D02*
X5122444Y-7517436D01*
X5122444Y-7517436D02*
X5131968Y-7507912D01*
X5208158Y-7603150D02*
X5208158Y-7736484D01*
X5208158Y-7622198D02*
X5217682Y-7612674D01*
X5217682Y-7612674D02*
X5236730Y-7603150D01*
X5236730Y-7603150D02*
X5265301Y-7603150D01*
X5265301Y-7603150D02*
X5284349Y-7612674D01*
X5284349Y-7612674D02*
X5293873Y-7631722D01*
X5293873Y-7631722D02*
X5293873Y-7736484D01*
X5417682Y-7736484D02*
X5398634Y-7726960D01*
X5398634Y-7726960D02*
X5389111Y-7717436D01*
X5389111Y-7717436D02*
X5379587Y-7698388D01*
X5379587Y-7698388D02*
X5379587Y-7641246D01*
X5379587Y-7641246D02*
X5389111Y-7622198D01*
X5389111Y-7622198D02*
X5398634Y-7612674D01*
X5398634Y-7612674D02*
X5417682Y-7603150D01*
X5417682Y-7603150D02*
X5446254Y-7603150D01*
X5446254Y-7603150D02*
X5465301Y-7612674D01*
X5465301Y-7612674D02*
X5474825Y-7622198D01*
X5474825Y-7622198D02*
X5484349Y-7641246D01*
X5484349Y-7641246D02*
X5484349Y-7698388D01*
X5484349Y-7698388D02*
X5474825Y-7717436D01*
X5474825Y-7717436D02*
X5465301Y-7726960D01*
X5465301Y-7726960D02*
X5446254Y-7736484D01*
X5446254Y-7736484D02*
X5417682Y-7736484D01*
X5541492Y-7603150D02*
X5617682Y-7603150D01*
X5570063Y-7536484D02*
X5570063Y-7707912D01*
X5570063Y-7707912D02*
X5579587Y-7726960D01*
X5579587Y-7726960D02*
X5598634Y-7736484D01*
X5598634Y-7736484D02*
X5617682Y-7736484D01*
X5836730Y-7603150D02*
X5836730Y-7803150D01*
X5836730Y-7612674D02*
X5855777Y-7603150D01*
X5855777Y-7603150D02*
X5893873Y-7603150D01*
X5893873Y-7603150D02*
X5912920Y-7612674D01*
X5912920Y-7612674D02*
X5922444Y-7622198D01*
X5922444Y-7622198D02*
X5931968Y-7641246D01*
X5931968Y-7641246D02*
X5931968Y-7698388D01*
X5931968Y-7698388D02*
X5922444Y-7717436D01*
X5922444Y-7717436D02*
X5912920Y-7726960D01*
X5912920Y-7726960D02*
X5893873Y-7736484D01*
X5893873Y-7736484D02*
X5855777Y-7736484D01*
X5855777Y-7736484D02*
X5836730Y-7726960D01*
X6046253Y-7736484D02*
X6027206Y-7726960D01*
X6027206Y-7726960D02*
X6017682Y-7707912D01*
X6017682Y-7707912D02*
X6017682Y-7536484D01*
X6208158Y-7736484D02*
X6208158Y-7631722D01*
X6208158Y-7631722D02*
X6198634Y-7612674D01*
X6198634Y-7612674D02*
X6179587Y-7603150D01*
X6179587Y-7603150D02*
X6141492Y-7603150D01*
X6141492Y-7603150D02*
X6122444Y-7612674D01*
X6208158Y-7726960D02*
X6189111Y-7736484D01*
X6189111Y-7736484D02*
X6141492Y-7736484D01*
X6141492Y-7736484D02*
X6122444Y-7726960D01*
X6122444Y-7726960D02*
X6112920Y-7707912D01*
X6112920Y-7707912D02*
X6112920Y-7688865D01*
X6112920Y-7688865D02*
X6122444Y-7669817D01*
X6122444Y-7669817D02*
X6141492Y-7660293D01*
X6141492Y-7660293D02*
X6189111Y-7660293D01*
X6189111Y-7660293D02*
X6208158Y-7650769D01*
X6274825Y-7603150D02*
X6351015Y-7603150D01*
X6303396Y-7536484D02*
X6303396Y-7707912D01*
X6303396Y-7707912D02*
X6312920Y-7726960D01*
X6312920Y-7726960D02*
X6331968Y-7736484D01*
X6331968Y-7736484D02*
X6351015Y-7736484D01*
X6493873Y-7726960D02*
X6474825Y-7736484D01*
X6474825Y-7736484D02*
X6436730Y-7736484D01*
X6436730Y-7736484D02*
X6417682Y-7726960D01*
X6417682Y-7726960D02*
X6408158Y-7707912D01*
X6408158Y-7707912D02*
X6408158Y-7631722D01*
X6408158Y-7631722D02*
X6417682Y-7612674D01*
X6417682Y-7612674D02*
X6436730Y-7603150D01*
X6436730Y-7603150D02*
X6474825Y-7603150D01*
X6474825Y-7603150D02*
X6493873Y-7612674D01*
X6493873Y-7612674D02*
X6503396Y-7631722D01*
X6503396Y-7631722D02*
X6503396Y-7650769D01*
X6503396Y-7650769D02*
X6408158Y-7669817D01*
X6674825Y-7736484D02*
X6674825Y-7536484D01*
X6674825Y-7726960D02*
X6655777Y-7736484D01*
X6655777Y-7736484D02*
X6617682Y-7736484D01*
X6617682Y-7736484D02*
X6598634Y-7726960D01*
X6598634Y-7726960D02*
X6589111Y-7717436D01*
X6589111Y-7717436D02*
X6579587Y-7698388D01*
X6579587Y-7698388D02*
X6579587Y-7641246D01*
X6579587Y-7641246D02*
X6589111Y-7622198D01*
X6589111Y-7622198D02*
X6598634Y-7612674D01*
X6598634Y-7612674D02*
X6617682Y-7603150D01*
X6617682Y-7603150D02*
X6655777Y-7603150D01*
X6655777Y-7603150D02*
X6674825Y-7612674D01*
X6751015Y-7812674D02*
X6760539Y-7803150D01*
X6760539Y-7803150D02*
X6779587Y-7774579D01*
X6779587Y-7774579D02*
X6789111Y-7755531D01*
X6789111Y-7755531D02*
X6798634Y-7726960D01*
X6798634Y-7726960D02*
X6808158Y-7679341D01*
X6808158Y-7679341D02*
X6808158Y-7641246D01*
X6808158Y-7641246D02*
X6798634Y-7593627D01*
X6798634Y-7593627D02*
X6789111Y-7565055D01*
X6789111Y-7565055D02*
X6779587Y-7546008D01*
X6779587Y-7546008D02*
X6760539Y-7517436D01*
X6760539Y-7517436D02*
X6751015Y-7507912D01*
X-5000Y-7909000D02*
G75*
G02*
X-205000Y-7909000I-100000J0D01*
G01*
X-205000Y-7909000D02*
G75*
G02*
X-5000Y-7909000I100000J0D01*
G01*
X236729Y-7800484D02*
X360539Y-7800484D01*
X360539Y-7800484D02*
X293872Y-7876674D01*
X293872Y-7876674D02*
X322444Y-7876674D01*
X322444Y-7876674D02*
X341491Y-7886198D01*
X341491Y-7886198D02*
X351015Y-7895722D01*
X351015Y-7895722D02*
X360539Y-7914769D01*
X360539Y-7914769D02*
X360539Y-7962388D01*
X360539Y-7962388D02*
X351015Y-7981436D01*
X351015Y-7981436D02*
X341491Y-7990960D01*
X341491Y-7990960D02*
X322444Y-8000484D01*
X322444Y-8000484D02*
X265301Y-8000484D01*
X265301Y-8000484D02*
X246253Y-7990960D01*
X246253Y-7990960D02*
X236729Y-7981436D01*
X446253Y-7981436D02*
X455777Y-7990960D01*
X455777Y-7990960D02*
X446253Y-8000484D01*
X446253Y-8000484D02*
X436729Y-7990960D01*
X436729Y-7990960D02*
X446253Y-7981436D01*
X446253Y-7981436D02*
X446253Y-8000484D01*
X531967Y-7819531D02*
X541491Y-7810008D01*
X541491Y-7810008D02*
X560539Y-7800484D01*
X560539Y-7800484D02*
X608158Y-7800484D01*
X608158Y-7800484D02*
X627205Y-7810008D01*
X627205Y-7810008D02*
X636729Y-7819531D01*
X636729Y-7819531D02*
X646253Y-7838579D01*
X646253Y-7838579D02*
X646253Y-7857627D01*
X646253Y-7857627D02*
X636729Y-7886198D01*
X636729Y-7886198D02*
X522443Y-8000484D01*
X522443Y-8000484D02*
X646253Y-8000484D01*
X770062Y-7800484D02*
X789110Y-7800484D01*
X789110Y-7800484D02*
X808158Y-7810008D01*
X808158Y-7810008D02*
X817682Y-7819531D01*
X817682Y-7819531D02*
X827205Y-7838579D01*
X827205Y-7838579D02*
X836729Y-7876674D01*
X836729Y-7876674D02*
X836729Y-7924293D01*
X836729Y-7924293D02*
X827205Y-7962388D01*
X827205Y-7962388D02*
X817682Y-7981436D01*
X817682Y-7981436D02*
X808158Y-7990960D01*
X808158Y-7990960D02*
X789110Y-8000484D01*
X789110Y-8000484D02*
X770062Y-8000484D01*
X770062Y-8000484D02*
X751015Y-7990960D01*
X751015Y-7990960D02*
X741491Y-7981436D01*
X741491Y-7981436D02*
X731967Y-7962388D01*
X731967Y-7962388D02*
X722443Y-7924293D01*
X722443Y-7924293D02*
X722443Y-7876674D01*
X722443Y-7876674D02*
X731967Y-7838579D01*
X731967Y-7838579D02*
X741491Y-7819531D01*
X741491Y-7819531D02*
X751015Y-7810008D01*
X751015Y-7810008D02*
X770062Y-7800484D01*
X960539Y-7800484D02*
X979586Y-7800484D01*
X979586Y-7800484D02*
X998634Y-7810008D01*
X998634Y-7810008D02*
X1008158Y-7819531D01*
X1008158Y-7819531D02*
X1017682Y-7838579D01*
X1017682Y-7838579D02*
X1027205Y-7876674D01*
X1027205Y-7876674D02*
X1027205Y-7924293D01*
X1027205Y-7924293D02*
X1017682Y-7962388D01*
X1017682Y-7962388D02*
X1008158Y-7981436D01*
X1008158Y-7981436D02*
X998634Y-7990960D01*
X998634Y-7990960D02*
X979586Y-8000484D01*
X979586Y-8000484D02*
X960539Y-8000484D01*
X960539Y-8000484D02*
X941491Y-7990960D01*
X941491Y-7990960D02*
X931967Y-7981436D01*
X931967Y-7981436D02*
X922443Y-7962388D01*
X922443Y-7962388D02*
X912920Y-7924293D01*
X912920Y-7924293D02*
X912920Y-7876674D01*
X912920Y-7876674D02*
X922443Y-7838579D01*
X922443Y-7838579D02*
X931967Y-7819531D01*
X931967Y-7819531D02*
X941491Y-7810008D01*
X941491Y-7810008D02*
X960539Y-7800484D01*
X1112920Y-8000484D02*
X1112920Y-7867150D01*
X1112920Y-7886198D02*
X1122444Y-7876674D01*
X1122444Y-7876674D02*
X1141491Y-7867150D01*
X1141491Y-7867150D02*
X1170063Y-7867150D01*
X1170063Y-7867150D02*
X1189110Y-7876674D01*
X1189110Y-7876674D02*
X1198634Y-7895722D01*
X1198634Y-7895722D02*
X1198634Y-8000484D01*
X1198634Y-7895722D02*
X1208158Y-7876674D01*
X1208158Y-7876674D02*
X1227205Y-7867150D01*
X1227205Y-7867150D02*
X1255777Y-7867150D01*
X1255777Y-7867150D02*
X1274825Y-7876674D01*
X1274825Y-7876674D02*
X1284348Y-7895722D01*
X1284348Y-7895722D02*
X1284348Y-8000484D01*
X1379586Y-8000484D02*
X1379586Y-7867150D01*
X1379586Y-7886198D02*
X1389110Y-7876674D01*
X1389110Y-7876674D02*
X1408158Y-7867150D01*
X1408158Y-7867150D02*
X1436729Y-7867150D01*
X1436729Y-7867150D02*
X1455777Y-7876674D01*
X1455777Y-7876674D02*
X1465301Y-7895722D01*
X1465301Y-7895722D02*
X1465301Y-8000484D01*
X1465301Y-7895722D02*
X1474824Y-7876674D01*
X1474824Y-7876674D02*
X1493872Y-7867150D01*
X1493872Y-7867150D02*
X1522443Y-7867150D01*
X1522443Y-7867150D02*
X1541491Y-7876674D01*
X1541491Y-7876674D02*
X1551015Y-7895722D01*
X1551015Y-7895722D02*
X1551015Y-8000484D01*
X1941491Y-7790960D02*
X1770063Y-8048103D01*
X2198634Y-7800484D02*
X2217682Y-7800484D01*
X2217682Y-7800484D02*
X2236729Y-7810008D01*
X2236729Y-7810008D02*
X2246253Y-7819531D01*
X2246253Y-7819531D02*
X2255777Y-7838579D01*
X2255777Y-7838579D02*
X2265301Y-7876674D01*
X2265301Y-7876674D02*
X2265301Y-7924293D01*
X2265301Y-7924293D02*
X2255777Y-7962388D01*
X2255777Y-7962388D02*
X2246253Y-7981436D01*
X2246253Y-7981436D02*
X2236729Y-7990960D01*
X2236729Y-7990960D02*
X2217682Y-8000484D01*
X2217682Y-8000484D02*
X2198634Y-8000484D01*
X2198634Y-8000484D02*
X2179587Y-7990960D01*
X2179587Y-7990960D02*
X2170063Y-7981436D01*
X2170063Y-7981436D02*
X2160539Y-7962388D01*
X2160539Y-7962388D02*
X2151015Y-7924293D01*
X2151015Y-7924293D02*
X2151015Y-7876674D01*
X2151015Y-7876674D02*
X2160539Y-7838579D01*
X2160539Y-7838579D02*
X2170063Y-7819531D01*
X2170063Y-7819531D02*
X2179587Y-7810008D01*
X2179587Y-7810008D02*
X2198634Y-7800484D01*
X2351015Y-7981436D02*
X2360539Y-7990960D01*
X2360539Y-7990960D02*
X2351015Y-8000484D01*
X2351015Y-8000484D02*
X2341491Y-7990960D01*
X2341491Y-7990960D02*
X2351015Y-7981436D01*
X2351015Y-7981436D02*
X2351015Y-8000484D01*
X2551015Y-8000484D02*
X2436729Y-8000484D01*
X2493872Y-8000484D02*
X2493872Y-7800484D01*
X2493872Y-7800484D02*
X2474825Y-7829055D01*
X2474825Y-7829055D02*
X2455777Y-7848103D01*
X2455777Y-7848103D02*
X2436729Y-7857627D01*
X2627206Y-7819531D02*
X2636729Y-7810008D01*
X2636729Y-7810008D02*
X2655777Y-7800484D01*
X2655777Y-7800484D02*
X2703396Y-7800484D01*
X2703396Y-7800484D02*
X2722444Y-7810008D01*
X2722444Y-7810008D02*
X2731968Y-7819531D01*
X2731968Y-7819531D02*
X2741491Y-7838579D01*
X2741491Y-7838579D02*
X2741491Y-7857627D01*
X2741491Y-7857627D02*
X2731968Y-7886198D01*
X2731968Y-7886198D02*
X2617682Y-8000484D01*
X2617682Y-8000484D02*
X2741491Y-8000484D01*
X2912920Y-7800484D02*
X2874825Y-7800484D01*
X2874825Y-7800484D02*
X2855777Y-7810008D01*
X2855777Y-7810008D02*
X2846253Y-7819531D01*
X2846253Y-7819531D02*
X2827206Y-7848103D01*
X2827206Y-7848103D02*
X2817682Y-7886198D01*
X2817682Y-7886198D02*
X2817682Y-7962388D01*
X2817682Y-7962388D02*
X2827206Y-7981436D01*
X2827206Y-7981436D02*
X2836729Y-7990960D01*
X2836729Y-7990960D02*
X2855777Y-8000484D01*
X2855777Y-8000484D02*
X2893872Y-8000484D01*
X2893872Y-8000484D02*
X2912920Y-7990960D01*
X2912920Y-7990960D02*
X2922444Y-7981436D01*
X2922444Y-7981436D02*
X2931967Y-7962388D01*
X2931967Y-7962388D02*
X2931967Y-7914769D01*
X2931967Y-7914769D02*
X2922444Y-7895722D01*
X2922444Y-7895722D02*
X2912920Y-7886198D01*
X2912920Y-7886198D02*
X2893872Y-7876674D01*
X2893872Y-7876674D02*
X2855777Y-7876674D01*
X2855777Y-7876674D02*
X2836729Y-7886198D01*
X2836729Y-7886198D02*
X2827206Y-7895722D01*
X2827206Y-7895722D02*
X2817682Y-7914769D01*
X3055777Y-7800484D02*
X3074825Y-7800484D01*
X3074825Y-7800484D02*
X3093872Y-7810008D01*
X3093872Y-7810008D02*
X3103396Y-7819531D01*
X3103396Y-7819531D02*
X3112920Y-7838579D01*
X3112920Y-7838579D02*
X3122444Y-7876674D01*
X3122444Y-7876674D02*
X3122444Y-7924293D01*
X3122444Y-7924293D02*
X3112920Y-7962388D01*
X3112920Y-7962388D02*
X3103396Y-7981436D01*
X3103396Y-7981436D02*
X3093872Y-7990960D01*
X3093872Y-7990960D02*
X3074825Y-8000484D01*
X3074825Y-8000484D02*
X3055777Y-8000484D01*
X3055777Y-8000484D02*
X3036729Y-7990960D01*
X3036729Y-7990960D02*
X3027206Y-7981436D01*
X3027206Y-7981436D02*
X3017682Y-7962388D01*
X3017682Y-7962388D02*
X3008158Y-7924293D01*
X3008158Y-7924293D02*
X3008158Y-7876674D01*
X3008158Y-7876674D02*
X3017682Y-7838579D01*
X3017682Y-7838579D02*
X3027206Y-7819531D01*
X3027206Y-7819531D02*
X3036729Y-7810008D01*
X3036729Y-7810008D02*
X3055777Y-7800484D01*
X3198634Y-7800484D02*
X3198634Y-7838579D01*
X3274825Y-7800484D02*
X3274825Y-7838579D01*
X3570063Y-8076674D02*
X3560539Y-8067150D01*
X3560539Y-8067150D02*
X3541491Y-8038579D01*
X3541491Y-8038579D02*
X3531968Y-8019531D01*
X3531968Y-8019531D02*
X3522444Y-7990960D01*
X3522444Y-7990960D02*
X3512920Y-7943341D01*
X3512920Y-7943341D02*
X3512920Y-7905246D01*
X3512920Y-7905246D02*
X3522444Y-7857627D01*
X3522444Y-7857627D02*
X3531968Y-7829055D01*
X3531968Y-7829055D02*
X3541491Y-7810008D01*
X3541491Y-7810008D02*
X3560539Y-7781436D01*
X3560539Y-7781436D02*
X3570063Y-7771912D01*
X3731968Y-7867150D02*
X3731968Y-8000484D01*
X3684348Y-7790960D02*
X3636729Y-7933817D01*
X3636729Y-7933817D02*
X3760539Y-7933817D01*
X3989110Y-8000484D02*
X3989110Y-7800484D01*
X4074825Y-8000484D02*
X4074825Y-7895722D01*
X4074825Y-7895722D02*
X4065301Y-7876674D01*
X4065301Y-7876674D02*
X4046253Y-7867150D01*
X4046253Y-7867150D02*
X4017682Y-7867150D01*
X4017682Y-7867150D02*
X3998634Y-7876674D01*
X3998634Y-7876674D02*
X3989110Y-7886198D01*
X4198634Y-8000484D02*
X4179587Y-7990960D01*
X4179587Y-7990960D02*
X4170063Y-7981436D01*
X4170063Y-7981436D02*
X4160539Y-7962388D01*
X4160539Y-7962388D02*
X4160539Y-7905246D01*
X4160539Y-7905246D02*
X4170063Y-7886198D01*
X4170063Y-7886198D02*
X4179587Y-7876674D01*
X4179587Y-7876674D02*
X4198634Y-7867150D01*
X4198634Y-7867150D02*
X4227206Y-7867150D01*
X4227206Y-7867150D02*
X4246253Y-7876674D01*
X4246253Y-7876674D02*
X4255777Y-7886198D01*
X4255777Y-7886198D02*
X4265301Y-7905246D01*
X4265301Y-7905246D02*
X4265301Y-7962388D01*
X4265301Y-7962388D02*
X4255777Y-7981436D01*
X4255777Y-7981436D02*
X4246253Y-7990960D01*
X4246253Y-7990960D02*
X4227206Y-8000484D01*
X4227206Y-8000484D02*
X4198634Y-8000484D01*
X4379587Y-8000484D02*
X4360539Y-7990960D01*
X4360539Y-7990960D02*
X4351015Y-7971912D01*
X4351015Y-7971912D02*
X4351015Y-7800484D01*
X4531968Y-7990960D02*
X4512920Y-8000484D01*
X4512920Y-8000484D02*
X4474825Y-8000484D01*
X4474825Y-8000484D02*
X4455777Y-7990960D01*
X4455777Y-7990960D02*
X4446253Y-7971912D01*
X4446253Y-7971912D02*
X4446253Y-7895722D01*
X4446253Y-7895722D02*
X4455777Y-7876674D01*
X4455777Y-7876674D02*
X4474825Y-7867150D01*
X4474825Y-7867150D02*
X4512920Y-7867150D01*
X4512920Y-7867150D02*
X4531968Y-7876674D01*
X4531968Y-7876674D02*
X4541492Y-7895722D01*
X4541492Y-7895722D02*
X4541492Y-7914769D01*
X4541492Y-7914769D02*
X4446253Y-7933817D01*
X4617682Y-7990960D02*
X4636730Y-8000484D01*
X4636730Y-8000484D02*
X4674825Y-8000484D01*
X4674825Y-8000484D02*
X4693873Y-7990960D01*
X4693873Y-7990960D02*
X4703396Y-7971912D01*
X4703396Y-7971912D02*
X4703396Y-7962388D01*
X4703396Y-7962388D02*
X4693873Y-7943341D01*
X4693873Y-7943341D02*
X4674825Y-7933817D01*
X4674825Y-7933817D02*
X4646253Y-7933817D01*
X4646253Y-7933817D02*
X4627206Y-7924293D01*
X4627206Y-7924293D02*
X4617682Y-7905246D01*
X4617682Y-7905246D02*
X4617682Y-7895722D01*
X4617682Y-7895722D02*
X4627206Y-7876674D01*
X4627206Y-7876674D02*
X4646253Y-7867150D01*
X4646253Y-7867150D02*
X4674825Y-7867150D01*
X4674825Y-7867150D02*
X4693873Y-7876674D01*
X4770063Y-8076674D02*
X4779587Y-8067150D01*
X4779587Y-8067150D02*
X4798634Y-8038579D01*
X4798634Y-8038579D02*
X4808158Y-8019531D01*
X4808158Y-8019531D02*
X4817682Y-7990960D01*
X4817682Y-7990960D02*
X4827206Y-7943341D01*
X4827206Y-7943341D02*
X4827206Y-7905246D01*
X4827206Y-7905246D02*
X4817682Y-7857627D01*
X4817682Y-7857627D02*
X4808158Y-7829055D01*
X4808158Y-7829055D02*
X4798634Y-7810008D01*
X4798634Y-7810008D02*
X4779587Y-7781436D01*
X4779587Y-7781436D02*
X4770063Y-7771912D01*
X5131968Y-8076674D02*
X5122444Y-8067150D01*
X5122444Y-8067150D02*
X5103396Y-8038579D01*
X5103396Y-8038579D02*
X5093873Y-8019531D01*
X5093873Y-8019531D02*
X5084349Y-7990960D01*
X5084349Y-7990960D02*
X5074825Y-7943341D01*
X5074825Y-7943341D02*
X5074825Y-7905246D01*
X5074825Y-7905246D02*
X5084349Y-7857627D01*
X5084349Y-7857627D02*
X5093873Y-7829055D01*
X5093873Y-7829055D02*
X5103396Y-7810008D01*
X5103396Y-7810008D02*
X5122444Y-7781436D01*
X5122444Y-7781436D02*
X5131968Y-7771912D01*
X5208158Y-7867150D02*
X5208158Y-8000484D01*
X5208158Y-7886198D02*
X5217682Y-7876674D01*
X5217682Y-7876674D02*
X5236730Y-7867150D01*
X5236730Y-7867150D02*
X5265301Y-7867150D01*
X5265301Y-7867150D02*
X5284349Y-7876674D01*
X5284349Y-7876674D02*
X5293873Y-7895722D01*
X5293873Y-7895722D02*
X5293873Y-8000484D01*
X5417682Y-8000484D02*
X5398634Y-7990960D01*
X5398634Y-7990960D02*
X5389111Y-7981436D01*
X5389111Y-7981436D02*
X5379587Y-7962388D01*
X5379587Y-7962388D02*
X5379587Y-7905246D01*
X5379587Y-7905246D02*
X5389111Y-7886198D01*
X5389111Y-7886198D02*
X5398634Y-7876674D01*
X5398634Y-7876674D02*
X5417682Y-7867150D01*
X5417682Y-7867150D02*
X5446254Y-7867150D01*
X5446254Y-7867150D02*
X5465301Y-7876674D01*
X5465301Y-7876674D02*
X5474825Y-7886198D01*
X5474825Y-7886198D02*
X5484349Y-7905246D01*
X5484349Y-7905246D02*
X5484349Y-7962388D01*
X5484349Y-7962388D02*
X5474825Y-7981436D01*
X5474825Y-7981436D02*
X5465301Y-7990960D01*
X5465301Y-7990960D02*
X5446254Y-8000484D01*
X5446254Y-8000484D02*
X5417682Y-8000484D01*
X5541492Y-7867150D02*
X5617682Y-7867150D01*
X5570063Y-7800484D02*
X5570063Y-7971912D01*
X5570063Y-7971912D02*
X5579587Y-7990960D01*
X5579587Y-7990960D02*
X5598634Y-8000484D01*
X5598634Y-8000484D02*
X5617682Y-8000484D01*
X5836730Y-7867150D02*
X5836730Y-8067150D01*
X5836730Y-7876674D02*
X5855777Y-7867150D01*
X5855777Y-7867150D02*
X5893873Y-7867150D01*
X5893873Y-7867150D02*
X5912920Y-7876674D01*
X5912920Y-7876674D02*
X5922444Y-7886198D01*
X5922444Y-7886198D02*
X5931968Y-7905246D01*
X5931968Y-7905246D02*
X5931968Y-7962388D01*
X5931968Y-7962388D02*
X5922444Y-7981436D01*
X5922444Y-7981436D02*
X5912920Y-7990960D01*
X5912920Y-7990960D02*
X5893873Y-8000484D01*
X5893873Y-8000484D02*
X5855777Y-8000484D01*
X5855777Y-8000484D02*
X5836730Y-7990960D01*
X6046253Y-8000484D02*
X6027206Y-7990960D01*
X6027206Y-7990960D02*
X6017682Y-7971912D01*
X6017682Y-7971912D02*
X6017682Y-7800484D01*
X6208158Y-8000484D02*
X6208158Y-7895722D01*
X6208158Y-7895722D02*
X6198634Y-7876674D01*
X6198634Y-7876674D02*
X6179587Y-7867150D01*
X6179587Y-7867150D02*
X6141492Y-7867150D01*
X6141492Y-7867150D02*
X6122444Y-7876674D01*
X6208158Y-7990960D02*
X6189111Y-8000484D01*
X6189111Y-8000484D02*
X6141492Y-8000484D01*
X6141492Y-8000484D02*
X6122444Y-7990960D01*
X6122444Y-7990960D02*
X6112920Y-7971912D01*
X6112920Y-7971912D02*
X6112920Y-7952865D01*
X6112920Y-7952865D02*
X6122444Y-7933817D01*
X6122444Y-7933817D02*
X6141492Y-7924293D01*
X6141492Y-7924293D02*
X6189111Y-7924293D01*
X6189111Y-7924293D02*
X6208158Y-7914769D01*
X6274825Y-7867150D02*
X6351015Y-7867150D01*
X6303396Y-7800484D02*
X6303396Y-7971912D01*
X6303396Y-7971912D02*
X6312920Y-7990960D01*
X6312920Y-7990960D02*
X6331968Y-8000484D01*
X6331968Y-8000484D02*
X6351015Y-8000484D01*
X6493873Y-7990960D02*
X6474825Y-8000484D01*
X6474825Y-8000484D02*
X6436730Y-8000484D01*
X6436730Y-8000484D02*
X6417682Y-7990960D01*
X6417682Y-7990960D02*
X6408158Y-7971912D01*
X6408158Y-7971912D02*
X6408158Y-7895722D01*
X6408158Y-7895722D02*
X6417682Y-7876674D01*
X6417682Y-7876674D02*
X6436730Y-7867150D01*
X6436730Y-7867150D02*
X6474825Y-7867150D01*
X6474825Y-7867150D02*
X6493873Y-7876674D01*
X6493873Y-7876674D02*
X6503396Y-7895722D01*
X6503396Y-7895722D02*
X6503396Y-7914769D01*
X6503396Y-7914769D02*
X6408158Y-7933817D01*
X6674825Y-8000484D02*
X6674825Y-7800484D01*
X6674825Y-7990960D02*
X6655777Y-8000484D01*
X6655777Y-8000484D02*
X6617682Y-8000484D01*
X6617682Y-8000484D02*
X6598634Y-7990960D01*
X6598634Y-7990960D02*
X6589111Y-7981436D01*
X6589111Y-7981436D02*
X6579587Y-7962388D01*
X6579587Y-7962388D02*
X6579587Y-7905246D01*
X6579587Y-7905246D02*
X6589111Y-7886198D01*
X6589111Y-7886198D02*
X6598634Y-7876674D01*
X6598634Y-7876674D02*
X6617682Y-7867150D01*
X6617682Y-7867150D02*
X6655777Y-7867150D01*
X6655777Y-7867150D02*
X6674825Y-7876674D01*
X6751015Y-8076674D02*
X6760539Y-8067150D01*
X6760539Y-8067150D02*
X6779587Y-8038579D01*
X6779587Y-8038579D02*
X6789111Y-8019531D01*
X6789111Y-8019531D02*
X6798634Y-7990960D01*
X6798634Y-7990960D02*
X6808158Y-7943341D01*
X6808158Y-7943341D02*
X6808158Y-7905246D01*
X6808158Y-7905246D02*
X6798634Y-7857627D01*
X6798634Y-7857627D02*
X6789111Y-7829055D01*
X6789111Y-7829055D02*
X6779587Y-7810008D01*
X6779587Y-7810008D02*
X6760539Y-7781436D01*
X6760539Y-7781436D02*
X6751015Y-7771912D01*
M02*
