M48
; DRILL file KiCad 10.0.3 date 2026-08-06T21:59:00
; FORMAT={-:-/ absolute / metric / decimal}
; #@! TF.CreationDate,2026-08-06T21:59:00+12:00
; #@! TF.GenerationSoftware,Kicad,Pcbnew,10.0.3
; #@! TF.FileFunction,Plated,1,2,PTH
FMAT,2
METRIC
; #@! TA.AperFunction,Plated,PTH,ViaDrill
T1C0.300
; #@! TA.AperFunction,Plated,PTH,ComponentDrill
T2C0.600
; #@! TA.AperFunction,Plated,PTH,ComponentDrill
T3C1.000
; #@! TA.AperFunction,Plated,PTH,ComponentDrill
T4C1.200
%
G90
G05
T1
X4.489Y-27.773
X7.023Y-34.496
X8.275Y-16.585
X9.967Y-25.351
X12.203Y-24.503
X12.534Y-37.491
X13.065Y-39.025
X13.065Y-56.678
X13.404Y-37.725
X13.679Y-27.794
X14.229Y-36.82
X14.572Y-51.588
X15.347Y-27.941
X15.928Y-41.065
X15.939Y-39.637
X16.05Y-33.24
X16.405Y-40.325
X17.874Y-39.501
X22.786Y-36.237
X23.794Y-40.896
X24.569Y-59.176
X25.924Y-40.226
X27.216Y-39.501
X29.381Y-44.769
X29.776Y-43.596
X30.552Y-59.152
X31.359Y-36.38
X34.755Y-50.0
X35.989Y-40.993
X36.165Y-43.965
X37.594Y-56.887
X38.705Y-39.021
X38.705Y-40.962
X39.712Y-52.15
X41.838Y-44.954
X43.148Y-10.088
X44.603Y-52.25
X45.55Y-40.95
X45.927Y-39.666
X46.208Y-32.794
X49.086Y-59.0
X57.419Y-41.503
X57.587Y-57.797
X59.64Y-36.747
X59.919Y-40.975
X59.93Y-39.675
X59.985Y-11.055
X60.15Y-38.375
X61.511Y-36.747
X61.762Y-39.025
X62.077Y-34.55
X66.139Y-40.325
X66.689Y-60.052
X66.824Y-35.947
X68.05Y-12.835
X68.554Y-26.599
X69.055Y-11.055
X69.159Y-27.201
X69.356Y-38.808
X69.913Y-56.872
X70.553Y-52.25
X72.048Y-37.525
X72.055Y-41.187
X73.35Y-54.011
X73.463Y-19.47
X73.467Y-25.35
X73.482Y-45.059
X74.507Y-36.57
X74.665Y-43.864
X78.394Y-31.721
X78.412Y-34.832
X78.638Y-40.33
X78.642Y-39.023
X78.685Y-18.903
X79.346Y-28.547
X79.702Y-41.01
X79.71Y-54.5
X79.933Y-18.614
X79.942Y-39.392
X80.195Y-49.022
X80.605Y-20.879
X80.609Y-23.25
X80.703Y-30.875
X80.962Y-15.752
X81.018Y-14.587
X81.06Y-25.616
X81.853Y-27.839
X82.035Y-16.794
X84.448Y-15.801
X84.674Y-28.397
X84.743Y-54.012
X85.491Y-28.221
X85.641Y-16.66
X85.75Y-30.958
X86.023Y-38.787
X86.042Y-32.277
X86.337Y-27.753
X87.036Y-37.775
X87.656Y-37.173
X87.795Y-28.39
X88.416Y-21.25
X93.177Y-23.75
X93.404Y-26.458
X93.862Y-22.501
X95.682Y-41.55
X96.578Y-19.375
X97.523Y-13.905
X98.31Y-40.325
X98.698Y-38.375
X98.884Y-16.934
X99.336Y-40.151
X100.252Y-56.772
X100.391Y-23.188
X100.854Y-54.003
X100.875Y-42.353
X101.401Y-39.303
X101.403Y-40.975
X101.846Y-22.896
X102.331Y-9.288
X103.011Y-12.635
X103.916Y-39.376
X104.493Y-40.807
X104.583Y-12.002
X105.111Y-29.414
X105.282Y-54.592
X105.36Y-24.114
X106.141Y-51.087
X106.871Y-40.428
X106.876Y-24.636
X107.524Y-30.203
X108.158Y-39.807
X108.201Y-36.01
X108.387Y-40.669
X108.505Y-27.118
X109.968Y-35.39
X110.498Y-13.954
X110.8Y-41.197
X110.956Y-51.894
X111.026Y-17.898
X111.999Y-36.187
X112.882Y-39.066
X114.408Y-52.459
X115.295Y-35.872
X116.504Y-36.399
X118.411Y-35.152
X118.992Y-35.802
X119.545Y-42.082
X119.616Y-27.665
X123.59Y-38.892
X124.37Y-40.475
X125.061Y-21.801
X125.461Y-39.112
X130.117Y-17.676
X130.382Y-38.132
X130.808Y-22.398
X133.214Y-21.25
T3
X29.6Y-15.6
X29.6Y-19.1
X29.6Y-22.6
X29.6Y-26.1
X56.5Y-30.0
X57.4Y-13.7
X57.4Y-16.24
X57.4Y-18.78
X57.4Y-21.32
X57.4Y-23.86
X57.4Y-26.4
X59.04Y-30.0
X61.58Y-30.0
X64.0Y-34.0
X66.54Y-34.0
X69.08Y-34.0
X71.62Y-34.0
X74.16Y-34.0
T4
X16.3Y-65.0
X19.8Y-65.0
X23.3Y-65.0
X26.8Y-65.0
X30.3Y-65.0
X33.0Y-5.0
X33.8Y-65.0
X36.5Y-5.0
X37.3Y-65.0
X48.0Y-5.0
X51.5Y-5.0
X60.3Y-65.0
X63.0Y-5.0
X63.8Y-65.0
X66.5Y-5.0
X67.3Y-65.0
X70.0Y-5.0
X70.8Y-65.0
X74.3Y-65.0
X77.8Y-65.0
X81.3Y-65.0
X81.5Y-5.0
X85.0Y-5.0
X88.5Y-5.0
X100.0Y-5.0
X103.5Y-5.0
X104.3Y-65.0
X107.0Y-5.0
X107.8Y-65.0
X111.3Y-65.0
X114.8Y-65.0
X118.3Y-65.0
X121.8Y-65.0
X125.3Y-65.0
T2
X132.145Y-15.68G85X133.245Y-15.68
G05
X132.145Y-24.32G85X133.245Y-24.32
G05
X136.575Y-15.68G85X137.175Y-15.68
G05
X136.575Y-24.32G85X137.175Y-24.32
G05
M30
