%TF.GenerationSoftware,KiCad,Pcbnew,10.0.3*%
%TF.CreationDate,2026-08-06T21:59:00+12:00*%
%TF.ProjectId,rcm,72636d2e-6b69-4636-9164-5f7063625858,A*%
%TF.SameCoordinates,Original*%
%TF.FileFunction,Copper,L2,Bot*%
%TF.FilePolarity,Positive*%
%FSLAX46Y46*%
G04 Gerber Fmt 4.6, Leading zero omitted, Abs format (unit mm)*
G04 Created by KiCad (PCBNEW 10.0.3) date 2026-08-06 21:59:00*
%MOMM*%
%LPD*%
G01*
G04 APERTURE LIST*
G04 Aperture macros list*
%AMRoundRect*
0 Rectangle with rounded corners*
0 $1 Rounding radius*
0 $2 $3 $4 $5 $6 $7 $8 $9 X,Y pos of 4 corners*
0 Add a 4 corners polygon primitive as box body*
4,1,4,$2,$3,$4,$5,$6,$7,$8,$9,$2,$3,0*
0 Add four circle primitives for the rounded corners*
1,1,$1+$1,$2,$3*
1,1,$1+$1,$4,$5*
1,1,$1+$1,$6,$7*
1,1,$1+$1,$8,$9*
0 Add four rect primitives between the rounded corners*
20,1,$1+$1,$2,$3,$4,$5,0*
20,1,$1+$1,$4,$5,$6,$7,0*
20,1,$1+$1,$6,$7,$8,$9,0*
20,1,$1+$1,$8,$9,$2,$3,0*%
G04 Aperture macros list end*
%TA.AperFunction,ComponentPad*%
%ADD10R,1.700000X1.700000*%
%TD*%
%TA.AperFunction,ComponentPad*%
%ADD11C,1.700000*%
%TD*%
%TA.AperFunction,ComponentPad*%
%ADD12RoundRect,0.575000X0.575000X0.575000X-0.575000X0.575000X-0.575000X-0.575000X0.575000X-0.575000X0*%
%TD*%
%TA.AperFunction,ComponentPad*%
%ADD13C,2.300000*%
%TD*%
%TA.AperFunction,ComponentPad*%
%ADD14RoundRect,0.575000X-0.575000X-0.575000X0.575000X-0.575000X0.575000X0.575000X-0.575000X0.575000X0*%
%TD*%
%TA.AperFunction,ComponentPad*%
%ADD15O,2.100000X1.000000*%
%TD*%
%TA.AperFunction,ComponentPad*%
%ADD16O,1.600000X1.000000*%
%TD*%
%TA.AperFunction,ViaPad*%
%ADD17C,0.600000*%
%TD*%
%TA.AperFunction,Conductor*%
%ADD18C,0.200000*%
%TD*%
G04 APERTURE END LIST*
D10*
%TO.P,J_SWD,1*%
%TO.N,+3V3*%
X64000000Y-34000000D03*
D11*
%TO.P,J_SWD,2*%
%TO.N,SWDIO*%
X66540000Y-34000000D03*
%TO.P,J_SWD,3*%
%TO.N,SWCLK*%
X69080000Y-34000000D03*
%TO.P,J_SWD,4*%
%TO.N,NRST*%
X71620000Y-34000000D03*
%TO.P,J_SWD,5*%
%TO.N,GND*%
X74160000Y-34000000D03*
%TD*%
D12*
%TO.P,J_CAN1,1*%
%TO.N,CANH*%
X88500000Y-5000000D03*
D13*
%TO.P,J_CAN1,2*%
%TO.N,CANL*%
X85000000Y-5000000D03*
%TO.P,J_CAN1,3*%
%TO.N,GND*%
X81500000Y-5000000D03*
%TD*%
D12*
%TO.P,J_CAN2,1*%
%TO.N,CANH*%
X107000000Y-5000000D03*
D13*
%TO.P,J_CAN2,2*%
%TO.N,CANL*%
X103500000Y-5000000D03*
%TO.P,J_CAN2,3*%
%TO.N,GND*%
X100000000Y-5000000D03*
%TD*%
D14*
%TO.P,J_CH1,1*%
%TO.N,CH1*%
X16300000Y-65000000D03*
D13*
%TO.P,J_CH1,2*%
%TO.N,CH2*%
X19800000Y-65000000D03*
%TO.P,J_CH1,3*%
%TO.N,CH3*%
X23300000Y-65000000D03*
%TO.P,J_CH1,4*%
%TO.N,CH4*%
X26800000Y-65000000D03*
%TO.P,J_CH1,5*%
%TO.N,CH5*%
X30300000Y-65000000D03*
%TO.P,J_CH1,6*%
%TO.N,CH6*%
X33800000Y-65000000D03*
%TO.P,J_CH1,7*%
%TO.N,CH7*%
X37300000Y-65000000D03*
%TD*%
D15*
%TO.P,J_USB,SH*%
%TO.N,GND*%
X132695000Y-24320000D03*
D16*
X136875000Y-24320000D03*
D15*
X132695000Y-15680000D03*
D16*
X136875000Y-15680000D03*
%TD*%
D10*
%TO.P,JB1,1*%
%TO.N,+12V_SW*%
X29600000Y-15600000D03*
D11*
X29600000Y-19100000D03*
%TO.P,JB1,2*%
%TO.N,GND*%
X29600000Y-22600000D03*
X29600000Y-26100000D03*
%TD*%
D10*
%TO.P,JB2,1*%
%TO.N,+5V*%
X57400000Y-13700000D03*
D11*
X57400000Y-16240000D03*
X57400000Y-18780000D03*
%TO.P,JB2,2*%
%TO.N,GND*%
X57400000Y-21320000D03*
X57400000Y-23860000D03*
X57400000Y-26400000D03*
%TD*%
D10*
%TO.P,J_BOOT,1*%
%TO.N,+3V3*%
X56500000Y-30000000D03*
D11*
%TO.P,J_BOOT,2*%
%TO.N,BOOT0*%
X59040000Y-30000000D03*
%TO.P,J_BOOT,3*%
%TO.N,GND*%
X61580000Y-30000000D03*
%TD*%
D12*
%TO.P,J_AUX,1*%
%TO.N,AUX1*%
X70000000Y-5000000D03*
D13*
%TO.P,J_AUX,2*%
%TO.N,AUX2*%
X66500000Y-5000000D03*
%TO.P,J_AUX,3*%
%TO.N,AUX3*%
X63000000Y-5000000D03*
%TD*%
D12*
%TO.P,J_IGN,1*%
%TO.N,LATCH_IGN*%
X51500000Y-5000000D03*
D13*
%TO.P,J_IGN,2*%
%TO.N,GND*%
X48000000Y-5000000D03*
%TD*%
D12*
%TO.P,J_PWR,1*%
%TO.N,+12V_IN*%
X36500000Y-5000000D03*
D13*
%TO.P,J_PWR,2*%
%TO.N,GND*%
X33000000Y-5000000D03*
%TD*%
D14*
%TO.P,J_CH3,1*%
%TO.N,CH15*%
X104300000Y-65000000D03*
D13*
%TO.P,J_CH3,2*%
%TO.N,CH16*%
X107800000Y-65000000D03*
%TO.P,J_CH3,3*%
%TO.N,CH17*%
X111300000Y-65000000D03*
%TO.P,J_CH3,4*%
%TO.N,CH18*%
X114800000Y-65000000D03*
%TO.P,J_CH3,5*%
%TO.N,CH19*%
X118300000Y-65000000D03*
%TO.P,J_CH3,6*%
%TO.N,CH20*%
X121800000Y-65000000D03*
%TO.P,J_CH3,7*%
%TO.N,CH21*%
X125300000Y-65000000D03*
%TD*%
D14*
%TO.P,J_CH2,1*%
%TO.N,CH8*%
X60300000Y-65000000D03*
D13*
%TO.P,J_CH2,2*%
%TO.N,CH9*%
X63800000Y-65000000D03*
%TO.P,J_CH2,3*%
%TO.N,CH10*%
X67300000Y-65000000D03*
%TO.P,J_CH2,4*%
%TO.N,CH11*%
X70800000Y-65000000D03*
%TO.P,J_CH2,5*%
%TO.N,CH12*%
X74300000Y-65000000D03*
%TO.P,J_CH2,6*%
%TO.N,CH13*%
X77800000Y-65000000D03*
%TO.P,J_CH2,7*%
%TO.N,CH14*%
X81300000Y-65000000D03*
%TD*%
D17*
%TO.N,CH21*%
X114408200Y-52459000D03*
%TO.N,+12V_P*%
X37593800Y-56887000D03*
X12203400Y-24503500D03*
X57587200Y-57796600D03*
X66689100Y-60051900D03*
X12533800Y-37490900D03*
X57419200Y-41503500D03*
X49086300Y-59000000D03*
%TO.N,GND*%
X130382000Y-38132000D03*
X81017700Y-14587500D03*
X79346400Y-28546900D03*
X108505400Y-27118300D03*
X29775800Y-43596100D03*
X98884000Y-16934000D03*
X81060500Y-25616300D03*
X73463000Y-19469900D03*
X25923600Y-40225600D03*
%TO.N,CH14*%
X84743400Y-54012500D03*
X72054800Y-41187300D03*
%TO.N,CH13*%
X79710500Y-54500000D03*
X59919400Y-40975000D03*
%TO.N,CH12*%
X66139100Y-40325000D03*
X73350500Y-54010900D03*
%TO.N,CH11*%
X59929700Y-39675000D03*
X69912900Y-56872300D03*
%TO.N,CH10*%
X61762000Y-39025000D03*
%TO.N,CH9*%
X60149900Y-38375000D03*
%TO.N,CH8*%
X59640200Y-36747300D03*
%TO.N,ASNS3*%
X124369600Y-40475000D03*
X104582600Y-12001500D03*
%TO.N,NRST*%
X80609100Y-23250000D03*
X93862100Y-22501100D03*
%TO.N,+3V3*%
X80605500Y-20878700D03*
X45550000Y-40950000D03*
X110498500Y-13954300D03*
X103010600Y-12635000D03*
X106876100Y-24636200D03*
X61511400Y-36747300D03*
%TO.N,SR_OE_N*%
X22785600Y-36236600D03*
X87794600Y-28390500D03*
X109967800Y-35390400D03*
X66823600Y-35946600D03*
X78393800Y-31721300D03*
%TO.N,SR_PL*%
X73481700Y-45058600D03*
X119545000Y-42082300D03*
X85491300Y-28220800D03*
%TO.N,SR_SCK*%
X80703300Y-30874600D03*
X69355800Y-38807600D03*
X78638100Y-40330000D03*
X112881600Y-39066500D03*
%TO.N,ASNS2*%
X79702100Y-41009700D03*
X74664700Y-43863700D03*
X45927200Y-39666500D03*
X68049800Y-12834800D03*
%TO.N,SR_DI23*%
X118410800Y-35151800D03*
X87656400Y-37173300D03*
%TO.N,SNS10*%
X70553300Y-52250000D03*
X79941800Y-39392200D03*
%TO.N,SNS11*%
X80195000Y-49022100D03*
X78642000Y-39022800D03*
%TO.N,LATCH_IN*%
X13679300Y-27793700D03*
X9967000Y-25351000D03*
%TO.N,SWDIO*%
X88416300Y-21250000D03*
%TO.N,SWCLK*%
X85640600Y-16660000D03*
%TO.N,CH1*%
X13403700Y-37725000D03*
%TO.N,CH3*%
X13064900Y-56677800D03*
X13064900Y-39025000D03*
%TO.N,CH18*%
X104493000Y-40806600D03*
%TO.N,CH2*%
X14229200Y-36820200D03*
%TO.N,SNS17*%
X123590400Y-38892100D03*
X110956300Y-51893700D03*
%TO.N,+12V_IN*%
X8275000Y-16585500D03*
%TO.N,CANL*%
X111025900Y-17898500D03*
%TO.N,BOOT0*%
X68554200Y-26599400D03*
X80962500Y-15752200D03*
%TO.N,SNS6*%
X39712500Y-52150000D03*
X36165000Y-43965200D03*
%TO.N,CH6*%
X15928200Y-41065100D03*
%TO.N,CH17*%
X103915800Y-39376000D03*
%TO.N,+5V*%
X46207800Y-32793700D03*
%TO.N,+12V_SW*%
X16050000Y-33239900D03*
%TO.N,SR_CH21*%
X72048500Y-37525000D03*
X62077200Y-34550000D03*
%TO.N,SR_RCLK*%
X111998900Y-36187100D03*
X85750000Y-30958300D03*
X78411600Y-34832100D03*
%TO.N,SR_CH32*%
X105110800Y-29413700D03*
X107524000Y-30202900D03*
X116503800Y-36399000D03*
X74507000Y-36570200D03*
%TO.N,LATCH_IGN*%
X4489400Y-27772600D03*
X15346600Y-27940500D03*
%TO.N,CH7*%
X23793900Y-40895900D03*
%TO.N,CH4*%
X24569000Y-59175900D03*
X15939100Y-39636700D03*
%TO.N,CH5*%
X30552000Y-59152400D03*
X16404700Y-40325000D03*
%TO.N,DRV16*%
X98698400Y-38375000D03*
X110800000Y-41197000D03*
%TO.N,DRV18*%
X106871500Y-40428500D03*
X99336200Y-40150500D03*
%TO.N,DRV19*%
X108387200Y-40669300D03*
X98310500Y-40325000D03*
%TO.N,DRV20*%
X108157700Y-39807200D03*
X95682100Y-41549800D03*
%TO.N,CH20*%
X101403400Y-40975000D03*
%TO.N,CH16*%
X100875300Y-42353500D03*
X100853900Y-54002700D03*
%TO.N,CH15*%
X101400600Y-39303100D03*
X100252200Y-56771700D03*
%TO.N,SNS4*%
X29380900Y-44768900D03*
X31359200Y-36380300D03*
%TO.N,CAN_TX*%
X79933000Y-18614200D03*
X102331500Y-9288500D03*
%TO.N,CAN_RX*%
X97523200Y-13905000D03*
X82035500Y-16794400D03*
%TO.N,HSE_OUT*%
X73466700Y-25349800D03*
X69159400Y-27201100D03*
%TO.N,SNS1*%
X14572100Y-51587800D03*
X17874100Y-39501300D03*
X38705000Y-39021400D03*
X27216300Y-39501300D03*
%TO.N,USB_VBUS*%
X130117200Y-17675900D03*
X130808000Y-22398400D03*
%TO.N,USB_CC1*%
X125061100Y-21800700D03*
X133213700Y-21250000D03*
%TO.N,SNS16*%
X106141400Y-51087500D03*
X118991800Y-35802200D03*
%TO.N,SR_MOSI*%
X84674500Y-28397100D03*
X108200900Y-36010300D03*
%TO.N,IMU_INT1*%
X93404200Y-26457900D03*
X81852800Y-27839300D03*
%TO.N,SR_MISO*%
X115294600Y-35872000D03*
X86336500Y-27752800D03*
%TO.N,LATCH_HOLD*%
X86042300Y-32277300D03*
X87035600Y-37775000D03*
X86023400Y-38787200D03*
X7022700Y-34495800D03*
%TO.N,LED1*%
X93176700Y-23750000D03*
X78685100Y-18903500D03*
%TO.N,IMU_SCL*%
X84448300Y-15800700D03*
X119616500Y-27665500D03*
X105360300Y-24114400D03*
%TO.N,IMU_SDA*%
X96578200Y-19375300D03*
X101846500Y-22895700D03*
X100390900Y-23188000D03*
%TO.N,SNS7*%
X44602700Y-52250000D03*
X41838100Y-44954100D03*
%TO.N,AUX1*%
X59984700Y-11055200D03*
%TO.N,AUX3*%
X69055200Y-11055200D03*
%TO.N,SNS5*%
X34754500Y-50000000D03*
X35988600Y-40992900D03*
%TO.N,ASNS1*%
X43147900Y-10087500D03*
X38705000Y-40961800D03*
%TO.N,SNS15*%
X105282200Y-54592300D03*
X125460800Y-39112300D03*
%TD*%
%TO.N,CH21*%
D18*
X114408200Y-52459000D02*
X125300000Y-63350800D01*
X125300000Y-63350800D02*
X125300000Y-65000000D01*
%TO.N,+12V_P*%
X12203400Y-30244300D02*
X15991900Y-34032800D01*
X27305600Y-44137300D02*
X29642500Y-46474200D01*
X15991900Y-34032800D02*
X18141500Y-34032800D01*
X57419200Y-57628600D02*
X57587200Y-57796600D01*
X24395700Y-40855000D02*
X27305600Y-43764900D01*
X65691600Y-61049400D02*
X66689100Y-60051900D01*
X64388300Y-66474000D02*
X65691600Y-65170700D01*
X37593800Y-53857500D02*
X37593800Y-56887000D01*
X18141500Y-34032800D02*
X22557700Y-38449000D01*
X29642500Y-46474200D02*
X29975200Y-46474200D01*
X57587200Y-57796600D02*
X57587200Y-64737700D01*
X49086300Y-59000000D02*
X39706800Y-59000000D01*
X65691600Y-65170700D02*
X65691600Y-61049400D01*
X57419200Y-41503500D02*
X57419200Y-57628600D01*
X59323500Y-66474000D02*
X64388300Y-66474000D01*
X22557700Y-38449000D02*
X22557700Y-38451000D01*
X57419200Y-57628600D02*
X50457700Y-57628600D01*
X29975200Y-46474200D02*
X30092900Y-46356500D01*
X24395700Y-40289000D02*
X24395700Y-40855000D01*
X57587200Y-64737700D02*
X59323500Y-66474000D01*
X39706800Y-59000000D02*
X37593800Y-56887000D01*
X30092900Y-46356500D02*
X37593800Y-53857500D01*
X15991900Y-34032800D02*
X12533800Y-37490900D01*
X27305600Y-43764900D02*
X27305600Y-44137300D01*
X12203400Y-24503500D02*
X12203400Y-30244300D01*
X50457700Y-57628600D02*
X49086300Y-59000000D01*
X22557700Y-38451000D02*
X24395700Y-40289000D01*
%TO.N,GND*%
X29600000Y-26100000D02*
X25923600Y-29776400D01*
X57400000Y-23860000D02*
X57400000Y-21320000D01*
X132695000Y-24320000D02*
X131343300Y-24320000D01*
X136875000Y-24320000D02*
X135773300Y-24320000D01*
X81017700Y-5482300D02*
X81017700Y-14587500D01*
X98884000Y-16934000D02*
X99042300Y-16934000D01*
X57400000Y-26400000D02*
X57400000Y-23860000D01*
X106274400Y-24887300D02*
X108505400Y-27118300D01*
X136875000Y-15680000D02*
X135773300Y-15680000D01*
X131343300Y-37170700D02*
X130382000Y-38132000D01*
X81500000Y-5000000D02*
X81017700Y-5482300D01*
X33000000Y-5000000D02*
X33000000Y-19200000D01*
X99042300Y-16934000D02*
X106274400Y-24166100D01*
X79346400Y-27330400D02*
X79346400Y-28546900D01*
X29600000Y-26100000D02*
X29600000Y-22600000D01*
X81060500Y-25616300D02*
X79346400Y-27330400D01*
X57400000Y-26400000D02*
X57980000Y-26400000D01*
X99042300Y-16934000D02*
X100000000Y-15976300D01*
X57980000Y-26400000D02*
X61580000Y-30000000D01*
X100000000Y-15976300D02*
X100000000Y-5000000D01*
X26405300Y-40225600D02*
X25923600Y-40225600D01*
X78345400Y-14587500D02*
X73463000Y-19469900D01*
X79346400Y-28546900D02*
X79346400Y-28813600D01*
X33000000Y-19200000D02*
X29600000Y-22600000D01*
X131343300Y-24320000D02*
X131343300Y-37170700D01*
X25923600Y-29776400D02*
X25923600Y-40225600D01*
X79346400Y-28813600D02*
X74160000Y-34000000D01*
X106274400Y-24166100D02*
X106274400Y-24887300D01*
X135773300Y-24320000D02*
X135773300Y-15680000D01*
X81017700Y-14587500D02*
X78345400Y-14587500D01*
X29775800Y-43596100D02*
X26405300Y-40225600D01*
%TO.N,CH14*%
X81300000Y-65000000D02*
X81300000Y-54012500D01*
X81300000Y-51349800D02*
X81300000Y-54012500D01*
X81300000Y-54012500D02*
X84743400Y-54012500D01*
X72054800Y-42104600D02*
X81300000Y-51349800D01*
X72054800Y-41187300D02*
X72054800Y-42104600D01*
%TO.N,CH13*%
X59919400Y-40975000D02*
X59099000Y-40154600D01*
X77800000Y-65000000D02*
X77800000Y-54500000D01*
X77800000Y-54500000D02*
X79710500Y-54500000D01*
X59718500Y-37349100D02*
X60543200Y-37349100D01*
X60543200Y-37349100D02*
X60944900Y-37750800D01*
X77799900Y-54500000D02*
X77800000Y-54500000D01*
X64430200Y-37750800D02*
X77799900Y-51120500D01*
X59099000Y-40154600D02*
X59099000Y-37968600D01*
X59099000Y-37968600D02*
X59718500Y-37349100D01*
X60944900Y-37750800D02*
X64430200Y-37750800D01*
X77799900Y-51120500D02*
X77799900Y-54500000D01*
%TO.N,CH12*%
X73350500Y-47536400D02*
X66139100Y-40325000D01*
X73350500Y-54010900D02*
X73350500Y-47536400D01*
X74300000Y-65000000D02*
X74300000Y-54960400D01*
X74300000Y-54960400D02*
X73350500Y-54010900D01*
%TO.N,CH11*%
X59884800Y-37750800D02*
X60376900Y-37750800D01*
X60376900Y-37750800D02*
X60778600Y-38152500D01*
X60778600Y-38152500D02*
X61789400Y-38152500D01*
X70800000Y-57759400D02*
X70800000Y-65000000D01*
X69912900Y-46276000D02*
X69912900Y-56872300D01*
X59500700Y-39246000D02*
X59500700Y-38134900D01*
X59500700Y-38134900D02*
X59884800Y-37750800D01*
X69912900Y-56872300D02*
X70800000Y-57759400D01*
X61789400Y-38152500D02*
X69912900Y-46276000D01*
X59929700Y-39675000D02*
X59500700Y-39246000D01*
%TO.N,CH10*%
X61762000Y-39025000D02*
X67300000Y-44563000D01*
X67300000Y-44563000D02*
X67300000Y-65000000D01*
%TO.N,CH9*%
X63800000Y-42025100D02*
X60149900Y-38375000D01*
X63800000Y-65000000D02*
X63800000Y-42025100D01*
%TO.N,CH8*%
X58697300Y-63397300D02*
X58697300Y-37690200D01*
X58697300Y-37690200D02*
X59640200Y-36747300D01*
X60300000Y-65000000D02*
X58697300Y-63397300D01*
%TO.N,ASNS3*%
X119340400Y-27063800D02*
X104582600Y-12306000D01*
X104582600Y-12306000D02*
X104582600Y-12001500D01*
X119865700Y-27063800D02*
X119340400Y-27063800D01*
X124369600Y-31567700D02*
X119865700Y-27063800D01*
X124369600Y-40475000D02*
X124369600Y-31567700D01*
%TO.N,NRST*%
X80609100Y-25010900D02*
X80609100Y-23250000D01*
X80609100Y-23250000D02*
X83230800Y-20628300D01*
X83230800Y-20628300D02*
X91989300Y-20628300D01*
X71620000Y-34000000D02*
X80609100Y-25010900D01*
X91989300Y-20628300D02*
X93862100Y-22501100D01*
%TO.N,+3V3*%
X57651700Y-30265800D02*
X61519800Y-34133900D01*
X61519800Y-34133900D02*
X61705400Y-33948300D01*
X62796600Y-33948300D02*
X62848300Y-34000000D01*
X65151700Y-33712000D02*
X66015400Y-32848300D01*
X56500000Y-30000000D02*
X57651700Y-30000000D01*
X68635900Y-32848300D02*
X80605500Y-20878700D01*
X103010600Y-12635000D02*
X104245900Y-11399700D01*
X103010600Y-12635000D02*
X106876100Y-16500500D01*
X56500000Y-30000000D02*
X56500000Y-31151700D01*
X61705400Y-33948300D02*
X62796600Y-33948300D01*
X65151700Y-34000000D02*
X65151700Y-33712000D01*
X56500000Y-31151700D02*
X55348300Y-31151700D01*
X57651700Y-30000000D02*
X57651700Y-30265800D01*
X55348300Y-31151700D02*
X45550000Y-40950000D01*
X61511400Y-36747300D02*
X61475500Y-36711400D01*
X64000000Y-34000000D02*
X65151700Y-34000000D01*
X64000000Y-34000000D02*
X62848300Y-34000000D01*
X107943900Y-11399700D02*
X110498500Y-13954300D01*
X61475500Y-34178200D02*
X61519800Y-34133900D01*
X104245900Y-11399700D02*
X107943900Y-11399700D01*
X66015400Y-32848300D02*
X68635900Y-32848300D01*
X61475500Y-36711400D02*
X61475500Y-34178200D01*
X106876100Y-16500500D02*
X106876100Y-24636200D01*
%TO.N,SR_OE_N*%
X89900200Y-30496100D02*
X87794600Y-28390500D01*
X76560100Y-33909300D02*
X76560100Y-33555000D01*
X72651400Y-35946600D02*
X72651400Y-37842100D01*
X66823600Y-35946600D02*
X72651400Y-35946600D01*
X71850900Y-38195700D02*
X71004300Y-37349100D01*
X27707300Y-43971000D02*
X27707300Y-43032600D01*
X72651400Y-37842100D02*
X72297800Y-38195700D01*
X105073500Y-30496100D02*
X89900200Y-30496100D01*
X22959400Y-36410400D02*
X22785600Y-36236600D01*
X71004300Y-37349100D02*
X61211400Y-37349100D01*
X22959400Y-38284700D02*
X22959400Y-36410400D01*
X76560100Y-33555000D02*
X78393800Y-31721300D01*
X109967800Y-35390400D02*
X105073500Y-30496100D01*
X36326400Y-40365000D02*
X35516400Y-40365000D01*
X72651400Y-35946600D02*
X74522800Y-35946600D01*
X60005300Y-36143000D02*
X51917100Y-36143000D01*
X61211400Y-37349100D02*
X60005300Y-36143000D01*
X51917100Y-36143000D02*
X46467000Y-41593100D01*
X27707300Y-43032600D02*
X22959400Y-38284700D01*
X29808900Y-46072500D02*
X29808800Y-46072500D01*
X46467000Y-41593100D02*
X37554500Y-41593100D01*
X74522800Y-35946600D02*
X76560100Y-33909300D01*
X72297800Y-38195700D02*
X71850900Y-38195700D01*
X35516400Y-40365000D02*
X29808900Y-46072500D01*
X37554500Y-41593100D02*
X36326400Y-40365000D01*
X29808800Y-46072500D02*
X27707300Y-43971000D01*
%TO.N,SR_PL*%
X82931400Y-27795400D02*
X85065900Y-27795400D01*
X119601100Y-42026200D02*
X119545000Y-42082300D01*
X99319900Y-27141400D02*
X99319900Y-27307700D01*
X68723100Y-38584500D02*
X69110400Y-38197200D01*
X106923000Y-29953100D02*
X107274900Y-29601200D01*
X108066400Y-29894400D02*
X108092000Y-29894400D01*
X79360500Y-32217200D02*
X79360500Y-32173700D01*
X104799400Y-29953100D02*
X104861700Y-30015400D01*
X107274900Y-29601200D02*
X107773200Y-29601200D01*
X114139200Y-29953100D02*
X119601100Y-35415000D01*
X105422300Y-29953100D02*
X106923000Y-29953100D01*
X101781200Y-27543100D02*
X101815900Y-27508400D01*
X99555300Y-27543100D02*
X101781200Y-27543100D01*
X107773200Y-29601200D02*
X108066400Y-29894400D01*
X104260600Y-29953100D02*
X104799400Y-29953100D01*
X73481700Y-45058600D02*
X68723100Y-40300000D01*
X79990200Y-31544000D02*
X79990200Y-30736600D01*
X105360000Y-30015400D02*
X105422300Y-29953100D01*
X108150700Y-29953100D02*
X114139200Y-29953100D01*
X101815900Y-27508400D02*
X104260600Y-29953100D01*
X119601100Y-35415000D02*
X119601100Y-42026200D01*
X77408100Y-34531900D02*
X77408100Y-34169600D01*
X85491300Y-28220800D02*
X85491300Y-27661900D01*
X79360500Y-32173700D02*
X79990200Y-31544000D01*
X69110400Y-38197200D02*
X71084200Y-38197200D01*
X99319900Y-27307700D02*
X99555300Y-27543100D01*
X71484400Y-38597400D02*
X73342600Y-38597400D01*
X71084200Y-38197200D02*
X71484400Y-38597400D01*
X77408100Y-34169600D02*
X79360500Y-32217200D01*
X79990200Y-30736600D02*
X82931400Y-27795400D01*
X85491300Y-27661900D02*
X86011800Y-27141400D01*
X85065900Y-27795400D02*
X85491300Y-28220800D01*
X68723100Y-40300000D02*
X68723100Y-38584500D01*
X104861700Y-30015400D02*
X105360000Y-30015400D01*
X73342600Y-38597400D02*
X77408100Y-34531900D01*
X86011800Y-27141400D02*
X99319900Y-27141400D01*
X108092000Y-29894400D02*
X108150700Y-29953100D01*
%TO.N,SR_SCK*%
X77993100Y-38168700D02*
X77809800Y-38168700D01*
X97845900Y-38376700D02*
X86786500Y-38376700D01*
X111230600Y-37415500D02*
X106909100Y-37415500D01*
X80703300Y-31442400D02*
X80703300Y-30874600D01*
X86578500Y-38168700D02*
X77993100Y-38168700D01*
X77809800Y-38168700D02*
X77809800Y-34335900D01*
X106909100Y-37415500D02*
X106507400Y-37013800D01*
X69355800Y-38807600D02*
X69547300Y-38999100D01*
X99208800Y-37013800D02*
X97845900Y-38376700D01*
X77809800Y-34335900D02*
X80703300Y-31442400D01*
X76979400Y-38999100D02*
X77809800Y-38168700D01*
X69547300Y-38999100D02*
X76979400Y-38999100D01*
X77993100Y-38168700D02*
X77993100Y-39685000D01*
X77993100Y-39685000D02*
X78638100Y-40330000D01*
X86786500Y-38376700D02*
X86578500Y-38168700D01*
X106507400Y-37013800D02*
X99208800Y-37013800D01*
X112881600Y-39066500D02*
X111230600Y-37415500D01*
%TO.N,ASNS2*%
X54849900Y-22175300D02*
X54849900Y-30743800D01*
X77518700Y-41009700D02*
X74664700Y-43863700D01*
X54849900Y-30743800D02*
X45927200Y-39666500D01*
X79702100Y-41009700D02*
X77518700Y-41009700D01*
X56975200Y-20050000D02*
X54849900Y-22175300D01*
X68049800Y-12834800D02*
X60834600Y-20050000D01*
X60834600Y-20050000D02*
X56975200Y-20050000D01*
%TO.N,SR_DI23*%
X88217600Y-36612100D02*
X87656400Y-37173300D01*
X118410800Y-35342900D02*
X116739900Y-37013800D01*
X106673700Y-36612100D02*
X88217600Y-36612100D01*
X116739900Y-37013800D02*
X107075400Y-37013800D01*
X118410800Y-35151800D02*
X118410800Y-35342900D01*
X107075400Y-37013800D02*
X106673700Y-36612100D01*
%TO.N,SNS10*%
X72550100Y-54246800D02*
X70553300Y-52250000D01*
X79941800Y-39392200D02*
X85355800Y-44806200D01*
X85355800Y-44806200D02*
X85355800Y-63026800D01*
X72550100Y-65361700D02*
X72550100Y-54246800D01*
X81890500Y-66492100D02*
X73680500Y-66492100D01*
X85355800Y-63026800D02*
X81890500Y-66492100D01*
X73680500Y-66492100D02*
X72550100Y-65361700D01*
%TO.N,SNS11*%
X80303800Y-40684600D02*
X78642000Y-39022800D01*
X80303800Y-48913300D02*
X80303800Y-40684600D01*
X80195000Y-49022100D02*
X80303800Y-48913300D01*
%TO.N,LATCH_IN*%
X11441600Y-23876400D02*
X12560500Y-23876400D01*
X9967000Y-25351000D02*
X11441600Y-23876400D01*
X12560500Y-23876400D02*
X13679300Y-24995200D01*
X13679300Y-24995200D02*
X13679300Y-27793700D01*
%TO.N,SWDIO*%
X67754000Y-35214000D02*
X66540000Y-34000000D01*
X87001300Y-21250000D02*
X79948200Y-28303100D01*
X74647800Y-35214000D02*
X67754000Y-35214000D01*
X79948200Y-29316100D02*
X76158400Y-33105900D01*
X76158400Y-33703400D02*
X74647800Y-35214000D01*
X88416300Y-21250000D02*
X87001300Y-21250000D01*
X79948200Y-28303100D02*
X79948200Y-29316100D01*
X76158400Y-33105900D02*
X76158400Y-33703400D01*
%TO.N,SWCLK*%
X85640600Y-17033700D02*
X85640600Y-16660000D01*
X69080000Y-34000000D02*
X69080000Y-33594300D01*
X69080000Y-33594300D02*
X85640600Y-17033700D01*
%TO.N,CH1*%
X13403700Y-37725000D02*
X13666600Y-37987900D01*
X13568700Y-52003200D02*
X13666600Y-52101100D01*
X13568700Y-51172400D02*
X13568700Y-52003200D01*
X13666600Y-62366600D02*
X16300000Y-65000000D01*
X13666600Y-37987900D02*
X13666600Y-51074500D01*
X13666600Y-51074500D02*
X13568700Y-51172400D01*
X13666600Y-52101100D02*
X13666600Y-62366600D01*
%TO.N,CH3*%
X13064900Y-56677800D02*
X13064900Y-39025000D01*
X23300000Y-65000000D02*
X21835300Y-66464700D01*
X13064900Y-64195600D02*
X13064900Y-56677800D01*
X15334000Y-66464700D02*
X13064900Y-64195600D01*
X21835300Y-66464700D02*
X15334000Y-66464700D01*
%TO.N,CH18*%
X104493000Y-54693000D02*
X104493000Y-40806600D01*
X114800000Y-65000000D02*
X104493000Y-54693000D01*
%TO.N,CH2*%
X14229200Y-51079900D02*
X13970400Y-51338700D01*
X14229200Y-59429200D02*
X19800000Y-65000000D01*
X13970400Y-51338700D02*
X13970400Y-51836900D01*
X14229200Y-52095700D02*
X14229200Y-59429200D01*
X14229200Y-36820200D02*
X14229200Y-51079900D01*
X13970400Y-51836900D02*
X14229200Y-52095700D01*
%TO.N,SNS17*%
X123590400Y-38892100D02*
X110956300Y-51526200D01*
X110956300Y-51526200D02*
X110956300Y-51893700D01*
%TO.N,+12V_IN*%
X36500000Y-5000000D02*
X34630700Y-3130700D01*
X21729800Y-3130700D02*
X8275000Y-16585500D01*
X34630700Y-3130700D02*
X21729800Y-3130700D01*
%TO.N,CANL*%
X103500000Y-5000000D02*
X101630700Y-3130700D01*
X101630700Y-3130700D02*
X86869300Y-3130700D01*
X103500000Y-5000000D02*
X111116100Y-12616100D01*
X86869300Y-3130700D02*
X85000000Y-5000000D01*
X111116100Y-12616100D02*
X111116100Y-17808300D01*
X111116100Y-17808300D02*
X111025900Y-17898500D01*
%TO.N,BOOT0*%
X70115300Y-26599400D02*
X68554200Y-26599400D01*
X80962500Y-15752200D02*
X70115300Y-26599400D01*
%TO.N,SNS6*%
X36165000Y-43965200D02*
X36165000Y-48602500D01*
X36165000Y-48602500D02*
X39712500Y-52150000D01*
%TO.N,CH6*%
X33800000Y-65000000D02*
X32321100Y-66478900D01*
X32321100Y-66478900D02*
X29691300Y-66478900D01*
X28550100Y-65337700D02*
X28550100Y-53687000D01*
X29691300Y-66478900D02*
X28550100Y-65337700D01*
X28550100Y-53687000D02*
X15928200Y-41065100D01*
%TO.N,CH17*%
X100788000Y-41343700D02*
X100788000Y-40673900D01*
X101541000Y-55241000D02*
X101541000Y-42096700D01*
X101541000Y-42096700D02*
X100788000Y-41343700D01*
X100788000Y-40673900D02*
X101441300Y-40020600D01*
X111300000Y-65000000D02*
X101541000Y-55241000D01*
X103271200Y-40020600D02*
X103915800Y-39376000D01*
X101441300Y-40020600D02*
X103271200Y-40020600D01*
%TO.N,+5V*%
X54248100Y-21931900D02*
X54248000Y-21931900D01*
X54248000Y-21931900D02*
X54248000Y-24753500D01*
X54248000Y-24753500D02*
X46207800Y-32793700D01*
X57400000Y-16240000D02*
X57400000Y-13700000D01*
X57400000Y-18780000D02*
X54248100Y-21931900D01*
X57400000Y-18780000D02*
X57400000Y-16240000D01*
%TO.N,+12V_SW*%
X16050000Y-32650000D02*
X16050000Y-33239900D01*
X29600000Y-19100000D02*
X16050000Y-32650000D01*
X29600000Y-19100000D02*
X29600000Y-15600000D01*
%TO.N,SR_CH21*%
X64075500Y-36548300D02*
X71071800Y-36548300D01*
X71071800Y-36548300D02*
X72048500Y-37525000D01*
X62077200Y-34550000D02*
X64075500Y-36548300D01*
%TO.N,SR_RCLK*%
X106840000Y-36210400D02*
X91002100Y-36210400D01*
X91002100Y-36210400D02*
X85750000Y-30958300D01*
X81876200Y-34832100D02*
X78411600Y-34832100D01*
X111998900Y-36187100D02*
X111573900Y-36612100D01*
X85750000Y-30958300D02*
X81876200Y-34832100D01*
X107241700Y-36612100D02*
X106840000Y-36210400D01*
X111573900Y-36612100D02*
X107241700Y-36612100D01*
%TO.N,SR_CH32*%
X112111300Y-34790200D02*
X107524000Y-30202900D01*
X83005600Y-25823700D02*
X80658800Y-28170500D01*
X116503800Y-36399000D02*
X116503800Y-36122800D01*
X78995600Y-30857500D02*
X78995600Y-31970600D01*
X80658800Y-29194300D02*
X78995600Y-30857500D01*
X105110800Y-29413700D02*
X101520800Y-25823700D01*
X115171200Y-34790200D02*
X112111300Y-34790200D01*
X101520800Y-25823700D02*
X83005600Y-25823700D01*
X77006400Y-34070800D02*
X74507000Y-36570200D01*
X116503800Y-36122800D02*
X115171200Y-34790200D01*
X78995600Y-31970600D02*
X77006400Y-33959800D01*
X77006400Y-33959800D02*
X77006400Y-34070800D01*
X80658800Y-28170500D02*
X80658800Y-29194300D01*
%TO.N,LATCH_IGN*%
X51500000Y-5000000D02*
X50002800Y-6497200D01*
X33585500Y-3532400D02*
X32371500Y-3532400D01*
X4489400Y-27772600D02*
X8955600Y-23306400D01*
X12597500Y-23306400D02*
X15346600Y-26055500D01*
X8955600Y-23306400D02*
X12597500Y-23306400D01*
X35532300Y-6497200D02*
X34580100Y-5545000D01*
X34580100Y-4527000D02*
X33585500Y-3532400D01*
X32371500Y-3532400D02*
X12597500Y-23306400D01*
X50002800Y-6497200D02*
X35532300Y-6497200D01*
X34580100Y-5545000D02*
X34580100Y-4527000D01*
X15346600Y-26055500D02*
X15346600Y-27940500D01*
%TO.N,CH7*%
X26903900Y-44303600D02*
X29476200Y-46875900D01*
X29920100Y-46875900D02*
X36992100Y-53947900D01*
X23994000Y-40820000D02*
X23994000Y-41021300D01*
X36992100Y-53947900D02*
X36992100Y-64692100D01*
X23918100Y-40895900D02*
X23994000Y-40820000D01*
X26903900Y-43931200D02*
X26903900Y-44303600D01*
X23994000Y-41021300D02*
X26903900Y-43931200D01*
X36992100Y-64692100D02*
X37300000Y-65000000D01*
X23793900Y-40895900D02*
X23918100Y-40895900D01*
X29476200Y-46875900D02*
X29920100Y-46875900D01*
%TO.N,CH4*%
X24569000Y-59175900D02*
X15326100Y-49933000D01*
X15326100Y-49933000D02*
X15326100Y-40249700D01*
X15326100Y-40249700D02*
X15939100Y-39636700D01*
X24569000Y-62769000D02*
X24569000Y-59175900D01*
X26800000Y-65000000D02*
X24569000Y-62769000D01*
%TO.N,CH5*%
X30300000Y-59152400D02*
X30300000Y-54220300D01*
X30300000Y-59152400D02*
X30552000Y-59152400D01*
X30300000Y-65000000D02*
X30300000Y-59152400D01*
X30300000Y-54220300D02*
X16404700Y-40325000D01*
%TO.N,DRV16*%
X99657900Y-37415500D02*
X98698400Y-38375000D01*
X107420200Y-37817200D02*
X106742800Y-37817200D01*
X110800000Y-41197000D02*
X107420200Y-37817200D01*
X106341100Y-37415500D02*
X99657900Y-37415500D01*
X106742800Y-37817200D02*
X106341100Y-37415500D01*
%TO.N,DRV18*%
X100866100Y-38620600D02*
X105063600Y-38620600D01*
X99336200Y-40150500D02*
X100866100Y-38620600D01*
X105063600Y-38620600D02*
X106871500Y-40428500D01*
%TO.N,DRV19*%
X108168900Y-40669300D02*
X108387200Y-40669300D01*
X105718500Y-38218900D02*
X108168900Y-40669300D01*
X98310500Y-40325000D02*
X100416600Y-38218900D01*
X100416600Y-38218900D02*
X105718500Y-38218900D01*
%TO.N,DRV20*%
X97955500Y-39276400D02*
X95682100Y-41549800D01*
X98708500Y-39276400D02*
X97955500Y-39276400D01*
X100167700Y-37817200D02*
X98708500Y-39276400D01*
X106167700Y-37817200D02*
X100167700Y-37817200D01*
X108157700Y-39807200D02*
X106167700Y-37817200D01*
%TO.N,CH20*%
X114191300Y-66478900D02*
X113050100Y-65337700D01*
X113050100Y-65337700D02*
X113050100Y-64122400D01*
X101942700Y-53015000D02*
X101942700Y-41514300D01*
X120321100Y-66478900D02*
X114191300Y-66478900D01*
X113050100Y-64122400D02*
X101942700Y-53015000D01*
X101942700Y-41514300D02*
X101403400Y-40975000D01*
X121800000Y-65000000D02*
X120321100Y-66478900D01*
%TO.N,CH16*%
X100875300Y-54002700D02*
X100875300Y-42353500D01*
X100875300Y-54002700D02*
X100853900Y-54002700D01*
X107800000Y-65000000D02*
X100875300Y-58075300D01*
X100875300Y-58075300D02*
X100875300Y-54002700D01*
%TO.N,CH15*%
X100252200Y-40451500D02*
X101400600Y-39303100D01*
X100252200Y-56771700D02*
X100252200Y-40451500D01*
X100252200Y-60952200D02*
X104300000Y-65000000D01*
X100252200Y-56771700D02*
X100252200Y-60952200D01*
%TO.N,SNS4*%
X31359200Y-42863600D02*
X31359200Y-36380300D01*
X29380900Y-44768900D02*
X29453900Y-44768900D01*
X29453900Y-44768900D02*
X31359200Y-42863600D01*
%TO.N,CAN_TX*%
X100638500Y-3532400D02*
X101891500Y-4785400D01*
X101891500Y-4785400D02*
X101891500Y-8848500D01*
X79933000Y-18004700D02*
X94405300Y-3532400D01*
X79933000Y-18614200D02*
X79933000Y-18004700D01*
X94405300Y-3532400D02*
X100638500Y-3532400D01*
X101891500Y-8848500D02*
X102331500Y-9288500D01*
%TO.N,CAN_RX*%
X82035500Y-16794400D02*
X84924800Y-13905100D01*
X84924800Y-13905100D02*
X97523200Y-13905100D01*
X97523200Y-13905100D02*
X97523200Y-13905000D01*
%TO.N,HSE_OUT*%
X71615400Y-27201100D02*
X69159400Y-27201100D01*
X73466700Y-25349800D02*
X71615400Y-27201100D01*
%TO.N,SNS1*%
X14877000Y-39837200D02*
X15712000Y-39002200D01*
X14877000Y-51282900D02*
X14877000Y-39837200D01*
X17375000Y-39002200D02*
X17874100Y-39501300D01*
X35462100Y-35778500D02*
X30939100Y-35778500D01*
X30939100Y-35778500D02*
X27216300Y-39501300D01*
X14572100Y-51587800D02*
X14877000Y-51282900D01*
X38705000Y-39021400D02*
X35462100Y-35778500D01*
X15712000Y-39002200D02*
X17375000Y-39002200D01*
%TO.N,USB_VBUS*%
X130117200Y-21707600D02*
X130808000Y-22398400D01*
X130117200Y-17675900D02*
X130117200Y-21707600D01*
%TO.N,USB_CC1*%
X125061100Y-21800700D02*
X126260600Y-23000200D01*
X131463500Y-23000200D02*
X133213700Y-21250000D01*
X126260600Y-23000200D02*
X131463500Y-23000200D01*
%TO.N,SNS16*%
X106141400Y-48652600D02*
X118991800Y-35802200D01*
X106141400Y-51087500D02*
X106141400Y-48652600D01*
%TO.N,SR_MOSI*%
X92086100Y-35808700D02*
X107999300Y-35808700D01*
X84674500Y-28397100D02*
X92086100Y-35808700D01*
X107999300Y-35808700D02*
X108200900Y-36010300D01*
%TO.N,IMU_INT1*%
X93404200Y-26457900D02*
X83234200Y-26457900D01*
X83234200Y-26457900D02*
X81852800Y-27839300D01*
%TO.N,SR_MISO*%
X110217000Y-35992100D02*
X109150400Y-35992100D01*
X109150400Y-35992100D02*
X107496500Y-34338200D01*
X114950000Y-35527400D02*
X110681700Y-35527400D01*
X86336500Y-27868500D02*
X86336500Y-27752800D01*
X110681700Y-35527400D02*
X110217000Y-35992100D01*
X92806200Y-34338200D02*
X86336500Y-27868500D01*
X115294600Y-35872000D02*
X114950000Y-35527400D01*
X107496500Y-34338200D02*
X92806200Y-34338200D01*
%TO.N,LATCH_HOLD*%
X87035600Y-37775000D02*
X87035600Y-33270600D01*
X87035600Y-33270600D02*
X86042300Y-32277300D01*
X7022700Y-58731200D02*
X15201600Y-66910100D01*
X86023400Y-62996200D02*
X86023400Y-38787200D01*
X7022700Y-34495800D02*
X7022700Y-58731200D01*
X82109500Y-66910100D02*
X86023400Y-62996200D01*
X15201600Y-66910100D02*
X82109500Y-66910100D01*
%TO.N,LED1*%
X78685100Y-18903500D02*
X78997500Y-19215900D01*
X93496600Y-23750000D02*
X93176700Y-23750000D01*
X94491600Y-22241800D02*
X94491600Y-22755000D01*
X85071100Y-16028800D02*
X88278600Y-16028800D01*
X94491600Y-22755000D02*
X93496600Y-23750000D01*
X81884000Y-19215900D02*
X85071100Y-16028800D01*
X78997500Y-19215900D02*
X81884000Y-19215900D01*
X88278600Y-16028800D02*
X94491600Y-22241800D01*
%TO.N,IMU_SCL*%
X94928400Y-18468100D02*
X92058000Y-15597700D01*
X119562000Y-27720000D02*
X119616500Y-27665500D01*
X105360300Y-24824000D02*
X108256300Y-27720000D01*
X84651300Y-15597700D02*
X84448300Y-15800700D01*
X108256300Y-27720000D02*
X119562000Y-27720000D01*
X105360300Y-24114400D02*
X105360300Y-24824000D01*
X105360300Y-24114400D02*
X99714000Y-18468100D01*
X99714000Y-18468100D02*
X94928400Y-18468100D01*
X92058000Y-15597700D02*
X84651300Y-15597700D01*
%TO.N,IMU_SDA*%
X96578200Y-19375300D02*
X100390900Y-23188000D01*
X101554200Y-23188000D02*
X101846500Y-22895700D01*
X100390900Y-23188000D02*
X101554200Y-23188000D01*
%TO.N,SNS7*%
X41838100Y-44954100D02*
X44602700Y-47718700D01*
X44602700Y-47718700D02*
X44602700Y-52250000D01*
%TO.N,AUX1*%
X59984700Y-5960900D02*
X59984700Y-11055200D01*
X62397700Y-3547900D02*
X59984700Y-5960900D01*
X70000000Y-5000000D02*
X68547900Y-3547900D01*
X68547900Y-3547900D02*
X62397700Y-3547900D01*
%TO.N,AUX3*%
X63000000Y-5000000D02*
X69055200Y-11055200D01*
%TO.N,SNS5*%
X35988600Y-40992900D02*
X34754500Y-42227000D01*
X34754500Y-42227000D02*
X34754500Y-50000000D01*
%TO.N,ASNS1*%
X43147900Y-10087500D02*
X43147900Y-36518900D01*
X43147900Y-36518900D02*
X38705000Y-40961800D01*
%TO.N,SNS15*%
X125460800Y-40252800D02*
X111121300Y-54592300D01*
X111121300Y-54592300D02*
X105282200Y-54592300D01*
X125460800Y-39112300D02*
X125460800Y-40252800D01*
%TD*%
%TA.AperFunction,Conductor*%
%TO.N,GND*%
G36*
X86423785Y-21048485D02*
G01*
X86469540Y-21101289D01*
X86479484Y-21170447D01*
X86450459Y-21234003D01*
X86444427Y-21240481D01*
X79627722Y-28057184D01*
X79627720Y-28057187D01*
X79574993Y-28148510D01*
X79572261Y-28158709D01*
X79568539Y-28172599D01*
X79568539Y-28172600D01*
X79568538Y-28172599D01*
X79547700Y-28250371D01*
X79547700Y-29098845D01*
X79528015Y-29165884D01*
X79511381Y-29186526D01*
X75837922Y-32859984D01*
X75837920Y-32859987D01*
X75785192Y-32951312D01*
X75780056Y-32970478D01*
X75780057Y-32970479D01*
X75757900Y-33053171D01*
X75757900Y-33486144D01*
X75749255Y-33515584D01*
X75742732Y-33545571D01*
X75738977Y-33550586D01*
X75738215Y-33553183D01*
X75721581Y-33573826D01*
X75573531Y-33721875D01*
X75512208Y-33755359D01*
X75442516Y-33750375D01*
X75386583Y-33708503D01*
X75367919Y-33672511D01*
X75318418Y-33520164D01*
X75229095Y-33344856D01*
X75173922Y-33268919D01*
X75173921Y-33268918D01*
X74628018Y-33814820D01*
X74625925Y-33807007D01*
X74560099Y-33692993D01*
X74467007Y-33599901D01*
X74352993Y-33534075D01*
X74345175Y-33531980D01*
X74891080Y-32986076D01*
X74815143Y-32930904D01*
X74639835Y-32841581D01*
X74452705Y-32780778D01*
X74258382Y-32750000D01*
X74061618Y-32750000D01*
X73867294Y-32780778D01*
X73675533Y-32843086D01*
X73674889Y-32841105D01*
X73614072Y-32847606D01*
X73551612Y-32816293D01*
X73515996Y-32756183D01*
X73518533Y-32686359D01*
X73548480Y-32637911D01*
X80929580Y-25256813D01*
X80982307Y-25165488D01*
X81009600Y-25063627D01*
X81009600Y-24958173D01*
X81009600Y-23750098D01*
X81029285Y-23683059D01*
X81045919Y-23662417D01*
X81089620Y-23618716D01*
X81168677Y-23481784D01*
X81209600Y-23329057D01*
X81209600Y-23267254D01*
X81229285Y-23200215D01*
X81245919Y-23179573D01*
X83360373Y-21065119D01*
X83421696Y-21031634D01*
X83448054Y-21028800D01*
X86356746Y-21028800D01*
X86423785Y-21048485D01*
G37*
%TD.AperFunction*%
%TA.AperFunction,Conductor*%
G36*
X104013040Y-12290205D02*
G01*
X104023548Y-12290957D01*
X104043562Y-12305939D01*
X104065783Y-12317395D01*
X104075687Y-12329989D01*
X104079481Y-12332829D01*
X104087601Y-12345138D01*
X104102079Y-12370214D01*
X104102081Y-12370217D01*
X104219632Y-12487768D01*
X104218311Y-12489088D01*
X104240368Y-12514238D01*
X104262120Y-12551913D01*
X104262122Y-12551915D01*
X118818026Y-27107819D01*
X118851511Y-27169142D01*
X118846527Y-27238834D01*
X118804655Y-27294767D01*
X118739191Y-27319184D01*
X118730345Y-27319500D01*
X108473555Y-27319500D01*
X108406516Y-27299815D01*
X108385874Y-27283181D01*
X106492039Y-25389346D01*
X106458554Y-25328023D01*
X106463538Y-25258331D01*
X106505410Y-25202398D01*
X106570874Y-25177981D01*
X106639147Y-25192833D01*
X106641698Y-25194265D01*
X106644316Y-25195777D01*
X106797043Y-25236700D01*
X106797045Y-25236700D01*
X106955155Y-25236700D01*
X106955157Y-25236700D01*
X107107884Y-25195777D01*
X107244816Y-25116720D01*
X107356620Y-25004916D01*
X107435677Y-24867984D01*
X107476600Y-24715257D01*
X107476600Y-24557143D01*
X107435677Y-24404416D01*
X107404549Y-24350500D01*
X107356624Y-24267490D01*
X107356618Y-24267482D01*
X107312919Y-24223783D01*
X107279434Y-24162460D01*
X107276600Y-24136102D01*
X107276600Y-16563229D01*
X107276601Y-16563216D01*
X107276601Y-16447776D01*
X107276601Y-16447774D01*
X107249307Y-16345913D01*
X107240435Y-16330546D01*
X107196580Y-16254587D01*
X107122013Y-16180020D01*
X107122012Y-16180019D01*
X107117682Y-16175689D01*
X107117671Y-16175679D01*
X103664673Y-12722680D01*
X103631188Y-12661357D01*
X103636172Y-12591665D01*
X103664669Y-12547323D01*
X103892535Y-12319456D01*
X103914475Y-12307476D01*
X103934127Y-12292022D01*
X103944611Y-12291020D01*
X103953856Y-12285973D01*
X103978794Y-12287756D01*
X104003680Y-12285380D01*
X104013040Y-12290205D01*
G37*
%TD.AperFunction*%
%TA.AperFunction,Conductor*%
G36*
X98683063Y-3952585D02*
G01*
X98728818Y-4005389D01*
X98738762Y-4074547D01*
X98716342Y-4129785D01*
X98674323Y-4187619D01*
X98563560Y-4405001D01*
X98488165Y-4637040D01*
X98450000Y-4878006D01*
X98450000Y-5121993D01*
X98488165Y-5362959D01*
X98563560Y-5594998D01*
X98674323Y-5812380D01*
X98771298Y-5945856D01*
X98771299Y-5945856D01*
X99457241Y-5259914D01*
X99519881Y-5368408D01*
X99631592Y-5480119D01*
X99740084Y-5542757D01*
X99054141Y-6228699D01*
X99054142Y-6228700D01*
X99187619Y-6325676D01*
X99405001Y-6436439D01*
X99637040Y-6511834D01*
X99878007Y-6550000D01*
X100121993Y-6550000D01*
X100362959Y-6511834D01*
X100594998Y-6436439D01*
X100812377Y-6325678D01*
X100945856Y-6228699D01*
X100945857Y-6228698D01*
X100259916Y-5542757D01*
X100368408Y-5480119D01*
X100480119Y-5368408D01*
X100542757Y-5259915D01*
X101228699Y-5945857D01*
X101228700Y-5945856D01*
X101266682Y-5893579D01*
X101322012Y-5850913D01*
X101391625Y-5844934D01*
X101453420Y-5877539D01*
X101487777Y-5938378D01*
X101491000Y-5966464D01*
X101491000Y-8901226D01*
X101518293Y-9003089D01*
X101544656Y-9048750D01*
X101571020Y-9094413D01*
X101571022Y-9094415D01*
X101694681Y-9218074D01*
X101728166Y-9279397D01*
X101731000Y-9305755D01*
X101731000Y-9367556D01*
X101771923Y-9520283D01*
X101771926Y-9520290D01*
X101850975Y-9657209D01*
X101850979Y-9657214D01*
X101850980Y-9657216D01*
X101962784Y-9769020D01*
X101962786Y-9769021D01*
X101962790Y-9769024D01*
X102099709Y-9848073D01*
X102099716Y-9848077D01*
X102252443Y-9889000D01*
X102252445Y-9889000D01*
X102410555Y-9889000D01*
X102410557Y-9889000D01*
X102563284Y-9848077D01*
X102700216Y-9769020D01*
X102812020Y-9657216D01*
X102891077Y-9520284D01*
X102932000Y-9367557D01*
X102932000Y-9209443D01*
X102891077Y-9056716D01*
X102860115Y-9003088D01*
X102812024Y-8919790D01*
X102812018Y-8919782D01*
X102700217Y-8807981D01*
X102700209Y-8807975D01*
X102563290Y-8728926D01*
X102563286Y-8728924D01*
X102563284Y-8728923D01*
X102410557Y-8688000D01*
X102410556Y-8688000D01*
X102402497Y-8686939D01*
X102402865Y-8684143D01*
X102348961Y-8668315D01*
X102303206Y-8615511D01*
X102292000Y-8564000D01*
X102292000Y-6142678D01*
X102311685Y-6075639D01*
X102364489Y-6029884D01*
X102433647Y-6019940D01*
X102497203Y-6048965D01*
X102503681Y-6054997D01*
X102555063Y-6106379D01*
X102739772Y-6240579D01*
X102835884Y-6289550D01*
X102943196Y-6344229D01*
X102943198Y-6344229D01*
X102943201Y-6344231D01*
X103059592Y-6382049D01*
X103160339Y-6414784D01*
X103385838Y-6450500D01*
X103385843Y-6450500D01*
X103614162Y-6450500D01*
X103839660Y-6414784D01*
X103853482Y-6410293D01*
X104056799Y-6344231D01*
X104122959Y-6310520D01*
X104191625Y-6297625D01*
X104256365Y-6323901D01*
X104266932Y-6333325D01*
X110679281Y-12745674D01*
X110712766Y-12806997D01*
X110715600Y-12833355D01*
X110715600Y-13230578D01*
X110712869Y-13239877D01*
X110714150Y-13249483D01*
X110703186Y-13272851D01*
X110695915Y-13297617D01*
X110688591Y-13303962D01*
X110684475Y-13312738D01*
X110662614Y-13326471D01*
X110643111Y-13343372D01*
X110631943Y-13345741D01*
X110625313Y-13349907D01*
X110605573Y-13351336D01*
X110590328Y-13354571D01*
X110580040Y-13354465D01*
X110577557Y-13353800D01*
X110515165Y-13353800D01*
X110514483Y-13353793D01*
X110481656Y-13343787D01*
X110448716Y-13334115D01*
X110447981Y-13333523D01*
X110447649Y-13333422D01*
X110447201Y-13332894D01*
X110428074Y-13317481D01*
X108189815Y-11079222D01*
X108189813Y-11079220D01*
X108132443Y-11046097D01*
X108098489Y-11026493D01*
X108047557Y-11012846D01*
X107996627Y-10999200D01*
X104298627Y-10999200D01*
X104193173Y-10999200D01*
X104091310Y-11026493D01*
X103999987Y-11079220D01*
X103999984Y-11079222D01*
X103081026Y-11998181D01*
X103019703Y-12031666D01*
X102993345Y-12034500D01*
X102931543Y-12034500D01*
X102778816Y-12075423D01*
X102778809Y-12075426D01*
X102641890Y-12154475D01*
X102641882Y-12154481D01*
X102530081Y-12266282D01*
X102530075Y-12266290D01*
X102451026Y-12403209D01*
X102451023Y-12403216D01*
X102410100Y-12555943D01*
X102410100Y-12714057D01*
X102437830Y-12817545D01*
X102451023Y-12866783D01*
X102451026Y-12866790D01*
X102530075Y-13003709D01*
X102530079Y-13003714D01*
X102530080Y-13003716D01*
X102641884Y-13115520D01*
X102641886Y-13115521D01*
X102641890Y-13115524D01*
X102778809Y-13194573D01*
X102778816Y-13194577D01*
X102931543Y-13235500D01*
X102993345Y-13235500D01*
X103060384Y-13255185D01*
X103081026Y-13271819D01*
X106439281Y-16630073D01*
X106472766Y-16691396D01*
X106475600Y-16717754D01*
X106475600Y-24136102D01*
X106455915Y-24203141D01*
X106439281Y-24223783D01*
X106395581Y-24267482D01*
X106395575Y-24267490D01*
X106316526Y-24404409D01*
X106316523Y-24404416D01*
X106275600Y-24557143D01*
X106275600Y-24715257D01*
X106310367Y-24845007D01*
X106316523Y-24867983D01*
X106316525Y-24867988D01*
X106318022Y-24870581D01*
X106318619Y-24873045D01*
X106319634Y-24875494D01*
X106319252Y-24875652D01*
X106334493Y-24938481D01*
X106311640Y-25004508D01*
X106256718Y-25047697D01*
X106187165Y-25054338D01*
X106125063Y-25022321D01*
X106122953Y-25020260D01*
X105800995Y-24698302D01*
X105767510Y-24636979D01*
X105772494Y-24567287D01*
X105800994Y-24522941D01*
X105840820Y-24483116D01*
X105919877Y-24346184D01*
X105960800Y-24193457D01*
X105960800Y-24035343D01*
X105919877Y-23882616D01*
X105901046Y-23850000D01*
X105840824Y-23745690D01*
X105840818Y-23745682D01*
X105729017Y-23633881D01*
X105729009Y-23633875D01*
X105592090Y-23554826D01*
X105592086Y-23554824D01*
X105592084Y-23554823D01*
X105439357Y-23513900D01*
X105439356Y-23513900D01*
X105377555Y-23513900D01*
X105310516Y-23494215D01*
X105289874Y-23477581D01*
X99959915Y-18147622D01*
X99959913Y-18147620D01*
X99914250Y-18121256D01*
X99868589Y-18094893D01*
X99816499Y-18080936D01*
X99766727Y-18067600D01*
X99766726Y-18067600D01*
X95145654Y-18067600D01*
X95078615Y-18047915D01*
X95057973Y-18031281D01*
X93693084Y-16666392D01*
X92303913Y-15277220D01*
X92241392Y-15241123D01*
X92212589Y-15224493D01*
X92121923Y-15200200D01*
X92110727Y-15197200D01*
X84598573Y-15197200D01*
X84598571Y-15197200D01*
X84589455Y-15199643D01*
X84550034Y-15203650D01*
X84537450Y-15202904D01*
X84527357Y-15200200D01*
X84491787Y-15200200D01*
X84488123Y-15199983D01*
X84458553Y-15189364D01*
X84428416Y-15180515D01*
X84425934Y-15177650D01*
X84422365Y-15176369D01*
X84403226Y-15151444D01*
X84382661Y-15127711D01*
X84382121Y-15123959D01*
X84379812Y-15120952D01*
X84377187Y-15089641D01*
X84372717Y-15058553D01*
X84374291Y-15055104D01*
X84373975Y-15051327D01*
X84388692Y-15023570D01*
X84401742Y-14994997D01*
X84406624Y-14989753D01*
X84406707Y-14989598D01*
X84406837Y-14989524D01*
X84407774Y-14988519D01*
X85054374Y-14341919D01*
X85115697Y-14308434D01*
X85142055Y-14305600D01*
X97023202Y-14305600D01*
X97090241Y-14325285D01*
X97110883Y-14341919D01*
X97154484Y-14385520D01*
X97154486Y-14385521D01*
X97154490Y-14385524D01*
X97291409Y-14464573D01*
X97291416Y-14464577D01*
X97444143Y-14505500D01*
X97444145Y-14505500D01*
X97602255Y-14505500D01*
X97602257Y-14505500D01*
X97754984Y-14464577D01*
X97891916Y-14385520D01*
X98003720Y-14273716D01*
X98082777Y-14136784D01*
X98123700Y-13984057D01*
X98123700Y-13825943D01*
X98082777Y-13673216D01*
X98082773Y-13673209D01*
X98003724Y-13536290D01*
X98003718Y-13536282D01*
X97891917Y-13424481D01*
X97891909Y-13424475D01*
X97754990Y-13345426D01*
X97754986Y-13345424D01*
X97754984Y-13345423D01*
X97602257Y-13304500D01*
X97444143Y-13304500D01*
X97291416Y-13345423D01*
X97291409Y-13345426D01*
X97154490Y-13424475D01*
X97154482Y-13424481D01*
X97110683Y-13468281D01*
X97049360Y-13501766D01*
X97023002Y-13504600D01*
X85298855Y-13504600D01*
X85231816Y-13484915D01*
X85186061Y-13432111D01*
X85176117Y-13362953D01*
X85205142Y-13299397D01*
X85211174Y-13292919D01*
X94534874Y-3969219D01*
X94596197Y-3935734D01*
X94622555Y-3932900D01*
X98616024Y-3932900D01*
X98683063Y-3952585D01*
G37*
%TD.AperFunction*%
%TA.AperFunction,Conductor*%
G36*
X132467530Y-22626606D02*
G01*
X132501349Y-22628419D01*
X132502282Y-22629091D01*
X132503430Y-22629174D01*
X132530560Y-22649483D01*
X132558021Y-22669285D01*
X132558441Y-22670354D01*
X132559364Y-22671045D01*
X132571209Y-22702804D01*
X132583603Y-22734303D01*
X132583521Y-22735815D01*
X132583781Y-22736510D01*
X132581715Y-22769546D01*
X132570000Y-22828443D01*
X132570000Y-22951559D01*
X132569999Y-22951559D01*
X132594017Y-23072300D01*
X132594020Y-23072310D01*
X132641128Y-23186041D01*
X132641135Y-23186054D01*
X132704816Y-23281358D01*
X132711434Y-23290000D01*
X132771000Y-23290000D01*
X132838039Y-23309685D01*
X132883794Y-23362489D01*
X132895000Y-23414000D01*
X132895000Y-24020000D01*
X132495000Y-24020000D01*
X132495000Y-23420000D01*
X132056353Y-23420000D01*
X131900202Y-23451060D01*
X131830610Y-23444833D01*
X131775433Y-23401969D01*
X131752189Y-23336079D01*
X131768257Y-23268082D01*
X131788326Y-23241765D01*
X132372419Y-22657673D01*
X132402133Y-22641448D01*
X132431580Y-22624680D01*
X132432728Y-22624741D01*
X132433739Y-22624190D01*
X132467530Y-22626606D01*
G37*
%TD.AperFunction*%
%TA.AperFunction,Conductor*%
G36*
X137003736Y-500726D02*
G01*
X137293797Y-518271D01*
X137308660Y-520076D01*
X137590798Y-571780D01*
X137605335Y-575363D01*
X137879172Y-660695D01*
X137893163Y-666000D01*
X138154743Y-783727D01*
X138167989Y-790680D01*
X138413465Y-939075D01*
X138425776Y-947573D01*
X138651573Y-1124473D01*
X138662781Y-1134403D01*
X138865596Y-1337218D01*
X138875525Y-1348425D01*
X138995481Y-1501538D01*
X139052422Y-1574217D01*
X139060928Y-1586540D01*
X139209316Y-1832004D01*
X139216275Y-1845263D01*
X139333997Y-2106831D01*
X139339306Y-2120832D01*
X139424635Y-2394663D01*
X139428219Y-2409201D01*
X139479923Y-2691339D01*
X139481728Y-2706204D01*
X139499274Y-2996263D01*
X139499500Y-3003750D01*
X139499500Y-66996249D01*
X139499274Y-67003736D01*
X139481728Y-67293794D01*
X139479923Y-67308659D01*
X139428219Y-67590797D01*
X139424635Y-67605335D01*
X139339304Y-67879174D01*
X139333994Y-67893176D01*
X139216277Y-68154730D01*
X139209319Y-68167987D01*
X139060928Y-68413458D01*
X139052422Y-68425782D01*
X138875525Y-68651573D01*
X138865595Y-68662781D01*
X138662781Y-68865595D01*
X138651573Y-68875525D01*
X138425782Y-69052422D01*
X138413458Y-69060928D01*
X138167987Y-69209319D01*
X138154730Y-69216277D01*
X137893176Y-69333994D01*
X137879174Y-69339304D01*
X137605335Y-69424635D01*
X137590797Y-69428219D01*
X137308659Y-69479923D01*
X137293794Y-69481728D01*
X137003736Y-69499274D01*
X136996249Y-69499500D01*
X3003751Y-69499500D01*
X2996264Y-69499274D01*
X2706204Y-69481728D01*
X2691339Y-69479923D01*
X2409201Y-69428219D01*
X2394663Y-69424635D01*
X2120832Y-69339306D01*
X2106831Y-69333997D01*
X1845263Y-69216275D01*
X1832004Y-69209316D01*
X1586537Y-69060926D01*
X1574217Y-69052422D01*
X1348426Y-68875526D01*
X1337218Y-68865596D01*
X1134403Y-68662781D01*
X1124473Y-68651573D01*
X947573Y-68425776D01*
X939075Y-68413465D01*
X790679Y-68167987D01*
X783727Y-68154743D01*
X666000Y-67893163D01*
X660693Y-67879167D01*
X575364Y-67605336D01*
X571780Y-67590798D01*
X520076Y-67308660D01*
X518271Y-67293795D01*
X500726Y-67003736D01*
X500500Y-66996249D01*
X500500Y-64878711D01*
X3149500Y-64878711D01*
X3149500Y-65121288D01*
X3181161Y-65361785D01*
X3243947Y-65596104D01*
X3314707Y-65766932D01*
X3336776Y-65820212D01*
X3458064Y-66030289D01*
X3458066Y-66030292D01*
X3458067Y-66030293D01*
X3605733Y-66222736D01*
X3605739Y-66222743D01*
X3777256Y-66394260D01*
X3777263Y-66394266D01*
X3833100Y-66437111D01*
X3969711Y-66541936D01*
X4179788Y-66663224D01*
X4403900Y-66756054D01*
X4638211Y-66818838D01*
X4818586Y-66842584D01*
X4878711Y-66850500D01*
X4878712Y-66850500D01*
X5121289Y-66850500D01*
X5181212Y-66842611D01*
X5361789Y-66818838D01*
X5596100Y-66756054D01*
X5820212Y-66663224D01*
X6030289Y-66541936D01*
X6222738Y-66394265D01*
X6394265Y-66222738D01*
X6541936Y-66030289D01*
X6663224Y-65820212D01*
X6756054Y-65596100D01*
X6818838Y-65361789D01*
X6850500Y-65121288D01*
X6850500Y-64878712D01*
X6818838Y-64638211D01*
X6756054Y-64403900D01*
X6663224Y-64179788D01*
X6541936Y-63969711D01*
X6455620Y-63857222D01*
X6394266Y-63777263D01*
X6394260Y-63777256D01*
X6222743Y-63605739D01*
X6222736Y-63605733D01*
X6030293Y-63458067D01*
X6030292Y-63458066D01*
X6030289Y-63458064D01*
X5820212Y-63336776D01*
X5820205Y-63336773D01*
X5596104Y-63243947D01*
X5455989Y-63206403D01*
X5361789Y-63181162D01*
X5361788Y-63181161D01*
X5361785Y-63181161D01*
X5121289Y-63149500D01*
X5121288Y-63149500D01*
X4878712Y-63149500D01*
X4878711Y-63149500D01*
X4638214Y-63181161D01*
X4403895Y-63243947D01*
X4179794Y-63336773D01*
X4179785Y-63336777D01*
X4010641Y-63434433D01*
X3983632Y-63450027D01*
X3969706Y-63458067D01*
X3777263Y-63605733D01*
X3777256Y-63605739D01*
X3605739Y-63777256D01*
X3605733Y-63777263D01*
X3458067Y-63969706D01*
X3336777Y-64179785D01*
X3336773Y-64179794D01*
X3243947Y-64403895D01*
X3181161Y-64638214D01*
X3149500Y-64878711D01*
X500500Y-64878711D01*
X500500Y-27693543D01*
X3888900Y-27693543D01*
X3888900Y-27851657D01*
X3929201Y-28002060D01*
X3929823Y-28004383D01*
X3929826Y-28004390D01*
X4008875Y-28141309D01*
X4008879Y-28141314D01*
X4008880Y-28141316D01*
X4120684Y-28253120D01*
X4120686Y-28253121D01*
X4120690Y-28253124D01*
X4257609Y-28332173D01*
X4257616Y-28332177D01*
X4410343Y-28373100D01*
X4410345Y-28373100D01*
X4568455Y-28373100D01*
X4568457Y-28373100D01*
X4721184Y-28332177D01*
X4858116Y-28253120D01*
X4969920Y-28141316D01*
X5048977Y-28004384D01*
X5089900Y-27851657D01*
X5089900Y-27789854D01*
X5109585Y-27722815D01*
X5126219Y-27702173D01*
X9085173Y-23743219D01*
X9146496Y-23709734D01*
X9172854Y-23706900D01*
X10745345Y-23706900D01*
X10812384Y-23726585D01*
X10858139Y-23779389D01*
X10868083Y-23848547D01*
X10839058Y-23912103D01*
X10833026Y-23918581D01*
X10037426Y-24714181D01*
X9976103Y-24747666D01*
X9949745Y-24750500D01*
X9887943Y-24750500D01*
X9735216Y-24791423D01*
X9735209Y-24791426D01*
X9598290Y-24870475D01*
X9598282Y-24870481D01*
X9486481Y-24982282D01*
X9486475Y-24982290D01*
X9407426Y-25119209D01*
X9407423Y-25119216D01*
X9366500Y-25271943D01*
X9366500Y-25430057D01*
X9407102Y-25581584D01*
X9407423Y-25582783D01*
X9407426Y-25582790D01*
X9486475Y-25719709D01*
X9486479Y-25719714D01*
X9486480Y-25719716D01*
X9598284Y-25831520D01*
X9598286Y-25831521D01*
X9598290Y-25831524D01*
X9735209Y-25910573D01*
X9735216Y-25910577D01*
X9887943Y-25951500D01*
X9887945Y-25951500D01*
X10046055Y-25951500D01*
X10046057Y-25951500D01*
X10198784Y-25910577D01*
X10335716Y-25831520D01*
X10447520Y-25719716D01*
X10526577Y-25582784D01*
X10567500Y-25430057D01*
X10567500Y-25368255D01*
X10587185Y-25301216D01*
X10603819Y-25280574D01*
X11391219Y-24493174D01*
X11452542Y-24459689D01*
X11522234Y-24464673D01*
X11578167Y-24506545D01*
X11602584Y-24572009D01*
X11602900Y-24580855D01*
X11602900Y-24582557D01*
X11638457Y-24715255D01*
X11643823Y-24735283D01*
X11643826Y-24735290D01*
X11722875Y-24872209D01*
X11722881Y-24872217D01*
X11766581Y-24915917D01*
X11800066Y-24977240D01*
X11802900Y-25003598D01*
X11802900Y-30297026D01*
X11830193Y-30398889D01*
X11856556Y-30444550D01*
X11882920Y-30490213D01*
X11882922Y-30490215D01*
X15337826Y-33945119D01*
X15371311Y-34006442D01*
X15366327Y-34076134D01*
X15337826Y-34120481D01*
X12604226Y-36854081D01*
X12542903Y-36887566D01*
X12516545Y-36890400D01*
X12454743Y-36890400D01*
X12302016Y-36931323D01*
X12302009Y-36931326D01*
X12165090Y-37010375D01*
X12165082Y-37010381D01*
X12053281Y-37122182D01*
X12053275Y-37122190D01*
X11974226Y-37259109D01*
X11974223Y-37259116D01*
X11933300Y-37411843D01*
X11933300Y-37569957D01*
X11962293Y-37678158D01*
X11974223Y-37722683D01*
X11974226Y-37722690D01*
X12053275Y-37859609D01*
X12053279Y-37859614D01*
X12053280Y-37859616D01*
X12165084Y-37971420D01*
X12165086Y-37971421D01*
X12165090Y-37971424D01*
X12282355Y-38039126D01*
X12302016Y-38050477D01*
X12454743Y-38091400D01*
X12454745Y-38091400D01*
X12612855Y-38091400D01*
X12612857Y-38091400D01*
X12765584Y-38050477D01*
X12765588Y-38050474D01*
X12765590Y-38050474D01*
X12772155Y-38047756D01*
X12841624Y-38040289D01*
X12904102Y-38071565D01*
X12907860Y-38075216D01*
X12919038Y-38086542D01*
X12923180Y-38093716D01*
X13034984Y-38205520D01*
X13038416Y-38207501D01*
X13047067Y-38216267D01*
X13059730Y-38239825D01*
X13075502Y-38261427D01*
X13076020Y-38270129D01*
X13080148Y-38277809D01*
X13078064Y-38304472D01*
X13079654Y-38331173D01*
X13075384Y-38338775D01*
X13074705Y-38347466D01*
X13058534Y-38368773D01*
X13045438Y-38392091D01*
X13037339Y-38396702D01*
X13032467Y-38403123D01*
X13014588Y-38409657D01*
X12990905Y-38423144D01*
X12985844Y-38424500D01*
X12985843Y-38424500D01*
X12965638Y-38429914D01*
X12833114Y-38465423D01*
X12833109Y-38465426D01*
X12696190Y-38544475D01*
X12696182Y-38544481D01*
X12584381Y-38656282D01*
X12584375Y-38656290D01*
X12505326Y-38793209D01*
X12505323Y-38793216D01*
X12464400Y-38945943D01*
X12464400Y-39104057D01*
X12504359Y-39253184D01*
X12505323Y-39256783D01*
X12505326Y-39256790D01*
X12584375Y-39393709D01*
X12584381Y-39393717D01*
X12628081Y-39437417D01*
X12661566Y-39498740D01*
X12664400Y-39525098D01*
X12664400Y-56177702D01*
X12644715Y-56244741D01*
X12628081Y-56265383D01*
X12584381Y-56309082D01*
X12584375Y-56309090D01*
X12505326Y-56446009D01*
X12505323Y-56446016D01*
X12464400Y-56598743D01*
X12464400Y-56756857D01*
X12490710Y-56855045D01*
X12505323Y-56909583D01*
X12505326Y-56909590D01*
X12584375Y-57046509D01*
X12584381Y-57046517D01*
X12628081Y-57090217D01*
X12661566Y-57151540D01*
X12664400Y-57177898D01*
X12664400Y-63507145D01*
X12644715Y-63574184D01*
X12591911Y-63619939D01*
X12522753Y-63629883D01*
X12459197Y-63600858D01*
X12452719Y-63594826D01*
X7459519Y-58601626D01*
X7426034Y-58540303D01*
X7423200Y-58513945D01*
X7423200Y-34995898D01*
X7442885Y-34928859D01*
X7459519Y-34908217D01*
X7472874Y-34894862D01*
X7503220Y-34864516D01*
X7582277Y-34727584D01*
X7623200Y-34574857D01*
X7623200Y-34416743D01*
X7582277Y-34264016D01*
X7561573Y-34228155D01*
X7503224Y-34127090D01*
X7503218Y-34127082D01*
X7391417Y-34015281D01*
X7391409Y-34015275D01*
X7254490Y-33936226D01*
X7254486Y-33936224D01*
X7254484Y-33936223D01*
X7101757Y-33895300D01*
X6943643Y-33895300D01*
X6790916Y-33936223D01*
X6790909Y-33936226D01*
X6653990Y-34015275D01*
X6653982Y-34015281D01*
X6542181Y-34127082D01*
X6542175Y-34127090D01*
X6463126Y-34264009D01*
X6463123Y-34264016D01*
X6422200Y-34416743D01*
X6422200Y-34574857D01*
X6458789Y-34711407D01*
X6463123Y-34727583D01*
X6463126Y-34727590D01*
X6542175Y-34864509D01*
X6542181Y-34864517D01*
X6585881Y-34908217D01*
X6619366Y-34969540D01*
X6622200Y-34995898D01*
X6622200Y-58783926D01*
X6649493Y-58885789D01*
X6669597Y-58920609D01*
X6702220Y-58977113D01*
X14955687Y-67230580D01*
X15047012Y-67283307D01*
X15148873Y-67310600D01*
X15148875Y-67310600D01*
X82162225Y-67310600D01*
X82162227Y-67310600D01*
X82264088Y-67283307D01*
X82355413Y-67230580D01*
X86343880Y-63242113D01*
X86370381Y-63196212D01*
X86396607Y-63150787D01*
X86423900Y-63048927D01*
X86423900Y-39287298D01*
X86443585Y-39220259D01*
X86460219Y-39199617D01*
X86473861Y-39185975D01*
X86503920Y-39155916D01*
X86582977Y-39018984D01*
X86623136Y-38869105D01*
X86659501Y-38809446D01*
X86722348Y-38778917D01*
X86742911Y-38777200D01*
X97588945Y-38777200D01*
X97655984Y-38796885D01*
X97701739Y-38849689D01*
X97711683Y-38918847D01*
X97682658Y-38982403D01*
X97676626Y-38988881D01*
X95752526Y-40912981D01*
X95691203Y-40946466D01*
X95664845Y-40949300D01*
X95603043Y-40949300D01*
X95450316Y-40990223D01*
X95450309Y-40990226D01*
X95313390Y-41069275D01*
X95313382Y-41069281D01*
X95201581Y-41181082D01*
X95201575Y-41181090D01*
X95122526Y-41318009D01*
X95122523Y-41318016D01*
X95081600Y-41470743D01*
X95081600Y-41628857D01*
X95122344Y-41780914D01*
X95122523Y-41781583D01*
X95122526Y-41781590D01*
X95201575Y-41918509D01*
X95201579Y-41918514D01*
X95201580Y-41918516D01*
X95313384Y-42030320D01*
X95313386Y-42030321D01*
X95313390Y-42030324D01*
X95350715Y-42051873D01*
X95450316Y-42109377D01*
X95603043Y-42150300D01*
X95603045Y-42150300D01*
X95761155Y-42150300D01*
X95761157Y-42150300D01*
X95913884Y-42109377D01*
X96050816Y-42030320D01*
X96162620Y-41918516D01*
X96241677Y-41781584D01*
X96282600Y-41628857D01*
X96282600Y-41567054D01*
X96302285Y-41500015D01*
X96318914Y-41479378D01*
X97498319Y-40299972D01*
X97559642Y-40266488D01*
X97629334Y-40271472D01*
X97685267Y-40313344D01*
X97709684Y-40378808D01*
X97710000Y-40387654D01*
X97710000Y-40404057D01*
X97750193Y-40554057D01*
X97750923Y-40556783D01*
X97750926Y-40556790D01*
X97829975Y-40693709D01*
X97829979Y-40693714D01*
X97829980Y-40693716D01*
X97941784Y-40805520D01*
X97941786Y-40805521D01*
X97941790Y-40805524D01*
X98055101Y-40870943D01*
X98078716Y-40884577D01*
X98231443Y-40925500D01*
X98231445Y-40925500D01*
X98389555Y-40925500D01*
X98389557Y-40925500D01*
X98542284Y-40884577D01*
X98679216Y-40805520D01*
X98791020Y-40693716D01*
X98800283Y-40677672D01*
X98850849Y-40629455D01*
X98919456Y-40616231D01*
X98969670Y-40632283D01*
X99098712Y-40706784D01*
X99104416Y-40710077D01*
X99257143Y-40751000D01*
X99257145Y-40751000D01*
X99415255Y-40751000D01*
X99415257Y-40751000D01*
X99567984Y-40710077D01*
X99665700Y-40653660D01*
X99733600Y-40637188D01*
X99799627Y-40660041D01*
X99842818Y-40714962D01*
X99851700Y-40761048D01*
X99851700Y-56271602D01*
X99832015Y-56338641D01*
X99815381Y-56359283D01*
X99771681Y-56402982D01*
X99771675Y-56402990D01*
X99692626Y-56539909D01*
X99692623Y-56539916D01*
X99651700Y-56692643D01*
X99651700Y-56850757D01*
X99678656Y-56951356D01*
X99692623Y-57003483D01*
X99692626Y-57003490D01*
X99771675Y-57140409D01*
X99771681Y-57140417D01*
X99815381Y-57184117D01*
X99848866Y-57245440D01*
X99851700Y-57271798D01*
X99851700Y-61004926D01*
X99878993Y-61106789D01*
X99905356Y-61152450D01*
X99931720Y-61198113D01*
X99931721Y-61198114D01*
X99931722Y-61198115D01*
X102840133Y-64106525D01*
X102873618Y-64167848D01*
X102872787Y-64224131D01*
X102852400Y-64306106D01*
X102849500Y-64348879D01*
X102849500Y-65651122D01*
X102849501Y-65651125D01*
X102852399Y-65693886D01*
X102852399Y-65693887D01*
X102898360Y-65878696D01*
X102982967Y-66049292D01*
X102982969Y-66049295D01*
X103102277Y-66197721D01*
X103102278Y-66197722D01*
X103250704Y-66317030D01*
X103250707Y-66317032D01*
X103421302Y-66401639D01*
X103421303Y-66401639D01*
X103421307Y-66401641D01*
X103606111Y-66447600D01*
X103648877Y-66450500D01*
X104951122Y-66450499D01*
X104993889Y-66447600D01*
X105178693Y-66401641D01*
X105349296Y-66317030D01*
X105497722Y-66197722D01*
X105617030Y-66049296D01*
X105701641Y-65878693D01*
X105747600Y-65693889D01*
X105750500Y-65651123D01*
X105750499Y-64348878D01*
X105747600Y-64306111D01*
X105701641Y-64121307D01*
X105681691Y-64081081D01*
X105617032Y-63950707D01*
X105617030Y-63950704D01*
X105497722Y-63802278D01*
X105497721Y-63802277D01*
X105349295Y-63682969D01*
X105349292Y-63682967D01*
X105178697Y-63598360D01*
X104993892Y-63552400D01*
X104972506Y-63550950D01*
X104951123Y-63549500D01*
X104951120Y-63549500D01*
X103648877Y-63549500D01*
X103648874Y-63549501D01*
X103606113Y-63552399D01*
X103606109Y-63552400D01*
X103524131Y-63572787D01*
X103454323Y-63569863D01*
X103406525Y-63540133D01*
X100689019Y-60822626D01*
X100655534Y-60761303D01*
X100652700Y-60734945D01*
X100652700Y-58718454D01*
X100672385Y-58651415D01*
X100725189Y-58605660D01*
X100794347Y-58595716D01*
X100857903Y-58624741D01*
X100864381Y-58630773D01*
X106466674Y-64233066D01*
X106500159Y-64294389D01*
X106495175Y-64364081D01*
X106489478Y-64377041D01*
X106455767Y-64443202D01*
X106455767Y-64443204D01*
X106385216Y-64660335D01*
X106385216Y-64660338D01*
X106349500Y-64885837D01*
X106349500Y-65114162D01*
X106385215Y-65339660D01*
X106455770Y-65556803D01*
X106525621Y-65693892D01*
X106559421Y-65760228D01*
X106693621Y-65944937D01*
X106855063Y-66106379D01*
X107039772Y-66240579D01*
X107107553Y-66275115D01*
X107243196Y-66344229D01*
X107243198Y-66344229D01*
X107243201Y-66344231D01*
X107316210Y-66367953D01*
X107460339Y-66414784D01*
X107685838Y-66450500D01*
X107685843Y-66450500D01*
X107914162Y-66450500D01*
X108139660Y-66414784D01*
X108356799Y-66344231D01*
X108560228Y-66240579D01*
X108744937Y-66106379D01*
X108906379Y-65944937D01*
X109040579Y-65760228D01*
X109144231Y-65556799D01*
X109214784Y-65339660D01*
X109232590Y-65227239D01*
X109250500Y-65114162D01*
X109250500Y-64885837D01*
X109214784Y-64660339D01*
X109144229Y-64443196D01*
X109069621Y-64296770D01*
X109040579Y-64239772D01*
X108906379Y-64055063D01*
X108744937Y-63893621D01*
X108560228Y-63759421D01*
X108559209Y-63758902D01*
X108356803Y-63655770D01*
X108139660Y-63585215D01*
X107914162Y-63549500D01*
X107914157Y-63549500D01*
X107685843Y-63549500D01*
X107685838Y-63549500D01*
X107460338Y-63585216D01*
X107460335Y-63585216D01*
X107243204Y-63655767D01*
X107243202Y-63655767D01*
X107177041Y-63689478D01*
X107108371Y-63702374D01*
X107043631Y-63676097D01*
X107033066Y-63666674D01*
X101312119Y-57945726D01*
X101278634Y-57884403D01*
X101275800Y-57858045D01*
X101275800Y-55841555D01*
X101295485Y-55774516D01*
X101348289Y-55728761D01*
X101417447Y-55718817D01*
X101481003Y-55747842D01*
X101487481Y-55753874D01*
X109966673Y-64233066D01*
X110000158Y-64294389D01*
X109995174Y-64364081D01*
X109989478Y-64377040D01*
X109955771Y-64443196D01*
X109885215Y-64660339D01*
X109849500Y-64885837D01*
X109849500Y-65114162D01*
X109885215Y-65339660D01*
X109955770Y-65556803D01*
X110025621Y-65693892D01*
X110059421Y-65760228D01*
X110193621Y-65944937D01*
X110355063Y-66106379D01*
X110539772Y-66240579D01*
X110607553Y-66275115D01*
X110743196Y-66344229D01*
X110743198Y-66344229D01*
X110743201Y-66344231D01*
X110816210Y-66367953D01*
X110960339Y-66414784D01*
X111185838Y-66450500D01*
X111185843Y-66450500D01*
X111414162Y-66450500D01*
X111639660Y-66414784D01*
X111856799Y-66344231D01*
X112060228Y-66240579D01*
X112244937Y-66106379D01*
X112406379Y-65944937D01*
X112540579Y-65760228D01*
X112586519Y-65670064D01*
X112634493Y-65619269D01*
X112702314Y-65602473D01*
X112768449Y-65625010D01*
X112784685Y-65638678D01*
X113870818Y-66724810D01*
X113870820Y-66724813D01*
X113945387Y-66799380D01*
X114012118Y-66837907D01*
X114036713Y-66852107D01*
X114138574Y-66879401D01*
X114138577Y-66879401D01*
X114251623Y-66879401D01*
X114251639Y-66879400D01*
X120373825Y-66879400D01*
X120373827Y-66879400D01*
X120475688Y-66852107D01*
X120567013Y-66799380D01*
X121033068Y-66333323D01*
X121094389Y-66299840D01*
X121164080Y-66304824D01*
X121177042Y-66310521D01*
X121243196Y-66344229D01*
X121243198Y-66344229D01*
X121243201Y-66344231D01*
X121316210Y-66367953D01*
X121460339Y-66414784D01*
X121685838Y-66450500D01*
X121685843Y-66450500D01*
X121914162Y-66450500D01*
X122139660Y-66414784D01*
X122356799Y-66344231D01*
X122560228Y-66240579D01*
X122744937Y-66106379D01*
X122906379Y-65944937D01*
X123040579Y-65760228D01*
X123144231Y-65556799D01*
X123214784Y-65339660D01*
X123232590Y-65227239D01*
X123250500Y-65114162D01*
X123250500Y-64885837D01*
X123214784Y-64660339D01*
X123144229Y-64443196D01*
X123069621Y-64296770D01*
X123040579Y-64239772D01*
X122906379Y-64055063D01*
X122744937Y-63893621D01*
X122560228Y-63759421D01*
X122559209Y-63758902D01*
X122356803Y-63655770D01*
X122139660Y-63585215D01*
X121914162Y-63549500D01*
X121914157Y-63549500D01*
X121685843Y-63549500D01*
X121685838Y-63549500D01*
X121460339Y-63585215D01*
X121243196Y-63655770D01*
X121039771Y-63759421D01*
X120855061Y-63893622D01*
X120693622Y-64055061D01*
X120559421Y-64239771D01*
X120455770Y-64443196D01*
X120385215Y-64660339D01*
X120349500Y-64885837D01*
X120349500Y-65114162D01*
X120385215Y-65339660D01*
X120455771Y-65556806D01*
X120489477Y-65622957D01*
X120502373Y-65691626D01*
X120476096Y-65756366D01*
X120466674Y-65766932D01*
X120191524Y-66042082D01*
X120130204Y-66075566D01*
X120103845Y-66078400D01*
X119552776Y-66078400D01*
X119485737Y-66058715D01*
X119439982Y-66005911D01*
X119430038Y-65936753D01*
X119452456Y-65881516D01*
X119540579Y-65760228D01*
X119644231Y-65556799D01*
X119714784Y-65339660D01*
X119732590Y-65227239D01*
X119750500Y-65114162D01*
X119750500Y-64885837D01*
X119714784Y-64660339D01*
X119644229Y-64443196D01*
X119569621Y-64296770D01*
X119540579Y-64239772D01*
X119406379Y-64055063D01*
X119244937Y-63893621D01*
X119060228Y-63759421D01*
X119059209Y-63758902D01*
X118856803Y-63655770D01*
X118639660Y-63585215D01*
X118414162Y-63549500D01*
X118414157Y-63549500D01*
X118185843Y-63549500D01*
X118185838Y-63549500D01*
X117960339Y-63585215D01*
X117743196Y-63655770D01*
X117539771Y-63759421D01*
X117355061Y-63893622D01*
X117193622Y-64055061D01*
X117059421Y-64239771D01*
X116955770Y-64443196D01*
X116885215Y-64660339D01*
X116849500Y-64885837D01*
X116849500Y-65114162D01*
X116885215Y-65339660D01*
X116955770Y-65556803D01*
X117025621Y-65693892D01*
X117059421Y-65760228D01*
X117147542Y-65881516D01*
X117171022Y-65947320D01*
X117155197Y-66015374D01*
X117105092Y-66064069D01*
X117047224Y-66078400D01*
X116052776Y-66078400D01*
X115985737Y-66058715D01*
X115939982Y-66005911D01*
X115930038Y-65936753D01*
X115952456Y-65881516D01*
X116040579Y-65760228D01*
X116144231Y-65556799D01*
X116214784Y-65339660D01*
X116232590Y-65227239D01*
X116250500Y-65114162D01*
X116250500Y-64885837D01*
X116214784Y-64660339D01*
X116144229Y-64443196D01*
X116069621Y-64296770D01*
X116040579Y-64239772D01*
X115906379Y-64055063D01*
X115744937Y-63893621D01*
X115560228Y-63759421D01*
X115559209Y-63758902D01*
X115356803Y-63655770D01*
X115139660Y-63585215D01*
X114914162Y-63549500D01*
X114914157Y-63549500D01*
X114685843Y-63549500D01*
X114685838Y-63549500D01*
X114460339Y-63585215D01*
X114313818Y-63632824D01*
X114243201Y-63655769D01*
X114243198Y-63655770D01*
X114243196Y-63655771D01*
X114177040Y-63689478D01*
X114108370Y-63702373D01*
X114043631Y-63676095D01*
X114033066Y-63666673D01*
X105630970Y-55264577D01*
X105597485Y-55203254D01*
X105602469Y-55133562D01*
X105633521Y-55086736D01*
X105644078Y-55076767D01*
X105650916Y-55072820D01*
X105695877Y-55027858D01*
X105697168Y-55026640D01*
X105726777Y-55011557D01*
X105755940Y-54995634D01*
X105758601Y-54995347D01*
X105759426Y-54994928D01*
X105761018Y-54995087D01*
X105782298Y-54992800D01*
X111174025Y-54992800D01*
X111174027Y-54992800D01*
X111275888Y-54965507D01*
X111367213Y-54912780D01*
X113641936Y-52638056D01*
X113703257Y-52604573D01*
X113772949Y-52609557D01*
X113828882Y-52651429D01*
X113844548Y-52683676D01*
X113845514Y-52683277D01*
X113848622Y-52690780D01*
X113848623Y-52690784D01*
X113848624Y-52690787D01*
X113848626Y-52690790D01*
X113927675Y-52827709D01*
X113927679Y-52827714D01*
X113927680Y-52827716D01*
X114039484Y-52939520D01*
X114039486Y-52939521D01*
X114039490Y-52939524D01*
X114176409Y-53018573D01*
X114176416Y-53018577D01*
X114329143Y-53059500D01*
X114390945Y-53059500D01*
X114457984Y-53079185D01*
X114478626Y-53095819D01*
X124823056Y-63440249D01*
X124856541Y-63501572D01*
X124851557Y-63571264D01*
X124809685Y-63627197D01*
X124773696Y-63645860D01*
X124743199Y-63655769D01*
X124539771Y-63759421D01*
X124355061Y-63893622D01*
X124193622Y-64055061D01*
X124059421Y-64239771D01*
X123955770Y-64443196D01*
X123885215Y-64660339D01*
X123849500Y-64885837D01*
X123849500Y-65114162D01*
X123885215Y-65339660D01*
X123955770Y-65556803D01*
X124025621Y-65693892D01*
X124059421Y-65760228D01*
X124193621Y-65944937D01*
X124355063Y-66106379D01*
X124539772Y-66240579D01*
X124607553Y-66275115D01*
X124743196Y-66344229D01*
X124743198Y-66344229D01*
X124743201Y-66344231D01*
X124816210Y-66367953D01*
X124960339Y-66414784D01*
X125185838Y-66450500D01*
X125185843Y-66450500D01*
X125414162Y-66450500D01*
X125639660Y-66414784D01*
X125856799Y-66344231D01*
X126060228Y-66240579D01*
X126244937Y-66106379D01*
X126406379Y-65944937D01*
X126540579Y-65760228D01*
X126644231Y-65556799D01*
X126714784Y-65339660D01*
X126732590Y-65227239D01*
X126750500Y-65114162D01*
X126750500Y-64885838D01*
X126750499Y-64885836D01*
X126749371Y-64878711D01*
X133149500Y-64878711D01*
X133149500Y-65121288D01*
X133181161Y-65361785D01*
X133243947Y-65596104D01*
X133314707Y-65766932D01*
X133336776Y-65820212D01*
X133458064Y-66030289D01*
X133458066Y-66030292D01*
X133458067Y-66030293D01*
X133605733Y-66222736D01*
X133605739Y-66222743D01*
X133777256Y-66394260D01*
X133777263Y-66394266D01*
X133833100Y-66437111D01*
X133969711Y-66541936D01*
X134179788Y-66663224D01*
X134403900Y-66756054D01*
X134638211Y-66818838D01*
X134818586Y-66842584D01*
X134878711Y-66850500D01*
X134878712Y-66850500D01*
X135121289Y-66850500D01*
X135181212Y-66842611D01*
X135361789Y-66818838D01*
X135596100Y-66756054D01*
X135820212Y-66663224D01*
X136030289Y-66541936D01*
X136222738Y-66394265D01*
X136394265Y-66222738D01*
X136541936Y-66030289D01*
X136663224Y-65820212D01*
X136756054Y-65596100D01*
X136818838Y-65361789D01*
X136850500Y-65121288D01*
X136850500Y-64878712D01*
X136818838Y-64638211D01*
X136756054Y-64403900D01*
X136663224Y-64179788D01*
X136541936Y-63969711D01*
X136455620Y-63857222D01*
X136394266Y-63777263D01*
X136394260Y-63777256D01*
X136222743Y-63605739D01*
X136222736Y-63605733D01*
X136030293Y-63458067D01*
X136030292Y-63458066D01*
X136030289Y-63458064D01*
X135820212Y-63336776D01*
X135820205Y-63336773D01*
X135596104Y-63243947D01*
X135455989Y-63206403D01*
X135361789Y-63181162D01*
X135361788Y-63181161D01*
X135361785Y-63181161D01*
X135121289Y-63149500D01*
X135121288Y-63149500D01*
X134878712Y-63149500D01*
X134878711Y-63149500D01*
X134638214Y-63181161D01*
X134403895Y-63243947D01*
X134179794Y-63336773D01*
X134179785Y-63336777D01*
X134010641Y-63434433D01*
X133983632Y-63450027D01*
X133969706Y-63458067D01*
X133777263Y-63605733D01*
X133777256Y-63605739D01*
X133605739Y-63777256D01*
X133605733Y-63777263D01*
X133458067Y-63969706D01*
X133336777Y-64179785D01*
X133336773Y-64179794D01*
X133243947Y-64403895D01*
X133181161Y-64638214D01*
X133149500Y-64878711D01*
X126749371Y-64878711D01*
X126714784Y-64660339D01*
X126644229Y-64443196D01*
X126569621Y-64296770D01*
X126540579Y-64239772D01*
X126406379Y-64055063D01*
X126244937Y-63893621D01*
X126060228Y-63759421D01*
X126059209Y-63758902D01*
X125856803Y-63655770D01*
X125818153Y-63643212D01*
X125786180Y-63632823D01*
X125728506Y-63593386D01*
X125701308Y-63529027D01*
X125700500Y-63514893D01*
X125700500Y-63298075D01*
X125700500Y-63298073D01*
X125673207Y-63196213D01*
X125673207Y-63196212D01*
X125620480Y-63104887D01*
X115045019Y-52529426D01*
X115011534Y-52468103D01*
X115008700Y-52441745D01*
X115008700Y-52379945D01*
X115008700Y-52379943D01*
X114967777Y-52227216D01*
X114945309Y-52188300D01*
X114888724Y-52090290D01*
X114888718Y-52090282D01*
X114776917Y-51978481D01*
X114776909Y-51978475D01*
X114639990Y-51899426D01*
X114639987Y-51899424D01*
X114639984Y-51899423D01*
X114639980Y-51899422D01*
X114632477Y-51896314D01*
X114633284Y-51894363D01*
X114583182Y-51863821D01*
X114552655Y-51800973D01*
X114560953Y-51731598D01*
X114587255Y-51692737D01*
X125781280Y-40498713D01*
X125791345Y-40481280D01*
X125834007Y-40407387D01*
X125861300Y-40305527D01*
X125861300Y-39612398D01*
X125880985Y-39545359D01*
X125897619Y-39524717D01*
X125919177Y-39503159D01*
X125941320Y-39481016D01*
X126020377Y-39344084D01*
X126061300Y-39191357D01*
X126061300Y-39033243D01*
X126020377Y-38880516D01*
X125968704Y-38791015D01*
X125941324Y-38743590D01*
X125941318Y-38743582D01*
X125829517Y-38631781D01*
X125829509Y-38631775D01*
X125692590Y-38552726D01*
X125692586Y-38552724D01*
X125692584Y-38552723D01*
X125539857Y-38511800D01*
X125381743Y-38511800D01*
X125229016Y-38552723D01*
X125229009Y-38552726D01*
X125092090Y-38631775D01*
X125092082Y-38631781D01*
X124981781Y-38742083D01*
X124920458Y-38775568D01*
X124850766Y-38770584D01*
X124794833Y-38728712D01*
X124770416Y-38663248D01*
X124770100Y-38654402D01*
X124770100Y-31514975D01*
X124770100Y-31514973D01*
X124742807Y-31413113D01*
X124690080Y-31321787D01*
X124615513Y-31247220D01*
X120111613Y-26743320D01*
X120048718Y-26707007D01*
X120020289Y-26690593D01*
X119969357Y-26676946D01*
X119918427Y-26663300D01*
X119918426Y-26663300D01*
X119557655Y-26663300D01*
X119490616Y-26643615D01*
X119469974Y-26626981D01*
X114564636Y-21721643D01*
X124460600Y-21721643D01*
X124460600Y-21879757D01*
X124500775Y-22029690D01*
X124501523Y-22032483D01*
X124501526Y-22032490D01*
X124580575Y-22169409D01*
X124580579Y-22169414D01*
X124580580Y-22169416D01*
X124692384Y-22281220D01*
X124692386Y-22281221D01*
X124692390Y-22281224D01*
X124787485Y-22336126D01*
X124829316Y-22360277D01*
X124982043Y-22401200D01*
X125043845Y-22401200D01*
X125110884Y-22420885D01*
X125131526Y-22437519D01*
X126014687Y-23320680D01*
X126082791Y-23360000D01*
X126098394Y-23369009D01*
X126106012Y-23373407D01*
X126207873Y-23400700D01*
X126207875Y-23400700D01*
X131493069Y-23400700D01*
X131560108Y-23420385D01*
X131605863Y-23473189D01*
X131615807Y-23542347D01*
X131586782Y-23605903D01*
X131571737Y-23620551D01*
X131571279Y-23620926D01*
X131445926Y-23746279D01*
X131445923Y-23746283D01*
X131347433Y-23893683D01*
X131347428Y-23893692D01*
X131279586Y-24057479D01*
X131279584Y-24057487D01*
X131267150Y-24120000D01*
X131920735Y-24120000D01*
X131904940Y-24135795D01*
X131865444Y-24204204D01*
X131845000Y-24280504D01*
X131845000Y-24359496D01*
X131865444Y-24435796D01*
X131904940Y-24504205D01*
X131920735Y-24520000D01*
X131267150Y-24520000D01*
X131279584Y-24582512D01*
X131279586Y-24582520D01*
X131347428Y-24746307D01*
X131347433Y-24746316D01*
X131445923Y-24893716D01*
X131445926Y-24893720D01*
X131571279Y-25019073D01*
X131571283Y-25019076D01*
X131718683Y-25117566D01*
X131718692Y-25117571D01*
X131882479Y-25185413D01*
X131882487Y-25185415D01*
X132056353Y-25219999D01*
X132056357Y-25220000D01*
X132495000Y-25220000D01*
X132495000Y-24620000D01*
X132895000Y-24620000D01*
X132895000Y-25220000D01*
X133333643Y-25220000D01*
X133333646Y-25219999D01*
X133507512Y-25185415D01*
X133507520Y-25185413D01*
X133671307Y-25117571D01*
X133671316Y-25117566D01*
X133818716Y-25019076D01*
X133818720Y-25019073D01*
X133944073Y-24893720D01*
X133944076Y-24893716D01*
X134042566Y-24746316D01*
X134042571Y-24746307D01*
X134110413Y-24582520D01*
X134110415Y-24582512D01*
X134122850Y-24520000D01*
X133469265Y-24520000D01*
X133485060Y-24504205D01*
X133524556Y-24435796D01*
X133545000Y-24359496D01*
X133545000Y-24280504D01*
X133524556Y-24204204D01*
X133485060Y-24135795D01*
X133469265Y-24120000D01*
X134122850Y-24120000D01*
X135697150Y-24120000D01*
X136350735Y-24120000D01*
X136334940Y-24135795D01*
X136295444Y-24204204D01*
X136275000Y-24280504D01*
X136275000Y-24359496D01*
X136295444Y-24435796D01*
X136334940Y-24504205D01*
X136350735Y-24520000D01*
X135697150Y-24520000D01*
X135709584Y-24582512D01*
X135709586Y-24582520D01*
X135777428Y-24746307D01*
X135777433Y-24746316D01*
X135875923Y-24893716D01*
X135875926Y-24893720D01*
X136001279Y-25019073D01*
X136001283Y-25019076D01*
X136148683Y-25117566D01*
X136148692Y-25117571D01*
X136312479Y-25185413D01*
X136312487Y-25185415D01*
X136486353Y-25219999D01*
X136486357Y-25220000D01*
X136675000Y-25220000D01*
X136675000Y-24620000D01*
X137075000Y-24620000D01*
X137075000Y-25220000D01*
X137263643Y-25220000D01*
X137263646Y-25219999D01*
X137437512Y-25185415D01*
X137437520Y-25185413D01*
X137601307Y-25117571D01*
X137601316Y-25117566D01*
X137748716Y-25019076D01*
X137748720Y-25019073D01*
X137874073Y-24893720D01*
X137874076Y-24893716D01*
X137972566Y-24746316D01*
X137972571Y-24746307D01*
X138040413Y-24582520D01*
X138040415Y-24582512D01*
X138052850Y-24520000D01*
X137399265Y-24520000D01*
X137415060Y-24504205D01*
X137454556Y-24435796D01*
X137475000Y-24359496D01*
X137475000Y-24280504D01*
X137454556Y-24204204D01*
X137415060Y-24135795D01*
X137399265Y-24120000D01*
X138052850Y-24120000D01*
X138040415Y-24057487D01*
X138040413Y-24057479D01*
X137972571Y-23893692D01*
X137972566Y-23893683D01*
X137874076Y-23746283D01*
X137874073Y-23746279D01*
X137748720Y-23620926D01*
X137748716Y-23620923D01*
X137601316Y-23522433D01*
X137601307Y-23522428D01*
X137437520Y-23454586D01*
X137437512Y-23454584D01*
X137263646Y-23420000D01*
X137075000Y-23420000D01*
X137075000Y-24020000D01*
X136675000Y-24020000D01*
X136675000Y-23420000D01*
X136486353Y-23420000D01*
X136312487Y-23454584D01*
X136312479Y-23454586D01*
X136148692Y-23522428D01*
X136148683Y-23522433D01*
X136001283Y-23620923D01*
X136001279Y-23620926D01*
X135875926Y-23746279D01*
X135875923Y-23746283D01*
X135777433Y-23893683D01*
X135777428Y-23893692D01*
X135709586Y-24057479D01*
X135709584Y-24057487D01*
X135697150Y-24120000D01*
X134122850Y-24120000D01*
X134110415Y-24057487D01*
X134110413Y-24057479D01*
X134042571Y-23893692D01*
X134042566Y-23893683D01*
X133944076Y-23746283D01*
X133944073Y-23746279D01*
X133818720Y-23620926D01*
X133818716Y-23620923D01*
X133666245Y-23519045D01*
X133667050Y-23517838D01*
X133622377Y-23473942D01*
X133606926Y-23405802D01*
X133630767Y-23340126D01*
X133643003Y-23325880D01*
X133680466Y-23288417D01*
X133680469Y-23288413D01*
X133748864Y-23186054D01*
X133748871Y-23186041D01*
X133795979Y-23072310D01*
X133795982Y-23072300D01*
X133820000Y-22951559D01*
X133820000Y-22828440D01*
X133795982Y-22707699D01*
X133795979Y-22707689D01*
X133748871Y-22593958D01*
X133748864Y-22593945D01*
X133680469Y-22491586D01*
X133680466Y-22491582D01*
X133593417Y-22404533D01*
X133593413Y-22404530D01*
X133491054Y-22336135D01*
X133491041Y-22336128D01*
X133377310Y-22289020D01*
X133377300Y-22289017D01*
X133256559Y-22265000D01*
X133133443Y-22265000D01*
X133074546Y-22276715D01*
X133004955Y-22270486D01*
X132949778Y-22227623D01*
X132926534Y-22161733D01*
X132942602Y-22093736D01*
X132962671Y-22067420D01*
X133143273Y-21886818D01*
X133204596Y-21853334D01*
X133230954Y-21850500D01*
X133292755Y-21850500D01*
X133292757Y-21850500D01*
X133445484Y-21809577D01*
X133582416Y-21730520D01*
X133694220Y-21618716D01*
X133773277Y-21481784D01*
X133814200Y-21329057D01*
X133814200Y-21170943D01*
X133773277Y-21018216D01*
X133770262Y-21012993D01*
X133694224Y-20881290D01*
X133694218Y-20881282D01*
X133582417Y-20769481D01*
X133582409Y-20769475D01*
X133445490Y-20690426D01*
X133445486Y-20690424D01*
X133445484Y-20690423D01*
X133292757Y-20649500D01*
X133134643Y-20649500D01*
X132981916Y-20690423D01*
X132981909Y-20690426D01*
X132844990Y-20769475D01*
X132844982Y-20769481D01*
X132733181Y-20881282D01*
X132733175Y-20881290D01*
X132654126Y-21018209D01*
X132654123Y-21018216D01*
X132613200Y-21170943D01*
X132613200Y-21232744D01*
X132593515Y-21299783D01*
X132576881Y-21320425D01*
X131596179Y-22301126D01*
X131534856Y-22334611D01*
X131465164Y-22329627D01*
X131409231Y-22287755D01*
X131388725Y-22245542D01*
X131367577Y-22166616D01*
X131321734Y-22087212D01*
X131288524Y-22029690D01*
X131288518Y-22029682D01*
X131176717Y-21917881D01*
X131176709Y-21917875D01*
X131039790Y-21838826D01*
X131039786Y-21838824D01*
X131039784Y-21838823D01*
X130887057Y-21797900D01*
X130887056Y-21797900D01*
X130825254Y-21797900D01*
X130758215Y-21778215D01*
X130737573Y-21761581D01*
X130554019Y-21578026D01*
X130520534Y-21516703D01*
X130517700Y-21490345D01*
X130517700Y-18175998D01*
X130537385Y-18108959D01*
X130554019Y-18088317D01*
X130574736Y-18067600D01*
X130597720Y-18044616D01*
X130676777Y-17907684D01*
X130717700Y-17754957D01*
X130717700Y-17596843D01*
X130676777Y-17444116D01*
X130652364Y-17401831D01*
X130597724Y-17307190D01*
X130597718Y-17307182D01*
X130485917Y-17195381D01*
X130485909Y-17195375D01*
X130348990Y-17116326D01*
X130348986Y-17116324D01*
X130348984Y-17116323D01*
X130196257Y-17075400D01*
X130038143Y-17075400D01*
X129885416Y-17116323D01*
X129885409Y-17116326D01*
X129748490Y-17195375D01*
X129748482Y-17195381D01*
X129636681Y-17307182D01*
X129636675Y-17307190D01*
X129557626Y-17444109D01*
X129557623Y-17444116D01*
X129516700Y-17596843D01*
X129516700Y-17754957D01*
X129533980Y-17819445D01*
X129557623Y-17907683D01*
X129557626Y-17907690D01*
X129636675Y-18044609D01*
X129636681Y-18044617D01*
X129680381Y-18088317D01*
X129713866Y-18149640D01*
X129716700Y-18175998D01*
X129716700Y-21654873D01*
X129716700Y-21760327D01*
X129729895Y-21809573D01*
X129743993Y-21862189D01*
X129758214Y-21886819D01*
X129796720Y-21953513D01*
X129796721Y-21953514D01*
X129796722Y-21953515D01*
X130171181Y-22327973D01*
X130185884Y-22354900D01*
X130202477Y-22380719D01*
X130203368Y-22386919D01*
X130204666Y-22389296D01*
X130207500Y-22415654D01*
X130207500Y-22475700D01*
X130187815Y-22542739D01*
X130135011Y-22588494D01*
X130083500Y-22599700D01*
X126477855Y-22599700D01*
X126410816Y-22580015D01*
X126390174Y-22563381D01*
X125697919Y-21871126D01*
X125664434Y-21809803D01*
X125661600Y-21783445D01*
X125661600Y-21721645D01*
X125661600Y-21721643D01*
X125620677Y-21568916D01*
X125588390Y-21512993D01*
X125541624Y-21431990D01*
X125541618Y-21431982D01*
X125429817Y-21320181D01*
X125429809Y-21320175D01*
X125292890Y-21241126D01*
X125292886Y-21241124D01*
X125292884Y-21241123D01*
X125140157Y-21200200D01*
X124982043Y-21200200D01*
X124829316Y-21241123D01*
X124829309Y-21241126D01*
X124692390Y-21320175D01*
X124692382Y-21320181D01*
X124580581Y-21431982D01*
X124580575Y-21431990D01*
X124501526Y-21568909D01*
X124501523Y-21568916D01*
X124460600Y-21721643D01*
X114564636Y-21721643D01*
X111395995Y-18553002D01*
X111362510Y-18491679D01*
X111367494Y-18421987D01*
X111395991Y-18377644D01*
X111506420Y-18267216D01*
X111585477Y-18130284D01*
X111626400Y-17977557D01*
X111626400Y-17819443D01*
X111585477Y-17666716D01*
X111533212Y-17576190D01*
X111516600Y-17514191D01*
X111516600Y-15480000D01*
X131267150Y-15480000D01*
X131920735Y-15480000D01*
X131904940Y-15495795D01*
X131865444Y-15564204D01*
X131845000Y-15640504D01*
X131845000Y-15719496D01*
X131865444Y-15795796D01*
X131904940Y-15864205D01*
X131920735Y-15880000D01*
X131267150Y-15880000D01*
X131279584Y-15942512D01*
X131279586Y-15942520D01*
X131347428Y-16106307D01*
X131347433Y-16106316D01*
X131445923Y-16253716D01*
X131445926Y-16253720D01*
X131571279Y-16379073D01*
X131571283Y-16379076D01*
X131718683Y-16477566D01*
X131718692Y-16477571D01*
X131882479Y-16545413D01*
X131882487Y-16545415D01*
X132056353Y-16579999D01*
X132056357Y-16580000D01*
X132494999Y-16580000D01*
X132495000Y-16579999D01*
X132495000Y-15980000D01*
X132895000Y-15980000D01*
X132895000Y-16586000D01*
X132875315Y-16653039D01*
X132822511Y-16698794D01*
X132771000Y-16710000D01*
X132711433Y-16710000D01*
X132704811Y-16718646D01*
X132641138Y-16813940D01*
X132641128Y-16813958D01*
X132594020Y-16927689D01*
X132594017Y-16927699D01*
X132570000Y-17048440D01*
X132570000Y-17171559D01*
X132569999Y-17171559D01*
X132594017Y-17292300D01*
X132594020Y-17292310D01*
X132641128Y-17406041D01*
X132641135Y-17406054D01*
X132709530Y-17508413D01*
X132709533Y-17508417D01*
X132796582Y-17595466D01*
X132796586Y-17595469D01*
X132898945Y-17663864D01*
X132898958Y-17663871D01*
X133012689Y-17710979D01*
X133012699Y-17710982D01*
X133133440Y-17735000D01*
X133256559Y-17735000D01*
X133377300Y-17710982D01*
X133377310Y-17710979D01*
X133491041Y-17663871D01*
X133491054Y-17663864D01*
X133593413Y-17595469D01*
X133593417Y-17595466D01*
X133680466Y-17508417D01*
X133680469Y-17508413D01*
X133748864Y-17406054D01*
X133748871Y-17406041D01*
X133795979Y-17292310D01*
X133795982Y-17292300D01*
X133820000Y-17171559D01*
X133820000Y-17048440D01*
X133795982Y-16927699D01*
X133795979Y-16927689D01*
X133748871Y-16813958D01*
X133748864Y-16813945D01*
X133680469Y-16711586D01*
X133680466Y-16711582D01*
X133643002Y-16674118D01*
X133609517Y-16612795D01*
X133614501Y-16543103D01*
X133656373Y-16487170D01*
X133668363Y-16479539D01*
X133818716Y-16379076D01*
X133818720Y-16379073D01*
X133944073Y-16253720D01*
X133944076Y-16253716D01*
X134042566Y-16106316D01*
X134042571Y-16106307D01*
X134110413Y-15942520D01*
X134110415Y-15942512D01*
X134122850Y-15880000D01*
X133469265Y-15880000D01*
X133485060Y-15864205D01*
X133524556Y-15795796D01*
X133545000Y-15719496D01*
X133545000Y-15640504D01*
X133524556Y-15564204D01*
X133485060Y-15495795D01*
X133469265Y-15480000D01*
X134122850Y-15480000D01*
X135697150Y-15480000D01*
X136350735Y-15480000D01*
X136334940Y-15495795D01*
X136295444Y-15564204D01*
X136275000Y-15640504D01*
X136275000Y-15719496D01*
X136295444Y-15795796D01*
X136334940Y-15864205D01*
X136350735Y-15880000D01*
X135697150Y-15880000D01*
X135709584Y-15942512D01*
X135709586Y-15942520D01*
X135777428Y-16106307D01*
X135777433Y-16106316D01*
X135875923Y-16253716D01*
X135875926Y-16253720D01*
X136001279Y-16379073D01*
X136001283Y-16379076D01*
X136148683Y-16477566D01*
X136148692Y-16477571D01*
X136312479Y-16545413D01*
X136312487Y-16545415D01*
X136486353Y-16579999D01*
X136486357Y-16580000D01*
X136675000Y-16580000D01*
X136675000Y-15980000D01*
X137075000Y-15980000D01*
X137075000Y-16580000D01*
X137263643Y-16580000D01*
X137263646Y-16579999D01*
X137437512Y-16545415D01*
X137437520Y-16545413D01*
X137601307Y-16477571D01*
X137601316Y-16477566D01*
X137748716Y-16379076D01*
X137748720Y-16379073D01*
X137874073Y-16253720D01*
X137874076Y-16253716D01*
X137972566Y-16106316D01*
X137972571Y-16106307D01*
X138040413Y-15942520D01*
X138040415Y-15942512D01*
X138052850Y-15880000D01*
X137399265Y-15880000D01*
X137415060Y-15864205D01*
X137454556Y-15795796D01*
X137475000Y-15719496D01*
X137475000Y-15640504D01*
X137454556Y-15564204D01*
X137415060Y-15495795D01*
X137399265Y-15480000D01*
X138052850Y-15480000D01*
X138040415Y-15417487D01*
X138040413Y-15417479D01*
X137972571Y-15253692D01*
X137972566Y-15253683D01*
X137874076Y-15106283D01*
X137874073Y-15106279D01*
X137748720Y-14980926D01*
X137748716Y-14980923D01*
X137601316Y-14882433D01*
X137601307Y-14882428D01*
X137437520Y-14814586D01*
X137437512Y-14814584D01*
X137263646Y-14780000D01*
X137075000Y-14780000D01*
X137075000Y-15380000D01*
X136675000Y-15380000D01*
X136675000Y-14780000D01*
X136486353Y-14780000D01*
X136312487Y-14814584D01*
X136312479Y-14814586D01*
X136148692Y-14882428D01*
X136148683Y-14882433D01*
X136001283Y-14980923D01*
X136001279Y-14980926D01*
X135875926Y-15106279D01*
X135875923Y-15106283D01*
X135777433Y-15253683D01*
X135777428Y-15253692D01*
X135709586Y-15417479D01*
X135709584Y-15417487D01*
X135697150Y-15480000D01*
X134122850Y-15480000D01*
X134110415Y-15417487D01*
X134110413Y-15417479D01*
X134042571Y-15253692D01*
X134042566Y-15253683D01*
X133944076Y-15106283D01*
X133944073Y-15106279D01*
X133818720Y-14980926D01*
X133818716Y-14980923D01*
X133671316Y-14882433D01*
X133671307Y-14882428D01*
X133507520Y-14814586D01*
X133507512Y-14814584D01*
X133333646Y-14780000D01*
X132895000Y-14780000D01*
X132895000Y-15380000D01*
X132495000Y-15380000D01*
X132495000Y-14780000D01*
X132056353Y-14780000D01*
X131882487Y-14814584D01*
X131882479Y-14814586D01*
X131718692Y-14882428D01*
X131718683Y-14882433D01*
X131571283Y-14980923D01*
X131571279Y-14980926D01*
X131445926Y-15106279D01*
X131445923Y-15106283D01*
X131347433Y-15253683D01*
X131347428Y-15253692D01*
X131279586Y-15417479D01*
X131279584Y-15417487D01*
X131267150Y-15480000D01*
X111516600Y-15480000D01*
X111516600Y-12563373D01*
X111516599Y-12563367D01*
X111512884Y-12549503D01*
X111512883Y-12549501D01*
X111503435Y-12514239D01*
X111489307Y-12461512D01*
X111436580Y-12370187D01*
X104833325Y-5766932D01*
X104799840Y-5705609D01*
X104804824Y-5635917D01*
X104810514Y-5622970D01*
X104844231Y-5556799D01*
X104914784Y-5339660D01*
X104923783Y-5282842D01*
X104950500Y-5114162D01*
X104950500Y-4885837D01*
X104914784Y-4660339D01*
X104844229Y-4443196D01*
X104823785Y-4403073D01*
X104796172Y-4348879D01*
X105549500Y-4348879D01*
X105549500Y-5651122D01*
X105549501Y-5651125D01*
X105552399Y-5693886D01*
X105552399Y-5693887D01*
X105580359Y-5806313D01*
X105592808Y-5856374D01*
X105598360Y-5878696D01*
X105682967Y-6049292D01*
X105682969Y-6049295D01*
X105802277Y-6197721D01*
X105802278Y-6197722D01*
X105950704Y-6317030D01*
X105950707Y-6317032D01*
X106121302Y-6401639D01*
X106121303Y-6401639D01*
X106121307Y-6401641D01*
X106306111Y-6447600D01*
X106348877Y-6450500D01*
X107651122Y-6450499D01*
X107693889Y-6447600D01*
X107878693Y-6401641D01*
X108049296Y-6317030D01*
X108197722Y-6197722D01*
X108317030Y-6049296D01*
X108401641Y-5878693D01*
X108447600Y-5693889D01*
X108450500Y-5651123D01*
X108450499Y-4878711D01*
X133149500Y-4878711D01*
X133149500Y-5121288D01*
X133181161Y-5361785D01*
X133243947Y-5596104D01*
X133330503Y-5805068D01*
X133336776Y-5820212D01*
X133458064Y-6030289D01*
X133458066Y-6030292D01*
X133458067Y-6030293D01*
X133605733Y-6222736D01*
X133605739Y-6222743D01*
X133777256Y-6394260D01*
X133777263Y-6394266D01*
X133798150Y-6410293D01*
X133969711Y-6541936D01*
X134179788Y-6663224D01*
X134403900Y-6756054D01*
X134638211Y-6818838D01*
X134818586Y-6842584D01*
X134878711Y-6850500D01*
X134878712Y-6850500D01*
X135121289Y-6850500D01*
X135169388Y-6844167D01*
X135361789Y-6818838D01*
X135596100Y-6756054D01*
X135820212Y-6663224D01*
X136030289Y-6541936D01*
X136222738Y-6394265D01*
X136394265Y-6222738D01*
X136541936Y-6030289D01*
X136663224Y-5820212D01*
X136756054Y-5596100D01*
X136818838Y-5361789D01*
X136850500Y-5121288D01*
X136850500Y-4878712D01*
X136818838Y-4638211D01*
X136756054Y-4403900D01*
X136755711Y-4403073D01*
X136733263Y-4348877D01*
X136663224Y-4179788D01*
X136541936Y-3969711D01*
X136481018Y-3890321D01*
X136394266Y-3777263D01*
X136394260Y-3777256D01*
X136222743Y-3605739D01*
X136222736Y-3605733D01*
X136030293Y-3458067D01*
X136030292Y-3458066D01*
X136030289Y-3458064D01*
X135820212Y-3336776D01*
X135820205Y-3336773D01*
X135596104Y-3243947D01*
X135361785Y-3181161D01*
X135121289Y-3149500D01*
X135121288Y-3149500D01*
X134878712Y-3149500D01*
X134878711Y-3149500D01*
X134638214Y-3181161D01*
X134403895Y-3243947D01*
X134179794Y-3336773D01*
X134179785Y-3336777D01*
X133969706Y-3458067D01*
X133777263Y-3605733D01*
X133777256Y-3605739D01*
X133605739Y-3777256D01*
X133605733Y-3777263D01*
X133458067Y-3969706D01*
X133336777Y-4179785D01*
X133336773Y-4179794D01*
X133243947Y-4403895D01*
X133181161Y-4638214D01*
X133149500Y-4878711D01*
X108450499Y-4878711D01*
X108450499Y-4348878D01*
X108447600Y-4306111D01*
X108401641Y-4121307D01*
X108368786Y-4055061D01*
X108317032Y-3950707D01*
X108317030Y-3950704D01*
X108197722Y-3802278D01*
X108197721Y-3802277D01*
X108049295Y-3682969D01*
X108049292Y-3682967D01*
X107878697Y-3598360D01*
X107693892Y-3552400D01*
X107671547Y-3550885D01*
X107651123Y-3549500D01*
X107651120Y-3549500D01*
X106348877Y-3549500D01*
X106348874Y-3549501D01*
X106306113Y-3552399D01*
X106306112Y-3552399D01*
X106121303Y-3598360D01*
X105950707Y-3682967D01*
X105950704Y-3682969D01*
X105802278Y-3802277D01*
X105802277Y-3802278D01*
X105682969Y-3950704D01*
X105682967Y-3950707D01*
X105598360Y-4121302D01*
X105552400Y-4306107D01*
X105549500Y-4348879D01*
X104796172Y-4348879D01*
X104740578Y-4239771D01*
X104606379Y-4055063D01*
X104444937Y-3893621D01*
X104260228Y-3759421D01*
X104245363Y-3751847D01*
X104056803Y-3655770D01*
X103839660Y-3585215D01*
X103614162Y-3549500D01*
X103614157Y-3549500D01*
X103385843Y-3549500D01*
X103385838Y-3549500D01*
X103160339Y-3585215D01*
X102991136Y-3640193D01*
X102943201Y-3655769D01*
X102943198Y-3655770D01*
X102943196Y-3655771D01*
X102877040Y-3689478D01*
X102808370Y-3702373D01*
X102743631Y-3676095D01*
X102733066Y-3666673D01*
X101876615Y-2810222D01*
X101876613Y-2810220D01*
X101830950Y-2783856D01*
X101785289Y-2757493D01*
X101734357Y-2743846D01*
X101683427Y-2730200D01*
X86816573Y-2730200D01*
X86714713Y-2757493D01*
X86714710Y-2757494D01*
X86660553Y-2788762D01*
X86629286Y-2806814D01*
X86629283Y-2806816D01*
X86623384Y-2810221D01*
X85766932Y-3666673D01*
X85705609Y-3700158D01*
X85635917Y-3695174D01*
X85622957Y-3689477D01*
X85556806Y-3655771D01*
X85339660Y-3585215D01*
X85114162Y-3549500D01*
X85114157Y-3549500D01*
X84885843Y-3549500D01*
X84885838Y-3549500D01*
X84660339Y-3585215D01*
X84443196Y-3655770D01*
X84239771Y-3759421D01*
X84055061Y-3893622D01*
X83893622Y-4055061D01*
X83759421Y-4239771D01*
X83655770Y-4443196D01*
X83585215Y-4660339D01*
X83549500Y-4885837D01*
X83549500Y-5114162D01*
X83585215Y-5339660D01*
X83655770Y-5556803D01*
X83736371Y-5714990D01*
X83759421Y-5760228D01*
X83893621Y-5944937D01*
X84055063Y-6106379D01*
X84239772Y-6240579D01*
X84335884Y-6289550D01*
X84443196Y-6344229D01*
X84443198Y-6344229D01*
X84443201Y-6344231D01*
X84559592Y-6382049D01*
X84660339Y-6414784D01*
X84885838Y-6450500D01*
X84885843Y-6450500D01*
X85114162Y-6450500D01*
X85339660Y-6414784D01*
X85353482Y-6410293D01*
X85556799Y-6344231D01*
X85760228Y-6240579D01*
X85944937Y-6106379D01*
X86106379Y-5944937D01*
X86240579Y-5760228D01*
X86344231Y-5556799D01*
X86414784Y-5339660D01*
X86423783Y-5282842D01*
X86450500Y-5114162D01*
X86450500Y-4885837D01*
X86414784Y-4660339D01*
X86344229Y-4443196D01*
X86310521Y-4377042D01*
X86297625Y-4308373D01*
X86323901Y-4243633D01*
X86333316Y-4233076D01*
X86998874Y-3567519D01*
X87025801Y-3552815D01*
X87051620Y-3536223D01*
X87057820Y-3535331D01*
X87060197Y-3534034D01*
X87086555Y-3531200D01*
X87287330Y-3531200D01*
X87354369Y-3550885D01*
X87400124Y-3603689D01*
X87410068Y-3672847D01*
X87381043Y-3736403D01*
X87365017Y-3751847D01*
X87302278Y-3802277D01*
X87302277Y-3802278D01*
X87182969Y-3950704D01*
X87182967Y-3950707D01*
X87098360Y-4121302D01*
X87052400Y-4306107D01*
X87049500Y-4348879D01*
X87049500Y-5651122D01*
X87049501Y-5651125D01*
X87052399Y-5693886D01*
X87052399Y-5693887D01*
X87080359Y-5806313D01*
X87092808Y-5856374D01*
X87098360Y-5878696D01*
X87182967Y-6049292D01*
X87182969Y-6049295D01*
X87302277Y-6197721D01*
X87302278Y-6197722D01*
X87450704Y-6317030D01*
X87450707Y-6317032D01*
X87621302Y-6401639D01*
X87621303Y-6401639D01*
X87621307Y-6401641D01*
X87806111Y-6447600D01*
X87848877Y-6450500D01*
X89151122Y-6450499D01*
X89193889Y-6447600D01*
X89378693Y-6401641D01*
X89549296Y-6317030D01*
X89697722Y-6197722D01*
X89817030Y-6049296D01*
X89901641Y-5878693D01*
X89947600Y-5693889D01*
X89950500Y-5651123D01*
X89950499Y-4348878D01*
X89947600Y-4306111D01*
X89901641Y-4121307D01*
X89868786Y-4055061D01*
X89817032Y-3950707D01*
X89817030Y-3950704D01*
X89697722Y-3802278D01*
X89697721Y-3802277D01*
X89634983Y-3751847D01*
X89595064Y-3694504D01*
X89592484Y-3624682D01*
X89628062Y-3564549D01*
X89690503Y-3533197D01*
X89712670Y-3531200D01*
X93540745Y-3531200D01*
X93607784Y-3550885D01*
X93653539Y-3603689D01*
X93663483Y-3672847D01*
X93634458Y-3736403D01*
X93628426Y-3742881D01*
X81743431Y-15627875D01*
X81682108Y-15661360D01*
X81612416Y-15656376D01*
X81556483Y-15614504D01*
X81535976Y-15572290D01*
X81522077Y-15520416D01*
X81475615Y-15439940D01*
X81443024Y-15383490D01*
X81443018Y-15383482D01*
X81331217Y-15271681D01*
X81331209Y-15271675D01*
X81194290Y-15192626D01*
X81194286Y-15192624D01*
X81194284Y-15192623D01*
X81041557Y-15151700D01*
X80883443Y-15151700D01*
X80730716Y-15192623D01*
X80730709Y-15192626D01*
X80593790Y-15271675D01*
X80593782Y-15271681D01*
X80481981Y-15383482D01*
X80481975Y-15383490D01*
X80402926Y-15520409D01*
X80402923Y-15520416D01*
X80362000Y-15673143D01*
X80362000Y-15734945D01*
X80342315Y-15801984D01*
X80325681Y-15822626D01*
X69985726Y-26162581D01*
X69924403Y-26196066D01*
X69898045Y-26198900D01*
X69054298Y-26198900D01*
X68987259Y-26179215D01*
X68966617Y-26162581D01*
X68922917Y-26118881D01*
X68922909Y-26118875D01*
X68785990Y-26039826D01*
X68785986Y-26039824D01*
X68785984Y-26039823D01*
X68633257Y-25998900D01*
X68475143Y-25998900D01*
X68322416Y-26039823D01*
X68322409Y-26039826D01*
X68185490Y-26118875D01*
X68185482Y-26118881D01*
X68073681Y-26230682D01*
X68073675Y-26230690D01*
X67994626Y-26367609D01*
X67994623Y-26367616D01*
X67953700Y-26520343D01*
X67953700Y-26678457D01*
X67981154Y-26780915D01*
X67994623Y-26831183D01*
X67994626Y-26831190D01*
X68073675Y-26968109D01*
X68073679Y-26968114D01*
X68073680Y-26968116D01*
X68185484Y-27079920D01*
X68185486Y-27079921D01*
X68185490Y-27079924D01*
X68292676Y-27141807D01*
X68322416Y-27158977D01*
X68473061Y-27199342D01*
X68532718Y-27235705D01*
X68560738Y-27287020D01*
X68594742Y-27413921D01*
X68599823Y-27432883D01*
X68599826Y-27432890D01*
X68678875Y-27569809D01*
X68678879Y-27569814D01*
X68678880Y-27569816D01*
X68790684Y-27681620D01*
X68790686Y-27681621D01*
X68790690Y-27681624D01*
X68862036Y-27722815D01*
X68927616Y-27760677D01*
X69080343Y-27801600D01*
X69080345Y-27801600D01*
X69238455Y-27801600D01*
X69238457Y-27801600D01*
X69391184Y-27760677D01*
X69528116Y-27681620D01*
X69571817Y-27637919D01*
X69633140Y-27604434D01*
X69659498Y-27601600D01*
X71668125Y-27601600D01*
X71668127Y-27601600D01*
X71769988Y-27574307D01*
X71861313Y-27521580D01*
X73396273Y-25986618D01*
X73457596Y-25953134D01*
X73483954Y-25950300D01*
X73545755Y-25950300D01*
X73545757Y-25950300D01*
X73698484Y-25909377D01*
X73835416Y-25830320D01*
X73947220Y-25718516D01*
X74026277Y-25581584D01*
X74067200Y-25428857D01*
X74067200Y-25270743D01*
X74026277Y-25118016D01*
X73998505Y-25069913D01*
X73947224Y-24981090D01*
X73947218Y-24981082D01*
X73835417Y-24869281D01*
X73835409Y-24869275D01*
X73698490Y-24790226D01*
X73698486Y-24790224D01*
X73698484Y-24790223D01*
X73545757Y-24749300D01*
X73387643Y-24749300D01*
X73234916Y-24790223D01*
X73234909Y-24790226D01*
X73097990Y-24869275D01*
X73097982Y-24869281D01*
X72986181Y-24981082D01*
X72986175Y-24981090D01*
X72907126Y-25118009D01*
X72907123Y-25118016D01*
X72866200Y-25270743D01*
X72866200Y-25332545D01*
X72846515Y-25399584D01*
X72829881Y-25420226D01*
X71485826Y-26764281D01*
X71424503Y-26797766D01*
X71398145Y-26800600D01*
X70779855Y-26800600D01*
X70712816Y-26780915D01*
X70667061Y-26728111D01*
X70657117Y-26658953D01*
X70686142Y-26595397D01*
X70692174Y-26588919D01*
X72511141Y-24769952D01*
X78019631Y-19261460D01*
X78080952Y-19227977D01*
X78150644Y-19232961D01*
X78197613Y-19267688D01*
X78198833Y-19266469D01*
X78204580Y-19272216D01*
X78316384Y-19384020D01*
X78316386Y-19384021D01*
X78316390Y-19384024D01*
X78438212Y-19454357D01*
X78453316Y-19463077D01*
X78606043Y-19504000D01*
X78667845Y-19504000D01*
X78734884Y-19523685D01*
X78744892Y-19531749D01*
X78745137Y-19531431D01*
X78751583Y-19536377D01*
X78751585Y-19536378D01*
X78751587Y-19536380D01*
X78842913Y-19589107D01*
X78944773Y-19616400D01*
X78944775Y-19616400D01*
X81936725Y-19616400D01*
X81936727Y-19616400D01*
X82038588Y-19589107D01*
X82129913Y-19536380D01*
X84864382Y-16801910D01*
X84865643Y-16801221D01*
X84866362Y-16799974D01*
X84896208Y-16784532D01*
X84925703Y-16768427D01*
X84927139Y-16768529D01*
X84928418Y-16767868D01*
X84961869Y-16771013D01*
X84995395Y-16773411D01*
X84996548Y-16774274D01*
X84997981Y-16774409D01*
X85024424Y-16795142D01*
X85051328Y-16815283D01*
X85052197Y-16816919D01*
X85052964Y-16817520D01*
X85056503Y-16825019D01*
X85069182Y-16848867D01*
X85070670Y-16853147D01*
X85081023Y-16891784D01*
X85088772Y-16905207D01*
X85092632Y-16916306D01*
X85093792Y-16939940D01*
X85099370Y-16962934D01*
X85095473Y-16974191D01*
X85096058Y-16986092D01*
X85084255Y-17006601D01*
X85076517Y-17028961D01*
X85063192Y-17044713D01*
X81379478Y-20728428D01*
X81318155Y-20761913D01*
X81248463Y-20756929D01*
X81192530Y-20715057D01*
X81172024Y-20672843D01*
X81165077Y-20646916D01*
X81088066Y-20513527D01*
X81086024Y-20509990D01*
X81086018Y-20509982D01*
X80974217Y-20398181D01*
X80974209Y-20398175D01*
X80837290Y-20319126D01*
X80837286Y-20319124D01*
X80837284Y-20319123D01*
X80684557Y-20278200D01*
X80526443Y-20278200D01*
X80373716Y-20319123D01*
X80373709Y-20319126D01*
X80236790Y-20398175D01*
X80236782Y-20398181D01*
X80124981Y-20509982D01*
X80124975Y-20509990D01*
X80045926Y-20646909D01*
X80045923Y-20646916D01*
X80005000Y-20799643D01*
X80005000Y-20861445D01*
X79985315Y-20928484D01*
X79968681Y-20949126D01*
X68506326Y-32411481D01*
X68445003Y-32444966D01*
X68418645Y-32447800D01*
X65962673Y-32447800D01*
X65860810Y-32475093D01*
X65769487Y-32527820D01*
X65769484Y-32527822D01*
X65296365Y-33000940D01*
X65235042Y-33034425D01*
X65165350Y-33029441D01*
X65109417Y-32987569D01*
X65106383Y-32983333D01*
X65102205Y-32977234D01*
X65022765Y-32897794D01*
X64919992Y-32852415D01*
X64894865Y-32849500D01*
X63105143Y-32849500D01*
X63105117Y-32849502D01*
X63080012Y-32852413D01*
X63080008Y-32852415D01*
X62977235Y-32897793D01*
X62897794Y-32977234D01*
X62852415Y-33080006D01*
X62852415Y-33080008D01*
X62849500Y-33105131D01*
X62849500Y-33423800D01*
X62829815Y-33490839D01*
X62777011Y-33536594D01*
X62725500Y-33547800D01*
X61652673Y-33547800D01*
X61601484Y-33561515D01*
X61531635Y-33559850D01*
X61481713Y-33529420D01*
X59275164Y-31322871D01*
X59241679Y-31261548D01*
X59246663Y-31191856D01*
X59288535Y-31135923D01*
X59324528Y-31117259D01*
X59481633Y-31066213D01*
X59481639Y-31066211D01*
X59642994Y-30983996D01*
X59789501Y-30877553D01*
X59917553Y-30749501D01*
X60023996Y-30602994D01*
X60106211Y-30441639D01*
X60109944Y-30430149D01*
X60139759Y-30338388D01*
X60179196Y-30280712D01*
X60243554Y-30253513D01*
X60312401Y-30265427D01*
X60363877Y-30312671D01*
X60375621Y-30338386D01*
X60421582Y-30479837D01*
X60510904Y-30655143D01*
X60566076Y-30731079D01*
X60566077Y-30731080D01*
X61111980Y-30185176D01*
X61114075Y-30192993D01*
X61179901Y-30307007D01*
X61272993Y-30400099D01*
X61387007Y-30465925D01*
X61394822Y-30468019D01*
X60848918Y-31013922D01*
X60924856Y-31069095D01*
X61100164Y-31158418D01*
X61287294Y-31219221D01*
X61481618Y-31250000D01*
X61678382Y-31250000D01*
X61872705Y-31219221D01*
X62059835Y-31158418D01*
X62235143Y-31069095D01*
X62311079Y-31013922D01*
X62311080Y-31013921D01*
X61765178Y-30468019D01*
X61772993Y-30465925D01*
X61887007Y-30400099D01*
X61980099Y-30307007D01*
X62045925Y-30192993D01*
X62048019Y-30185177D01*
X62593921Y-30731080D01*
X62593922Y-30731079D01*
X62649095Y-30655143D01*
X62738418Y-30479835D01*
X62799221Y-30292705D01*
X62830000Y-30098382D01*
X62830000Y-29901617D01*
X62799221Y-29707294D01*
X62738418Y-29520164D01*
X62649095Y-29344856D01*
X62593922Y-29268919D01*
X62593922Y-29268918D01*
X62048018Y-29814821D01*
X62045925Y-29807007D01*
X61980099Y-29692993D01*
X61887007Y-29599901D01*
X61772993Y-29534075D01*
X61765177Y-29531980D01*
X62311080Y-28986077D01*
X62311079Y-28986076D01*
X62235143Y-28930904D01*
X62059835Y-28841581D01*
X61872705Y-28780778D01*
X61678382Y-28750000D01*
X61481618Y-28750000D01*
X61287294Y-28780778D01*
X61100164Y-28841581D01*
X60924855Y-28930905D01*
X60924846Y-28930911D01*
X60848919Y-28986075D01*
X60848918Y-28986076D01*
X61394823Y-29531980D01*
X61387007Y-29534075D01*
X61272993Y-29599901D01*
X61179901Y-29692993D01*
X61114075Y-29807007D01*
X61111980Y-29814822D01*
X60566076Y-29268918D01*
X60566075Y-29268919D01*
X60510911Y-29344846D01*
X60510905Y-29344855D01*
X60421581Y-29520162D01*
X60375621Y-29661613D01*
X60336183Y-29719288D01*
X60271824Y-29746486D01*
X60202978Y-29734571D01*
X60151502Y-29687327D01*
X60139759Y-29661611D01*
X60106213Y-29558366D01*
X60106211Y-29558360D01*
X60066340Y-29480111D01*
X60023996Y-29397006D01*
X59988551Y-29348220D01*
X59917558Y-29250505D01*
X59917554Y-29250500D01*
X59789499Y-29122445D01*
X59789494Y-29122441D01*
X59642997Y-29016006D01*
X59642996Y-29016005D01*
X59642994Y-29016004D01*
X59584257Y-28986076D01*
X59481639Y-28933788D01*
X59481636Y-28933787D01*
X59309410Y-28877829D01*
X59130551Y-28849500D01*
X59130546Y-28849500D01*
X58949454Y-28849500D01*
X58949449Y-28849500D01*
X58770589Y-28877829D01*
X58598363Y-28933787D01*
X58598360Y-28933788D01*
X58437002Y-29016006D01*
X58290505Y-29122441D01*
X58290500Y-29122445D01*
X58162445Y-29250500D01*
X58162441Y-29250505D01*
X58056006Y-29397002D01*
X57973787Y-29558363D01*
X57972517Y-29561431D01*
X57971721Y-29562417D01*
X57971577Y-29562702D01*
X57971517Y-29562671D01*
X57971267Y-29562981D01*
X57970993Y-29564955D01*
X57949442Y-29590064D01*
X57928676Y-29615834D01*
X57926785Y-29616463D01*
X57925488Y-29617975D01*
X57893775Y-29627450D01*
X57862382Y-29637899D01*
X57859848Y-29637586D01*
X57858543Y-29637977D01*
X57851020Y-29636499D01*
X57823584Y-29633119D01*
X57810911Y-29629463D01*
X57806287Y-29626793D01*
X57741279Y-29609374D01*
X57740127Y-29609042D01*
X57711594Y-29590895D01*
X57682745Y-29573310D01*
X57682208Y-29572205D01*
X57681171Y-29571546D01*
X57666975Y-29540846D01*
X57652216Y-29510463D01*
X57652059Y-29508589D01*
X57651846Y-29508128D01*
X57651955Y-29507341D01*
X57650499Y-29489901D01*
X57650499Y-29105143D01*
X57650499Y-29105136D01*
X57650032Y-29101107D01*
X57647586Y-29080012D01*
X57647585Y-29080010D01*
X57647585Y-29080009D01*
X57602206Y-28977235D01*
X57522765Y-28897794D01*
X57503811Y-28889425D01*
X57419992Y-28852415D01*
X57394865Y-28849500D01*
X55605143Y-28849500D01*
X55605117Y-28849502D01*
X55580012Y-28852413D01*
X55580008Y-28852415D01*
X55477235Y-28897793D01*
X55477234Y-28897794D01*
X55462081Y-28912948D01*
X55400758Y-28946433D01*
X55331066Y-28941449D01*
X55275133Y-28899577D01*
X55250716Y-28834113D01*
X55250400Y-28825267D01*
X55250400Y-22392554D01*
X55259044Y-22363113D01*
X55265568Y-22333127D01*
X55269322Y-22328111D01*
X55270085Y-22325515D01*
X55286714Y-22304878D01*
X55988188Y-21603404D01*
X56049507Y-21569922D01*
X56119198Y-21574906D01*
X56175132Y-21616777D01*
X56193796Y-21652769D01*
X56241582Y-21799837D01*
X56330904Y-21975143D01*
X56386076Y-22051079D01*
X56386076Y-22051080D01*
X56931980Y-21505175D01*
X56934075Y-21512993D01*
X56999901Y-21627007D01*
X57092993Y-21720099D01*
X57207007Y-21785925D01*
X57214822Y-21788019D01*
X56668918Y-22333922D01*
X56744856Y-22389095D01*
X56922315Y-22479515D01*
X56973111Y-22527489D01*
X56989906Y-22595310D01*
X56967369Y-22661445D01*
X56922315Y-22700485D01*
X56744855Y-22790905D01*
X56744846Y-22790911D01*
X56668919Y-22846075D01*
X56668918Y-22846076D01*
X57214823Y-23391980D01*
X57207007Y-23394075D01*
X57092993Y-23459901D01*
X56999901Y-23552993D01*
X56934075Y-23667007D01*
X56931980Y-23674822D01*
X56386076Y-23128918D01*
X56386075Y-23128919D01*
X56330911Y-23204846D01*
X56330905Y-23204855D01*
X56241581Y-23380164D01*
X56180778Y-23567294D01*
X56150000Y-23761617D01*
X56150000Y-23958382D01*
X56180778Y-24152705D01*
X56241581Y-24339835D01*
X56330904Y-24515143D01*
X56386076Y-24591079D01*
X56386077Y-24591080D01*
X56931980Y-24045176D01*
X56934075Y-24052993D01*
X56999901Y-24167007D01*
X57092993Y-24260099D01*
X57207007Y-24325925D01*
X57214822Y-24328019D01*
X56668918Y-24873922D01*
X56744856Y-24929095D01*
X56922315Y-25019515D01*
X56973111Y-25067489D01*
X56989906Y-25135310D01*
X56967369Y-25201445D01*
X56922315Y-25240485D01*
X56744855Y-25330905D01*
X56744846Y-25330911D01*
X56668919Y-25386075D01*
X56668918Y-25386076D01*
X57214823Y-25931980D01*
X57207007Y-25934075D01*
X57092993Y-25999901D01*
X56999901Y-26092993D01*
X56934075Y-26207007D01*
X56931980Y-26214822D01*
X56386076Y-25668918D01*
X56386075Y-25668919D01*
X56330911Y-25744846D01*
X56330905Y-25744855D01*
X56241581Y-25920164D01*
X56180778Y-26107294D01*
X56150000Y-26301617D01*
X56150000Y-26498382D01*
X56180778Y-26692705D01*
X56241581Y-26879835D01*
X56330904Y-27055143D01*
X56386076Y-27131079D01*
X56386077Y-27131080D01*
X56931980Y-26585176D01*
X56934075Y-26592993D01*
X56999901Y-26707007D01*
X57092993Y-26800099D01*
X57207007Y-26865925D01*
X57214822Y-26868019D01*
X56668918Y-27413922D01*
X56744856Y-27469095D01*
X56920164Y-27558418D01*
X57107294Y-27619221D01*
X57301618Y-27650000D01*
X57498382Y-27650000D01*
X57692705Y-27619221D01*
X57879835Y-27558418D01*
X58055143Y-27469095D01*
X58131079Y-27413922D01*
X58131080Y-27413921D01*
X57585178Y-26868019D01*
X57592993Y-26865925D01*
X57707007Y-26800099D01*
X57800099Y-26707007D01*
X57865925Y-26592993D01*
X57868019Y-26585177D01*
X58413921Y-27131080D01*
X58413922Y-27131079D01*
X58469095Y-27055143D01*
X58558418Y-26879835D01*
X58619221Y-26692705D01*
X58650000Y-26498382D01*
X58650000Y-26301617D01*
X58619221Y-26107294D01*
X58558418Y-25920164D01*
X58469095Y-25744856D01*
X58413922Y-25668919D01*
X58413922Y-25668918D01*
X57868018Y-26214821D01*
X57865925Y-26207007D01*
X57800099Y-26092993D01*
X57707007Y-25999901D01*
X57592993Y-25934075D01*
X57585177Y-25931980D01*
X58131080Y-25386077D01*
X58131079Y-25386076D01*
X58055141Y-25330902D01*
X57877685Y-25240485D01*
X57826888Y-25192511D01*
X57810093Y-25124690D01*
X57832630Y-25058555D01*
X57877685Y-25019515D01*
X58055140Y-24929097D01*
X58055141Y-24929097D01*
X58131079Y-24873922D01*
X58131080Y-24873921D01*
X57585178Y-24328019D01*
X57592993Y-24325925D01*
X57707007Y-24260099D01*
X57800099Y-24167007D01*
X57865925Y-24052993D01*
X57868019Y-24045177D01*
X58413921Y-24591080D01*
X58413922Y-24591079D01*
X58469095Y-24515143D01*
X58558418Y-24339835D01*
X58619221Y-24152705D01*
X58650000Y-23958382D01*
X58650000Y-23761617D01*
X58619221Y-23567294D01*
X58558418Y-23380164D01*
X58469095Y-23204856D01*
X58413922Y-23128919D01*
X58413922Y-23128918D01*
X57868018Y-23674821D01*
X57865925Y-23667007D01*
X57800099Y-23552993D01*
X57707007Y-23459901D01*
X57592993Y-23394075D01*
X57585177Y-23391980D01*
X58131080Y-22846077D01*
X58131079Y-22846076D01*
X58055141Y-22790902D01*
X57877685Y-22700485D01*
X57826888Y-22652511D01*
X57810093Y-22584690D01*
X57832630Y-22518555D01*
X57877685Y-22479515D01*
X58055140Y-22389097D01*
X58055141Y-22389097D01*
X58131079Y-22333922D01*
X58131080Y-22333921D01*
X57585178Y-21788019D01*
X57592993Y-21785925D01*
X57707007Y-21720099D01*
X57800099Y-21627007D01*
X57865925Y-21512993D01*
X57868019Y-21505177D01*
X58413922Y-22051080D01*
X58413922Y-22051079D01*
X58469095Y-21975143D01*
X58558418Y-21799835D01*
X58619221Y-21612705D01*
X58650000Y-21418382D01*
X58650000Y-21221617D01*
X58619221Y-21027294D01*
X58558418Y-20840164D01*
X58469095Y-20664855D01*
X58456403Y-20647387D01*
X58432922Y-20581581D01*
X58448746Y-20513527D01*
X58498851Y-20464831D01*
X58556720Y-20450500D01*
X60887325Y-20450500D01*
X60887327Y-20450500D01*
X60989188Y-20423207D01*
X61080513Y-20370480D01*
X67979373Y-13471618D01*
X68040696Y-13438134D01*
X68067054Y-13435300D01*
X68128855Y-13435300D01*
X68128857Y-13435300D01*
X68281584Y-13394377D01*
X68418516Y-13315320D01*
X68530320Y-13203516D01*
X68609377Y-13066584D01*
X68650300Y-12913857D01*
X68650300Y-12755743D01*
X68609377Y-12603016D01*
X68579873Y-12551913D01*
X68530324Y-12466090D01*
X68530318Y-12466082D01*
X68418517Y-12354281D01*
X68418509Y-12354275D01*
X68281590Y-12275226D01*
X68281586Y-12275224D01*
X68281584Y-12275223D01*
X68128857Y-12234300D01*
X67970743Y-12234300D01*
X67818016Y-12275223D01*
X67818009Y-12275226D01*
X67681090Y-12354275D01*
X67681082Y-12354281D01*
X67569281Y-12466082D01*
X67569275Y-12466090D01*
X67490226Y-12603009D01*
X67490223Y-12603016D01*
X67449300Y-12755743D01*
X67449300Y-12817545D01*
X67429615Y-12884584D01*
X67412981Y-12905226D01*
X60705026Y-19613181D01*
X60643703Y-19646666D01*
X60617345Y-19649500D01*
X58433733Y-19649500D01*
X58366694Y-19629815D01*
X58320939Y-19577011D01*
X58310995Y-19507853D01*
X58333414Y-19452615D01*
X58382972Y-19384403D01*
X58383996Y-19382994D01*
X58466211Y-19221639D01*
X58522171Y-19049409D01*
X58546662Y-18894780D01*
X58550500Y-18870551D01*
X58550500Y-18689448D01*
X58528888Y-18553002D01*
X58522171Y-18510591D01*
X58482940Y-18389849D01*
X58466212Y-18338363D01*
X58466211Y-18338360D01*
X58437740Y-18282484D01*
X58383996Y-18177006D01*
X58319560Y-18088317D01*
X58277558Y-18030505D01*
X58277554Y-18030500D01*
X58149499Y-17902445D01*
X58149494Y-17902441D01*
X58002997Y-17796006D01*
X58002996Y-17796005D01*
X58002994Y-17796004D01*
X57868205Y-17727325D01*
X57857140Y-17716875D01*
X57843297Y-17710553D01*
X57832255Y-17693372D01*
X57817409Y-17679350D01*
X57813167Y-17663670D01*
X57805523Y-17651775D01*
X57800500Y-17616840D01*
X57800500Y-17403159D01*
X57820185Y-17336120D01*
X57868202Y-17292675D01*
X58002994Y-17223996D01*
X58149501Y-17117553D01*
X58277553Y-16989501D01*
X58383996Y-16842994D01*
X58466211Y-16681639D01*
X58522171Y-16509409D01*
X58542814Y-16379073D01*
X58550500Y-16330551D01*
X58550500Y-16149448D01*
X58530461Y-16022933D01*
X58522171Y-15970591D01*
X58469443Y-15808307D01*
X58466212Y-15798363D01*
X58466211Y-15798360D01*
X58433899Y-15734945D01*
X58383996Y-15637006D01*
X58299289Y-15520416D01*
X58277558Y-15490505D01*
X58277554Y-15490500D01*
X58149499Y-15362445D01*
X58149494Y-15362441D01*
X58002997Y-15256006D01*
X58002996Y-15256005D01*
X58002994Y-15256004D01*
X57887585Y-15197200D01*
X57868205Y-15187325D01*
X57857140Y-15176875D01*
X57843297Y-15170553D01*
X57832255Y-15153372D01*
X57817409Y-15139350D01*
X57813167Y-15123670D01*
X57805523Y-15111775D01*
X57800500Y-15076840D01*
X57800500Y-14974499D01*
X57820185Y-14907460D01*
X57872989Y-14861705D01*
X57924500Y-14850499D01*
X58294856Y-14850499D01*
X58294864Y-14850499D01*
X58294879Y-14850497D01*
X58294882Y-14850497D01*
X58319987Y-14847586D01*
X58319988Y-14847585D01*
X58319991Y-14847585D01*
X58422765Y-14802206D01*
X58502206Y-14722765D01*
X58547585Y-14619991D01*
X58550500Y-14594865D01*
X58550499Y-12805136D01*
X58550497Y-12805117D01*
X58547586Y-12780012D01*
X58547585Y-12780010D01*
X58547585Y-12780009D01*
X58502206Y-12677235D01*
X58422765Y-12597794D01*
X58344809Y-12563373D01*
X58319992Y-12552415D01*
X58294865Y-12549500D01*
X56505143Y-12549500D01*
X56505117Y-12549502D01*
X56480012Y-12552413D01*
X56480008Y-12552415D01*
X56377235Y-12597793D01*
X56297794Y-12677234D01*
X56252415Y-12780006D01*
X56252415Y-12780008D01*
X56249500Y-12805131D01*
X56249500Y-14594856D01*
X56249502Y-14594882D01*
X56252413Y-14619987D01*
X56252415Y-14619991D01*
X56297793Y-14722764D01*
X56297794Y-14722765D01*
X56377235Y-14802206D01*
X56480009Y-14847585D01*
X56505135Y-14850500D01*
X56875500Y-14850499D01*
X56884186Y-14853049D01*
X56893147Y-14851761D01*
X56917183Y-14862738D01*
X56942539Y-14870183D01*
X56948467Y-14877025D01*
X56956703Y-14880786D01*
X56970989Y-14903017D01*
X56988294Y-14922987D01*
X56990581Y-14933502D01*
X56994477Y-14939564D01*
X56999500Y-14974499D01*
X56999500Y-15076840D01*
X56979815Y-15143879D01*
X56931795Y-15187325D01*
X56797002Y-15256006D01*
X56650505Y-15362441D01*
X56650500Y-15362445D01*
X56522445Y-15490500D01*
X56522441Y-15490505D01*
X56416006Y-15637002D01*
X56333788Y-15798360D01*
X56333787Y-15798363D01*
X56277829Y-15970589D01*
X56249500Y-16149448D01*
X56249500Y-16330551D01*
X56277829Y-16509410D01*
X56333787Y-16681636D01*
X56333788Y-16681639D01*
X56380549Y-16773411D01*
X56406845Y-16825019D01*
X56416006Y-16842997D01*
X56522441Y-16989494D01*
X56522445Y-16989499D01*
X56650500Y-17117554D01*
X56650505Y-17117558D01*
X56797001Y-17223993D01*
X56797003Y-17223994D01*
X56797006Y-17223996D01*
X56931796Y-17292675D01*
X56942859Y-17303123D01*
X56956703Y-17309446D01*
X56967743Y-17326625D01*
X56982591Y-17340648D01*
X56986832Y-17356329D01*
X56994477Y-17368224D01*
X56999500Y-17403159D01*
X56999500Y-17616840D01*
X56979815Y-17683879D01*
X56931795Y-17727325D01*
X56797002Y-17796006D01*
X56650505Y-17902441D01*
X56650500Y-17902445D01*
X56522445Y-18030500D01*
X56522441Y-18030505D01*
X56416006Y-18177002D01*
X56333788Y-18338360D01*
X56333787Y-18338363D01*
X56277829Y-18510589D01*
X56249500Y-18689448D01*
X56249500Y-18870551D01*
X56277829Y-19049412D01*
X56324575Y-19193283D01*
X56326570Y-19263124D01*
X56294325Y-19319281D01*
X54008211Y-21605394D01*
X54007398Y-21606108D01*
X53927521Y-21685985D01*
X53874794Y-21777310D01*
X53874793Y-21777313D01*
X53847500Y-21879173D01*
X53847500Y-24536245D01*
X53827815Y-24603284D01*
X53811181Y-24623926D01*
X46278226Y-32156881D01*
X46216903Y-32190366D01*
X46190545Y-32193200D01*
X46128743Y-32193200D01*
X45976016Y-32234123D01*
X45976009Y-32234126D01*
X45839090Y-32313175D01*
X45839082Y-32313181D01*
X45727281Y-32424982D01*
X45727275Y-32424990D01*
X45648226Y-32561909D01*
X45648223Y-32561916D01*
X45607300Y-32714643D01*
X45607300Y-32872757D01*
X45645684Y-33016006D01*
X45648223Y-33025483D01*
X45648226Y-33025490D01*
X45727275Y-33162409D01*
X45727279Y-33162414D01*
X45727280Y-33162416D01*
X45839084Y-33274220D01*
X45839086Y-33274221D01*
X45839090Y-33274224D01*
X45961430Y-33344856D01*
X45976016Y-33353277D01*
X46128743Y-33394200D01*
X46128745Y-33394200D01*
X46286855Y-33394200D01*
X46286857Y-33394200D01*
X46439584Y-33353277D01*
X46576516Y-33274220D01*
X46688320Y-33162416D01*
X46767377Y-33025484D01*
X46808300Y-32872757D01*
X46808300Y-32810955D01*
X46827985Y-32743916D01*
X46844619Y-32723274D01*
X54237719Y-25330174D01*
X54299042Y-25296689D01*
X54368734Y-25301673D01*
X54424667Y-25343545D01*
X54449084Y-25409009D01*
X54449400Y-25417855D01*
X54449400Y-30526545D01*
X54429715Y-30593584D01*
X54413081Y-30614226D01*
X45997626Y-39029681D01*
X45936303Y-39063166D01*
X45909945Y-39066000D01*
X45848143Y-39066000D01*
X45695416Y-39106923D01*
X45695409Y-39106926D01*
X45558490Y-39185975D01*
X45558482Y-39185981D01*
X45446681Y-39297782D01*
X45446675Y-39297790D01*
X45367626Y-39434709D01*
X45367623Y-39434716D01*
X45326700Y-39587443D01*
X45326700Y-39745557D01*
X45364401Y-39886257D01*
X45367623Y-39898283D01*
X45367626Y-39898290D01*
X45446675Y-40035209D01*
X45446681Y-40035217D01*
X45549424Y-40137960D01*
X45582909Y-40199283D01*
X45577925Y-40268975D01*
X45536053Y-40324908D01*
X45477933Y-40348580D01*
X45470942Y-40349500D01*
X45318216Y-40390423D01*
X45318209Y-40390426D01*
X45181290Y-40469475D01*
X45181282Y-40469481D01*
X45069481Y-40581282D01*
X45069475Y-40581290D01*
X44990426Y-40718209D01*
X44990423Y-40718216D01*
X44949500Y-40870943D01*
X44949500Y-41029057D01*
X44951495Y-41036506D01*
X44949835Y-41106354D01*
X44910674Y-41164217D01*
X44846446Y-41191723D01*
X44831722Y-41192600D01*
X39426440Y-41192600D01*
X39359401Y-41172915D01*
X39313646Y-41120111D01*
X39302512Y-41064365D01*
X39302995Y-41050202D01*
X39305500Y-41040857D01*
X39305500Y-40976926D01*
X39305572Y-40974820D01*
X39315918Y-40943572D01*
X39325185Y-40912016D01*
X39327193Y-40909523D01*
X39327535Y-40908492D01*
X39328940Y-40907356D01*
X39341819Y-40891374D01*
X41400570Y-38832623D01*
X43468380Y-36764813D01*
X43494553Y-36719480D01*
X43521107Y-36673487D01*
X43548400Y-36571627D01*
X43548400Y-10976143D01*
X59384200Y-10976143D01*
X59384200Y-11134256D01*
X59425123Y-11286983D01*
X59425126Y-11286990D01*
X59504175Y-11423909D01*
X59504179Y-11423914D01*
X59504180Y-11423916D01*
X59615984Y-11535720D01*
X59615986Y-11535721D01*
X59615990Y-11535724D01*
X59752909Y-11614773D01*
X59752916Y-11614777D01*
X59905643Y-11655700D01*
X59905645Y-11655700D01*
X60063755Y-11655700D01*
X60063757Y-11655700D01*
X60216484Y-11614777D01*
X60353416Y-11535720D01*
X60465220Y-11423916D01*
X60544277Y-11286984D01*
X60585200Y-11134257D01*
X60585200Y-10976143D01*
X60544277Y-10823416D01*
X60544273Y-10823409D01*
X60465224Y-10686490D01*
X60465218Y-10686482D01*
X60421519Y-10642783D01*
X60388034Y-10581460D01*
X60385200Y-10555102D01*
X60385200Y-6178155D01*
X60404885Y-6111116D01*
X60421519Y-6090474D01*
X60889037Y-5622956D01*
X61356681Y-5155311D01*
X61418002Y-5121828D01*
X61487693Y-5126812D01*
X61543627Y-5168684D01*
X61566833Y-5223596D01*
X61585215Y-5339660D01*
X61655770Y-5556803D01*
X61736371Y-5714990D01*
X61759421Y-5760228D01*
X61893621Y-5944937D01*
X62055063Y-6106379D01*
X62239772Y-6240579D01*
X62335884Y-6289550D01*
X62443196Y-6344229D01*
X62443198Y-6344229D01*
X62443201Y-6344231D01*
X62559592Y-6382049D01*
X62660339Y-6414784D01*
X62885838Y-6450500D01*
X62885843Y-6450500D01*
X63114162Y-6450500D01*
X63339660Y-6414784D01*
X63353482Y-6410293D01*
X63556799Y-6344231D01*
X63622959Y-6310520D01*
X63691625Y-6297625D01*
X63756365Y-6323901D01*
X63766932Y-6333325D01*
X68418381Y-10984774D01*
X68451866Y-11046097D01*
X68454700Y-11072455D01*
X68454700Y-11134256D01*
X68495623Y-11286983D01*
X68495626Y-11286990D01*
X68574675Y-11423909D01*
X68574679Y-11423914D01*
X68574680Y-11423916D01*
X68686484Y-11535720D01*
X68686486Y-11535721D01*
X68686490Y-11535724D01*
X68823409Y-11614773D01*
X68823416Y-11614777D01*
X68976143Y-11655700D01*
X68976145Y-11655700D01*
X69134255Y-11655700D01*
X69134257Y-11655700D01*
X69286984Y-11614777D01*
X69423916Y-11535720D01*
X69535720Y-11423916D01*
X69614777Y-11286984D01*
X69655700Y-11134257D01*
X69655700Y-10976143D01*
X69614777Y-10823416D01*
X69614773Y-10823409D01*
X69535724Y-10686490D01*
X69535718Y-10686482D01*
X69423917Y-10574681D01*
X69423909Y-10574675D01*
X69286990Y-10495626D01*
X69286986Y-10495624D01*
X69286984Y-10495623D01*
X69134257Y-10454700D01*
X69134256Y-10454700D01*
X69072455Y-10454700D01*
X69005416Y-10435015D01*
X68984774Y-10418381D01*
X64333325Y-5766932D01*
X64299840Y-5705609D01*
X64304824Y-5635917D01*
X64310514Y-5622970D01*
X64344231Y-5556799D01*
X64414784Y-5339660D01*
X64423783Y-5282842D01*
X64450500Y-5114162D01*
X64450500Y-4885837D01*
X64414784Y-4660339D01*
X64344229Y-4443196D01*
X64240578Y-4239771D01*
X64171929Y-4145285D01*
X64148450Y-4079480D01*
X64164275Y-4011426D01*
X64214381Y-3962731D01*
X64272248Y-3948400D01*
X65227752Y-3948400D01*
X65294791Y-3968085D01*
X65340546Y-4020889D01*
X65350490Y-4090047D01*
X65328070Y-4145284D01*
X65311677Y-4167848D01*
X65259421Y-4239771D01*
X65155770Y-4443196D01*
X65085215Y-4660339D01*
X65049500Y-4885837D01*
X65049500Y-5114162D01*
X65085215Y-5339660D01*
X65155770Y-5556803D01*
X65236371Y-5714990D01*
X65259421Y-5760228D01*
X65393621Y-5944937D01*
X65555063Y-6106379D01*
X65739772Y-6240579D01*
X65835884Y-6289550D01*
X65943196Y-6344229D01*
X65943198Y-6344229D01*
X65943201Y-6344231D01*
X66059592Y-6382049D01*
X66160339Y-6414784D01*
X66385838Y-6450500D01*
X66385843Y-6450500D01*
X66614162Y-6450500D01*
X66839660Y-6414784D01*
X66853482Y-6410293D01*
X67056799Y-6344231D01*
X67260228Y-6240579D01*
X67444937Y-6106379D01*
X67606379Y-5944937D01*
X67740579Y-5760228D01*
X67844231Y-5556799D01*
X67914784Y-5339660D01*
X67923783Y-5282842D01*
X67950500Y-5114162D01*
X67950500Y-4885837D01*
X67914784Y-4660339D01*
X67844229Y-4443196D01*
X67740578Y-4239771D01*
X67671929Y-4145285D01*
X67648450Y-4079480D01*
X67664275Y-4011426D01*
X67714381Y-3962731D01*
X67772248Y-3948400D01*
X68330645Y-3948400D01*
X68360085Y-3957044D01*
X68390072Y-3963568D01*
X68395087Y-3967322D01*
X68397684Y-3968085D01*
X68418326Y-3984719D01*
X68540132Y-4106525D01*
X68573617Y-4167848D01*
X68572786Y-4224130D01*
X68552401Y-4306103D01*
X68552401Y-4306105D01*
X68552400Y-4306111D01*
X68552400Y-4306113D01*
X68549500Y-4348879D01*
X68549500Y-5651122D01*
X68549501Y-5651125D01*
X68552399Y-5693886D01*
X68552399Y-5693887D01*
X68580359Y-5806313D01*
X68592808Y-5856374D01*
X68598360Y-5878696D01*
X68682967Y-6049292D01*
X68682969Y-6049295D01*
X68802277Y-6197721D01*
X68802278Y-6197722D01*
X68950704Y-6317030D01*
X68950707Y-6317032D01*
X69121302Y-6401639D01*
X69121303Y-6401639D01*
X69121307Y-6401641D01*
X69306111Y-6447600D01*
X69348877Y-6450500D01*
X70651122Y-6450499D01*
X70693889Y-6447600D01*
X70878693Y-6401641D01*
X71049296Y-6317030D01*
X71197722Y-6197722D01*
X71317030Y-6049296D01*
X71401641Y-5878693D01*
X71447600Y-5693889D01*
X71450500Y-5651123D01*
X71450499Y-4878006D01*
X79950000Y-4878006D01*
X79950000Y-5121993D01*
X79988165Y-5362959D01*
X80063560Y-5594998D01*
X80174323Y-5812380D01*
X80271298Y-5945856D01*
X80271299Y-5945856D01*
X80957241Y-5259914D01*
X81019881Y-5368408D01*
X81131592Y-5480119D01*
X81240084Y-5542757D01*
X80554141Y-6228699D01*
X80554142Y-6228700D01*
X80687619Y-6325676D01*
X80905001Y-6436439D01*
X81137040Y-6511834D01*
X81378007Y-6550000D01*
X81621993Y-6550000D01*
X81862959Y-6511834D01*
X82094998Y-6436439D01*
X82312377Y-6325678D01*
X82445856Y-6228699D01*
X82445857Y-6228698D01*
X81759916Y-5542757D01*
X81868408Y-5480119D01*
X81980119Y-5368408D01*
X82042757Y-5259915D01*
X82728698Y-5945857D01*
X82728699Y-5945856D01*
X82825678Y-5812377D01*
X82936439Y-5594998D01*
X83011834Y-5362959D01*
X83050000Y-5121993D01*
X83050000Y-4878006D01*
X83011834Y-4637040D01*
X82936439Y-4405001D01*
X82825676Y-4187619D01*
X82728700Y-4054142D01*
X82728699Y-4054141D01*
X82042757Y-4740083D01*
X81980119Y-4631592D01*
X81868408Y-4519881D01*
X81759915Y-4457242D01*
X82445856Y-3771299D01*
X82445856Y-3771298D01*
X82312380Y-3674323D01*
X82094998Y-3563560D01*
X81862959Y-3488165D01*
X81621993Y-3450000D01*
X81378007Y-3450000D01*
X81137040Y-3488165D01*
X80905001Y-3563560D01*
X80687626Y-3674319D01*
X80554142Y-3771299D01*
X81240085Y-4457242D01*
X81131592Y-4519881D01*
X81019881Y-4631592D01*
X80957242Y-4740085D01*
X80271299Y-4054142D01*
X80174319Y-4187626D01*
X80063560Y-4405001D01*
X79988165Y-4637040D01*
X79950000Y-4878006D01*
X71450499Y-4878006D01*
X71450499Y-4348878D01*
X71447600Y-4306111D01*
X71401641Y-4121307D01*
X71368786Y-4055061D01*
X71317033Y-3950709D01*
X71317031Y-3950707D01*
X71317030Y-3950704D01*
X71197722Y-3802278D01*
X71159183Y-3771299D01*
X71049295Y-3682969D01*
X71049292Y-3682967D01*
X70878697Y-3598360D01*
X70693892Y-3552400D01*
X70671547Y-3550885D01*
X70651123Y-3549500D01*
X70651120Y-3549500D01*
X69348877Y-3549500D01*
X69348874Y-3549501D01*
X69306113Y-3552399D01*
X69306106Y-3552400D01*
X69224130Y-3572786D01*
X69154322Y-3569862D01*
X69106525Y-3540132D01*
X68793815Y-3227422D01*
X68793813Y-3227420D01*
X68713693Y-3181162D01*
X68702489Y-3174693D01*
X68608464Y-3149500D01*
X68600627Y-3147400D01*
X62344973Y-3147400D01*
X62243113Y-3174693D01*
X62243110Y-3174694D01*
X62178634Y-3211920D01*
X62170657Y-3216525D01*
X62151787Y-3227419D01*
X59664222Y-5714984D01*
X59664218Y-5714990D01*
X59611492Y-5806312D01*
X59611493Y-5806313D01*
X59584200Y-5908173D01*
X59584200Y-10555102D01*
X59564515Y-10622141D01*
X59547881Y-10642783D01*
X59504181Y-10686482D01*
X59504175Y-10686490D01*
X59425126Y-10823409D01*
X59425123Y-10823416D01*
X59384200Y-10976143D01*
X43548400Y-10976143D01*
X43548400Y-10587598D01*
X43568085Y-10520559D01*
X43584719Y-10499917D01*
X43589013Y-10495623D01*
X43628420Y-10456216D01*
X43707477Y-10319284D01*
X43748400Y-10166557D01*
X43748400Y-10008443D01*
X43707477Y-9855716D01*
X43657424Y-9769020D01*
X43628424Y-9718790D01*
X43628418Y-9718782D01*
X43516617Y-9606981D01*
X43516609Y-9606975D01*
X43379690Y-9527926D01*
X43379686Y-9527924D01*
X43379684Y-9527923D01*
X43226957Y-9487000D01*
X43068843Y-9487000D01*
X42916116Y-9527923D01*
X42916109Y-9527926D01*
X42779190Y-9606975D01*
X42779182Y-9606981D01*
X42667381Y-9718782D01*
X42667375Y-9718790D01*
X42588326Y-9855709D01*
X42588323Y-9855716D01*
X42547400Y-10008443D01*
X42547400Y-10166556D01*
X42588323Y-10319283D01*
X42588326Y-10319290D01*
X42667375Y-10456209D01*
X42667381Y-10456217D01*
X42711081Y-10499917D01*
X42744566Y-10561240D01*
X42747400Y-10587598D01*
X42747400Y-36301645D01*
X42727715Y-36368684D01*
X42711081Y-36389326D01*
X38775426Y-40324981D01*
X38714103Y-40358466D01*
X38687745Y-40361300D01*
X38625943Y-40361300D01*
X38473216Y-40402223D01*
X38473209Y-40402226D01*
X38336290Y-40481275D01*
X38336284Y-40481280D01*
X38224481Y-40593082D01*
X38224475Y-40593090D01*
X38145426Y-40730009D01*
X38145423Y-40730016D01*
X38104500Y-40882743D01*
X38104500Y-41040855D01*
X38105561Y-41048913D01*
X38103030Y-41049246D01*
X38102739Y-41061497D01*
X38106298Y-41086247D01*
X38101924Y-41095824D01*
X38101674Y-41106351D01*
X38087660Y-41127058D01*
X38077273Y-41149803D01*
X38068414Y-41155495D01*
X38062514Y-41164215D01*
X38039530Y-41174058D01*
X38018495Y-41187577D01*
X38002643Y-41189856D01*
X37998287Y-41191722D01*
X37983560Y-41192600D01*
X37771754Y-41192600D01*
X37704715Y-41172915D01*
X37684073Y-41156281D01*
X37144023Y-40616231D01*
X36572313Y-40044520D01*
X36517406Y-40012819D01*
X36480989Y-39991793D01*
X36430057Y-39978146D01*
X36379127Y-39964500D01*
X35569127Y-39964500D01*
X35463673Y-39964500D01*
X35361810Y-39991793D01*
X35270487Y-40044520D01*
X35270484Y-40044522D01*
X30095799Y-45219207D01*
X30034476Y-45252692D01*
X29964784Y-45247708D01*
X29908851Y-45205836D01*
X29884434Y-45140372D01*
X29899286Y-45072099D01*
X29900731Y-45069526D01*
X29940477Y-45000684D01*
X29981400Y-44847957D01*
X29981400Y-44847954D01*
X29981995Y-44843437D01*
X30010260Y-44779540D01*
X30017241Y-44771951D01*
X31679680Y-43109513D01*
X31732407Y-43018188D01*
X31759700Y-42916327D01*
X31759700Y-42810873D01*
X31759700Y-36880398D01*
X31779385Y-36813359D01*
X31796019Y-36792717D01*
X31807329Y-36781407D01*
X31839720Y-36749016D01*
X31918777Y-36612084D01*
X31959700Y-36459357D01*
X31959700Y-36303000D01*
X31979385Y-36235961D01*
X32032189Y-36190206D01*
X32083700Y-36179000D01*
X35244845Y-36179000D01*
X35311884Y-36198685D01*
X35332526Y-36215319D01*
X38068181Y-38950974D01*
X38101666Y-39012297D01*
X38104500Y-39038655D01*
X38104500Y-39100457D01*
X38145014Y-39251655D01*
X38145423Y-39253183D01*
X38145426Y-39253190D01*
X38224475Y-39390109D01*
X38224479Y-39390114D01*
X38224480Y-39390116D01*
X38336284Y-39501920D01*
X38336286Y-39501921D01*
X38336290Y-39501924D01*
X38454546Y-39570198D01*
X38473216Y-39580977D01*
X38625943Y-39621900D01*
X38625945Y-39621900D01*
X38784055Y-39621900D01*
X38784057Y-39621900D01*
X38936784Y-39580977D01*
X39073716Y-39501920D01*
X39185520Y-39390116D01*
X39264577Y-39253184D01*
X39305500Y-39100457D01*
X39305500Y-38942343D01*
X39264577Y-38789616D01*
X39257068Y-38776610D01*
X39185524Y-38652690D01*
X39185518Y-38652682D01*
X39073717Y-38540881D01*
X39073709Y-38540875D01*
X38936790Y-38461826D01*
X38936786Y-38461824D01*
X38936784Y-38461823D01*
X38784057Y-38420900D01*
X38784056Y-38420900D01*
X38722255Y-38420900D01*
X38655216Y-38401215D01*
X38634574Y-38384581D01*
X35708015Y-35458022D01*
X35708013Y-35458020D01*
X35662350Y-35431656D01*
X35616689Y-35405293D01*
X35548502Y-35387023D01*
X35514827Y-35378000D01*
X30991827Y-35378000D01*
X30886373Y-35378000D01*
X30784510Y-35405293D01*
X30693187Y-35458020D01*
X30693184Y-35458022D01*
X27286726Y-38864481D01*
X27225403Y-38897966D01*
X27199045Y-38900800D01*
X27137243Y-38900800D01*
X26984516Y-38941723D01*
X26984509Y-38941726D01*
X26847590Y-39020775D01*
X26847582Y-39020781D01*
X26735781Y-39132582D01*
X26735775Y-39132590D01*
X26656726Y-39269509D01*
X26656723Y-39269516D01*
X26615800Y-39422243D01*
X26615800Y-39580357D01*
X26655286Y-39727719D01*
X26656723Y-39733083D01*
X26656726Y-39733090D01*
X26735775Y-39870009D01*
X26735779Y-39870014D01*
X26735780Y-39870016D01*
X26847584Y-39981820D01*
X26847586Y-39981821D01*
X26847590Y-39981824D01*
X26983752Y-40060436D01*
X26984516Y-40060877D01*
X27137243Y-40101800D01*
X27137245Y-40101800D01*
X27295355Y-40101800D01*
X27295357Y-40101800D01*
X27448084Y-40060877D01*
X27585016Y-39981820D01*
X27696820Y-39870016D01*
X27775877Y-39733084D01*
X27816800Y-39580357D01*
X27816800Y-39518554D01*
X27836485Y-39451515D01*
X27853114Y-39430878D01*
X30638609Y-36645382D01*
X30654693Y-36636600D01*
X30667759Y-36623748D01*
X30684720Y-36620204D01*
X30699930Y-36611899D01*
X30718211Y-36613206D01*
X30736151Y-36609458D01*
X30752335Y-36615646D01*
X30769622Y-36616883D01*
X30784295Y-36627867D01*
X30801413Y-36634413D01*
X30817592Y-36652794D01*
X30825555Y-36658755D01*
X30826163Y-36659574D01*
X30830239Y-36665114D01*
X30878680Y-36749016D01*
X30929015Y-36799351D01*
X30934575Y-36806907D01*
X30943438Y-36831280D01*
X30955866Y-36854040D01*
X30957608Y-36870248D01*
X30958453Y-36872570D01*
X30958049Y-36874352D01*
X30958700Y-36880398D01*
X30958700Y-42646344D01*
X30939015Y-42713383D01*
X30922381Y-42734025D01*
X29524325Y-44132081D01*
X29463002Y-44165566D01*
X29436644Y-44168400D01*
X29301843Y-44168400D01*
X29149116Y-44209323D01*
X29149109Y-44209326D01*
X29012190Y-44288375D01*
X29012182Y-44288381D01*
X28894633Y-44405931D01*
X28893630Y-44404928D01*
X28844269Y-44440966D01*
X28774523Y-44445116D01*
X28714648Y-44411955D01*
X28144119Y-43841426D01*
X28110634Y-43780103D01*
X28107800Y-43753745D01*
X28107800Y-43095329D01*
X28107801Y-43095316D01*
X28107801Y-42979874D01*
X28090773Y-42916326D01*
X28080507Y-42878013D01*
X28027780Y-42786687D01*
X27953213Y-42712120D01*
X27953212Y-42712119D01*
X27948882Y-42707789D01*
X27948871Y-42707779D01*
X23396219Y-38155126D01*
X23362734Y-38093803D01*
X23359900Y-38067445D01*
X23359900Y-36429761D01*
X23364125Y-36397668D01*
X23386100Y-36315657D01*
X23386100Y-36157543D01*
X23345177Y-36004816D01*
X23317156Y-35956282D01*
X23266124Y-35867890D01*
X23266118Y-35867882D01*
X23154317Y-35756081D01*
X23154309Y-35756075D01*
X23017390Y-35677026D01*
X23017386Y-35677024D01*
X23017384Y-35677023D01*
X22864657Y-35636100D01*
X22706543Y-35636100D01*
X22553816Y-35677023D01*
X22553809Y-35677026D01*
X22416890Y-35756075D01*
X22416882Y-35756081D01*
X22305081Y-35867882D01*
X22305075Y-35867890D01*
X22226026Y-36004809D01*
X22226023Y-36004816D01*
X22185100Y-36157543D01*
X22185100Y-36315657D01*
X22221497Y-36451490D01*
X22226023Y-36468383D01*
X22226026Y-36468390D01*
X22305075Y-36605309D01*
X22305079Y-36605314D01*
X22305080Y-36605316D01*
X22416884Y-36717120D01*
X22416886Y-36717121D01*
X22416890Y-36717124D01*
X22496899Y-36763317D01*
X22545115Y-36813883D01*
X22558900Y-36870704D01*
X22558900Y-37584445D01*
X22539215Y-37651484D01*
X22486411Y-37697239D01*
X22417253Y-37707183D01*
X22353697Y-37678158D01*
X22347219Y-37672126D01*
X18387415Y-33712322D01*
X18387413Y-33712320D01*
X18341750Y-33685956D01*
X18296089Y-33659593D01*
X18245157Y-33645946D01*
X18194227Y-33632300D01*
X18194226Y-33632300D01*
X16728140Y-33632300D01*
X16661101Y-33612615D01*
X16615346Y-33559811D01*
X16605402Y-33490653D01*
X16608365Y-33476207D01*
X16609577Y-33471684D01*
X16650500Y-33318957D01*
X16650500Y-33160843D01*
X16609577Y-33008116D01*
X16530520Y-32871184D01*
X16530519Y-32871183D01*
X16528566Y-32867800D01*
X16512093Y-32799900D01*
X16534946Y-32733873D01*
X16548266Y-32718125D01*
X23264773Y-26001617D01*
X28350000Y-26001617D01*
X28350000Y-26198382D01*
X28380778Y-26392705D01*
X28441581Y-26579835D01*
X28530904Y-26755143D01*
X28586076Y-26831079D01*
X28586077Y-26831080D01*
X29131980Y-26285176D01*
X29134075Y-26292993D01*
X29199901Y-26407007D01*
X29292993Y-26500099D01*
X29407007Y-26565925D01*
X29414822Y-26568019D01*
X28868918Y-27113922D01*
X28944856Y-27169095D01*
X29120164Y-27258418D01*
X29307294Y-27319221D01*
X29501618Y-27350000D01*
X29698382Y-27350000D01*
X29892705Y-27319221D01*
X30079835Y-27258418D01*
X30255143Y-27169095D01*
X30331079Y-27113922D01*
X30331080Y-27113921D01*
X29785178Y-26568019D01*
X29792993Y-26565925D01*
X29907007Y-26500099D01*
X30000099Y-26407007D01*
X30065925Y-26292993D01*
X30068019Y-26285177D01*
X30613921Y-26831080D01*
X30613922Y-26831079D01*
X30669095Y-26755143D01*
X30758418Y-26579835D01*
X30819221Y-26392705D01*
X30850000Y-26198382D01*
X30850000Y-26001617D01*
X30819221Y-25807294D01*
X30758418Y-25620164D01*
X30669095Y-25444856D01*
X30613922Y-25368919D01*
X30613922Y-25368918D01*
X30068018Y-25914821D01*
X30065925Y-25907007D01*
X30000099Y-25792993D01*
X29907007Y-25699901D01*
X29792993Y-25634075D01*
X29785177Y-25631980D01*
X30331080Y-25086077D01*
X30331079Y-25086076D01*
X30255143Y-25030904D01*
X30079835Y-24941581D01*
X29892705Y-24880778D01*
X29698382Y-24850000D01*
X29501618Y-24850000D01*
X29307294Y-24880778D01*
X29120164Y-24941581D01*
X28944855Y-25030905D01*
X28944846Y-25030911D01*
X28868919Y-25086075D01*
X28868918Y-25086076D01*
X29414823Y-25631980D01*
X29407007Y-25634075D01*
X29292993Y-25699901D01*
X29199901Y-25792993D01*
X29134075Y-25907007D01*
X29131980Y-25914822D01*
X28586076Y-25368918D01*
X28586075Y-25368919D01*
X28530911Y-25444846D01*
X28530905Y-25444855D01*
X28441581Y-25620164D01*
X28380778Y-25807294D01*
X28350000Y-26001617D01*
X23264773Y-26001617D01*
X26764773Y-22501617D01*
X28350000Y-22501617D01*
X28350000Y-22698382D01*
X28380778Y-22892705D01*
X28441581Y-23079835D01*
X28530904Y-23255143D01*
X28586076Y-23331079D01*
X28586077Y-23331080D01*
X29131980Y-22785176D01*
X29134075Y-22792993D01*
X29199901Y-22907007D01*
X29292993Y-23000099D01*
X29407007Y-23065925D01*
X29414822Y-23068019D01*
X28868918Y-23613922D01*
X28944856Y-23669095D01*
X29120164Y-23758418D01*
X29307294Y-23819221D01*
X29501618Y-23850000D01*
X29698382Y-23850000D01*
X29892705Y-23819221D01*
X30079835Y-23758418D01*
X30255143Y-23669095D01*
X30331079Y-23613922D01*
X30331080Y-23613921D01*
X29785178Y-23068019D01*
X29792993Y-23065925D01*
X29907007Y-23000099D01*
X30000099Y-22907007D01*
X30065925Y-22792993D01*
X30068019Y-22785177D01*
X30613921Y-23331080D01*
X30613922Y-23331079D01*
X30669095Y-23255143D01*
X30758418Y-23079835D01*
X30819221Y-22892705D01*
X30850000Y-22698382D01*
X30850000Y-22501617D01*
X30819221Y-22307294D01*
X30758418Y-22120164D01*
X30669095Y-21944856D01*
X30613922Y-21868919D01*
X30613922Y-21868918D01*
X30068018Y-22414821D01*
X30065925Y-22407007D01*
X30000099Y-22292993D01*
X29907007Y-22199901D01*
X29792993Y-22134075D01*
X29785177Y-22131980D01*
X30331080Y-21586077D01*
X30331079Y-21586076D01*
X30255143Y-21530904D01*
X30079835Y-21441581D01*
X29892705Y-21380778D01*
X29698382Y-21350000D01*
X29501618Y-21350000D01*
X29307294Y-21380778D01*
X29120164Y-21441581D01*
X28944855Y-21530905D01*
X28944846Y-21530911D01*
X28868919Y-21586075D01*
X28868918Y-21586076D01*
X29414823Y-22131980D01*
X29407007Y-22134075D01*
X29292993Y-22199901D01*
X29199901Y-22292993D01*
X29134075Y-22407007D01*
X29131980Y-22414822D01*
X28586076Y-21868918D01*
X28586075Y-21868919D01*
X28530911Y-21944846D01*
X28530905Y-21944855D01*
X28441581Y-22120164D01*
X28380778Y-22307294D01*
X28350000Y-22501617D01*
X26764773Y-22501617D01*
X29060719Y-20205671D01*
X29122040Y-20172188D01*
X29186712Y-20175422D01*
X29293826Y-20210225D01*
X29330590Y-20222171D01*
X29509449Y-20250500D01*
X29509454Y-20250500D01*
X29690551Y-20250500D01*
X29777259Y-20236765D01*
X29869409Y-20222171D01*
X30041639Y-20166211D01*
X30202994Y-20083996D01*
X30349501Y-19977553D01*
X30477553Y-19849501D01*
X30583996Y-19702994D01*
X30666211Y-19541639D01*
X30722171Y-19369409D01*
X30739471Y-19260180D01*
X30750500Y-19190551D01*
X30750500Y-19009448D01*
X30723868Y-18841307D01*
X30722171Y-18830591D01*
X30676312Y-18689448D01*
X30666212Y-18658363D01*
X30666211Y-18658360D01*
X30637740Y-18602484D01*
X30583996Y-18497006D01*
X30556397Y-18459019D01*
X30477558Y-18350505D01*
X30477554Y-18350500D01*
X30349499Y-18222445D01*
X30349494Y-18222441D01*
X30202997Y-18116006D01*
X30202996Y-18116005D01*
X30202994Y-18116004D01*
X30068205Y-18047325D01*
X30017409Y-17999350D01*
X30000500Y-17936840D01*
X30000500Y-16874499D01*
X30020185Y-16807460D01*
X30072989Y-16761705D01*
X30124500Y-16750499D01*
X30494856Y-16750499D01*
X30494864Y-16750499D01*
X30494879Y-16750497D01*
X30494882Y-16750497D01*
X30519987Y-16747586D01*
X30519988Y-16747585D01*
X30519991Y-16747585D01*
X30622765Y-16702206D01*
X30702206Y-16622765D01*
X30747585Y-16519991D01*
X30750500Y-16494865D01*
X30750499Y-14705136D01*
X30750497Y-14705117D01*
X30747586Y-14680012D01*
X30747585Y-14680010D01*
X30747585Y-14680009D01*
X30702206Y-14577235D01*
X30622765Y-14497794D01*
X30622763Y-14497793D01*
X30519992Y-14452415D01*
X30494865Y-14449500D01*
X28705143Y-14449500D01*
X28705117Y-14449502D01*
X28680012Y-14452413D01*
X28680008Y-14452415D01*
X28577235Y-14497793D01*
X28497794Y-14577234D01*
X28452415Y-14680006D01*
X28452415Y-14680008D01*
X28449500Y-14705131D01*
X28449500Y-16494856D01*
X28449502Y-16494882D01*
X28452413Y-16519987D01*
X28452415Y-16519991D01*
X28497793Y-16622764D01*
X28497794Y-16622765D01*
X28577235Y-16702206D01*
X28680009Y-16747585D01*
X28705135Y-16750500D01*
X29075500Y-16750499D01*
X29142539Y-16770183D01*
X29188294Y-16822987D01*
X29199500Y-16874499D01*
X29199500Y-17936840D01*
X29179815Y-18003879D01*
X29131795Y-18047325D01*
X28997002Y-18116006D01*
X28850505Y-18222441D01*
X28850500Y-18222445D01*
X28722445Y-18350500D01*
X28722441Y-18350505D01*
X28616006Y-18497002D01*
X28533788Y-18658360D01*
X28533787Y-18658363D01*
X28477829Y-18830589D01*
X28449500Y-19009448D01*
X28449500Y-19190551D01*
X28477829Y-19369412D01*
X28524575Y-19513283D01*
X28526570Y-19583124D01*
X28494325Y-19639281D01*
X15729522Y-32404084D01*
X15729520Y-32404087D01*
X15676793Y-32495412D01*
X15661118Y-32553913D01*
X15661118Y-32553914D01*
X15661117Y-32553913D01*
X15649500Y-32597271D01*
X15649500Y-32739802D01*
X15640853Y-32769247D01*
X15634331Y-32799230D01*
X15630577Y-32804243D01*
X15629815Y-32806841D01*
X15613180Y-32827484D01*
X15570758Y-32869905D01*
X15509435Y-32903390D01*
X15439743Y-32898404D01*
X15395397Y-32869904D01*
X12640219Y-30114726D01*
X12606734Y-30053403D01*
X12603900Y-30027045D01*
X12603900Y-25003598D01*
X12623585Y-24936559D01*
X12640219Y-24915917D01*
X12683920Y-24872216D01*
X12715124Y-24818167D01*
X12765691Y-24769952D01*
X12834298Y-24756728D01*
X12899163Y-24782696D01*
X12910193Y-24792486D01*
X13242481Y-25124774D01*
X13275966Y-25186097D01*
X13278800Y-25212455D01*
X13278800Y-27293602D01*
X13259115Y-27360641D01*
X13242481Y-27381283D01*
X13198781Y-27424982D01*
X13198775Y-27424990D01*
X13119726Y-27561909D01*
X13119723Y-27561916D01*
X13078800Y-27714643D01*
X13078800Y-27872757D01*
X13118733Y-28021787D01*
X13119723Y-28025483D01*
X13119726Y-28025490D01*
X13198775Y-28162409D01*
X13198779Y-28162414D01*
X13198780Y-28162416D01*
X13310584Y-28274220D01*
X13310586Y-28274221D01*
X13310590Y-28274224D01*
X13425214Y-28340401D01*
X13447516Y-28353277D01*
X13600243Y-28394200D01*
X13600245Y-28394200D01*
X13758355Y-28394200D01*
X13758357Y-28394200D01*
X13911084Y-28353277D01*
X14048016Y-28274220D01*
X14159820Y-28162416D01*
X14238877Y-28025484D01*
X14279800Y-27872757D01*
X14279800Y-27714643D01*
X14238877Y-27561916D01*
X14238686Y-27561585D01*
X14159824Y-27424990D01*
X14159818Y-27424982D01*
X14116119Y-27381283D01*
X14082634Y-27319960D01*
X14079800Y-27293602D01*
X14079800Y-25654454D01*
X14099485Y-25587415D01*
X14152289Y-25541660D01*
X14221447Y-25531716D01*
X14285003Y-25560741D01*
X14291481Y-25566773D01*
X14909781Y-26185073D01*
X14943266Y-26246396D01*
X14946100Y-26272754D01*
X14946100Y-27440402D01*
X14926415Y-27507441D01*
X14909781Y-27528083D01*
X14866081Y-27571782D01*
X14866075Y-27571790D01*
X14787026Y-27708709D01*
X14787023Y-27708716D01*
X14746100Y-27861443D01*
X14746100Y-28019557D01*
X14783388Y-28158716D01*
X14787023Y-28172283D01*
X14787026Y-28172290D01*
X14866075Y-28309209D01*
X14866079Y-28309214D01*
X14866080Y-28309216D01*
X14977884Y-28421020D01*
X14977886Y-28421021D01*
X14977890Y-28421024D01*
X15114809Y-28500073D01*
X15114816Y-28500077D01*
X15267543Y-28541000D01*
X15267545Y-28541000D01*
X15425655Y-28541000D01*
X15425657Y-28541000D01*
X15578384Y-28500077D01*
X15715316Y-28421020D01*
X15827120Y-28309216D01*
X15906177Y-28172284D01*
X15947100Y-28019557D01*
X15947100Y-27861443D01*
X15906177Y-27708716D01*
X15885986Y-27673743D01*
X15827124Y-27571790D01*
X15827118Y-27571782D01*
X15783419Y-27528083D01*
X15749934Y-27466760D01*
X15747100Y-27440402D01*
X15747100Y-26118229D01*
X15747101Y-26118216D01*
X15747101Y-26002776D01*
X15747101Y-26002774D01*
X15719807Y-25900913D01*
X15679050Y-25830320D01*
X15667080Y-25809587D01*
X15592513Y-25735020D01*
X15592510Y-25735018D01*
X13251573Y-23394081D01*
X13218088Y-23332758D01*
X13223072Y-23263066D01*
X13251573Y-23218719D01*
X21792271Y-14678021D01*
X31264015Y-5206277D01*
X31325334Y-5172795D01*
X31395026Y-5177779D01*
X31450959Y-5219651D01*
X31474165Y-5274563D01*
X31488165Y-5362959D01*
X31563560Y-5594998D01*
X31674323Y-5812380D01*
X31771298Y-5945856D01*
X31771299Y-5945856D01*
X32457241Y-5259914D01*
X32519881Y-5368408D01*
X32631592Y-5480119D01*
X32740084Y-5542757D01*
X32054141Y-6228699D01*
X32054142Y-6228700D01*
X32187619Y-6325676D01*
X32405001Y-6436439D01*
X32637040Y-6511834D01*
X32878007Y-6550000D01*
X33121993Y-6550000D01*
X33362959Y-6511834D01*
X33594998Y-6436439D01*
X33812377Y-6325678D01*
X33945856Y-6228699D01*
X33945857Y-6228698D01*
X33259916Y-5542757D01*
X33368408Y-5480119D01*
X33480119Y-5368408D01*
X33542757Y-5259915D01*
X34228699Y-5945857D01*
X34234927Y-5945366D01*
X34276901Y-5912998D01*
X34346515Y-5907017D01*
X34408311Y-5939621D01*
X34409574Y-5940867D01*
X35286387Y-6817680D01*
X35377712Y-6870407D01*
X35479573Y-6897700D01*
X35479575Y-6897700D01*
X50055525Y-6897700D01*
X50055527Y-6897700D01*
X50157388Y-6870407D01*
X50248713Y-6817680D01*
X50606527Y-6459864D01*
X50667848Y-6426381D01*
X50724130Y-6427211D01*
X50806111Y-6447600D01*
X50848877Y-6450500D01*
X52151122Y-6450499D01*
X52193889Y-6447600D01*
X52378693Y-6401641D01*
X52549296Y-6317030D01*
X52697722Y-6197722D01*
X52817030Y-6049296D01*
X52901641Y-5878693D01*
X52947600Y-5693889D01*
X52950500Y-5651123D01*
X52950499Y-4348878D01*
X52947600Y-4306111D01*
X52901641Y-4121307D01*
X52868786Y-4055061D01*
X52817032Y-3950707D01*
X52817030Y-3950704D01*
X52697722Y-3802278D01*
X52697721Y-3802277D01*
X52549295Y-3682969D01*
X52549292Y-3682967D01*
X52378697Y-3598360D01*
X52193892Y-3552400D01*
X52171547Y-3550885D01*
X52151123Y-3549500D01*
X52151120Y-3549500D01*
X50848877Y-3549500D01*
X50848874Y-3549501D01*
X50806113Y-3552399D01*
X50806112Y-3552399D01*
X50621303Y-3598360D01*
X50450707Y-3682967D01*
X50450704Y-3682969D01*
X50302278Y-3802277D01*
X50302277Y-3802278D01*
X50182969Y-3950704D01*
X50182967Y-3950707D01*
X50098360Y-4121302D01*
X50052400Y-4306107D01*
X50049500Y-4348879D01*
X50049500Y-5651122D01*
X50049501Y-5651125D01*
X50052399Y-5693886D01*
X50052400Y-5693890D01*
X50072786Y-5775867D01*
X50072330Y-5786744D01*
X50076135Y-5796945D01*
X50070893Y-5821039D01*
X50069862Y-5845676D01*
X50063207Y-5856374D01*
X50061284Y-5865218D01*
X50040132Y-5893473D01*
X49873224Y-6060382D01*
X49811904Y-6093866D01*
X49785545Y-6096700D01*
X49362470Y-6096700D01*
X49295431Y-6077015D01*
X49249676Y-6024211D01*
X49239732Y-5955053D01*
X49262152Y-5899814D01*
X49325678Y-5812377D01*
X49436439Y-5594998D01*
X49511834Y-5362959D01*
X49550000Y-5121993D01*
X49550000Y-4878006D01*
X49511834Y-4637040D01*
X49436439Y-4405001D01*
X49325676Y-4187619D01*
X49228700Y-4054142D01*
X49228699Y-4054141D01*
X48542756Y-4740083D01*
X48480119Y-4631592D01*
X48368408Y-4519881D01*
X48259915Y-4457242D01*
X48945856Y-3771299D01*
X48945856Y-3771298D01*
X48812380Y-3674323D01*
X48594998Y-3563560D01*
X48362959Y-3488165D01*
X48121993Y-3450000D01*
X47878007Y-3450000D01*
X47637040Y-3488165D01*
X47405001Y-3563560D01*
X47187626Y-3674319D01*
X47054142Y-3771299D01*
X47740085Y-4457242D01*
X47631592Y-4519881D01*
X47519881Y-4631592D01*
X47457242Y-4740085D01*
X46771299Y-4054142D01*
X46674319Y-4187626D01*
X46563560Y-4405001D01*
X46488165Y-4637040D01*
X46450000Y-4878006D01*
X46450000Y-5121993D01*
X46488165Y-5362959D01*
X46563560Y-5594998D01*
X46674321Y-5812377D01*
X46737848Y-5899814D01*
X46761328Y-5965621D01*
X46745503Y-6033675D01*
X46695397Y-6082370D01*
X46637530Y-6096700D01*
X37993430Y-6096700D01*
X37926391Y-6077015D01*
X37880636Y-6024211D01*
X37870692Y-5955053D01*
X37882342Y-5917605D01*
X37887020Y-5908173D01*
X37901641Y-5878693D01*
X37947600Y-5693889D01*
X37950500Y-5651123D01*
X37950499Y-4348878D01*
X37947600Y-4306111D01*
X37901641Y-4121307D01*
X37868786Y-4055061D01*
X37817033Y-3950709D01*
X37817031Y-3950707D01*
X37817030Y-3950704D01*
X37697722Y-3802278D01*
X37659183Y-3771299D01*
X37549295Y-3682969D01*
X37549292Y-3682967D01*
X37378697Y-3598360D01*
X37193892Y-3552400D01*
X37171547Y-3550885D01*
X37151123Y-3549500D01*
X37151120Y-3549500D01*
X35848877Y-3549500D01*
X35848874Y-3549501D01*
X35806113Y-3552399D01*
X35806106Y-3552400D01*
X35724130Y-3572786D01*
X35654322Y-3569862D01*
X35606525Y-3540132D01*
X34876615Y-2810222D01*
X34876613Y-2810220D01*
X34830950Y-2783856D01*
X34785289Y-2757493D01*
X34734357Y-2743846D01*
X34683427Y-2730200D01*
X34683426Y-2730200D01*
X21790139Y-2730200D01*
X21790123Y-2730199D01*
X21782527Y-2730199D01*
X21677073Y-2730199D01*
X21609166Y-2748395D01*
X21575212Y-2757493D01*
X21512834Y-2793507D01*
X21489787Y-2806814D01*
X21483884Y-2810222D01*
X8345426Y-15948681D01*
X8284103Y-15982166D01*
X8257745Y-15985000D01*
X8195943Y-15985000D01*
X8043216Y-16025923D01*
X8043209Y-16025926D01*
X7906290Y-16104975D01*
X7906282Y-16104981D01*
X7794481Y-16216782D01*
X7794475Y-16216790D01*
X7715426Y-16353709D01*
X7715423Y-16353716D01*
X7674500Y-16506443D01*
X7674500Y-16664557D01*
X7714529Y-16813945D01*
X7715423Y-16817283D01*
X7715426Y-16817290D01*
X7794475Y-16954209D01*
X7794479Y-16954214D01*
X7794480Y-16954216D01*
X7906284Y-17066020D01*
X7906286Y-17066021D01*
X7906290Y-17066024D01*
X7995544Y-17117554D01*
X8043216Y-17145077D01*
X8195943Y-17186000D01*
X8195945Y-17186000D01*
X8354055Y-17186000D01*
X8354057Y-17186000D01*
X8506784Y-17145077D01*
X8643716Y-17066020D01*
X8755520Y-16954216D01*
X8834577Y-16817284D01*
X8875500Y-16664557D01*
X8875500Y-16602754D01*
X8895185Y-16535715D01*
X8911819Y-16515073D01*
X21859373Y-3567519D01*
X21920696Y-3534034D01*
X21947054Y-3531200D01*
X31506945Y-3531200D01*
X31573984Y-3550885D01*
X31619739Y-3603689D01*
X31629683Y-3672847D01*
X31600658Y-3736403D01*
X31594626Y-3742881D01*
X12467926Y-22869581D01*
X12406603Y-22903066D01*
X12380245Y-22905900D01*
X9015939Y-22905900D01*
X9015923Y-22905899D01*
X9008327Y-22905899D01*
X8902873Y-22905899D01*
X8834966Y-22924095D01*
X8801012Y-22933193D01*
X8769202Y-22951559D01*
X8729026Y-22974755D01*
X8709684Y-22985922D01*
X4559826Y-27135781D01*
X4498503Y-27169266D01*
X4472145Y-27172100D01*
X4410343Y-27172100D01*
X4257616Y-27213023D01*
X4257609Y-27213026D01*
X4120690Y-27292075D01*
X4120682Y-27292081D01*
X4008881Y-27403882D01*
X4008875Y-27403890D01*
X3929826Y-27540809D01*
X3929823Y-27540816D01*
X3888900Y-27693543D01*
X500500Y-27693543D01*
X500500Y-4878711D01*
X3149500Y-4878711D01*
X3149500Y-5121288D01*
X3181161Y-5361785D01*
X3243947Y-5596104D01*
X3330503Y-5805068D01*
X3336776Y-5820212D01*
X3458064Y-6030289D01*
X3458066Y-6030292D01*
X3458067Y-6030293D01*
X3605733Y-6222736D01*
X3605739Y-6222743D01*
X3777256Y-6394260D01*
X3777263Y-6394266D01*
X3798150Y-6410293D01*
X3969711Y-6541936D01*
X4179788Y-6663224D01*
X4403900Y-6756054D01*
X4638211Y-6818838D01*
X4818586Y-6842584D01*
X4878711Y-6850500D01*
X4878712Y-6850500D01*
X5121289Y-6850500D01*
X5169388Y-6844167D01*
X5361789Y-6818838D01*
X5596100Y-6756054D01*
X5820212Y-6663224D01*
X6030289Y-6541936D01*
X6222738Y-6394265D01*
X6394265Y-6222738D01*
X6541936Y-6030289D01*
X6663224Y-5820212D01*
X6756054Y-5596100D01*
X6818838Y-5361789D01*
X6850500Y-5121288D01*
X6850500Y-4878712D01*
X6818838Y-4638211D01*
X6756054Y-4403900D01*
X6755711Y-4403073D01*
X6733263Y-4348877D01*
X6663224Y-4179788D01*
X6541936Y-3969711D01*
X6481018Y-3890321D01*
X6394266Y-3777263D01*
X6394260Y-3777256D01*
X6222743Y-3605739D01*
X6222736Y-3605733D01*
X6030293Y-3458067D01*
X6030292Y-3458066D01*
X6030289Y-3458064D01*
X5820212Y-3336776D01*
X5820205Y-3336773D01*
X5596104Y-3243947D01*
X5361785Y-3181161D01*
X5121289Y-3149500D01*
X5121288Y-3149500D01*
X4878712Y-3149500D01*
X4878711Y-3149500D01*
X4638214Y-3181161D01*
X4403895Y-3243947D01*
X4179794Y-3336773D01*
X4179785Y-3336777D01*
X3969706Y-3458067D01*
X3777263Y-3605733D01*
X3777256Y-3605739D01*
X3605739Y-3777256D01*
X3605733Y-3777263D01*
X3458067Y-3969706D01*
X3336777Y-4179785D01*
X3336773Y-4179794D01*
X3243947Y-4403895D01*
X3181161Y-4638214D01*
X3149500Y-4878711D01*
X500500Y-4878711D01*
X500500Y-3003750D01*
X500726Y-2996263D01*
X518271Y-2706204D01*
X520076Y-2691339D01*
X571780Y-2409201D01*
X575358Y-2394683D01*
X660700Y-2120806D01*
X665997Y-2106841D01*
X783730Y-1845249D01*
X790675Y-1832016D01*
X939079Y-1586526D01*
X947566Y-1574230D01*
X1124480Y-1348416D01*
X1134395Y-1337225D01*
X1337225Y-1134395D01*
X1348416Y-1124480D01*
X1574230Y-947566D01*
X1586526Y-939079D01*
X1832016Y-790675D01*
X1845249Y-783730D01*
X2106841Y-665997D01*
X2120806Y-660700D01*
X2394683Y-575358D01*
X2409197Y-571780D01*
X2691343Y-520075D01*
X2706200Y-518271D01*
X2996264Y-500726D01*
X3003751Y-500500D01*
X3065892Y-500500D01*
X136934108Y-500500D01*
X136996249Y-500500D01*
X137003736Y-500726D01*
G37*
%TD.AperFunction*%
%TD*%
M02*
