%TF.GenerationSoftware,KiCad,Pcbnew,10.0.3*%
%TF.CreationDate,2026-08-08T19:08:53+12:00*%
%TF.ProjectId,rcm,72636d2e-6b69-4636-9164-5f7063625858,A*%
%TF.SameCoordinates,Original*%
%TF.FileFunction,Copper,L4,Bot*%
%TF.FilePolarity,Positive*%
%FSLAX46Y46*%
G04 Gerber Fmt 4.6, Leading zero omitted, Abs format (unit mm)*
G04 Created by KiCad (PCBNEW 10.0.3) date 2026-08-08 19:08:53*
%MOMM*%
%LPD*%
G01*
G04 APERTURE LIST*
G04 Aperture macros list*
%AMRoundRect*
0 Rectangle with rounded corners*
0 $1 Rounding radius*
0 $2 $3 $4 $5 $6 $7 $8 $9 X,Y pos of 4 corners*
0 Add a 4 corners polygon primitive as box body*
4,1,4,$2,$3,$4,$5,$6,$7,$8,$9,$2,$3,0*
0 Add four circle primitives for the rounded corners*
1,1,$1+$1,$2,$3*
1,1,$1+$1,$4,$5*
1,1,$1+$1,$6,$7*
1,1,$1+$1,$8,$9*
0 Add four rect primitives between the rounded corners*
20,1,$1+$1,$2,$3,$4,$5,0*
20,1,$1+$1,$4,$5,$6,$7,0*
20,1,$1+$1,$6,$7,$8,$9,0*
20,1,$1+$1,$8,$9,$2,$3,0*%
G04 Aperture macros list end*
%TA.AperFunction,ComponentPad*%
%ADD10RoundRect,0.575000X0.575000X0.575000X-0.575000X0.575000X-0.575000X-0.575000X0.575000X-0.575000X0*%
%TD*%
%TA.AperFunction,ComponentPad*%
%ADD11C,2.300000*%
%TD*%
%TA.AperFunction,ComponentPad*%
%ADD12R,1.700000X1.700000*%
%TD*%
%TA.AperFunction,ComponentPad*%
%ADD13C,1.700000*%
%TD*%
%TA.AperFunction,ComponentPad*%
%ADD14RoundRect,0.575000X-0.575000X-0.575000X0.575000X-0.575000X0.575000X0.575000X-0.575000X0.575000X0*%
%TD*%
%TA.AperFunction,ComponentPad*%
%ADD15O,2.100000X1.000000*%
%TD*%
%TA.AperFunction,ComponentPad*%
%ADD16O,1.600000X1.000000*%
%TD*%
%TA.AperFunction,ViaPad*%
%ADD17C,0.600000*%
%TD*%
%TA.AperFunction,ViaPad*%
%ADD18C,0.900000*%
%TD*%
%TA.AperFunction,ViaPad*%
%ADD19C,1.000000*%
%TD*%
%TA.AperFunction,Conductor*%
%ADD20C,0.200000*%
%TD*%
%TA.AperFunction,Conductor*%
%ADD21C,1.000000*%
%TD*%
%TA.AperFunction,Conductor*%
%ADD22C,0.500000*%
%TD*%
%TA.AperFunction,Conductor*%
%ADD23C,1.500000*%
%TD*%
G04 APERTURE END LIST*
D10*
%TO.P,J_CAN2,1*%
%TO.N,CANH*%
X107000000Y-5000000D03*
D11*
%TO.P,J_CAN2,2*%
%TO.N,CANL*%
X103500000Y-5000000D03*
%TO.P,J_CAN2,3*%
%TO.N,GND*%
X100000000Y-5000000D03*
%TD*%
D10*
%TO.P,J_IGN,1*%
%TO.N,LATCH_IGN*%
X51500000Y-5000000D03*
D11*
%TO.P,J_IGN,2*%
%TO.N,GND*%
X48000000Y-5000000D03*
%TD*%
D12*
%TO.P,J_SWD,1*%
%TO.N,+3V3*%
X64000000Y-34000000D03*
D13*
%TO.P,J_SWD,2*%
%TO.N,SWDIO*%
X66540000Y-34000000D03*
%TO.P,J_SWD,3*%
%TO.N,SWCLK*%
X69080000Y-34000000D03*
%TO.P,J_SWD,4*%
%TO.N,NRST*%
X71620000Y-34000000D03*
%TO.P,J_SWD,5*%
%TO.N,GND*%
X74160000Y-34000000D03*
%TD*%
D10*
%TO.P,J_PWR,1*%
%TO.N,+12V_IN*%
X36500000Y-5000000D03*
D11*
%TO.P,J_PWR,2*%
%TO.N,GND*%
X33000000Y-5000000D03*
%TD*%
D14*
%TO.P,J_CH2,1*%
%TO.N,CH8*%
X60300000Y-65000000D03*
D11*
%TO.P,J_CH2,2*%
%TO.N,CH9*%
X63800000Y-65000000D03*
%TO.P,J_CH2,3*%
%TO.N,CH10*%
X67300000Y-65000000D03*
%TO.P,J_CH2,4*%
%TO.N,CH11*%
X70800000Y-65000000D03*
%TO.P,J_CH2,5*%
%TO.N,CH12*%
X74300000Y-65000000D03*
%TO.P,J_CH2,6*%
%TO.N,CH13*%
X77800000Y-65000000D03*
%TO.P,J_CH2,7*%
%TO.N,CH14*%
X81300000Y-65000000D03*
%TD*%
D14*
%TO.P,J_CH3,1*%
%TO.N,CH15*%
X104300000Y-65000000D03*
D11*
%TO.P,J_CH3,2*%
%TO.N,CH16*%
X107800000Y-65000000D03*
%TO.P,J_CH3,3*%
%TO.N,CH17*%
X111300000Y-65000000D03*
%TO.P,J_CH3,4*%
%TO.N,CH18*%
X114800000Y-65000000D03*
%TO.P,J_CH3,5*%
%TO.N,CH19*%
X118300000Y-65000000D03*
%TO.P,J_CH3,6*%
%TO.N,CH20*%
X121800000Y-65000000D03*
%TO.P,J_CH3,7*%
%TO.N,CH21*%
X125300000Y-65000000D03*
%TD*%
D10*
%TO.P,J_AUX,1*%
%TO.N,AUX1*%
X70000000Y-5000000D03*
D11*
%TO.P,J_AUX,2*%
%TO.N,AUX2*%
X66500000Y-5000000D03*
%TO.P,J_AUX,3*%
%TO.N,AUX3*%
X63000000Y-5000000D03*
%TD*%
D12*
%TO.P,JB1,1*%
%TO.N,+12V_SW*%
X29600000Y-15600000D03*
D13*
X29600000Y-19100000D03*
%TO.P,JB1,2*%
%TO.N,GND*%
X29600000Y-22600000D03*
X29600000Y-26100000D03*
%TD*%
D12*
%TO.P,JB2,1*%
%TO.N,+5V*%
X57400000Y-13700000D03*
D13*
X57400000Y-16240000D03*
X57400000Y-18780000D03*
%TO.P,JB2,2*%
%TO.N,GND*%
X57400000Y-21320000D03*
X57400000Y-23860000D03*
X57400000Y-26400000D03*
%TD*%
D14*
%TO.P,J_CH1,1*%
%TO.N,CH1*%
X16300000Y-65000000D03*
D11*
%TO.P,J_CH1,2*%
%TO.N,CH2*%
X19800000Y-65000000D03*
%TO.P,J_CH1,3*%
%TO.N,CH3*%
X23300000Y-65000000D03*
%TO.P,J_CH1,4*%
%TO.N,CH4*%
X26800000Y-65000000D03*
%TO.P,J_CH1,5*%
%TO.N,CH5*%
X30300000Y-65000000D03*
%TO.P,J_CH1,6*%
%TO.N,CH6*%
X33800000Y-65000000D03*
%TO.P,J_CH1,7*%
%TO.N,CH7*%
X37300000Y-65000000D03*
%TD*%
D12*
%TO.P,J_BOOT,1*%
%TO.N,+3V3*%
X56500000Y-30000000D03*
D13*
%TO.P,J_BOOT,2*%
%TO.N,BOOT0*%
X59040000Y-30000000D03*
%TO.P,J_BOOT,3*%
%TO.N,GND*%
X61580000Y-30000000D03*
%TD*%
D15*
%TO.P,J_USB,SH*%
%TO.N,GND*%
X132695000Y-24320000D03*
D16*
X136875000Y-24320000D03*
D15*
X132695000Y-15680000D03*
D16*
X136875000Y-15680000D03*
%TD*%
D10*
%TO.P,J_CAN1,1*%
%TO.N,CANH*%
X88500000Y-5000000D03*
D11*
%TO.P,J_CAN1,2*%
%TO.N,CANL*%
X85000000Y-5000000D03*
%TO.P,J_CAN1,3*%
%TO.N,GND*%
X81500000Y-5000000D03*
%TD*%
D17*
%TO.N,GND*%
X82265600Y-25750000D03*
X113821949Y-16437538D03*
X90677151Y-33963652D03*
X98500000Y-14000000D03*
X73797044Y-26354411D03*
X17625000Y-9125000D03*
X111750000Y-45250000D03*
X8925200Y-25626000D03*
X101750000Y-6258500D03*
X73500000Y-36500000D03*
X121869900Y-36037300D03*
X29250000Y-37500000D03*
X98596814Y-47575778D03*
X51058332Y-33942385D03*
X116848149Y-45588285D03*
X92850600Y-23779800D03*
X81683600Y-19607200D03*
X33633983Y-29083985D03*
X112670152Y-30801872D03*
X113000000Y-24000000D03*
X130278979Y-16432332D03*
X98604827Y-34499720D03*
X14000000Y-32500000D03*
X89356200Y-21022400D03*
X129000000Y-21000000D03*
X86234500Y-26639400D03*
X11000000Y-29000000D03*
X40500550Y-39999450D03*
X76483612Y-15729337D03*
X17689918Y-32645872D03*
X41000000Y-30250000D03*
X66021881Y-40496378D03*
X94500000Y-5000000D03*
X60250000Y-28750000D03*
X88791228Y-14128624D03*
X117214798Y-37546401D03*
X32750000Y-22750000D03*
X117813706Y-24022403D03*
X73250000Y-32000000D03*
X111083604Y-5923985D03*
X11000000Y-31500000D03*
X89953115Y-30786769D03*
X81628600Y-31046500D03*
X16500000Y-8500000D03*
X114360200Y-28367300D03*
X22500000Y-28500000D03*
X32750000Y-25750000D03*
X97362584Y-25283813D03*
X62418731Y-26952514D03*
X103750000Y-20250000D03*
X63179643Y-17638655D03*
X15000000Y-9250000D03*
X44607532Y-40195282D03*
X80028071Y-14115760D03*
X97000000Y-21000000D03*
%TO.N,CH4*%
X13391200Y-39682600D03*
%TO.N,ASNS1*%
X39312400Y-41156600D03*
X50500000Y-10087500D03*
%TO.N,+3V3*%
X61545200Y-36723700D03*
X72031400Y-15500000D03*
%TO.N,IMU_SDA*%
X105500000Y-22702800D03*
X100004400Y-18207600D03*
%TO.N,CH14*%
X67677800Y-44973900D03*
%TO.N,CANH*%
X114745500Y-16293500D03*
%TO.N,LATCH_IGN*%
X16250000Y-30500000D03*
X6500000Y-30500000D03*
%TO.N,IMU_SCL*%
X105750000Y-23500000D03*
X98707200Y-18642600D03*
%TO.N,SR_SCK*%
X75493700Y-36243700D03*
X80310400Y-39273000D03*
X116052000Y-38804900D03*
X123165500Y-40986800D03*
X33345500Y-43984600D03*
X25367500Y-36217000D03*
%TO.N,SR_RCLK*%
X83802900Y-27731000D03*
X118795200Y-37847500D03*
%TO.N,SR_OE_N*%
X82894800Y-27057300D03*
X111195100Y-34835800D03*
X110093100Y-39033600D03*
X115948100Y-31047900D03*
X68411000Y-35432100D03*
%TO.N,SR_CH32*%
X67642700Y-36033800D03*
X115646500Y-36041500D03*
%TO.N,IGN_SENSE*%
X18750000Y-26500000D03*
X78415700Y-30698100D03*
X4250000Y-27500000D03*
X80606100Y-27061100D03*
%TO.N,CH9*%
X62123165Y-39626835D03*
%TO.N,IMU_SDO*%
X112242400Y-25568700D03*
X102250000Y-25250000D03*
%TO.N,ASNS2*%
X54853400Y-35593200D03*
X82958900Y-40654900D03*
X53752200Y-36504400D03*
X61777300Y-13285700D03*
%TO.N,CH13*%
X59910400Y-41205100D03*
%TO.N,CH1*%
X15656800Y-37119800D03*
%TO.N,CH10*%
X56951100Y-39724873D03*
D18*
%TO.N,+5V*%
X36867300Y-32000000D03*
X37250000Y-33000000D03*
D17*
%TO.N,CH7*%
X23000000Y-44750000D03*
%TO.N,SNS16*%
X101798000Y-48231200D03*
X122331900Y-40428900D03*
%TO.N,CH21*%
X104924265Y-44325735D03*
%TO.N,ASNS3*%
X124571700Y-40075100D03*
X98112600Y-11036700D03*
%TO.N,SR_PL*%
X76355000Y-40976900D03*
X119624400Y-41068100D03*
X86401000Y-31189600D03*
%TO.N,SR_DI23*%
X121185200Y-39055200D03*
X104749500Y-36479500D03*
%TO.N,SR_DI12*%
X83975000Y-39034100D03*
X51661600Y-37525000D03*
%TO.N,SNS8*%
X70500000Y-45750000D03*
X80832700Y-44500000D03*
%TO.N,SNS9*%
X80123600Y-40878300D03*
X71566400Y-45600000D03*
%TO.N,SNS11*%
X77091000Y-39590300D03*
X72166400Y-47600000D03*
%TO.N,SNS15*%
X99781000Y-51087500D03*
X127160600Y-39008800D03*
%TO.N,CH2*%
X15924200Y-38375000D03*
%TO.N,SR_MISO*%
X91040500Y-30933200D03*
X118181800Y-34946400D03*
%TO.N,SWDIO*%
X91969200Y-21275000D03*
%TO.N,SWCLK*%
X91489600Y-18037900D03*
%TO.N,NRST*%
X81962400Y-23140100D03*
X78018800Y-24006100D03*
X94149800Y-22742600D03*
%TO.N,+12V_P*%
X11013300Y-34967400D03*
X11000000Y-34250000D03*
X12934300Y-40989100D03*
X55500000Y-39000000D03*
X104894200Y-39774500D03*
%TO.N,CH12*%
X60314405Y-40514605D03*
%TO.N,CH5*%
X16307000Y-40174400D03*
%TO.N,CH20*%
X104603000Y-43250000D03*
%TO.N,CH8*%
X57000000Y-38750000D03*
%TO.N,BOOT0*%
X84484100Y-16365400D03*
%TO.N,LATCH_HOLD*%
X72794865Y-44526465D03*
X17250000Y-36167400D03*
X85827400Y-32703300D03*
X42211700Y-46766800D03*
%TO.N,CH6*%
X16426100Y-40976200D03*
%TO.N,LED1*%
X77183515Y-14539215D03*
X91973400Y-23750000D03*
D19*
%TO.N,+12V_IN*%
X4250000Y-18500000D03*
X7500000Y-18500000D03*
X6000000Y-18500000D03*
D17*
%TO.N,CH11*%
X61103450Y-40646550D03*
%TO.N,DRV17*%
X98380700Y-38656000D03*
X107632800Y-39335800D03*
%TO.N,DRV18*%
X94105700Y-39862600D03*
X109039700Y-40983300D03*
%TO.N,DRV19*%
X98187100Y-40325000D03*
X104000000Y-39500500D03*
%TO.N,DRV20*%
X101000000Y-37818600D03*
X108448400Y-39004100D03*
%TO.N,DRV21*%
X99379500Y-41625000D03*
X108290000Y-40409800D03*
%TO.N,CH19*%
X103306700Y-44434500D03*
%TO.N,CH3*%
X16013500Y-39181100D03*
%TO.N,CFG_ROLE*%
X84653400Y-21456300D03*
X98417300Y-6261100D03*
%TO.N,CFG_ADDR0*%
X112739000Y-5595000D03*
X85089900Y-22153900D03*
%TO.N,CFG_ADDR1*%
X112453500Y-6858400D03*
X85110300Y-22955700D03*
%TO.N,CFG_BAUD*%
X85217400Y-23757500D03*
X112457700Y-8135000D03*
%TO.N,CFG_IMU_EN*%
X113037800Y-9405000D03*
X84294100Y-28374700D03*
%TO.N,SNS4*%
X37169400Y-35644700D03*
X31000000Y-44250000D03*
%TO.N,AUX2*%
X67779400Y-7865300D03*
%TO.N,SR_MOSI*%
X110910000Y-38975300D03*
X85547400Y-31780400D03*
%TO.N,IMU_INT1*%
X92325900Y-22965200D03*
X78003900Y-26287500D03*
%TO.N,LED2*%
X71450600Y-13887400D03*
X85287400Y-16562300D03*
%TO.N,CAN_RX*%
X90754500Y-17055200D03*
X87419600Y-20702000D03*
%TO.N,CAN_RS*%
X111052300Y-18000000D03*
X108417500Y-9667200D03*
%TO.N,AUX3*%
X71500000Y-11055200D03*
%TO.N,SNS2*%
X37435000Y-39004200D03*
X12603000Y-48834400D03*
%TO.N,USB_VBUS*%
X130673400Y-17600000D03*
X130059800Y-22456300D03*
%TD*%
%TO.N,GND*%
D20*
X81683600Y-19607200D02*
X81360700Y-19930100D01*
X90664400Y-25966000D02*
X86234500Y-25966000D01*
X114762000Y-28367300D02*
X114360200Y-28367300D01*
X93011300Y-23619100D02*
X93011300Y-20878300D01*
X81683600Y-19607200D02*
X81683600Y-21609300D01*
X82564100Y-22489800D02*
X82564100Y-24123500D01*
X81683600Y-21609300D02*
X82564100Y-22489800D01*
X81360700Y-24845100D02*
X82265600Y-25750000D01*
X82564100Y-24123500D02*
X82919700Y-24479100D01*
X92850600Y-23779800D02*
X93011300Y-23619100D01*
X121869900Y-35475200D02*
X114762000Y-28367300D01*
X84213900Y-25966000D02*
X86234500Y-25966000D01*
X82265600Y-30409500D02*
X82265600Y-25750000D01*
X92850600Y-23779800D02*
X90664400Y-25966000D01*
X90115500Y-20263100D02*
X89356200Y-21022400D01*
X82919700Y-24671800D02*
X84213900Y-25966000D01*
X121869900Y-36037300D02*
X121869900Y-35475200D01*
X93011300Y-20878300D02*
X92396100Y-20263100D01*
X81360700Y-19930100D02*
X81360700Y-24845100D01*
X86234500Y-25966000D02*
X86234500Y-26639400D01*
X81628600Y-31046500D02*
X82265600Y-30409500D01*
X92396100Y-20263100D02*
X90115500Y-20263100D01*
X82919700Y-24479100D02*
X82919700Y-24671800D01*
%TO.N,CH4*%
X15315000Y-66466700D02*
X13536000Y-64687700D01*
X13536000Y-39827400D02*
X13391200Y-39682600D01*
X25333300Y-66466700D02*
X15315000Y-66466700D01*
X13536000Y-64687700D02*
X13536000Y-39827400D01*
X26800000Y-65000000D02*
X25333300Y-66466700D01*
%TO.N,ASNS1*%
X50500000Y-10087500D02*
X50500000Y-17000000D01*
X50500000Y-17000000D02*
X39312400Y-28187600D01*
X39312400Y-28187600D02*
X39312400Y-41156600D01*
%TO.N,+3V3*%
X64000000Y-23531400D02*
X72031400Y-15500000D01*
X64000000Y-34000000D02*
X64000000Y-23531400D01*
X61545200Y-34000000D02*
X61545200Y-36723700D01*
X61363800Y-34000000D02*
X61545200Y-34000000D01*
X57651700Y-30287900D02*
X61363800Y-34000000D01*
X57651700Y-30000000D02*
X57651700Y-30287900D01*
X56500000Y-30000000D02*
X57651700Y-30000000D01*
X61545200Y-34000000D02*
X64000000Y-34000000D01*
%TO.N,IMU_SDA*%
X104952800Y-22702800D02*
X100457600Y-18207600D01*
X100457600Y-18207600D02*
X100004400Y-18207600D01*
X105500000Y-22702800D02*
X104952800Y-22702800D01*
%TO.N,CH14*%
X68837900Y-46134000D02*
X68837900Y-47245000D01*
X68837900Y-47245000D02*
X71562300Y-49969400D01*
X71562300Y-49969400D02*
X71634800Y-49969400D01*
X71634800Y-49969400D02*
X81300000Y-59634600D01*
X67677800Y-44973900D02*
X68837900Y-46134000D01*
X81300000Y-59634600D02*
X81300000Y-65000000D01*
%TO.N,CANH*%
X114745500Y-6750400D02*
X112917000Y-4921900D01*
X107078100Y-4921900D02*
X107000000Y-5000000D01*
X112917000Y-4921900D02*
X107078100Y-4921900D01*
X114745500Y-16293500D02*
X114745500Y-6750400D01*
%TO.N,LATCH_IGN*%
X16250000Y-30500000D02*
X25900000Y-20850000D01*
X16250000Y-30500000D02*
X6500000Y-30500000D01*
X25900000Y-20850000D02*
X35650000Y-20850000D01*
X35650000Y-20850000D02*
X51500000Y-5000000D01*
%TO.N,IMU_SCL*%
X105750000Y-23500000D02*
X104446000Y-23500000D01*
X99588600Y-18642600D02*
X98707200Y-18642600D01*
X104446000Y-23500000D02*
X99588600Y-18642600D01*
%TO.N,SR_SCK*%
X85961200Y-30182400D02*
X86969000Y-30182400D01*
X38469600Y-43984600D02*
X33345500Y-43984600D01*
X86969000Y-30182400D02*
X88338900Y-31552300D01*
X116052000Y-38236800D02*
X116052000Y-38804900D01*
X121434400Y-38453500D02*
X116403400Y-38453500D01*
X75500000Y-36250000D02*
X79893600Y-36250000D01*
X54311700Y-35902700D02*
X53503100Y-35902700D01*
X25577900Y-36217000D02*
X25367500Y-36217000D01*
X53503100Y-35902700D02*
X53107800Y-36298000D01*
X59732200Y-36298100D02*
X54707100Y-36298100D01*
X116403400Y-38453500D02*
X116052000Y-38804900D01*
X74412000Y-37325400D02*
X60759500Y-37325400D01*
X123165500Y-40184600D02*
X121434400Y-38453500D01*
X75493700Y-36243700D02*
X74412000Y-37325400D01*
X109367500Y-31552300D02*
X116052000Y-38236800D01*
X53107800Y-36298000D02*
X53107800Y-36298100D01*
X33345500Y-43984600D02*
X25577900Y-36217000D01*
X123165500Y-40986800D02*
X123165500Y-40184600D01*
X54707100Y-36298100D02*
X54311700Y-35902700D01*
X88338900Y-31552300D02*
X109367500Y-31552300D01*
X60759500Y-37325400D02*
X59732200Y-36298100D01*
X80310400Y-36401200D02*
X80026400Y-36117200D01*
X80310400Y-39273000D02*
X80310400Y-36401200D01*
X53107800Y-36298100D02*
X46156100Y-36298100D01*
X79893600Y-36250000D02*
X80026400Y-36117200D01*
X80026400Y-36117200D02*
X85961200Y-30182400D01*
X46156100Y-36298100D02*
X38469600Y-43984600D01*
X75493700Y-36243700D02*
X75500000Y-36250000D01*
%TO.N,SR_RCLK*%
X84750900Y-28974300D02*
X84399800Y-29325400D01*
X84386200Y-29325400D02*
X83606200Y-28545400D01*
X118795200Y-32998600D02*
X114770900Y-28974300D01*
X83606200Y-28545400D02*
X83606200Y-27927700D01*
X84399800Y-29325400D02*
X84386200Y-29325400D01*
X114770900Y-28974300D02*
X84750900Y-28974300D01*
X118795200Y-37847500D02*
X118795200Y-32998600D01*
X83606200Y-27927700D02*
X83802900Y-27731000D01*
%TO.N,SR_OE_N*%
X82894800Y-27057300D02*
X82894800Y-28402000D01*
X84240200Y-29746500D02*
X84239800Y-29746900D01*
X84546800Y-29746500D02*
X84240200Y-29746500D01*
X111195100Y-34835800D02*
X110093100Y-35937800D01*
X110093100Y-35937800D02*
X110093100Y-39033600D01*
X74356700Y-35432100D02*
X68411000Y-35432100D01*
X78986700Y-35000000D02*
X74788800Y-35000000D01*
X114277700Y-29377500D02*
X84915800Y-29377500D01*
X115948100Y-31047900D02*
X114277700Y-29377500D01*
X84239800Y-29746900D02*
X78986700Y-35000000D01*
X82894800Y-28402000D02*
X84239800Y-29746900D01*
X74788800Y-35000000D02*
X74356700Y-35432100D01*
X84915800Y-29377500D02*
X84546800Y-29746500D01*
%TO.N,SR_CH32*%
X68859529Y-35832100D02*
X74522386Y-35832100D01*
X85152700Y-29779200D02*
X109384200Y-29779200D01*
X79431900Y-35500000D02*
X85152700Y-29779200D01*
X67642700Y-36033800D02*
X68657829Y-36033800D01*
X109384200Y-29779200D02*
X115646500Y-36041500D01*
X68657829Y-36033800D02*
X68859529Y-35832100D01*
X74522386Y-35832100D02*
X74854486Y-35500000D01*
X74854486Y-35500000D02*
X79431900Y-35500000D01*
%TO.N,IGN_SENSE*%
X80606100Y-27061100D02*
X78415700Y-29251500D01*
X78415700Y-29251500D02*
X78415700Y-30698100D01*
X18088100Y-27161900D02*
X4588100Y-27161900D01*
X18750000Y-26500000D02*
X18088100Y-27161900D01*
X4588100Y-27161900D02*
X4250000Y-27500000D01*
%TO.N,CH9*%
X62123165Y-39624565D02*
X61998600Y-39500000D01*
X59329700Y-39500000D02*
X58861400Y-39968300D01*
X61998600Y-39500000D02*
X61713485Y-39500000D01*
X61713485Y-39500000D02*
X61563485Y-39350000D01*
X62123165Y-39626835D02*
X62123165Y-39624565D01*
X61563485Y-39350000D02*
X59482014Y-39350000D01*
X59332015Y-39500000D02*
X59329700Y-39500000D01*
X59482014Y-39350000D02*
X59332015Y-39500000D01*
X58861400Y-60061400D02*
X63800000Y-65000000D01*
X58861400Y-39968300D02*
X58861400Y-60061400D01*
%TO.N,IMU_SDO*%
X104790900Y-25568700D02*
X112242400Y-25568700D01*
X104472200Y-25250000D02*
X104790900Y-25568700D01*
X102250000Y-25250000D02*
X104472200Y-25250000D01*
%TO.N,ASNS2*%
X84772200Y-39125800D02*
X83142300Y-40755700D01*
X83142300Y-40755700D02*
X83059700Y-40755700D01*
X84252200Y-38432300D02*
X84772200Y-38952300D01*
X82628200Y-38432300D02*
X84252200Y-38432300D01*
X58186100Y-36910900D02*
X59777000Y-36910900D01*
X79488200Y-39874800D02*
X81185700Y-39874800D01*
X61777300Y-16972700D02*
X61777300Y-13285700D01*
X53752200Y-36504400D02*
X53958500Y-36710700D01*
X53958500Y-36710700D02*
X57985900Y-36710700D01*
X59777000Y-36910900D02*
X60593200Y-37727100D01*
X54853400Y-35593200D02*
X54853400Y-21396600D01*
X58700000Y-20050000D02*
X61777300Y-16972700D01*
X81185700Y-39874800D02*
X82628200Y-38432300D01*
X83059700Y-40755700D02*
X82958900Y-40654900D01*
X60593200Y-37727100D02*
X77340500Y-37727100D01*
X57985900Y-36710700D02*
X58186100Y-36910900D01*
X54853400Y-21396600D02*
X56200000Y-20050000D01*
X56200000Y-20050000D02*
X58700000Y-20050000D01*
X77340500Y-37727100D02*
X79488200Y-39874800D01*
X84772200Y-38952300D02*
X84772200Y-39125800D01*
%TO.N,CH13*%
X59647700Y-39750000D02*
X61397800Y-39750000D01*
X59286300Y-40111400D02*
X59647700Y-39750000D01*
X77800000Y-56775100D02*
X77800000Y-65000000D01*
X68436200Y-47411300D02*
X77800000Y-56775100D01*
X68436200Y-46788400D02*
X68436200Y-47411300D01*
X61397800Y-39750000D02*
X68436200Y-46788400D01*
X59910400Y-41205100D02*
X59286300Y-40581000D01*
X59286300Y-40581000D02*
X59286300Y-40111400D01*
%TO.N,CH1*%
X14554400Y-38222200D02*
X14554400Y-63254400D01*
X14554400Y-63254400D02*
X16300000Y-65000000D01*
X15656800Y-37119800D02*
X14554400Y-38222200D01*
%TO.N,CH10*%
X56949400Y-39726573D02*
X56949400Y-64057000D01*
X65835600Y-66464400D02*
X67300000Y-65000000D01*
X56951100Y-39724873D02*
X56949400Y-39726573D01*
X56949400Y-64057000D02*
X59356800Y-66464400D01*
X59356800Y-66464400D02*
X65835600Y-66464400D01*
%TO.N,+5V*%
D21*
X49426400Y-9000000D02*
X51548300Y-9000000D01*
X36867300Y-21559100D02*
X49426400Y-9000000D01*
X36867300Y-32000000D02*
X36867300Y-21559100D01*
X57400000Y-18780000D02*
X57400000Y-16240000D01*
X36867300Y-32617300D02*
X37250000Y-33000000D01*
X56248300Y-13700000D02*
X57400000Y-13700000D01*
X57400000Y-16240000D02*
X57400000Y-13700000D01*
X36867300Y-32000000D02*
X36867300Y-32617300D01*
X51548300Y-9000000D02*
X56248300Y-13700000D01*
%TO.N,CH7*%
D20*
X24458400Y-52158400D02*
X37300000Y-65000000D01*
X23000000Y-44750000D02*
X24458400Y-46208400D01*
X24458400Y-46208400D02*
X24458400Y-52158400D01*
%TO.N,SNS16*%
X101798000Y-44202000D02*
X104000000Y-42000000D01*
X120760800Y-42000000D02*
X122331900Y-40428900D01*
X101798000Y-48231200D02*
X101798000Y-44202000D01*
X104000000Y-42000000D02*
X120760800Y-42000000D01*
%TO.N,CH21*%
X104924265Y-44325735D02*
X105325735Y-44325735D01*
X105325735Y-44325735D02*
X125300000Y-64300000D01*
X125300000Y-64300000D02*
X125300000Y-65000000D01*
%TO.N,ASNS3*%
X98635000Y-11036700D02*
X98112600Y-11036700D01*
X124571700Y-40075100D02*
X124571700Y-36973400D01*
X124571700Y-36973400D02*
X98635000Y-11036700D01*
%TO.N,SR_PL*%
X98492300Y-39257700D02*
X97007700Y-39257700D01*
X105782500Y-38900500D02*
X98980700Y-38900500D01*
X106844000Y-39962000D02*
X105782500Y-38900500D01*
X98980700Y-38900500D02*
X98980700Y-38904529D01*
X80539100Y-41881700D02*
X80878400Y-41542400D01*
X86429100Y-38796300D02*
X86429100Y-31217700D01*
X108056700Y-39788700D02*
X107883400Y-39962000D01*
X110334100Y-41068100D02*
X109054700Y-39788700D01*
X98494000Y-39256000D02*
X98492300Y-39257700D01*
X109054700Y-39788700D02*
X108056700Y-39788700D01*
X91992300Y-39257700D02*
X86890500Y-39257700D01*
X80878400Y-41542400D02*
X82427600Y-41542400D01*
X77259800Y-41881700D02*
X80539100Y-41881700D01*
X119624400Y-41068100D02*
X110334100Y-41068100D01*
X86890500Y-39257700D02*
X86429100Y-38796300D01*
X92800000Y-38450000D02*
X91992300Y-39257700D01*
X82543500Y-41658300D02*
X83567100Y-41658300D01*
X98629229Y-39256000D02*
X98494000Y-39256000D01*
X76355000Y-40976900D02*
X77259800Y-41881700D01*
X86429100Y-31217700D02*
X86401000Y-31189600D01*
X97007700Y-39257700D02*
X96200000Y-38450000D01*
X107883400Y-39962000D02*
X106844000Y-39962000D01*
X82427600Y-41542400D02*
X82543500Y-41658300D01*
X98980700Y-38904529D02*
X98629229Y-39256000D01*
X96200000Y-38450000D02*
X92800000Y-38450000D01*
X83567100Y-41658300D02*
X86429100Y-38796300D01*
%TO.N,SR_DI23*%
X109858000Y-39682400D02*
X120558000Y-39682400D01*
X120558000Y-39682400D02*
X121185200Y-39055200D01*
X104749500Y-36479500D02*
X106774700Y-36479500D01*
X106774700Y-36479500D02*
X109050100Y-38754900D01*
X109050100Y-38874500D02*
X109858000Y-39682400D01*
X109050100Y-38754900D02*
X109050100Y-38874500D01*
%TO.N,SR_DI12*%
X60426900Y-38128800D02*
X77174200Y-38128800D01*
X58019800Y-37312600D02*
X59610700Y-37312600D01*
X59610700Y-37312600D02*
X60426900Y-38128800D01*
X77174200Y-38128800D02*
X79321900Y-40276500D01*
X83728400Y-39034100D02*
X83975000Y-39034100D01*
X51661600Y-37525000D02*
X52074200Y-37112400D01*
X79321900Y-40276500D02*
X82486000Y-40276500D01*
X52074200Y-37112400D02*
X57819600Y-37112400D01*
X82486000Y-40276500D02*
X83728400Y-39034100D01*
X57819600Y-37112400D02*
X58019800Y-37312600D01*
%TO.N,SNS8*%
X70500000Y-47000000D02*
X70500000Y-45750000D01*
X80111600Y-44500000D02*
X76361600Y-48250000D01*
X71750000Y-48250000D02*
X70500000Y-47000000D01*
X80832700Y-44500000D02*
X80111600Y-44500000D01*
X76361600Y-48250000D02*
X71750000Y-48250000D01*
%TO.N,SNS9*%
X76250800Y-38937600D02*
X77414900Y-38937600D01*
X71750000Y-43438400D02*
X76250800Y-38937600D01*
X77414900Y-38937600D02*
X79355600Y-40878300D01*
X79355600Y-40878300D02*
X80123600Y-40878300D01*
X71750000Y-45416400D02*
X71750000Y-43438400D01*
X71566400Y-45600000D02*
X71750000Y-45416400D01*
%TO.N,SNS11*%
X72166400Y-47600000D02*
X72166400Y-43600000D01*
X72166400Y-43600000D02*
X76176100Y-39590300D01*
X76176100Y-39590300D02*
X77091000Y-39590300D01*
%TO.N,SNS15*%
X100477800Y-51087500D02*
X102869300Y-48696000D01*
X102869300Y-48696000D02*
X102869300Y-44848000D01*
X102869300Y-44848000D02*
X102662500Y-44641200D01*
X102662500Y-44641200D02*
X102662500Y-44087500D01*
X99781000Y-51087500D02*
X100477800Y-51087500D01*
X102662500Y-44087500D02*
X104250000Y-42500000D01*
X104250000Y-42500000D02*
X123669400Y-42500000D01*
X123669400Y-42500000D02*
X127160600Y-39008800D01*
%TO.N,CH2*%
X15924200Y-38375000D02*
X14956100Y-39343100D01*
X14956100Y-39343100D02*
X14956100Y-60156100D01*
X14956100Y-60156100D02*
X19800000Y-65000000D01*
%TO.N,SR_MISO*%
X115204000Y-36658300D02*
X109478900Y-30933200D01*
X118181800Y-34946400D02*
X116469900Y-36658300D01*
X109478900Y-30933200D02*
X91040500Y-30933200D01*
X116469900Y-36658300D02*
X115204000Y-36658300D01*
%TO.N,SWDIO*%
X66540000Y-23154100D02*
X76577500Y-13116600D01*
X84051700Y-21705400D02*
X84271800Y-21925500D01*
X77952700Y-13116600D02*
X84051700Y-19215600D01*
X84271800Y-21925500D02*
X84271800Y-23466600D01*
X84051700Y-19215600D02*
X84051700Y-21705400D01*
X76577500Y-13116600D02*
X77952700Y-13116600D01*
X84271800Y-23466600D02*
X84526500Y-23721300D01*
X84950400Y-24359200D02*
X87438300Y-24359200D01*
X90522500Y-21275000D02*
X91969200Y-21275000D01*
X84526500Y-23935300D02*
X84950400Y-24359200D01*
X87438300Y-24359200D02*
X90522500Y-21275000D01*
X66540000Y-34000000D02*
X66540000Y-23154100D01*
X84526500Y-23721300D02*
X84526500Y-23935300D01*
%TO.N,SWCLK*%
X83769200Y-23624600D02*
X84124800Y-23980200D01*
X89957900Y-21271600D02*
X89605400Y-21624100D01*
X84124800Y-24172900D02*
X84712800Y-24760900D01*
X84124800Y-23980200D02*
X84124800Y-24172900D01*
X83650000Y-19444100D02*
X83650000Y-21871700D01*
X77730100Y-13524200D02*
X83650000Y-19444100D01*
X92238100Y-20673200D02*
X90452700Y-20673200D01*
X90452700Y-20673200D02*
X89957900Y-21168000D01*
X83769200Y-21990900D02*
X83769200Y-23624600D01*
X87667700Y-24760900D02*
X90551900Y-21876700D01*
X84712800Y-24760900D02*
X87667700Y-24760900D01*
X69080000Y-34000000D02*
X69080000Y-21197200D01*
X76753000Y-13524200D02*
X77730100Y-13524200D01*
X90551900Y-21876700D02*
X92261500Y-21876700D01*
X92261500Y-21876700D02*
X92580800Y-21557400D01*
X92580800Y-21015900D02*
X92238100Y-20673200D01*
X89605400Y-21624100D02*
X89107100Y-21624100D01*
X69080000Y-21197200D02*
X76753000Y-13524200D01*
X83650000Y-21871700D02*
X83769200Y-21990900D01*
X89107100Y-21624100D02*
X88754500Y-21271500D01*
X88754500Y-20773000D02*
X91489600Y-18037900D01*
X92580800Y-21557400D02*
X92580800Y-21015900D01*
X88754500Y-21271500D02*
X88754500Y-20773000D01*
X89957900Y-21168000D02*
X89957900Y-21271600D01*
%TO.N,NRST*%
X90599100Y-26895500D02*
X93566900Y-23927700D01*
X93566900Y-23927700D02*
X93566900Y-23325500D01*
X93566900Y-23325500D02*
X94149800Y-22742600D01*
X81962400Y-24282500D02*
X84921000Y-27241100D01*
X81962400Y-23140100D02*
X81962400Y-24282500D01*
X84921000Y-27241100D02*
X86483700Y-27241100D01*
X71620000Y-34000000D02*
X71620000Y-30404900D01*
X86829300Y-26895500D02*
X90599100Y-26895500D01*
X71620000Y-30404900D02*
X78018800Y-24006100D01*
X86483700Y-27241100D02*
X86829300Y-26895500D01*
%TO.N,+12V_P*%
D22*
X11013300Y-34967400D02*
X11013300Y-39068100D01*
X69750000Y-45750000D02*
X69750000Y-47250000D01*
X104267200Y-40401500D02*
X104894200Y-39774500D01*
X62750000Y-38750000D02*
X69750000Y-45750000D01*
X99303000Y-40401500D02*
X104267200Y-40401500D01*
X57500000Y-37750000D02*
X58500000Y-38750000D01*
X93543900Y-39000000D02*
X95172400Y-39000000D01*
X11000000Y-34250000D02*
X11236400Y-34486400D01*
X55500000Y-39000000D02*
X56750000Y-37750000D01*
X11013300Y-39068100D02*
X12934300Y-40989100D01*
X30295700Y-45500000D02*
X50783500Y-45500000D01*
X58500000Y-38750000D02*
X62750000Y-38750000D01*
X98629500Y-41075000D02*
X99303000Y-40401500D01*
X11236400Y-34486400D02*
X19282200Y-34486400D01*
X95172400Y-39000000D02*
X97247400Y-41075000D01*
X69750000Y-47250000D02*
X72067700Y-49567700D01*
X50783500Y-45500000D02*
X55500000Y-40783500D01*
X55500000Y-40783500D02*
X55500000Y-39000000D01*
X56750000Y-37750000D02*
X57500000Y-37750000D01*
X19282200Y-34486500D02*
X30295700Y-45500000D01*
X19282200Y-34486400D02*
X19282200Y-34486500D01*
X72067700Y-49567700D02*
X82976200Y-49567700D01*
X97247400Y-41075000D02*
X98629500Y-41075000D01*
X82976200Y-49567700D02*
X93543900Y-39000000D01*
%TO.N,CH12*%
D20*
X60314405Y-40514605D02*
X60314405Y-40717905D01*
X69050100Y-49453600D02*
X69050100Y-65337700D01*
X69050100Y-65337700D02*
X70191300Y-66478900D01*
X70191300Y-66478900D02*
X72821100Y-66478900D01*
X60314405Y-40717905D02*
X69050100Y-49453600D01*
X72821100Y-66478900D02*
X74300000Y-65000000D01*
%TO.N,CH5*%
X15824300Y-50524300D02*
X15824300Y-40657100D01*
X30300000Y-65000000D02*
X15824300Y-50524300D01*
X15824300Y-40657100D02*
X16307000Y-40174400D01*
%TO.N,CH20*%
X121800000Y-62050000D02*
X121800000Y-65000000D01*
X104603000Y-43798471D02*
X104324265Y-44077206D01*
X104324265Y-44574264D02*
X121800000Y-62050000D01*
X104603000Y-43250000D02*
X104603000Y-43798471D01*
X104324265Y-44077206D02*
X104324265Y-44574264D01*
%TO.N,CH8*%
X57000000Y-38750000D02*
X57551100Y-39301100D01*
X57551100Y-62251100D02*
X60300000Y-65000000D01*
X57551100Y-39301100D02*
X57551100Y-62251100D01*
%TO.N,+12V_SW*%
D21*
X29600000Y-19100000D02*
X29600000Y-15600000D01*
%TO.N,BOOT0*%
D20*
X80805400Y-12686700D02*
X73943500Y-12686700D01*
X73943500Y-12686700D02*
X59040000Y-27590200D01*
X59040000Y-27590200D02*
X59040000Y-30000000D01*
X84484100Y-16365400D02*
X80805400Y-12686700D01*
%TO.N,LATCH_HOLD*%
X72768400Y-44500000D02*
X72768400Y-43629500D01*
X76022800Y-40375100D02*
X76755000Y-40375100D01*
X28368200Y-46766800D02*
X42211700Y-46766800D01*
X85827400Y-38638600D02*
X85827400Y-32703300D01*
X82587900Y-41134700D02*
X82709800Y-41256600D01*
X83209400Y-41256600D02*
X85827400Y-38638600D01*
X72794865Y-44526465D02*
X72768400Y-44500000D01*
X72768400Y-43629500D02*
X76022800Y-40375100D01*
X76755000Y-40375100D02*
X77859900Y-41480000D01*
X17250000Y-36167400D02*
X17768800Y-36167400D01*
X17768800Y-36167400D02*
X28368200Y-46766800D01*
X82709800Y-41256600D02*
X83209400Y-41256600D01*
X80718100Y-41134700D02*
X82587900Y-41134700D01*
X77859900Y-41480000D02*
X80372800Y-41480000D01*
X80372800Y-41480000D02*
X80718100Y-41134700D01*
%TO.N,CH6*%
X33800000Y-65000000D02*
X16426100Y-47626100D01*
X16426100Y-47626100D02*
X16426100Y-40976200D01*
%TO.N,LED1*%
X77183515Y-14539215D02*
X77196900Y-14552600D01*
X82846600Y-19859200D02*
X82846600Y-22204300D01*
X84380200Y-25564300D02*
X90159100Y-25564300D01*
X90159100Y-25564300D02*
X91973400Y-23750000D01*
X83321400Y-24312800D02*
X83321400Y-24505500D01*
X77196900Y-14552600D02*
X77540000Y-14552600D01*
X82965800Y-22323500D02*
X82965800Y-23957200D01*
X82965800Y-23957200D02*
X83321400Y-24312800D01*
X77540000Y-14552600D02*
X82846600Y-19859200D01*
X82846600Y-22204300D02*
X82965800Y-22323500D01*
X83321400Y-24505500D02*
X84380200Y-25564300D01*
%TO.N,+12V_IN*%
D23*
X6000000Y-18500000D02*
X4250000Y-18500000D01*
X33500000Y-10250000D02*
X36500000Y-7250000D01*
X10414500Y-16585500D02*
X23914500Y-16585500D01*
X8500000Y-18500000D02*
X10414500Y-16585500D01*
X30250000Y-10250000D02*
X33500000Y-10250000D01*
X36500000Y-7250000D02*
X36500000Y-5000000D01*
X7500000Y-18500000D02*
X8500000Y-18500000D01*
X23914500Y-16585500D02*
X30250000Y-10250000D01*
X6000000Y-18500000D02*
X7500000Y-18500000D01*
%TO.N,CH11*%
D20*
X70800000Y-50343100D02*
X70800000Y-65000000D01*
X61103450Y-40646550D02*
X70800000Y-50343100D01*
%TO.N,DRV17*%
X106797500Y-38500500D02*
X98536200Y-38500500D01*
X98536200Y-38500500D02*
X98380700Y-38656000D01*
X107632800Y-39335800D02*
X106797500Y-38500500D01*
%TO.N,DRV18*%
X100470100Y-41500000D02*
X108523000Y-41500000D01*
X99704100Y-42266000D02*
X100470100Y-41500000D01*
X108523000Y-41500000D02*
X109039700Y-40983300D01*
X96509100Y-42266000D02*
X99704100Y-42266000D01*
X94105700Y-39862600D02*
X96509100Y-42266000D01*
%TO.N,DRV19*%
X99006050Y-39500000D02*
X98187100Y-40318950D01*
X103999500Y-39500000D02*
X99006050Y-39500000D01*
X98187100Y-40318950D02*
X98187100Y-40325000D01*
X104000000Y-39500500D02*
X103999500Y-39500000D01*
%TO.N,DRV20*%
X101068600Y-37750000D02*
X107194300Y-37750000D01*
X101000000Y-37818600D02*
X101068600Y-37750000D01*
X107194300Y-37750000D02*
X108448400Y-39004100D01*
%TO.N,DRV21*%
X107699800Y-41000000D02*
X108290000Y-40409800D01*
X100004500Y-41000000D02*
X107699800Y-41000000D01*
X99379500Y-41625000D02*
X100004500Y-41000000D01*
%TO.N,CH19*%
X103306700Y-50006700D02*
X103306700Y-44434500D01*
X118300000Y-65000000D02*
X103306700Y-50006700D01*
%TO.N,CH3*%
X15407800Y-57107800D02*
X15407800Y-39786800D01*
X23300000Y-65000000D02*
X15407800Y-57107800D01*
X15407800Y-39786800D02*
X16013500Y-39181100D01*
%TO.N,CFG_ROLE*%
X98417300Y-6261100D02*
X84653400Y-20025000D01*
X84653400Y-20025000D02*
X84653400Y-21456300D01*
%TO.N,CFG_ADDR0*%
X112739000Y-5595000D02*
X111475500Y-6858500D01*
X99532300Y-6858500D02*
X85475300Y-20915500D01*
X85475300Y-20915500D02*
X85475300Y-21768500D01*
X111475500Y-6858500D02*
X99532300Y-6858500D01*
X85475300Y-21768500D02*
X85089900Y-22153900D01*
%TO.N,CFG_ADDR1*%
X85139100Y-22955600D02*
X85110300Y-22955600D01*
X99832500Y-7260200D02*
X90639200Y-16453500D01*
X90152700Y-16806100D02*
X90152700Y-17101400D01*
X112453500Y-6858400D02*
X112051700Y-7260200D01*
X86817900Y-21276800D02*
X85139100Y-22955600D01*
X90505300Y-16453500D02*
X90152700Y-16806100D01*
X90639200Y-16453500D02*
X90505300Y-16453500D01*
X112051700Y-7260200D02*
X99832500Y-7260200D01*
X85110300Y-22955600D02*
X85110300Y-22955700D01*
X90152700Y-17101400D02*
X86817900Y-20436200D01*
X86817900Y-20436200D02*
X86817900Y-21276800D01*
%TO.N,CFG_BAUD*%
X99595500Y-8135000D02*
X112457700Y-8135000D01*
X88021300Y-20654200D02*
X97109200Y-11566300D01*
X97109200Y-10621300D02*
X99595500Y-8135000D01*
X85217400Y-23757500D02*
X88021300Y-20953600D01*
X97109200Y-11566300D02*
X97109200Y-10621300D01*
X88021300Y-20953600D02*
X88021300Y-20654200D01*
%TO.N,CFG_IMU_EN*%
X97863500Y-10435000D02*
X97509200Y-10789300D01*
X112661800Y-9029000D02*
X107447800Y-9029000D01*
X96000000Y-13241186D02*
X96000000Y-21500000D01*
X96000000Y-22062600D02*
X89688000Y-28374600D01*
X97509200Y-10789300D02*
X97509200Y-11731986D01*
X89688000Y-28374600D02*
X84294100Y-28374600D01*
X106041800Y-10435000D02*
X97863500Y-10435000D01*
X107447800Y-9029000D02*
X106041800Y-10435000D01*
X96000000Y-21500000D02*
X96000000Y-22062600D01*
X97509200Y-11731986D02*
X96000000Y-13241186D01*
X113037800Y-9405000D02*
X112661800Y-9029000D01*
X84294100Y-28374600D02*
X84294100Y-28374700D01*
%TO.N,SNS4*%
X31000000Y-44250000D02*
X30500000Y-44250000D01*
X30500000Y-44250000D02*
X24751200Y-38501200D01*
X37137100Y-35612400D02*
X37169400Y-35644700D01*
X25105500Y-35612400D02*
X37137100Y-35612400D01*
X24751200Y-38501200D02*
X24751200Y-35966700D01*
X24751200Y-35966700D02*
X25105500Y-35612400D01*
%TO.N,AUX2*%
X66500000Y-5000000D02*
X66500000Y-6585900D01*
X66500000Y-6585900D02*
X67779400Y-7865300D01*
%TO.N,SR_MOSI*%
X85547400Y-31780400D02*
X85547400Y-31177700D01*
X111815600Y-38069700D02*
X110910000Y-38975300D01*
X111815600Y-34570400D02*
X111815600Y-38069700D01*
X86702500Y-30584100D02*
X89139800Y-33021400D01*
X89139800Y-33021400D02*
X110266600Y-33021400D01*
X110266600Y-33021400D02*
X111815600Y-34570400D01*
X86141000Y-30584100D02*
X86702500Y-30584100D01*
X85547400Y-31177700D02*
X86141000Y-30584100D01*
%TO.N,IMU_INT1*%
X83723100Y-24339200D02*
X84546500Y-25162600D01*
X78620600Y-25670800D02*
X78620600Y-16846900D01*
X83723100Y-24146500D02*
X83723100Y-24339200D01*
X77510400Y-13938500D02*
X83248300Y-19676400D01*
X88235300Y-25162600D02*
X90432700Y-22965200D01*
X83248300Y-22038000D02*
X83367500Y-22157200D01*
X76582800Y-14809100D02*
X76582800Y-14291400D01*
X78003900Y-26287500D02*
X78620600Y-25670800D01*
X84546500Y-25162600D02*
X88235300Y-25162600D01*
X76935700Y-13938500D02*
X77510400Y-13938500D01*
X83367500Y-22157200D02*
X83367500Y-23790900D01*
X76582800Y-14291400D02*
X76935700Y-13938500D01*
X83248300Y-19676400D02*
X83248300Y-22038000D01*
X90432700Y-22965200D02*
X92325900Y-22965200D01*
X83367500Y-23790900D02*
X83723100Y-24146500D01*
X78620600Y-16846900D02*
X76582800Y-14809100D01*
%TO.N,LED2*%
X73079600Y-12258400D02*
X71450600Y-13887400D01*
X85287400Y-16562300D02*
X85287400Y-16286400D01*
X81259400Y-12258400D02*
X73079600Y-12258400D01*
X85287400Y-16286400D02*
X81259400Y-12258400D01*
%TO.N,CAN_RX*%
X87419600Y-20702000D02*
X87419600Y-20432200D01*
X90754500Y-17097300D02*
X90754500Y-17055200D01*
X87419600Y-20432200D02*
X90754500Y-17097300D01*
%TO.N,CAN_RS*%
X111052300Y-18000000D02*
X111052300Y-12302000D01*
X111052300Y-12302000D02*
X108417500Y-9667200D01*
%TO.N,AUX3*%
X69055200Y-11055200D02*
X63000000Y-5000000D01*
X71500000Y-11055200D02*
X69055200Y-11055200D01*
%TO.N,SNS2*%
X10750000Y-33250000D02*
X35640700Y-33250000D01*
X12603000Y-48834400D02*
X9750000Y-45981400D01*
X9750000Y-45981400D02*
X9750000Y-34250000D01*
X37783200Y-35392500D02*
X37783200Y-38656000D01*
X9750000Y-34250000D02*
X10750000Y-33250000D01*
X35640700Y-33250000D02*
X37783200Y-35392500D01*
X37783200Y-38656000D02*
X37435000Y-39004200D01*
%TO.N,USB_VBUS*%
X130059800Y-18213600D02*
X130673400Y-17600000D01*
X130059800Y-22456300D02*
X130059800Y-18213600D01*
%TD*%
%TA.AperFunction,Conductor*%
%TO.N,GND*%
G36*
X75860384Y-38548985D02*
G01*
X75906139Y-38601789D01*
X75916083Y-38670947D01*
X75887058Y-38734503D01*
X75881026Y-38740981D01*
X71429522Y-43192484D01*
X71429518Y-43192490D01*
X71376793Y-43283811D01*
X71374962Y-43290645D01*
X71364670Y-43329057D01*
X71349500Y-43385673D01*
X71349500Y-44960237D01*
X71329815Y-45027276D01*
X71287500Y-45067624D01*
X71197687Y-45119477D01*
X71197682Y-45119481D01*
X71085881Y-45231282D01*
X71085879Y-45231285D01*
X71073211Y-45253227D01*
X71022643Y-45301442D01*
X70954036Y-45314664D01*
X70889171Y-45288696D01*
X70878143Y-45278907D01*
X70868717Y-45269481D01*
X70868709Y-45269475D01*
X70731790Y-45190426D01*
X70731786Y-45190424D01*
X70731784Y-45190423D01*
X70579057Y-45149500D01*
X70420943Y-45149500D01*
X70268216Y-45190423D01*
X70268211Y-45190425D01*
X70160885Y-45252388D01*
X70092985Y-45268859D01*
X70026958Y-45246006D01*
X70011206Y-45232681D01*
X63519506Y-38740981D01*
X63486021Y-38679658D01*
X63491005Y-38609966D01*
X63532877Y-38554033D01*
X63598341Y-38529616D01*
X63607187Y-38529300D01*
X75793345Y-38529300D01*
X75860384Y-38548985D01*
G37*
%TD.AperFunction*%
%TA.AperFunction,Conductor*%
G36*
X51550780Y-36718285D02*
G01*
X51596535Y-36771089D01*
X51606479Y-36840247D01*
X51577454Y-36903803D01*
X51518676Y-36941577D01*
X51515865Y-36942366D01*
X51429816Y-36965423D01*
X51429809Y-36965426D01*
X51292890Y-37044475D01*
X51292882Y-37044481D01*
X51181081Y-37156282D01*
X51181075Y-37156290D01*
X51102026Y-37293209D01*
X51102023Y-37293216D01*
X51061100Y-37445943D01*
X51061100Y-37604057D01*
X51097404Y-37739543D01*
X51102023Y-37756783D01*
X51102026Y-37756790D01*
X51181075Y-37893709D01*
X51181079Y-37893714D01*
X51181080Y-37893716D01*
X51292884Y-38005520D01*
X51292886Y-38005521D01*
X51292890Y-38005524D01*
X51422396Y-38080293D01*
X51429816Y-38084577D01*
X51582543Y-38125500D01*
X51582545Y-38125500D01*
X51740655Y-38125500D01*
X51740657Y-38125500D01*
X51893384Y-38084577D01*
X52030316Y-38005520D01*
X52142120Y-37893716D01*
X52221177Y-37756784D01*
X52261899Y-37604805D01*
X52298264Y-37545146D01*
X52361111Y-37514617D01*
X52381674Y-37512900D01*
X55909213Y-37512900D01*
X55976252Y-37532585D01*
X56022007Y-37585389D01*
X56031951Y-37654547D01*
X56002926Y-37718103D01*
X55996894Y-37724581D01*
X55307567Y-38413906D01*
X55274894Y-38435740D01*
X55275253Y-38436361D01*
X55268218Y-38440422D01*
X55268216Y-38440423D01*
X55198331Y-38480771D01*
X55131285Y-38519479D01*
X55131282Y-38519481D01*
X55019481Y-38631282D01*
X55019475Y-38631290D01*
X54940426Y-38768209D01*
X54940423Y-38768216D01*
X54899500Y-38920943D01*
X54899500Y-39079057D01*
X54938704Y-39225368D01*
X54942527Y-39239636D01*
X54941832Y-39239822D01*
X54949500Y-39278362D01*
X54949500Y-40504113D01*
X54929815Y-40571152D01*
X54913181Y-40591794D01*
X50591794Y-44913181D01*
X50530471Y-44946666D01*
X50504113Y-44949500D01*
X31448628Y-44949500D01*
X31381589Y-44929815D01*
X31335834Y-44877011D01*
X31325890Y-44807853D01*
X31354915Y-44744297D01*
X31363195Y-44736493D01*
X31362969Y-44736267D01*
X31405309Y-44693927D01*
X31480520Y-44618716D01*
X31559577Y-44481784D01*
X31600500Y-44329057D01*
X31600500Y-44170943D01*
X31559577Y-44018216D01*
X31549004Y-43999902D01*
X31480524Y-43881290D01*
X31480518Y-43881282D01*
X31368717Y-43769481D01*
X31368709Y-43769475D01*
X31231790Y-43690426D01*
X31231786Y-43690424D01*
X31231784Y-43690423D01*
X31079057Y-43649500D01*
X30920943Y-43649500D01*
X30768216Y-43690423D01*
X30768215Y-43690423D01*
X30684894Y-43738528D01*
X30616993Y-43754999D01*
X30550967Y-43732147D01*
X30535214Y-43718821D01*
X25188019Y-38371626D01*
X25154534Y-38310303D01*
X25151700Y-38283945D01*
X25151700Y-36940892D01*
X25171385Y-36873853D01*
X25224189Y-36828098D01*
X25280315Y-36819689D01*
X25280315Y-36817500D01*
X25446555Y-36817500D01*
X25446557Y-36817500D01*
X25507892Y-36801065D01*
X25577741Y-36802728D01*
X25627666Y-36833159D01*
X32708681Y-43914174D01*
X32742166Y-43975497D01*
X32745000Y-44001855D01*
X32745000Y-44063657D01*
X32776046Y-44179520D01*
X32785923Y-44216383D01*
X32785926Y-44216390D01*
X32864975Y-44353309D01*
X32864979Y-44353314D01*
X32864980Y-44353316D01*
X32976784Y-44465120D01*
X32976786Y-44465121D01*
X32976790Y-44465124D01*
X33074502Y-44521537D01*
X33113716Y-44544177D01*
X33266443Y-44585100D01*
X33266445Y-44585100D01*
X33424555Y-44585100D01*
X33424557Y-44585100D01*
X33577284Y-44544177D01*
X33714216Y-44465120D01*
X33757917Y-44421419D01*
X33819240Y-44387934D01*
X33845598Y-44385100D01*
X38522325Y-44385100D01*
X38522327Y-44385100D01*
X38624188Y-44357807D01*
X38715513Y-44305080D01*
X46285673Y-36734918D01*
X46346996Y-36701434D01*
X46373354Y-36698600D01*
X51483741Y-36698600D01*
X51550780Y-36718285D01*
G37*
%TD.AperFunction*%
%TA.AperFunction,Conductor*%
G36*
X49831198Y-9829793D02*
G01*
X49887131Y-9871665D01*
X49911548Y-9937129D01*
X49907639Y-9978068D01*
X49899500Y-10008443D01*
X49899500Y-10166556D01*
X49940423Y-10319283D01*
X49940426Y-10319290D01*
X50019475Y-10456209D01*
X50019481Y-10456217D01*
X50063181Y-10499917D01*
X50096666Y-10561240D01*
X50099500Y-10587598D01*
X50099500Y-16782745D01*
X50079815Y-16849784D01*
X50063181Y-16870426D01*
X38991922Y-27941684D01*
X38991920Y-27941687D01*
X38939193Y-28033010D01*
X38911900Y-28134873D01*
X38911900Y-40656502D01*
X38892215Y-40723541D01*
X38875581Y-40744183D01*
X38831881Y-40787882D01*
X38831875Y-40787890D01*
X38752826Y-40924809D01*
X38752823Y-40924816D01*
X38711900Y-41077543D01*
X38711900Y-41235657D01*
X38744633Y-41357816D01*
X38752823Y-41388383D01*
X38752826Y-41388390D01*
X38831875Y-41525309D01*
X38831879Y-41525314D01*
X38831880Y-41525316D01*
X38943684Y-41637120D01*
X38943686Y-41637121D01*
X38943690Y-41637124D01*
X39076152Y-41713600D01*
X39080616Y-41716177D01*
X39233343Y-41757100D01*
X39233345Y-41757100D01*
X39391455Y-41757100D01*
X39391457Y-41757100D01*
X39544184Y-41716177D01*
X39681116Y-41637120D01*
X39792920Y-41525316D01*
X39871977Y-41388384D01*
X39912900Y-41235657D01*
X39912900Y-41077543D01*
X39871977Y-40924816D01*
X39856000Y-40897143D01*
X39792924Y-40787890D01*
X39792918Y-40787882D01*
X39749219Y-40744183D01*
X39715734Y-40682860D01*
X39712900Y-40656502D01*
X39712900Y-28404853D01*
X39732585Y-28337814D01*
X39749214Y-28317177D01*
X50735703Y-17330687D01*
X50735708Y-17330684D01*
X50745911Y-17320480D01*
X50745913Y-17320480D01*
X50820480Y-17245913D01*
X50873207Y-17154587D01*
X50874570Y-17149500D01*
X50900501Y-17052727D01*
X50900501Y-16947273D01*
X50900500Y-16947269D01*
X50900500Y-10587598D01*
X50920185Y-10520559D01*
X50936819Y-10499917D01*
X50941113Y-10495623D01*
X50980520Y-10456216D01*
X51059577Y-10319284D01*
X51100500Y-10166557D01*
X51100500Y-10008443D01*
X51100499Y-10008441D01*
X51099439Y-10000387D01*
X51101921Y-10000060D01*
X51103282Y-9942787D01*
X51142441Y-9884922D01*
X51206667Y-9857414D01*
X51275570Y-9868996D01*
X51309077Y-9892855D01*
X55738007Y-14321786D01*
X55738011Y-14321789D01*
X55869114Y-14409390D01*
X55869118Y-14409392D01*
X55869121Y-14409394D01*
X56014803Y-14469738D01*
X56151609Y-14496949D01*
X56213520Y-14529334D01*
X56248094Y-14590050D01*
X56250592Y-14604279D01*
X56252414Y-14619989D01*
X56252415Y-14619991D01*
X56297793Y-14722764D01*
X56297794Y-14722765D01*
X56377235Y-14802206D01*
X56428743Y-14824949D01*
X56480006Y-14847584D01*
X56480009Y-14847585D01*
X56489786Y-14848719D01*
X56554111Y-14875996D01*
X56593478Y-14933720D01*
X56599500Y-14971893D01*
X56599500Y-15362084D01*
X56579815Y-15429123D01*
X56563181Y-15449765D01*
X56522445Y-15490500D01*
X56522441Y-15490505D01*
X56416006Y-15637002D01*
X56333788Y-15798360D01*
X56333787Y-15798363D01*
X56277829Y-15970589D01*
X56249500Y-16149448D01*
X56249500Y-16330551D01*
X56277829Y-16509410D01*
X56333787Y-16681636D01*
X56333788Y-16681639D01*
X56382233Y-16776716D01*
X56401209Y-16813958D01*
X56416006Y-16842997D01*
X56522441Y-16989494D01*
X56522445Y-16989499D01*
X56563181Y-17030235D01*
X56596666Y-17091558D01*
X56599500Y-17117916D01*
X56599500Y-17902084D01*
X56579815Y-17969123D01*
X56563181Y-17989765D01*
X56522445Y-18030500D01*
X56522441Y-18030505D01*
X56416006Y-18177002D01*
X56333788Y-18338360D01*
X56333787Y-18338363D01*
X56277829Y-18510589D01*
X56249500Y-18689448D01*
X56249500Y-18870551D01*
X56277829Y-19049410D01*
X56333787Y-19221636D01*
X56333788Y-19221639D01*
X56416003Y-19382993D01*
X56466586Y-19452615D01*
X56490065Y-19518422D01*
X56474239Y-19586476D01*
X56424133Y-19635170D01*
X56366267Y-19649500D01*
X56147273Y-19649500D01*
X56045410Y-19676793D01*
X55954087Y-19729520D01*
X55954084Y-19729522D01*
X54532922Y-21150684D01*
X54532920Y-21150687D01*
X54480191Y-21242013D01*
X54463986Y-21302498D01*
X54452900Y-21343871D01*
X54452900Y-35093102D01*
X54433215Y-35160141D01*
X54416581Y-35180783D01*
X54372881Y-35224482D01*
X54372875Y-35224490D01*
X54293826Y-35361409D01*
X54293823Y-35361416D01*
X54280725Y-35410294D01*
X54244362Y-35469954D01*
X54181515Y-35500483D01*
X54160952Y-35502200D01*
X53563439Y-35502200D01*
X53563423Y-35502199D01*
X53555827Y-35502199D01*
X53450373Y-35502199D01*
X53357903Y-35526977D01*
X53357902Y-35526976D01*
X53348514Y-35529492D01*
X53348510Y-35529494D01*
X53257187Y-35582220D01*
X53189689Y-35649718D01*
X53189688Y-35649717D01*
X53189686Y-35649720D01*
X53182618Y-35656787D01*
X53182618Y-35656788D01*
X53072507Y-35766900D01*
X52978126Y-35861281D01*
X52916803Y-35894766D01*
X52890445Y-35897600D01*
X46208831Y-35897600D01*
X46208827Y-35897599D01*
X46103373Y-35897599D01*
X46007757Y-35923220D01*
X46001513Y-35924893D01*
X46000860Y-35925269D01*
X46000859Y-35925270D01*
X45910185Y-35977621D01*
X38340026Y-43547781D01*
X38278703Y-43581266D01*
X38252345Y-43584100D01*
X33845598Y-43584100D01*
X33778559Y-43564415D01*
X33757917Y-43547781D01*
X33714217Y-43504081D01*
X33714209Y-43504075D01*
X33577290Y-43425026D01*
X33577286Y-43425024D01*
X33577284Y-43425023D01*
X33424557Y-43384100D01*
X33424556Y-43384100D01*
X33362755Y-43384100D01*
X33295716Y-43364415D01*
X33275074Y-43347781D01*
X26151874Y-36224581D01*
X26118389Y-36163258D01*
X26123373Y-36093566D01*
X26165245Y-36037633D01*
X26230709Y-36013216D01*
X26239555Y-36012900D01*
X36637002Y-36012900D01*
X36704041Y-36032585D01*
X36724683Y-36049219D01*
X36800684Y-36125220D01*
X36800686Y-36125221D01*
X36800690Y-36125224D01*
X36859231Y-36159022D01*
X36937616Y-36204277D01*
X37090343Y-36245200D01*
X37090345Y-36245200D01*
X37256585Y-36245200D01*
X37256585Y-36248181D01*
X37311521Y-36256734D01*
X37363789Y-36303101D01*
X37382700Y-36368921D01*
X37382700Y-38301382D01*
X37363015Y-38368421D01*
X37310211Y-38414176D01*
X37290798Y-38421155D01*
X37265422Y-38427955D01*
X37203214Y-38444623D01*
X37203209Y-38444626D01*
X37066290Y-38523675D01*
X37066282Y-38523681D01*
X36954481Y-38635482D01*
X36954475Y-38635490D01*
X36875426Y-38772409D01*
X36875423Y-38772416D01*
X36834500Y-38925143D01*
X36834500Y-39083257D01*
X36873774Y-39229827D01*
X36875423Y-39235983D01*
X36875426Y-39235990D01*
X36954475Y-39372909D01*
X36954479Y-39372914D01*
X36954480Y-39372916D01*
X37066284Y-39484720D01*
X37066286Y-39484721D01*
X37066290Y-39484724D01*
X37199272Y-39561500D01*
X37203216Y-39563777D01*
X37355943Y-39604700D01*
X37355945Y-39604700D01*
X37514055Y-39604700D01*
X37514057Y-39604700D01*
X37666784Y-39563777D01*
X37803716Y-39484720D01*
X37915520Y-39372916D01*
X37994577Y-39235984D01*
X38035500Y-39083257D01*
X38035500Y-39021455D01*
X38055185Y-38954416D01*
X38071819Y-38933774D01*
X38084650Y-38920943D01*
X38103680Y-38901913D01*
X38156407Y-38810588D01*
X38183700Y-38708727D01*
X38183700Y-38603273D01*
X38183700Y-35455229D01*
X38183701Y-35455216D01*
X38183701Y-35339774D01*
X38170879Y-35291922D01*
X38156407Y-35237913D01*
X38153124Y-35232227D01*
X38103680Y-35146587D01*
X38029113Y-35072020D01*
X38029110Y-35072018D01*
X36943948Y-33986855D01*
X36910464Y-33925534D01*
X36915448Y-33855842D01*
X36957320Y-33799909D01*
X37022784Y-33775492D01*
X37055821Y-33777559D01*
X37171153Y-33800499D01*
X37171157Y-33800500D01*
X37171158Y-33800500D01*
X37328844Y-33800500D01*
X37328845Y-33800499D01*
X37483498Y-33769738D01*
X37629179Y-33709394D01*
X37760290Y-33621789D01*
X37871789Y-33510290D01*
X37959394Y-33379179D01*
X38019738Y-33233498D01*
X38050500Y-33078843D01*
X38050500Y-32921158D01*
X38019738Y-32766503D01*
X37959394Y-32620821D01*
X37959392Y-32620818D01*
X37959390Y-32620814D01*
X37871789Y-32489711D01*
X37871786Y-32489707D01*
X37704119Y-32322040D01*
X37670634Y-32260717D01*
X37667800Y-32234359D01*
X37667800Y-21942040D01*
X37687485Y-21875001D01*
X37704119Y-21854359D01*
X43698037Y-15860441D01*
X49700185Y-9858292D01*
X49761506Y-9824809D01*
X49831198Y-9829793D01*
G37*
%TD.AperFunction*%
%TA.AperFunction,Conductor*%
G36*
X98575832Y-11546352D02*
G01*
X98591586Y-11559679D01*
X111915628Y-24883721D01*
X111922361Y-24896053D01*
X111932895Y-24905357D01*
X111938775Y-24926112D01*
X111949113Y-24945044D01*
X111948110Y-24959061D01*
X111951941Y-24972581D01*
X111945667Y-24993217D01*
X111944129Y-25014736D01*
X111935706Y-25025986D01*
X111931620Y-25039430D01*
X111908255Y-25065883D01*
X111899681Y-25073170D01*
X111873684Y-25088180D01*
X111826429Y-25135434D01*
X111822610Y-25138681D01*
X111795089Y-25150934D01*
X111768660Y-25165366D01*
X111763504Y-25164997D01*
X111758782Y-25167100D01*
X111742302Y-25168200D01*
X105008155Y-25168200D01*
X104941116Y-25148515D01*
X104920474Y-25131881D01*
X104718115Y-24929522D01*
X104718113Y-24929520D01*
X104638788Y-24883721D01*
X104626789Y-24876793D01*
X104575857Y-24863146D01*
X104524927Y-24849500D01*
X104524926Y-24849500D01*
X102750098Y-24849500D01*
X102683059Y-24829815D01*
X102662417Y-24813181D01*
X102618717Y-24769481D01*
X102618709Y-24769475D01*
X102481790Y-24690426D01*
X102481786Y-24690424D01*
X102481784Y-24690423D01*
X102329057Y-24649500D01*
X102170943Y-24649500D01*
X102018216Y-24690423D01*
X102018209Y-24690426D01*
X101881290Y-24769475D01*
X101881282Y-24769481D01*
X101769481Y-24881282D01*
X101769475Y-24881290D01*
X101690426Y-25018209D01*
X101690423Y-25018216D01*
X101649500Y-25170943D01*
X101649500Y-25329057D01*
X101682857Y-25453545D01*
X101690423Y-25481783D01*
X101690426Y-25481790D01*
X101769475Y-25618709D01*
X101769479Y-25618714D01*
X101769480Y-25618716D01*
X101881284Y-25730520D01*
X101881286Y-25730521D01*
X101881290Y-25730524D01*
X102014262Y-25807294D01*
X102018216Y-25809577D01*
X102170943Y-25850500D01*
X102170945Y-25850500D01*
X102329055Y-25850500D01*
X102329057Y-25850500D01*
X102481784Y-25809577D01*
X102618716Y-25730520D01*
X102662417Y-25686819D01*
X102723740Y-25653334D01*
X102750098Y-25650500D01*
X104254945Y-25650500D01*
X104321984Y-25670185D01*
X104342626Y-25686819D01*
X104544987Y-25889180D01*
X104622747Y-25934075D01*
X104633741Y-25940423D01*
X104636312Y-25941907D01*
X104738173Y-25969200D01*
X104843627Y-25969200D01*
X111742302Y-25969200D01*
X111809341Y-25988885D01*
X111829983Y-26005519D01*
X111873684Y-26049220D01*
X111873686Y-26049221D01*
X111873690Y-26049224D01*
X111961638Y-26100000D01*
X112010616Y-26128277D01*
X112163343Y-26169200D01*
X112163345Y-26169200D01*
X112321455Y-26169200D01*
X112321457Y-26169200D01*
X112474184Y-26128277D01*
X112611116Y-26049220D01*
X112722920Y-25937416D01*
X112732309Y-25921152D01*
X112782875Y-25872937D01*
X112851482Y-25859713D01*
X112916347Y-25885680D01*
X112927378Y-25895471D01*
X124134881Y-37102974D01*
X124168366Y-37164297D01*
X124171200Y-37190655D01*
X124171200Y-39575002D01*
X124151515Y-39642041D01*
X124134881Y-39662683D01*
X124091181Y-39706382D01*
X124091175Y-39706390D01*
X124012126Y-39843309D01*
X124012123Y-39843316D01*
X123971200Y-39996043D01*
X123971200Y-40154157D01*
X124008827Y-40294581D01*
X124012123Y-40306883D01*
X124012126Y-40306890D01*
X124091175Y-40443809D01*
X124091179Y-40443814D01*
X124091180Y-40443816D01*
X124202984Y-40555620D01*
X124202986Y-40555621D01*
X124202990Y-40555624D01*
X124278926Y-40599465D01*
X124339916Y-40634677D01*
X124492643Y-40675600D01*
X124492645Y-40675600D01*
X124628045Y-40675600D01*
X124695084Y-40695285D01*
X124740839Y-40748089D01*
X124750783Y-40817247D01*
X124721758Y-40880803D01*
X124715726Y-40887281D01*
X123539826Y-42063181D01*
X123478503Y-42096666D01*
X123452145Y-42099500D01*
X121527055Y-42099500D01*
X121460016Y-42079815D01*
X121414261Y-42027011D01*
X121404317Y-41957853D01*
X121433342Y-41894297D01*
X121439374Y-41887819D01*
X122261474Y-41065719D01*
X122284461Y-41053166D01*
X122305371Y-41037387D01*
X122317367Y-41035198D01*
X122322797Y-41032234D01*
X122339829Y-41029751D01*
X122344483Y-41029400D01*
X122410957Y-41029400D01*
X122436999Y-41022421D01*
X122448559Y-41021550D01*
X122471840Y-41026520D01*
X122495639Y-41027086D01*
X122505383Y-41033680D01*
X122516889Y-41036137D01*
X122533786Y-41052904D01*
X122553502Y-41066247D01*
X122560066Y-41078980D01*
X122566486Y-41085350D01*
X122568849Y-41096015D01*
X122577660Y-41113105D01*
X122605923Y-41218585D01*
X122605926Y-41218590D01*
X122684975Y-41355509D01*
X122684979Y-41355514D01*
X122684980Y-41355516D01*
X122796784Y-41467320D01*
X122796786Y-41467321D01*
X122796790Y-41467324D01*
X122927654Y-41542877D01*
X122933716Y-41546377D01*
X123086443Y-41587300D01*
X123086445Y-41587300D01*
X123244555Y-41587300D01*
X123244557Y-41587300D01*
X123397284Y-41546377D01*
X123534216Y-41467320D01*
X123646020Y-41355516D01*
X123725077Y-41218584D01*
X123766000Y-41065857D01*
X123766000Y-40907743D01*
X123725077Y-40755016D01*
X123683418Y-40682860D01*
X123646024Y-40618090D01*
X123646018Y-40618082D01*
X123602319Y-40574383D01*
X123568834Y-40513060D01*
X123566000Y-40486702D01*
X123566000Y-40131875D01*
X123565999Y-40131868D01*
X123560813Y-40112514D01*
X123560813Y-40112515D01*
X123538707Y-40030012D01*
X123485980Y-39938687D01*
X121680313Y-38133020D01*
X121623121Y-38100000D01*
X121588989Y-38080293D01*
X121538057Y-38066646D01*
X121487127Y-38053000D01*
X121487126Y-38053000D01*
X119519700Y-38053000D01*
X119452661Y-38033315D01*
X119406906Y-37980511D01*
X119395700Y-37929000D01*
X119395700Y-37768445D01*
X119395700Y-37768443D01*
X119354777Y-37615716D01*
X119281339Y-37488516D01*
X119275724Y-37478790D01*
X119275718Y-37478782D01*
X119232019Y-37435083D01*
X119198534Y-37373760D01*
X119195700Y-37347402D01*
X119195700Y-33061329D01*
X119195701Y-33061316D01*
X119195701Y-32945874D01*
X119195701Y-32945873D01*
X119168407Y-32844013D01*
X119132810Y-32782357D01*
X119115680Y-32752687D01*
X119041113Y-32678120D01*
X119041110Y-32678118D01*
X115016813Y-28653820D01*
X114971150Y-28627456D01*
X114925489Y-28601093D01*
X114874557Y-28587446D01*
X114823627Y-28573800D01*
X114823626Y-28573800D01*
X90354555Y-28573800D01*
X90287516Y-28554115D01*
X90241761Y-28501311D01*
X90231817Y-28432153D01*
X90260842Y-28368597D01*
X90266874Y-28362119D01*
X93260075Y-25368918D01*
X96320480Y-22308513D01*
X96373207Y-22217188D01*
X96400500Y-22115327D01*
X96400500Y-22009873D01*
X96400500Y-21447273D01*
X96400500Y-18563543D01*
X98106700Y-18563543D01*
X98106700Y-18721656D01*
X98147623Y-18874383D01*
X98147626Y-18874390D01*
X98226675Y-19011309D01*
X98226679Y-19011314D01*
X98226680Y-19011316D01*
X98338484Y-19123120D01*
X98338486Y-19123121D01*
X98338490Y-19123124D01*
X98419089Y-19169657D01*
X98475416Y-19202177D01*
X98628143Y-19243100D01*
X98628145Y-19243100D01*
X98786255Y-19243100D01*
X98786257Y-19243100D01*
X98938984Y-19202177D01*
X99075916Y-19123120D01*
X99119617Y-19079419D01*
X99146544Y-19064715D01*
X99172363Y-19048123D01*
X99178563Y-19047231D01*
X99180940Y-19045934D01*
X99207298Y-19043100D01*
X99371345Y-19043100D01*
X99438384Y-19062785D01*
X99459026Y-19079419D01*
X104200087Y-23820480D01*
X104291412Y-23873207D01*
X104393273Y-23900500D01*
X105249902Y-23900500D01*
X105316941Y-23920185D01*
X105337583Y-23936819D01*
X105381284Y-23980520D01*
X105381286Y-23980521D01*
X105381290Y-23980524D01*
X105484666Y-24040207D01*
X105518216Y-24059577D01*
X105670943Y-24100500D01*
X105670945Y-24100500D01*
X105829055Y-24100500D01*
X105829057Y-24100500D01*
X105981784Y-24059577D01*
X106118716Y-23980520D01*
X106230520Y-23868716D01*
X106309577Y-23731784D01*
X106350500Y-23579057D01*
X106350500Y-23420943D01*
X106309577Y-23268216D01*
X106281253Y-23219157D01*
X106230524Y-23131290D01*
X106230518Y-23131282D01*
X106118718Y-23019482D01*
X106118716Y-23019480D01*
X106118713Y-23019478D01*
X106116527Y-23017801D01*
X106115146Y-23015910D01*
X106112969Y-23013733D01*
X106113308Y-23013393D01*
X106075323Y-22961373D01*
X106071168Y-22891627D01*
X106072215Y-22887415D01*
X106100500Y-22781857D01*
X106100500Y-22623743D01*
X106059577Y-22471016D01*
X106047568Y-22450215D01*
X105980524Y-22334090D01*
X105980518Y-22334082D01*
X105868717Y-22222281D01*
X105868709Y-22222275D01*
X105731790Y-22143226D01*
X105731786Y-22143224D01*
X105731784Y-22143223D01*
X105579057Y-22102300D01*
X105420943Y-22102300D01*
X105268216Y-22143223D01*
X105268215Y-22143223D01*
X105154970Y-22208604D01*
X105087069Y-22225075D01*
X105021043Y-22202223D01*
X105005290Y-22188897D01*
X100703515Y-17887122D01*
X100703513Y-17887120D01*
X100657850Y-17860756D01*
X100612189Y-17834393D01*
X100561257Y-17820746D01*
X100510327Y-17807100D01*
X100510326Y-17807100D01*
X100504498Y-17807100D01*
X100437459Y-17787415D01*
X100416817Y-17770781D01*
X100373117Y-17727081D01*
X100373109Y-17727075D01*
X100236190Y-17648026D01*
X100236186Y-17648024D01*
X100236184Y-17648023D01*
X100083457Y-17607100D01*
X99925343Y-17607100D01*
X99772616Y-17648023D01*
X99772609Y-17648026D01*
X99635690Y-17727075D01*
X99635682Y-17727081D01*
X99523881Y-17838882D01*
X99523875Y-17838890D01*
X99444826Y-17975809D01*
X99444823Y-17975816D01*
X99403900Y-18128543D01*
X99403144Y-18134287D01*
X99402833Y-18134988D01*
X99402943Y-18135747D01*
X99388711Y-18166908D01*
X99374876Y-18198183D01*
X99374237Y-18198604D01*
X99373918Y-18199303D01*
X99345096Y-18217825D01*
X99316552Y-18236653D01*
X99315571Y-18236800D01*
X99315140Y-18237077D01*
X99280205Y-18242100D01*
X99207298Y-18242100D01*
X99140259Y-18222415D01*
X99119617Y-18205781D01*
X99075917Y-18162081D01*
X99075909Y-18162075D01*
X98938990Y-18083026D01*
X98938986Y-18083024D01*
X98938984Y-18083023D01*
X98786257Y-18042100D01*
X98628143Y-18042100D01*
X98475416Y-18083023D01*
X98475409Y-18083026D01*
X98338490Y-18162075D01*
X98338482Y-18162081D01*
X98226681Y-18273882D01*
X98226675Y-18273890D01*
X98147626Y-18410809D01*
X98147623Y-18410816D01*
X98106700Y-18563543D01*
X96400500Y-18563543D01*
X96400500Y-13458441D01*
X96420185Y-13391402D01*
X96436819Y-13370760D01*
X97130344Y-12677235D01*
X97829680Y-11977899D01*
X97882407Y-11886574D01*
X97909700Y-11784713D01*
X97909700Y-11761200D01*
X97929385Y-11694161D01*
X97982189Y-11648406D01*
X98033700Y-11637200D01*
X98191655Y-11637200D01*
X98191657Y-11637200D01*
X98344384Y-11596277D01*
X98441907Y-11539972D01*
X98509805Y-11523500D01*
X98575832Y-11546352D01*
G37*
%TD.AperFunction*%
%TA.AperFunction,Conductor*%
G36*
X87068505Y-31517738D02*
G01*
X87079536Y-31527529D01*
X88814979Y-33262971D01*
X88814989Y-33262982D01*
X88819319Y-33267312D01*
X88819320Y-33267313D01*
X88893887Y-33341880D01*
X88893889Y-33341881D01*
X88893893Y-33341884D01*
X88958490Y-33379179D01*
X88958492Y-33379179D01*
X88971852Y-33386893D01*
X88985211Y-33394606D01*
X88985212Y-33394606D01*
X88985213Y-33394607D01*
X89087073Y-33421901D01*
X89087075Y-33421901D01*
X89200123Y-33421901D01*
X89200139Y-33421900D01*
X110049345Y-33421900D01*
X110116384Y-33441585D01*
X110137026Y-33458219D01*
X110843926Y-34165119D01*
X110877411Y-34226442D01*
X110872427Y-34296134D01*
X110831739Y-34351170D01*
X110826385Y-34355278D01*
X110714581Y-34467082D01*
X110714575Y-34467090D01*
X110635526Y-34604009D01*
X110635523Y-34604016D01*
X110594600Y-34756743D01*
X110594600Y-34818545D01*
X110574915Y-34885584D01*
X110558281Y-34906226D01*
X109772622Y-35691884D01*
X109772620Y-35691887D01*
X109719891Y-35783213D01*
X109707406Y-35829815D01*
X109706660Y-35832600D01*
X109702823Y-35846922D01*
X109692601Y-35885070D01*
X109692600Y-35885075D01*
X109692600Y-38533502D01*
X109683954Y-38562944D01*
X109677431Y-38592931D01*
X109673677Y-38597945D01*
X109672915Y-38600541D01*
X109656284Y-38621179D01*
X109642191Y-38635273D01*
X109628817Y-38648647D01*
X109567493Y-38682131D01*
X109497801Y-38677145D01*
X109441869Y-38635273D01*
X109428203Y-38607087D01*
X109426420Y-38607827D01*
X109423308Y-38600316D01*
X109423307Y-38600315D01*
X109423307Y-38600313D01*
X109420477Y-38595412D01*
X109382308Y-38529300D01*
X109370581Y-38508988D01*
X109291682Y-38430089D01*
X109291671Y-38430079D01*
X107020615Y-36159022D01*
X107020614Y-36159021D01*
X107020613Y-36159020D01*
X106962077Y-36125224D01*
X106929289Y-36106293D01*
X106861076Y-36088016D01*
X106827427Y-36079000D01*
X106827426Y-36079000D01*
X105249598Y-36079000D01*
X105182559Y-36059315D01*
X105161917Y-36042681D01*
X105118217Y-35998981D01*
X105118209Y-35998975D01*
X104981290Y-35919926D01*
X104981286Y-35919924D01*
X104981284Y-35919923D01*
X104828557Y-35879000D01*
X104670443Y-35879000D01*
X104517716Y-35919923D01*
X104517709Y-35919926D01*
X104380790Y-35998975D01*
X104380782Y-35998981D01*
X104268981Y-36110782D01*
X104268975Y-36110790D01*
X104189926Y-36247709D01*
X104189923Y-36247716D01*
X104149000Y-36400443D01*
X104149000Y-36558557D01*
X104186525Y-36698600D01*
X104189923Y-36711283D01*
X104189926Y-36711290D01*
X104268975Y-36848209D01*
X104268979Y-36848214D01*
X104268980Y-36848216D01*
X104380784Y-36960020D01*
X104380786Y-36960021D01*
X104380790Y-36960024D01*
X104504604Y-37031507D01*
X104517716Y-37039077D01*
X104670443Y-37080000D01*
X104670445Y-37080000D01*
X104828555Y-37080000D01*
X104828557Y-37080000D01*
X104981284Y-37039077D01*
X105118216Y-36960020D01*
X105161917Y-36916319D01*
X105223240Y-36882834D01*
X105249598Y-36880000D01*
X106557445Y-36880000D01*
X106624484Y-36899685D01*
X106645126Y-36916319D01*
X106866626Y-37137819D01*
X106900111Y-37199142D01*
X106895127Y-37268834D01*
X106853255Y-37324767D01*
X106787791Y-37349184D01*
X106778945Y-37349500D01*
X101421722Y-37349500D01*
X101359723Y-37332887D01*
X101231790Y-37259026D01*
X101231786Y-37259024D01*
X101231784Y-37259023D01*
X101079057Y-37218100D01*
X100920943Y-37218100D01*
X100768216Y-37259023D01*
X100768209Y-37259026D01*
X100631290Y-37338075D01*
X100631282Y-37338081D01*
X100519481Y-37449882D01*
X100519475Y-37449890D01*
X100440426Y-37586809D01*
X100440423Y-37586816D01*
X100399500Y-37739543D01*
X100399500Y-37897657D01*
X100407898Y-37929000D01*
X100411893Y-37943907D01*
X100410230Y-38013756D01*
X100371067Y-38071619D01*
X100306839Y-38099123D01*
X100292118Y-38100000D01*
X98642160Y-38100000D01*
X98610067Y-38095775D01*
X98504963Y-38067613D01*
X98459757Y-38055500D01*
X98301643Y-38055500D01*
X98148916Y-38096423D01*
X98148909Y-38096426D01*
X98011990Y-38175475D01*
X98011982Y-38175481D01*
X97900181Y-38287282D01*
X97900175Y-38287290D01*
X97821126Y-38424209D01*
X97821123Y-38424216D01*
X97780200Y-38576943D01*
X97780200Y-38733200D01*
X97760515Y-38800239D01*
X97707711Y-38845994D01*
X97656200Y-38857200D01*
X97224955Y-38857200D01*
X97157916Y-38837515D01*
X97137274Y-38820881D01*
X96445915Y-38129522D01*
X96445913Y-38129520D01*
X96388586Y-38096422D01*
X96354589Y-38076793D01*
X96288529Y-38059093D01*
X96252727Y-38049500D01*
X92852727Y-38049500D01*
X92747273Y-38049500D01*
X92645410Y-38076793D01*
X92554087Y-38129520D01*
X92554084Y-38129522D01*
X91862726Y-38820881D01*
X91801403Y-38854366D01*
X91775045Y-38857200D01*
X87107755Y-38857200D01*
X87078314Y-38848555D01*
X87048328Y-38842032D01*
X87043312Y-38838277D01*
X87040716Y-38837515D01*
X87020074Y-38820881D01*
X86865919Y-38666726D01*
X86832434Y-38605403D01*
X86829600Y-38579045D01*
X86829600Y-31661598D01*
X86849285Y-31594559D01*
X86865919Y-31573917D01*
X86881520Y-31558316D01*
X86884467Y-31553212D01*
X86935033Y-31504996D01*
X87003639Y-31491771D01*
X87068505Y-31517738D01*
G37*
%TD.AperFunction*%
%TA.AperFunction,Conductor*%
G36*
X118296541Y-35554287D02*
G01*
X118323536Y-35558494D01*
X118329611Y-35563884D01*
X118337410Y-35566148D01*
X118355363Y-35586735D01*
X118375798Y-35604868D01*
X118378068Y-35612772D01*
X118383331Y-35618807D01*
X118387030Y-35643973D01*
X118394700Y-35670674D01*
X118394700Y-37347402D01*
X118375015Y-37414441D01*
X118358381Y-37435083D01*
X118314681Y-37478782D01*
X118314675Y-37478790D01*
X118235626Y-37615709D01*
X118235623Y-37615716D01*
X118194700Y-37768443D01*
X118194700Y-37929000D01*
X118175015Y-37996039D01*
X118122211Y-38041794D01*
X118070700Y-38053000D01*
X116479933Y-38053000D01*
X116412894Y-38033315D01*
X116389696Y-38014048D01*
X116379773Y-38003520D01*
X116372480Y-37990887D01*
X116297913Y-37916320D01*
X116297910Y-37916318D01*
X115652073Y-37270481D01*
X115618588Y-37209158D01*
X115623572Y-37139466D01*
X115665444Y-37083533D01*
X115730908Y-37059116D01*
X115739754Y-37058800D01*
X116522625Y-37058800D01*
X116522627Y-37058800D01*
X116624488Y-37031507D01*
X116715813Y-36978780D01*
X118111374Y-35583219D01*
X118138137Y-35568605D01*
X118163745Y-35552034D01*
X118170205Y-35551094D01*
X118172697Y-35549734D01*
X118198664Y-35546901D01*
X118198981Y-35546900D01*
X118260857Y-35546900D01*
X118261594Y-35546702D01*
X118270309Y-35546675D01*
X118296541Y-35554287D01*
G37*
%TD.AperFunction*%
%TA.AperFunction,Conductor*%
G36*
X67846630Y-34010253D02*
G01*
X67904863Y-34048863D01*
X67932473Y-34109321D01*
X67957829Y-34269410D01*
X68013787Y-34441636D01*
X68013788Y-34441639D01*
X68096003Y-34602993D01*
X68177602Y-34715305D01*
X68201081Y-34781112D01*
X68185255Y-34849166D01*
X68139283Y-34895577D01*
X68042287Y-34951577D01*
X68042282Y-34951581D01*
X67930481Y-35063382D01*
X67930475Y-35063390D01*
X67851426Y-35200309D01*
X67851423Y-35200316D01*
X67814056Y-35339774D01*
X67813622Y-35341393D01*
X67777257Y-35401054D01*
X67714410Y-35431583D01*
X67693847Y-35433300D01*
X67563643Y-35433300D01*
X67410916Y-35474223D01*
X67410909Y-35474226D01*
X67273990Y-35553275D01*
X67273982Y-35553281D01*
X67162181Y-35665082D01*
X67162175Y-35665090D01*
X67083126Y-35802009D01*
X67083123Y-35802016D01*
X67042200Y-35954743D01*
X67042200Y-36112857D01*
X67081038Y-36257800D01*
X67083123Y-36265583D01*
X67083126Y-36265590D01*
X67162175Y-36402509D01*
X67162179Y-36402514D01*
X67162180Y-36402516D01*
X67273984Y-36514320D01*
X67273986Y-36514321D01*
X67273990Y-36514324D01*
X67350605Y-36558557D01*
X67410916Y-36593377D01*
X67563643Y-36634300D01*
X67563645Y-36634300D01*
X67721755Y-36634300D01*
X67721757Y-36634300D01*
X67874484Y-36593377D01*
X68011416Y-36514320D01*
X68055117Y-36470619D01*
X68116440Y-36437134D01*
X68142798Y-36434300D01*
X68710554Y-36434300D01*
X68710556Y-36434300D01*
X68812417Y-36407007D01*
X68903742Y-36354280D01*
X68989103Y-36268919D01*
X69050426Y-36235434D01*
X69076784Y-36232600D01*
X74575110Y-36232600D01*
X74575113Y-36232600D01*
X74624380Y-36219399D01*
X74694226Y-36221062D01*
X74752088Y-36260224D01*
X74779593Y-36324452D01*
X74768007Y-36393354D01*
X74744151Y-36426855D01*
X74282426Y-36888581D01*
X74221103Y-36922066D01*
X74194745Y-36924900D01*
X62269700Y-36924900D01*
X62202661Y-36905215D01*
X62156906Y-36852411D01*
X62145700Y-36800900D01*
X62145700Y-36644645D01*
X62145700Y-36644643D01*
X62104777Y-36491916D01*
X62071512Y-36434299D01*
X62025724Y-36354990D01*
X62025718Y-36354982D01*
X61982019Y-36311283D01*
X61948534Y-36249960D01*
X61945700Y-36223602D01*
X61945700Y-34524500D01*
X61965385Y-34457461D01*
X62018189Y-34411706D01*
X62069700Y-34400500D01*
X62725501Y-34400500D01*
X62792540Y-34420185D01*
X62838295Y-34472989D01*
X62849501Y-34524500D01*
X62849501Y-34894856D01*
X62849502Y-34894882D01*
X62852413Y-34919987D01*
X62852415Y-34919991D01*
X62897793Y-35022764D01*
X62897794Y-35022765D01*
X62977235Y-35102206D01*
X63080009Y-35147585D01*
X63105135Y-35150500D01*
X64894864Y-35150499D01*
X64894879Y-35150497D01*
X64894882Y-35150497D01*
X64919987Y-35147586D01*
X64919988Y-35147585D01*
X64919991Y-35147585D01*
X65022765Y-35102206D01*
X65102206Y-35022765D01*
X65147585Y-34919991D01*
X65150500Y-34894865D01*
X65150499Y-34157125D01*
X65170183Y-34090089D01*
X65222987Y-34044334D01*
X65292146Y-34034390D01*
X65355702Y-34063415D01*
X65393476Y-34122193D01*
X65396972Y-34137729D01*
X65417829Y-34269410D01*
X65473787Y-34441636D01*
X65473788Y-34441639D01*
X65516009Y-34524500D01*
X65556003Y-34602993D01*
X65556006Y-34602997D01*
X65662441Y-34749494D01*
X65662445Y-34749499D01*
X65790500Y-34877554D01*
X65790505Y-34877558D01*
X65914015Y-34967292D01*
X65937006Y-34983996D01*
X66030434Y-35031600D01*
X66098360Y-35066211D01*
X66098363Y-35066212D01*
X66181124Y-35093102D01*
X66270591Y-35122171D01*
X66353429Y-35135291D01*
X66449449Y-35150500D01*
X66449454Y-35150500D01*
X66630551Y-35150500D01*
X66717259Y-35136765D01*
X66809409Y-35122171D01*
X66981639Y-35066211D01*
X67142994Y-34983996D01*
X67289501Y-34877553D01*
X67417553Y-34749501D01*
X67523996Y-34602994D01*
X67606211Y-34441639D01*
X67662171Y-34269409D01*
X67678689Y-34165119D01*
X67687527Y-34109321D01*
X67717456Y-34046186D01*
X67776768Y-34009255D01*
X67846630Y-34010253D01*
G37*
%TD.AperFunction*%
%TA.AperFunction,Conductor*%
G36*
X114127484Y-29797685D02*
G01*
X114148126Y-29814319D01*
X115311281Y-30977474D01*
X115344766Y-31038797D01*
X115347600Y-31065155D01*
X115347600Y-31126957D01*
X115385116Y-31266967D01*
X115388523Y-31279683D01*
X115388526Y-31279690D01*
X115467575Y-31416609D01*
X115467579Y-31416614D01*
X115467580Y-31416616D01*
X115579384Y-31528420D01*
X115579386Y-31528421D01*
X115579390Y-31528424D01*
X115693941Y-31594559D01*
X115716316Y-31607477D01*
X115869043Y-31648400D01*
X115869045Y-31648400D01*
X116027155Y-31648400D01*
X116027157Y-31648400D01*
X116179884Y-31607477D01*
X116316816Y-31528420D01*
X116428620Y-31416616D01*
X116428623Y-31416609D01*
X116433570Y-31410165D01*
X116434998Y-31411261D01*
X116478247Y-31370019D01*
X116546853Y-31356791D01*
X116611719Y-31382754D01*
X116622756Y-31392549D01*
X118358381Y-33128173D01*
X118391866Y-33189496D01*
X118394700Y-33215854D01*
X118394700Y-34222125D01*
X118375015Y-34289164D01*
X118322211Y-34334919D01*
X118268984Y-34342910D01*
X118268984Y-34345900D01*
X118102743Y-34345900D01*
X117950016Y-34386823D01*
X117950009Y-34386826D01*
X117813090Y-34465875D01*
X117813082Y-34465881D01*
X117701281Y-34577682D01*
X117701275Y-34577690D01*
X117622226Y-34714609D01*
X117622223Y-34714616D01*
X117581300Y-34867343D01*
X117581300Y-34929145D01*
X117561615Y-34996184D01*
X117544981Y-35016826D01*
X116458681Y-36103126D01*
X116397358Y-36136611D01*
X116327666Y-36131627D01*
X116271733Y-36089755D01*
X116247316Y-36024291D01*
X116247000Y-36015445D01*
X116247000Y-35962445D01*
X116247000Y-35962443D01*
X116206077Y-35809716D01*
X116206073Y-35809709D01*
X116127024Y-35672790D01*
X116127018Y-35672782D01*
X116015217Y-35560981D01*
X116015209Y-35560975D01*
X115878290Y-35481926D01*
X115878286Y-35481924D01*
X115878284Y-35481923D01*
X115725557Y-35441000D01*
X115725556Y-35441000D01*
X115663754Y-35441000D01*
X115596715Y-35421315D01*
X115576073Y-35404681D01*
X110161074Y-29989681D01*
X110127589Y-29928358D01*
X110132573Y-29858666D01*
X110174445Y-29802733D01*
X110239909Y-29778316D01*
X110248755Y-29778000D01*
X114060445Y-29778000D01*
X114127484Y-29797685D01*
G37*
%TD.AperFunction*%
%TA.AperFunction,Conductor*%
G36*
X73694075Y-34192993D02*
G01*
X73759901Y-34307007D01*
X73852993Y-34400099D01*
X73967007Y-34465925D01*
X73974822Y-34468019D01*
X73447560Y-34995281D01*
X73386237Y-35028766D01*
X73359879Y-35031600D01*
X72514816Y-35031600D01*
X72447777Y-35011915D01*
X72402022Y-34959111D01*
X72392078Y-34889953D01*
X72421103Y-34826397D01*
X72427135Y-34819919D01*
X72428509Y-34818545D01*
X72497553Y-34749501D01*
X72603996Y-34602994D01*
X72686211Y-34441639D01*
X72700177Y-34398655D01*
X72719759Y-34338388D01*
X72759196Y-34280712D01*
X72823554Y-34253513D01*
X72892401Y-34265427D01*
X72943877Y-34312671D01*
X72955621Y-34338386D01*
X73001582Y-34479837D01*
X73090904Y-34655143D01*
X73146076Y-34731079D01*
X73146077Y-34731080D01*
X73691980Y-34185176D01*
X73694075Y-34192993D01*
G37*
%TD.AperFunction*%
%TA.AperFunction,Conductor*%
G36*
X79226303Y-16805741D02*
G01*
X79232771Y-16811764D01*
X79972272Y-17551264D01*
X82409781Y-19988773D01*
X82443266Y-20050096D01*
X82446100Y-20076454D01*
X82446100Y-22151573D01*
X82446100Y-22257027D01*
X82449197Y-22268585D01*
X82473393Y-22358889D01*
X82486317Y-22381273D01*
X82526120Y-22450213D01*
X82526122Y-22450215D01*
X82528981Y-22453074D01*
X82530621Y-22456078D01*
X82531067Y-22456659D01*
X82530976Y-22456728D01*
X82543684Y-22480001D01*
X82560277Y-22505820D01*
X82561168Y-22512020D01*
X82562466Y-22514397D01*
X82565300Y-22540755D01*
X82565300Y-22594402D01*
X82545615Y-22661441D01*
X82492811Y-22707196D01*
X82423653Y-22717140D01*
X82360097Y-22688115D01*
X82353619Y-22682083D01*
X82331117Y-22659581D01*
X82331109Y-22659575D01*
X82194190Y-22580526D01*
X82194186Y-22580524D01*
X82194184Y-22580523D01*
X82041457Y-22539600D01*
X81883343Y-22539600D01*
X81730616Y-22580523D01*
X81730609Y-22580526D01*
X81593690Y-22659575D01*
X81593682Y-22659581D01*
X81481881Y-22771382D01*
X81481875Y-22771390D01*
X81402826Y-22908309D01*
X81402823Y-22908316D01*
X81361900Y-23061043D01*
X81361900Y-23219157D01*
X81402682Y-23371355D01*
X81402823Y-23371883D01*
X81402826Y-23371890D01*
X81481875Y-23508809D01*
X81481881Y-23508817D01*
X81525581Y-23552517D01*
X81559066Y-23613840D01*
X81561900Y-23640198D01*
X81561900Y-24335226D01*
X81589193Y-24437089D01*
X81613214Y-24478693D01*
X81641920Y-24528413D01*
X81641922Y-24528415D01*
X84049296Y-26935789D01*
X84082781Y-26997112D01*
X84077797Y-27066804D01*
X84035925Y-27122737D01*
X83970461Y-27147154D01*
X83929522Y-27143245D01*
X83917997Y-27140157D01*
X83881957Y-27130500D01*
X83723843Y-27130500D01*
X83661690Y-27147154D01*
X83651393Y-27149913D01*
X83581543Y-27148250D01*
X83523681Y-27109087D01*
X83496177Y-27044859D01*
X83495300Y-27030138D01*
X83495300Y-26978245D01*
X83495300Y-26978243D01*
X83454377Y-26825516D01*
X83433118Y-26788694D01*
X83375324Y-26688590D01*
X83375318Y-26688582D01*
X83263517Y-26576781D01*
X83263509Y-26576775D01*
X83126590Y-26497726D01*
X83126586Y-26497724D01*
X83126584Y-26497723D01*
X82973857Y-26456800D01*
X82815743Y-26456800D01*
X82663016Y-26497723D01*
X82663009Y-26497726D01*
X82526090Y-26576775D01*
X82526082Y-26576781D01*
X82414281Y-26688582D01*
X82414275Y-26688590D01*
X82335226Y-26825509D01*
X82335223Y-26825516D01*
X82294300Y-26978243D01*
X82294300Y-27136357D01*
X82329632Y-27268216D01*
X82335223Y-27289083D01*
X82335226Y-27289090D01*
X82414275Y-27426009D01*
X82414281Y-27426017D01*
X82457981Y-27469717D01*
X82491466Y-27531040D01*
X82494300Y-27557398D01*
X82494300Y-28349280D01*
X82494298Y-28349288D01*
X82494300Y-28390812D01*
X82494300Y-28454727D01*
X82494301Y-28454734D01*
X82494302Y-28454742D01*
X82504467Y-28492673D01*
X82504758Y-28493760D01*
X82504761Y-28493771D01*
X82521595Y-28556595D01*
X82521597Y-28556598D01*
X82547288Y-28601093D01*
X82547291Y-28601097D01*
X82574321Y-28647914D01*
X82574333Y-28647930D01*
X82614115Y-28687709D01*
X82614130Y-28687723D01*
X82648887Y-28722480D01*
X82648891Y-28722482D01*
X82655955Y-28729545D01*
X82655958Y-28729547D01*
X83585709Y-29659229D01*
X83619196Y-29720550D01*
X83614214Y-29790242D01*
X83585712Y-29834594D01*
X80794826Y-32625481D01*
X80733503Y-32658966D01*
X80707145Y-32661800D01*
X80305773Y-32661800D01*
X80203910Y-32689093D01*
X80112587Y-32741820D01*
X80112584Y-32741822D01*
X78573826Y-34280581D01*
X78512503Y-34314066D01*
X78486145Y-34316900D01*
X75520575Y-34316900D01*
X75453536Y-34297215D01*
X75407781Y-34244411D01*
X75397837Y-34175253D01*
X75398102Y-34173502D01*
X75410000Y-34098382D01*
X75410000Y-33901617D01*
X75379221Y-33707294D01*
X75318418Y-33520164D01*
X75229095Y-33344856D01*
X75173922Y-33268919D01*
X75173922Y-33268918D01*
X74628019Y-33814822D01*
X74625925Y-33807007D01*
X74560099Y-33692993D01*
X74467007Y-33599901D01*
X74352993Y-33534075D01*
X74345177Y-33531980D01*
X74891080Y-32986077D01*
X74891079Y-32986076D01*
X74815143Y-32930904D01*
X74639835Y-32841581D01*
X74452705Y-32780778D01*
X74258382Y-32750000D01*
X74061618Y-32750000D01*
X73867294Y-32780778D01*
X73680164Y-32841581D01*
X73504855Y-32930905D01*
X73504846Y-32930911D01*
X73428919Y-32986075D01*
X73428918Y-32986076D01*
X73974823Y-33531980D01*
X73967007Y-33534075D01*
X73852993Y-33599901D01*
X73759901Y-33692993D01*
X73694075Y-33807007D01*
X73691980Y-33814822D01*
X73146076Y-33268918D01*
X73146075Y-33268919D01*
X73090911Y-33344846D01*
X73090905Y-33344855D01*
X73001581Y-33520162D01*
X72955621Y-33661613D01*
X72916183Y-33719288D01*
X72851824Y-33746486D01*
X72782978Y-33734571D01*
X72731502Y-33687327D01*
X72719759Y-33661611D01*
X72686213Y-33558366D01*
X72686211Y-33558360D01*
X72656474Y-33500000D01*
X72603996Y-33397006D01*
X72510936Y-33268919D01*
X72497558Y-33250505D01*
X72497554Y-33250500D01*
X72369499Y-33122445D01*
X72369494Y-33122441D01*
X72222997Y-33016006D01*
X72222996Y-33016005D01*
X72222994Y-33016004D01*
X72088205Y-32947325D01*
X72037409Y-32899350D01*
X72020500Y-32836840D01*
X72020500Y-30622154D01*
X72021413Y-30619043D01*
X77815200Y-30619043D01*
X77815200Y-30777157D01*
X77846740Y-30894864D01*
X77856123Y-30929883D01*
X77856126Y-30929890D01*
X77935175Y-31066809D01*
X77935179Y-31066814D01*
X77935180Y-31066816D01*
X78046984Y-31178620D01*
X78046986Y-31178621D01*
X78046990Y-31178624D01*
X78170619Y-31250000D01*
X78183916Y-31257677D01*
X78336643Y-31298600D01*
X78336645Y-31298600D01*
X78494755Y-31298600D01*
X78494757Y-31298600D01*
X78647484Y-31257677D01*
X78784416Y-31178620D01*
X78896220Y-31066816D01*
X78975277Y-30929884D01*
X79016200Y-30777157D01*
X79016200Y-30619043D01*
X78975277Y-30466316D01*
X78961030Y-30441639D01*
X78896224Y-30329390D01*
X78896218Y-30329382D01*
X78852519Y-30285683D01*
X78819034Y-30224360D01*
X78816200Y-30198002D01*
X78816200Y-29468755D01*
X78835885Y-29401716D01*
X78852519Y-29381074D01*
X80535674Y-27697919D01*
X80596997Y-27664434D01*
X80623355Y-27661600D01*
X80685155Y-27661600D01*
X80685157Y-27661600D01*
X80837884Y-27620677D01*
X80974816Y-27541620D01*
X81086620Y-27429816D01*
X81165677Y-27292884D01*
X81206600Y-27140157D01*
X81206600Y-26982043D01*
X81165677Y-26829316D01*
X81139795Y-26784486D01*
X81086624Y-26692390D01*
X81086618Y-26692382D01*
X80974817Y-26580581D01*
X80974809Y-26580575D01*
X80837890Y-26501526D01*
X80837886Y-26501524D01*
X80837884Y-26501523D01*
X80685157Y-26460600D01*
X80527043Y-26460600D01*
X80374316Y-26501523D01*
X80374309Y-26501526D01*
X80237390Y-26580575D01*
X80237382Y-26580581D01*
X80125581Y-26692382D01*
X80125575Y-26692390D01*
X80046526Y-26829309D01*
X80046523Y-26829316D01*
X80005600Y-26982043D01*
X80005600Y-27043845D01*
X79985915Y-27110884D01*
X79969281Y-27131526D01*
X78095222Y-29005584D01*
X78095220Y-29005587D01*
X78042493Y-29096910D01*
X78037931Y-29113935D01*
X78035651Y-29122447D01*
X78035651Y-29122448D01*
X78035650Y-29122447D01*
X78015200Y-29198771D01*
X78015200Y-30198002D01*
X77995515Y-30265041D01*
X77978881Y-30285683D01*
X77935181Y-30329382D01*
X77935175Y-30329390D01*
X77856126Y-30466309D01*
X77856123Y-30466316D01*
X77815200Y-30619043D01*
X72021413Y-30619043D01*
X72029144Y-30592713D01*
X72035668Y-30562727D01*
X72039422Y-30557711D01*
X72040185Y-30555115D01*
X72056819Y-30534473D01*
X77948373Y-24642919D01*
X77975300Y-24628215D01*
X78001119Y-24611623D01*
X78007319Y-24610731D01*
X78009696Y-24609434D01*
X78036054Y-24606600D01*
X78096100Y-24606600D01*
X78163139Y-24626285D01*
X78208894Y-24679089D01*
X78220100Y-24730600D01*
X78220100Y-25453545D01*
X78200415Y-25520584D01*
X78183785Y-25541221D01*
X78074325Y-25650682D01*
X78013005Y-25684166D01*
X77986646Y-25687000D01*
X77924843Y-25687000D01*
X77772116Y-25727923D01*
X77772109Y-25727926D01*
X77635190Y-25806975D01*
X77635182Y-25806981D01*
X77523381Y-25918782D01*
X77523375Y-25918790D01*
X77444326Y-26055709D01*
X77444323Y-26055716D01*
X77403400Y-26208443D01*
X77403400Y-26366557D01*
X77439183Y-26500099D01*
X77444323Y-26519283D01*
X77444326Y-26519290D01*
X77523375Y-26656209D01*
X77523379Y-26656214D01*
X77523380Y-26656216D01*
X77635184Y-26768020D01*
X77635186Y-26768021D01*
X77635190Y-26768024D01*
X77744406Y-26831079D01*
X77772116Y-26847077D01*
X77924843Y-26888000D01*
X77924845Y-26888000D01*
X78082955Y-26888000D01*
X78082957Y-26888000D01*
X78235684Y-26847077D01*
X78372616Y-26768020D01*
X78484420Y-26656216D01*
X78563477Y-26519284D01*
X78604400Y-26366557D01*
X78604400Y-26304753D01*
X78624085Y-26237714D01*
X78640715Y-26217076D01*
X78856303Y-26001487D01*
X78856308Y-26001484D01*
X78866511Y-25991280D01*
X78866513Y-25991280D01*
X78941080Y-25916713D01*
X78993807Y-25825387D01*
X78997873Y-25810212D01*
X79000481Y-25800482D01*
X79006907Y-25776497D01*
X79021101Y-25723526D01*
X79021101Y-25618073D01*
X79021101Y-25610478D01*
X79021100Y-25610460D01*
X79021100Y-16899454D01*
X79040785Y-16832415D01*
X79093589Y-16786660D01*
X79162747Y-16776716D01*
X79226303Y-16805741D01*
G37*
%TD.AperFunction*%
%TA.AperFunction,Conductor*%
G36*
X76089874Y-14824949D02*
G01*
X76119068Y-14827037D01*
X76123928Y-14830675D01*
X76129914Y-14831682D01*
X76151571Y-14851369D01*
X76175001Y-14868909D01*
X76178270Y-14875640D01*
X76181615Y-14878680D01*
X76195509Y-14911125D01*
X76209593Y-14963689D01*
X76214330Y-14971893D01*
X76262320Y-15055013D01*
X76262322Y-15055015D01*
X78183781Y-16976474D01*
X78217266Y-17037797D01*
X78220100Y-17064155D01*
X78220100Y-23281600D01*
X78200415Y-23348639D01*
X78147611Y-23394394D01*
X78096100Y-23405600D01*
X77939743Y-23405600D01*
X77787016Y-23446523D01*
X77787009Y-23446526D01*
X77650090Y-23525575D01*
X77650082Y-23525581D01*
X77538281Y-23637382D01*
X77538275Y-23637390D01*
X77459226Y-23774309D01*
X77459223Y-23774316D01*
X77418300Y-23927043D01*
X77418300Y-23988845D01*
X77398615Y-24055884D01*
X77381981Y-24076526D01*
X71299522Y-30158984D01*
X71299518Y-30158990D01*
X71246793Y-30250311D01*
X71244616Y-30258434D01*
X71228258Y-30319488D01*
X71219500Y-30352173D01*
X71219500Y-32836840D01*
X71199815Y-32903879D01*
X71151795Y-32947325D01*
X71017002Y-33016006D01*
X70870505Y-33122441D01*
X70870500Y-33122445D01*
X70742445Y-33250500D01*
X70742441Y-33250505D01*
X70636006Y-33397002D01*
X70553788Y-33558360D01*
X70553787Y-33558363D01*
X70497829Y-33730589D01*
X70472473Y-33890678D01*
X70442544Y-33953813D01*
X70383232Y-33990744D01*
X70313369Y-33989746D01*
X70255137Y-33951136D01*
X70227527Y-33890678D01*
X70209610Y-33777559D01*
X70202171Y-33730591D01*
X70146211Y-33558361D01*
X70146211Y-33558360D01*
X70116474Y-33500000D01*
X70063996Y-33397006D01*
X69970936Y-33268919D01*
X69957558Y-33250505D01*
X69957554Y-33250500D01*
X69829499Y-33122445D01*
X69829494Y-33122441D01*
X69682997Y-33016006D01*
X69682996Y-33016005D01*
X69682994Y-33016004D01*
X69548205Y-32947325D01*
X69497409Y-32899350D01*
X69480500Y-32836840D01*
X69480500Y-21414454D01*
X69500185Y-21347415D01*
X69516819Y-21326773D01*
X72727588Y-18116004D01*
X75988055Y-14855536D01*
X75993381Y-14852628D01*
X75996784Y-14847601D01*
X76023689Y-14836079D01*
X76049376Y-14822053D01*
X76055430Y-14822486D01*
X76061012Y-14820096D01*
X76089874Y-14824949D01*
G37*
%TD.AperFunction*%
%TA.AperFunction,Conductor*%
G36*
X63518834Y-23780273D02*
G01*
X63574767Y-23822145D01*
X63599184Y-23887609D01*
X63599500Y-23896455D01*
X63599500Y-32725500D01*
X63579815Y-32792539D01*
X63527011Y-32838294D01*
X63475500Y-32849500D01*
X63105143Y-32849500D01*
X63105117Y-32849502D01*
X63080012Y-32852413D01*
X63080008Y-32852415D01*
X62977235Y-32897793D01*
X62897794Y-32977234D01*
X62852415Y-33080006D01*
X62852415Y-33080008D01*
X62849500Y-33105131D01*
X62849500Y-33475500D01*
X62829815Y-33542539D01*
X62777011Y-33588294D01*
X62725500Y-33599500D01*
X61581055Y-33599500D01*
X61514016Y-33579815D01*
X61493374Y-33563181D01*
X59258483Y-31328290D01*
X59224998Y-31266967D01*
X59229982Y-31197275D01*
X59271854Y-31141342D01*
X59307847Y-31122678D01*
X59309405Y-31122171D01*
X59309409Y-31122171D01*
X59481639Y-31066211D01*
X59642994Y-30983996D01*
X59789501Y-30877553D01*
X59917553Y-30749501D01*
X60023996Y-30602994D01*
X60106211Y-30441639D01*
X60110131Y-30429574D01*
X60139759Y-30338388D01*
X60179196Y-30280712D01*
X60243554Y-30253513D01*
X60312401Y-30265427D01*
X60363877Y-30312671D01*
X60375621Y-30338386D01*
X60421582Y-30479837D01*
X60510904Y-30655143D01*
X60566076Y-30731079D01*
X60566077Y-30731080D01*
X61111980Y-30185176D01*
X61114075Y-30192993D01*
X61179901Y-30307007D01*
X61272993Y-30400099D01*
X61387007Y-30465925D01*
X61394822Y-30468019D01*
X60848918Y-31013922D01*
X60924856Y-31069095D01*
X61100164Y-31158418D01*
X61287294Y-31219221D01*
X61481618Y-31250000D01*
X61678382Y-31250000D01*
X61872705Y-31219221D01*
X62059835Y-31158418D01*
X62235143Y-31069095D01*
X62311079Y-31013922D01*
X62311080Y-31013921D01*
X61765178Y-30468019D01*
X61772993Y-30465925D01*
X61887007Y-30400099D01*
X61980099Y-30307007D01*
X62045925Y-30192993D01*
X62048019Y-30185177D01*
X62593921Y-30731080D01*
X62593922Y-30731079D01*
X62649095Y-30655143D01*
X62738418Y-30479835D01*
X62799221Y-30292705D01*
X62830000Y-30098382D01*
X62830000Y-29901617D01*
X62799221Y-29707294D01*
X62738418Y-29520164D01*
X62649095Y-29344856D01*
X62593922Y-29268919D01*
X62593922Y-29268918D01*
X62048018Y-29814821D01*
X62045925Y-29807007D01*
X61980099Y-29692993D01*
X61887007Y-29599901D01*
X61772993Y-29534075D01*
X61765177Y-29531980D01*
X62311080Y-28986077D01*
X62311079Y-28986076D01*
X62235143Y-28930904D01*
X62059835Y-28841581D01*
X61872705Y-28780778D01*
X61678382Y-28750000D01*
X61481618Y-28750000D01*
X61287294Y-28780778D01*
X61100164Y-28841581D01*
X60924855Y-28930905D01*
X60924846Y-28930911D01*
X60848919Y-28986075D01*
X60848918Y-28986076D01*
X61394823Y-29531980D01*
X61387007Y-29534075D01*
X61272993Y-29599901D01*
X61179901Y-29692993D01*
X61114075Y-29807007D01*
X61111980Y-29814822D01*
X60566076Y-29268918D01*
X60566075Y-29268919D01*
X60510911Y-29344846D01*
X60510905Y-29344855D01*
X60421581Y-29520162D01*
X60375621Y-29661613D01*
X60336183Y-29719288D01*
X60271824Y-29746486D01*
X60202978Y-29734571D01*
X60151502Y-29687327D01*
X60139759Y-29661611D01*
X60106213Y-29558366D01*
X60106211Y-29558360D01*
X60060554Y-29468755D01*
X60023996Y-29397006D01*
X59930936Y-29268919D01*
X59917558Y-29250505D01*
X59917554Y-29250500D01*
X59789499Y-29122445D01*
X59789494Y-29122441D01*
X59642997Y-29016006D01*
X59642996Y-29016005D01*
X59642994Y-29016004D01*
X59508205Y-28947325D01*
X59457409Y-28899350D01*
X59440500Y-28836840D01*
X59440500Y-27807455D01*
X59460185Y-27740416D01*
X59476819Y-27719774D01*
X63387819Y-23808774D01*
X63449142Y-23775289D01*
X63518834Y-23780273D01*
G37*
%TD.AperFunction*%
%TA.AperFunction,Conductor*%
G36*
X90748864Y-30199385D02*
G01*
X90794619Y-30252189D01*
X90804563Y-30321347D01*
X90775538Y-30384903D01*
X90743825Y-30411087D01*
X90671787Y-30452677D01*
X90671782Y-30452681D01*
X90559981Y-30564482D01*
X90559975Y-30564490D01*
X90480926Y-30701409D01*
X90480923Y-30701416D01*
X90440000Y-30854143D01*
X90440000Y-31020384D01*
X90438549Y-31020384D01*
X90429147Y-31080655D01*
X90382765Y-31132909D01*
X90316976Y-31151800D01*
X88556155Y-31151800D01*
X88489116Y-31132115D01*
X88468474Y-31115481D01*
X87744374Y-30391381D01*
X87710889Y-30330058D01*
X87715873Y-30260366D01*
X87757745Y-30204433D01*
X87823209Y-30180016D01*
X87832055Y-30179700D01*
X90681825Y-30179700D01*
X90748864Y-30199385D01*
G37*
%TD.AperFunction*%
%TA.AperFunction,Conductor*%
G36*
X95518834Y-13825572D02*
G01*
X95574767Y-13867444D01*
X95599184Y-13932908D01*
X95599500Y-13941754D01*
X95599500Y-21845345D01*
X95579815Y-21912384D01*
X95563181Y-21933026D01*
X94919573Y-22576633D01*
X94858250Y-22610118D01*
X94788558Y-22605134D01*
X94732625Y-22563262D01*
X94712118Y-22521046D01*
X94709377Y-22510816D01*
X94704066Y-22501617D01*
X94630324Y-22373890D01*
X94630318Y-22373882D01*
X94518517Y-22262081D01*
X94518509Y-22262075D01*
X94381590Y-22183026D01*
X94381586Y-22183024D01*
X94381584Y-22183023D01*
X94228857Y-22142100D01*
X94070743Y-22142100D01*
X93918016Y-22183023D01*
X93918009Y-22183026D01*
X93781090Y-22262075D01*
X93781082Y-22262081D01*
X93669281Y-22373882D01*
X93669275Y-22373890D01*
X93590226Y-22510809D01*
X93590223Y-22510816D01*
X93549300Y-22663543D01*
X93549300Y-22725345D01*
X93529615Y-22792384D01*
X93512981Y-22813026D01*
X93246422Y-23079584D01*
X93246420Y-23079587D01*
X93193693Y-23170912D01*
X93180766Y-23219157D01*
X93180766Y-23219158D01*
X93180765Y-23219157D01*
X93166400Y-23272771D01*
X93166400Y-23710445D01*
X93146715Y-23777484D01*
X93130081Y-23798126D01*
X90469526Y-26458681D01*
X90408203Y-26492166D01*
X90381845Y-26495000D01*
X86776573Y-26495000D01*
X86674710Y-26522293D01*
X86583387Y-26575020D01*
X86583384Y-26575022D01*
X86354126Y-26804281D01*
X86292803Y-26837766D01*
X86266445Y-26840600D01*
X85138255Y-26840600D01*
X85071216Y-26820915D01*
X85050574Y-26804281D01*
X84422774Y-26176481D01*
X84389289Y-26115158D01*
X84394273Y-26045466D01*
X84436145Y-25989533D01*
X84501609Y-25965116D01*
X84510455Y-25964800D01*
X90211825Y-25964800D01*
X90211827Y-25964800D01*
X90313688Y-25937507D01*
X90405013Y-25884780D01*
X91902973Y-24386818D01*
X91964296Y-24353334D01*
X91990654Y-24350500D01*
X92052455Y-24350500D01*
X92052457Y-24350500D01*
X92205184Y-24309577D01*
X92342116Y-24230520D01*
X92453920Y-24118716D01*
X92532977Y-23981784D01*
X92573900Y-23829057D01*
X92573900Y-23670943D01*
X92562435Y-23628155D01*
X92564098Y-23558308D01*
X92603260Y-23500445D01*
X92620205Y-23488680D01*
X92694616Y-23445720D01*
X92806420Y-23333916D01*
X92885477Y-23196984D01*
X92926400Y-23044257D01*
X92926400Y-22886143D01*
X92885477Y-22733416D01*
X92876080Y-22717140D01*
X92806424Y-22596490D01*
X92806418Y-22596482D01*
X92694617Y-22484681D01*
X92694609Y-22484675D01*
X92557690Y-22405626D01*
X92557687Y-22405624D01*
X92557684Y-22405623D01*
X92557680Y-22405622D01*
X92550177Y-22402514D01*
X92551047Y-22400412D01*
X92501435Y-22370171D01*
X92470907Y-22307323D01*
X92479204Y-22237948D01*
X92505510Y-22199082D01*
X92507410Y-22197181D01*
X92507413Y-22197180D01*
X92901280Y-21803313D01*
X92923878Y-21764172D01*
X92934954Y-21744988D01*
X92938980Y-21738013D01*
X92954007Y-21711987D01*
X92981300Y-21610127D01*
X92981300Y-20963173D01*
X92964854Y-20901794D01*
X92954007Y-20861312D01*
X92901280Y-20769987D01*
X92484013Y-20352720D01*
X92438350Y-20326356D01*
X92392689Y-20299993D01*
X92341757Y-20286346D01*
X92290827Y-20272700D01*
X90505427Y-20272700D01*
X90399973Y-20272700D01*
X90298110Y-20299993D01*
X90206787Y-20352720D01*
X90206784Y-20352722D01*
X89637422Y-20922084D01*
X89637420Y-20922087D01*
X89584692Y-21013413D01*
X89569501Y-21070109D01*
X89561483Y-21083996D01*
X89558559Y-21097441D01*
X89537409Y-21125696D01*
X89475827Y-21187280D01*
X89414504Y-21220766D01*
X89388144Y-21223600D01*
X89324355Y-21223600D01*
X89257316Y-21203915D01*
X89236673Y-21187280D01*
X89191318Y-21141924D01*
X89157833Y-21080601D01*
X89155000Y-21054244D01*
X89155000Y-20990254D01*
X89174685Y-20923215D01*
X89191319Y-20902573D01*
X91419173Y-18674719D01*
X91480496Y-18641234D01*
X91506854Y-18638400D01*
X91568655Y-18638400D01*
X91568657Y-18638400D01*
X91721384Y-18597477D01*
X91858316Y-18518420D01*
X91970120Y-18406616D01*
X92049177Y-18269684D01*
X92090100Y-18116957D01*
X92090100Y-17958843D01*
X92049177Y-17806116D01*
X91994252Y-17710982D01*
X91970124Y-17669190D01*
X91970118Y-17669182D01*
X91859095Y-17558159D01*
X91825610Y-17496836D01*
X91830594Y-17427144D01*
X91859095Y-17382797D01*
X93666524Y-15575368D01*
X95387821Y-13854071D01*
X95449142Y-13820588D01*
X95518834Y-13825572D01*
G37*
%TD.AperFunction*%
%TA.AperFunction,Conductor*%
G36*
X112052748Y-5329443D02*
G01*
X112077572Y-5332412D01*
X112085693Y-5339117D01*
X112095799Y-5342085D01*
X112112170Y-5360978D01*
X112131450Y-5376897D01*
X112134657Y-5386929D01*
X112141554Y-5394889D01*
X112145112Y-5419634D01*
X112152725Y-5443449D01*
X112150823Y-5459354D01*
X112151498Y-5464047D01*
X112148535Y-5478493D01*
X112138500Y-5515943D01*
X112138500Y-5577745D01*
X112118815Y-5644784D01*
X112102181Y-5665426D01*
X111345926Y-6421681D01*
X111284603Y-6455166D01*
X111258245Y-6458000D01*
X108226106Y-6458000D01*
X108159067Y-6438315D01*
X108113312Y-6385511D01*
X108103368Y-6316353D01*
X108132393Y-6252797D01*
X108148419Y-6237353D01*
X108166594Y-6222743D01*
X108197722Y-6197722D01*
X108317030Y-6049296D01*
X108401641Y-5878693D01*
X108447600Y-5693889D01*
X108450500Y-5651123D01*
X108450500Y-5446400D01*
X108470185Y-5379361D01*
X108522989Y-5333606D01*
X108574500Y-5322400D01*
X112028760Y-5322400D01*
X112052748Y-5329443D01*
G37*
%TD.AperFunction*%
%TA.AperFunction,Conductor*%
G36*
X137003736Y-500726D02*
G01*
X137293797Y-518271D01*
X137308660Y-520076D01*
X137590798Y-571780D01*
X137605335Y-575363D01*
X137879172Y-660695D01*
X137893163Y-666000D01*
X138154743Y-783727D01*
X138167989Y-790680D01*
X138413465Y-939075D01*
X138425776Y-947573D01*
X138651573Y-1124473D01*
X138662781Y-1134403D01*
X138865596Y-1337218D01*
X138875525Y-1348425D01*
X138995481Y-1501538D01*
X139052422Y-1574217D01*
X139060928Y-1586540D01*
X139209316Y-1832004D01*
X139216275Y-1845263D01*
X139333997Y-2106831D01*
X139339306Y-2120832D01*
X139424635Y-2394663D01*
X139428219Y-2409201D01*
X139479923Y-2691339D01*
X139481728Y-2706204D01*
X139499274Y-2996263D01*
X139499500Y-3003750D01*
X139499500Y-66996249D01*
X139499274Y-67003736D01*
X139481728Y-67293794D01*
X139479923Y-67308659D01*
X139428219Y-67590797D01*
X139424635Y-67605335D01*
X139339304Y-67879174D01*
X139333994Y-67893176D01*
X139216277Y-68154730D01*
X139209319Y-68167987D01*
X139060928Y-68413458D01*
X139052422Y-68425782D01*
X138875525Y-68651573D01*
X138865595Y-68662781D01*
X138662781Y-68865595D01*
X138651573Y-68875525D01*
X138425782Y-69052422D01*
X138413458Y-69060928D01*
X138167987Y-69209319D01*
X138154730Y-69216277D01*
X137893176Y-69333994D01*
X137879174Y-69339304D01*
X137605335Y-69424635D01*
X137590797Y-69428219D01*
X137308659Y-69479923D01*
X137293794Y-69481728D01*
X137003736Y-69499274D01*
X136996249Y-69499500D01*
X3003751Y-69499500D01*
X2996264Y-69499274D01*
X2706204Y-69481728D01*
X2691339Y-69479923D01*
X2409201Y-69428219D01*
X2394663Y-69424635D01*
X2120832Y-69339306D01*
X2106831Y-69333997D01*
X1845263Y-69216275D01*
X1832004Y-69209316D01*
X1586537Y-69060926D01*
X1574217Y-69052422D01*
X1348426Y-68875526D01*
X1337218Y-68865596D01*
X1134403Y-68662781D01*
X1124473Y-68651573D01*
X947573Y-68425776D01*
X939075Y-68413465D01*
X790679Y-68167987D01*
X783727Y-68154743D01*
X666000Y-67893163D01*
X660693Y-67879167D01*
X575364Y-67605336D01*
X571780Y-67590798D01*
X520076Y-67308660D01*
X518271Y-67293795D01*
X500726Y-67003736D01*
X500500Y-66996249D01*
X500500Y-64878711D01*
X3149500Y-64878711D01*
X3149500Y-65121288D01*
X3181161Y-65361785D01*
X3243947Y-65596104D01*
X3310330Y-65756366D01*
X3336776Y-65820212D01*
X3458064Y-66030289D01*
X3458066Y-66030292D01*
X3458067Y-66030293D01*
X3605733Y-66222736D01*
X3605739Y-66222743D01*
X3777256Y-66394260D01*
X3777263Y-66394266D01*
X3804003Y-66414784D01*
X3969711Y-66541936D01*
X4179788Y-66663224D01*
X4403900Y-66756054D01*
X4638211Y-66818838D01*
X4798249Y-66839907D01*
X4878711Y-66850500D01*
X4878712Y-66850500D01*
X5121289Y-66850500D01*
X5201751Y-66839907D01*
X5361789Y-66818838D01*
X5596100Y-66756054D01*
X5820212Y-66663224D01*
X6030289Y-66541936D01*
X6222738Y-66394265D01*
X6394265Y-66222738D01*
X6541936Y-66030289D01*
X6663224Y-65820212D01*
X6756054Y-65596100D01*
X6818838Y-65361789D01*
X6850500Y-65121288D01*
X6850500Y-64878712D01*
X6818838Y-64638211D01*
X6756054Y-64403900D01*
X6755711Y-64403073D01*
X6733263Y-64348877D01*
X6663224Y-64179788D01*
X6541936Y-63969711D01*
X6426949Y-63819857D01*
X6394266Y-63777263D01*
X6394260Y-63777256D01*
X6222743Y-63605739D01*
X6222736Y-63605733D01*
X6030293Y-63458067D01*
X6030292Y-63458066D01*
X6030289Y-63458064D01*
X5858661Y-63358974D01*
X5820214Y-63336777D01*
X5820205Y-63336773D01*
X5596104Y-63243947D01*
X5361785Y-63181161D01*
X5121289Y-63149500D01*
X5121288Y-63149500D01*
X4878712Y-63149500D01*
X4878711Y-63149500D01*
X4638214Y-63181161D01*
X4403895Y-63243947D01*
X4179794Y-63336773D01*
X4179785Y-63336777D01*
X3969706Y-63458067D01*
X3777263Y-63605733D01*
X3777256Y-63605739D01*
X3605739Y-63777256D01*
X3605733Y-63777263D01*
X3458067Y-63969706D01*
X3336777Y-64179785D01*
X3336773Y-64179794D01*
X3243947Y-64403895D01*
X3181161Y-64638214D01*
X3149500Y-64878711D01*
X500500Y-64878711D01*
X500500Y-27420943D01*
X3649500Y-27420943D01*
X3649500Y-27579057D01*
X3683321Y-27705277D01*
X3690423Y-27731783D01*
X3690426Y-27731790D01*
X3769475Y-27868709D01*
X3769479Y-27868714D01*
X3769480Y-27868716D01*
X3881284Y-27980520D01*
X3881286Y-27980521D01*
X3881290Y-27980524D01*
X4018209Y-28059573D01*
X4018216Y-28059577D01*
X4170943Y-28100500D01*
X4170945Y-28100500D01*
X4329055Y-28100500D01*
X4329057Y-28100500D01*
X4481784Y-28059577D01*
X4618716Y-27980520D01*
X4730520Y-27868716D01*
X4809577Y-27731784D01*
X4830337Y-27654304D01*
X4866701Y-27594647D01*
X4929547Y-27564117D01*
X4950111Y-27562400D01*
X18140825Y-27562400D01*
X18140827Y-27562400D01*
X18242688Y-27535107D01*
X18334013Y-27482380D01*
X18679574Y-27136819D01*
X18706501Y-27122115D01*
X18732320Y-27105523D01*
X18738520Y-27104631D01*
X18740897Y-27103334D01*
X18767255Y-27100500D01*
X18783745Y-27100500D01*
X18850784Y-27120185D01*
X18896539Y-27172989D01*
X18906483Y-27242147D01*
X18877458Y-27305703D01*
X18871426Y-27312181D01*
X16320426Y-29863181D01*
X16259103Y-29896666D01*
X16232745Y-29899500D01*
X16170943Y-29899500D01*
X16018216Y-29940423D01*
X16018209Y-29940426D01*
X15881290Y-30019475D01*
X15881282Y-30019481D01*
X15837583Y-30063181D01*
X15776260Y-30096666D01*
X15749902Y-30099500D01*
X7000098Y-30099500D01*
X6933059Y-30079815D01*
X6912417Y-30063181D01*
X6868717Y-30019481D01*
X6868709Y-30019475D01*
X6731790Y-29940426D01*
X6731786Y-29940424D01*
X6731784Y-29940423D01*
X6579057Y-29899500D01*
X6420943Y-29899500D01*
X6268216Y-29940423D01*
X6268209Y-29940426D01*
X6131290Y-30019475D01*
X6131282Y-30019481D01*
X6019481Y-30131282D01*
X6019475Y-30131290D01*
X5940426Y-30268209D01*
X5940423Y-30268216D01*
X5899500Y-30420943D01*
X5899500Y-30579057D01*
X5940235Y-30731080D01*
X5940423Y-30731783D01*
X5940426Y-30731790D01*
X6019475Y-30868709D01*
X6019479Y-30868714D01*
X6019480Y-30868716D01*
X6131284Y-30980520D01*
X6131286Y-30980521D01*
X6131290Y-30980524D01*
X6261146Y-31055495D01*
X6268216Y-31059577D01*
X6420943Y-31100500D01*
X6420945Y-31100500D01*
X6579055Y-31100500D01*
X6579057Y-31100500D01*
X6731784Y-31059577D01*
X6868716Y-30980520D01*
X6912417Y-30936819D01*
X6973740Y-30903334D01*
X7000098Y-30900500D01*
X15749902Y-30900500D01*
X15816941Y-30920185D01*
X15837583Y-30936819D01*
X15881284Y-30980520D01*
X15881286Y-30980521D01*
X15881290Y-30980524D01*
X16011146Y-31055495D01*
X16018216Y-31059577D01*
X16170943Y-31100500D01*
X16170945Y-31100500D01*
X16329055Y-31100500D01*
X16329057Y-31100500D01*
X16481784Y-31059577D01*
X16618716Y-30980520D01*
X16730520Y-30868716D01*
X16809577Y-30731784D01*
X16850500Y-30579057D01*
X16850500Y-30517255D01*
X16870185Y-30450216D01*
X16886819Y-30429574D01*
X21314776Y-26001617D01*
X28350000Y-26001617D01*
X28350000Y-26198382D01*
X28380778Y-26392705D01*
X28441581Y-26579835D01*
X28530904Y-26755143D01*
X28586076Y-26831079D01*
X28586077Y-26831080D01*
X29131980Y-26285176D01*
X29134075Y-26292993D01*
X29199901Y-26407007D01*
X29292993Y-26500099D01*
X29407007Y-26565925D01*
X29414822Y-26568019D01*
X28868918Y-27113922D01*
X28944856Y-27169095D01*
X29120164Y-27258418D01*
X29307294Y-27319221D01*
X29501618Y-27350000D01*
X29698382Y-27350000D01*
X29892705Y-27319221D01*
X30079835Y-27258418D01*
X30255143Y-27169095D01*
X30331079Y-27113922D01*
X30331080Y-27113921D01*
X29785178Y-26568019D01*
X29792993Y-26565925D01*
X29907007Y-26500099D01*
X30000099Y-26407007D01*
X30065925Y-26292993D01*
X30068019Y-26285177D01*
X30613921Y-26831080D01*
X30613922Y-26831079D01*
X30669095Y-26755143D01*
X30758418Y-26579835D01*
X30819221Y-26392705D01*
X30850000Y-26198382D01*
X30850000Y-26001617D01*
X30819221Y-25807294D01*
X30758418Y-25620164D01*
X30669095Y-25444856D01*
X30613922Y-25368919D01*
X30613922Y-25368918D01*
X30068018Y-25914821D01*
X30065925Y-25907007D01*
X30000099Y-25792993D01*
X29907007Y-25699901D01*
X29792993Y-25634075D01*
X29785177Y-25631980D01*
X30331080Y-25086077D01*
X30331079Y-25086076D01*
X30255143Y-25030904D01*
X30079835Y-24941581D01*
X29892705Y-24880778D01*
X29698382Y-24850000D01*
X29501618Y-24850000D01*
X29307294Y-24880778D01*
X29120164Y-24941581D01*
X28944855Y-25030905D01*
X28944846Y-25030911D01*
X28868919Y-25086075D01*
X28868918Y-25086076D01*
X29414823Y-25631980D01*
X29407007Y-25634075D01*
X29292993Y-25699901D01*
X29199901Y-25792993D01*
X29134075Y-25907007D01*
X29131980Y-25914822D01*
X28586076Y-25368918D01*
X28586075Y-25368919D01*
X28530911Y-25444846D01*
X28530905Y-25444855D01*
X28441581Y-25620164D01*
X28380778Y-25807294D01*
X28350000Y-26001617D01*
X21314776Y-26001617D01*
X26029574Y-21286819D01*
X26090897Y-21253334D01*
X26117255Y-21250500D01*
X28978685Y-21250500D01*
X29045724Y-21270185D01*
X29091479Y-21322989D01*
X29101423Y-21392147D01*
X29072398Y-21455703D01*
X29034980Y-21484985D01*
X28944855Y-21530905D01*
X28944846Y-21530911D01*
X28868919Y-21586075D01*
X28868918Y-21586076D01*
X29414823Y-22131980D01*
X29407007Y-22134075D01*
X29292993Y-22199901D01*
X29199901Y-22292993D01*
X29134075Y-22407007D01*
X29131980Y-22414822D01*
X28586076Y-21868918D01*
X28586075Y-21868919D01*
X28530911Y-21944846D01*
X28530905Y-21944855D01*
X28441581Y-22120164D01*
X28380778Y-22307294D01*
X28350000Y-22501617D01*
X28350000Y-22698382D01*
X28380778Y-22892705D01*
X28441581Y-23079835D01*
X28530904Y-23255143D01*
X28586076Y-23331079D01*
X28586077Y-23331080D01*
X29131980Y-22785176D01*
X29134075Y-22792993D01*
X29199901Y-22907007D01*
X29292993Y-23000099D01*
X29407007Y-23065925D01*
X29414822Y-23068019D01*
X28868918Y-23613922D01*
X28944856Y-23669095D01*
X29120164Y-23758418D01*
X29307294Y-23819221D01*
X29501618Y-23850000D01*
X29698382Y-23850000D01*
X29892705Y-23819221D01*
X30079835Y-23758418D01*
X30255143Y-23669095D01*
X30331079Y-23613922D01*
X30331080Y-23613921D01*
X29785178Y-23068019D01*
X29792993Y-23065925D01*
X29907007Y-23000099D01*
X30000099Y-22907007D01*
X30065925Y-22792993D01*
X30068019Y-22785177D01*
X30613921Y-23331080D01*
X30613922Y-23331079D01*
X30669095Y-23255143D01*
X30758418Y-23079835D01*
X30819221Y-22892705D01*
X30850000Y-22698382D01*
X30850000Y-22501617D01*
X30819221Y-22307294D01*
X30758418Y-22120164D01*
X30669095Y-21944856D01*
X30613922Y-21868919D01*
X30613922Y-21868918D01*
X30068018Y-22414821D01*
X30065925Y-22407007D01*
X30000099Y-22292993D01*
X29907007Y-22199901D01*
X29792993Y-22134075D01*
X29785177Y-22131980D01*
X30331080Y-21586077D01*
X30331079Y-21586076D01*
X30255143Y-21530904D01*
X30165021Y-21484985D01*
X30114225Y-21437011D01*
X30097430Y-21369190D01*
X30119967Y-21303055D01*
X30174682Y-21259603D01*
X30221316Y-21250500D01*
X35702725Y-21250500D01*
X35702727Y-21250500D01*
X35804588Y-21223207D01*
X35895913Y-21170480D01*
X35909037Y-21157355D01*
X35970356Y-21123871D01*
X36040047Y-21128854D01*
X36095982Y-21170724D01*
X36120401Y-21236188D01*
X36111279Y-21292487D01*
X36097564Y-21325598D01*
X36097561Y-21325610D01*
X36066800Y-21480253D01*
X36066800Y-32696146D01*
X36089764Y-32811594D01*
X36083537Y-32881186D01*
X36040674Y-32936363D01*
X35974784Y-32959607D01*
X35906787Y-32943539D01*
X35892659Y-32934160D01*
X35886615Y-32929522D01*
X35886613Y-32929520D01*
X35834358Y-32899350D01*
X35795289Y-32876793D01*
X35744357Y-32863146D01*
X35693427Y-32849500D01*
X35693426Y-32849500D01*
X10810339Y-32849500D01*
X10810323Y-32849499D01*
X10802727Y-32849499D01*
X10697273Y-32849499D01*
X10629366Y-32867695D01*
X10595412Y-32876793D01*
X10533034Y-32912807D01*
X10518571Y-32921158D01*
X10504084Y-32929522D01*
X9429522Y-34004084D01*
X9429520Y-34004087D01*
X9376793Y-34095412D01*
X9360937Y-34154588D01*
X9360937Y-34154589D01*
X9360936Y-34154588D01*
X9349500Y-34197269D01*
X9349500Y-34197273D01*
X9349500Y-45928673D01*
X9349500Y-46034127D01*
X9356781Y-46061300D01*
X9376793Y-46135989D01*
X9390412Y-46159577D01*
X9429520Y-46227313D01*
X9429522Y-46227315D01*
X11966181Y-48763974D01*
X11999666Y-48825297D01*
X12002500Y-48851655D01*
X12002500Y-48913457D01*
X12029539Y-49014366D01*
X12043423Y-49066183D01*
X12043426Y-49066190D01*
X12122475Y-49203109D01*
X12122479Y-49203114D01*
X12122480Y-49203116D01*
X12234284Y-49314920D01*
X12234286Y-49314921D01*
X12234290Y-49314924D01*
X12362677Y-49389047D01*
X12371216Y-49393977D01*
X12523943Y-49434900D01*
X12523945Y-49434900D01*
X12682055Y-49434900D01*
X12682057Y-49434900D01*
X12834784Y-49393977D01*
X12949500Y-49327745D01*
X13017400Y-49311273D01*
X13083427Y-49334126D01*
X13126618Y-49389047D01*
X13135500Y-49435133D01*
X13135500Y-64740426D01*
X13162793Y-64842289D01*
X13187936Y-64885836D01*
X13215520Y-64933613D01*
X15069087Y-66787180D01*
X15112688Y-66812353D01*
X15156426Y-66837606D01*
X15160412Y-66839907D01*
X15262273Y-66867200D01*
X15262275Y-66867200D01*
X25386025Y-66867200D01*
X25386027Y-66867200D01*
X25487888Y-66839907D01*
X25579213Y-66787180D01*
X26033068Y-66333323D01*
X26094389Y-66299840D01*
X26164080Y-66304824D01*
X26177042Y-66310521D01*
X26243196Y-66344229D01*
X26243198Y-66344229D01*
X26243201Y-66344231D01*
X26359592Y-66382049D01*
X26460339Y-66414784D01*
X26685838Y-66450500D01*
X26685843Y-66450500D01*
X26914162Y-66450500D01*
X27139660Y-66414784D01*
X27356799Y-66344231D01*
X27560228Y-66240579D01*
X27744937Y-66106379D01*
X27906379Y-65944937D01*
X28040579Y-65760228D01*
X28144231Y-65556799D01*
X28214784Y-65339660D01*
X28233241Y-65223126D01*
X28250500Y-65114162D01*
X28250500Y-64885837D01*
X28214784Y-64660339D01*
X28144229Y-64443196D01*
X28069621Y-64296771D01*
X28040579Y-64239772D01*
X27906379Y-64055063D01*
X27744937Y-63893621D01*
X27560228Y-63759421D01*
X27503228Y-63730378D01*
X27356803Y-63655770D01*
X27139660Y-63585215D01*
X26914162Y-63549500D01*
X26914157Y-63549500D01*
X26685843Y-63549500D01*
X26685838Y-63549500D01*
X26460339Y-63585215D01*
X26243196Y-63655770D01*
X26039771Y-63759421D01*
X25855061Y-63893622D01*
X25693622Y-64055061D01*
X25559421Y-64239771D01*
X25455770Y-64443196D01*
X25385215Y-64660339D01*
X25349500Y-64885837D01*
X25349500Y-65114162D01*
X25385215Y-65339660D01*
X25455771Y-65556806D01*
X25489477Y-65622957D01*
X25502373Y-65691626D01*
X25476096Y-65756366D01*
X25466674Y-65766932D01*
X25203724Y-66029882D01*
X25142404Y-66063366D01*
X25116045Y-66066200D01*
X24561640Y-66066200D01*
X24494601Y-66046515D01*
X24448846Y-65993711D01*
X24438902Y-65924553D01*
X24461321Y-65869316D01*
X24540579Y-65760228D01*
X24644231Y-65556799D01*
X24714784Y-65339660D01*
X24733241Y-65223126D01*
X24750500Y-65114162D01*
X24750500Y-64885837D01*
X24714784Y-64660339D01*
X24644229Y-64443196D01*
X24569621Y-64296771D01*
X24540579Y-64239772D01*
X24406379Y-64055063D01*
X24244937Y-63893621D01*
X24060228Y-63759421D01*
X24003228Y-63730378D01*
X23856803Y-63655770D01*
X23639660Y-63585215D01*
X23414162Y-63549500D01*
X23414157Y-63549500D01*
X23185843Y-63549500D01*
X23185838Y-63549500D01*
X22960339Y-63585215D01*
X22813818Y-63632824D01*
X22743201Y-63655769D01*
X22743198Y-63655770D01*
X22743196Y-63655771D01*
X22677040Y-63689478D01*
X22608370Y-63702373D01*
X22543631Y-63676095D01*
X22533066Y-63666673D01*
X15844619Y-56978226D01*
X15811134Y-56916903D01*
X15808300Y-56890545D01*
X15808300Y-51374055D01*
X15827985Y-51307016D01*
X15880789Y-51261261D01*
X15949947Y-51251317D01*
X16013503Y-51280342D01*
X16019981Y-51286374D01*
X28966673Y-64233066D01*
X29000158Y-64294389D01*
X28995174Y-64364081D01*
X28989478Y-64377040D01*
X28955771Y-64443196D01*
X28885215Y-64660339D01*
X28849500Y-64885837D01*
X28849500Y-65114162D01*
X28885215Y-65339660D01*
X28955770Y-65556803D01*
X29025621Y-65693892D01*
X29059421Y-65760228D01*
X29193621Y-65944937D01*
X29355063Y-66106379D01*
X29539772Y-66240579D01*
X29635884Y-66289550D01*
X29743196Y-66344229D01*
X29743198Y-66344229D01*
X29743201Y-66344231D01*
X29859592Y-66382049D01*
X29960339Y-66414784D01*
X30185838Y-66450500D01*
X30185843Y-66450500D01*
X30414162Y-66450500D01*
X30639660Y-66414784D01*
X30856799Y-66344231D01*
X31060228Y-66240579D01*
X31244937Y-66106379D01*
X31406379Y-65944937D01*
X31540579Y-65760228D01*
X31644231Y-65556799D01*
X31714784Y-65339660D01*
X31733241Y-65223126D01*
X31750500Y-65114162D01*
X31750500Y-64885837D01*
X31714784Y-64660339D01*
X31644229Y-64443196D01*
X31569621Y-64296771D01*
X31540579Y-64239772D01*
X31406379Y-64055063D01*
X31244937Y-63893621D01*
X31060228Y-63759421D01*
X31003228Y-63730378D01*
X30856803Y-63655770D01*
X30639660Y-63585215D01*
X30414162Y-63549500D01*
X30414157Y-63549500D01*
X30185843Y-63549500D01*
X30185838Y-63549500D01*
X29960339Y-63585215D01*
X29813818Y-63632824D01*
X29743201Y-63655769D01*
X29743198Y-63655770D01*
X29743196Y-63655771D01*
X29677040Y-63689478D01*
X29608370Y-63702373D01*
X29543631Y-63676095D01*
X29533066Y-63666673D01*
X16261119Y-50394726D01*
X16227634Y-50333403D01*
X16224800Y-50307045D01*
X16224800Y-48290555D01*
X16244485Y-48223516D01*
X16297289Y-48177761D01*
X16366447Y-48167817D01*
X16430003Y-48196842D01*
X16436481Y-48202874D01*
X32466673Y-64233066D01*
X32500158Y-64294389D01*
X32495174Y-64364081D01*
X32489478Y-64377040D01*
X32455771Y-64443196D01*
X32385215Y-64660339D01*
X32349500Y-64885837D01*
X32349500Y-65114162D01*
X32385215Y-65339660D01*
X32455770Y-65556803D01*
X32525621Y-65693892D01*
X32559421Y-65760228D01*
X32693621Y-65944937D01*
X32855063Y-66106379D01*
X33039772Y-66240579D01*
X33135884Y-66289550D01*
X33243196Y-66344229D01*
X33243198Y-66344229D01*
X33243201Y-66344231D01*
X33359592Y-66382049D01*
X33460339Y-66414784D01*
X33685838Y-66450500D01*
X33685843Y-66450500D01*
X33914162Y-66450500D01*
X34139660Y-66414784D01*
X34356799Y-66344231D01*
X34560228Y-66240579D01*
X34744937Y-66106379D01*
X34906379Y-65944937D01*
X35040579Y-65760228D01*
X35144231Y-65556799D01*
X35214784Y-65339660D01*
X35233241Y-65223126D01*
X35250500Y-65114162D01*
X35250500Y-64885837D01*
X35214784Y-64660339D01*
X35144229Y-64443196D01*
X35069621Y-64296771D01*
X35040579Y-64239772D01*
X34906379Y-64055063D01*
X34744937Y-63893621D01*
X34560228Y-63759421D01*
X34503228Y-63730378D01*
X34356803Y-63655770D01*
X34139660Y-63585215D01*
X33914162Y-63549500D01*
X33914157Y-63549500D01*
X33685843Y-63549500D01*
X33685838Y-63549500D01*
X33460339Y-63585215D01*
X33313818Y-63632824D01*
X33243201Y-63655769D01*
X33243198Y-63655770D01*
X33243196Y-63655771D01*
X33177040Y-63689478D01*
X33108370Y-63702373D01*
X33043631Y-63676095D01*
X33033066Y-63666673D01*
X16862919Y-47496526D01*
X16829434Y-47435203D01*
X16826600Y-47408845D01*
X16826600Y-44670943D01*
X22399500Y-44670943D01*
X22399500Y-44829057D01*
X22440086Y-44980524D01*
X22440423Y-44981783D01*
X22440426Y-44981790D01*
X22519475Y-45118709D01*
X22519479Y-45118714D01*
X22519480Y-45118716D01*
X22631284Y-45230520D01*
X22631286Y-45230521D01*
X22631290Y-45230524D01*
X22768209Y-45309573D01*
X22768216Y-45309577D01*
X22920943Y-45350500D01*
X22982745Y-45350500D01*
X23049784Y-45370185D01*
X23070426Y-45386819D01*
X24021581Y-46337974D01*
X24055066Y-46399297D01*
X24057900Y-46425655D01*
X24057900Y-52211126D01*
X24085193Y-52312989D01*
X24111556Y-52358650D01*
X24137920Y-52404313D01*
X24137922Y-52404315D01*
X35966673Y-64233066D01*
X36000158Y-64294389D01*
X35995174Y-64364081D01*
X35989478Y-64377040D01*
X35955771Y-64443196D01*
X35885215Y-64660339D01*
X35849500Y-64885837D01*
X35849500Y-65114162D01*
X35885215Y-65339660D01*
X35955770Y-65556803D01*
X36025621Y-65693892D01*
X36059421Y-65760228D01*
X36193621Y-65944937D01*
X36355063Y-66106379D01*
X36539772Y-66240579D01*
X36635884Y-66289550D01*
X36743196Y-66344229D01*
X36743198Y-66344229D01*
X36743201Y-66344231D01*
X36859592Y-66382049D01*
X36960339Y-66414784D01*
X37185838Y-66450500D01*
X37185843Y-66450500D01*
X37414162Y-66450500D01*
X37639660Y-66414784D01*
X37856799Y-66344231D01*
X38060228Y-66240579D01*
X38244937Y-66106379D01*
X38406379Y-65944937D01*
X38540579Y-65760228D01*
X38644231Y-65556799D01*
X38714784Y-65339660D01*
X38733241Y-65223126D01*
X38750500Y-65114162D01*
X38750500Y-64885837D01*
X38714784Y-64660339D01*
X38644229Y-64443196D01*
X38569621Y-64296771D01*
X38540579Y-64239772D01*
X38406379Y-64055063D01*
X38244937Y-63893621D01*
X38060228Y-63759421D01*
X38003228Y-63730378D01*
X37856803Y-63655770D01*
X37639660Y-63585215D01*
X37414162Y-63549500D01*
X37414157Y-63549500D01*
X37185843Y-63549500D01*
X37185838Y-63549500D01*
X36960339Y-63585215D01*
X36813818Y-63632824D01*
X36743201Y-63655769D01*
X36743198Y-63655770D01*
X36743196Y-63655771D01*
X36677040Y-63689478D01*
X36608370Y-63702373D01*
X36543631Y-63676095D01*
X36533066Y-63666673D01*
X24895219Y-52028826D01*
X24861734Y-51967503D01*
X24858900Y-51941145D01*
X24858900Y-46155675D01*
X24858900Y-46155673D01*
X24831607Y-46053812D01*
X24778880Y-45962487D01*
X23636819Y-44820426D01*
X23603334Y-44759103D01*
X23600500Y-44732745D01*
X23600500Y-44670945D01*
X23600500Y-44670943D01*
X23559577Y-44518216D01*
X23528925Y-44465124D01*
X23480524Y-44381290D01*
X23480518Y-44381282D01*
X23368717Y-44269481D01*
X23368709Y-44269475D01*
X23231790Y-44190426D01*
X23231786Y-44190424D01*
X23231784Y-44190423D01*
X23079057Y-44149500D01*
X22920943Y-44149500D01*
X22768216Y-44190423D01*
X22768209Y-44190426D01*
X22631290Y-44269475D01*
X22631282Y-44269481D01*
X22519481Y-44381282D01*
X22519475Y-44381290D01*
X22440426Y-44518209D01*
X22440423Y-44518216D01*
X22399500Y-44670943D01*
X16826600Y-44670943D01*
X16826600Y-41476298D01*
X16846285Y-41409259D01*
X16862919Y-41388617D01*
X16863717Y-41387819D01*
X16906620Y-41344916D01*
X16985677Y-41207984D01*
X17026600Y-41055257D01*
X17026600Y-40897143D01*
X16985677Y-40744416D01*
X16985673Y-40744409D01*
X16906624Y-40607490D01*
X16906618Y-40607482D01*
X16874833Y-40575697D01*
X16841348Y-40514374D01*
X16846332Y-40444682D01*
X16855127Y-40426016D01*
X16857346Y-40422173D01*
X16866577Y-40406184D01*
X16907500Y-40253457D01*
X16907500Y-40095343D01*
X16866577Y-39942616D01*
X16850963Y-39915571D01*
X16787524Y-39805690D01*
X16787518Y-39805682D01*
X16675717Y-39693881D01*
X16675716Y-39693880D01*
X16584447Y-39641186D01*
X16536233Y-39590621D01*
X16523009Y-39522014D01*
X16539058Y-39471805D01*
X16573077Y-39412884D01*
X16614000Y-39260157D01*
X16614000Y-39102043D01*
X16573077Y-38949316D01*
X16551288Y-38911576D01*
X16494024Y-38812390D01*
X16494018Y-38812382D01*
X16479551Y-38797915D01*
X16446066Y-38736592D01*
X16451050Y-38666900D01*
X16459842Y-38648239D01*
X16483777Y-38606784D01*
X16524700Y-38454057D01*
X16524700Y-38295943D01*
X16483777Y-38143216D01*
X16471774Y-38122426D01*
X16404724Y-38006290D01*
X16404718Y-38006282D01*
X16292917Y-37894481D01*
X16292909Y-37894475D01*
X16155990Y-37815426D01*
X16155985Y-37815423D01*
X16133636Y-37809435D01*
X16090893Y-37797982D01*
X16031235Y-37761618D01*
X16000706Y-37698771D01*
X16009001Y-37629395D01*
X16035303Y-37590532D01*
X16137320Y-37488516D01*
X16216377Y-37351584D01*
X16257300Y-37198857D01*
X16257300Y-37040743D01*
X16216377Y-36888016D01*
X16208200Y-36873853D01*
X16137324Y-36751090D01*
X16137318Y-36751082D01*
X16025517Y-36639281D01*
X16025509Y-36639275D01*
X15888590Y-36560226D01*
X15888586Y-36560224D01*
X15888584Y-36560223D01*
X15735857Y-36519300D01*
X15577743Y-36519300D01*
X15425016Y-36560223D01*
X15425009Y-36560226D01*
X15288090Y-36639275D01*
X15288082Y-36639281D01*
X15176281Y-36751082D01*
X15176275Y-36751090D01*
X15097226Y-36888009D01*
X15097223Y-36888016D01*
X15056300Y-37040743D01*
X15056300Y-37102545D01*
X15036615Y-37169584D01*
X15019981Y-37190226D01*
X14233922Y-37976284D01*
X14233920Y-37976287D01*
X14181192Y-38067612D01*
X14181192Y-38067613D01*
X14173472Y-38096421D01*
X14173473Y-38096422D01*
X14153900Y-38169471D01*
X14153900Y-39339860D01*
X14134215Y-39406899D01*
X14081411Y-39452654D01*
X14012253Y-39462598D01*
X13948697Y-39433573D01*
X13922513Y-39401860D01*
X13871722Y-39313887D01*
X13871718Y-39313882D01*
X13759917Y-39202081D01*
X13759909Y-39202075D01*
X13622990Y-39123026D01*
X13622986Y-39123024D01*
X13622984Y-39123023D01*
X13470257Y-39082100D01*
X13312143Y-39082100D01*
X13159416Y-39123023D01*
X13159409Y-39123026D01*
X13022490Y-39202075D01*
X13022482Y-39202081D01*
X12910681Y-39313882D01*
X12910675Y-39313890D01*
X12831626Y-39450809D01*
X12831623Y-39450816D01*
X12790700Y-39603543D01*
X12790700Y-39767613D01*
X12771015Y-39834652D01*
X12718211Y-39880407D01*
X12649053Y-39890351D01*
X12585497Y-39861326D01*
X12579019Y-39855294D01*
X11600119Y-38876394D01*
X11566634Y-38815071D01*
X11563800Y-38788713D01*
X11563800Y-35245762D01*
X11568373Y-35212396D01*
X11571302Y-35201911D01*
X11572877Y-35199184D01*
X11591923Y-35128100D01*
X11592082Y-35127534D01*
X11610252Y-35098425D01*
X11628099Y-35069146D01*
X11628716Y-35068845D01*
X11629080Y-35068264D01*
X11660071Y-35053614D01*
X11690945Y-35038617D01*
X11691982Y-35038530D01*
X11692248Y-35038405D01*
X11692730Y-35038467D01*
X11711509Y-35036900D01*
X19002713Y-35036900D01*
X19069752Y-35056585D01*
X19090394Y-35073219D01*
X29957685Y-45940510D01*
X30061592Y-46000500D01*
X30083215Y-46012984D01*
X30223225Y-46050500D01*
X30223226Y-46050500D01*
X30223228Y-46050500D01*
X41788592Y-46050500D01*
X41855631Y-46070185D01*
X41901386Y-46122989D01*
X41911330Y-46192147D01*
X41882305Y-46255703D01*
X41870543Y-46267559D01*
X41861278Y-46275718D01*
X41842984Y-46286280D01*
X41796501Y-46332762D01*
X41793553Y-46335359D01*
X41765306Y-46348533D01*
X41737960Y-46363466D01*
X41731892Y-46364118D01*
X41730232Y-46364893D01*
X41727780Y-46364560D01*
X41711602Y-46366300D01*
X28585455Y-46366300D01*
X28518416Y-46346615D01*
X28497774Y-46329981D01*
X18014715Y-35846922D01*
X18014713Y-35846920D01*
X17954426Y-35812113D01*
X17923389Y-35794193D01*
X17872457Y-35780546D01*
X17821527Y-35766900D01*
X17821526Y-35766900D01*
X17750098Y-35766900D01*
X17683059Y-35747215D01*
X17662417Y-35730581D01*
X17618717Y-35686881D01*
X17618709Y-35686875D01*
X17481790Y-35607826D01*
X17481786Y-35607824D01*
X17481784Y-35607823D01*
X17329057Y-35566900D01*
X17170943Y-35566900D01*
X17018216Y-35607823D01*
X17018209Y-35607826D01*
X16881290Y-35686875D01*
X16881282Y-35686881D01*
X16769481Y-35798682D01*
X16769475Y-35798690D01*
X16690426Y-35935609D01*
X16690423Y-35935616D01*
X16649500Y-36088343D01*
X16649500Y-36246457D01*
X16678582Y-36354990D01*
X16690423Y-36399183D01*
X16690426Y-36399190D01*
X16769475Y-36536109D01*
X16769479Y-36536114D01*
X16769480Y-36536116D01*
X16881284Y-36647920D01*
X16881286Y-36647921D01*
X16881290Y-36647924D01*
X17013437Y-36724218D01*
X17018216Y-36726977D01*
X17170943Y-36767900D01*
X17170945Y-36767900D01*
X17329055Y-36767900D01*
X17329057Y-36767900D01*
X17481784Y-36726977D01*
X17577023Y-36671990D01*
X17644923Y-36655518D01*
X17710950Y-36678371D01*
X17726704Y-36691697D01*
X28122287Y-47087280D01*
X28213612Y-47140007D01*
X28315473Y-47167300D01*
X41711602Y-47167300D01*
X41778641Y-47186985D01*
X41799283Y-47203619D01*
X41842984Y-47247320D01*
X41842986Y-47247321D01*
X41842990Y-47247324D01*
X41979909Y-47326373D01*
X41979916Y-47326377D01*
X42132643Y-47367300D01*
X42132645Y-47367300D01*
X42290755Y-47367300D01*
X42290757Y-47367300D01*
X42443484Y-47326377D01*
X42580416Y-47247320D01*
X42692220Y-47135516D01*
X42771277Y-46998584D01*
X42812200Y-46845857D01*
X42812200Y-46687743D01*
X42771277Y-46535016D01*
X42708138Y-46425655D01*
X42692224Y-46398090D01*
X42692218Y-46398082D01*
X42580415Y-46286279D01*
X42572807Y-46281887D01*
X42524592Y-46231319D01*
X42511370Y-46162712D01*
X42537338Y-46097848D01*
X42594252Y-46057320D01*
X42634808Y-46050500D01*
X50855972Y-46050500D01*
X50855974Y-46050500D01*
X50855975Y-46050500D01*
X50995985Y-46012984D01*
X51017608Y-46000500D01*
X51121515Y-45940510D01*
X55940510Y-41121515D01*
X56012984Y-40995985D01*
X56017236Y-40980115D01*
X56017238Y-40980112D01*
X56017237Y-40980112D01*
X56050500Y-40855975D01*
X56050500Y-39279386D01*
X56070185Y-39212347D01*
X56086819Y-39191705D01*
X56176481Y-39102043D01*
X56273564Y-39004959D01*
X56293055Y-38994316D01*
X56309861Y-38979788D01*
X56323126Y-38977896D01*
X56334885Y-38971476D01*
X56357041Y-38973060D01*
X56379031Y-38969925D01*
X56391211Y-38975504D01*
X56404576Y-38976460D01*
X56422358Y-38989771D01*
X56442553Y-38999022D01*
X56455197Y-39014354D01*
X56460510Y-39018331D01*
X56465635Y-39025723D01*
X56467204Y-39028171D01*
X56519480Y-39118716D01*
X56535545Y-39134781D01*
X56542780Y-39146067D01*
X56548974Y-39167253D01*
X56559554Y-39186628D01*
X56558588Y-39200133D01*
X56562388Y-39213129D01*
X56556144Y-39234301D01*
X56554570Y-39256320D01*
X56545481Y-39270462D01*
X56542626Y-39280145D01*
X56535048Y-39286695D01*
X56526070Y-39300667D01*
X56470578Y-39356159D01*
X56470575Y-39356163D01*
X56391526Y-39493082D01*
X56391523Y-39493089D01*
X56350600Y-39645816D01*
X56350600Y-39803930D01*
X56389306Y-39948381D01*
X56391523Y-39956656D01*
X56391526Y-39956663D01*
X56470575Y-40093582D01*
X56470581Y-40093590D01*
X56512581Y-40135590D01*
X56546066Y-40196913D01*
X56548900Y-40223271D01*
X56548900Y-64004273D01*
X56548900Y-64109727D01*
X56552002Y-64121303D01*
X56576193Y-64211589D01*
X56592465Y-64239772D01*
X56628920Y-64302913D01*
X59036318Y-66710310D01*
X59036320Y-66710313D01*
X59110887Y-66784880D01*
X59148878Y-66806814D01*
X59202213Y-66837607D01*
X59304073Y-66864901D01*
X59304075Y-66864901D01*
X59417123Y-66864901D01*
X59417139Y-66864900D01*
X65888325Y-66864900D01*
X65888327Y-66864900D01*
X65990188Y-66837607D01*
X66081513Y-66784880D01*
X66533068Y-66333323D01*
X66594389Y-66299840D01*
X66664080Y-66304824D01*
X66677042Y-66310521D01*
X66743196Y-66344229D01*
X66743198Y-66344229D01*
X66743201Y-66344231D01*
X66859592Y-66382049D01*
X66960339Y-66414784D01*
X67185838Y-66450500D01*
X67185843Y-66450500D01*
X67414162Y-66450500D01*
X67639660Y-66414784D01*
X67856799Y-66344231D01*
X68060228Y-66240579D01*
X68244937Y-66106379D01*
X68406379Y-65944937D01*
X68540579Y-65760228D01*
X68586519Y-65670064D01*
X68634493Y-65619269D01*
X68702314Y-65602473D01*
X68768449Y-65625010D01*
X68784685Y-65638678D01*
X69866479Y-66720471D01*
X69866489Y-66720482D01*
X69870819Y-66724812D01*
X69870820Y-66724813D01*
X69945387Y-66799380D01*
X70011598Y-66837607D01*
X70036713Y-66852107D01*
X70138574Y-66879401D01*
X70138577Y-66879401D01*
X70251623Y-66879401D01*
X70251639Y-66879400D01*
X72873825Y-66879400D01*
X72873827Y-66879400D01*
X72975688Y-66852107D01*
X73067013Y-66799380D01*
X73533068Y-66333323D01*
X73594389Y-66299840D01*
X73664080Y-66304824D01*
X73677042Y-66310521D01*
X73743196Y-66344229D01*
X73743198Y-66344229D01*
X73743201Y-66344231D01*
X73859592Y-66382049D01*
X73960339Y-66414784D01*
X74185838Y-66450500D01*
X74185843Y-66450500D01*
X74414162Y-66450500D01*
X74639660Y-66414784D01*
X74856799Y-66344231D01*
X75060228Y-66240579D01*
X75244937Y-66106379D01*
X75406379Y-65944937D01*
X75540579Y-65760228D01*
X75644231Y-65556799D01*
X75714784Y-65339660D01*
X75733241Y-65223126D01*
X75750500Y-65114162D01*
X75750500Y-64885837D01*
X75714784Y-64660339D01*
X75644229Y-64443196D01*
X75569621Y-64296771D01*
X75540579Y-64239772D01*
X75406379Y-64055063D01*
X75244937Y-63893621D01*
X75060228Y-63759421D01*
X75003228Y-63730378D01*
X74856803Y-63655770D01*
X74639660Y-63585215D01*
X74414162Y-63549500D01*
X74414157Y-63549500D01*
X74185843Y-63549500D01*
X74185838Y-63549500D01*
X73960339Y-63585215D01*
X73743196Y-63655770D01*
X73539771Y-63759421D01*
X73355061Y-63893622D01*
X73193622Y-64055061D01*
X73059421Y-64239771D01*
X72955770Y-64443196D01*
X72885215Y-64660339D01*
X72849500Y-64885837D01*
X72849500Y-65114162D01*
X72885215Y-65339660D01*
X72955771Y-65556806D01*
X72989477Y-65622957D01*
X73002373Y-65691626D01*
X72976096Y-65756366D01*
X72966674Y-65766932D01*
X72691524Y-66042082D01*
X72630204Y-66075566D01*
X72603845Y-66078400D01*
X72052776Y-66078400D01*
X71985737Y-66058715D01*
X71939982Y-66005911D01*
X71930038Y-65936753D01*
X71952456Y-65881516D01*
X72040579Y-65760228D01*
X72144231Y-65556799D01*
X72214784Y-65339660D01*
X72233241Y-65223126D01*
X72250500Y-65114162D01*
X72250500Y-64885837D01*
X72214784Y-64660339D01*
X72144229Y-64443196D01*
X72069621Y-64296771D01*
X72040579Y-64239772D01*
X71906379Y-64055063D01*
X71744937Y-63893621D01*
X71560228Y-63759421D01*
X71503228Y-63730378D01*
X71356803Y-63655770D01*
X71324184Y-63645171D01*
X71286180Y-63632823D01*
X71228506Y-63593386D01*
X71201308Y-63529027D01*
X71200500Y-63514893D01*
X71200500Y-51041355D01*
X71220185Y-50974316D01*
X71272989Y-50928561D01*
X71342147Y-50918617D01*
X71405703Y-50947642D01*
X71412181Y-50953674D01*
X77363181Y-56904674D01*
X77396666Y-56965997D01*
X77399500Y-56992355D01*
X77399500Y-63514893D01*
X77379815Y-63581932D01*
X77327011Y-63627687D01*
X77313824Y-63632821D01*
X77288495Y-63641051D01*
X77243196Y-63655770D01*
X77039771Y-63759421D01*
X76855061Y-63893622D01*
X76693622Y-64055061D01*
X76559421Y-64239771D01*
X76455770Y-64443196D01*
X76385215Y-64660339D01*
X76349500Y-64885837D01*
X76349500Y-65114162D01*
X76385215Y-65339660D01*
X76455770Y-65556803D01*
X76525621Y-65693892D01*
X76559421Y-65760228D01*
X76693621Y-65944937D01*
X76855063Y-66106379D01*
X77039772Y-66240579D01*
X77135884Y-66289550D01*
X77243196Y-66344229D01*
X77243198Y-66344229D01*
X77243201Y-66344231D01*
X77359592Y-66382049D01*
X77460339Y-66414784D01*
X77685838Y-66450500D01*
X77685843Y-66450500D01*
X77914162Y-66450500D01*
X78139660Y-66414784D01*
X78356799Y-66344231D01*
X78560228Y-66240579D01*
X78744937Y-66106379D01*
X78906379Y-65944937D01*
X79040579Y-65760228D01*
X79144231Y-65556799D01*
X79214784Y-65339660D01*
X79233241Y-65223126D01*
X79250500Y-65114162D01*
X79250500Y-64885837D01*
X79214784Y-64660339D01*
X79144229Y-64443196D01*
X79069621Y-64296771D01*
X79040579Y-64239772D01*
X78906379Y-64055063D01*
X78744937Y-63893621D01*
X78560228Y-63759421D01*
X78503228Y-63730378D01*
X78356803Y-63655770D01*
X78324184Y-63645171D01*
X78286180Y-63632823D01*
X78228506Y-63593386D01*
X78201308Y-63529027D01*
X78200500Y-63514893D01*
X78200500Y-57400855D01*
X78220185Y-57333816D01*
X78272989Y-57288061D01*
X78342147Y-57278117D01*
X78405703Y-57307142D01*
X78412181Y-57313174D01*
X80863181Y-59764174D01*
X80896666Y-59825497D01*
X80899500Y-59851855D01*
X80899500Y-63514893D01*
X80879815Y-63581932D01*
X80827011Y-63627687D01*
X80813824Y-63632821D01*
X80788495Y-63641051D01*
X80743196Y-63655770D01*
X80539771Y-63759421D01*
X80355061Y-63893622D01*
X80193622Y-64055061D01*
X80059421Y-64239771D01*
X79955770Y-64443196D01*
X79885215Y-64660339D01*
X79849500Y-64885837D01*
X79849500Y-65114162D01*
X79885215Y-65339660D01*
X79955770Y-65556803D01*
X80025621Y-65693892D01*
X80059421Y-65760228D01*
X80193621Y-65944937D01*
X80355063Y-66106379D01*
X80539772Y-66240579D01*
X80635884Y-66289550D01*
X80743196Y-66344229D01*
X80743198Y-66344229D01*
X80743201Y-66344231D01*
X80859592Y-66382049D01*
X80960339Y-66414784D01*
X81185838Y-66450500D01*
X81185843Y-66450500D01*
X81414162Y-66450500D01*
X81639660Y-66414784D01*
X81856799Y-66344231D01*
X82060228Y-66240579D01*
X82244937Y-66106379D01*
X82406379Y-65944937D01*
X82540579Y-65760228D01*
X82644231Y-65556799D01*
X82714784Y-65339660D01*
X82733241Y-65223126D01*
X82750500Y-65114162D01*
X82750500Y-64885837D01*
X82714784Y-64660339D01*
X82644229Y-64443196D01*
X82623785Y-64403073D01*
X82596172Y-64348879D01*
X102849500Y-64348879D01*
X102849500Y-65651122D01*
X102849501Y-65651125D01*
X102852399Y-65693886D01*
X102852399Y-65693887D01*
X102867937Y-65756366D01*
X102898359Y-65878693D01*
X102898359Y-65878694D01*
X102898360Y-65878696D01*
X102982967Y-66049292D01*
X102982969Y-66049295D01*
X103102277Y-66197721D01*
X103102278Y-66197722D01*
X103250704Y-66317030D01*
X103250707Y-66317032D01*
X103421302Y-66401639D01*
X103421303Y-66401639D01*
X103421307Y-66401641D01*
X103606111Y-66447600D01*
X103648877Y-66450500D01*
X104951122Y-66450499D01*
X104993889Y-66447600D01*
X105178693Y-66401641D01*
X105349296Y-66317030D01*
X105497722Y-66197722D01*
X105617030Y-66049296D01*
X105701641Y-65878693D01*
X105747600Y-65693889D01*
X105750500Y-65651123D01*
X105750499Y-64885837D01*
X106349500Y-64885837D01*
X106349500Y-65114162D01*
X106385215Y-65339660D01*
X106455770Y-65556803D01*
X106525621Y-65693892D01*
X106559421Y-65760228D01*
X106693621Y-65944937D01*
X106855063Y-66106379D01*
X107039772Y-66240579D01*
X107135884Y-66289550D01*
X107243196Y-66344229D01*
X107243198Y-66344229D01*
X107243201Y-66344231D01*
X107359592Y-66382049D01*
X107460339Y-66414784D01*
X107685838Y-66450500D01*
X107685843Y-66450500D01*
X107914162Y-66450500D01*
X108139660Y-66414784D01*
X108356799Y-66344231D01*
X108560228Y-66240579D01*
X108744937Y-66106379D01*
X108906379Y-65944937D01*
X109040579Y-65760228D01*
X109144231Y-65556799D01*
X109214784Y-65339660D01*
X109233241Y-65223126D01*
X109250500Y-65114162D01*
X109250500Y-64885837D01*
X109849500Y-64885837D01*
X109849500Y-65114162D01*
X109885215Y-65339660D01*
X109955770Y-65556803D01*
X110025621Y-65693892D01*
X110059421Y-65760228D01*
X110193621Y-65944937D01*
X110355063Y-66106379D01*
X110539772Y-66240579D01*
X110635884Y-66289550D01*
X110743196Y-66344229D01*
X110743198Y-66344229D01*
X110743201Y-66344231D01*
X110859592Y-66382049D01*
X110960339Y-66414784D01*
X111185838Y-66450500D01*
X111185843Y-66450500D01*
X111414162Y-66450500D01*
X111639660Y-66414784D01*
X111856799Y-66344231D01*
X112060228Y-66240579D01*
X112244937Y-66106379D01*
X112406379Y-65944937D01*
X112540579Y-65760228D01*
X112644231Y-65556799D01*
X112714784Y-65339660D01*
X112733241Y-65223126D01*
X112750500Y-65114162D01*
X112750500Y-64885837D01*
X113349500Y-64885837D01*
X113349500Y-65114162D01*
X113385215Y-65339660D01*
X113455770Y-65556803D01*
X113525621Y-65693892D01*
X113559421Y-65760228D01*
X113693621Y-65944937D01*
X113855063Y-66106379D01*
X114039772Y-66240579D01*
X114135884Y-66289550D01*
X114243196Y-66344229D01*
X114243198Y-66344229D01*
X114243201Y-66344231D01*
X114359592Y-66382049D01*
X114460339Y-66414784D01*
X114685838Y-66450500D01*
X114685843Y-66450500D01*
X114914162Y-66450500D01*
X115139660Y-66414784D01*
X115356799Y-66344231D01*
X115560228Y-66240579D01*
X115744937Y-66106379D01*
X115906379Y-65944937D01*
X116040579Y-65760228D01*
X116144231Y-65556799D01*
X116214784Y-65339660D01*
X116233241Y-65223126D01*
X116250500Y-65114162D01*
X116250500Y-64885837D01*
X116214784Y-64660339D01*
X116144229Y-64443196D01*
X116069621Y-64296771D01*
X116040579Y-64239772D01*
X115906379Y-64055063D01*
X115744937Y-63893621D01*
X115560228Y-63759421D01*
X115503228Y-63730378D01*
X115356803Y-63655770D01*
X115139660Y-63585215D01*
X114914162Y-63549500D01*
X114914157Y-63549500D01*
X114685843Y-63549500D01*
X114685838Y-63549500D01*
X114460339Y-63585215D01*
X114243196Y-63655770D01*
X114039771Y-63759421D01*
X113855061Y-63893622D01*
X113693622Y-64055061D01*
X113559421Y-64239771D01*
X113455770Y-64443196D01*
X113385215Y-64660339D01*
X113349500Y-64885837D01*
X112750500Y-64885837D01*
X112714784Y-64660339D01*
X112644229Y-64443196D01*
X112569621Y-64296771D01*
X112540579Y-64239772D01*
X112406379Y-64055063D01*
X112244937Y-63893621D01*
X112060228Y-63759421D01*
X112003228Y-63730378D01*
X111856803Y-63655770D01*
X111639660Y-63585215D01*
X111414162Y-63549500D01*
X111414157Y-63549500D01*
X111185843Y-63549500D01*
X111185838Y-63549500D01*
X110960339Y-63585215D01*
X110743196Y-63655770D01*
X110539771Y-63759421D01*
X110355061Y-63893622D01*
X110193622Y-64055061D01*
X110059421Y-64239771D01*
X109955770Y-64443196D01*
X109885215Y-64660339D01*
X109849500Y-64885837D01*
X109250500Y-64885837D01*
X109214784Y-64660339D01*
X109144229Y-64443196D01*
X109069621Y-64296771D01*
X109040579Y-64239772D01*
X108906379Y-64055063D01*
X108744937Y-63893621D01*
X108560228Y-63759421D01*
X108503228Y-63730378D01*
X108356803Y-63655770D01*
X108139660Y-63585215D01*
X107914162Y-63549500D01*
X107914157Y-63549500D01*
X107685843Y-63549500D01*
X107685838Y-63549500D01*
X107460339Y-63585215D01*
X107243196Y-63655770D01*
X107039771Y-63759421D01*
X106855061Y-63893622D01*
X106693622Y-64055061D01*
X106559421Y-64239771D01*
X106455770Y-64443196D01*
X106385215Y-64660339D01*
X106349500Y-64885837D01*
X105750499Y-64885837D01*
X105750499Y-64348878D01*
X105747600Y-64306111D01*
X105701641Y-64121307D01*
X105681691Y-64081081D01*
X105617032Y-63950707D01*
X105617030Y-63950704D01*
X105497722Y-63802278D01*
X105497721Y-63802277D01*
X105349295Y-63682969D01*
X105349292Y-63682967D01*
X105178697Y-63598360D01*
X104993892Y-63552400D01*
X104972506Y-63550950D01*
X104951123Y-63549500D01*
X104951120Y-63549500D01*
X103648877Y-63549500D01*
X103648874Y-63549501D01*
X103606113Y-63552399D01*
X103606112Y-63552399D01*
X103421303Y-63598360D01*
X103250707Y-63682967D01*
X103250704Y-63682969D01*
X103102278Y-63802277D01*
X103102277Y-63802278D01*
X102982969Y-63950704D01*
X102982967Y-63950707D01*
X102898360Y-64121302D01*
X102852400Y-64306107D01*
X102849500Y-64348879D01*
X82596172Y-64348879D01*
X82569621Y-64296771D01*
X82540579Y-64239772D01*
X82406379Y-64055063D01*
X82244937Y-63893621D01*
X82060228Y-63759421D01*
X82003228Y-63730378D01*
X81856803Y-63655770D01*
X81824184Y-63645171D01*
X81786180Y-63632823D01*
X81728506Y-63593386D01*
X81701308Y-63529027D01*
X81700500Y-63514893D01*
X81700500Y-59581875D01*
X81700500Y-59581873D01*
X81673207Y-59480013D01*
X81673207Y-59480012D01*
X81620480Y-59388687D01*
X72561674Y-50329881D01*
X72528189Y-50268558D01*
X72533173Y-50198866D01*
X72575045Y-50142933D01*
X72640509Y-50118516D01*
X72649355Y-50118200D01*
X83048672Y-50118200D01*
X83048674Y-50118200D01*
X83048675Y-50118200D01*
X83188685Y-50080684D01*
X83314215Y-50008210D01*
X93327038Y-39995385D01*
X93388359Y-39961902D01*
X93458051Y-39966886D01*
X93513984Y-40008758D01*
X93534491Y-40050973D01*
X93546123Y-40094383D01*
X93546126Y-40094390D01*
X93625175Y-40231309D01*
X93625179Y-40231314D01*
X93625180Y-40231316D01*
X93736984Y-40343120D01*
X93736986Y-40343121D01*
X93736990Y-40343124D01*
X93855674Y-40411645D01*
X93873916Y-40422177D01*
X94026643Y-40463100D01*
X94088445Y-40463100D01*
X94155484Y-40482785D01*
X94176126Y-40499419D01*
X96263187Y-42586480D01*
X96354512Y-42639207D01*
X96456373Y-42666500D01*
X96456375Y-42666500D01*
X99756825Y-42666500D01*
X99756827Y-42666500D01*
X99858688Y-42639207D01*
X99950013Y-42586480D01*
X100599673Y-41936818D01*
X100660996Y-41903334D01*
X100687354Y-41900500D01*
X103233745Y-41900500D01*
X103300784Y-41920185D01*
X103346539Y-41972989D01*
X103356483Y-42042147D01*
X103327458Y-42105703D01*
X103321426Y-42112181D01*
X101477522Y-43956084D01*
X101477520Y-43956087D01*
X101424793Y-44047411D01*
X101420568Y-44063181D01*
X101400202Y-44139188D01*
X101398400Y-44145911D01*
X101397500Y-44149272D01*
X101397500Y-47731102D01*
X101377815Y-47798141D01*
X101361181Y-47818783D01*
X101317481Y-47862482D01*
X101317475Y-47862490D01*
X101238426Y-47999409D01*
X101238423Y-47999416D01*
X101197500Y-48152143D01*
X101197500Y-48310256D01*
X101238423Y-48462983D01*
X101238426Y-48462990D01*
X101317475Y-48599909D01*
X101317479Y-48599914D01*
X101317480Y-48599916D01*
X101429284Y-48711720D01*
X101429286Y-48711721D01*
X101429290Y-48711724D01*
X101519791Y-48763974D01*
X101566216Y-48790777D01*
X101718943Y-48831700D01*
X101718945Y-48831700D01*
X101867845Y-48831700D01*
X101934884Y-48851385D01*
X101980639Y-48904189D01*
X101990583Y-48973347D01*
X101961558Y-49036903D01*
X101955526Y-49043381D01*
X100358502Y-50640404D01*
X100297179Y-50673889D01*
X100227487Y-50668905D01*
X100183140Y-50640404D01*
X100149717Y-50606981D01*
X100149709Y-50606975D01*
X100012790Y-50527926D01*
X100012786Y-50527924D01*
X100012784Y-50527923D01*
X99860057Y-50487000D01*
X99701943Y-50487000D01*
X99549216Y-50527923D01*
X99549209Y-50527926D01*
X99412290Y-50606975D01*
X99412282Y-50606981D01*
X99300481Y-50718782D01*
X99300475Y-50718790D01*
X99221426Y-50855709D01*
X99221423Y-50855716D01*
X99180500Y-51008443D01*
X99180500Y-51166557D01*
X99203212Y-51251317D01*
X99221423Y-51319283D01*
X99221426Y-51319290D01*
X99300475Y-51456209D01*
X99300479Y-51456214D01*
X99300480Y-51456216D01*
X99412284Y-51568020D01*
X99412286Y-51568021D01*
X99412290Y-51568024D01*
X99549209Y-51647073D01*
X99549216Y-51647077D01*
X99701943Y-51688000D01*
X99701945Y-51688000D01*
X99860055Y-51688000D01*
X99860057Y-51688000D01*
X100012784Y-51647077D01*
X100149716Y-51568020D01*
X100193417Y-51524319D01*
X100254740Y-51490834D01*
X100281098Y-51488000D01*
X100530525Y-51488000D01*
X100530527Y-51488000D01*
X100632388Y-51460707D01*
X100723713Y-51407980D01*
X102694519Y-49437172D01*
X102755842Y-49403688D01*
X102825534Y-49408672D01*
X102881467Y-49450544D01*
X102905884Y-49516008D01*
X102906200Y-49524854D01*
X102906200Y-49953973D01*
X102906200Y-50059427D01*
X102911896Y-50080684D01*
X102933493Y-50161289D01*
X102955189Y-50198866D01*
X102986220Y-50252613D01*
X102986222Y-50252615D01*
X116966673Y-64233066D01*
X117000158Y-64294389D01*
X116995174Y-64364081D01*
X116989478Y-64377040D01*
X116955771Y-64443196D01*
X116885215Y-64660339D01*
X116849500Y-64885837D01*
X116849500Y-65114162D01*
X116885215Y-65339660D01*
X116955770Y-65556803D01*
X117025621Y-65693892D01*
X117059421Y-65760228D01*
X117193621Y-65944937D01*
X117355063Y-66106379D01*
X117539772Y-66240579D01*
X117635884Y-66289550D01*
X117743196Y-66344229D01*
X117743198Y-66344229D01*
X117743201Y-66344231D01*
X117859592Y-66382049D01*
X117960339Y-66414784D01*
X118185838Y-66450500D01*
X118185843Y-66450500D01*
X118414162Y-66450500D01*
X118639660Y-66414784D01*
X118856799Y-66344231D01*
X119060228Y-66240579D01*
X119244937Y-66106379D01*
X119406379Y-65944937D01*
X119540579Y-65760228D01*
X119644231Y-65556799D01*
X119714784Y-65339660D01*
X119733241Y-65223126D01*
X119750500Y-65114162D01*
X119750500Y-64885837D01*
X119714784Y-64660339D01*
X119644229Y-64443196D01*
X119569621Y-64296771D01*
X119540579Y-64239772D01*
X119406379Y-64055063D01*
X119244937Y-63893621D01*
X119060228Y-63759421D01*
X119003228Y-63730378D01*
X118856803Y-63655770D01*
X118639660Y-63585215D01*
X118414162Y-63549500D01*
X118414157Y-63549500D01*
X118185843Y-63549500D01*
X118185838Y-63549500D01*
X117960339Y-63585215D01*
X117813818Y-63632824D01*
X117743201Y-63655769D01*
X117743198Y-63655770D01*
X117743196Y-63655771D01*
X117677040Y-63689478D01*
X117608370Y-63702373D01*
X117543631Y-63676095D01*
X117533066Y-63666673D01*
X103743519Y-49877126D01*
X103710034Y-49815803D01*
X103707200Y-49789445D01*
X103707200Y-44934598D01*
X103715424Y-44906588D01*
X103720916Y-44877910D01*
X103725820Y-44871185D01*
X103726885Y-44867559D01*
X103741354Y-44849136D01*
X103742406Y-44848029D01*
X103787220Y-44803216D01*
X103790596Y-44797367D01*
X103800760Y-44786683D01*
X103818408Y-44776465D01*
X103833078Y-44762297D01*
X103848032Y-44759314D01*
X103861227Y-44751676D01*
X103881597Y-44752621D01*
X103901599Y-44748633D01*
X103915790Y-44754208D01*
X103931022Y-44754916D01*
X103947648Y-44766725D01*
X103966629Y-44774183D01*
X103980435Y-44790013D01*
X103987985Y-44795376D01*
X103990438Y-44801482D01*
X103997992Y-44810144D01*
X104003785Y-44820177D01*
X104003787Y-44820179D01*
X121363181Y-62179573D01*
X121396666Y-62240896D01*
X121399500Y-62267254D01*
X121399500Y-63514893D01*
X121379815Y-63581932D01*
X121327011Y-63627687D01*
X121313824Y-63632821D01*
X121288495Y-63641051D01*
X121243196Y-63655770D01*
X121039771Y-63759421D01*
X120855061Y-63893622D01*
X120693622Y-64055061D01*
X120559421Y-64239771D01*
X120455770Y-64443196D01*
X120385215Y-64660339D01*
X120349500Y-64885837D01*
X120349500Y-65114162D01*
X120385215Y-65339660D01*
X120455770Y-65556803D01*
X120525621Y-65693892D01*
X120559421Y-65760228D01*
X120693621Y-65944937D01*
X120855063Y-66106379D01*
X121039772Y-66240579D01*
X121135884Y-66289550D01*
X121243196Y-66344229D01*
X121243198Y-66344229D01*
X121243201Y-66344231D01*
X121359592Y-66382049D01*
X121460339Y-66414784D01*
X121685838Y-66450500D01*
X121685843Y-66450500D01*
X121914162Y-66450500D01*
X122139660Y-66414784D01*
X122356799Y-66344231D01*
X122560228Y-66240579D01*
X122744937Y-66106379D01*
X122906379Y-65944937D01*
X123040579Y-65760228D01*
X123144231Y-65556799D01*
X123214784Y-65339660D01*
X123233241Y-65223126D01*
X123250500Y-65114162D01*
X123250500Y-64885837D01*
X123214784Y-64660339D01*
X123144229Y-64443196D01*
X123069621Y-64296771D01*
X123040579Y-64239772D01*
X122906379Y-64055063D01*
X122744937Y-63893621D01*
X122560228Y-63759421D01*
X122503228Y-63730378D01*
X122356803Y-63655770D01*
X122324184Y-63645171D01*
X122286180Y-63632823D01*
X122228506Y-63593386D01*
X122201308Y-63529027D01*
X122200500Y-63514893D01*
X122200500Y-62066255D01*
X122220185Y-61999216D01*
X122272989Y-61953461D01*
X122342147Y-61943517D01*
X122405703Y-61972542D01*
X122412181Y-61978574D01*
X124253464Y-63819857D01*
X124286949Y-63881180D01*
X124281965Y-63950872D01*
X124253465Y-63995219D01*
X124193620Y-64055064D01*
X124059421Y-64239771D01*
X123955770Y-64443196D01*
X123885215Y-64660339D01*
X123849500Y-64885837D01*
X123849500Y-65114162D01*
X123885215Y-65339660D01*
X123955770Y-65556803D01*
X124025621Y-65693892D01*
X124059421Y-65760228D01*
X124193621Y-65944937D01*
X124355063Y-66106379D01*
X124539772Y-66240579D01*
X124635884Y-66289550D01*
X124743196Y-66344229D01*
X124743198Y-66344229D01*
X124743201Y-66344231D01*
X124859592Y-66382049D01*
X124960339Y-66414784D01*
X125185838Y-66450500D01*
X125185843Y-66450500D01*
X125414162Y-66450500D01*
X125639660Y-66414784D01*
X125856799Y-66344231D01*
X126060228Y-66240579D01*
X126244937Y-66106379D01*
X126406379Y-65944937D01*
X126540579Y-65760228D01*
X126644231Y-65556799D01*
X126714784Y-65339660D01*
X126733241Y-65223126D01*
X126750500Y-65114162D01*
X126750500Y-64885838D01*
X126750499Y-64885836D01*
X126749371Y-64878711D01*
X133149500Y-64878711D01*
X133149500Y-65121288D01*
X133181161Y-65361785D01*
X133243947Y-65596104D01*
X133310330Y-65756366D01*
X133336776Y-65820212D01*
X133458064Y-66030289D01*
X133458066Y-66030292D01*
X133458067Y-66030293D01*
X133605733Y-66222736D01*
X133605739Y-66222743D01*
X133777256Y-66394260D01*
X133777263Y-66394266D01*
X133804003Y-66414784D01*
X133969711Y-66541936D01*
X134179788Y-66663224D01*
X134403900Y-66756054D01*
X134638211Y-66818838D01*
X134798249Y-66839907D01*
X134878711Y-66850500D01*
X134878712Y-66850500D01*
X135121289Y-66850500D01*
X135201751Y-66839907D01*
X135361789Y-66818838D01*
X135596100Y-66756054D01*
X135820212Y-66663224D01*
X136030289Y-66541936D01*
X136222738Y-66394265D01*
X136394265Y-66222738D01*
X136541936Y-66030289D01*
X136663224Y-65820212D01*
X136756054Y-65596100D01*
X136818838Y-65361789D01*
X136850500Y-65121288D01*
X136850500Y-64878712D01*
X136818838Y-64638211D01*
X136756054Y-64403900D01*
X136755711Y-64403073D01*
X136733263Y-64348877D01*
X136663224Y-64179788D01*
X136541936Y-63969711D01*
X136426949Y-63819857D01*
X136394266Y-63777263D01*
X136394260Y-63777256D01*
X136222743Y-63605739D01*
X136222736Y-63605733D01*
X136030293Y-63458067D01*
X136030292Y-63458066D01*
X136030289Y-63458064D01*
X135858661Y-63358974D01*
X135820214Y-63336777D01*
X135820205Y-63336773D01*
X135596104Y-63243947D01*
X135361785Y-63181161D01*
X135121289Y-63149500D01*
X135121288Y-63149500D01*
X134878712Y-63149500D01*
X134878711Y-63149500D01*
X134638214Y-63181161D01*
X134403895Y-63243947D01*
X134179794Y-63336773D01*
X134179785Y-63336777D01*
X133969706Y-63458067D01*
X133777263Y-63605733D01*
X133777256Y-63605739D01*
X133605739Y-63777256D01*
X133605733Y-63777263D01*
X133458067Y-63969706D01*
X133336777Y-64179785D01*
X133336773Y-64179794D01*
X133243947Y-64403895D01*
X133181161Y-64638214D01*
X133149500Y-64878711D01*
X126749371Y-64878711D01*
X126714784Y-64660339D01*
X126644229Y-64443196D01*
X126569621Y-64296771D01*
X126540579Y-64239772D01*
X126406379Y-64055063D01*
X126244937Y-63893621D01*
X126060228Y-63759421D01*
X126003228Y-63730378D01*
X125856803Y-63655770D01*
X125639660Y-63585215D01*
X125414162Y-63549500D01*
X125414157Y-63549500D01*
X125185843Y-63549500D01*
X125185836Y-63549500D01*
X125180979Y-63549882D01*
X125180853Y-63548282D01*
X125118532Y-63540210D01*
X125080780Y-63514387D01*
X105571650Y-44005257D01*
X105571648Y-44005255D01*
X105480323Y-43952528D01*
X105403093Y-43931834D01*
X105347507Y-43899741D01*
X105292982Y-43845216D01*
X105292974Y-43845210D01*
X105149011Y-43762094D01*
X105150168Y-43760089D01*
X105105039Y-43723712D01*
X105082983Y-43657415D01*
X105099518Y-43591006D01*
X105103505Y-43584100D01*
X105162577Y-43481784D01*
X105203500Y-43329057D01*
X105203500Y-43170943D01*
X105172860Y-43056592D01*
X105174523Y-42986743D01*
X105213686Y-42928881D01*
X105277914Y-42901377D01*
X105292635Y-42900500D01*
X123722125Y-42900500D01*
X123722127Y-42900500D01*
X123823988Y-42873207D01*
X123915313Y-42820480D01*
X127090174Y-39645619D01*
X127151497Y-39612134D01*
X127177855Y-39609300D01*
X127239655Y-39609300D01*
X127239657Y-39609300D01*
X127392384Y-39568377D01*
X127529316Y-39489320D01*
X127641120Y-39377516D01*
X127720177Y-39240584D01*
X127761100Y-39087857D01*
X127761100Y-38929743D01*
X127720177Y-38777016D01*
X127702913Y-38747113D01*
X127641124Y-38640090D01*
X127641118Y-38640082D01*
X127529317Y-38528281D01*
X127529309Y-38528275D01*
X127392390Y-38449226D01*
X127392386Y-38449224D01*
X127392384Y-38449223D01*
X127239657Y-38408300D01*
X127081543Y-38408300D01*
X126928816Y-38449223D01*
X126928809Y-38449226D01*
X126791890Y-38528275D01*
X126791882Y-38528281D01*
X126680081Y-38640082D01*
X126680075Y-38640090D01*
X126601026Y-38777009D01*
X126601023Y-38777016D01*
X126560100Y-38929743D01*
X126560100Y-38991545D01*
X126540415Y-39058584D01*
X126523781Y-39079226D01*
X125383881Y-40219126D01*
X125322558Y-40252611D01*
X125252866Y-40247627D01*
X125196933Y-40205755D01*
X125172516Y-40140291D01*
X125172200Y-40131445D01*
X125172200Y-39996045D01*
X125172200Y-39996043D01*
X125131277Y-39843316D01*
X125116213Y-39817224D01*
X125052224Y-39706390D01*
X125052218Y-39706382D01*
X125008519Y-39662683D01*
X124975034Y-39601360D01*
X124972200Y-39575002D01*
X124972200Y-36920675D01*
X124972199Y-36920671D01*
X124967679Y-36903803D01*
X124957253Y-36864889D01*
X124944907Y-36818812D01*
X124892180Y-36727487D01*
X110541936Y-22377243D01*
X129459300Y-22377243D01*
X129459300Y-22535357D01*
X129493648Y-22663543D01*
X129500223Y-22688083D01*
X129500226Y-22688090D01*
X129579275Y-22825009D01*
X129579279Y-22825014D01*
X129579280Y-22825016D01*
X129691084Y-22936820D01*
X129691086Y-22936821D01*
X129691090Y-22936824D01*
X129824302Y-23013733D01*
X129828016Y-23015877D01*
X129980743Y-23056800D01*
X129980745Y-23056800D01*
X130138855Y-23056800D01*
X130138857Y-23056800D01*
X130291584Y-23015877D01*
X130402987Y-22951559D01*
X132569999Y-22951559D01*
X132594017Y-23072300D01*
X132594020Y-23072310D01*
X132641128Y-23186041D01*
X132641135Y-23186054D01*
X132709530Y-23288413D01*
X132709533Y-23288417D01*
X132796582Y-23375466D01*
X132796586Y-23375469D01*
X132898945Y-23443864D01*
X132898958Y-23443871D01*
X133012689Y-23490979D01*
X133012699Y-23490982D01*
X133133440Y-23515000D01*
X133256559Y-23515000D01*
X133377300Y-23490982D01*
X133377310Y-23490979D01*
X133491041Y-23443871D01*
X133491054Y-23443864D01*
X133593413Y-23375469D01*
X133593417Y-23375466D01*
X133680466Y-23288417D01*
X133680469Y-23288413D01*
X133748864Y-23186054D01*
X133748871Y-23186041D01*
X133795979Y-23072310D01*
X133795982Y-23072300D01*
X133820000Y-22951559D01*
X133820000Y-22828440D01*
X133795982Y-22707699D01*
X133795979Y-22707689D01*
X133748871Y-22593958D01*
X133748864Y-22593945D01*
X133680469Y-22491586D01*
X133680466Y-22491582D01*
X133593417Y-22404533D01*
X133593413Y-22404530D01*
X133491054Y-22336135D01*
X133491041Y-22336128D01*
X133377310Y-22289020D01*
X133377300Y-22289017D01*
X133256559Y-22265000D01*
X133133441Y-22265000D01*
X133012699Y-22289017D01*
X133012689Y-22289020D01*
X132898958Y-22336128D01*
X132898945Y-22336135D01*
X132796586Y-22404530D01*
X132796582Y-22404533D01*
X132709533Y-22491582D01*
X132709530Y-22491586D01*
X132641135Y-22593945D01*
X132641128Y-22593958D01*
X132594020Y-22707689D01*
X132594017Y-22707699D01*
X132570000Y-22828440D01*
X132570000Y-22951559D01*
X132569999Y-22951559D01*
X130402987Y-22951559D01*
X130428516Y-22936820D01*
X130540320Y-22825016D01*
X130619377Y-22688084D01*
X130660300Y-22535357D01*
X130660300Y-22377243D01*
X130619377Y-22224516D01*
X130571795Y-22142100D01*
X130540324Y-22087590D01*
X130540318Y-22087582D01*
X130496619Y-22043883D01*
X130463134Y-21982560D01*
X130460300Y-21956202D01*
X130460300Y-18430855D01*
X130468944Y-18401414D01*
X130475468Y-18371428D01*
X130479222Y-18366412D01*
X130479985Y-18363816D01*
X130496619Y-18343174D01*
X130602974Y-18236819D01*
X130664297Y-18203334D01*
X130690655Y-18200500D01*
X130752455Y-18200500D01*
X130752457Y-18200500D01*
X130905184Y-18159577D01*
X131042116Y-18080520D01*
X131153920Y-17968716D01*
X131232977Y-17831784D01*
X131273900Y-17679057D01*
X131273900Y-17520943D01*
X131232977Y-17368216D01*
X131211308Y-17330684D01*
X131153924Y-17231290D01*
X131153918Y-17231282D01*
X131094195Y-17171559D01*
X132569999Y-17171559D01*
X132594017Y-17292300D01*
X132594020Y-17292310D01*
X132641128Y-17406041D01*
X132641135Y-17406054D01*
X132709530Y-17508413D01*
X132709533Y-17508417D01*
X132796582Y-17595466D01*
X132796586Y-17595469D01*
X132898945Y-17663864D01*
X132898958Y-17663871D01*
X133012689Y-17710979D01*
X133012699Y-17710982D01*
X133133440Y-17735000D01*
X133256559Y-17735000D01*
X133377300Y-17710982D01*
X133377310Y-17710979D01*
X133491041Y-17663871D01*
X133491054Y-17663864D01*
X133593413Y-17595469D01*
X133593417Y-17595466D01*
X133680466Y-17508417D01*
X133680469Y-17508413D01*
X133748864Y-17406054D01*
X133748871Y-17406041D01*
X133795979Y-17292310D01*
X133795982Y-17292300D01*
X133820000Y-17171559D01*
X133820000Y-17048440D01*
X133795982Y-16927699D01*
X133795979Y-16927689D01*
X133748871Y-16813958D01*
X133748864Y-16813945D01*
X133680469Y-16711586D01*
X133680466Y-16711582D01*
X133593417Y-16624533D01*
X133593413Y-16624530D01*
X133491054Y-16556135D01*
X133491041Y-16556128D01*
X133377310Y-16509020D01*
X133377300Y-16509017D01*
X133256559Y-16485000D01*
X133133441Y-16485000D01*
X133012699Y-16509017D01*
X133012689Y-16509020D01*
X132898958Y-16556128D01*
X132898945Y-16556135D01*
X132796586Y-16624530D01*
X132796582Y-16624533D01*
X132709533Y-16711582D01*
X132709530Y-16711586D01*
X132641135Y-16813945D01*
X132641128Y-16813958D01*
X132594020Y-16927689D01*
X132594017Y-16927699D01*
X132570000Y-17048440D01*
X132570000Y-17171559D01*
X132569999Y-17171559D01*
X131094195Y-17171559D01*
X131042117Y-17119481D01*
X131042109Y-17119475D01*
X130905190Y-17040426D01*
X130905186Y-17040424D01*
X130905184Y-17040423D01*
X130752457Y-16999500D01*
X130594343Y-16999500D01*
X130441616Y-17040423D01*
X130441609Y-17040426D01*
X130304690Y-17119475D01*
X130304682Y-17119481D01*
X130192881Y-17231282D01*
X130192875Y-17231290D01*
X130113826Y-17368209D01*
X130113823Y-17368216D01*
X130072900Y-17520943D01*
X130072900Y-17582745D01*
X130053215Y-17649784D01*
X130036581Y-17670426D01*
X129739322Y-17967684D01*
X129739320Y-17967687D01*
X129686593Y-18059010D01*
X129671322Y-18116005D01*
X129659300Y-18160869D01*
X129659300Y-21956202D01*
X129639615Y-22023241D01*
X129622981Y-22043883D01*
X129579281Y-22087582D01*
X129579275Y-22087590D01*
X129500226Y-22224509D01*
X129500223Y-22224516D01*
X129459300Y-22377243D01*
X110541936Y-22377243D01*
X99211874Y-11047181D01*
X99178389Y-10985858D01*
X99183373Y-10916166D01*
X99225245Y-10860233D01*
X99290709Y-10835816D01*
X99299555Y-10835500D01*
X106094525Y-10835500D01*
X106094527Y-10835500D01*
X106196388Y-10808207D01*
X106287713Y-10755480D01*
X107577374Y-9465819D01*
X107604301Y-9451115D01*
X107630120Y-9434523D01*
X107636320Y-9433631D01*
X107638697Y-9432334D01*
X107665055Y-9429500D01*
X107697909Y-9429500D01*
X107764948Y-9449185D01*
X107810703Y-9501989D01*
X107820647Y-9571147D01*
X107817685Y-9585584D01*
X107817000Y-9588143D01*
X107817000Y-9746257D01*
X107854317Y-9885524D01*
X107857923Y-9898983D01*
X107857926Y-9898990D01*
X107936975Y-10035909D01*
X107936979Y-10035914D01*
X107936980Y-10035916D01*
X108048784Y-10147720D01*
X108048786Y-10147721D01*
X108048790Y-10147724D01*
X108185709Y-10226773D01*
X108185716Y-10226777D01*
X108338443Y-10267700D01*
X108400245Y-10267700D01*
X108467284Y-10287385D01*
X108487926Y-10304019D01*
X110615481Y-12431574D01*
X110648966Y-12492897D01*
X110651800Y-12519255D01*
X110651800Y-17499902D01*
X110632115Y-17566941D01*
X110615481Y-17587583D01*
X110571781Y-17631282D01*
X110571775Y-17631290D01*
X110492726Y-17768209D01*
X110492723Y-17768216D01*
X110451800Y-17920943D01*
X110451800Y-18079057D01*
X110484341Y-18200500D01*
X110492723Y-18231783D01*
X110492726Y-18231790D01*
X110571775Y-18368709D01*
X110571779Y-18368714D01*
X110571780Y-18368716D01*
X110683584Y-18480520D01*
X110683586Y-18480521D01*
X110683590Y-18480524D01*
X110749229Y-18518420D01*
X110820516Y-18559577D01*
X110973243Y-18600500D01*
X110973245Y-18600500D01*
X111131355Y-18600500D01*
X111131357Y-18600500D01*
X111284084Y-18559577D01*
X111421016Y-18480520D01*
X111532820Y-18368716D01*
X111611877Y-18231784D01*
X111652800Y-18079057D01*
X111652800Y-17920943D01*
X111611877Y-17768216D01*
X111588128Y-17727081D01*
X111532824Y-17631290D01*
X111532818Y-17631282D01*
X111489119Y-17587583D01*
X111455634Y-17526260D01*
X111452800Y-17499902D01*
X111452800Y-12249275D01*
X111452800Y-12249273D01*
X111425507Y-12147413D01*
X111425507Y-12147412D01*
X111372780Y-12056087D01*
X109054319Y-9737626D01*
X109041067Y-9713357D01*
X109024953Y-9690883D01*
X109023218Y-9680669D01*
X109020834Y-9676303D01*
X109018160Y-9656248D01*
X109018000Y-9653104D01*
X109018000Y-9588143D01*
X109013918Y-9572909D01*
X109013251Y-9559803D01*
X109018446Y-9538077D01*
X109018978Y-9515747D01*
X109026416Y-9504756D01*
X109029503Y-9491850D01*
X109045618Y-9476383D01*
X109058139Y-9457883D01*
X109070338Y-9452658D01*
X109079912Y-9443470D01*
X109101830Y-9439171D01*
X109122366Y-9430377D01*
X109137091Y-9429500D01*
X112327533Y-9429500D01*
X112394572Y-9449185D01*
X112440327Y-9501989D01*
X112447308Y-9521406D01*
X112478223Y-9636785D01*
X112478226Y-9636790D01*
X112557275Y-9773709D01*
X112557279Y-9773714D01*
X112557280Y-9773716D01*
X112669084Y-9885520D01*
X112669086Y-9885521D01*
X112669090Y-9885524D01*
X112806009Y-9964573D01*
X112806016Y-9964577D01*
X112958743Y-10005500D01*
X112958745Y-10005500D01*
X113116855Y-10005500D01*
X113116857Y-10005500D01*
X113269584Y-9964577D01*
X113406516Y-9885520D01*
X113518320Y-9773716D01*
X113597377Y-9636784D01*
X113638300Y-9484057D01*
X113638300Y-9325943D01*
X113597377Y-9173216D01*
X113591583Y-9163181D01*
X113518324Y-9036290D01*
X113518318Y-9036282D01*
X113406517Y-8924481D01*
X113406509Y-8924475D01*
X113269590Y-8845426D01*
X113269586Y-8845424D01*
X113269584Y-8845423D01*
X113116857Y-8804500D01*
X113116856Y-8804500D01*
X113055055Y-8804500D01*
X113025614Y-8795855D01*
X112995628Y-8789332D01*
X112990612Y-8785577D01*
X112988016Y-8784815D01*
X112967374Y-8768181D01*
X112908245Y-8709052D01*
X112874760Y-8647729D01*
X112879744Y-8578037D01*
X112908244Y-8533691D01*
X112938220Y-8503716D01*
X113017277Y-8366784D01*
X113058200Y-8214057D01*
X113058200Y-8055943D01*
X113017277Y-7903216D01*
X113017273Y-7903209D01*
X112938224Y-7766290D01*
X112938218Y-7766282D01*
X112826417Y-7654481D01*
X112826412Y-7654477D01*
X112737032Y-7602874D01*
X112688817Y-7552307D01*
X112675593Y-7483700D01*
X112701561Y-7418835D01*
X112737029Y-7388101D01*
X112822216Y-7338920D01*
X112934020Y-7227116D01*
X113013077Y-7090184D01*
X113054000Y-6937457D01*
X113054000Y-6779343D01*
X113013077Y-6626616D01*
X112964945Y-6543248D01*
X112934024Y-6489690D01*
X112934018Y-6489682D01*
X112829366Y-6385030D01*
X112795881Y-6323707D01*
X112800865Y-6254015D01*
X112842737Y-6198082D01*
X112884949Y-6177576D01*
X112970784Y-6154577D01*
X113107716Y-6075520D01*
X113218293Y-5964942D01*
X113279612Y-5931460D01*
X113349304Y-5936444D01*
X113393652Y-5964945D01*
X114308681Y-6879974D01*
X114342166Y-6941297D01*
X114345000Y-6967655D01*
X114345000Y-15793402D01*
X114325315Y-15860441D01*
X114308681Y-15881083D01*
X114264981Y-15924782D01*
X114264975Y-15924790D01*
X114185926Y-16061709D01*
X114185923Y-16061716D01*
X114145000Y-16214443D01*
X114145000Y-16372557D01*
X114184506Y-16519993D01*
X114185923Y-16525283D01*
X114185926Y-16525290D01*
X114264975Y-16662209D01*
X114264979Y-16662214D01*
X114264980Y-16662216D01*
X114376784Y-16774020D01*
X114376786Y-16774021D01*
X114376790Y-16774024D01*
X114508012Y-16849784D01*
X114513716Y-16853077D01*
X114666443Y-16894000D01*
X114666445Y-16894000D01*
X114824555Y-16894000D01*
X114824557Y-16894000D01*
X114977284Y-16853077D01*
X115114216Y-16774020D01*
X115226020Y-16662216D01*
X115305077Y-16525284D01*
X115346000Y-16372557D01*
X115346000Y-16214443D01*
X115305077Y-16061716D01*
X115303842Y-16059577D01*
X115226024Y-15924790D01*
X115226018Y-15924782D01*
X115182319Y-15881083D01*
X115148834Y-15819760D01*
X115146000Y-15793402D01*
X115146000Y-6697675D01*
X115146000Y-6697673D01*
X115118707Y-6595813D01*
X115065980Y-6504487D01*
X114991413Y-6429920D01*
X113440204Y-4878711D01*
X133149500Y-4878711D01*
X133149500Y-5121288D01*
X133178248Y-5339660D01*
X133181162Y-5361789D01*
X133187898Y-5386929D01*
X133243947Y-5596104D01*
X133289306Y-5705609D01*
X133336776Y-5820212D01*
X133458064Y-6030289D01*
X133458066Y-6030292D01*
X133458067Y-6030293D01*
X133605733Y-6222736D01*
X133605739Y-6222743D01*
X133777256Y-6394260D01*
X133777263Y-6394266D01*
X133832224Y-6436439D01*
X133969711Y-6541936D01*
X134179788Y-6663224D01*
X134403900Y-6756054D01*
X134638211Y-6818838D01*
X134818586Y-6842584D01*
X134878711Y-6850500D01*
X134878712Y-6850500D01*
X135121289Y-6850500D01*
X135169388Y-6844167D01*
X135361789Y-6818838D01*
X135596100Y-6756054D01*
X135820212Y-6663224D01*
X136030289Y-6541936D01*
X136222738Y-6394265D01*
X136394265Y-6222738D01*
X136541936Y-6030289D01*
X136663224Y-5820212D01*
X136756054Y-5596100D01*
X136818838Y-5361789D01*
X136850500Y-5121288D01*
X136850500Y-4878712D01*
X136818838Y-4638211D01*
X136756054Y-4403900D01*
X136755711Y-4403073D01*
X136733263Y-4348877D01*
X136663224Y-4179788D01*
X136541936Y-3969711D01*
X136481018Y-3890321D01*
X136394266Y-3777263D01*
X136394260Y-3777256D01*
X136222743Y-3605739D01*
X136222736Y-3605733D01*
X136030293Y-3458067D01*
X136030292Y-3458066D01*
X136030289Y-3458064D01*
X135820212Y-3336776D01*
X135820205Y-3336773D01*
X135596104Y-3243947D01*
X135361785Y-3181161D01*
X135121289Y-3149500D01*
X135121288Y-3149500D01*
X134878712Y-3149500D01*
X134878711Y-3149500D01*
X134638214Y-3181161D01*
X134403895Y-3243947D01*
X134179794Y-3336773D01*
X134179785Y-3336777D01*
X133969706Y-3458067D01*
X133777263Y-3605733D01*
X133777256Y-3605739D01*
X133605739Y-3777256D01*
X133605733Y-3777263D01*
X133458067Y-3969706D01*
X133336777Y-4179785D01*
X133336773Y-4179794D01*
X133243947Y-4403895D01*
X133181161Y-4638214D01*
X133149500Y-4878711D01*
X113440204Y-4878711D01*
X113162913Y-4601420D01*
X113117250Y-4575056D01*
X113071589Y-4548693D01*
X113020657Y-4535046D01*
X112969727Y-4521400D01*
X112969726Y-4521400D01*
X108574499Y-4521400D01*
X108507460Y-4501715D01*
X108461705Y-4448911D01*
X108450499Y-4397400D01*
X108450499Y-4348877D01*
X108450498Y-4348876D01*
X108447600Y-4306111D01*
X108401641Y-4121307D01*
X108368786Y-4055061D01*
X108317032Y-3950707D01*
X108317030Y-3950704D01*
X108197722Y-3802278D01*
X108197721Y-3802277D01*
X108049295Y-3682969D01*
X108049292Y-3682967D01*
X107878697Y-3598360D01*
X107693892Y-3552400D01*
X107672506Y-3550950D01*
X107651123Y-3549500D01*
X107651120Y-3549500D01*
X106348877Y-3549500D01*
X106348874Y-3549501D01*
X106306113Y-3552399D01*
X106306112Y-3552399D01*
X106121303Y-3598360D01*
X105950707Y-3682967D01*
X105950704Y-3682969D01*
X105802278Y-3802277D01*
X105802277Y-3802278D01*
X105682969Y-3950704D01*
X105682967Y-3950707D01*
X105598360Y-4121302D01*
X105552400Y-4306107D01*
X105549500Y-4348879D01*
X105549500Y-5651122D01*
X105549501Y-5651125D01*
X105552399Y-5693886D01*
X105552399Y-5693887D01*
X105598360Y-5878696D01*
X105682967Y-6049292D01*
X105682969Y-6049295D01*
X105802277Y-6197721D01*
X105802278Y-6197722D01*
X105851581Y-6237353D01*
X105891500Y-6294696D01*
X105894080Y-6364518D01*
X105858501Y-6424651D01*
X105796061Y-6456003D01*
X105773894Y-6458000D01*
X104342607Y-6458000D01*
X104275568Y-6438315D01*
X104229813Y-6385511D01*
X104219869Y-6316353D01*
X104248894Y-6252797D01*
X104269721Y-6233682D01*
X104285097Y-6222510D01*
X104444937Y-6106379D01*
X104606379Y-5944937D01*
X104740579Y-5760228D01*
X104844231Y-5556799D01*
X104914784Y-5339660D01*
X104923783Y-5282842D01*
X104950500Y-5114162D01*
X104950500Y-4885837D01*
X104914784Y-4660339D01*
X104844229Y-4443196D01*
X104740578Y-4239771D01*
X104697002Y-4179794D01*
X104606379Y-4055063D01*
X104444937Y-3893621D01*
X104260228Y-3759421D01*
X104056803Y-3655770D01*
X103839660Y-3585215D01*
X103614162Y-3549500D01*
X103614157Y-3549500D01*
X103385843Y-3549500D01*
X103385838Y-3549500D01*
X103160339Y-3585215D01*
X102943196Y-3655770D01*
X102739771Y-3759421D01*
X102555061Y-3893622D01*
X102393622Y-4055061D01*
X102259421Y-4239771D01*
X102155770Y-4443196D01*
X102085215Y-4660339D01*
X102049500Y-4885837D01*
X102049500Y-5114162D01*
X102085215Y-5339660D01*
X102155770Y-5556803D01*
X102225620Y-5693890D01*
X102259421Y-5760228D01*
X102393621Y-5944937D01*
X102555063Y-6106379D01*
X102680785Y-6197722D01*
X102730279Y-6233682D01*
X102772944Y-6289013D01*
X102778923Y-6358626D01*
X102746317Y-6420421D01*
X102685478Y-6454778D01*
X102657393Y-6458000D01*
X101011885Y-6458000D01*
X100944846Y-6438315D01*
X100899091Y-6385511D01*
X100889147Y-6316353D01*
X100918172Y-6252797D01*
X100939000Y-6233682D01*
X100945856Y-6228700D01*
X100945857Y-6228699D01*
X100259915Y-5542757D01*
X100368408Y-5480119D01*
X100480119Y-5368408D01*
X100542757Y-5259915D01*
X101228698Y-5945857D01*
X101228699Y-5945856D01*
X101325678Y-5812377D01*
X101436439Y-5594998D01*
X101511834Y-5362959D01*
X101550000Y-5121993D01*
X101550000Y-4878006D01*
X101511834Y-4637040D01*
X101436439Y-4405001D01*
X101325676Y-4187619D01*
X101228700Y-4054142D01*
X101228699Y-4054141D01*
X100542757Y-4740083D01*
X100480119Y-4631592D01*
X100368408Y-4519881D01*
X100259915Y-4457242D01*
X100945856Y-3771299D01*
X100945856Y-3771298D01*
X100812380Y-3674323D01*
X100594998Y-3563560D01*
X100362959Y-3488165D01*
X100121993Y-3450000D01*
X99878007Y-3450000D01*
X99637040Y-3488165D01*
X99405001Y-3563560D01*
X99187626Y-3674319D01*
X99054142Y-3771299D01*
X99740085Y-4457242D01*
X99631592Y-4519881D01*
X99519881Y-4631592D01*
X99457242Y-4740084D01*
X98771299Y-4054142D01*
X98674319Y-4187626D01*
X98563560Y-4405001D01*
X98488165Y-4637040D01*
X98450000Y-4878006D01*
X98450000Y-5121993D01*
X98488165Y-5362959D01*
X98532135Y-5498281D01*
X98534130Y-5568123D01*
X98498050Y-5627956D01*
X98435349Y-5658784D01*
X98414204Y-5660600D01*
X98338243Y-5660600D01*
X98185516Y-5701523D01*
X98185509Y-5701526D01*
X98048590Y-5780575D01*
X98048582Y-5780581D01*
X97936781Y-5892382D01*
X97936775Y-5892390D01*
X97857726Y-6029309D01*
X97857723Y-6029316D01*
X97816800Y-6182043D01*
X97816800Y-6243845D01*
X97797115Y-6310884D01*
X97780481Y-6331526D01*
X84663881Y-19448126D01*
X84644444Y-19458738D01*
X84627711Y-19473239D01*
X84614379Y-19475155D01*
X84602558Y-19481611D01*
X84580471Y-19480031D01*
X84558553Y-19483183D01*
X84546301Y-19477587D01*
X84532866Y-19476627D01*
X84515139Y-19463356D01*
X84494997Y-19454158D01*
X84487714Y-19442826D01*
X84476933Y-19434755D01*
X84469195Y-19414009D01*
X84457223Y-19395380D01*
X84454071Y-19373461D01*
X84452516Y-19369291D01*
X84452200Y-19360445D01*
X84452200Y-19278329D01*
X84452201Y-19278316D01*
X84452201Y-19162876D01*
X84452201Y-19162874D01*
X84424907Y-19061013D01*
X84414565Y-19043100D01*
X84372180Y-18969687D01*
X84297613Y-18895120D01*
X84297612Y-18895119D01*
X84293282Y-18890789D01*
X84293271Y-18890779D01*
X78701374Y-13298881D01*
X78667889Y-13237558D01*
X78672873Y-13167866D01*
X78714745Y-13111933D01*
X78780209Y-13087516D01*
X78789055Y-13087200D01*
X80588145Y-13087200D01*
X80655184Y-13106885D01*
X80675826Y-13123519D01*
X83847281Y-16294974D01*
X83880766Y-16356297D01*
X83883600Y-16382655D01*
X83883600Y-16444457D01*
X83914688Y-16560477D01*
X83924523Y-16597183D01*
X83924526Y-16597190D01*
X84003575Y-16734109D01*
X84003579Y-16734114D01*
X84003580Y-16734116D01*
X84115384Y-16845920D01*
X84115386Y-16845921D01*
X84115390Y-16845924D01*
X84208108Y-16899454D01*
X84252316Y-16924977D01*
X84405043Y-16965900D01*
X84405045Y-16965900D01*
X84563154Y-16965900D01*
X84563157Y-16965900D01*
X84713737Y-16925552D01*
X84783585Y-16927215D01*
X84833510Y-16957646D01*
X84918684Y-17042820D01*
X84918686Y-17042821D01*
X84918690Y-17042824D01*
X85051464Y-17119480D01*
X85055616Y-17121877D01*
X85208343Y-17162800D01*
X85208345Y-17162800D01*
X85366455Y-17162800D01*
X85366457Y-17162800D01*
X85519184Y-17121877D01*
X85656116Y-17042820D01*
X85767920Y-16931016D01*
X85846977Y-16794084D01*
X85887900Y-16641357D01*
X85887900Y-16483243D01*
X85846977Y-16330516D01*
X85779963Y-16214443D01*
X85767924Y-16193590D01*
X85767918Y-16193582D01*
X85656118Y-16081782D01*
X85656116Y-16081780D01*
X85656113Y-16081778D01*
X85656109Y-16081775D01*
X85647760Y-16076955D01*
X85611386Y-16045056D01*
X85607880Y-16040487D01*
X81505315Y-11937922D01*
X81505313Y-11937920D01*
X81459650Y-11911556D01*
X81413989Y-11885193D01*
X81363057Y-11871546D01*
X81312127Y-11857900D01*
X73132327Y-11857900D01*
X73026873Y-11857900D01*
X72925010Y-11885193D01*
X72833687Y-11937920D01*
X72833684Y-11937922D01*
X71521026Y-13250581D01*
X71459703Y-13284066D01*
X71433345Y-13286900D01*
X71371543Y-13286900D01*
X71218816Y-13327823D01*
X71218809Y-13327826D01*
X71081890Y-13406875D01*
X71081882Y-13406881D01*
X70970081Y-13518682D01*
X70970075Y-13518690D01*
X70891026Y-13655609D01*
X70891023Y-13655616D01*
X70850100Y-13808343D01*
X70850100Y-13966457D01*
X70867029Y-14029635D01*
X70891023Y-14119183D01*
X70891026Y-14119190D01*
X70970075Y-14256109D01*
X70970079Y-14256114D01*
X70970080Y-14256116D01*
X71081884Y-14367920D01*
X71081886Y-14367921D01*
X71081890Y-14367924D01*
X71153721Y-14409395D01*
X71218816Y-14446977D01*
X71325266Y-14475500D01*
X71384923Y-14511862D01*
X71415453Y-14574709D01*
X71407159Y-14644085D01*
X71380851Y-14682954D01*
X58719522Y-27344284D01*
X58719520Y-27344287D01*
X58666791Y-27435614D01*
X58649751Y-27499214D01*
X58639500Y-27537471D01*
X58639500Y-28836840D01*
X58619815Y-28903879D01*
X58571795Y-28947325D01*
X58437002Y-29016006D01*
X58290505Y-29122441D01*
X58290500Y-29122445D01*
X58162445Y-29250500D01*
X58162441Y-29250505D01*
X58056006Y-29397002D01*
X57973787Y-29558363D01*
X57972517Y-29561431D01*
X57971721Y-29562417D01*
X57971577Y-29562702D01*
X57971517Y-29562671D01*
X57971267Y-29562981D01*
X57970993Y-29564955D01*
X57949442Y-29590064D01*
X57928676Y-29615834D01*
X57926785Y-29616463D01*
X57925488Y-29617975D01*
X57893775Y-29627450D01*
X57862382Y-29637899D01*
X57859848Y-29637586D01*
X57858543Y-29637977D01*
X57851020Y-29636499D01*
X57823584Y-29633119D01*
X57810911Y-29629463D01*
X57806287Y-29626793D01*
X57741279Y-29609374D01*
X57740127Y-29609042D01*
X57711594Y-29590895D01*
X57682745Y-29573310D01*
X57682208Y-29572205D01*
X57681171Y-29571546D01*
X57666975Y-29540846D01*
X57652216Y-29510463D01*
X57652059Y-29508589D01*
X57651846Y-29508128D01*
X57651955Y-29507341D01*
X57650499Y-29489901D01*
X57650499Y-29105143D01*
X57650499Y-29105136D01*
X57650497Y-29105117D01*
X57647586Y-29080012D01*
X57647585Y-29080010D01*
X57647585Y-29080009D01*
X57602206Y-28977235D01*
X57522765Y-28897794D01*
X57518876Y-28896077D01*
X57419992Y-28852415D01*
X57394865Y-28849500D01*
X55605143Y-28849500D01*
X55605117Y-28849502D01*
X55580012Y-28852413D01*
X55580008Y-28852415D01*
X55477235Y-28897793D01*
X55477234Y-28897794D01*
X55465581Y-28909448D01*
X55404258Y-28942933D01*
X55334566Y-28937949D01*
X55278633Y-28896077D01*
X55254216Y-28830613D01*
X55253900Y-28821767D01*
X55253900Y-21613855D01*
X55273585Y-21546816D01*
X55290219Y-21526174D01*
X55645913Y-21170480D01*
X56004080Y-20812312D01*
X56065401Y-20778829D01*
X56135092Y-20783813D01*
X56191026Y-20825684D01*
X56215443Y-20891149D01*
X56209690Y-20938313D01*
X56180778Y-21027293D01*
X56180778Y-21027294D01*
X56150000Y-21221617D01*
X56150000Y-21418382D01*
X56180778Y-21612705D01*
X56241581Y-21799835D01*
X56330904Y-21975143D01*
X56386076Y-22051079D01*
X56386076Y-22051080D01*
X56931980Y-21505175D01*
X56934075Y-21512993D01*
X56999901Y-21627007D01*
X57092993Y-21720099D01*
X57207007Y-21785925D01*
X57214822Y-21788019D01*
X56668918Y-22333922D01*
X56744856Y-22389095D01*
X56922315Y-22479515D01*
X56973111Y-22527489D01*
X56989906Y-22595310D01*
X56967369Y-22661445D01*
X56922315Y-22700485D01*
X56744855Y-22790905D01*
X56744846Y-22790911D01*
X56668919Y-22846075D01*
X56668918Y-22846076D01*
X57214823Y-23391980D01*
X57207007Y-23394075D01*
X57092993Y-23459901D01*
X56999901Y-23552993D01*
X56934075Y-23667007D01*
X56931980Y-23674822D01*
X56386076Y-23128918D01*
X56386075Y-23128919D01*
X56330911Y-23204846D01*
X56330905Y-23204855D01*
X56241581Y-23380164D01*
X56180778Y-23567294D01*
X56150000Y-23761617D01*
X56150000Y-23958382D01*
X56180778Y-24152705D01*
X56241581Y-24339835D01*
X56330904Y-24515143D01*
X56386076Y-24591079D01*
X56386077Y-24591080D01*
X56931980Y-24045176D01*
X56934075Y-24052993D01*
X56999901Y-24167007D01*
X57092993Y-24260099D01*
X57207007Y-24325925D01*
X57214822Y-24328019D01*
X56668918Y-24873922D01*
X56744856Y-24929095D01*
X56922315Y-25019515D01*
X56973111Y-25067489D01*
X56989906Y-25135310D01*
X56967369Y-25201445D01*
X56922315Y-25240485D01*
X56744855Y-25330905D01*
X56744846Y-25330911D01*
X56668919Y-25386075D01*
X56668918Y-25386076D01*
X57214823Y-25931980D01*
X57207007Y-25934075D01*
X57092993Y-25999901D01*
X56999901Y-26092993D01*
X56934075Y-26207007D01*
X56931980Y-26214822D01*
X56386076Y-25668918D01*
X56386075Y-25668919D01*
X56330911Y-25744846D01*
X56330905Y-25744855D01*
X56241581Y-25920164D01*
X56180778Y-26107294D01*
X56150000Y-26301617D01*
X56150000Y-26498382D01*
X56180778Y-26692705D01*
X56241581Y-26879835D01*
X56330904Y-27055143D01*
X56386076Y-27131079D01*
X56386077Y-27131080D01*
X56931980Y-26585176D01*
X56934075Y-26592993D01*
X56999901Y-26707007D01*
X57092993Y-26800099D01*
X57207007Y-26865925D01*
X57214822Y-26868019D01*
X56668918Y-27413922D01*
X56744856Y-27469095D01*
X56920164Y-27558418D01*
X57107294Y-27619221D01*
X57301618Y-27650000D01*
X57498382Y-27650000D01*
X57692705Y-27619221D01*
X57879835Y-27558418D01*
X58055143Y-27469095D01*
X58131079Y-27413922D01*
X58131080Y-27413921D01*
X57585178Y-26868019D01*
X57592993Y-26865925D01*
X57707007Y-26800099D01*
X57800099Y-26707007D01*
X57865925Y-26592993D01*
X57868019Y-26585177D01*
X58413921Y-27131080D01*
X58413922Y-27131079D01*
X58469095Y-27055143D01*
X58558418Y-26879835D01*
X58619221Y-26692705D01*
X58650000Y-26498382D01*
X58650000Y-26301617D01*
X58619221Y-26107294D01*
X58558418Y-25920164D01*
X58469095Y-25744856D01*
X58413922Y-25668919D01*
X58413922Y-25668918D01*
X57868018Y-26214821D01*
X57865925Y-26207007D01*
X57800099Y-26092993D01*
X57707007Y-25999901D01*
X57592993Y-25934075D01*
X57585177Y-25931980D01*
X58131080Y-25386077D01*
X58131079Y-25386076D01*
X58055141Y-25330902D01*
X57877685Y-25240485D01*
X57826888Y-25192511D01*
X57810093Y-25124690D01*
X57832630Y-25058555D01*
X57877685Y-25019515D01*
X58055140Y-24929097D01*
X58055141Y-24929097D01*
X58131079Y-24873922D01*
X58131080Y-24873921D01*
X57585178Y-24328019D01*
X57592993Y-24325925D01*
X57707007Y-24260099D01*
X57800099Y-24167007D01*
X57865925Y-24052993D01*
X57868019Y-24045177D01*
X58413921Y-24591080D01*
X58413922Y-24591079D01*
X58469095Y-24515143D01*
X58558418Y-24339835D01*
X58619221Y-24152705D01*
X58650000Y-23958382D01*
X58650000Y-23761617D01*
X58619221Y-23567294D01*
X58558418Y-23380164D01*
X58469095Y-23204856D01*
X58413922Y-23128919D01*
X58413922Y-23128918D01*
X57868018Y-23674821D01*
X57865925Y-23667007D01*
X57800099Y-23552993D01*
X57707007Y-23459901D01*
X57592993Y-23394075D01*
X57585177Y-23391980D01*
X58131080Y-22846077D01*
X58131079Y-22846076D01*
X58055141Y-22790902D01*
X57877685Y-22700485D01*
X57826888Y-22652511D01*
X57810093Y-22584690D01*
X57832630Y-22518555D01*
X57877685Y-22479515D01*
X58055140Y-22389097D01*
X58055141Y-22389097D01*
X58131079Y-22333922D01*
X58131080Y-22333921D01*
X57585178Y-21788019D01*
X57592993Y-21785925D01*
X57707007Y-21720099D01*
X57800099Y-21627007D01*
X57865925Y-21512993D01*
X57868019Y-21505177D01*
X58413922Y-22051080D01*
X58413922Y-22051079D01*
X58469095Y-21975143D01*
X58558418Y-21799835D01*
X58619221Y-21612705D01*
X58650000Y-21418382D01*
X58650000Y-21221617D01*
X58619221Y-21027294D01*
X58558418Y-20840164D01*
X58469095Y-20664855D01*
X58456403Y-20647387D01*
X58432922Y-20581581D01*
X58448746Y-20513527D01*
X58498851Y-20464831D01*
X58556720Y-20450500D01*
X58752725Y-20450500D01*
X58752727Y-20450500D01*
X58854588Y-20423207D01*
X58945913Y-20370480D01*
X62097780Y-17218613D01*
X62108101Y-17200735D01*
X62127359Y-17167381D01*
X62127359Y-17167380D01*
X62150506Y-17127288D01*
X62150507Y-17127287D01*
X62177800Y-17025427D01*
X62177800Y-13785798D01*
X62197485Y-13718759D01*
X62214119Y-13698117D01*
X62257820Y-13654416D01*
X62336877Y-13517484D01*
X62377800Y-13364757D01*
X62377800Y-13206643D01*
X62336877Y-13053916D01*
X62336873Y-13053909D01*
X62257824Y-12916990D01*
X62257818Y-12916982D01*
X62146017Y-12805181D01*
X62146009Y-12805175D01*
X62009090Y-12726126D01*
X62009086Y-12726124D01*
X62009084Y-12726123D01*
X61856357Y-12685200D01*
X61698243Y-12685200D01*
X61545516Y-12726123D01*
X61545509Y-12726126D01*
X61408590Y-12805175D01*
X61408582Y-12805181D01*
X61296781Y-12916982D01*
X61296775Y-12916990D01*
X61217726Y-13053909D01*
X61217723Y-13053916D01*
X61176800Y-13206643D01*
X61176800Y-13364757D01*
X61188086Y-13406875D01*
X61217723Y-13517483D01*
X61217726Y-13517490D01*
X61296775Y-13654409D01*
X61296781Y-13654417D01*
X61340481Y-13698117D01*
X61373966Y-13759440D01*
X61376800Y-13785798D01*
X61376800Y-16755445D01*
X61357115Y-16822484D01*
X61340481Y-16843126D01*
X58570426Y-19613181D01*
X58543498Y-19627884D01*
X58517680Y-19644477D01*
X58511479Y-19645368D01*
X58509103Y-19646666D01*
X58482745Y-19649500D01*
X58433733Y-19649500D01*
X58366694Y-19629815D01*
X58320939Y-19577011D01*
X58310995Y-19507853D01*
X58333414Y-19452615D01*
X58383995Y-19382995D01*
X58383996Y-19382994D01*
X58466211Y-19221639D01*
X58522171Y-19049409D01*
X58546608Y-18895120D01*
X58550500Y-18870551D01*
X58550500Y-18689448D01*
X58530558Y-18563543D01*
X58522171Y-18510591D01*
X58485111Y-18396530D01*
X58466212Y-18338363D01*
X58466211Y-18338360D01*
X58431218Y-18269684D01*
X58383996Y-18177006D01*
X58340368Y-18116957D01*
X58277558Y-18030505D01*
X58277554Y-18030500D01*
X58236819Y-17989765D01*
X58203334Y-17928442D01*
X58200500Y-17902084D01*
X58200500Y-17117916D01*
X58220185Y-17050877D01*
X58236819Y-17030235D01*
X58254261Y-17012793D01*
X58277553Y-16989501D01*
X58383996Y-16842994D01*
X58466211Y-16681639D01*
X58522171Y-16509409D01*
X58542247Y-16382655D01*
X58550500Y-16330551D01*
X58550500Y-16149448D01*
X58523744Y-15980524D01*
X58522171Y-15970591D01*
X58466211Y-15798361D01*
X58466211Y-15798360D01*
X58432288Y-15731783D01*
X58383996Y-15637006D01*
X58341893Y-15579056D01*
X58277558Y-15490505D01*
X58277554Y-15490500D01*
X58236819Y-15449765D01*
X58203334Y-15388442D01*
X58200500Y-15362084D01*
X58200500Y-14971893D01*
X58220185Y-14904854D01*
X58272989Y-14859099D01*
X58310213Y-14848718D01*
X58319991Y-14847585D01*
X58422765Y-14802206D01*
X58502206Y-14722765D01*
X58547585Y-14619991D01*
X58550500Y-14594865D01*
X58550499Y-12805136D01*
X58550497Y-12805117D01*
X58547586Y-12780012D01*
X58547585Y-12780010D01*
X58547585Y-12780009D01*
X58502206Y-12677235D01*
X58422765Y-12597794D01*
X58366782Y-12573075D01*
X58319992Y-12552415D01*
X58294865Y-12549500D01*
X56505143Y-12549500D01*
X56505117Y-12549502D01*
X56480012Y-12552413D01*
X56480008Y-12552415D01*
X56386219Y-12593827D01*
X56316941Y-12602899D01*
X56253756Y-12573075D01*
X56248452Y-12568074D01*
X52058592Y-8378213D01*
X52058588Y-8378210D01*
X51927485Y-8290609D01*
X51927472Y-8290602D01*
X51781801Y-8230264D01*
X51781789Y-8230261D01*
X51627145Y-8199500D01*
X51627142Y-8199500D01*
X49505243Y-8199500D01*
X49347558Y-8199500D01*
X49347553Y-8199500D01*
X49192910Y-8230260D01*
X49192902Y-8230262D01*
X49159790Y-8243978D01*
X49090320Y-8251447D01*
X49027841Y-8220172D01*
X48992189Y-8160083D01*
X48994683Y-8090258D01*
X49024656Y-8041736D01*
X49801592Y-7264800D01*
X50606527Y-6459864D01*
X50667848Y-6426381D01*
X50724130Y-6427211D01*
X50806111Y-6447600D01*
X50848877Y-6450500D01*
X52151122Y-6450499D01*
X52193889Y-6447600D01*
X52378693Y-6401641D01*
X52549296Y-6317030D01*
X52697722Y-6197722D01*
X52817030Y-6049296D01*
X52901641Y-5878693D01*
X52947600Y-5693889D01*
X52950500Y-5651123D01*
X52950499Y-4885837D01*
X61549500Y-4885837D01*
X61549500Y-5114162D01*
X61585215Y-5339660D01*
X61655770Y-5556803D01*
X61725620Y-5693890D01*
X61759421Y-5760228D01*
X61893621Y-5944937D01*
X62055063Y-6106379D01*
X62239772Y-6240579D01*
X62314850Y-6278833D01*
X62443196Y-6344229D01*
X62443198Y-6344229D01*
X62443201Y-6344231D01*
X62505638Y-6364518D01*
X62660339Y-6414784D01*
X62885838Y-6450500D01*
X62885843Y-6450500D01*
X63114162Y-6450500D01*
X63339660Y-6414784D01*
X63353482Y-6410293D01*
X63556799Y-6344231D01*
X63622959Y-6310520D01*
X63691625Y-6297625D01*
X63756365Y-6323901D01*
X63766932Y-6333325D01*
X68809287Y-11375680D01*
X68900612Y-11428407D01*
X69002473Y-11455700D01*
X70999902Y-11455700D01*
X71066941Y-11475385D01*
X71087583Y-11492019D01*
X71131284Y-11535720D01*
X71131286Y-11535721D01*
X71131290Y-11535724D01*
X71249577Y-11604016D01*
X71268216Y-11614777D01*
X71420943Y-11655700D01*
X71420945Y-11655700D01*
X71579055Y-11655700D01*
X71579057Y-11655700D01*
X71731784Y-11614777D01*
X71868716Y-11535720D01*
X71980520Y-11423916D01*
X72059577Y-11286984D01*
X72100500Y-11134257D01*
X72100500Y-10976143D01*
X72059577Y-10823416D01*
X72050796Y-10808206D01*
X71980524Y-10686490D01*
X71980518Y-10686482D01*
X71868717Y-10574681D01*
X71868709Y-10574675D01*
X71731790Y-10495626D01*
X71731786Y-10495624D01*
X71731784Y-10495623D01*
X71579057Y-10454700D01*
X71420943Y-10454700D01*
X71268216Y-10495623D01*
X71268209Y-10495626D01*
X71131290Y-10574675D01*
X71131282Y-10574681D01*
X71087583Y-10618381D01*
X71026260Y-10651866D01*
X70999902Y-10654700D01*
X69272455Y-10654700D01*
X69205416Y-10635015D01*
X69184774Y-10618381D01*
X64333325Y-5766932D01*
X64299840Y-5705609D01*
X64304824Y-5635917D01*
X64310514Y-5622970D01*
X64344231Y-5556799D01*
X64414784Y-5339660D01*
X64423783Y-5282842D01*
X64450500Y-5114162D01*
X64450500Y-4885837D01*
X65049500Y-4885837D01*
X65049500Y-5114162D01*
X65085215Y-5339660D01*
X65155770Y-5556803D01*
X65225620Y-5693890D01*
X65259421Y-5760228D01*
X65393621Y-5944937D01*
X65555063Y-6106379D01*
X65739772Y-6240579D01*
X65943201Y-6344231D01*
X66013818Y-6367175D01*
X66071492Y-6406611D01*
X66098692Y-6470969D01*
X66099500Y-6485106D01*
X66099500Y-6638626D01*
X66126793Y-6740489D01*
X66149226Y-6779343D01*
X66179520Y-6831813D01*
X66179522Y-6831815D01*
X67142581Y-7794874D01*
X67176066Y-7856197D01*
X67178900Y-7882555D01*
X67178900Y-7944357D01*
X67208800Y-8055943D01*
X67219823Y-8097083D01*
X67219826Y-8097090D01*
X67298875Y-8234009D01*
X67298879Y-8234014D01*
X67298880Y-8234016D01*
X67410684Y-8345820D01*
X67410686Y-8345821D01*
X67410690Y-8345824D01*
X67547609Y-8424873D01*
X67547616Y-8424877D01*
X67700343Y-8465800D01*
X67700345Y-8465800D01*
X67858455Y-8465800D01*
X67858457Y-8465800D01*
X68011184Y-8424877D01*
X68148116Y-8345820D01*
X68259920Y-8234016D01*
X68338977Y-8097084D01*
X68379900Y-7944357D01*
X68379900Y-7786243D01*
X68338977Y-7633516D01*
X68321286Y-7602874D01*
X68259924Y-7496590D01*
X68259918Y-7496582D01*
X68148117Y-7384781D01*
X68148109Y-7384775D01*
X68011190Y-7305726D01*
X68011186Y-7305724D01*
X68011184Y-7305723D01*
X67858457Y-7264800D01*
X67858456Y-7264800D01*
X67796655Y-7264800D01*
X67729616Y-7245115D01*
X67708974Y-7228481D01*
X67023741Y-6543248D01*
X66990256Y-6481925D01*
X66995240Y-6412233D01*
X67037112Y-6356300D01*
X67055128Y-6345082D01*
X67056796Y-6344231D01*
X67056799Y-6344231D01*
X67260228Y-6240579D01*
X67444937Y-6106379D01*
X67606379Y-5944937D01*
X67740579Y-5760228D01*
X67844231Y-5556799D01*
X67914784Y-5339660D01*
X67923783Y-5282842D01*
X67950500Y-5114162D01*
X67950500Y-4885837D01*
X67914784Y-4660339D01*
X67844229Y-4443196D01*
X67823785Y-4403073D01*
X67796172Y-4348879D01*
X68549500Y-4348879D01*
X68549500Y-5651122D01*
X68549501Y-5651125D01*
X68552399Y-5693886D01*
X68552399Y-5693887D01*
X68598360Y-5878696D01*
X68682967Y-6049292D01*
X68682969Y-6049295D01*
X68802277Y-6197721D01*
X68802278Y-6197722D01*
X68950704Y-6317030D01*
X68950707Y-6317032D01*
X69121302Y-6401639D01*
X69121303Y-6401639D01*
X69121307Y-6401641D01*
X69306111Y-6447600D01*
X69348877Y-6450500D01*
X70651122Y-6450499D01*
X70693889Y-6447600D01*
X70878693Y-6401641D01*
X71049296Y-6317030D01*
X71197722Y-6197722D01*
X71317030Y-6049296D01*
X71401641Y-5878693D01*
X71447600Y-5693889D01*
X71450500Y-5651123D01*
X71450499Y-4878006D01*
X79950000Y-4878006D01*
X79950000Y-5121993D01*
X79988165Y-5362959D01*
X80063560Y-5594998D01*
X80174323Y-5812380D01*
X80271298Y-5945856D01*
X80271299Y-5945856D01*
X80957241Y-5259914D01*
X81019881Y-5368408D01*
X81131592Y-5480119D01*
X81240084Y-5542757D01*
X80554141Y-6228699D01*
X80554142Y-6228700D01*
X80687619Y-6325676D01*
X80905001Y-6436439D01*
X81137040Y-6511834D01*
X81378007Y-6550000D01*
X81621993Y-6550000D01*
X81862959Y-6511834D01*
X82094998Y-6436439D01*
X82312377Y-6325678D01*
X82445856Y-6228699D01*
X82445857Y-6228698D01*
X81759916Y-5542757D01*
X81868408Y-5480119D01*
X81980119Y-5368408D01*
X82042757Y-5259915D01*
X82728698Y-5945857D01*
X82728699Y-5945856D01*
X82825678Y-5812377D01*
X82936439Y-5594998D01*
X83011834Y-5362959D01*
X83050000Y-5121993D01*
X83050000Y-4885837D01*
X83549500Y-4885837D01*
X83549500Y-5114162D01*
X83585215Y-5339660D01*
X83655770Y-5556803D01*
X83725620Y-5693890D01*
X83759421Y-5760228D01*
X83893621Y-5944937D01*
X84055063Y-6106379D01*
X84239772Y-6240579D01*
X84314850Y-6278833D01*
X84443196Y-6344229D01*
X84443198Y-6344229D01*
X84443201Y-6344231D01*
X84505638Y-6364518D01*
X84660339Y-6414784D01*
X84885838Y-6450500D01*
X84885843Y-6450500D01*
X85114162Y-6450500D01*
X85339660Y-6414784D01*
X85364814Y-6406611D01*
X85556799Y-6344231D01*
X85760228Y-6240579D01*
X85944937Y-6106379D01*
X86106379Y-5944937D01*
X86240579Y-5760228D01*
X86344231Y-5556799D01*
X86414784Y-5339660D01*
X86423783Y-5282842D01*
X86450500Y-5114162D01*
X86450500Y-4885837D01*
X86414784Y-4660339D01*
X86344229Y-4443196D01*
X86323785Y-4403073D01*
X86296172Y-4348879D01*
X87049500Y-4348879D01*
X87049500Y-5651122D01*
X87049501Y-5651125D01*
X87052399Y-5693886D01*
X87052399Y-5693887D01*
X87098360Y-5878696D01*
X87182967Y-6049292D01*
X87182969Y-6049295D01*
X87302277Y-6197721D01*
X87302278Y-6197722D01*
X87450704Y-6317030D01*
X87450707Y-6317032D01*
X87621302Y-6401639D01*
X87621303Y-6401639D01*
X87621307Y-6401641D01*
X87806111Y-6447600D01*
X87848877Y-6450500D01*
X89151122Y-6450499D01*
X89193889Y-6447600D01*
X89378693Y-6401641D01*
X89549296Y-6317030D01*
X89697722Y-6197722D01*
X89817030Y-6049296D01*
X89901641Y-5878693D01*
X89947600Y-5693889D01*
X89950500Y-5651123D01*
X89950499Y-4348878D01*
X89947600Y-4306111D01*
X89901641Y-4121307D01*
X89868786Y-4055061D01*
X89817033Y-3950709D01*
X89817031Y-3950707D01*
X89817030Y-3950704D01*
X89697722Y-3802278D01*
X89659183Y-3771299D01*
X89549295Y-3682969D01*
X89549292Y-3682967D01*
X89378697Y-3598360D01*
X89193892Y-3552400D01*
X89172506Y-3550950D01*
X89151123Y-3549500D01*
X89151120Y-3549500D01*
X87848877Y-3549500D01*
X87848874Y-3549501D01*
X87806113Y-3552399D01*
X87806112Y-3552399D01*
X87621303Y-3598360D01*
X87450707Y-3682967D01*
X87450704Y-3682969D01*
X87302278Y-3802277D01*
X87302277Y-3802278D01*
X87182969Y-3950704D01*
X87182967Y-3950707D01*
X87098360Y-4121302D01*
X87052400Y-4306107D01*
X87049500Y-4348879D01*
X86296172Y-4348879D01*
X86240578Y-4239771D01*
X86197002Y-4179794D01*
X86106379Y-4055063D01*
X85944937Y-3893621D01*
X85760228Y-3759421D01*
X85556803Y-3655770D01*
X85339660Y-3585215D01*
X85114162Y-3549500D01*
X85114157Y-3549500D01*
X84885843Y-3549500D01*
X84885838Y-3549500D01*
X84660339Y-3585215D01*
X84443196Y-3655770D01*
X84239771Y-3759421D01*
X84055061Y-3893622D01*
X83893622Y-4055061D01*
X83759421Y-4239771D01*
X83655770Y-4443196D01*
X83585215Y-4660339D01*
X83549500Y-4885837D01*
X83050000Y-4885837D01*
X83050000Y-4878006D01*
X83011834Y-4637040D01*
X82936439Y-4405001D01*
X82825676Y-4187619D01*
X82728700Y-4054142D01*
X82728699Y-4054141D01*
X82042757Y-4740083D01*
X81980119Y-4631592D01*
X81868408Y-4519881D01*
X81759915Y-4457242D01*
X82445856Y-3771299D01*
X82445856Y-3771298D01*
X82312380Y-3674323D01*
X82094998Y-3563560D01*
X81862959Y-3488165D01*
X81621993Y-3450000D01*
X81378007Y-3450000D01*
X81137040Y-3488165D01*
X80905001Y-3563560D01*
X80687626Y-3674319D01*
X80554142Y-3771299D01*
X81240085Y-4457242D01*
X81131592Y-4519881D01*
X81019881Y-4631592D01*
X80957242Y-4740085D01*
X80271299Y-4054142D01*
X80174319Y-4187626D01*
X80063560Y-4405001D01*
X79988165Y-4637040D01*
X79950000Y-4878006D01*
X71450499Y-4878006D01*
X71450499Y-4348878D01*
X71447600Y-4306111D01*
X71401641Y-4121307D01*
X71368786Y-4055061D01*
X71317033Y-3950709D01*
X71317031Y-3950707D01*
X71317030Y-3950704D01*
X71197722Y-3802278D01*
X71159183Y-3771299D01*
X71049295Y-3682969D01*
X71049292Y-3682967D01*
X70878697Y-3598360D01*
X70693892Y-3552400D01*
X70672506Y-3550950D01*
X70651123Y-3549500D01*
X70651120Y-3549500D01*
X69348877Y-3549500D01*
X69348874Y-3549501D01*
X69306113Y-3552399D01*
X69306112Y-3552399D01*
X69121303Y-3598360D01*
X68950707Y-3682967D01*
X68950704Y-3682969D01*
X68802278Y-3802277D01*
X68802277Y-3802278D01*
X68682969Y-3950704D01*
X68682967Y-3950707D01*
X68598360Y-4121302D01*
X68552400Y-4306107D01*
X68549500Y-4348879D01*
X67796172Y-4348879D01*
X67740578Y-4239771D01*
X67697002Y-4179794D01*
X67606379Y-4055063D01*
X67444937Y-3893621D01*
X67260228Y-3759421D01*
X67056803Y-3655770D01*
X66839660Y-3585215D01*
X66614162Y-3549500D01*
X66614157Y-3549500D01*
X66385843Y-3549500D01*
X66385838Y-3549500D01*
X66160339Y-3585215D01*
X65943196Y-3655770D01*
X65739771Y-3759421D01*
X65555061Y-3893622D01*
X65393622Y-4055061D01*
X65259421Y-4239771D01*
X65155770Y-4443196D01*
X65085215Y-4660339D01*
X65049500Y-4885837D01*
X64450500Y-4885837D01*
X64414784Y-4660339D01*
X64344229Y-4443196D01*
X64240578Y-4239771D01*
X64197002Y-4179794D01*
X64106379Y-4055063D01*
X63944937Y-3893621D01*
X63760228Y-3759421D01*
X63556803Y-3655770D01*
X63339660Y-3585215D01*
X63114162Y-3549500D01*
X63114157Y-3549500D01*
X62885843Y-3549500D01*
X62885838Y-3549500D01*
X62660339Y-3585215D01*
X62443196Y-3655770D01*
X62239771Y-3759421D01*
X62055061Y-3893622D01*
X61893622Y-4055061D01*
X61759421Y-4239771D01*
X61655770Y-4443196D01*
X61585215Y-4660339D01*
X61549500Y-4885837D01*
X52950499Y-4885837D01*
X52950499Y-4348878D01*
X52947600Y-4306111D01*
X52901641Y-4121307D01*
X52868786Y-4055061D01*
X52817032Y-3950707D01*
X52817030Y-3950704D01*
X52697722Y-3802278D01*
X52697721Y-3802277D01*
X52549295Y-3682969D01*
X52549292Y-3682967D01*
X52378697Y-3598360D01*
X52193892Y-3552400D01*
X52172506Y-3550950D01*
X52151123Y-3549500D01*
X52151120Y-3549500D01*
X50848877Y-3549500D01*
X50848874Y-3549501D01*
X50806113Y-3552399D01*
X50806112Y-3552399D01*
X50621303Y-3598360D01*
X50450707Y-3682967D01*
X50450704Y-3682969D01*
X50302278Y-3802277D01*
X50302277Y-3802278D01*
X50182969Y-3950704D01*
X50182967Y-3950707D01*
X50098360Y-4121302D01*
X50052400Y-4306107D01*
X50049500Y-4348879D01*
X50049500Y-5651122D01*
X50049501Y-5651125D01*
X50052399Y-5693886D01*
X50052400Y-5693890D01*
X50072786Y-5775867D01*
X50069862Y-5845676D01*
X50040132Y-5893473D01*
X35520426Y-20413181D01*
X35459103Y-20446666D01*
X35432745Y-20449500D01*
X29952669Y-20449500D01*
X29885630Y-20429815D01*
X29839875Y-20377011D01*
X29829931Y-20307853D01*
X29858956Y-20244297D01*
X29914351Y-20207569D01*
X30041636Y-20166212D01*
X30041639Y-20166211D01*
X30202994Y-20083996D01*
X30349501Y-19977553D01*
X30477553Y-19849501D01*
X30583996Y-19702994D01*
X30666211Y-19541639D01*
X30722171Y-19369409D01*
X30738181Y-19268327D01*
X30750500Y-19190551D01*
X30750500Y-19009448D01*
X30728499Y-18870546D01*
X30722171Y-18830591D01*
X30686777Y-18721657D01*
X30666212Y-18658363D01*
X30666211Y-18658360D01*
X30635187Y-18597473D01*
X30583996Y-18497006D01*
X30518325Y-18406617D01*
X30477558Y-18350505D01*
X30477554Y-18350500D01*
X30436819Y-18309765D01*
X30403334Y-18248442D01*
X30400500Y-18222084D01*
X30400500Y-16871893D01*
X30420185Y-16804854D01*
X30472989Y-16759099D01*
X30510213Y-16748718D01*
X30519991Y-16747585D01*
X30622765Y-16702206D01*
X30702206Y-16622765D01*
X30747585Y-16519991D01*
X30750500Y-16494865D01*
X30750499Y-14705136D01*
X30747927Y-14682954D01*
X30747586Y-14680012D01*
X30747585Y-14680010D01*
X30747585Y-14680009D01*
X30702206Y-14577235D01*
X30622765Y-14497794D01*
X30600357Y-14487900D01*
X30519992Y-14452415D01*
X30494865Y-14449500D01*
X28705143Y-14449500D01*
X28705117Y-14449502D01*
X28680012Y-14452413D01*
X28680008Y-14452415D01*
X28577235Y-14497793D01*
X28497794Y-14577234D01*
X28452415Y-14680006D01*
X28452415Y-14680008D01*
X28449500Y-14705131D01*
X28449500Y-16494856D01*
X28449502Y-16494882D01*
X28452413Y-16519987D01*
X28452415Y-16519991D01*
X28497793Y-16622764D01*
X28497794Y-16622765D01*
X28577235Y-16702206D01*
X28631436Y-16726138D01*
X28680006Y-16747584D01*
X28680009Y-16747585D01*
X28689786Y-16748719D01*
X28754111Y-16775996D01*
X28793478Y-16833720D01*
X28799500Y-16871893D01*
X28799500Y-18222084D01*
X28779815Y-18289123D01*
X28763181Y-18309765D01*
X28722445Y-18350500D01*
X28722441Y-18350505D01*
X28616006Y-18497002D01*
X28533788Y-18658360D01*
X28533787Y-18658363D01*
X28477829Y-18830589D01*
X28449500Y-19009448D01*
X28449500Y-19190551D01*
X28477829Y-19369410D01*
X28533787Y-19541636D01*
X28533788Y-19541639D01*
X28616006Y-19702997D01*
X28722441Y-19849494D01*
X28722445Y-19849499D01*
X28850500Y-19977554D01*
X28850505Y-19977558D01*
X28915931Y-20025092D01*
X28997006Y-20083996D01*
X29102484Y-20137740D01*
X29158360Y-20166211D01*
X29158363Y-20166212D01*
X29285649Y-20207569D01*
X29343324Y-20247006D01*
X29370523Y-20311364D01*
X29358609Y-20380211D01*
X29311365Y-20431687D01*
X29247331Y-20449500D01*
X25847273Y-20449500D01*
X25745410Y-20476793D01*
X25654087Y-20529520D01*
X25654084Y-20529522D01*
X19562181Y-26621426D01*
X19500858Y-26654911D01*
X19431166Y-26649927D01*
X19375233Y-26608055D01*
X19350816Y-26542591D01*
X19350500Y-26533745D01*
X19350500Y-26420945D01*
X19350500Y-26420943D01*
X19309577Y-26268216D01*
X19309573Y-26268209D01*
X19230524Y-26131290D01*
X19230518Y-26131282D01*
X19118717Y-26019481D01*
X19118709Y-26019475D01*
X18981790Y-25940426D01*
X18981786Y-25940424D01*
X18981784Y-25940423D01*
X18829057Y-25899500D01*
X18670943Y-25899500D01*
X18518216Y-25940423D01*
X18518209Y-25940426D01*
X18381290Y-26019475D01*
X18381282Y-26019481D01*
X18269481Y-26131282D01*
X18269475Y-26131290D01*
X18190426Y-26268209D01*
X18190423Y-26268216D01*
X18149500Y-26420943D01*
X18149500Y-26482745D01*
X18140855Y-26512185D01*
X18134332Y-26542172D01*
X18130577Y-26547187D01*
X18129815Y-26549784D01*
X18113181Y-26570426D01*
X17958526Y-26725081D01*
X17897203Y-26758566D01*
X17870845Y-26761400D01*
X4648439Y-26761400D01*
X4648423Y-26761399D01*
X4640827Y-26761399D01*
X4535373Y-26761399D01*
X4449210Y-26784487D01*
X4449209Y-26784486D01*
X4433516Y-26788692D01*
X4433510Y-26788694D01*
X4342185Y-26841421D01*
X4320426Y-26863181D01*
X4259103Y-26896666D01*
X4232745Y-26899500D01*
X4170943Y-26899500D01*
X4018216Y-26940423D01*
X4018209Y-26940426D01*
X3881290Y-27019475D01*
X3881282Y-27019481D01*
X3769481Y-27131282D01*
X3769475Y-27131290D01*
X3690426Y-27268209D01*
X3690423Y-27268216D01*
X3649500Y-27420943D01*
X500500Y-27420943D01*
X500500Y-18396530D01*
X3199500Y-18396530D01*
X3199500Y-18603469D01*
X3228905Y-18751296D01*
X3239870Y-18806420D01*
X3319059Y-18997598D01*
X3361429Y-19061010D01*
X3434024Y-19169657D01*
X3580342Y-19315975D01*
X3580345Y-19315977D01*
X3752402Y-19430941D01*
X3943580Y-19510130D01*
X4146530Y-19550499D01*
X4146534Y-19550500D01*
X4146535Y-19550500D01*
X8603466Y-19550500D01*
X8603467Y-19550499D01*
X8806420Y-19510130D01*
X8997598Y-19430941D01*
X9069356Y-19382994D01*
X9069358Y-19382993D01*
X9103103Y-19360445D01*
X9169655Y-19315977D01*
X9315977Y-19169655D01*
X9315977Y-19169653D01*
X9326185Y-19159446D01*
X9326186Y-19159443D01*
X10813313Y-17672319D01*
X10874636Y-17638834D01*
X10900994Y-17636000D01*
X24017966Y-17636000D01*
X24017967Y-17635999D01*
X24220920Y-17595630D01*
X24412098Y-17516441D01*
X24439996Y-17497800D01*
X24584155Y-17401477D01*
X24730477Y-17255155D01*
X24730478Y-17255152D01*
X24737544Y-17248087D01*
X24737546Y-17248083D01*
X30648812Y-11336819D01*
X30710135Y-11303334D01*
X30736493Y-11300500D01*
X33603466Y-11300500D01*
X33603467Y-11300499D01*
X33806420Y-11260130D01*
X33997598Y-11180941D01*
X34014611Y-11169572D01*
X34020257Y-11165801D01*
X34063420Y-11136960D01*
X34169655Y-11065977D01*
X34315977Y-10919655D01*
X34315977Y-10919653D01*
X34326185Y-10909446D01*
X34326186Y-10909443D01*
X37315977Y-7919655D01*
X37430942Y-7747598D01*
X37510130Y-7556420D01*
X37550501Y-7353465D01*
X37550501Y-7146535D01*
X37550501Y-7141425D01*
X37550500Y-7141399D01*
X37550500Y-6375481D01*
X37570185Y-6308442D01*
X37596807Y-6278839D01*
X37697722Y-6197722D01*
X37817030Y-6049296D01*
X37901641Y-5878693D01*
X37947600Y-5693889D01*
X37950500Y-5651123D01*
X37950499Y-4878006D01*
X46450000Y-4878006D01*
X46450000Y-5121993D01*
X46488165Y-5362959D01*
X46563560Y-5594998D01*
X46674323Y-5812380D01*
X46771298Y-5945856D01*
X46771299Y-5945856D01*
X47457241Y-5259914D01*
X47519881Y-5368408D01*
X47631592Y-5480119D01*
X47740084Y-5542757D01*
X47054141Y-6228699D01*
X47054142Y-6228700D01*
X47187619Y-6325676D01*
X47405001Y-6436439D01*
X47637040Y-6511834D01*
X47878007Y-6550000D01*
X48121993Y-6550000D01*
X48362959Y-6511834D01*
X48594998Y-6436439D01*
X48812377Y-6325678D01*
X48945856Y-6228699D01*
X48945857Y-6228698D01*
X48259916Y-5542757D01*
X48368408Y-5480119D01*
X48480119Y-5368408D01*
X48542757Y-5259915D01*
X49228698Y-5945857D01*
X49228699Y-5945856D01*
X49325678Y-5812377D01*
X49436439Y-5594998D01*
X49511834Y-5362959D01*
X49550000Y-5121993D01*
X49550000Y-4878006D01*
X49511834Y-4637040D01*
X49436439Y-4405001D01*
X49325676Y-4187619D01*
X49228700Y-4054142D01*
X49228699Y-4054141D01*
X48542757Y-4740083D01*
X48480119Y-4631592D01*
X48368408Y-4519881D01*
X48259915Y-4457242D01*
X48945856Y-3771299D01*
X48945856Y-3771298D01*
X48812380Y-3674323D01*
X48594998Y-3563560D01*
X48362959Y-3488165D01*
X48121993Y-3450000D01*
X47878007Y-3450000D01*
X47637040Y-3488165D01*
X47405001Y-3563560D01*
X47187626Y-3674319D01*
X47054142Y-3771299D01*
X47740085Y-4457242D01*
X47631592Y-4519881D01*
X47519881Y-4631592D01*
X47457242Y-4740085D01*
X46771299Y-4054142D01*
X46674319Y-4187626D01*
X46563560Y-4405001D01*
X46488165Y-4637040D01*
X46450000Y-4878006D01*
X37950499Y-4878006D01*
X37950499Y-4348878D01*
X37947600Y-4306111D01*
X37901641Y-4121307D01*
X37868786Y-4055061D01*
X37817033Y-3950709D01*
X37817031Y-3950707D01*
X37817030Y-3950704D01*
X37697722Y-3802278D01*
X37659183Y-3771299D01*
X37549295Y-3682969D01*
X37549292Y-3682967D01*
X37378697Y-3598360D01*
X37193892Y-3552400D01*
X37172506Y-3550950D01*
X37151123Y-3549500D01*
X37151120Y-3549500D01*
X35848877Y-3549500D01*
X35848874Y-3549501D01*
X35806113Y-3552399D01*
X35806112Y-3552399D01*
X35621303Y-3598360D01*
X35450707Y-3682967D01*
X35450704Y-3682969D01*
X35302278Y-3802277D01*
X35302277Y-3802278D01*
X35182969Y-3950704D01*
X35182967Y-3950707D01*
X35098360Y-4121302D01*
X35052400Y-4306107D01*
X35049500Y-4348879D01*
X35049500Y-5651122D01*
X35049501Y-5651125D01*
X35052399Y-5693886D01*
X35052399Y-5693887D01*
X35098360Y-5878696D01*
X35182967Y-6049292D01*
X35182969Y-6049295D01*
X35302275Y-6197719D01*
X35302276Y-6197720D01*
X35302278Y-6197722D01*
X35403189Y-6278836D01*
X35443106Y-6336176D01*
X35449500Y-6375481D01*
X35449500Y-6763506D01*
X35429815Y-6830545D01*
X35413181Y-6851187D01*
X33101188Y-9163181D01*
X33039865Y-9196666D01*
X33013507Y-9199500D01*
X30146530Y-9199500D01*
X29943587Y-9239868D01*
X29943579Y-9239870D01*
X29752403Y-9319058D01*
X29580344Y-9434023D01*
X29537985Y-9476383D01*
X29434023Y-9580345D01*
X29434020Y-9580348D01*
X26461954Y-12552415D01*
X23515688Y-15498681D01*
X23454365Y-15532166D01*
X23428007Y-15535000D01*
X10524099Y-15535000D01*
X10524079Y-15534999D01*
X10517965Y-15534999D01*
X10311035Y-15534999D01*
X10311033Y-15534999D01*
X10108085Y-15575368D01*
X10108075Y-15575371D01*
X9916908Y-15654554D01*
X9916895Y-15654561D01*
X9744845Y-15769522D01*
X9744841Y-15769525D01*
X8101188Y-17413181D01*
X8039865Y-17446666D01*
X8013507Y-17449500D01*
X4146530Y-17449500D01*
X3943587Y-17489868D01*
X3943579Y-17489870D01*
X3752403Y-17569058D01*
X3580342Y-17684024D01*
X3434024Y-17830342D01*
X3319058Y-18002403D01*
X3239870Y-18193579D01*
X3239868Y-18193587D01*
X3199500Y-18396530D01*
X500500Y-18396530D01*
X500500Y-4878711D01*
X3149500Y-4878711D01*
X3149500Y-5121288D01*
X3178248Y-5339660D01*
X3181162Y-5361789D01*
X3187898Y-5386929D01*
X3243947Y-5596104D01*
X3289306Y-5705609D01*
X3336776Y-5820212D01*
X3458064Y-6030289D01*
X3458066Y-6030292D01*
X3458067Y-6030293D01*
X3605733Y-6222736D01*
X3605739Y-6222743D01*
X3777256Y-6394260D01*
X3777263Y-6394266D01*
X3832224Y-6436439D01*
X3969711Y-6541936D01*
X4179788Y-6663224D01*
X4403900Y-6756054D01*
X4638211Y-6818838D01*
X4818586Y-6842584D01*
X4878711Y-6850500D01*
X4878712Y-6850500D01*
X5121289Y-6850500D01*
X5169388Y-6844167D01*
X5361789Y-6818838D01*
X5596100Y-6756054D01*
X5820212Y-6663224D01*
X6030289Y-6541936D01*
X6222738Y-6394265D01*
X6394265Y-6222738D01*
X6446567Y-6154577D01*
X6483877Y-6105954D01*
X6527352Y-6049295D01*
X6541936Y-6030289D01*
X6663224Y-5820212D01*
X6756054Y-5596100D01*
X6818838Y-5361789D01*
X6850500Y-5121288D01*
X6850500Y-4878712D01*
X6850407Y-4878006D01*
X31450000Y-4878006D01*
X31450000Y-5121993D01*
X31488165Y-5362959D01*
X31563560Y-5594998D01*
X31674323Y-5812380D01*
X31771298Y-5945856D01*
X31771299Y-5945856D01*
X32457241Y-5259914D01*
X32519881Y-5368408D01*
X32631592Y-5480119D01*
X32740084Y-5542757D01*
X32054141Y-6228699D01*
X32054142Y-6228700D01*
X32187619Y-6325676D01*
X32405001Y-6436439D01*
X32637040Y-6511834D01*
X32878007Y-6550000D01*
X33121993Y-6550000D01*
X33362959Y-6511834D01*
X33594998Y-6436439D01*
X33812377Y-6325678D01*
X33945856Y-6228699D01*
X33945857Y-6228698D01*
X33259916Y-5542757D01*
X33368408Y-5480119D01*
X33480119Y-5368408D01*
X33542757Y-5259915D01*
X34228698Y-5945857D01*
X34228699Y-5945856D01*
X34325678Y-5812377D01*
X34436439Y-5594998D01*
X34511834Y-5362959D01*
X34550000Y-5121993D01*
X34550000Y-4878006D01*
X34511834Y-4637040D01*
X34436439Y-4405001D01*
X34325676Y-4187619D01*
X34228700Y-4054142D01*
X34228699Y-4054141D01*
X33542757Y-4740083D01*
X33480119Y-4631592D01*
X33368408Y-4519881D01*
X33259915Y-4457242D01*
X33945856Y-3771299D01*
X33945856Y-3771298D01*
X33812380Y-3674323D01*
X33594998Y-3563560D01*
X33362959Y-3488165D01*
X33121993Y-3450000D01*
X32878007Y-3450000D01*
X32637040Y-3488165D01*
X32405001Y-3563560D01*
X32187626Y-3674319D01*
X32054142Y-3771299D01*
X32740085Y-4457242D01*
X32631592Y-4519881D01*
X32519881Y-4631592D01*
X32457242Y-4740085D01*
X31771299Y-4054142D01*
X31674319Y-4187626D01*
X31563560Y-4405001D01*
X31488165Y-4637040D01*
X31450000Y-4878006D01*
X6850407Y-4878006D01*
X6818838Y-4638211D01*
X6756054Y-4403900D01*
X6755711Y-4403073D01*
X6733263Y-4348877D01*
X6663224Y-4179788D01*
X6541936Y-3969711D01*
X6485564Y-3896245D01*
X6483875Y-3894044D01*
X6394266Y-3777263D01*
X6394260Y-3777256D01*
X6222743Y-3605739D01*
X6222736Y-3605733D01*
X6030293Y-3458067D01*
X6030292Y-3458066D01*
X6030289Y-3458064D01*
X5820212Y-3336776D01*
X5820205Y-3336773D01*
X5596104Y-3243947D01*
X5361785Y-3181161D01*
X5121289Y-3149500D01*
X5121288Y-3149500D01*
X4878712Y-3149500D01*
X4878711Y-3149500D01*
X4638214Y-3181161D01*
X4403895Y-3243947D01*
X4179794Y-3336773D01*
X4179785Y-3336777D01*
X3969706Y-3458067D01*
X3777263Y-3605733D01*
X3777256Y-3605739D01*
X3605739Y-3777256D01*
X3605733Y-3777263D01*
X3458067Y-3969706D01*
X3336777Y-4179785D01*
X3336773Y-4179794D01*
X3243947Y-4403895D01*
X3181161Y-4638214D01*
X3149500Y-4878711D01*
X500500Y-4878711D01*
X500500Y-3003750D01*
X500726Y-2996263D01*
X518271Y-2706204D01*
X520076Y-2691339D01*
X571780Y-2409201D01*
X575358Y-2394683D01*
X660700Y-2120806D01*
X665997Y-2106841D01*
X783730Y-1845249D01*
X790675Y-1832016D01*
X939079Y-1586526D01*
X947566Y-1574230D01*
X1124480Y-1348416D01*
X1134395Y-1337225D01*
X1337225Y-1134395D01*
X1348416Y-1124480D01*
X1574230Y-947566D01*
X1586526Y-939079D01*
X1832016Y-790675D01*
X1845249Y-783730D01*
X2106841Y-665997D01*
X2120806Y-660700D01*
X2394683Y-575358D01*
X2409197Y-571780D01*
X2691343Y-520075D01*
X2706200Y-518271D01*
X2996264Y-500726D01*
X3003751Y-500500D01*
X3065892Y-500500D01*
X136934108Y-500500D01*
X136996249Y-500500D01*
X137003736Y-500726D01*
G37*
%TD.AperFunction*%
%TD*%
M02*
