%TF.GenerationSoftware,KiCad,Pcbnew,10.0.3*%
%TF.CreationDate,2026-08-08T17:43:16+12:00*%
%TF.ProjectId,rcm,72636d2e-6b69-4636-9164-5f7063625858,A*%
%TF.SameCoordinates,Original*%
%TF.FileFunction,Copper,L2,Bot*%
%TF.FilePolarity,Positive*%
%FSLAX46Y46*%
G04 Gerber Fmt 4.6, Leading zero omitted, Abs format (unit mm)*
G04 Created by KiCad (PCBNEW 10.0.3) date 2026-08-08 17:43:16*
%MOMM*%
%LPD*%
G01*
G04 APERTURE LIST*
G04 Aperture macros list*
%AMRoundRect*
0 Rectangle with rounded corners*
0 $1 Rounding radius*
0 $2 $3 $4 $5 $6 $7 $8 $9 X,Y pos of 4 corners*
0 Add a 4 corners polygon primitive as box body*
4,1,4,$2,$3,$4,$5,$6,$7,$8,$9,$2,$3,0*
0 Add four circle primitives for the rounded corners*
1,1,$1+$1,$2,$3*
1,1,$1+$1,$4,$5*
1,1,$1+$1,$6,$7*
1,1,$1+$1,$8,$9*
0 Add four rect primitives between the rounded corners*
20,1,$1+$1,$2,$3,$4,$5,0*
20,1,$1+$1,$4,$5,$6,$7,0*
20,1,$1+$1,$6,$7,$8,$9,0*
20,1,$1+$1,$8,$9,$2,$3,0*%
G04 Aperture macros list end*
%TA.AperFunction,ComponentPad*%
%ADD10RoundRect,0.575000X-0.575000X-0.575000X0.575000X-0.575000X0.575000X0.575000X-0.575000X0.575000X0*%
%TD*%
%TA.AperFunction,ComponentPad*%
%ADD11C,2.300000*%
%TD*%
%TA.AperFunction,ComponentPad*%
%ADD12RoundRect,0.575000X0.575000X0.575000X-0.575000X0.575000X-0.575000X-0.575000X0.575000X-0.575000X0*%
%TD*%
%TA.AperFunction,ComponentPad*%
%ADD13R,1.700000X1.700000*%
%TD*%
%TA.AperFunction,ComponentPad*%
%ADD14C,1.700000*%
%TD*%
%TA.AperFunction,ComponentPad*%
%ADD15O,2.100000X1.000000*%
%TD*%
%TA.AperFunction,ComponentPad*%
%ADD16O,1.600000X1.000000*%
%TD*%
%TA.AperFunction,ViaPad*%
%ADD17C,0.600000*%
%TD*%
%TA.AperFunction,Conductor*%
%ADD18C,0.200000*%
%TD*%
G04 APERTURE END LIST*
D10*
%TO.P,J_CH1,1*%
%TO.N,CH1*%
X16300000Y-65000000D03*
D11*
%TO.P,J_CH1,2*%
%TO.N,CH2*%
X19800000Y-65000000D03*
%TO.P,J_CH1,3*%
%TO.N,CH3*%
X23300000Y-65000000D03*
%TO.P,J_CH1,4*%
%TO.N,CH4*%
X26800000Y-65000000D03*
%TO.P,J_CH1,5*%
%TO.N,CH5*%
X30300000Y-65000000D03*
%TO.P,J_CH1,6*%
%TO.N,CH6*%
X33800000Y-65000000D03*
%TO.P,J_CH1,7*%
%TO.N,CH7*%
X37300000Y-65000000D03*
%TD*%
D12*
%TO.P,J_AUX,1*%
%TO.N,AUX1*%
X70000000Y-5000000D03*
D11*
%TO.P,J_AUX,2*%
%TO.N,AUX2*%
X66500000Y-5000000D03*
%TO.P,J_AUX,3*%
%TO.N,AUX3*%
X63000000Y-5000000D03*
%TD*%
D10*
%TO.P,J_CH2,1*%
%TO.N,CH8*%
X60300000Y-65000000D03*
D11*
%TO.P,J_CH2,2*%
%TO.N,CH9*%
X63800000Y-65000000D03*
%TO.P,J_CH2,3*%
%TO.N,CH10*%
X67300000Y-65000000D03*
%TO.P,J_CH2,4*%
%TO.N,CH11*%
X70800000Y-65000000D03*
%TO.P,J_CH2,5*%
%TO.N,CH12*%
X74300000Y-65000000D03*
%TO.P,J_CH2,6*%
%TO.N,CH13*%
X77800000Y-65000000D03*
%TO.P,J_CH2,7*%
%TO.N,CH14*%
X81300000Y-65000000D03*
%TD*%
D13*
%TO.P,J_SWD,1*%
%TO.N,+3V3*%
X64000000Y-34000000D03*
D14*
%TO.P,J_SWD,2*%
%TO.N,SWDIO*%
X66540000Y-34000000D03*
%TO.P,J_SWD,3*%
%TO.N,SWCLK*%
X69080000Y-34000000D03*
%TO.P,J_SWD,4*%
%TO.N,NRST*%
X71620000Y-34000000D03*
%TO.P,J_SWD,5*%
%TO.N,GND*%
X74160000Y-34000000D03*
%TD*%
D12*
%TO.P,J_PWR,1*%
%TO.N,+12V_IN*%
X36500000Y-5000000D03*
D11*
%TO.P,J_PWR,2*%
%TO.N,GND*%
X33000000Y-5000000D03*
%TD*%
D12*
%TO.P,J_CAN1,1*%
%TO.N,CANH*%
X88500000Y-5000000D03*
D11*
%TO.P,J_CAN1,2*%
%TO.N,CANL*%
X85000000Y-5000000D03*
%TO.P,J_CAN1,3*%
%TO.N,GND*%
X81500000Y-5000000D03*
%TD*%
D13*
%TO.P,JB2,1*%
%TO.N,+5V*%
X57400000Y-13700000D03*
D14*
X57400000Y-16240000D03*
X57400000Y-18780000D03*
%TO.P,JB2,2*%
%TO.N,GND*%
X57400000Y-21320000D03*
X57400000Y-23860000D03*
X57400000Y-26400000D03*
%TD*%
D13*
%TO.P,J_BOOT,1*%
%TO.N,+3V3*%
X56500000Y-30000000D03*
D14*
%TO.P,J_BOOT,2*%
%TO.N,BOOT0*%
X59040000Y-30000000D03*
%TO.P,J_BOOT,3*%
%TO.N,GND*%
X61580000Y-30000000D03*
%TD*%
D13*
%TO.P,JB1,1*%
%TO.N,+12V_SW*%
X29600000Y-15600000D03*
D14*
X29600000Y-19100000D03*
%TO.P,JB1,2*%
%TO.N,GND*%
X29600000Y-22600000D03*
X29600000Y-26100000D03*
%TD*%
D10*
%TO.P,J_CH3,1*%
%TO.N,CH15*%
X104300000Y-65000000D03*
D11*
%TO.P,J_CH3,2*%
%TO.N,CH16*%
X107800000Y-65000000D03*
%TO.P,J_CH3,3*%
%TO.N,CH17*%
X111300000Y-65000000D03*
%TO.P,J_CH3,4*%
%TO.N,CH18*%
X114800000Y-65000000D03*
%TO.P,J_CH3,5*%
%TO.N,CH19*%
X118300000Y-65000000D03*
%TO.P,J_CH3,6*%
%TO.N,CH20*%
X121800000Y-65000000D03*
%TO.P,J_CH3,7*%
%TO.N,CH21*%
X125300000Y-65000000D03*
%TD*%
D15*
%TO.P,J_USB,SH*%
%TO.N,GND*%
X132695000Y-24320000D03*
D16*
X136875000Y-24320000D03*
D15*
X132695000Y-15680000D03*
D16*
X136875000Y-15680000D03*
%TD*%
D12*
%TO.P,J_CAN2,1*%
%TO.N,CANH*%
X107000000Y-5000000D03*
D11*
%TO.P,J_CAN2,2*%
%TO.N,CANL*%
X103500000Y-5000000D03*
%TO.P,J_CAN2,3*%
%TO.N,GND*%
X100000000Y-5000000D03*
%TD*%
D12*
%TO.P,J_IGN,1*%
%TO.N,LATCH_IGN*%
X51500000Y-5000000D03*
D11*
%TO.P,J_IGN,2*%
%TO.N,GND*%
X48000000Y-5000000D03*
%TD*%
D17*
%TO.N,ASNS2*%
X77536100Y-39210500D03*
X68280600Y-25378400D03*
X68959200Y-12659100D03*
X70642700Y-27688700D03*
X78723600Y-31998600D03*
X68481000Y-31293800D03*
%TO.N,ASNS3*%
X77704000Y-10893700D03*
X130069800Y-43752300D03*
%TO.N,GND*%
X130397100Y-38147100D03*
X51795100Y-33851100D03*
X94474700Y-16991000D03*
X78019400Y-25750000D03*
X91961600Y-20784500D03*
%TO.N,CAN_RS*%
X111045600Y-18180300D03*
X112437900Y-10095000D03*
%TO.N,CH10*%
X60888800Y-39194100D03*
%TO.N,DRV16*%
X105961300Y-40989200D03*
X98187500Y-37924700D03*
%TO.N,DRV18*%
X98066700Y-36055500D03*
X108314100Y-41141300D03*
%TO.N,DRV21*%
X95683000Y-41625000D03*
X108889600Y-44827100D03*
%TO.N,SR_CH32*%
X80684500Y-35597800D03*
X116080800Y-37525000D03*
%TO.N,+3V3*%
X61538400Y-36743200D03*
X103076700Y-16070700D03*
X84956500Y-21116400D03*
X72078100Y-37163200D03*
X68145300Y-30107000D03*
X106420400Y-24547100D03*
X54809200Y-33875800D03*
%TO.N,SR_SCK*%
X120977400Y-41178600D03*
X115635500Y-40174300D03*
X75552300Y-41626000D03*
X30809600Y-36750700D03*
X34624700Y-40991200D03*
X82730700Y-34417700D03*
X56277000Y-41728200D03*
%TO.N,SR_RCLK*%
X85358300Y-28381800D03*
X112342300Y-36043300D03*
X78811200Y-33772500D03*
%TO.N,SR_OE_N*%
X60634600Y-35180300D03*
X36107700Y-34301000D03*
X63934300Y-39205900D03*
X109215300Y-36025800D03*
X84949100Y-35650900D03*
X84789500Y-33171100D03*
X85480100Y-32013900D03*
%TO.N,CH1*%
X16084500Y-37821200D03*
%TO.N,CH2*%
X16825500Y-37201400D03*
%TO.N,CH3*%
X17223600Y-53877700D03*
X16385000Y-39056800D03*
%TO.N,CH4*%
X17194600Y-39184900D03*
%TO.N,CH5*%
X16903600Y-40327000D03*
%TO.N,CH6*%
X18174700Y-40472900D03*
%TO.N,CH7*%
X16900500Y-41625000D03*
%TO.N,AUX1*%
X58905000Y-13062500D03*
%TO.N,AUX3*%
X69055200Y-11055200D03*
%TO.N,CH21*%
X103911300Y-41784400D03*
%TO.N,CH8*%
X57401500Y-37696800D03*
%TO.N,CH9*%
X59914600Y-38733800D03*
X58780900Y-56935500D03*
%TO.N,CH11*%
X58634900Y-43075800D03*
%TO.N,CH12*%
X59919400Y-40162500D03*
%TO.N,CH13*%
X60325900Y-40975000D03*
%TO.N,CH14*%
X60734800Y-41769600D03*
%TO.N,CH17*%
X103933600Y-39339600D03*
%TO.N,SWDIO*%
X91977200Y-21648200D03*
%TO.N,SWCLK*%
X89417400Y-17995400D03*
%TO.N,NRST*%
X80814900Y-23131000D03*
X73399200Y-35151700D03*
X93939400Y-22929800D03*
%TO.N,SNS8*%
X82928600Y-36046200D03*
X77798400Y-47457900D03*
%TO.N,+12V_P*%
X100550300Y-43136700D03*
X28047600Y-41197700D03*
X57029800Y-42128800D03*
X12750700Y-39355700D03*
X61849200Y-40735300D03*
X11026900Y-34500000D03*
%TO.N,SNS4*%
X29190100Y-54536100D03*
X25116800Y-48833900D03*
%TO.N,IGN_SENSE*%
X77772800Y-26687500D03*
X27067600Y-24965100D03*
X74291300Y-29614100D03*
X16569000Y-30850300D03*
%TO.N,+12V_IN*%
X11557000Y-17570600D03*
%TO.N,CH18*%
X101409200Y-40272000D03*
%TO.N,LATCH_GND*%
X8193300Y-19387900D03*
X7262500Y-28047000D03*
%TO.N,SNS1*%
X10739200Y-50000000D03*
X38062700Y-38801200D03*
%TO.N,CAN_TERM*%
X112334600Y-3440200D03*
X107268000Y-16789400D03*
%TO.N,CANL*%
X108779400Y-19224700D03*
X107974200Y-12635000D03*
%TO.N,CFG_ROLE*%
X88877800Y-21718100D03*
X105344300Y-4262800D03*
%TO.N,CFG_ADDR0*%
X78034400Y-24250000D03*
X109054100Y-5827200D03*
%TO.N,CFG_ADDR1*%
X88844100Y-24676600D03*
X110142700Y-6981100D03*
%TO.N,CFG_BAUD*%
X89375900Y-25278700D03*
X110353200Y-8135000D03*
%TO.N,CFG_IMU_EN*%
X84383300Y-28385900D03*
X110275600Y-9335000D03*
%TO.N,CH16*%
X100784400Y-42330200D03*
%TO.N,BOOT0*%
X85016800Y-16412500D03*
%TO.N,LED1*%
X77950300Y-17510000D03*
X82825900Y-22800700D03*
%TO.N,SR_CH21*%
X37587600Y-33588200D03*
X73081400Y-36761500D03*
%TO.N,IMU_SDO*%
X102881700Y-25250000D03*
X112258000Y-29656200D03*
%TO.N,IMU_INT1*%
X79888500Y-28458400D03*
X92706300Y-25762800D03*
%TO.N,IMU_SCL*%
X97556000Y-12032700D03*
X104981400Y-14129600D03*
X90236900Y-17833900D03*
X105709300Y-22970600D03*
X109423000Y-23128600D03*
X122210000Y-27662400D03*
%TO.N,IMU_SDA*%
X103935400Y-24322900D03*
X94965400Y-17881400D03*
X92928900Y-21440400D03*
X117203700Y-24187000D03*
%TO.N,SNS15*%
X114398000Y-47221000D03*
X123375700Y-39454900D03*
%TO.N,ASNS1*%
X39334100Y-41170000D03*
X53091000Y-14970000D03*
%TO.N,SR_PL*%
X79284100Y-30781800D03*
X83598300Y-27741600D03*
X80558100Y-30781800D03*
X75966500Y-43976300D03*
X119546600Y-42521500D03*
X34273800Y-43969700D03*
%TO.N,SR_DI12*%
X77133100Y-34927500D03*
X54284200Y-36051100D03*
%TO.N,SNS9*%
X77122400Y-48153300D03*
X86557600Y-38047000D03*
%TO.N,LATCH_HOLD*%
X44983700Y-28358600D03*
X11222500Y-35480900D03*
X79455300Y-29421200D03*
X82670800Y-27318700D03*
%TO.N,SR_MISO*%
X83857700Y-31046200D03*
X115494000Y-35731600D03*
%TO.N,SR_DI23*%
X122016600Y-40415700D03*
X96103100Y-36252900D03*
%TO.N,SNS16*%
X115469200Y-48481100D03*
X124783000Y-38816600D03*
%TO.N,CH19*%
X118724000Y-54567300D03*
X103902100Y-40325000D03*
%TO.N,CH20*%
X111572900Y-45428800D03*
%TO.N,LED2*%
X84446700Y-17032000D03*
X62323800Y-10931700D03*
%TO.N,LATCH_IGN*%
X16883600Y-29985300D03*
%TO.N,USB_DP*%
X89279800Y-23428500D03*
X133230500Y-19250000D03*
%TO.N,USB_DM*%
X101233800Y-23778700D03*
X133322200Y-20698100D03*
%TO.N,SNS11*%
X78196100Y-35930900D03*
X73350000Y-51086300D03*
%TO.N,SNS10*%
X81587900Y-39015600D03*
X73962500Y-49356900D03*
%TO.N,EEP_MOSI*%
X111398700Y-34244600D03*
X101847800Y-26364500D03*
%TD*%
%TO.N,ASNS2*%
D18*
X68280600Y-25378400D02*
X68280600Y-13337700D01*
X77536100Y-39210500D02*
X79621500Y-37125100D01*
X68280600Y-13337700D02*
X68959200Y-12659100D01*
X68765100Y-31009700D02*
X68481000Y-31293800D01*
X79621500Y-32896500D02*
X78723600Y-31998600D01*
X70642700Y-27688700D02*
X68765100Y-29566300D01*
X79621500Y-37125100D02*
X79621500Y-32896500D01*
X68765100Y-29566300D02*
X68765100Y-31009700D01*
%TO.N,ASNS3*%
X77704000Y-10893700D02*
X81273500Y-10893700D01*
X86580100Y-4477500D02*
X88657800Y-2399800D01*
X88657800Y-2399800D02*
X117245000Y-2399800D01*
X81273500Y-10893700D02*
X86580100Y-5587100D01*
X86580100Y-5587100D02*
X86580100Y-4477500D01*
X134075800Y-19230600D02*
X134075800Y-39746300D01*
X134075800Y-39746300D02*
X130069800Y-43752300D01*
X117245000Y-2399800D02*
X134075800Y-19230600D01*
%TO.N,GND*%
X132695000Y-24320000D02*
X131343300Y-24320000D01*
X53955500Y-31690700D02*
X51795100Y-33851100D01*
X91961600Y-19504100D02*
X91961600Y-20784500D01*
X29600000Y-26100000D02*
X29600000Y-22600000D01*
X53955500Y-21320000D02*
X53955500Y-31690700D01*
X136875000Y-24320000D02*
X135773300Y-24320000D01*
X57400000Y-23860000D02*
X57400000Y-21320000D01*
X135773300Y-24320000D02*
X135773300Y-15680000D01*
X48000000Y-5000000D02*
X53955500Y-10955500D01*
X94474700Y-16991000D02*
X91961600Y-19504100D01*
X78374500Y-29785500D02*
X78374500Y-26438300D01*
X57400000Y-26400000D02*
X57400000Y-23860000D01*
X53955500Y-10955500D02*
X53955500Y-21320000D01*
X78019400Y-26083300D02*
X78019400Y-25750000D01*
X131343300Y-37200900D02*
X130397100Y-38147100D01*
X57980000Y-26400000D02*
X57400000Y-26400000D01*
X57400000Y-21320000D02*
X53955500Y-21320000D01*
X131343300Y-24320000D02*
X131343300Y-37200900D01*
X74160000Y-34000000D02*
X78374500Y-29785500D01*
X78019500Y-26083300D02*
X78019400Y-26083300D01*
X61580000Y-30000000D02*
X57980000Y-26400000D01*
X78374500Y-26438300D02*
X78019500Y-26083300D01*
X136875000Y-15680000D02*
X135773300Y-15680000D01*
%TO.N,CAN_RS*%
X112437900Y-16788000D02*
X112437900Y-10095000D01*
X111045600Y-18180300D02*
X112437900Y-16788000D01*
%TO.N,CH10*%
X59306200Y-39898800D02*
X59835100Y-39369900D01*
X59835100Y-39369900D02*
X60713000Y-39369900D01*
X60713000Y-39369900D02*
X60888800Y-39194100D01*
X59638400Y-42660400D02*
X59306200Y-42328200D01*
X67300000Y-65000000D02*
X59638400Y-57338400D01*
X59638400Y-57338400D02*
X59638400Y-42660400D01*
X59306200Y-42328200D02*
X59306200Y-39898800D01*
%TO.N,DRV16*%
X105961300Y-40989200D02*
X105432700Y-40460600D01*
X105432700Y-40460600D02*
X105432700Y-39419300D01*
X98389000Y-37723200D02*
X98187500Y-37924700D01*
X103736600Y-37723200D02*
X98389000Y-37723200D01*
X105432700Y-39419300D02*
X103736600Y-37723200D01*
%TO.N,DRV18*%
X98213000Y-36201800D02*
X103374600Y-36201800D01*
X98066700Y-36055500D02*
X98213000Y-36201800D01*
X103374600Y-36201800D02*
X108314100Y-41141300D01*
%TO.N,DRV21*%
X105031000Y-39585600D02*
X103611600Y-38166200D01*
X99141800Y-38166200D02*
X95683000Y-41625000D01*
X108889600Y-44827100D02*
X105031000Y-40968500D01*
X103611600Y-38166200D02*
X99141800Y-38166200D01*
X105031000Y-40968500D02*
X105031000Y-39585600D01*
%TO.N,SR_CH32*%
X110405700Y-37525000D02*
X109524800Y-36644100D01*
X116080800Y-37525000D02*
X110405700Y-37525000D01*
X106051900Y-33809400D02*
X82472900Y-33809400D01*
X108886600Y-36644100D02*
X106051900Y-33809400D01*
X109524800Y-36644100D02*
X108886600Y-36644100D01*
X82472900Y-33809400D02*
X80684500Y-35597800D01*
%TO.N,+3V3*%
X56500000Y-30000000D02*
X56500000Y-31151700D01*
X103076700Y-21203400D02*
X106420400Y-24547100D01*
X75095200Y-22371800D02*
X67752700Y-29714300D01*
X68027000Y-37163200D02*
X72078100Y-37163200D01*
X65151700Y-34287900D02*
X68027000Y-37163200D01*
X67752700Y-29714300D02*
X68145300Y-30107000D01*
X84956500Y-21116400D02*
X84956500Y-21534900D01*
X64000000Y-34000000D02*
X64000000Y-32848300D01*
X54809200Y-32842500D02*
X54809200Y-33875800D01*
X83078600Y-23412800D02*
X82302100Y-23412800D01*
X64000000Y-34000000D02*
X65151700Y-34000000D01*
X61538400Y-36743200D02*
X61688600Y-36593000D01*
X61688600Y-34000000D02*
X61381300Y-34000000D01*
X65151700Y-34000000D02*
X65151700Y-34287900D01*
X56500000Y-30000000D02*
X57651700Y-30000000D01*
X103076700Y-16070700D02*
X103076700Y-21203400D01*
X64618700Y-32848300D02*
X64000000Y-32848300D01*
X84956500Y-21534900D02*
X83078600Y-23412800D01*
X56500000Y-31151700D02*
X54809200Y-32842500D01*
X64000000Y-34000000D02*
X61688600Y-34000000D01*
X61381300Y-34000000D02*
X57651700Y-30270400D01*
X57651700Y-30270400D02*
X57651700Y-30000000D01*
X67752700Y-29714300D02*
X64618700Y-32848300D01*
X61688600Y-36593000D02*
X61688600Y-34000000D01*
X82302100Y-23412800D02*
X81261100Y-22371800D01*
X81261100Y-22371800D02*
X75095200Y-22371800D01*
%TO.N,SR_SCK*%
X115635500Y-40174300D02*
X111848800Y-40174300D01*
X111848800Y-40174300D02*
X107072900Y-35398400D01*
X30809600Y-37176100D02*
X30809600Y-36750700D01*
X34624700Y-40991200D02*
X36224800Y-42591300D01*
X55413900Y-42591300D02*
X56277000Y-41728200D01*
X100730800Y-34633300D02*
X82730700Y-34633300D01*
X78539600Y-39521200D02*
X78539600Y-39626100D01*
X82325600Y-34633300D02*
X81286300Y-35672600D01*
X36224800Y-42591300D02*
X55413900Y-42591300D01*
X82730700Y-34417700D02*
X82730700Y-34633300D01*
X78539600Y-39626100D02*
X77553700Y-40612000D01*
X116639800Y-41178600D02*
X120977400Y-41178600D01*
X81286300Y-35672600D02*
X81286300Y-36774500D01*
X77553700Y-40612000D02*
X76566300Y-40612000D01*
X82730700Y-34633300D02*
X82325600Y-34633300D01*
X81286300Y-36774500D02*
X78539600Y-39521200D01*
X34624700Y-40991200D02*
X30809600Y-37176100D01*
X101495900Y-35398400D02*
X100730800Y-34633300D01*
X76566300Y-40612000D02*
X75552300Y-41626000D01*
X107072900Y-35398400D02*
X101495900Y-35398400D01*
X115635500Y-40174300D02*
X116639800Y-41178600D01*
%TO.N,SR_RCLK*%
X78137900Y-39354900D02*
X78137900Y-39459800D01*
X80082800Y-33657300D02*
X80082800Y-35877400D01*
X80082800Y-35877400D02*
X80572600Y-36367200D01*
X76931900Y-39831500D02*
X76931900Y-38900900D01*
X78137900Y-39459800D02*
X77387400Y-40210300D01*
X76931900Y-38900900D02*
X79207100Y-36625700D01*
X80572600Y-36920200D02*
X78137900Y-39354900D01*
X85358300Y-28381800D02*
X80082800Y-33657300D01*
X104680800Y-28381800D02*
X112342300Y-36043300D01*
X77310700Y-40210300D02*
X76931900Y-39831500D01*
X80572600Y-36367200D02*
X80572600Y-36920200D01*
X85358300Y-28381800D02*
X104680800Y-28381800D01*
X79207100Y-34168400D02*
X78811200Y-33772500D01*
X79207100Y-36625700D02*
X79207100Y-34168400D01*
X77387400Y-40210300D02*
X77310700Y-40210300D01*
%TO.N,SR_OE_N*%
X82658200Y-35436700D02*
X82089700Y-36005200D01*
X84789500Y-32704500D02*
X84789500Y-33171100D01*
X39994600Y-42189600D02*
X38883100Y-42189600D01*
X105203400Y-32013900D02*
X109215300Y-36025800D01*
X82192200Y-41976000D02*
X76125400Y-48042800D01*
X85480100Y-32013900D02*
X84789500Y-32704500D01*
X85480100Y-32013900D02*
X105203400Y-32013900D01*
X38883100Y-42189600D02*
X38307000Y-41613500D01*
X76125400Y-49162400D02*
X73565600Y-51722200D01*
X38307000Y-41613500D02*
X38307000Y-40601900D01*
X38307000Y-40601900D02*
X38707200Y-40201700D01*
X84734900Y-35436700D02*
X82658200Y-35436700D01*
X82089700Y-36005200D02*
X82089700Y-36809900D01*
X38707200Y-36900500D02*
X36107700Y-34301000D01*
X38707200Y-40201700D02*
X38707200Y-36900500D01*
X60634600Y-35180300D02*
X60365600Y-35449300D01*
X84949100Y-35650900D02*
X84734900Y-35436700D01*
X82089700Y-36809900D02*
X82192200Y-36912400D01*
X73118900Y-51722200D02*
X63934300Y-42537600D01*
X46734900Y-35449300D02*
X39994600Y-42189600D01*
X82192200Y-36912400D02*
X82192200Y-41976000D01*
X73565600Y-51722200D02*
X73118900Y-51722200D01*
X60365600Y-35449300D02*
X46734900Y-35449300D01*
X63934300Y-42537600D02*
X63934300Y-39205900D01*
X76125400Y-48042800D02*
X76125400Y-49162400D01*
%TO.N,CH1*%
X16300000Y-65000000D02*
X15069200Y-63769200D01*
X15069200Y-63769200D02*
X15069200Y-38836500D01*
X15069200Y-38836500D02*
X16084500Y-37821200D01*
%TO.N,CH2*%
X15470900Y-60670900D02*
X15470900Y-39089100D01*
X16341600Y-38455000D02*
X16825500Y-37971100D01*
X16825500Y-37971100D02*
X16825500Y-37201400D01*
X19800000Y-65000000D02*
X15470900Y-60670900D01*
X15470900Y-39089100D02*
X16105000Y-38455000D01*
X16105000Y-38455000D02*
X16341600Y-38455000D01*
%TO.N,CH3*%
X17223600Y-58923600D02*
X17223600Y-53877700D01*
X15872600Y-52526700D02*
X15872600Y-39569200D01*
X23300000Y-65000000D02*
X17223600Y-58923600D01*
X15872600Y-39569200D02*
X16385000Y-39056800D01*
X17223600Y-53877700D02*
X15872600Y-52526700D01*
%TO.N,CH4*%
X26800000Y-52450700D02*
X26800000Y-65000000D01*
X17194600Y-39184900D02*
X16274300Y-40105200D01*
X16274300Y-41925000D02*
X26800000Y-52450700D01*
X16274300Y-40105200D02*
X16274300Y-41925000D01*
%TO.N,CH5*%
X25718500Y-48584700D02*
X25366000Y-48232200D01*
X25690200Y-49111400D02*
X25718500Y-49083100D01*
X25718500Y-49083100D02*
X25718500Y-48584700D01*
X30300000Y-65000000D02*
X30300000Y-53721300D01*
X25366000Y-48232200D02*
X24808800Y-48232200D01*
X30300000Y-53721300D02*
X25690200Y-49111500D01*
X25690200Y-49111500D02*
X25690200Y-49111400D01*
X24808800Y-48232200D02*
X16903600Y-40327000D01*
%TO.N,CH6*%
X33800000Y-56098200D02*
X18174700Y-40472900D01*
X33800000Y-65000000D02*
X33800000Y-56098200D01*
%TO.N,CH7*%
X16900500Y-41625000D02*
X28148400Y-52872900D01*
X28148400Y-53440800D02*
X28550100Y-53842500D01*
X29691300Y-66478900D02*
X35821100Y-66478900D01*
X28550100Y-53842500D02*
X28550100Y-65337700D01*
X35821100Y-66478900D02*
X37300000Y-65000000D01*
X28148400Y-52872900D02*
X28148400Y-53440800D01*
X28550100Y-65337700D02*
X29691300Y-66478900D01*
%TO.N,AUX1*%
X68536100Y-3536100D02*
X62370500Y-3536100D01*
X62370500Y-3536100D02*
X58905000Y-7001600D01*
X70000000Y-5000000D02*
X68536100Y-3536100D01*
X58905000Y-7001600D02*
X58905000Y-13062500D01*
%TO.N,AUX3*%
X63000000Y-5000000D02*
X69055200Y-11055200D01*
%TO.N,CH21*%
X125300000Y-65000000D02*
X123821100Y-66478900D01*
X123821100Y-66478900D02*
X117691300Y-66478900D01*
X116550100Y-65337700D02*
X116550100Y-54423200D01*
X116550100Y-54423200D02*
X103911300Y-41784400D01*
X117691300Y-66478900D02*
X116550100Y-65337700D01*
%TO.N,CH8*%
X58033200Y-38328500D02*
X57401500Y-37696800D01*
X57731900Y-62431900D02*
X57731900Y-43298800D01*
X58033200Y-42997500D02*
X58033200Y-38328500D01*
X57731900Y-43298800D02*
X58033200Y-42997500D01*
X60300000Y-65000000D02*
X57731900Y-62431900D01*
%TO.N,CH9*%
X59236700Y-56603300D02*
X59236700Y-42826700D01*
X58904500Y-60104500D02*
X58904500Y-56935500D01*
X63800000Y-65000000D02*
X58904500Y-60104500D01*
X58904500Y-56935500D02*
X58780900Y-56935500D01*
X58904500Y-39725000D02*
X59895700Y-38733800D01*
X59895700Y-38733800D02*
X59914600Y-38733800D01*
X58904500Y-56935500D02*
X59236700Y-56603300D01*
X59236700Y-42826700D02*
X58904500Y-42494500D01*
X58904500Y-42494500D02*
X58904500Y-39725000D01*
%TO.N,CH11*%
X70800000Y-65000000D02*
X69344500Y-66455500D01*
X63197400Y-66455500D02*
X62220000Y-65478100D01*
X58179200Y-43531500D02*
X58634900Y-43075800D01*
X62220000Y-64057400D02*
X58179200Y-60016600D01*
X58179200Y-60016600D02*
X58179200Y-43531500D01*
X69344500Y-66455500D02*
X63197400Y-66455500D01*
X62220000Y-65478100D02*
X62220000Y-64057400D01*
%TO.N,CH12*%
X74300000Y-65000000D02*
X60040100Y-50740100D01*
X60040100Y-50740100D02*
X60040100Y-42494100D01*
X59724100Y-40357800D02*
X59919400Y-40162500D01*
X60040100Y-42494100D02*
X59724100Y-42178100D01*
X59724100Y-42178100D02*
X59724100Y-40357800D01*
%TO.N,CH13*%
X60125800Y-41175100D02*
X60325900Y-40975000D01*
X77800000Y-59686000D02*
X60125800Y-42011800D01*
X60125800Y-42011800D02*
X60125800Y-41175100D01*
X77800000Y-65000000D02*
X77800000Y-59686000D01*
%TO.N,CH14*%
X81300000Y-65000000D02*
X81300000Y-62334800D01*
X81300000Y-62334800D02*
X60734800Y-41769600D01*
%TO.N,CH17*%
X111300000Y-51994900D02*
X100796600Y-41491500D01*
X101487800Y-39339600D02*
X103933600Y-39339600D01*
X100796600Y-41491500D02*
X100796600Y-40030800D01*
X100796600Y-40030800D02*
X101487800Y-39339600D01*
X111300000Y-65000000D02*
X111300000Y-51994900D01*
%TO.N,SWDIO*%
X72771700Y-28947100D02*
X72771700Y-34477100D01*
X77229300Y-24489500D02*
X72771700Y-28947100D01*
X78311800Y-23576900D02*
X77814700Y-23576900D01*
X79042400Y-24307500D02*
X78311800Y-23576900D01*
X84349600Y-24307500D02*
X79042400Y-24307500D01*
X91256400Y-22369000D02*
X86288100Y-22369000D01*
X77814700Y-23576900D02*
X77229300Y-24162300D01*
X68141500Y-35601500D02*
X66540000Y-34000000D01*
X72771700Y-34477100D02*
X71647300Y-35601500D01*
X77229300Y-24162300D02*
X77229300Y-24489500D01*
X86288100Y-22369000D02*
X84349600Y-24307500D01*
X91977200Y-21648200D02*
X91256400Y-22369000D01*
X71647300Y-35601500D02*
X68141500Y-35601500D01*
%TO.N,SWCLK*%
X69768500Y-31055100D02*
X77648400Y-23175200D01*
X79208700Y-23905800D02*
X83507000Y-23905800D01*
X77648400Y-23175200D02*
X78478100Y-23175200D01*
X83507000Y-23905800D02*
X89417400Y-17995400D01*
X69080000Y-34000000D02*
X69768500Y-33311500D01*
X78478100Y-23175200D02*
X79208700Y-23905800D01*
X69768500Y-33311500D02*
X69768500Y-31055100D01*
%TO.N,NRST*%
X85508600Y-25564200D02*
X81904300Y-25564200D01*
X93939400Y-22929800D02*
X92816500Y-24052700D01*
X76902300Y-32886500D02*
X74637100Y-35151700D01*
X74637100Y-35151700D02*
X73399200Y-35151700D01*
X71620000Y-34000000D02*
X70420200Y-35199800D01*
X78793800Y-29941200D02*
X76902300Y-31832700D01*
X67914900Y-34463600D02*
X67914900Y-32710800D01*
X67914900Y-32710800D02*
X69366800Y-31258900D01*
X80457400Y-22773500D02*
X80814900Y-23131000D01*
X77454800Y-22773500D02*
X80457400Y-22773500D01*
X78793800Y-28674700D02*
X78793800Y-29941200D01*
X81904300Y-25564200D02*
X78793800Y-28674700D01*
X70420200Y-35199800D02*
X68651100Y-35199800D01*
X69366800Y-30861500D02*
X77454800Y-22773500D01*
X76902300Y-31832700D02*
X76902300Y-32886500D01*
X87020100Y-24052700D02*
X85508600Y-25564200D01*
X69366800Y-31258900D02*
X69366800Y-30861500D01*
X68651100Y-35199800D02*
X67914900Y-34463600D01*
X92816500Y-24052700D02*
X87020100Y-24052700D01*
%TO.N,SNS8*%
X82928600Y-42327700D02*
X82928600Y-36046200D01*
X77798400Y-47457900D02*
X82928600Y-42327700D01*
%TO.N,+12V_P*%
X10620000Y-37225000D02*
X12750700Y-39355700D01*
X72882800Y-52123900D02*
X91563100Y-52123900D01*
X29842900Y-42993000D02*
X56165600Y-42993000D01*
X91563100Y-52123900D02*
X100550300Y-43136700D01*
X56165600Y-42993000D02*
X57029800Y-42128800D01*
X10620000Y-34906900D02*
X10620000Y-37225000D01*
X28047600Y-41197700D02*
X29842900Y-42993000D01*
X61849200Y-41090300D02*
X72882800Y-52123900D01*
X11026900Y-34500000D02*
X10620000Y-34906900D01*
X61849200Y-40735300D02*
X61849200Y-41090300D01*
%TO.N,SNS4*%
X29190100Y-53899900D02*
X29190100Y-54536100D01*
X25116800Y-48833900D02*
X25116800Y-49106100D01*
X28684200Y-53394000D02*
X29190100Y-53899900D01*
X28684200Y-52673500D02*
X28684200Y-53394000D01*
X25116800Y-49106100D02*
X28684200Y-52673500D01*
%TO.N,IGN_SENSE*%
X16569000Y-30850300D02*
X21182400Y-30850300D01*
X74846200Y-29614100D02*
X74291300Y-29614100D01*
X77772800Y-26687500D02*
X74846200Y-29614100D01*
X21182400Y-30850300D02*
X27067600Y-24965100D01*
%TO.N,+12V_IN*%
X23929400Y-17570600D02*
X11557000Y-17570600D01*
X36500000Y-5000000D02*
X23929400Y-17570600D01*
%TO.N,CH18*%
X114800000Y-53662800D02*
X101409200Y-40272000D01*
X114800000Y-65000000D02*
X114800000Y-53662800D01*
%TO.N,LATCH_GND*%
X8193300Y-27116200D02*
X7262500Y-28047000D01*
X8193300Y-19387900D02*
X8193300Y-27116200D01*
%TO.N,+12V_SW*%
X29600000Y-19100000D02*
X29600000Y-15600000D01*
%TO.N,SNS1*%
X10739200Y-42259100D02*
X16856600Y-36141700D01*
X10739200Y-50000000D02*
X10739200Y-42259100D01*
X35403200Y-36141700D02*
X38062700Y-38801200D01*
X16856600Y-36141700D02*
X35403200Y-36141700D01*
%TO.N,CAN_TERM*%
X111830900Y-3943900D02*
X112334600Y-3440200D01*
X107268000Y-16789400D02*
X111830900Y-12226500D01*
X111830900Y-12226500D02*
X111830900Y-3943900D01*
%TO.N,CANL*%
X106622000Y-17067300D02*
X106622000Y-13987200D01*
X108779400Y-19224700D02*
X106622000Y-17067300D01*
X106622000Y-13987200D02*
X107974200Y-12635000D01*
%TO.N,CFG_ROLE*%
X105344300Y-5251600D02*
X88877800Y-21718100D01*
X105344300Y-4262800D02*
X105344300Y-5251600D01*
%TO.N,CFG_ADDR0*%
X86488000Y-22820100D02*
X84588500Y-24719600D01*
X84588500Y-24719600D02*
X78504000Y-24719600D01*
X92400100Y-22820100D02*
X86488000Y-22820100D01*
X78504000Y-24719600D02*
X78034400Y-24250000D01*
X109054100Y-6166100D02*
X92400100Y-22820100D01*
X109054100Y-5827200D02*
X109054100Y-6166100D01*
%TO.N,CFG_ADDR1*%
X94150200Y-23531500D02*
X94188600Y-23531500D01*
X94541100Y-23179000D02*
X94541100Y-22582700D01*
X94188600Y-23531500D02*
X94541100Y-23179000D01*
X88844100Y-24676600D02*
X93005100Y-24676600D01*
X94541100Y-22582700D02*
X110142700Y-6981100D01*
X93005100Y-24676600D02*
X94150200Y-23531500D01*
%TO.N,CFG_BAUD*%
X105527900Y-12960300D02*
X110353200Y-8135000D01*
X89375900Y-25278700D02*
X89493600Y-25161000D01*
X104731500Y-12960300D02*
X105527900Y-12960300D01*
X95707300Y-22580800D02*
X95707300Y-21984500D01*
X95707300Y-21984500D02*
X104731500Y-12960300D01*
X93127100Y-25161000D02*
X95707300Y-22580800D01*
X89493600Y-25161000D02*
X93127100Y-25161000D01*
%TO.N,CFG_IMU_EN*%
X96150300Y-23170600D02*
X96150300Y-22109500D01*
X84383300Y-28385900D02*
X85675200Y-27094000D01*
X92226900Y-27094000D02*
X96150300Y-23170600D01*
X104897800Y-13362000D02*
X106248600Y-13362000D01*
X106248600Y-13362000D02*
X110275600Y-9335000D01*
X85675200Y-27094000D02*
X92226900Y-27094000D01*
X96150300Y-22109500D02*
X104897800Y-13362000D01*
%TO.N,+5V*%
X57400000Y-18780000D02*
X57400000Y-16240000D01*
X57400000Y-16240000D02*
X57400000Y-13700000D01*
%TO.N,CH16*%
X107800000Y-65000000D02*
X107800000Y-49535500D01*
X107800000Y-49535500D02*
X100784500Y-42520000D01*
X100784500Y-42520000D02*
X100784400Y-42520000D01*
X100784400Y-42520000D02*
X100784400Y-42330200D01*
%TO.N,CANH*%
X107000000Y-5000000D02*
X105532400Y-3532400D01*
X105532400Y-3532400D02*
X89967600Y-3532400D01*
X89967600Y-3532400D02*
X88500000Y-5000000D01*
%TO.N,BOOT0*%
X63397100Y-31170100D02*
X77692700Y-16874500D01*
X78379600Y-16874500D02*
X79180400Y-17675300D01*
X77692700Y-16874500D02*
X78379600Y-16874500D01*
X85087600Y-17349200D02*
X85087600Y-16483300D01*
X79180400Y-17675300D02*
X84761500Y-17675300D01*
X84761500Y-17675300D02*
X85087600Y-17349200D01*
X85087600Y-16483300D02*
X85016800Y-16412500D01*
X60210100Y-31170100D02*
X63397100Y-31170100D01*
X59040000Y-30000000D02*
X60210100Y-31170100D01*
%TO.N,LED1*%
X77950300Y-17925100D02*
X82825900Y-22800700D01*
X77950300Y-17510000D02*
X77950300Y-17925100D01*
%TO.N,SR_CH21*%
X72327300Y-37764900D02*
X73081400Y-37010800D01*
X60936700Y-36992300D02*
X61709300Y-37764900D01*
X39828300Y-41787900D02*
X47047300Y-34568900D01*
X61237000Y-34918300D02*
X61237000Y-36078000D01*
X47047300Y-34568900D02*
X60887600Y-34568900D01*
X39108900Y-40468200D02*
X38708700Y-40868400D01*
X38708700Y-40868400D02*
X38708700Y-41447200D01*
X73081400Y-37010800D02*
X73081400Y-36761500D01*
X60887600Y-34568900D02*
X61237000Y-34918300D01*
X37587600Y-33588200D02*
X39108900Y-35109500D01*
X61237000Y-36078000D02*
X60936700Y-36378300D01*
X60936700Y-36378300D02*
X60936700Y-36992300D01*
X39108900Y-35109500D02*
X39108900Y-40468200D01*
X61709300Y-37764900D02*
X72327300Y-37764900D01*
X38708700Y-41447200D02*
X39049400Y-41787900D01*
X39049400Y-41787900D02*
X39828300Y-41787900D01*
%TO.N,IMU_SDO*%
X109197900Y-29656200D02*
X104791700Y-25250000D01*
X104791700Y-25250000D02*
X102881700Y-25250000D01*
X112258000Y-29656200D02*
X109197900Y-29656200D01*
%TO.N,IMU_INT1*%
X79888500Y-28458400D02*
X82221000Y-26125900D01*
X82221000Y-26125900D02*
X92343200Y-26125900D01*
X92343200Y-26125900D02*
X92706300Y-25762800D01*
%TO.N,IMU_SCL*%
X109423000Y-23128600D02*
X117676200Y-23128600D01*
X91754800Y-17833900D02*
X90236900Y-17833900D01*
X117676200Y-23128600D02*
X122210000Y-27662400D01*
X97556000Y-12032700D02*
X91754800Y-17833900D01*
X104981400Y-22242700D02*
X104981400Y-14129600D01*
X105709300Y-22970600D02*
X104981400Y-22242700D01*
%TO.N,IMU_SDA*%
X94965400Y-19403900D02*
X92928900Y-21440400D01*
X117203700Y-24187000D02*
X115816500Y-25574200D01*
X104503300Y-24322900D02*
X103935400Y-24322900D01*
X105754600Y-25574200D02*
X104503300Y-24322900D01*
X115816500Y-25574200D02*
X105754600Y-25574200D01*
X94965400Y-17881400D02*
X94965400Y-19403900D01*
%TO.N,SNS15*%
X114398000Y-47221000D02*
X116740700Y-44878300D01*
X123375700Y-39907500D02*
X123375700Y-39454900D01*
X122249500Y-41329700D02*
X122249500Y-41033600D01*
X116740700Y-44878300D02*
X118700900Y-44878300D01*
X118700900Y-44878300D02*
X122249500Y-41329700D01*
X122249600Y-41033600D02*
X123375700Y-39907500D01*
X122249500Y-41033600D02*
X122249600Y-41033600D01*
%TO.N,ASNS1*%
X53091000Y-27413100D02*
X39334100Y-41170000D01*
X53091000Y-14970000D02*
X53091000Y-27413100D01*
%TO.N,SR_PL*%
X79089200Y-30781800D02*
X79284100Y-30781800D01*
X57631500Y-41879300D02*
X57631500Y-42443100D01*
X75310600Y-42240700D02*
X75966500Y-42240700D01*
X75966500Y-43976300D02*
X75966500Y-42240700D01*
X74919400Y-40060300D02*
X74919400Y-41849500D01*
X78448100Y-35329200D02*
X78798400Y-35679500D01*
X78798400Y-36181300D02*
X74919400Y-40060300D01*
X78121700Y-35329200D02*
X77947000Y-35329200D01*
X78121700Y-31749300D02*
X79089200Y-30781800D01*
X78121700Y-35329200D02*
X78121700Y-31749300D01*
X59335400Y-37095000D02*
X57082300Y-37095000D01*
X101329500Y-35800100D02*
X100564400Y-35035000D01*
X110546800Y-42521500D02*
X103825400Y-35800100D01*
X81688000Y-37045700D02*
X76493000Y-42240700D01*
X80558100Y-30781800D02*
X83598300Y-27741600D01*
X56731300Y-37446000D02*
X56731300Y-40979100D01*
X57082300Y-37095000D02*
X56731300Y-37446000D01*
X100564400Y-35035000D02*
X82491900Y-35035000D01*
X74683800Y-38592400D02*
X60832800Y-38592400D01*
X103825400Y-35800100D02*
X101329500Y-35800100D01*
X119546600Y-42521500D02*
X110546800Y-42521500D01*
X56104900Y-43969700D02*
X34273800Y-43969700D01*
X81688000Y-35838900D02*
X81688000Y-37045700D01*
X74919400Y-41849500D02*
X75310600Y-42240700D01*
X78798400Y-35679500D02*
X78798400Y-36181300D01*
X77947000Y-35329200D02*
X74683800Y-38592400D01*
X56731300Y-40979100D02*
X57631500Y-41879300D01*
X78121700Y-35329200D02*
X78448100Y-35329200D01*
X60832800Y-38592400D02*
X59335400Y-37095000D01*
X57631500Y-42443100D02*
X56104900Y-43969700D01*
X82491900Y-35035000D02*
X81688000Y-35838900D01*
X76493000Y-42240700D02*
X75966500Y-42240700D01*
%TO.N,SR_DI12*%
X73870000Y-38190600D02*
X77133100Y-34927500D01*
X58863700Y-36051100D02*
X61003200Y-38190600D01*
X61003200Y-38190600D02*
X73870000Y-38190600D01*
X54284200Y-36051100D02*
X58863700Y-36051100D01*
%TO.N,SNS9*%
X86557600Y-39555600D02*
X77959900Y-48153300D01*
X86557600Y-38047000D02*
X86557600Y-39555600D01*
X77959900Y-48153300D02*
X77122400Y-48153300D01*
%TO.N,LATCH_HOLD*%
X80568300Y-29421200D02*
X82670800Y-27318700D01*
X35379600Y-28358600D02*
X44983700Y-28358600D01*
X11222500Y-35480900D02*
X28257300Y-35480900D01*
X28257300Y-35480900D02*
X35379600Y-28358600D01*
X79455300Y-29421200D02*
X80568300Y-29421200D01*
%TO.N,SR_MISO*%
X106216100Y-31046200D02*
X83857700Y-31046200D01*
X114563100Y-36662500D02*
X111832400Y-36662500D01*
X115494000Y-35731600D02*
X114563100Y-36662500D01*
X111832400Y-36662500D02*
X106216100Y-31046200D01*
%TO.N,SR_DI23*%
X105834400Y-39535300D02*
X105834400Y-39253000D01*
X121847800Y-40584500D02*
X121847800Y-41163400D01*
X105834400Y-39253000D02*
X103510300Y-36928900D01*
X118575900Y-44435300D02*
X110734400Y-44435300D01*
X121847800Y-41163400D02*
X118575900Y-44435300D01*
X122016600Y-40415700D02*
X121847800Y-40584500D01*
X103510300Y-36928900D02*
X96779100Y-36928900D01*
X96779100Y-36928900D02*
X96103100Y-36252900D01*
X110734400Y-44435300D02*
X105834400Y-39535300D01*
%TO.N,SNS16*%
X115666100Y-48481100D02*
X124783000Y-39364200D01*
X115469200Y-48481100D02*
X115666100Y-48481100D01*
X124783000Y-39364200D02*
X124783000Y-38816600D01*
%TO.N,CH19*%
X118568400Y-54722900D02*
X118724000Y-54567300D01*
X118300000Y-65000000D02*
X118300000Y-54722900D01*
X118300000Y-54722900D02*
X117874000Y-54722900D01*
X103902100Y-40751000D02*
X103902100Y-40325000D01*
X118300000Y-54722900D02*
X118568400Y-54722900D01*
X117874000Y-54722900D02*
X103902100Y-40751000D01*
%TO.N,CH20*%
X121800000Y-65000000D02*
X121800000Y-55662700D01*
X111572900Y-45435600D02*
X111572900Y-45428800D01*
X121800000Y-55662700D02*
X111572900Y-45435600D01*
%TO.N,LED2*%
X63073400Y-11681300D02*
X62323800Y-10931700D01*
X79096000Y-11681300D02*
X63073400Y-11681300D01*
X84446700Y-17032000D02*
X79096000Y-11681300D01*
%TO.N,LATCH_IGN*%
X26018900Y-20850000D02*
X16883600Y-29985300D01*
X50047900Y-3547900D02*
X47025600Y-3547900D01*
X47025600Y-3547900D02*
X29723500Y-20850000D01*
X29723500Y-20850000D02*
X26018900Y-20850000D01*
X51500000Y-5000000D02*
X50047900Y-3547900D01*
%TO.N,USB_DP*%
X112075300Y-2838400D02*
X110436300Y-4477400D01*
X133230500Y-19250000D02*
X116818900Y-2838400D01*
X92406800Y-23428500D02*
X89279800Y-23428500D01*
X110436300Y-4477400D02*
X110436300Y-5399000D01*
X110436300Y-5399000D02*
X92406800Y-23428500D01*
X116818900Y-2838400D02*
X112075300Y-2838400D01*
%TO.N,USB_DM*%
X104469700Y-23721200D02*
X101291300Y-23721200D01*
X106723500Y-25172500D02*
X105921000Y-25172500D01*
X111002600Y-20698200D02*
X108821300Y-22879500D01*
X101291300Y-23721200D02*
X101233800Y-23778700D01*
X108821300Y-23074700D02*
X106723500Y-25172500D01*
X133322200Y-20698200D02*
X111002600Y-20698200D01*
X133322200Y-20698100D02*
X133322200Y-20698200D01*
X108821300Y-22879500D02*
X108821300Y-23074700D01*
X105921000Y-25172500D02*
X104469700Y-23721200D01*
%TO.N,SNS11*%
X73350000Y-51086300D02*
X73350000Y-40777000D01*
X73350000Y-40777000D02*
X78196100Y-35930900D01*
%TO.N,SNS10*%
X81587900Y-39015600D02*
X81587900Y-41731500D01*
X81587900Y-41731500D02*
X73962500Y-49356900D01*
%TO.N,EEP_MOSI*%
X103518600Y-26364500D02*
X111398700Y-34244600D01*
X101847800Y-26364500D02*
X103518600Y-26364500D01*
%TD*%
%TA.AperFunction,Conductor*%
%TO.N,GND*%
G36*
X77617122Y-24725668D02*
G01*
X77644940Y-24724343D01*
X77655019Y-24728378D01*
X77659040Y-24728666D01*
X77677707Y-24737461D01*
X77802616Y-24809577D01*
X77955343Y-24850500D01*
X78017146Y-24850500D01*
X78046586Y-24859144D01*
X78076573Y-24865668D01*
X78081588Y-24869422D01*
X78084185Y-24870185D01*
X78104827Y-24886819D01*
X78179179Y-24961171D01*
X78179189Y-24961182D01*
X78258088Y-25040081D01*
X78289293Y-25058097D01*
X78320500Y-25076114D01*
X78320502Y-25076115D01*
X78349411Y-25092806D01*
X78349412Y-25092806D01*
X78349413Y-25092807D01*
X78451273Y-25120101D01*
X78451275Y-25120101D01*
X78564323Y-25120101D01*
X78564339Y-25120100D01*
X81482645Y-25120100D01*
X81549684Y-25139785D01*
X81595439Y-25192589D01*
X81605383Y-25261747D01*
X81576358Y-25325303D01*
X81570326Y-25331781D01*
X78473322Y-28428784D01*
X78473318Y-28428790D01*
X78420593Y-28520111D01*
X78413497Y-28546598D01*
X78413496Y-28546600D01*
X78393300Y-28621973D01*
X78393300Y-29723945D01*
X78373615Y-29790984D01*
X78356981Y-29811626D01*
X76581822Y-31586784D01*
X76581820Y-31586787D01*
X76577667Y-31593981D01*
X76529093Y-31678112D01*
X76511358Y-31744300D01*
X76511358Y-31744301D01*
X76501800Y-31779969D01*
X76501800Y-32669244D01*
X76482115Y-32736283D01*
X76465481Y-32756925D01*
X75555629Y-33666776D01*
X75494306Y-33700261D01*
X75424614Y-33695277D01*
X75368681Y-33653405D01*
X75350017Y-33617413D01*
X75318418Y-33520164D01*
X75229095Y-33344856D01*
X75173922Y-33268919D01*
X75173921Y-33268918D01*
X74628018Y-33814820D01*
X74625925Y-33807007D01*
X74560099Y-33692993D01*
X74467007Y-33599901D01*
X74352993Y-33534075D01*
X74345175Y-33531980D01*
X74891080Y-32986076D01*
X74815143Y-32930904D01*
X74639835Y-32841581D01*
X74452705Y-32780778D01*
X74258382Y-32750000D01*
X74061618Y-32750000D01*
X73867294Y-32780778D01*
X73680164Y-32841581D01*
X73504856Y-32930904D01*
X73369086Y-33029548D01*
X73303279Y-33053028D01*
X73235225Y-33037203D01*
X73186530Y-32987097D01*
X73172200Y-32929230D01*
X73172200Y-29535043D01*
X73690800Y-29535043D01*
X73690800Y-29693157D01*
X73726003Y-29824534D01*
X73731723Y-29845883D01*
X73731726Y-29845890D01*
X73810775Y-29982809D01*
X73810779Y-29982814D01*
X73810780Y-29982816D01*
X73922584Y-30094620D01*
X73922586Y-30094621D01*
X73922590Y-30094624D01*
X74059509Y-30173673D01*
X74059516Y-30173677D01*
X74212243Y-30214600D01*
X74212245Y-30214600D01*
X74370355Y-30214600D01*
X74370357Y-30214600D01*
X74523084Y-30173677D01*
X74660016Y-30094620D01*
X74703717Y-30050919D01*
X74765040Y-30017434D01*
X74791398Y-30014600D01*
X74898925Y-30014600D01*
X74898927Y-30014600D01*
X75000788Y-29987307D01*
X75092113Y-29934580D01*
X77702374Y-27324319D01*
X77763697Y-27290834D01*
X77790055Y-27288000D01*
X77851855Y-27288000D01*
X77851857Y-27288000D01*
X78004584Y-27247077D01*
X78141516Y-27168020D01*
X78253320Y-27056216D01*
X78332377Y-26919284D01*
X78373300Y-26766557D01*
X78373300Y-26608443D01*
X78332377Y-26455716D01*
X78325357Y-26443557D01*
X78253324Y-26318790D01*
X78253318Y-26318782D01*
X78141517Y-26206981D01*
X78141509Y-26206975D01*
X78004590Y-26127926D01*
X78004586Y-26127924D01*
X78004584Y-26127923D01*
X77851857Y-26087000D01*
X77693743Y-26087000D01*
X77541016Y-26127923D01*
X77541009Y-26127926D01*
X77404090Y-26206975D01*
X77404082Y-26206981D01*
X77292281Y-26318782D01*
X77292275Y-26318790D01*
X77213226Y-26455709D01*
X77213223Y-26455716D01*
X77172300Y-26608443D01*
X77172300Y-26670244D01*
X77152615Y-26737283D01*
X77135981Y-26757925D01*
X74790890Y-29103015D01*
X74729567Y-29136500D01*
X74659875Y-29131516D01*
X74641210Y-29122722D01*
X74523084Y-29054523D01*
X74370357Y-29013600D01*
X74212243Y-29013600D01*
X74059516Y-29054523D01*
X74059509Y-29054526D01*
X73922590Y-29133575D01*
X73922582Y-29133581D01*
X73810781Y-29245382D01*
X73810775Y-29245390D01*
X73731726Y-29382309D01*
X73731723Y-29382316D01*
X73690800Y-29535043D01*
X73172200Y-29535043D01*
X73172200Y-29164355D01*
X73191885Y-29097316D01*
X73208519Y-29076674D01*
X75365910Y-26919283D01*
X77528027Y-24757165D01*
X77552463Y-24743822D01*
X77575149Y-24727668D01*
X77582707Y-24727307D01*
X77589348Y-24723682D01*
X77617122Y-24725668D01*
G37*
%TD.AperFunction*%
%TA.AperFunction,Conductor*%
G36*
X102306053Y-3952585D02*
G01*
X102351808Y-4005389D01*
X102361752Y-4074547D01*
X102339331Y-4129786D01*
X102259423Y-4239767D01*
X102155770Y-4443196D01*
X102085215Y-4660339D01*
X102049500Y-4885837D01*
X102049500Y-5114162D01*
X102085215Y-5339660D01*
X102155770Y-5556803D01*
X102254817Y-5751192D01*
X102259421Y-5760228D01*
X102393621Y-5944937D01*
X102555063Y-6106379D01*
X102739772Y-6240579D01*
X102835884Y-6289550D01*
X102943196Y-6344229D01*
X102943198Y-6344229D01*
X102943201Y-6344231D01*
X103023202Y-6370225D01*
X103160339Y-6414784D01*
X103312229Y-6438841D01*
X103375364Y-6468770D01*
X103412295Y-6528082D01*
X103411297Y-6597944D01*
X103380512Y-6648995D01*
X98271211Y-11758294D01*
X98209888Y-11791779D01*
X98140196Y-11786795D01*
X98084263Y-11744923D01*
X98076143Y-11732613D01*
X98036522Y-11663987D01*
X98036518Y-11663982D01*
X97924717Y-11552181D01*
X97924709Y-11552175D01*
X97787790Y-11473126D01*
X97787786Y-11473124D01*
X97787784Y-11473123D01*
X97635057Y-11432200D01*
X97476943Y-11432200D01*
X97324216Y-11473123D01*
X97324209Y-11473126D01*
X97187290Y-11552175D01*
X97187282Y-11552181D01*
X97075481Y-11663982D01*
X97075475Y-11663990D01*
X96996426Y-11800909D01*
X96996423Y-11800916D01*
X96955500Y-11953643D01*
X96955500Y-12015445D01*
X96935815Y-12082484D01*
X96919181Y-12103126D01*
X91625226Y-17397081D01*
X91563903Y-17430566D01*
X91537545Y-17433400D01*
X90736998Y-17433400D01*
X90669959Y-17413715D01*
X90649317Y-17397081D01*
X90605617Y-17353381D01*
X90605609Y-17353375D01*
X90468690Y-17274326D01*
X90468686Y-17274324D01*
X90468684Y-17274323D01*
X90315957Y-17233400D01*
X90157843Y-17233400D01*
X90005116Y-17274323D01*
X90005109Y-17274326D01*
X89868190Y-17353375D01*
X89868182Y-17353381D01*
X89803036Y-17418526D01*
X89741712Y-17452011D01*
X89672021Y-17447025D01*
X89653361Y-17438234D01*
X89649188Y-17435825D01*
X89649186Y-17435824D01*
X89649184Y-17435823D01*
X89496457Y-17394900D01*
X89338343Y-17394900D01*
X89185616Y-17435823D01*
X89185609Y-17435826D01*
X89048690Y-17514875D01*
X89048682Y-17514881D01*
X88936881Y-17626682D01*
X88936875Y-17626690D01*
X88857826Y-17763609D01*
X88857823Y-17763616D01*
X88816900Y-17916343D01*
X88816900Y-17978144D01*
X88797215Y-18045183D01*
X88780581Y-18065825D01*
X85762135Y-21084270D01*
X85700812Y-21117755D01*
X85631120Y-21112771D01*
X85575187Y-21070899D01*
X85554680Y-21028685D01*
X85516077Y-20884616D01*
X85490413Y-20840164D01*
X85437024Y-20747690D01*
X85437018Y-20747682D01*
X85325217Y-20635881D01*
X85325209Y-20635875D01*
X85188290Y-20556826D01*
X85188286Y-20556824D01*
X85188284Y-20556823D01*
X85035557Y-20515900D01*
X84877443Y-20515900D01*
X84724716Y-20556823D01*
X84724709Y-20556826D01*
X84587790Y-20635875D01*
X84587782Y-20635881D01*
X84475981Y-20747682D01*
X84475975Y-20747690D01*
X84396926Y-20884609D01*
X84396924Y-20884614D01*
X84396923Y-20884616D01*
X84356000Y-21037343D01*
X84356000Y-21195457D01*
X84380481Y-21286819D01*
X84396923Y-21348183D01*
X84396924Y-21348186D01*
X84415196Y-21379834D01*
X84431669Y-21447734D01*
X84408816Y-21513761D01*
X84395490Y-21529515D01*
X83487402Y-22437604D01*
X83426079Y-22471089D01*
X83356388Y-22466105D01*
X83312040Y-22437604D01*
X83194617Y-22320181D01*
X83194609Y-22320175D01*
X83057690Y-22241126D01*
X83057686Y-22241124D01*
X83057684Y-22241123D01*
X82904957Y-22200200D01*
X82904956Y-22200200D01*
X82843154Y-22200200D01*
X82776115Y-22180515D01*
X82755473Y-22163881D01*
X78779210Y-18187617D01*
X78745725Y-18126294D01*
X78750709Y-18056602D01*
X78792581Y-18000669D01*
X78858045Y-17976252D01*
X78926318Y-17991104D01*
X78928892Y-17992549D01*
X78934485Y-17995778D01*
X78934487Y-17995780D01*
X78994622Y-18030499D01*
X79023764Y-18047325D01*
X79025812Y-18048507D01*
X79127673Y-18075800D01*
X79127675Y-18075800D01*
X84814225Y-18075800D01*
X84814227Y-18075800D01*
X84916088Y-18048507D01*
X85007413Y-17995780D01*
X85408080Y-17595113D01*
X85460807Y-17503788D01*
X85488100Y-17401927D01*
X85488100Y-17296473D01*
X85488100Y-16830411D01*
X85504713Y-16768411D01*
X85516737Y-16747584D01*
X85576377Y-16644284D01*
X85617300Y-16491557D01*
X85617300Y-16333443D01*
X85576377Y-16180716D01*
X85576373Y-16180709D01*
X85497324Y-16043790D01*
X85497318Y-16043782D01*
X85385517Y-15931981D01*
X85385509Y-15931975D01*
X85248590Y-15852926D01*
X85248586Y-15852924D01*
X85248584Y-15852923D01*
X85095857Y-15812000D01*
X84937743Y-15812000D01*
X84785016Y-15852923D01*
X84785009Y-15852926D01*
X84648090Y-15931975D01*
X84648082Y-15931981D01*
X84536281Y-16043782D01*
X84536275Y-16043790D01*
X84457226Y-16180709D01*
X84457222Y-16180718D01*
X84450381Y-16206249D01*
X84414015Y-16265908D01*
X84351168Y-16296436D01*
X84281792Y-16288140D01*
X84242926Y-16261834D01*
X79486974Y-11505881D01*
X79453489Y-11444558D01*
X79458473Y-11374866D01*
X79500345Y-11318933D01*
X79565809Y-11294516D01*
X79574655Y-11294200D01*
X81326225Y-11294200D01*
X81326227Y-11294200D01*
X81428088Y-11266907D01*
X81519413Y-11214180D01*
X86826010Y-5907581D01*
X86826013Y-5907580D01*
X86895774Y-5837818D01*
X86957093Y-5804336D01*
X86957095Y-5804335D01*
X86996925Y-5807184D01*
X87026785Y-5809320D01*
X87026786Y-5809320D01*
X87026787Y-5809321D01*
X87036668Y-5816718D01*
X87082719Y-5851191D01*
X87094592Y-5873057D01*
X87095372Y-5872671D01*
X87182967Y-6049292D01*
X87182969Y-6049295D01*
X87302277Y-6197721D01*
X87302278Y-6197722D01*
X87450704Y-6317030D01*
X87450707Y-6317032D01*
X87621302Y-6401639D01*
X87621303Y-6401639D01*
X87621307Y-6401641D01*
X87806111Y-6447600D01*
X87848877Y-6450500D01*
X89151122Y-6450499D01*
X89193889Y-6447600D01*
X89378693Y-6401641D01*
X89549296Y-6317030D01*
X89697722Y-6197722D01*
X89817030Y-6049296D01*
X89901641Y-5878693D01*
X89947600Y-5693889D01*
X89950500Y-5651123D01*
X89950499Y-4348878D01*
X89947600Y-4306111D01*
X89947599Y-4306105D01*
X89947599Y-4306104D01*
X89927213Y-4224133D01*
X89927668Y-4213254D01*
X89923863Y-4203051D01*
X89929104Y-4178955D01*
X89930136Y-4154324D01*
X89936790Y-4143624D01*
X89938715Y-4134778D01*
X89959859Y-4106532D01*
X90097175Y-3969216D01*
X90158498Y-3935734D01*
X90184855Y-3932900D01*
X102239014Y-3932900D01*
X102306053Y-3952585D01*
G37*
%TD.AperFunction*%
%TA.AperFunction,Conductor*%
G36*
X105483483Y-5751192D02*
G01*
X105511601Y-5753203D01*
X105517369Y-5757521D01*
X105524452Y-5758844D01*
X105544968Y-5778182D01*
X105567534Y-5795075D01*
X105571293Y-5802995D01*
X105575296Y-5806768D01*
X105588601Y-5839458D01*
X105598357Y-5878689D01*
X105598360Y-5878696D01*
X105682967Y-6049292D01*
X105682969Y-6049295D01*
X105802277Y-6197721D01*
X105802278Y-6197722D01*
X105950704Y-6317030D01*
X105950707Y-6317032D01*
X106121302Y-6401639D01*
X106121303Y-6401639D01*
X106121307Y-6401641D01*
X106306111Y-6447600D01*
X106348877Y-6450500D01*
X107651122Y-6450499D01*
X107693889Y-6447600D01*
X107878693Y-6401641D01*
X107942038Y-6370224D01*
X108010840Y-6358073D01*
X108075292Y-6385049D01*
X108114929Y-6442588D01*
X108117165Y-6512422D01*
X108084812Y-6568994D01*
X95577581Y-19076226D01*
X95516258Y-19109711D01*
X95446566Y-19104727D01*
X95390633Y-19062855D01*
X95366216Y-18997391D01*
X95365900Y-18988545D01*
X95365900Y-18381498D01*
X95385585Y-18314459D01*
X95402219Y-18293817D01*
X95445920Y-18250116D01*
X95524977Y-18113184D01*
X95565900Y-17960457D01*
X95565900Y-17802343D01*
X95524977Y-17649616D01*
X95493510Y-17595113D01*
X95445924Y-17512690D01*
X95445918Y-17512682D01*
X95334117Y-17400881D01*
X95334109Y-17400875D01*
X95197190Y-17321826D01*
X95197186Y-17321824D01*
X95197184Y-17321823D01*
X95044457Y-17280900D01*
X94886343Y-17280900D01*
X94733616Y-17321823D01*
X94733609Y-17321826D01*
X94596690Y-17400875D01*
X94596682Y-17400881D01*
X94484881Y-17512682D01*
X94484875Y-17512690D01*
X94405826Y-17649609D01*
X94405823Y-17649616D01*
X94364900Y-17802343D01*
X94364900Y-17960457D01*
X94402624Y-18101243D01*
X94405823Y-18113183D01*
X94405826Y-18113190D01*
X94484875Y-18250109D01*
X94484881Y-18250117D01*
X94528581Y-18293817D01*
X94562066Y-18355140D01*
X94564900Y-18381498D01*
X94564900Y-19186645D01*
X94545215Y-19253684D01*
X94528581Y-19274326D01*
X92999326Y-20803581D01*
X92938003Y-20837066D01*
X92911645Y-20839900D01*
X92849843Y-20839900D01*
X92697116Y-20880823D01*
X92697109Y-20880826D01*
X92560190Y-20959875D01*
X92560182Y-20959881D01*
X92448379Y-21071684D01*
X92443196Y-21080663D01*
X92392628Y-21128878D01*
X92324021Y-21142100D01*
X92273810Y-21126050D01*
X92208984Y-21088623D01*
X92179277Y-21080663D01*
X92056257Y-21047700D01*
X91898143Y-21047700D01*
X91745416Y-21088623D01*
X91745409Y-21088626D01*
X91608490Y-21167675D01*
X91608482Y-21167681D01*
X91496681Y-21279482D01*
X91496675Y-21279490D01*
X91417626Y-21416409D01*
X91417623Y-21416416D01*
X91376700Y-21569143D01*
X91376700Y-21630945D01*
X91357015Y-21697984D01*
X91340381Y-21718626D01*
X91126826Y-21932181D01*
X91065503Y-21965666D01*
X91039145Y-21968500D01*
X89593988Y-21968500D01*
X89526949Y-21948815D01*
X89481194Y-21896011D01*
X89471250Y-21826853D01*
X89474214Y-21812405D01*
X89477582Y-21799835D01*
X89478300Y-21797157D01*
X89478300Y-21735353D01*
X89497985Y-21668314D01*
X89514614Y-21647677D01*
X105380588Y-5781702D01*
X105386909Y-5778250D01*
X105391056Y-5772357D01*
X105417169Y-5761727D01*
X105441909Y-5748219D01*
X105449095Y-5748732D01*
X105455770Y-5746016D01*
X105483483Y-5751192D01*
G37*
%TD.AperFunction*%
%TA.AperFunction,Conductor*%
G36*
X132895000Y-16586000D02*
G01*
X132875315Y-16653039D01*
X132822511Y-16698794D01*
X132803112Y-16705770D01*
X132693838Y-16735068D01*
X132641138Y-16813940D01*
X132641128Y-16813958D01*
X132591688Y-16933321D01*
X132589925Y-16932590D01*
X132556471Y-16983618D01*
X132492654Y-17012063D01*
X132423589Y-17001491D01*
X132388444Y-16976851D01*
X132203273Y-16791681D01*
X132169788Y-16730358D01*
X132174772Y-16660667D01*
X132216643Y-16604733D01*
X132282108Y-16580316D01*
X132290954Y-16580000D01*
X132494999Y-16580000D01*
X132495000Y-16579999D01*
X132495000Y-15980000D01*
X132895000Y-15980000D01*
X132895000Y-16586000D01*
G37*
%TD.AperFunction*%
%TA.AperFunction,Conductor*%
G36*
X137003736Y-500726D02*
G01*
X137293797Y-518271D01*
X137308660Y-520076D01*
X137590798Y-571780D01*
X137605335Y-575363D01*
X137879172Y-660695D01*
X137893163Y-666000D01*
X138154743Y-783727D01*
X138167989Y-790680D01*
X138413465Y-939075D01*
X138425776Y-947573D01*
X138651573Y-1124473D01*
X138662781Y-1134403D01*
X138865596Y-1337218D01*
X138875525Y-1348425D01*
X138995481Y-1501538D01*
X139052422Y-1574217D01*
X139060928Y-1586540D01*
X139209316Y-1832004D01*
X139216275Y-1845263D01*
X139333997Y-2106831D01*
X139339306Y-2120832D01*
X139424635Y-2394663D01*
X139428219Y-2409201D01*
X139479923Y-2691339D01*
X139481728Y-2706204D01*
X139499274Y-2996263D01*
X139499500Y-3003750D01*
X139499500Y-66996249D01*
X139499274Y-67003736D01*
X139481728Y-67293794D01*
X139479923Y-67308659D01*
X139428219Y-67590797D01*
X139424635Y-67605335D01*
X139339304Y-67879174D01*
X139333994Y-67893176D01*
X139216277Y-68154730D01*
X139209319Y-68167987D01*
X139060928Y-68413458D01*
X139052422Y-68425782D01*
X138875525Y-68651573D01*
X138865595Y-68662781D01*
X138662781Y-68865595D01*
X138651573Y-68875525D01*
X138425782Y-69052422D01*
X138413458Y-69060928D01*
X138167987Y-69209319D01*
X138154730Y-69216277D01*
X137893176Y-69333994D01*
X137879174Y-69339304D01*
X137605335Y-69424635D01*
X137590797Y-69428219D01*
X137308659Y-69479923D01*
X137293794Y-69481728D01*
X137003736Y-69499274D01*
X136996249Y-69499500D01*
X3003751Y-69499500D01*
X2996264Y-69499274D01*
X2706204Y-69481728D01*
X2691339Y-69479923D01*
X2409201Y-69428219D01*
X2394663Y-69424635D01*
X2120832Y-69339306D01*
X2106831Y-69333997D01*
X1845263Y-69216275D01*
X1832004Y-69209316D01*
X1586537Y-69060926D01*
X1574217Y-69052422D01*
X1348426Y-68875526D01*
X1337218Y-68865596D01*
X1134403Y-68662781D01*
X1124473Y-68651573D01*
X947573Y-68425776D01*
X939075Y-68413465D01*
X790679Y-68167987D01*
X783727Y-68154743D01*
X666000Y-67893163D01*
X660693Y-67879167D01*
X575364Y-67605336D01*
X571780Y-67590798D01*
X520076Y-67308660D01*
X518271Y-67293795D01*
X500726Y-67003736D01*
X500500Y-66996249D01*
X500500Y-64878711D01*
X3149500Y-64878711D01*
X3149500Y-65121288D01*
X3181161Y-65361785D01*
X3243947Y-65596104D01*
X3336773Y-65820205D01*
X3336776Y-65820212D01*
X3458064Y-66030289D01*
X3458066Y-66030292D01*
X3458067Y-66030293D01*
X3605733Y-66222736D01*
X3605739Y-66222743D01*
X3777256Y-66394260D01*
X3777263Y-66394266D01*
X3804003Y-66414784D01*
X3969711Y-66541936D01*
X4179788Y-66663224D01*
X4403900Y-66756054D01*
X4638211Y-66818838D01*
X4818586Y-66842584D01*
X4878711Y-66850500D01*
X4878712Y-66850500D01*
X5121289Y-66850500D01*
X5169388Y-66844167D01*
X5361789Y-66818838D01*
X5596100Y-66756054D01*
X5820212Y-66663224D01*
X6030289Y-66541936D01*
X6222738Y-66394265D01*
X6394265Y-66222738D01*
X6541936Y-66030289D01*
X6663224Y-65820212D01*
X6756054Y-65596100D01*
X6818838Y-65361789D01*
X6850500Y-65121288D01*
X6850500Y-64878712D01*
X6818838Y-64638211D01*
X6756054Y-64403900D01*
X6755711Y-64403073D01*
X6733263Y-64348877D01*
X6663224Y-64179788D01*
X6541936Y-63969711D01*
X6428537Y-63821926D01*
X6394266Y-63777263D01*
X6394260Y-63777256D01*
X6222743Y-63605739D01*
X6222736Y-63605733D01*
X6030293Y-63458067D01*
X6030292Y-63458066D01*
X6030289Y-63458064D01*
X5820212Y-63336776D01*
X5820205Y-63336773D01*
X5596104Y-63243947D01*
X5361785Y-63181161D01*
X5121289Y-63149500D01*
X5121288Y-63149500D01*
X4878712Y-63149500D01*
X4878711Y-63149500D01*
X4638214Y-63181161D01*
X4403895Y-63243947D01*
X4179794Y-63336773D01*
X4179785Y-63336777D01*
X3969706Y-63458067D01*
X3777263Y-63605733D01*
X3777256Y-63605739D01*
X3605739Y-63777256D01*
X3605733Y-63777263D01*
X3458067Y-63969706D01*
X3336777Y-64179785D01*
X3336773Y-64179794D01*
X3243947Y-64403895D01*
X3181161Y-64638214D01*
X3149500Y-64878711D01*
X500500Y-64878711D01*
X500500Y-49920943D01*
X10138700Y-49920943D01*
X10138700Y-50079056D01*
X10179623Y-50231783D01*
X10179626Y-50231790D01*
X10258675Y-50368709D01*
X10258679Y-50368714D01*
X10258680Y-50368716D01*
X10370484Y-50480520D01*
X10370486Y-50480521D01*
X10370490Y-50480524D01*
X10507409Y-50559573D01*
X10507416Y-50559577D01*
X10660143Y-50600500D01*
X10660145Y-50600500D01*
X10818255Y-50600500D01*
X10818257Y-50600500D01*
X10970984Y-50559577D01*
X11107916Y-50480520D01*
X11219720Y-50368716D01*
X11298777Y-50231784D01*
X11339700Y-50079057D01*
X11339700Y-49920943D01*
X11298777Y-49768216D01*
X11240595Y-49667441D01*
X11219724Y-49631290D01*
X11219718Y-49631282D01*
X11176019Y-49587583D01*
X11142534Y-49526260D01*
X11139700Y-49499902D01*
X11139700Y-42476355D01*
X11159385Y-42409316D01*
X11176019Y-42388674D01*
X14457019Y-39107674D01*
X14518342Y-39074189D01*
X14588034Y-39079173D01*
X14643967Y-39121045D01*
X14668384Y-39186509D01*
X14668700Y-39195355D01*
X14668700Y-63821926D01*
X14695993Y-63923789D01*
X14711533Y-63950704D01*
X14748720Y-64015113D01*
X14748722Y-64015115D01*
X14840132Y-64106525D01*
X14873617Y-64167848D01*
X14872786Y-64224130D01*
X14852401Y-64306103D01*
X14852401Y-64306105D01*
X14852400Y-64306111D01*
X14852400Y-64306113D01*
X14849500Y-64348879D01*
X14849500Y-65651122D01*
X14849501Y-65651125D01*
X14852399Y-65693886D01*
X14852399Y-65693887D01*
X14859954Y-65724264D01*
X14898359Y-65878693D01*
X14898359Y-65878694D01*
X14898360Y-65878696D01*
X14982967Y-66049292D01*
X14982969Y-66049295D01*
X15102277Y-66197721D01*
X15102278Y-66197722D01*
X15250704Y-66317030D01*
X15250707Y-66317032D01*
X15421302Y-66401639D01*
X15421303Y-66401639D01*
X15421307Y-66401641D01*
X15606111Y-66447600D01*
X15648877Y-66450500D01*
X16951122Y-66450499D01*
X16993889Y-66447600D01*
X17178693Y-66401641D01*
X17349296Y-66317030D01*
X17497722Y-66197722D01*
X17617030Y-66049296D01*
X17701641Y-65878693D01*
X17747600Y-65693889D01*
X17750500Y-65651123D01*
X17750499Y-64348878D01*
X17747600Y-64306111D01*
X17701641Y-64121307D01*
X17689509Y-64096844D01*
X17617032Y-63950707D01*
X17617030Y-63950704D01*
X17497722Y-63802278D01*
X17497721Y-63802277D01*
X17349295Y-63682969D01*
X17349292Y-63682967D01*
X17178697Y-63598360D01*
X16993892Y-63552400D01*
X16972506Y-63550950D01*
X16951123Y-63549500D01*
X16951120Y-63549500D01*
X15648877Y-63549500D01*
X15648869Y-63549501D01*
X15602084Y-63552672D01*
X15533867Y-63537566D01*
X15484647Y-63487976D01*
X15469700Y-63428956D01*
X15469700Y-61535455D01*
X15489385Y-61468416D01*
X15542189Y-61422661D01*
X15611347Y-61412717D01*
X15674903Y-61441742D01*
X15681381Y-61447774D01*
X18466673Y-64233066D01*
X18500158Y-64294389D01*
X18495174Y-64364081D01*
X18489478Y-64377040D01*
X18455771Y-64443196D01*
X18385215Y-64660339D01*
X18349500Y-64885837D01*
X18349500Y-65114162D01*
X18385215Y-65339660D01*
X18455770Y-65556803D01*
X18541096Y-65724264D01*
X18559421Y-65760228D01*
X18693621Y-65944937D01*
X18855063Y-66106379D01*
X19039772Y-66240579D01*
X19135884Y-66289550D01*
X19243196Y-66344229D01*
X19243198Y-66344229D01*
X19243201Y-66344231D01*
X19359592Y-66382049D01*
X19460339Y-66414784D01*
X19685838Y-66450500D01*
X19685843Y-66450500D01*
X19914162Y-66450500D01*
X20139660Y-66414784D01*
X20356799Y-66344231D01*
X20560228Y-66240579D01*
X20744937Y-66106379D01*
X20906379Y-65944937D01*
X21040579Y-65760228D01*
X21144231Y-65556799D01*
X21214784Y-65339660D01*
X21249371Y-65121288D01*
X21250500Y-65114162D01*
X21250500Y-64885837D01*
X21214784Y-64660339D01*
X21144229Y-64443196D01*
X21069621Y-64296770D01*
X21040579Y-64239772D01*
X20906379Y-64055063D01*
X20744937Y-63893621D01*
X20560228Y-63759421D01*
X20475938Y-63716473D01*
X20356803Y-63655770D01*
X20139660Y-63585215D01*
X19914162Y-63549500D01*
X19914157Y-63549500D01*
X19685843Y-63549500D01*
X19685838Y-63549500D01*
X19460339Y-63585215D01*
X19313818Y-63632824D01*
X19243201Y-63655769D01*
X19243198Y-63655770D01*
X19243196Y-63655771D01*
X19177040Y-63689478D01*
X19108370Y-63702373D01*
X19043631Y-63676095D01*
X19033066Y-63666673D01*
X15907719Y-60541326D01*
X15874234Y-60480003D01*
X15871400Y-60453645D01*
X15871400Y-53391254D01*
X15891085Y-53324215D01*
X15943889Y-53278460D01*
X16013047Y-53268516D01*
X16076603Y-53297541D01*
X16083081Y-53303573D01*
X16586781Y-53807273D01*
X16620266Y-53868596D01*
X16623100Y-53894954D01*
X16623100Y-53956757D01*
X16657940Y-54086780D01*
X16664023Y-54109483D01*
X16664026Y-54109490D01*
X16743075Y-54246409D01*
X16743081Y-54246417D01*
X16786781Y-54290117D01*
X16820266Y-54351440D01*
X16823100Y-54377798D01*
X16823100Y-58976326D01*
X16850393Y-59078189D01*
X16876756Y-59123850D01*
X16903120Y-59169513D01*
X16903122Y-59169515D01*
X21966673Y-64233066D01*
X22000158Y-64294389D01*
X21995174Y-64364081D01*
X21989478Y-64377040D01*
X21955771Y-64443196D01*
X21885215Y-64660339D01*
X21849500Y-64885837D01*
X21849500Y-65114162D01*
X21885215Y-65339660D01*
X21955770Y-65556803D01*
X22041096Y-65724264D01*
X22059421Y-65760228D01*
X22193621Y-65944937D01*
X22355063Y-66106379D01*
X22539772Y-66240579D01*
X22635884Y-66289550D01*
X22743196Y-66344229D01*
X22743198Y-66344229D01*
X22743201Y-66344231D01*
X22859592Y-66382049D01*
X22960339Y-66414784D01*
X23185838Y-66450500D01*
X23185843Y-66450500D01*
X23414162Y-66450500D01*
X23639660Y-66414784D01*
X23856799Y-66344231D01*
X24060228Y-66240579D01*
X24244937Y-66106379D01*
X24406379Y-65944937D01*
X24540579Y-65760228D01*
X24644231Y-65556799D01*
X24714784Y-65339660D01*
X24749371Y-65121288D01*
X24750500Y-65114162D01*
X24750500Y-64885837D01*
X24714784Y-64660339D01*
X24644229Y-64443196D01*
X24569621Y-64296770D01*
X24540579Y-64239772D01*
X24406379Y-64055063D01*
X24244937Y-63893621D01*
X24060228Y-63759421D01*
X23975938Y-63716473D01*
X23856803Y-63655770D01*
X23639660Y-63585215D01*
X23414162Y-63549500D01*
X23414157Y-63549500D01*
X23185843Y-63549500D01*
X23185838Y-63549500D01*
X22960339Y-63585215D01*
X22813818Y-63632824D01*
X22743201Y-63655769D01*
X22743198Y-63655770D01*
X22743196Y-63655771D01*
X22677040Y-63689478D01*
X22608370Y-63702373D01*
X22543631Y-63676095D01*
X22533066Y-63666673D01*
X17660419Y-58794026D01*
X17626934Y-58732703D01*
X17624100Y-58706345D01*
X17624100Y-54377798D01*
X17643785Y-54310759D01*
X17660419Y-54290117D01*
X17681853Y-54268683D01*
X17704120Y-54246416D01*
X17783177Y-54109484D01*
X17824100Y-53956757D01*
X17824100Y-53798643D01*
X17783177Y-53645916D01*
X17779757Y-53639993D01*
X17704124Y-53508990D01*
X17704118Y-53508982D01*
X17592317Y-53397181D01*
X17592309Y-53397175D01*
X17455390Y-53318126D01*
X17455386Y-53318124D01*
X17455384Y-53318123D01*
X17302657Y-53277200D01*
X17302656Y-53277200D01*
X17240854Y-53277200D01*
X17173815Y-53257515D01*
X17153173Y-53240881D01*
X16309419Y-52397126D01*
X16275934Y-52335803D01*
X16273100Y-52309445D01*
X16273100Y-42789554D01*
X16292785Y-42722515D01*
X16345589Y-42676760D01*
X16414747Y-42666816D01*
X16478303Y-42695841D01*
X16484781Y-42701873D01*
X26363181Y-52580273D01*
X26396666Y-52641596D01*
X26399500Y-52667954D01*
X26399500Y-63514893D01*
X26379815Y-63581932D01*
X26327011Y-63627687D01*
X26313824Y-63632821D01*
X26288495Y-63641051D01*
X26243196Y-63655770D01*
X26039771Y-63759421D01*
X25855061Y-63893622D01*
X25693622Y-64055061D01*
X25559421Y-64239771D01*
X25455770Y-64443196D01*
X25385215Y-64660339D01*
X25349500Y-64885837D01*
X25349500Y-65114162D01*
X25385215Y-65339660D01*
X25455770Y-65556803D01*
X25541096Y-65724264D01*
X25559421Y-65760228D01*
X25693621Y-65944937D01*
X25855063Y-66106379D01*
X26039772Y-66240579D01*
X26135884Y-66289550D01*
X26243196Y-66344229D01*
X26243198Y-66344229D01*
X26243201Y-66344231D01*
X26359592Y-66382049D01*
X26460339Y-66414784D01*
X26685838Y-66450500D01*
X26685843Y-66450500D01*
X26914162Y-66450500D01*
X27139660Y-66414784D01*
X27356799Y-66344231D01*
X27560228Y-66240579D01*
X27744937Y-66106379D01*
X27906379Y-65944937D01*
X28040579Y-65760228D01*
X28086519Y-65670064D01*
X28134493Y-65619269D01*
X28202314Y-65602473D01*
X28268449Y-65625010D01*
X28284685Y-65638678D01*
X29370818Y-66724810D01*
X29370820Y-66724813D01*
X29445387Y-66799380D01*
X29496183Y-66828707D01*
X29536713Y-66852107D01*
X29638574Y-66879401D01*
X29638577Y-66879401D01*
X29751623Y-66879401D01*
X29751639Y-66879400D01*
X35873825Y-66879400D01*
X35873827Y-66879400D01*
X35975688Y-66852107D01*
X36067013Y-66799380D01*
X36533068Y-66333323D01*
X36594389Y-66299840D01*
X36664080Y-66304824D01*
X36677042Y-66310521D01*
X36743196Y-66344229D01*
X36743198Y-66344229D01*
X36743201Y-66344231D01*
X36859592Y-66382049D01*
X36960339Y-66414784D01*
X37185838Y-66450500D01*
X37185843Y-66450500D01*
X37414162Y-66450500D01*
X37639660Y-66414784D01*
X37856799Y-66344231D01*
X38060228Y-66240579D01*
X38244937Y-66106379D01*
X38406379Y-65944937D01*
X38540579Y-65760228D01*
X38644231Y-65556799D01*
X38714784Y-65339660D01*
X38749371Y-65121288D01*
X38750500Y-65114162D01*
X38750500Y-64885837D01*
X38714784Y-64660339D01*
X38644229Y-64443196D01*
X38569621Y-64296770D01*
X38540579Y-64239772D01*
X38406379Y-64055063D01*
X38244937Y-63893621D01*
X38060228Y-63759421D01*
X37975938Y-63716473D01*
X37856803Y-63655770D01*
X37639660Y-63585215D01*
X37414162Y-63549500D01*
X37414157Y-63549500D01*
X37185843Y-63549500D01*
X37185838Y-63549500D01*
X36960339Y-63585215D01*
X36743196Y-63655770D01*
X36539771Y-63759421D01*
X36355061Y-63893622D01*
X36193622Y-64055061D01*
X36059421Y-64239771D01*
X35955770Y-64443196D01*
X35885215Y-64660339D01*
X35849500Y-64885837D01*
X35849500Y-65114162D01*
X35885215Y-65339660D01*
X35955771Y-65556806D01*
X35989477Y-65622957D01*
X36002373Y-65691626D01*
X35976096Y-65756366D01*
X35966674Y-65766932D01*
X35691524Y-66042082D01*
X35630204Y-66075566D01*
X35603845Y-66078400D01*
X35052776Y-66078400D01*
X34985737Y-66058715D01*
X34939982Y-66005911D01*
X34930038Y-65936753D01*
X34952456Y-65881516D01*
X35040579Y-65760228D01*
X35144231Y-65556799D01*
X35214784Y-65339660D01*
X35249371Y-65121288D01*
X35250500Y-65114162D01*
X35250500Y-64885837D01*
X35214784Y-64660339D01*
X35144229Y-64443196D01*
X35069621Y-64296770D01*
X35040579Y-64239772D01*
X34906379Y-64055063D01*
X34744937Y-63893621D01*
X34560228Y-63759421D01*
X34475938Y-63716473D01*
X34356803Y-63655770D01*
X34324184Y-63645171D01*
X34286180Y-63632823D01*
X34228506Y-63593386D01*
X34201308Y-63529027D01*
X34200500Y-63514893D01*
X34200500Y-56045475D01*
X34200500Y-56045473D01*
X34173207Y-55943613D01*
X34173207Y-55943612D01*
X34120480Y-55852287D01*
X18811519Y-40543326D01*
X18778034Y-40482003D01*
X18775200Y-40455645D01*
X18775200Y-40393845D01*
X18775200Y-40393843D01*
X18734277Y-40241116D01*
X18717844Y-40212653D01*
X18655224Y-40104190D01*
X18655218Y-40104182D01*
X18543417Y-39992381D01*
X18543409Y-39992375D01*
X18406490Y-39913326D01*
X18406486Y-39913324D01*
X18406484Y-39913323D01*
X18253757Y-39872400D01*
X18095643Y-39872400D01*
X17942916Y-39913323D01*
X17942909Y-39913326D01*
X17805990Y-39992375D01*
X17805982Y-39992381D01*
X17694181Y-40104182D01*
X17694177Y-40104188D01*
X17687559Y-40115650D01*
X17636990Y-40163864D01*
X17568382Y-40177084D01*
X17503518Y-40151113D01*
X17474258Y-40118126D01*
X17465430Y-40103625D01*
X17463177Y-40095216D01*
X17384120Y-39958284D01*
X17365787Y-39939951D01*
X17358060Y-39927258D01*
X17352719Y-39907283D01*
X17342810Y-39889136D01*
X17343877Y-39874212D01*
X17340013Y-39859760D01*
X17346318Y-39840069D01*
X17347794Y-39819444D01*
X17356759Y-39807467D01*
X17361323Y-39793219D01*
X17377276Y-39780061D01*
X17389666Y-39763511D01*
X17408342Y-39754439D01*
X17415225Y-39748763D01*
X17419170Y-39748293D01*
X17418877Y-39747586D01*
X17426373Y-39744479D01*
X17426384Y-39744477D01*
X17563316Y-39665420D01*
X17675120Y-39553616D01*
X17754177Y-39416684D01*
X17795100Y-39263957D01*
X17795100Y-39105843D01*
X17754177Y-38953116D01*
X17725116Y-38902780D01*
X17675124Y-38816190D01*
X17675118Y-38816182D01*
X17563317Y-38704381D01*
X17563309Y-38704375D01*
X17426390Y-38625326D01*
X17426386Y-38625324D01*
X17426384Y-38625323D01*
X17273657Y-38584400D01*
X17115543Y-38584400D01*
X17102260Y-38587958D01*
X17032412Y-38586294D01*
X16974550Y-38547130D01*
X16947048Y-38482901D01*
X16958636Y-38413999D01*
X16982488Y-38380503D01*
X17145980Y-38217013D01*
X17198707Y-38125688D01*
X17226000Y-38023827D01*
X17226000Y-37918373D01*
X17226000Y-37701498D01*
X17245685Y-37634459D01*
X17262319Y-37613817D01*
X17272081Y-37604055D01*
X17306020Y-37570116D01*
X17385077Y-37433184D01*
X17426000Y-37280457D01*
X17426000Y-37122343D01*
X17385077Y-36969616D01*
X17356026Y-36919297D01*
X17306024Y-36832690D01*
X17306018Y-36832682D01*
X17227217Y-36753881D01*
X17193732Y-36692558D01*
X17198716Y-36622866D01*
X17240588Y-36566933D01*
X17306052Y-36542516D01*
X17314898Y-36542200D01*
X30085100Y-36542200D01*
X30152139Y-36561885D01*
X30197894Y-36614689D01*
X30209100Y-36666200D01*
X30209100Y-36671643D01*
X30209100Y-36829757D01*
X30248014Y-36974984D01*
X30250023Y-36982483D01*
X30250026Y-36982490D01*
X30329075Y-37119409D01*
X30329081Y-37119417D01*
X30374880Y-37165216D01*
X30405540Y-37221367D01*
X30406997Y-37220977D01*
X30409100Y-37228825D01*
X30409100Y-37228827D01*
X30412635Y-37242020D01*
X30436393Y-37330689D01*
X30455674Y-37364084D01*
X30489120Y-37422013D01*
X30489122Y-37422015D01*
X33987881Y-40920774D01*
X34021366Y-40982097D01*
X34024200Y-41008455D01*
X34024200Y-41070257D01*
X34060788Y-41206803D01*
X34065123Y-41222983D01*
X34065126Y-41222990D01*
X34144175Y-41359909D01*
X34144179Y-41359914D01*
X34144180Y-41359916D01*
X34255984Y-41471720D01*
X34255986Y-41471721D01*
X34255990Y-41471724D01*
X34381569Y-41544226D01*
X34392916Y-41550777D01*
X34545643Y-41591700D01*
X34607445Y-41591700D01*
X34674484Y-41611385D01*
X34695126Y-41628019D01*
X35447926Y-42380819D01*
X35481411Y-42442142D01*
X35476427Y-42511834D01*
X35434555Y-42567767D01*
X35369091Y-42592184D01*
X35360245Y-42592500D01*
X30060154Y-42592500D01*
X29993115Y-42572815D01*
X29972473Y-42556181D01*
X28684419Y-41268126D01*
X28650934Y-41206803D01*
X28648100Y-41180445D01*
X28648100Y-41118645D01*
X28648100Y-41118643D01*
X28607177Y-40965916D01*
X28584347Y-40926373D01*
X28528124Y-40828990D01*
X28528118Y-40828982D01*
X28416317Y-40717181D01*
X28416309Y-40717175D01*
X28279390Y-40638126D01*
X28279386Y-40638124D01*
X28279384Y-40638123D01*
X28126657Y-40597200D01*
X27968543Y-40597200D01*
X27815816Y-40638123D01*
X27815809Y-40638126D01*
X27678890Y-40717175D01*
X27678882Y-40717181D01*
X27567081Y-40828982D01*
X27567075Y-40828990D01*
X27488026Y-40965909D01*
X27488023Y-40965916D01*
X27447100Y-41118643D01*
X27447100Y-41276757D01*
X27484326Y-41415684D01*
X27488023Y-41429483D01*
X27488026Y-41429490D01*
X27567075Y-41566409D01*
X27567079Y-41566414D01*
X27567080Y-41566416D01*
X27678884Y-41678220D01*
X27678886Y-41678221D01*
X27678890Y-41678224D01*
X27781410Y-41737413D01*
X27815816Y-41757277D01*
X27968543Y-41798200D01*
X28030345Y-41798200D01*
X28097384Y-41817885D01*
X28118026Y-41834519D01*
X29522418Y-43238910D01*
X29522420Y-43238913D01*
X29596987Y-43313480D01*
X29664421Y-43352413D01*
X29672541Y-43357101D01*
X29688307Y-43366204D01*
X29688310Y-43366206D01*
X29688312Y-43366206D01*
X29688313Y-43366207D01*
X29790173Y-43393501D01*
X29790175Y-43393501D01*
X29903223Y-43393501D01*
X29903239Y-43393500D01*
X33701402Y-43393500D01*
X33768441Y-43413185D01*
X33814196Y-43465989D01*
X33824140Y-43535147D01*
X33797330Y-43593851D01*
X33798226Y-43594539D01*
X33795238Y-43598431D01*
X33795115Y-43598703D01*
X33794635Y-43599217D01*
X33793275Y-43600990D01*
X33714226Y-43737909D01*
X33714223Y-43737916D01*
X33673300Y-43890643D01*
X33673300Y-44048757D01*
X33675069Y-44055357D01*
X33714223Y-44201483D01*
X33714226Y-44201490D01*
X33793275Y-44338409D01*
X33793279Y-44338414D01*
X33793280Y-44338416D01*
X33905084Y-44450220D01*
X33905086Y-44450221D01*
X33905090Y-44450224D01*
X34042009Y-44529273D01*
X34042016Y-44529277D01*
X34194743Y-44570200D01*
X34194745Y-44570200D01*
X34352855Y-44570200D01*
X34352857Y-44570200D01*
X34505584Y-44529277D01*
X34642516Y-44450220D01*
X34686217Y-44406519D01*
X34747540Y-44373034D01*
X34773898Y-44370200D01*
X56157625Y-44370200D01*
X56157627Y-44370200D01*
X56259488Y-44342907D01*
X56350813Y-44290180D01*
X57119719Y-43521274D01*
X57181042Y-43487789D01*
X57250734Y-43492773D01*
X57306667Y-43534645D01*
X57331084Y-43600109D01*
X57331400Y-43608955D01*
X57331400Y-62484626D01*
X57358693Y-62586489D01*
X57385056Y-62632150D01*
X57411420Y-62677813D01*
X57411422Y-62677815D01*
X58840132Y-64106525D01*
X58873617Y-64167848D01*
X58872786Y-64224130D01*
X58852401Y-64306103D01*
X58852401Y-64306105D01*
X58852400Y-64306111D01*
X58852400Y-64306113D01*
X58849500Y-64348879D01*
X58849500Y-65651122D01*
X58849501Y-65651125D01*
X58852399Y-65693886D01*
X58852399Y-65693887D01*
X58859954Y-65724264D01*
X58898359Y-65878693D01*
X58898359Y-65878694D01*
X58898360Y-65878696D01*
X58982967Y-66049292D01*
X58982969Y-66049295D01*
X59102277Y-66197721D01*
X59102278Y-66197722D01*
X59250704Y-66317030D01*
X59250707Y-66317032D01*
X59421302Y-66401639D01*
X59421303Y-66401639D01*
X59421307Y-66401641D01*
X59606111Y-66447600D01*
X59648877Y-66450500D01*
X60951122Y-66450499D01*
X60993889Y-66447600D01*
X61178693Y-66401641D01*
X61349296Y-66317030D01*
X61497722Y-66197722D01*
X61617030Y-66049296D01*
X61701641Y-65878693D01*
X61718926Y-65809187D01*
X61754207Y-65748882D01*
X61816492Y-65717223D01*
X61886006Y-65724264D01*
X61926941Y-65751434D01*
X62876919Y-66701412D01*
X62876920Y-66701413D01*
X62951487Y-66775980D01*
X63042813Y-66828707D01*
X63144673Y-66856000D01*
X63144675Y-66856000D01*
X69397225Y-66856000D01*
X69397227Y-66856000D01*
X69499088Y-66828707D01*
X69590413Y-66775980D01*
X70033068Y-66333323D01*
X70094389Y-66299840D01*
X70164080Y-66304824D01*
X70177042Y-66310521D01*
X70243196Y-66344229D01*
X70243198Y-66344229D01*
X70243201Y-66344231D01*
X70359592Y-66382049D01*
X70460339Y-66414784D01*
X70685838Y-66450500D01*
X70685843Y-66450500D01*
X70914162Y-66450500D01*
X71139660Y-66414784D01*
X71356799Y-66344231D01*
X71560228Y-66240579D01*
X71744937Y-66106379D01*
X71906379Y-65944937D01*
X72040579Y-65760228D01*
X72144231Y-65556799D01*
X72214784Y-65339660D01*
X72249371Y-65121288D01*
X72250500Y-65114162D01*
X72250500Y-64885837D01*
X72214784Y-64660339D01*
X72144229Y-64443196D01*
X72069621Y-64296770D01*
X72040579Y-64239772D01*
X71906379Y-64055063D01*
X71744937Y-63893621D01*
X71560228Y-63759421D01*
X71475938Y-63716473D01*
X71356803Y-63655770D01*
X71139660Y-63585215D01*
X70914162Y-63549500D01*
X70914157Y-63549500D01*
X70685843Y-63549500D01*
X70685838Y-63549500D01*
X70460339Y-63585215D01*
X70243196Y-63655770D01*
X70039771Y-63759421D01*
X69855061Y-63893622D01*
X69693622Y-64055061D01*
X69559421Y-64239771D01*
X69455770Y-64443196D01*
X69385215Y-64660339D01*
X69349500Y-64885837D01*
X69349500Y-65114162D01*
X69385215Y-65339660D01*
X69455771Y-65556806D01*
X69489477Y-65622957D01*
X69502373Y-65691626D01*
X69476096Y-65756366D01*
X69466674Y-65766932D01*
X69214924Y-66018682D01*
X69153604Y-66052166D01*
X69127245Y-66055000D01*
X68569778Y-66055000D01*
X68502739Y-66035315D01*
X68456984Y-65982511D01*
X68447040Y-65913353D01*
X68469460Y-65858114D01*
X68496996Y-65820214D01*
X68540579Y-65760228D01*
X68644231Y-65556799D01*
X68714784Y-65339660D01*
X68749371Y-65121288D01*
X68750500Y-65114162D01*
X68750500Y-64885837D01*
X68714784Y-64660339D01*
X68644229Y-64443196D01*
X68569621Y-64296770D01*
X68540579Y-64239772D01*
X68406379Y-64055063D01*
X68244937Y-63893621D01*
X68060228Y-63759421D01*
X67975938Y-63716473D01*
X67856803Y-63655770D01*
X67639660Y-63585215D01*
X67414162Y-63549500D01*
X67414157Y-63549500D01*
X67185843Y-63549500D01*
X67185838Y-63549500D01*
X66960338Y-63585216D01*
X66960335Y-63585216D01*
X66743204Y-63655767D01*
X66743202Y-63655767D01*
X66677041Y-63689478D01*
X66608371Y-63702374D01*
X66543631Y-63676097D01*
X66533066Y-63666674D01*
X60075219Y-57208826D01*
X60041734Y-57147503D01*
X60038900Y-57121145D01*
X60038900Y-51604655D01*
X60058585Y-51537616D01*
X60111389Y-51491861D01*
X60180547Y-51481917D01*
X60244103Y-51510942D01*
X60250581Y-51516974D01*
X72966673Y-64233066D01*
X73000158Y-64294389D01*
X72995174Y-64364081D01*
X72989478Y-64377040D01*
X72955771Y-64443196D01*
X72885215Y-64660339D01*
X72849500Y-64885837D01*
X72849500Y-65114162D01*
X72885215Y-65339660D01*
X72955770Y-65556803D01*
X73041096Y-65724264D01*
X73059421Y-65760228D01*
X73193621Y-65944937D01*
X73355063Y-66106379D01*
X73539772Y-66240579D01*
X73635884Y-66289550D01*
X73743196Y-66344229D01*
X73743198Y-66344229D01*
X73743201Y-66344231D01*
X73859592Y-66382049D01*
X73960339Y-66414784D01*
X74185838Y-66450500D01*
X74185843Y-66450500D01*
X74414162Y-66450500D01*
X74639660Y-66414784D01*
X74856799Y-66344231D01*
X75060228Y-66240579D01*
X75244937Y-66106379D01*
X75406379Y-65944937D01*
X75540579Y-65760228D01*
X75644231Y-65556799D01*
X75714784Y-65339660D01*
X75749371Y-65121288D01*
X75750500Y-65114162D01*
X75750500Y-64885837D01*
X75714784Y-64660339D01*
X75644229Y-64443196D01*
X75569621Y-64296770D01*
X75540579Y-64239772D01*
X75406379Y-64055063D01*
X75244937Y-63893621D01*
X75060228Y-63759421D01*
X74975938Y-63716473D01*
X74856803Y-63655770D01*
X74639660Y-63585215D01*
X74414162Y-63549500D01*
X74414157Y-63549500D01*
X74185843Y-63549500D01*
X74185838Y-63549500D01*
X73960339Y-63585215D01*
X73813818Y-63632824D01*
X73743201Y-63655769D01*
X73743198Y-63655770D01*
X73743196Y-63655771D01*
X73677040Y-63689478D01*
X73608370Y-63702373D01*
X73543631Y-63676095D01*
X73533066Y-63666673D01*
X60476919Y-50610526D01*
X60443434Y-50549203D01*
X60440600Y-50522845D01*
X60440600Y-43192355D01*
X60460285Y-43125316D01*
X60513089Y-43079561D01*
X60582247Y-43069617D01*
X60645803Y-43098642D01*
X60652281Y-43104674D01*
X77363181Y-59815574D01*
X77396666Y-59876897D01*
X77399500Y-59903255D01*
X77399500Y-63514893D01*
X77379815Y-63581932D01*
X77327011Y-63627687D01*
X77313824Y-63632821D01*
X77288495Y-63641051D01*
X77243196Y-63655770D01*
X77039771Y-63759421D01*
X76855061Y-63893622D01*
X76693622Y-64055061D01*
X76559421Y-64239771D01*
X76455770Y-64443196D01*
X76385215Y-64660339D01*
X76349500Y-64885837D01*
X76349500Y-65114162D01*
X76385215Y-65339660D01*
X76455770Y-65556803D01*
X76541096Y-65724264D01*
X76559421Y-65760228D01*
X76693621Y-65944937D01*
X76855063Y-66106379D01*
X77039772Y-66240579D01*
X77135884Y-66289550D01*
X77243196Y-66344229D01*
X77243198Y-66344229D01*
X77243201Y-66344231D01*
X77359592Y-66382049D01*
X77460339Y-66414784D01*
X77685838Y-66450500D01*
X77685843Y-66450500D01*
X77914162Y-66450500D01*
X78139660Y-66414784D01*
X78356799Y-66344231D01*
X78560228Y-66240579D01*
X78744937Y-66106379D01*
X78906379Y-65944937D01*
X79040579Y-65760228D01*
X79144231Y-65556799D01*
X79214784Y-65339660D01*
X79249371Y-65121288D01*
X79250500Y-65114162D01*
X79250500Y-64885837D01*
X79214784Y-64660339D01*
X79144229Y-64443196D01*
X79069621Y-64296770D01*
X79040579Y-64239772D01*
X78906379Y-64055063D01*
X78744937Y-63893621D01*
X78560228Y-63759421D01*
X78475938Y-63716473D01*
X78356803Y-63655770D01*
X78324184Y-63645171D01*
X78286180Y-63632823D01*
X78228506Y-63593386D01*
X78201308Y-63529027D01*
X78200500Y-63514893D01*
X78200500Y-60101054D01*
X78220185Y-60034015D01*
X78272989Y-59988260D01*
X78342147Y-59978316D01*
X78405703Y-60007341D01*
X78412181Y-60013373D01*
X80863181Y-62464373D01*
X80896666Y-62525696D01*
X80899500Y-62552054D01*
X80899500Y-63514893D01*
X80879815Y-63581932D01*
X80827011Y-63627687D01*
X80813824Y-63632821D01*
X80788495Y-63641051D01*
X80743196Y-63655770D01*
X80539771Y-63759421D01*
X80355061Y-63893622D01*
X80193622Y-64055061D01*
X80059421Y-64239771D01*
X79955770Y-64443196D01*
X79885215Y-64660339D01*
X79849500Y-64885837D01*
X79849500Y-65114162D01*
X79885215Y-65339660D01*
X79955770Y-65556803D01*
X80041096Y-65724264D01*
X80059421Y-65760228D01*
X80193621Y-65944937D01*
X80355063Y-66106379D01*
X80539772Y-66240579D01*
X80635884Y-66289550D01*
X80743196Y-66344229D01*
X80743198Y-66344229D01*
X80743201Y-66344231D01*
X80859592Y-66382049D01*
X80960339Y-66414784D01*
X81185838Y-66450500D01*
X81185843Y-66450500D01*
X81414162Y-66450500D01*
X81639660Y-66414784D01*
X81856799Y-66344231D01*
X82060228Y-66240579D01*
X82244937Y-66106379D01*
X82406379Y-65944937D01*
X82540579Y-65760228D01*
X82644231Y-65556799D01*
X82714784Y-65339660D01*
X82749371Y-65121288D01*
X82750500Y-65114162D01*
X82750500Y-64885837D01*
X82714784Y-64660339D01*
X82644229Y-64443196D01*
X82623785Y-64403073D01*
X82596172Y-64348879D01*
X102849500Y-64348879D01*
X102849500Y-65651122D01*
X102849501Y-65651125D01*
X102852399Y-65693886D01*
X102852399Y-65693887D01*
X102859954Y-65724264D01*
X102898359Y-65878693D01*
X102898359Y-65878694D01*
X102898360Y-65878696D01*
X102982967Y-66049292D01*
X102982969Y-66049295D01*
X103102277Y-66197721D01*
X103102278Y-66197722D01*
X103250704Y-66317030D01*
X103250707Y-66317032D01*
X103421302Y-66401639D01*
X103421303Y-66401639D01*
X103421307Y-66401641D01*
X103606111Y-66447600D01*
X103648877Y-66450500D01*
X104951122Y-66450499D01*
X104993889Y-66447600D01*
X105178693Y-66401641D01*
X105349296Y-66317030D01*
X105497722Y-66197722D01*
X105617030Y-66049296D01*
X105701641Y-65878693D01*
X105747600Y-65693889D01*
X105750500Y-65651123D01*
X105750499Y-64348878D01*
X105747600Y-64306111D01*
X105701641Y-64121307D01*
X105689509Y-64096844D01*
X105617032Y-63950707D01*
X105617030Y-63950704D01*
X105497722Y-63802278D01*
X105497721Y-63802277D01*
X105349295Y-63682969D01*
X105349292Y-63682967D01*
X105178697Y-63598360D01*
X104993892Y-63552400D01*
X104972506Y-63550950D01*
X104951123Y-63549500D01*
X104951120Y-63549500D01*
X103648877Y-63549500D01*
X103648874Y-63549501D01*
X103606113Y-63552399D01*
X103606112Y-63552399D01*
X103421303Y-63598360D01*
X103250707Y-63682967D01*
X103250704Y-63682969D01*
X103102278Y-63802277D01*
X103102277Y-63802278D01*
X102982969Y-63950704D01*
X102982967Y-63950707D01*
X102898360Y-64121302D01*
X102852400Y-64306107D01*
X102849500Y-64348879D01*
X82596172Y-64348879D01*
X82569621Y-64296770D01*
X82540579Y-64239772D01*
X82406379Y-64055063D01*
X82244937Y-63893621D01*
X82060228Y-63759421D01*
X81975938Y-63716473D01*
X81856803Y-63655770D01*
X81824184Y-63645171D01*
X81786180Y-63632823D01*
X81728506Y-63593386D01*
X81701308Y-63529027D01*
X81700500Y-63514893D01*
X81700500Y-62397529D01*
X81700501Y-62397516D01*
X81700501Y-62282075D01*
X81700501Y-62282073D01*
X81673207Y-62180212D01*
X81633489Y-62111420D01*
X81620480Y-62088887D01*
X81545913Y-62014320D01*
X81545910Y-62014318D01*
X61371619Y-41840026D01*
X61338134Y-41778703D01*
X61335300Y-41752345D01*
X61335300Y-41690545D01*
X61335300Y-41690543D01*
X61294377Y-41537816D01*
X61284920Y-41521435D01*
X61215324Y-41400890D01*
X61215318Y-41400882D01*
X61103517Y-41289081D01*
X61103512Y-41289077D01*
X60977992Y-41216609D01*
X60929777Y-41166043D01*
X60916553Y-41097436D01*
X60920218Y-41077127D01*
X60922991Y-41066778D01*
X60926400Y-41054057D01*
X60926400Y-40895943D01*
X60885477Y-40743216D01*
X60856899Y-40693717D01*
X60806424Y-40606290D01*
X60806418Y-40606282D01*
X60694617Y-40494481D01*
X60694612Y-40494477D01*
X60567017Y-40420811D01*
X60518802Y-40370245D01*
X60505578Y-40301638D01*
X60509240Y-40281340D01*
X60519900Y-40241557D01*
X60519900Y-40083443D01*
X60478977Y-39930716D01*
X60478975Y-39930713D01*
X60477845Y-39926494D01*
X60478440Y-39901498D01*
X60474882Y-39876753D01*
X60479257Y-39867172D01*
X60479508Y-39856644D01*
X60493520Y-39835939D01*
X60503907Y-39813197D01*
X60512766Y-39807503D01*
X60518670Y-39798781D01*
X60541653Y-39788939D01*
X60562685Y-39775423D01*
X60578540Y-39773143D01*
X60582899Y-39771277D01*
X60597620Y-39770400D01*
X60660273Y-39770400D01*
X60703102Y-39770400D01*
X60735194Y-39774624D01*
X60809743Y-39794600D01*
X60809745Y-39794600D01*
X60967855Y-39794600D01*
X60967857Y-39794600D01*
X61120584Y-39753677D01*
X61257516Y-39674620D01*
X61369320Y-39562816D01*
X61448377Y-39425884D01*
X61489300Y-39273157D01*
X61489300Y-39116900D01*
X61508985Y-39049861D01*
X61561789Y-39004106D01*
X61613300Y-38992900D01*
X63210039Y-38992900D01*
X63277078Y-39012585D01*
X63322833Y-39065389D01*
X63330826Y-39118716D01*
X63333800Y-39118716D01*
X63333800Y-39126843D01*
X63333800Y-39284957D01*
X63373939Y-39434756D01*
X63374723Y-39437683D01*
X63374726Y-39437690D01*
X63453775Y-39574609D01*
X63453781Y-39574617D01*
X63497481Y-39618317D01*
X63530966Y-39679640D01*
X63533800Y-39705998D01*
X63533800Y-41909145D01*
X63514115Y-41976184D01*
X63461311Y-42021939D01*
X63392153Y-42031883D01*
X63328597Y-42002858D01*
X63322119Y-41996826D01*
X62433270Y-41107977D01*
X62399785Y-41046654D01*
X62404769Y-40976962D01*
X62406394Y-40972834D01*
X62408772Y-40967091D01*
X62408777Y-40967084D01*
X62449700Y-40814357D01*
X62449700Y-40656243D01*
X62408777Y-40503516D01*
X62396357Y-40482003D01*
X62329724Y-40366590D01*
X62329718Y-40366582D01*
X62217917Y-40254781D01*
X62217909Y-40254775D01*
X62080990Y-40175726D01*
X62080986Y-40175724D01*
X62080984Y-40175723D01*
X61928257Y-40134800D01*
X61770143Y-40134800D01*
X61617416Y-40175723D01*
X61617409Y-40175726D01*
X61480490Y-40254775D01*
X61480482Y-40254781D01*
X61368681Y-40366582D01*
X61368675Y-40366590D01*
X61289626Y-40503509D01*
X61289623Y-40503516D01*
X61248700Y-40656243D01*
X61248700Y-40814357D01*
X61282244Y-40939543D01*
X61289623Y-40967083D01*
X61289626Y-40967090D01*
X61368675Y-41104009D01*
X61368681Y-41104017D01*
X61440214Y-41175550D01*
X61472307Y-41231133D01*
X61475993Y-41244888D01*
X61528720Y-41336213D01*
X72562318Y-52369810D01*
X72562320Y-52369813D01*
X72636887Y-52444380D01*
X72682550Y-52470743D01*
X72728212Y-52497107D01*
X72830073Y-52524400D01*
X72830075Y-52524400D01*
X91615825Y-52524400D01*
X91615827Y-52524400D01*
X91717688Y-52497107D01*
X91809013Y-52444380D01*
X100479874Y-43773519D01*
X100541197Y-43740034D01*
X100567555Y-43737200D01*
X100629355Y-43737200D01*
X100629357Y-43737200D01*
X100782084Y-43696277D01*
X100919016Y-43617220D01*
X101029493Y-43506742D01*
X101090812Y-43473260D01*
X101160504Y-43478244D01*
X101204852Y-43506745D01*
X107363181Y-49665074D01*
X107396666Y-49726397D01*
X107399500Y-49752755D01*
X107399500Y-63514893D01*
X107379815Y-63581932D01*
X107327011Y-63627687D01*
X107313824Y-63632821D01*
X107288495Y-63641051D01*
X107243196Y-63655770D01*
X107039771Y-63759421D01*
X106855061Y-63893622D01*
X106693622Y-64055061D01*
X106559421Y-64239771D01*
X106455770Y-64443196D01*
X106385215Y-64660339D01*
X106349500Y-64885837D01*
X106349500Y-65114162D01*
X106385215Y-65339660D01*
X106455770Y-65556803D01*
X106541096Y-65724264D01*
X106559421Y-65760228D01*
X106693621Y-65944937D01*
X106855063Y-66106379D01*
X107039772Y-66240579D01*
X107135884Y-66289550D01*
X107243196Y-66344229D01*
X107243198Y-66344229D01*
X107243201Y-66344231D01*
X107359592Y-66382049D01*
X107460339Y-66414784D01*
X107685838Y-66450500D01*
X107685843Y-66450500D01*
X107914162Y-66450500D01*
X108139660Y-66414784D01*
X108356799Y-66344231D01*
X108560228Y-66240579D01*
X108744937Y-66106379D01*
X108906379Y-65944937D01*
X109040579Y-65760228D01*
X109144231Y-65556799D01*
X109214784Y-65339660D01*
X109249371Y-65121288D01*
X109250500Y-65114162D01*
X109250500Y-64885837D01*
X109214784Y-64660339D01*
X109144229Y-64443196D01*
X109069621Y-64296770D01*
X109040579Y-64239772D01*
X108906379Y-64055063D01*
X108744937Y-63893621D01*
X108560228Y-63759421D01*
X108475938Y-63716473D01*
X108356803Y-63655770D01*
X108324184Y-63645171D01*
X108286180Y-63632823D01*
X108228506Y-63593386D01*
X108201308Y-63529027D01*
X108200500Y-63514893D01*
X108200500Y-49761154D01*
X108220185Y-49694115D01*
X108272989Y-49648360D01*
X108342147Y-49638416D01*
X108405703Y-49667441D01*
X108412167Y-49673460D01*
X109566162Y-50827454D01*
X110863181Y-52124473D01*
X110896666Y-52185796D01*
X110899500Y-52212154D01*
X110899500Y-63514893D01*
X110879815Y-63581932D01*
X110827011Y-63627687D01*
X110813824Y-63632821D01*
X110788495Y-63641051D01*
X110743196Y-63655770D01*
X110539771Y-63759421D01*
X110355061Y-63893622D01*
X110193622Y-64055061D01*
X110059421Y-64239771D01*
X109955770Y-64443196D01*
X109885215Y-64660339D01*
X109849500Y-64885837D01*
X109849500Y-65114162D01*
X109885215Y-65339660D01*
X109955770Y-65556803D01*
X110041096Y-65724264D01*
X110059421Y-65760228D01*
X110193621Y-65944937D01*
X110355063Y-66106379D01*
X110539772Y-66240579D01*
X110635884Y-66289550D01*
X110743196Y-66344229D01*
X110743198Y-66344229D01*
X110743201Y-66344231D01*
X110859592Y-66382049D01*
X110960339Y-66414784D01*
X111185838Y-66450500D01*
X111185843Y-66450500D01*
X111414162Y-66450500D01*
X111639660Y-66414784D01*
X111856799Y-66344231D01*
X112060228Y-66240579D01*
X112244937Y-66106379D01*
X112406379Y-65944937D01*
X112540579Y-65760228D01*
X112644231Y-65556799D01*
X112714784Y-65339660D01*
X112749371Y-65121288D01*
X112750500Y-65114162D01*
X112750500Y-64885837D01*
X112714784Y-64660339D01*
X112644229Y-64443196D01*
X112569621Y-64296770D01*
X112540579Y-64239772D01*
X112406379Y-64055063D01*
X112244937Y-63893621D01*
X112060228Y-63759421D01*
X111975938Y-63716473D01*
X111856803Y-63655770D01*
X111824184Y-63645171D01*
X111786180Y-63632823D01*
X111728506Y-63593386D01*
X111701308Y-63529027D01*
X111700500Y-63514893D01*
X111700500Y-52057629D01*
X111700501Y-52057616D01*
X111700501Y-51942174D01*
X111700501Y-51942173D01*
X111673207Y-51840313D01*
X111635456Y-51774927D01*
X111620480Y-51748987D01*
X111545913Y-51674420D01*
X111545910Y-51674418D01*
X101233419Y-41361926D01*
X101199934Y-41300603D01*
X101197100Y-41274245D01*
X101197100Y-40996379D01*
X101216785Y-40929340D01*
X101269589Y-40883585D01*
X101322016Y-40875739D01*
X101322016Y-40872500D01*
X101330143Y-40872500D01*
X101391945Y-40872500D01*
X101458984Y-40892185D01*
X101479626Y-40908819D01*
X114363181Y-53792374D01*
X114396666Y-53853697D01*
X114399500Y-53880055D01*
X114399500Y-63514893D01*
X114379815Y-63581932D01*
X114327011Y-63627687D01*
X114313824Y-63632821D01*
X114288495Y-63641051D01*
X114243196Y-63655770D01*
X114039771Y-63759421D01*
X113855061Y-63893622D01*
X113693622Y-64055061D01*
X113559421Y-64239771D01*
X113455770Y-64443196D01*
X113385215Y-64660339D01*
X113349500Y-64885837D01*
X113349500Y-65114162D01*
X113385215Y-65339660D01*
X113455770Y-65556803D01*
X113541096Y-65724264D01*
X113559421Y-65760228D01*
X113693621Y-65944937D01*
X113855063Y-66106379D01*
X114039772Y-66240579D01*
X114135884Y-66289550D01*
X114243196Y-66344229D01*
X114243198Y-66344229D01*
X114243201Y-66344231D01*
X114359592Y-66382049D01*
X114460339Y-66414784D01*
X114685838Y-66450500D01*
X114685843Y-66450500D01*
X114914162Y-66450500D01*
X115139660Y-66414784D01*
X115356799Y-66344231D01*
X115560228Y-66240579D01*
X115744937Y-66106379D01*
X115906379Y-65944937D01*
X116040579Y-65760228D01*
X116086519Y-65670064D01*
X116134493Y-65619269D01*
X116202314Y-65602473D01*
X116268449Y-65625010D01*
X116284685Y-65638678D01*
X117370818Y-66724810D01*
X117370820Y-66724813D01*
X117445387Y-66799380D01*
X117496183Y-66828707D01*
X117536713Y-66852107D01*
X117638574Y-66879401D01*
X117638577Y-66879401D01*
X117751623Y-66879401D01*
X117751639Y-66879400D01*
X123873825Y-66879400D01*
X123873827Y-66879400D01*
X123975688Y-66852107D01*
X124067013Y-66799380D01*
X124533068Y-66333323D01*
X124594389Y-66299840D01*
X124664080Y-66304824D01*
X124677042Y-66310521D01*
X124743196Y-66344229D01*
X124743198Y-66344229D01*
X124743201Y-66344231D01*
X124859592Y-66382049D01*
X124960339Y-66414784D01*
X125185838Y-66450500D01*
X125185843Y-66450500D01*
X125414162Y-66450500D01*
X125639660Y-66414784D01*
X125856799Y-66344231D01*
X126060228Y-66240579D01*
X126244937Y-66106379D01*
X126406379Y-65944937D01*
X126540579Y-65760228D01*
X126644231Y-65556799D01*
X126714784Y-65339660D01*
X126749371Y-65121288D01*
X126750500Y-65114162D01*
X126750500Y-64885838D01*
X126750499Y-64885836D01*
X126749371Y-64878711D01*
X133149500Y-64878711D01*
X133149500Y-65121288D01*
X133181161Y-65361785D01*
X133243947Y-65596104D01*
X133336773Y-65820205D01*
X133336776Y-65820212D01*
X133458064Y-66030289D01*
X133458066Y-66030292D01*
X133458067Y-66030293D01*
X133605733Y-66222736D01*
X133605739Y-66222743D01*
X133777256Y-66394260D01*
X133777263Y-66394266D01*
X133804003Y-66414784D01*
X133969711Y-66541936D01*
X134179788Y-66663224D01*
X134403900Y-66756054D01*
X134638211Y-66818838D01*
X134818586Y-66842584D01*
X134878711Y-66850500D01*
X134878712Y-66850500D01*
X135121289Y-66850500D01*
X135169388Y-66844167D01*
X135361789Y-66818838D01*
X135596100Y-66756054D01*
X135820212Y-66663224D01*
X136030289Y-66541936D01*
X136222738Y-66394265D01*
X136394265Y-66222738D01*
X136541936Y-66030289D01*
X136663224Y-65820212D01*
X136756054Y-65596100D01*
X136818838Y-65361789D01*
X136850500Y-65121288D01*
X136850500Y-64878712D01*
X136818838Y-64638211D01*
X136756054Y-64403900D01*
X136755711Y-64403073D01*
X136733263Y-64348877D01*
X136663224Y-64179788D01*
X136541936Y-63969711D01*
X136428537Y-63821926D01*
X136394266Y-63777263D01*
X136394260Y-63777256D01*
X136222743Y-63605739D01*
X136222736Y-63605733D01*
X136030293Y-63458067D01*
X136030292Y-63458066D01*
X136030289Y-63458064D01*
X135820212Y-63336776D01*
X135820205Y-63336773D01*
X135596104Y-63243947D01*
X135361785Y-63181161D01*
X135121289Y-63149500D01*
X135121288Y-63149500D01*
X134878712Y-63149500D01*
X134878711Y-63149500D01*
X134638214Y-63181161D01*
X134403895Y-63243947D01*
X134179794Y-63336773D01*
X134179785Y-63336777D01*
X133969706Y-63458067D01*
X133777263Y-63605733D01*
X133777256Y-63605739D01*
X133605739Y-63777256D01*
X133605733Y-63777263D01*
X133458067Y-63969706D01*
X133336777Y-64179785D01*
X133336773Y-64179794D01*
X133243947Y-64403895D01*
X133181161Y-64638214D01*
X133149500Y-64878711D01*
X126749371Y-64878711D01*
X126714784Y-64660339D01*
X126644229Y-64443196D01*
X126569621Y-64296770D01*
X126540579Y-64239772D01*
X126406379Y-64055063D01*
X126244937Y-63893621D01*
X126060228Y-63759421D01*
X125975938Y-63716473D01*
X125856803Y-63655770D01*
X125639660Y-63585215D01*
X125414162Y-63549500D01*
X125414157Y-63549500D01*
X125185843Y-63549500D01*
X125185838Y-63549500D01*
X124960339Y-63585215D01*
X124743196Y-63655770D01*
X124539771Y-63759421D01*
X124355061Y-63893622D01*
X124193622Y-64055061D01*
X124059421Y-64239771D01*
X123955770Y-64443196D01*
X123885215Y-64660339D01*
X123849500Y-64885837D01*
X123849500Y-65114162D01*
X123885215Y-65339660D01*
X123955771Y-65556806D01*
X123989477Y-65622957D01*
X124002373Y-65691626D01*
X123976096Y-65756366D01*
X123966674Y-65766932D01*
X123691524Y-66042082D01*
X123630204Y-66075566D01*
X123603845Y-66078400D01*
X123052776Y-66078400D01*
X122985737Y-66058715D01*
X122939982Y-66005911D01*
X122930038Y-65936753D01*
X122952456Y-65881516D01*
X123040579Y-65760228D01*
X123144231Y-65556799D01*
X123214784Y-65339660D01*
X123249371Y-65121288D01*
X123250500Y-65114162D01*
X123250500Y-64885837D01*
X123214784Y-64660339D01*
X123144229Y-64443196D01*
X123069621Y-64296770D01*
X123040579Y-64239772D01*
X122906379Y-64055063D01*
X122744937Y-63893621D01*
X122560228Y-63759421D01*
X122475938Y-63716473D01*
X122356803Y-63655770D01*
X122324184Y-63645171D01*
X122286180Y-63632823D01*
X122228506Y-63593386D01*
X122201308Y-63529027D01*
X122200500Y-63514893D01*
X122200500Y-55725429D01*
X122200501Y-55725416D01*
X122200501Y-55609976D01*
X122200501Y-55609974D01*
X122173207Y-55508113D01*
X122120480Y-55416787D01*
X122045913Y-55342220D01*
X122045912Y-55342219D01*
X122041582Y-55337889D01*
X122041571Y-55337879D01*
X115839295Y-49135602D01*
X115805810Y-49074279D01*
X115810794Y-49004587D01*
X115839291Y-48960244D01*
X115949720Y-48849816D01*
X115983088Y-48792021D01*
X116028775Y-48712888D01*
X116028775Y-48712887D01*
X116028777Y-48712884D01*
X116030450Y-48706636D01*
X116062543Y-48651048D01*
X125018703Y-39694887D01*
X125018708Y-39694884D01*
X125028911Y-39684680D01*
X125028913Y-39684680D01*
X125103480Y-39610113D01*
X125156207Y-39518787D01*
X125161532Y-39498913D01*
X125183501Y-39416927D01*
X125183501Y-39311473D01*
X125183500Y-39311469D01*
X125183500Y-39309153D01*
X125184417Y-39301652D01*
X125195385Y-39276222D01*
X125203186Y-39249658D01*
X125211057Y-39239890D01*
X125212090Y-39237496D01*
X125214048Y-39236177D01*
X125219820Y-39229016D01*
X125233802Y-39215034D01*
X125263520Y-39185316D01*
X125342577Y-39048384D01*
X125383500Y-38895657D01*
X125383500Y-38737543D01*
X125342577Y-38584816D01*
X125313862Y-38535080D01*
X125263524Y-38447890D01*
X125263518Y-38447882D01*
X125151717Y-38336081D01*
X125151709Y-38336075D01*
X125014790Y-38257026D01*
X125014786Y-38257024D01*
X125014784Y-38257023D01*
X124862057Y-38216100D01*
X124703943Y-38216100D01*
X124551216Y-38257023D01*
X124551209Y-38257026D01*
X124414290Y-38336075D01*
X124414282Y-38336081D01*
X124302481Y-38447882D01*
X124302475Y-38447890D01*
X124223426Y-38584809D01*
X124223423Y-38584816D01*
X124182500Y-38737543D01*
X124182500Y-38895657D01*
X124219297Y-39032983D01*
X124223423Y-39048383D01*
X124223423Y-39048384D01*
X124288950Y-39161882D01*
X124295514Y-39188942D01*
X124305246Y-39215034D01*
X124303637Y-39222429D01*
X124305421Y-39229782D01*
X124296314Y-39256093D01*
X124290395Y-39283307D01*
X124283887Y-39292000D01*
X124282569Y-39295809D01*
X124269244Y-39311562D01*
X124176410Y-39404395D01*
X124115089Y-39437880D01*
X124045397Y-39432896D01*
X123989463Y-39391025D01*
X123968956Y-39348810D01*
X123935277Y-39223116D01*
X123913454Y-39185317D01*
X123856224Y-39086190D01*
X123856218Y-39086182D01*
X123744417Y-38974381D01*
X123744409Y-38974375D01*
X123607490Y-38895326D01*
X123607486Y-38895324D01*
X123607484Y-38895323D01*
X123454757Y-38854400D01*
X123296643Y-38854400D01*
X123143916Y-38895323D01*
X123143909Y-38895326D01*
X123006990Y-38974375D01*
X123006982Y-38974381D01*
X122895181Y-39086182D01*
X122895175Y-39086190D01*
X122816126Y-39223109D01*
X122816123Y-39223116D01*
X122775200Y-39375843D01*
X122775200Y-39533957D01*
X122815587Y-39684681D01*
X122816123Y-39686683D01*
X122816123Y-39686684D01*
X122846878Y-39739954D01*
X122853442Y-39767015D01*
X122863174Y-39793107D01*
X122861565Y-39800501D01*
X122863349Y-39807854D01*
X122854241Y-39834168D01*
X122848322Y-39861380D01*
X122841815Y-39870072D01*
X122840497Y-39873881D01*
X122827172Y-39889634D01*
X122671150Y-40045655D01*
X122609829Y-40079139D01*
X122540138Y-40074155D01*
X122495790Y-40045654D01*
X122385317Y-39935181D01*
X122385309Y-39935175D01*
X122248390Y-39856126D01*
X122248386Y-39856124D01*
X122248384Y-39856123D01*
X122095657Y-39815200D01*
X121937543Y-39815200D01*
X121784816Y-39856123D01*
X121784809Y-39856126D01*
X121647890Y-39935175D01*
X121647882Y-39935181D01*
X121536081Y-40046982D01*
X121536075Y-40046990D01*
X121457026Y-40183909D01*
X121457023Y-40183916D01*
X121416100Y-40336643D01*
X121416100Y-40494755D01*
X121417161Y-40502813D01*
X121415664Y-40503010D01*
X121414211Y-40563792D01*
X121375042Y-40621650D01*
X121310811Y-40649148D01*
X121241910Y-40637554D01*
X121234103Y-40633410D01*
X121209186Y-40619024D01*
X121209185Y-40619023D01*
X121209184Y-40619023D01*
X121056457Y-40578100D01*
X120898343Y-40578100D01*
X120745616Y-40619023D01*
X120745609Y-40619026D01*
X120608690Y-40698075D01*
X120608682Y-40698081D01*
X120564983Y-40741781D01*
X120503660Y-40775266D01*
X120477302Y-40778100D01*
X116857054Y-40778100D01*
X116790015Y-40758415D01*
X116769373Y-40741781D01*
X116272319Y-40244726D01*
X116238834Y-40183403D01*
X116236000Y-40157045D01*
X116236000Y-40095245D01*
X116236000Y-40095243D01*
X116195077Y-39942516D01*
X116185599Y-39926099D01*
X116116024Y-39805590D01*
X116116018Y-39805582D01*
X116004217Y-39693781D01*
X116004209Y-39693775D01*
X115867290Y-39614726D01*
X115867286Y-39614724D01*
X115867284Y-39614723D01*
X115714557Y-39573800D01*
X115556443Y-39573800D01*
X115403716Y-39614723D01*
X115403709Y-39614726D01*
X115266790Y-39693775D01*
X115266782Y-39693781D01*
X115223083Y-39737481D01*
X115161760Y-39770966D01*
X115135402Y-39773800D01*
X112066054Y-39773800D01*
X111999015Y-39754115D01*
X111978373Y-39737481D01*
X110378075Y-38137182D01*
X110367565Y-38117936D01*
X110353144Y-38101411D01*
X110351148Y-38087869D01*
X110344590Y-38075859D01*
X110346154Y-38053983D01*
X110342957Y-38032288D01*
X110348597Y-38019820D01*
X110349574Y-38006167D01*
X110362718Y-37988608D01*
X110371757Y-37968630D01*
X110383244Y-37961190D01*
X110391446Y-37950234D01*
X110411993Y-37942570D01*
X110430401Y-37930648D01*
X110450803Y-37927677D01*
X110450651Y-37926459D01*
X110450659Y-37926458D01*
X110456100Y-37926119D01*
X110456910Y-37925817D01*
X110465318Y-37925502D01*
X110465601Y-37925501D01*
X110465652Y-37925516D01*
X110465756Y-37925501D01*
X110466023Y-37925501D01*
X110466039Y-37925500D01*
X115580702Y-37925500D01*
X115647741Y-37945185D01*
X115668383Y-37961819D01*
X115712084Y-38005520D01*
X115712086Y-38005521D01*
X115712090Y-38005524D01*
X115796025Y-38053983D01*
X115849016Y-38084577D01*
X116001743Y-38125500D01*
X116001745Y-38125500D01*
X116159855Y-38125500D01*
X116159857Y-38125500D01*
X116312584Y-38084577D01*
X116449516Y-38005520D01*
X116561320Y-37893716D01*
X116640377Y-37756784D01*
X116681300Y-37604057D01*
X116681300Y-37445943D01*
X116640377Y-37293216D01*
X116639336Y-37291413D01*
X116561324Y-37156290D01*
X116561318Y-37156282D01*
X116449517Y-37044481D01*
X116449509Y-37044475D01*
X116312590Y-36965426D01*
X116312586Y-36965424D01*
X116312584Y-36965423D01*
X116159857Y-36924500D01*
X116001743Y-36924500D01*
X115849016Y-36965423D01*
X115849009Y-36965426D01*
X115712090Y-37044475D01*
X115712082Y-37044481D01*
X115668383Y-37088181D01*
X115607060Y-37121666D01*
X115580702Y-37124500D01*
X114966855Y-37124500D01*
X114899816Y-37104815D01*
X114854061Y-37052011D01*
X114844117Y-36982853D01*
X114873142Y-36919297D01*
X114879174Y-36912819D01*
X115423574Y-36368419D01*
X115484897Y-36334934D01*
X115511255Y-36332100D01*
X115573055Y-36332100D01*
X115573057Y-36332100D01*
X115725784Y-36291177D01*
X115862716Y-36212120D01*
X115974520Y-36100316D01*
X116053577Y-35963384D01*
X116094500Y-35810657D01*
X116094500Y-35652543D01*
X116053577Y-35499816D01*
X116044286Y-35483723D01*
X115974524Y-35362890D01*
X115974518Y-35362882D01*
X115862717Y-35251081D01*
X115862709Y-35251075D01*
X115725790Y-35172026D01*
X115725786Y-35172024D01*
X115725784Y-35172023D01*
X115573057Y-35131100D01*
X115414943Y-35131100D01*
X115262216Y-35172023D01*
X115262209Y-35172026D01*
X115125290Y-35251075D01*
X115125282Y-35251081D01*
X115013481Y-35362882D01*
X115013475Y-35362890D01*
X114934426Y-35499809D01*
X114934423Y-35499816D01*
X114893500Y-35652543D01*
X114893500Y-35714345D01*
X114873815Y-35781384D01*
X114857181Y-35802026D01*
X114433526Y-36225681D01*
X114372203Y-36259166D01*
X114345845Y-36262000D01*
X113065810Y-36262000D01*
X112998771Y-36242315D01*
X112953016Y-36189511D01*
X112944172Y-36130484D01*
X112942800Y-36130484D01*
X112942800Y-35964245D01*
X112942800Y-35964243D01*
X112901877Y-35811516D01*
X112901381Y-35810657D01*
X112822824Y-35674590D01*
X112822818Y-35674582D01*
X112711017Y-35562781D01*
X112711009Y-35562775D01*
X112574090Y-35483726D01*
X112574086Y-35483724D01*
X112574084Y-35483723D01*
X112421357Y-35442800D01*
X112421356Y-35442800D01*
X112359555Y-35442800D01*
X112292516Y-35423115D01*
X112271874Y-35406481D01*
X111766645Y-34901252D01*
X111733160Y-34839929D01*
X111738144Y-34770237D01*
X111766645Y-34725889D01*
X111767411Y-34725122D01*
X111767416Y-34725120D01*
X111879220Y-34613316D01*
X111958277Y-34476384D01*
X111999200Y-34323657D01*
X111999200Y-34165543D01*
X111958277Y-34012816D01*
X111926004Y-33956917D01*
X111879224Y-33875890D01*
X111879218Y-33875882D01*
X111767417Y-33764081D01*
X111767409Y-33764075D01*
X111630490Y-33685026D01*
X111630486Y-33685024D01*
X111630484Y-33685023D01*
X111477757Y-33644100D01*
X111477756Y-33644100D01*
X111415955Y-33644100D01*
X111348916Y-33624415D01*
X111328274Y-33607781D01*
X103764515Y-26044022D01*
X103764513Y-26044020D01*
X103691070Y-26001617D01*
X103673189Y-25991293D01*
X103611257Y-25974699D01*
X103571327Y-25964000D01*
X103571326Y-25964000D01*
X103308791Y-25964000D01*
X103241752Y-25944315D01*
X103195997Y-25891511D01*
X103186053Y-25822353D01*
X103215078Y-25758797D01*
X103225984Y-25747702D01*
X103235602Y-25739072D01*
X103250416Y-25730520D01*
X103296491Y-25684444D01*
X103298991Y-25682202D01*
X103327607Y-25668531D01*
X103355440Y-25653334D01*
X103360577Y-25652781D01*
X103362036Y-25652085D01*
X103364345Y-25652376D01*
X103381798Y-25650500D01*
X104574445Y-25650500D01*
X104641484Y-25670185D01*
X104662126Y-25686819D01*
X108951987Y-29976680D01*
X109029963Y-30021700D01*
X109040625Y-30027856D01*
X109043312Y-30029407D01*
X109145173Y-30056700D01*
X111757902Y-30056700D01*
X111824941Y-30076385D01*
X111845583Y-30093019D01*
X111889284Y-30136720D01*
X111889286Y-30136721D01*
X111889290Y-30136724D01*
X112020355Y-30212393D01*
X112026216Y-30215777D01*
X112178943Y-30256700D01*
X112178945Y-30256700D01*
X112337055Y-30256700D01*
X112337057Y-30256700D01*
X112489784Y-30215777D01*
X112626716Y-30136720D01*
X112738520Y-30024916D01*
X112817577Y-29887984D01*
X112858500Y-29735257D01*
X112858500Y-29577143D01*
X112817577Y-29424416D01*
X112793069Y-29381966D01*
X112738524Y-29287490D01*
X112738518Y-29287482D01*
X112626717Y-29175681D01*
X112626709Y-29175675D01*
X112489790Y-29096626D01*
X112489786Y-29096624D01*
X112489784Y-29096623D01*
X112337057Y-29055700D01*
X112178943Y-29055700D01*
X112026216Y-29096623D01*
X112026209Y-29096626D01*
X111889290Y-29175675D01*
X111889282Y-29175681D01*
X111845583Y-29219381D01*
X111784260Y-29252866D01*
X111757902Y-29255700D01*
X109415155Y-29255700D01*
X109348116Y-29236015D01*
X109327474Y-29219381D01*
X106294474Y-26186381D01*
X106260989Y-26125058D01*
X106265973Y-26055366D01*
X106307845Y-25999433D01*
X106373309Y-25975016D01*
X106382155Y-25974700D01*
X115869225Y-25974700D01*
X115869227Y-25974700D01*
X115971088Y-25947407D01*
X116062413Y-25894680D01*
X117133274Y-24823819D01*
X117194597Y-24790334D01*
X117220955Y-24787500D01*
X117282755Y-24787500D01*
X117282757Y-24787500D01*
X117435484Y-24746577D01*
X117572416Y-24667520D01*
X117684220Y-24555716D01*
X117763277Y-24418784D01*
X117804200Y-24266057D01*
X117804200Y-24122355D01*
X117823885Y-24055316D01*
X117876689Y-24009561D01*
X117945847Y-23999617D01*
X118009403Y-24028642D01*
X118015881Y-24034674D01*
X121573181Y-27591974D01*
X121606666Y-27653297D01*
X121609500Y-27679655D01*
X121609500Y-27741457D01*
X121633478Y-27830942D01*
X121650423Y-27894183D01*
X121650426Y-27894190D01*
X121729475Y-28031109D01*
X121729479Y-28031114D01*
X121729480Y-28031116D01*
X121841284Y-28142920D01*
X121841286Y-28142921D01*
X121841290Y-28142924D01*
X121886837Y-28169220D01*
X121978216Y-28221977D01*
X122130943Y-28262900D01*
X122130945Y-28262900D01*
X122289055Y-28262900D01*
X122289057Y-28262900D01*
X122441784Y-28221977D01*
X122578716Y-28142920D01*
X122690520Y-28031116D01*
X122769577Y-27894184D01*
X122810500Y-27741457D01*
X122810500Y-27583343D01*
X122769577Y-27430616D01*
X122736245Y-27372882D01*
X122690524Y-27293690D01*
X122690518Y-27293682D01*
X122578717Y-27181881D01*
X122578709Y-27181875D01*
X122441790Y-27102826D01*
X122441786Y-27102824D01*
X122441784Y-27102823D01*
X122289057Y-27061900D01*
X122289056Y-27061900D01*
X122227255Y-27061900D01*
X122160216Y-27042215D01*
X122139574Y-27025581D01*
X117922115Y-22808122D01*
X117922113Y-22808120D01*
X117860072Y-22772300D01*
X117830789Y-22755393D01*
X117768894Y-22738809D01*
X117728927Y-22728100D01*
X117728926Y-22728100D01*
X109923098Y-22728100D01*
X109893657Y-22719455D01*
X109863671Y-22712932D01*
X109858655Y-22709177D01*
X109856059Y-22708415D01*
X109835417Y-22691781D01*
X109793095Y-22649459D01*
X109759610Y-22588136D01*
X109764594Y-22518444D01*
X109793095Y-22474097D01*
X110440340Y-21826853D01*
X111132174Y-21135019D01*
X111193497Y-21101534D01*
X111219855Y-21098700D01*
X132822202Y-21098700D01*
X132889241Y-21118385D01*
X132909883Y-21135019D01*
X132953484Y-21178620D01*
X132953486Y-21178621D01*
X132953490Y-21178624D01*
X133087731Y-21256127D01*
X133090416Y-21257677D01*
X133243143Y-21298600D01*
X133243145Y-21298600D01*
X133401254Y-21298600D01*
X133401257Y-21298600D01*
X133519208Y-21266995D01*
X133589056Y-21268658D01*
X133646919Y-21307820D01*
X133674423Y-21372049D01*
X133675300Y-21386770D01*
X133675300Y-22227734D01*
X133655615Y-22294773D01*
X133602811Y-22340528D01*
X133533653Y-22350472D01*
X133496718Y-22338363D01*
X133496677Y-22338463D01*
X133495368Y-22337921D01*
X133492858Y-22337098D01*
X133491053Y-22336133D01*
X133377310Y-22289020D01*
X133377300Y-22289017D01*
X133256559Y-22265000D01*
X133133441Y-22265000D01*
X133012699Y-22289017D01*
X133012689Y-22289020D01*
X132898958Y-22336128D01*
X132898945Y-22336135D01*
X132796586Y-22404530D01*
X132796582Y-22404533D01*
X132709533Y-22491582D01*
X132709530Y-22491586D01*
X132641135Y-22593945D01*
X132641128Y-22593958D01*
X132594020Y-22707689D01*
X132594017Y-22707699D01*
X132570000Y-22828440D01*
X132570000Y-22951559D01*
X132569999Y-22951559D01*
X132594017Y-23072300D01*
X132594020Y-23072310D01*
X132641128Y-23186041D01*
X132641135Y-23186054D01*
X132704816Y-23281358D01*
X132711434Y-23290000D01*
X132771000Y-23290000D01*
X132838039Y-23309685D01*
X132883794Y-23362489D01*
X132895000Y-23414000D01*
X132895000Y-24020000D01*
X132495000Y-24020000D01*
X132495000Y-23420000D01*
X132056353Y-23420000D01*
X131882487Y-23454584D01*
X131882479Y-23454586D01*
X131718692Y-23522428D01*
X131718683Y-23522433D01*
X131571283Y-23620923D01*
X131571279Y-23620926D01*
X131445926Y-23746279D01*
X131445923Y-23746283D01*
X131347433Y-23893683D01*
X131347428Y-23893692D01*
X131279586Y-24057479D01*
X131279584Y-24057487D01*
X131267150Y-24120000D01*
X131920735Y-24120000D01*
X131904940Y-24135795D01*
X131865444Y-24204204D01*
X131845000Y-24280504D01*
X131845000Y-24359496D01*
X131865444Y-24435796D01*
X131904940Y-24504205D01*
X131920735Y-24520000D01*
X131267150Y-24520000D01*
X131279584Y-24582512D01*
X131279586Y-24582520D01*
X131347428Y-24746307D01*
X131347433Y-24746316D01*
X131445923Y-24893716D01*
X131445926Y-24893720D01*
X131571279Y-25019073D01*
X131571283Y-25019076D01*
X131718683Y-25117566D01*
X131718692Y-25117571D01*
X131882479Y-25185413D01*
X131882487Y-25185415D01*
X132056353Y-25219999D01*
X132056357Y-25220000D01*
X132495000Y-25220000D01*
X132495000Y-24620000D01*
X132895000Y-24620000D01*
X132895000Y-25220000D01*
X133333643Y-25220000D01*
X133333646Y-25219999D01*
X133507512Y-25185415D01*
X133513347Y-25183646D01*
X133514013Y-25185843D01*
X133573305Y-25179464D01*
X133635787Y-25210733D01*
X133671445Y-25270819D01*
X133675300Y-25301496D01*
X133675300Y-39529045D01*
X133655615Y-39596084D01*
X133638981Y-39616726D01*
X130140226Y-43115481D01*
X130078903Y-43148966D01*
X130052545Y-43151800D01*
X129990743Y-43151800D01*
X129838016Y-43192723D01*
X129838009Y-43192726D01*
X129701090Y-43271775D01*
X129701082Y-43271781D01*
X129589281Y-43383582D01*
X129589275Y-43383590D01*
X129510226Y-43520509D01*
X129510223Y-43520516D01*
X129469300Y-43673243D01*
X129469300Y-43831356D01*
X129510223Y-43984083D01*
X129510226Y-43984090D01*
X129589275Y-44121009D01*
X129589279Y-44121014D01*
X129589280Y-44121016D01*
X129701084Y-44232820D01*
X129701086Y-44232821D01*
X129701090Y-44232824D01*
X129800435Y-44290180D01*
X129838016Y-44311877D01*
X129990743Y-44352800D01*
X129990745Y-44352800D01*
X130148855Y-44352800D01*
X130148857Y-44352800D01*
X130301584Y-44311877D01*
X130438516Y-44232820D01*
X130550320Y-44121016D01*
X130629377Y-43984084D01*
X130670300Y-43831357D01*
X130670300Y-43769553D01*
X130689985Y-43702514D01*
X130706614Y-43681877D01*
X134311503Y-40076987D01*
X134311508Y-40076984D01*
X134321711Y-40066780D01*
X134321713Y-40066780D01*
X134396280Y-39992213D01*
X134449007Y-39900887D01*
X134453471Y-39884226D01*
X134454715Y-39879586D01*
X134466410Y-39835939D01*
X134476301Y-39799026D01*
X134476301Y-39693573D01*
X134476301Y-39685978D01*
X134476300Y-39685960D01*
X134476300Y-24120000D01*
X135697150Y-24120000D01*
X136350735Y-24120000D01*
X136334940Y-24135795D01*
X136295444Y-24204204D01*
X136275000Y-24280504D01*
X136275000Y-24359496D01*
X136295444Y-24435796D01*
X136334940Y-24504205D01*
X136350735Y-24520000D01*
X135697150Y-24520000D01*
X135709584Y-24582512D01*
X135709586Y-24582520D01*
X135777428Y-24746307D01*
X135777433Y-24746316D01*
X135875923Y-24893716D01*
X135875926Y-24893720D01*
X136001279Y-25019073D01*
X136001283Y-25019076D01*
X136148683Y-25117566D01*
X136148692Y-25117571D01*
X136312479Y-25185413D01*
X136312487Y-25185415D01*
X136486353Y-25219999D01*
X136486357Y-25220000D01*
X136675000Y-25220000D01*
X136675000Y-24620000D01*
X137075000Y-24620000D01*
X137075000Y-25220000D01*
X137263643Y-25220000D01*
X137263646Y-25219999D01*
X137437512Y-25185415D01*
X137437520Y-25185413D01*
X137601307Y-25117571D01*
X137601316Y-25117566D01*
X137748716Y-25019076D01*
X137748720Y-25019073D01*
X137874073Y-24893720D01*
X137874076Y-24893716D01*
X137972566Y-24746316D01*
X137972571Y-24746307D01*
X138040413Y-24582520D01*
X138040415Y-24582512D01*
X138052850Y-24520000D01*
X137399265Y-24520000D01*
X137415060Y-24504205D01*
X137454556Y-24435796D01*
X137475000Y-24359496D01*
X137475000Y-24280504D01*
X137454556Y-24204204D01*
X137415060Y-24135795D01*
X137399265Y-24120000D01*
X138052850Y-24120000D01*
X138040415Y-24057487D01*
X138040413Y-24057479D01*
X137972571Y-23893692D01*
X137972566Y-23893683D01*
X137874076Y-23746283D01*
X137874073Y-23746279D01*
X137748720Y-23620926D01*
X137748716Y-23620923D01*
X137601316Y-23522433D01*
X137601307Y-23522428D01*
X137437520Y-23454586D01*
X137437512Y-23454584D01*
X137263646Y-23420000D01*
X137075000Y-23420000D01*
X137075000Y-24020000D01*
X136675000Y-24020000D01*
X136675000Y-23420000D01*
X136486353Y-23420000D01*
X136312487Y-23454584D01*
X136312479Y-23454586D01*
X136148692Y-23522428D01*
X136148683Y-23522433D01*
X136001283Y-23620923D01*
X136001279Y-23620926D01*
X135875926Y-23746279D01*
X135875923Y-23746283D01*
X135777433Y-23893683D01*
X135777428Y-23893692D01*
X135709586Y-24057479D01*
X135709584Y-24057487D01*
X135697150Y-24120000D01*
X134476300Y-24120000D01*
X134476300Y-19293329D01*
X134476301Y-19293316D01*
X134476301Y-19177874D01*
X134469977Y-19154274D01*
X134449007Y-19076013D01*
X134449006Y-19076012D01*
X134449006Y-19076010D01*
X134449005Y-19076009D01*
X134438404Y-19057648D01*
X134438403Y-19057647D01*
X134433647Y-19049409D01*
X134396280Y-18984687D01*
X134321713Y-18910120D01*
X134321710Y-18910118D01*
X133328146Y-17916554D01*
X133294662Y-17855232D01*
X133299646Y-17785540D01*
X133341518Y-17729607D01*
X133372032Y-17714166D01*
X133371679Y-17713312D01*
X133491041Y-17663871D01*
X133491054Y-17663864D01*
X133593413Y-17595469D01*
X133593417Y-17595466D01*
X133680466Y-17508417D01*
X133680469Y-17508413D01*
X133748864Y-17406054D01*
X133748871Y-17406041D01*
X133795979Y-17292310D01*
X133795982Y-17292300D01*
X133820000Y-17171559D01*
X133820000Y-17048440D01*
X133795982Y-16927699D01*
X133795979Y-16927689D01*
X133748871Y-16813958D01*
X133748864Y-16813945D01*
X133680469Y-16711586D01*
X133680466Y-16711582D01*
X133643002Y-16674118D01*
X133609517Y-16612795D01*
X133614501Y-16543103D01*
X133656373Y-16487170D01*
X133668363Y-16479539D01*
X133818716Y-16379076D01*
X133818720Y-16379073D01*
X133944073Y-16253720D01*
X133944076Y-16253716D01*
X134042566Y-16106316D01*
X134042571Y-16106307D01*
X134110413Y-15942520D01*
X134110415Y-15942512D01*
X134122850Y-15880000D01*
X133469265Y-15880000D01*
X133485060Y-15864205D01*
X133524556Y-15795796D01*
X133545000Y-15719496D01*
X133545000Y-15640504D01*
X133524556Y-15564204D01*
X133485060Y-15495795D01*
X133469265Y-15480000D01*
X134122850Y-15480000D01*
X135697150Y-15480000D01*
X136350735Y-15480000D01*
X136334940Y-15495795D01*
X136295444Y-15564204D01*
X136275000Y-15640504D01*
X136275000Y-15719496D01*
X136295444Y-15795796D01*
X136334940Y-15864205D01*
X136350735Y-15880000D01*
X135697150Y-15880000D01*
X135709584Y-15942512D01*
X135709586Y-15942520D01*
X135777428Y-16106307D01*
X135777433Y-16106316D01*
X135875923Y-16253716D01*
X135875926Y-16253720D01*
X136001279Y-16379073D01*
X136001283Y-16379076D01*
X136148683Y-16477566D01*
X136148692Y-16477571D01*
X136312479Y-16545413D01*
X136312487Y-16545415D01*
X136486353Y-16579999D01*
X136486357Y-16580000D01*
X136675000Y-16580000D01*
X136675000Y-15980000D01*
X137075000Y-15980000D01*
X137075000Y-16580000D01*
X137263643Y-16580000D01*
X137263646Y-16579999D01*
X137437512Y-16545415D01*
X137437520Y-16545413D01*
X137601307Y-16477571D01*
X137601316Y-16477566D01*
X137748716Y-16379076D01*
X137748720Y-16379073D01*
X137874073Y-16253720D01*
X137874076Y-16253716D01*
X137972566Y-16106316D01*
X137972571Y-16106307D01*
X138040413Y-15942520D01*
X138040415Y-15942512D01*
X138052850Y-15880000D01*
X137399265Y-15880000D01*
X137415060Y-15864205D01*
X137454556Y-15795796D01*
X137475000Y-15719496D01*
X137475000Y-15640504D01*
X137454556Y-15564204D01*
X137415060Y-15495795D01*
X137399265Y-15480000D01*
X138052850Y-15480000D01*
X138040415Y-15417487D01*
X138040413Y-15417479D01*
X137972571Y-15253692D01*
X137972566Y-15253683D01*
X137874076Y-15106283D01*
X137874073Y-15106279D01*
X137748720Y-14980926D01*
X137748716Y-14980923D01*
X137601316Y-14882433D01*
X137601307Y-14882428D01*
X137437520Y-14814586D01*
X137437512Y-14814584D01*
X137263646Y-14780000D01*
X137075000Y-14780000D01*
X137075000Y-15380000D01*
X136675000Y-15380000D01*
X136675000Y-14780000D01*
X136486353Y-14780000D01*
X136312487Y-14814584D01*
X136312479Y-14814586D01*
X136148692Y-14882428D01*
X136148683Y-14882433D01*
X136001283Y-14980923D01*
X136001279Y-14980926D01*
X135875926Y-15106279D01*
X135875923Y-15106283D01*
X135777433Y-15253683D01*
X135777428Y-15253692D01*
X135709586Y-15417479D01*
X135709584Y-15417487D01*
X135697150Y-15480000D01*
X134122850Y-15480000D01*
X134110415Y-15417487D01*
X134110413Y-15417479D01*
X134042571Y-15253692D01*
X134042566Y-15253683D01*
X133944076Y-15106283D01*
X133944073Y-15106279D01*
X133818720Y-14980926D01*
X133818716Y-14980923D01*
X133671316Y-14882433D01*
X133671307Y-14882428D01*
X133507520Y-14814586D01*
X133507512Y-14814584D01*
X133333646Y-14780000D01*
X132895000Y-14780000D01*
X132895000Y-15380000D01*
X132495000Y-15380000D01*
X132495000Y-14780000D01*
X132056353Y-14780000D01*
X131882487Y-14814584D01*
X131882479Y-14814586D01*
X131718692Y-14882428D01*
X131718683Y-14882433D01*
X131571283Y-14980923D01*
X131571279Y-14980926D01*
X131445926Y-15106279D01*
X131445923Y-15106283D01*
X131347433Y-15253683D01*
X131347428Y-15253692D01*
X131279586Y-15417479D01*
X131279584Y-15417487D01*
X131250099Y-15565719D01*
X131217714Y-15627630D01*
X131156999Y-15662204D01*
X131087229Y-15658465D01*
X131040801Y-15629209D01*
X125904792Y-10493200D01*
X120290304Y-4878711D01*
X133149500Y-4878711D01*
X133149500Y-5121288D01*
X133179172Y-5346680D01*
X133181162Y-5361789D01*
X133205261Y-5451726D01*
X133243947Y-5596104D01*
X133336773Y-5820205D01*
X133336777Y-5820214D01*
X133347888Y-5839458D01*
X133458064Y-6030289D01*
X133458066Y-6030292D01*
X133458067Y-6030293D01*
X133605733Y-6222736D01*
X133605739Y-6222743D01*
X133777256Y-6394260D01*
X133777263Y-6394266D01*
X133798150Y-6410293D01*
X133969711Y-6541936D01*
X134179788Y-6663224D01*
X134403900Y-6756054D01*
X134638211Y-6818838D01*
X134818586Y-6842584D01*
X134878711Y-6850500D01*
X134878712Y-6850500D01*
X135121289Y-6850500D01*
X135171284Y-6843918D01*
X135361789Y-6818838D01*
X135596100Y-6756054D01*
X135820212Y-6663224D01*
X136030289Y-6541936D01*
X136222738Y-6394265D01*
X136394265Y-6222738D01*
X136541936Y-6030289D01*
X136663224Y-5820212D01*
X136756054Y-5596100D01*
X136818838Y-5361789D01*
X136850500Y-5121288D01*
X136850500Y-4878712D01*
X136849757Y-4873072D01*
X136842584Y-4818586D01*
X136818838Y-4638211D01*
X136756054Y-4403900D01*
X136663224Y-4179788D01*
X136541936Y-3969711D01*
X136418549Y-3808909D01*
X136394266Y-3777263D01*
X136394260Y-3777256D01*
X136222743Y-3605739D01*
X136222736Y-3605733D01*
X136030293Y-3458067D01*
X136030292Y-3458066D01*
X136030289Y-3458064D01*
X135820212Y-3336776D01*
X135820205Y-3336773D01*
X135596104Y-3243947D01*
X135361785Y-3181161D01*
X135121289Y-3149500D01*
X135121288Y-3149500D01*
X134878712Y-3149500D01*
X134878711Y-3149500D01*
X134638214Y-3181161D01*
X134403895Y-3243947D01*
X134179794Y-3336773D01*
X134179785Y-3336777D01*
X133969706Y-3458067D01*
X133777263Y-3605733D01*
X133777256Y-3605739D01*
X133605739Y-3777256D01*
X133605733Y-3777263D01*
X133458067Y-3969706D01*
X133336777Y-4179785D01*
X133336773Y-4179794D01*
X133243947Y-4403895D01*
X133181161Y-4638214D01*
X133149500Y-4878711D01*
X120290304Y-4878711D01*
X117490913Y-2079320D01*
X117445250Y-2052956D01*
X117399589Y-2026593D01*
X117348657Y-2012946D01*
X117297727Y-1999300D01*
X117297726Y-1999300D01*
X88718139Y-1999300D01*
X88718123Y-1999299D01*
X88710527Y-1999299D01*
X88605074Y-1999299D01*
X88503213Y-2026593D01*
X88503211Y-2026593D01*
X88503211Y-2026594D01*
X88411884Y-2079322D01*
X88337318Y-2153889D01*
X86347808Y-4143398D01*
X86286485Y-4176883D01*
X86216793Y-4171899D01*
X86160860Y-4130027D01*
X86159809Y-4128603D01*
X86154508Y-4121307D01*
X86106379Y-4055063D01*
X85944937Y-3893621D01*
X85760228Y-3759421D01*
X85556803Y-3655770D01*
X85339660Y-3585215D01*
X85114162Y-3549500D01*
X85114157Y-3549500D01*
X84885843Y-3549500D01*
X84885838Y-3549500D01*
X84660339Y-3585215D01*
X84443196Y-3655770D01*
X84239771Y-3759421D01*
X84055061Y-3893622D01*
X83893622Y-4055061D01*
X83759421Y-4239771D01*
X83655770Y-4443196D01*
X83585215Y-4660339D01*
X83549500Y-4885837D01*
X83549500Y-5114162D01*
X83585215Y-5339660D01*
X83655770Y-5556803D01*
X83754817Y-5751192D01*
X83759421Y-5760228D01*
X83893621Y-5944937D01*
X84055063Y-6106379D01*
X84239772Y-6240579D01*
X84335884Y-6289550D01*
X84443196Y-6344229D01*
X84443198Y-6344229D01*
X84443201Y-6344231D01*
X84523202Y-6370225D01*
X84660339Y-6414784D01*
X84873778Y-6448590D01*
X84936913Y-6478519D01*
X84973844Y-6537831D01*
X84972846Y-6607694D01*
X84942061Y-6658744D01*
X81143926Y-10456881D01*
X81082603Y-10490366D01*
X81056245Y-10493200D01*
X78204098Y-10493200D01*
X78137059Y-10473515D01*
X78116417Y-10456881D01*
X78072717Y-10413181D01*
X78072709Y-10413175D01*
X77935790Y-10334126D01*
X77935786Y-10334124D01*
X77935784Y-10334123D01*
X77783057Y-10293200D01*
X77624943Y-10293200D01*
X77472216Y-10334123D01*
X77472209Y-10334126D01*
X77335290Y-10413175D01*
X77335282Y-10413181D01*
X77223481Y-10524982D01*
X77223475Y-10524990D01*
X77144426Y-10661909D01*
X77144423Y-10661916D01*
X77103500Y-10814643D01*
X77103500Y-10972757D01*
X77144215Y-11124707D01*
X77142552Y-11194557D01*
X77103389Y-11252419D01*
X77039161Y-11279923D01*
X77024440Y-11280800D01*
X69777802Y-11280800D01*
X69710763Y-11261115D01*
X69665008Y-11208311D01*
X69654863Y-11140614D01*
X69655700Y-11134256D01*
X69655700Y-10976145D01*
X69655700Y-10976143D01*
X69614777Y-10823416D01*
X69543471Y-10699909D01*
X69535724Y-10686490D01*
X69535718Y-10686482D01*
X69423917Y-10574681D01*
X69423909Y-10574675D01*
X69286990Y-10495626D01*
X69286986Y-10495624D01*
X69286984Y-10495623D01*
X69134257Y-10454700D01*
X69134256Y-10454700D01*
X69072455Y-10454700D01*
X69005416Y-10435015D01*
X68984774Y-10418381D01*
X64333325Y-5766932D01*
X64299840Y-5705609D01*
X64304824Y-5635917D01*
X64310514Y-5622970D01*
X64344231Y-5556799D01*
X64414784Y-5339660D01*
X64423783Y-5282842D01*
X64450500Y-5114162D01*
X64450500Y-4885837D01*
X64414784Y-4660339D01*
X64344229Y-4443196D01*
X64274376Y-4306103D01*
X64240579Y-4239772D01*
X64163356Y-4133485D01*
X64139877Y-4067680D01*
X64155702Y-3999626D01*
X64205808Y-3950931D01*
X64263675Y-3936600D01*
X65236325Y-3936600D01*
X65303364Y-3956285D01*
X65349119Y-4009089D01*
X65359063Y-4078247D01*
X65336643Y-4133486D01*
X65259421Y-4239771D01*
X65155770Y-4443196D01*
X65085215Y-4660339D01*
X65049500Y-4885837D01*
X65049500Y-5114162D01*
X65085215Y-5339660D01*
X65155770Y-5556803D01*
X65254817Y-5751192D01*
X65259421Y-5760228D01*
X65393621Y-5944937D01*
X65555063Y-6106379D01*
X65739772Y-6240579D01*
X65835884Y-6289550D01*
X65943196Y-6344229D01*
X65943198Y-6344229D01*
X65943201Y-6344231D01*
X66023202Y-6370225D01*
X66160339Y-6414784D01*
X66385838Y-6450500D01*
X66385843Y-6450500D01*
X66614162Y-6450500D01*
X66839660Y-6414784D01*
X66853482Y-6410293D01*
X67056799Y-6344231D01*
X67260228Y-6240579D01*
X67444937Y-6106379D01*
X67606379Y-5944937D01*
X67740579Y-5760228D01*
X67844231Y-5556799D01*
X67914784Y-5339660D01*
X67923783Y-5282842D01*
X67950500Y-5114162D01*
X67950500Y-4885837D01*
X67914784Y-4660339D01*
X67844229Y-4443196D01*
X67774376Y-4306103D01*
X67740579Y-4239772D01*
X67663356Y-4133485D01*
X67639877Y-4067680D01*
X67655702Y-3999626D01*
X67705808Y-3950931D01*
X67763675Y-3936600D01*
X68318845Y-3936600D01*
X68348285Y-3945244D01*
X68378272Y-3951768D01*
X68383287Y-3955522D01*
X68385884Y-3956285D01*
X68406526Y-3972919D01*
X68540132Y-4106525D01*
X68573617Y-4167848D01*
X68572786Y-4224130D01*
X68552401Y-4306103D01*
X68552401Y-4306105D01*
X68552400Y-4306111D01*
X68550088Y-4340209D01*
X68549500Y-4348879D01*
X68549500Y-5651122D01*
X68549501Y-5651125D01*
X68552399Y-5693886D01*
X68552399Y-5693887D01*
X68570565Y-5766932D01*
X68596957Y-5873057D01*
X68598360Y-5878696D01*
X68682967Y-6049292D01*
X68682969Y-6049295D01*
X68802277Y-6197721D01*
X68802278Y-6197722D01*
X68950704Y-6317030D01*
X68950707Y-6317032D01*
X69121302Y-6401639D01*
X69121303Y-6401639D01*
X69121307Y-6401641D01*
X69306111Y-6447600D01*
X69348877Y-6450500D01*
X70651122Y-6450499D01*
X70693889Y-6447600D01*
X70878693Y-6401641D01*
X71049296Y-6317030D01*
X71197722Y-6197722D01*
X71317030Y-6049296D01*
X71401641Y-5878693D01*
X71447600Y-5693889D01*
X71450500Y-5651123D01*
X71450499Y-4878006D01*
X79950000Y-4878006D01*
X79950000Y-5121993D01*
X79988165Y-5362959D01*
X80063560Y-5594998D01*
X80174323Y-5812380D01*
X80271298Y-5945856D01*
X80271299Y-5945856D01*
X80957241Y-5259914D01*
X81019881Y-5368408D01*
X81131592Y-5480119D01*
X81240084Y-5542757D01*
X80554141Y-6228699D01*
X80554142Y-6228700D01*
X80687619Y-6325676D01*
X80905001Y-6436439D01*
X81137040Y-6511834D01*
X81378007Y-6550000D01*
X81621993Y-6550000D01*
X81862959Y-6511834D01*
X82094998Y-6436439D01*
X82312377Y-6325678D01*
X82445856Y-6228699D01*
X82445857Y-6228698D01*
X81759916Y-5542757D01*
X81868408Y-5480119D01*
X81980119Y-5368408D01*
X82042757Y-5259915D01*
X82728698Y-5945857D01*
X82728699Y-5945856D01*
X82825678Y-5812377D01*
X82936439Y-5594998D01*
X83011834Y-5362959D01*
X83050000Y-5121993D01*
X83050000Y-4878006D01*
X83011834Y-4637040D01*
X82936439Y-4405001D01*
X82825676Y-4187619D01*
X82728700Y-4054142D01*
X82728699Y-4054141D01*
X82042757Y-4740083D01*
X81980119Y-4631592D01*
X81868408Y-4519881D01*
X81759915Y-4457242D01*
X82445856Y-3771299D01*
X82445856Y-3771298D01*
X82312380Y-3674323D01*
X82094998Y-3563560D01*
X81862959Y-3488165D01*
X81621993Y-3450000D01*
X81378007Y-3450000D01*
X81137040Y-3488165D01*
X80905001Y-3563560D01*
X80687626Y-3674319D01*
X80554142Y-3771299D01*
X81240085Y-4457242D01*
X81131592Y-4519881D01*
X81019881Y-4631592D01*
X80957242Y-4740085D01*
X80271299Y-4054142D01*
X80174319Y-4187626D01*
X80063560Y-4405001D01*
X79988165Y-4637040D01*
X79950000Y-4878006D01*
X71450499Y-4878006D01*
X71450499Y-4348878D01*
X71447600Y-4306111D01*
X71401641Y-4121307D01*
X71368786Y-4055061D01*
X71317033Y-3950709D01*
X71317031Y-3950707D01*
X71317030Y-3950704D01*
X71197722Y-3802278D01*
X71159183Y-3771299D01*
X71049295Y-3682969D01*
X71049292Y-3682967D01*
X70878697Y-3598360D01*
X70693892Y-3552400D01*
X70672506Y-3550950D01*
X70651123Y-3549500D01*
X70651120Y-3549500D01*
X69348877Y-3549500D01*
X69348874Y-3549501D01*
X69306113Y-3552399D01*
X69306106Y-3552400D01*
X69224130Y-3572786D01*
X69154322Y-3569862D01*
X69106525Y-3540132D01*
X68782015Y-3215622D01*
X68782013Y-3215620D01*
X68711128Y-3174694D01*
X68690689Y-3162893D01*
X68632866Y-3147400D01*
X68588827Y-3135600D01*
X62423227Y-3135600D01*
X62317773Y-3135600D01*
X62215910Y-3162893D01*
X62124587Y-3215620D01*
X62124584Y-3215622D01*
X58584522Y-6755684D01*
X58584520Y-6755687D01*
X58531793Y-6847012D01*
X58509993Y-6928373D01*
X58509992Y-6928372D01*
X58504500Y-6948868D01*
X58504500Y-12443582D01*
X58484815Y-12510621D01*
X58432011Y-12556376D01*
X58362853Y-12566320D01*
X58330416Y-12557017D01*
X58319996Y-12552416D01*
X58319991Y-12552415D01*
X58294865Y-12549500D01*
X56505143Y-12549500D01*
X56505117Y-12549502D01*
X56480012Y-12552413D01*
X56480008Y-12552415D01*
X56377235Y-12597793D01*
X56297794Y-12677234D01*
X56252415Y-12780006D01*
X56252415Y-12780008D01*
X56249500Y-12805131D01*
X56249500Y-14594856D01*
X56249502Y-14594882D01*
X56252413Y-14619987D01*
X56252415Y-14619991D01*
X56297793Y-14722764D01*
X56297794Y-14722765D01*
X56377235Y-14802206D01*
X56480009Y-14847585D01*
X56505135Y-14850500D01*
X56875500Y-14850499D01*
X56884186Y-14853049D01*
X56893147Y-14851761D01*
X56917183Y-14862738D01*
X56942539Y-14870183D01*
X56948467Y-14877025D01*
X56956703Y-14880786D01*
X56970989Y-14903017D01*
X56988294Y-14922987D01*
X56990581Y-14933502D01*
X56994477Y-14939564D01*
X56999500Y-14974499D01*
X56999500Y-15076840D01*
X56979815Y-15143879D01*
X56931795Y-15187325D01*
X56797002Y-15256006D01*
X56650505Y-15362441D01*
X56650500Y-15362445D01*
X56522445Y-15490500D01*
X56522441Y-15490505D01*
X56416006Y-15637002D01*
X56333788Y-15798360D01*
X56333787Y-15798363D01*
X56277829Y-15970589D01*
X56249500Y-16149448D01*
X56249500Y-16330551D01*
X56277829Y-16509410D01*
X56333787Y-16681636D01*
X56333788Y-16681639D01*
X56374585Y-16761705D01*
X56414848Y-16840726D01*
X56416006Y-16842997D01*
X56522441Y-16989494D01*
X56522445Y-16989499D01*
X56650500Y-17117554D01*
X56650505Y-17117558D01*
X56797001Y-17223993D01*
X56797003Y-17223994D01*
X56797006Y-17223996D01*
X56931796Y-17292675D01*
X56942859Y-17303123D01*
X56956703Y-17309446D01*
X56967743Y-17326625D01*
X56982591Y-17340648D01*
X56986832Y-17356329D01*
X56994477Y-17368224D01*
X56999500Y-17403159D01*
X56999500Y-17616840D01*
X56979815Y-17683879D01*
X56931795Y-17727325D01*
X56797002Y-17796006D01*
X56650505Y-17902441D01*
X56650500Y-17902445D01*
X56522445Y-18030500D01*
X56522441Y-18030505D01*
X56416006Y-18177002D01*
X56333788Y-18338360D01*
X56333787Y-18338363D01*
X56277829Y-18510589D01*
X56249500Y-18689448D01*
X56249500Y-18870551D01*
X56277829Y-19049410D01*
X56333787Y-19221636D01*
X56333788Y-19221639D01*
X56416006Y-19382997D01*
X56522441Y-19529494D01*
X56522445Y-19529499D01*
X56650500Y-19657554D01*
X56650505Y-19657558D01*
X56750927Y-19730518D01*
X56797006Y-19763996D01*
X56886463Y-19809577D01*
X56958360Y-19846211D01*
X56958366Y-19846213D01*
X57061611Y-19879759D01*
X57119287Y-19919196D01*
X57146486Y-19983554D01*
X57134572Y-20052401D01*
X57087328Y-20103877D01*
X57061613Y-20115621D01*
X56920162Y-20161581D01*
X56744855Y-20250905D01*
X56744846Y-20250911D01*
X56668919Y-20306075D01*
X56668918Y-20306076D01*
X57214823Y-20851980D01*
X57207007Y-20854075D01*
X57092993Y-20919901D01*
X56999901Y-21012993D01*
X56934075Y-21127007D01*
X56931980Y-21134822D01*
X56386076Y-20588918D01*
X56386075Y-20588919D01*
X56330911Y-20664846D01*
X56330905Y-20664855D01*
X56241581Y-20840164D01*
X56180778Y-21027294D01*
X56150000Y-21221617D01*
X56150000Y-21418382D01*
X56180778Y-21612705D01*
X56241581Y-21799835D01*
X56330904Y-21975143D01*
X56386076Y-22051079D01*
X56386077Y-22051080D01*
X56931980Y-21505176D01*
X56934075Y-21512993D01*
X56999901Y-21627007D01*
X57092993Y-21720099D01*
X57207007Y-21785925D01*
X57214822Y-21788019D01*
X56668918Y-22333922D01*
X56744856Y-22389095D01*
X56922315Y-22479515D01*
X56973111Y-22527489D01*
X56989906Y-22595310D01*
X56967369Y-22661445D01*
X56922315Y-22700485D01*
X56744855Y-22790905D01*
X56744846Y-22790911D01*
X56668919Y-22846075D01*
X56668918Y-22846076D01*
X57214823Y-23391980D01*
X57207007Y-23394075D01*
X57092993Y-23459901D01*
X56999901Y-23552993D01*
X56934075Y-23667007D01*
X56931980Y-23674822D01*
X56386076Y-23128918D01*
X56386075Y-23128919D01*
X56330911Y-23204846D01*
X56330905Y-23204855D01*
X56241581Y-23380164D01*
X56180778Y-23567294D01*
X56150000Y-23761617D01*
X56150000Y-23958382D01*
X56180778Y-24152705D01*
X56241581Y-24339835D01*
X56330904Y-24515143D01*
X56386076Y-24591079D01*
X56386077Y-24591080D01*
X56931980Y-24045176D01*
X56934075Y-24052993D01*
X56999901Y-24167007D01*
X57092993Y-24260099D01*
X57207007Y-24325925D01*
X57214822Y-24328019D01*
X56668918Y-24873922D01*
X56744856Y-24929095D01*
X56922315Y-25019515D01*
X56973111Y-25067489D01*
X56989906Y-25135310D01*
X56967369Y-25201445D01*
X56922315Y-25240485D01*
X56744855Y-25330905D01*
X56744846Y-25330911D01*
X56668919Y-25386075D01*
X56668918Y-25386076D01*
X57214823Y-25931980D01*
X57207007Y-25934075D01*
X57092993Y-25999901D01*
X56999901Y-26092993D01*
X56934075Y-26207007D01*
X56931980Y-26214822D01*
X56386076Y-25668918D01*
X56386075Y-25668919D01*
X56330911Y-25744846D01*
X56330905Y-25744855D01*
X56241581Y-25920164D01*
X56180778Y-26107294D01*
X56150000Y-26301617D01*
X56150000Y-26498382D01*
X56180778Y-26692705D01*
X56241581Y-26879835D01*
X56330904Y-27055143D01*
X56386076Y-27131079D01*
X56386077Y-27131080D01*
X56931980Y-26585176D01*
X56934075Y-26592993D01*
X56999901Y-26707007D01*
X57092993Y-26800099D01*
X57207007Y-26865925D01*
X57214822Y-26868019D01*
X56668918Y-27413922D01*
X56744856Y-27469095D01*
X56920164Y-27558418D01*
X57107294Y-27619221D01*
X57301618Y-27650000D01*
X57498382Y-27650000D01*
X57692705Y-27619221D01*
X57879835Y-27558418D01*
X58055143Y-27469095D01*
X58131079Y-27413922D01*
X58131080Y-27413921D01*
X57585178Y-26868019D01*
X57592993Y-26865925D01*
X57707007Y-26800099D01*
X57800099Y-26707007D01*
X57865925Y-26592993D01*
X57868019Y-26585177D01*
X58413921Y-27131080D01*
X58413922Y-27131079D01*
X58469095Y-27055143D01*
X58558418Y-26879835D01*
X58619221Y-26692705D01*
X58650000Y-26498382D01*
X58650000Y-26301617D01*
X58619221Y-26107294D01*
X58558418Y-25920164D01*
X58469095Y-25744856D01*
X58413922Y-25668919D01*
X58413922Y-25668918D01*
X57868018Y-26214821D01*
X57865925Y-26207007D01*
X57800099Y-26092993D01*
X57707007Y-25999901D01*
X57592993Y-25934075D01*
X57585177Y-25931980D01*
X58131080Y-25386077D01*
X58131079Y-25386076D01*
X58055141Y-25330902D01*
X57877685Y-25240485D01*
X57826888Y-25192511D01*
X57810093Y-25124690D01*
X57832630Y-25058555D01*
X57877685Y-25019515D01*
X58055140Y-24929097D01*
X58055141Y-24929097D01*
X58131079Y-24873922D01*
X58131080Y-24873921D01*
X57585178Y-24328019D01*
X57592993Y-24325925D01*
X57707007Y-24260099D01*
X57800099Y-24167007D01*
X57865925Y-24052993D01*
X57868019Y-24045177D01*
X58413921Y-24591080D01*
X58413922Y-24591079D01*
X58469095Y-24515143D01*
X58558418Y-24339835D01*
X58619221Y-24152705D01*
X58650000Y-23958382D01*
X58650000Y-23761617D01*
X58619221Y-23567294D01*
X58558418Y-23380164D01*
X58469095Y-23204856D01*
X58413922Y-23128919D01*
X58413922Y-23128918D01*
X57868018Y-23674821D01*
X57865925Y-23667007D01*
X57800099Y-23552993D01*
X57707007Y-23459901D01*
X57592993Y-23394075D01*
X57585177Y-23391980D01*
X58131080Y-22846077D01*
X58131079Y-22846076D01*
X58055141Y-22790902D01*
X57877685Y-22700485D01*
X57826888Y-22652511D01*
X57810093Y-22584690D01*
X57832630Y-22518555D01*
X57877685Y-22479515D01*
X58055140Y-22389097D01*
X58055141Y-22389097D01*
X58131079Y-22333922D01*
X58131080Y-22333921D01*
X57585178Y-21788019D01*
X57592993Y-21785925D01*
X57707007Y-21720099D01*
X57800099Y-21627007D01*
X57865925Y-21512993D01*
X57868019Y-21505177D01*
X58413921Y-22051080D01*
X58413922Y-22051079D01*
X58469095Y-21975143D01*
X58558418Y-21799835D01*
X58619221Y-21612705D01*
X58650000Y-21418382D01*
X58650000Y-21221617D01*
X58619221Y-21027294D01*
X58558418Y-20840164D01*
X58469095Y-20664856D01*
X58413922Y-20588919D01*
X58413922Y-20588918D01*
X57868018Y-21134821D01*
X57865925Y-21127007D01*
X57800099Y-21012993D01*
X57707007Y-20919901D01*
X57592993Y-20854075D01*
X57585177Y-20851980D01*
X58131080Y-20306077D01*
X58131079Y-20306076D01*
X58055143Y-20250904D01*
X57879837Y-20161582D01*
X57738386Y-20115621D01*
X57680711Y-20076183D01*
X57653513Y-20011824D01*
X57665428Y-19942978D01*
X57712672Y-19891502D01*
X57738388Y-19879759D01*
X57841633Y-19846213D01*
X57841639Y-19846211D01*
X57860431Y-19836636D01*
X58002994Y-19763996D01*
X58149501Y-19657553D01*
X58277553Y-19529501D01*
X58383996Y-19382994D01*
X58466211Y-19221639D01*
X58522171Y-19049409D01*
X58536765Y-18957259D01*
X58550500Y-18870551D01*
X58550500Y-18689448D01*
X58528257Y-18549016D01*
X58522171Y-18510591D01*
X58470155Y-18350499D01*
X58466212Y-18338363D01*
X58466211Y-18338360D01*
X58425956Y-18259357D01*
X58383996Y-18177006D01*
X58335221Y-18109872D01*
X58277558Y-18030505D01*
X58277554Y-18030500D01*
X58149499Y-17902445D01*
X58149494Y-17902441D01*
X58002997Y-17796006D01*
X58002996Y-17796005D01*
X58002994Y-17796004D01*
X57896582Y-17741784D01*
X57868205Y-17727325D01*
X57857140Y-17716875D01*
X57843297Y-17710553D01*
X57832255Y-17693372D01*
X57817409Y-17679350D01*
X57813167Y-17663670D01*
X57805523Y-17651775D01*
X57800500Y-17616840D01*
X57800500Y-17403159D01*
X57820185Y-17336120D01*
X57868202Y-17292675D01*
X58002994Y-17223996D01*
X58149501Y-17117553D01*
X58277553Y-16989501D01*
X58383996Y-16842994D01*
X58466211Y-16681639D01*
X58522171Y-16509409D01*
X58540702Y-16392410D01*
X58550500Y-16330551D01*
X58550500Y-16149448D01*
X58533763Y-16043782D01*
X58522171Y-15970591D01*
X58466211Y-15798361D01*
X58466211Y-15798360D01*
X58417103Y-15701982D01*
X58383996Y-15637006D01*
X58349975Y-15590180D01*
X58277558Y-15490505D01*
X58277554Y-15490500D01*
X58149499Y-15362445D01*
X58149494Y-15362441D01*
X58002997Y-15256006D01*
X58002996Y-15256005D01*
X58002994Y-15256004D01*
X57868205Y-15187325D01*
X57857140Y-15176875D01*
X57843297Y-15170553D01*
X57832255Y-15153372D01*
X57817409Y-15139350D01*
X57813167Y-15123670D01*
X57805523Y-15111775D01*
X57800500Y-15076840D01*
X57800500Y-14974499D01*
X57820185Y-14907460D01*
X57872989Y-14861705D01*
X57924500Y-14850499D01*
X58294856Y-14850499D01*
X58294864Y-14850499D01*
X58294879Y-14850497D01*
X58294882Y-14850497D01*
X58319987Y-14847586D01*
X58319988Y-14847585D01*
X58319991Y-14847585D01*
X58422765Y-14802206D01*
X58502206Y-14722765D01*
X58547585Y-14619991D01*
X58550500Y-14594865D01*
X58550499Y-13750793D01*
X58570183Y-13683755D01*
X58622987Y-13638000D01*
X58692146Y-13628056D01*
X58706571Y-13631014D01*
X58825943Y-13663000D01*
X58825946Y-13663000D01*
X58984055Y-13663000D01*
X58984057Y-13663000D01*
X59136784Y-13622077D01*
X59273716Y-13543020D01*
X59385520Y-13431216D01*
X59464577Y-13294284D01*
X59505500Y-13141557D01*
X59505500Y-12983443D01*
X59464577Y-12830716D01*
X59435300Y-12780006D01*
X59385524Y-12693790D01*
X59385518Y-12693782D01*
X59341819Y-12650083D01*
X59308334Y-12588760D01*
X59305500Y-12562402D01*
X59305500Y-7218855D01*
X59325185Y-7151816D01*
X59341819Y-7131174D01*
X60286667Y-6186326D01*
X61351348Y-5121644D01*
X61412669Y-5088161D01*
X61482361Y-5093145D01*
X61538294Y-5135017D01*
X61561500Y-5189929D01*
X61585215Y-5339660D01*
X61655770Y-5556803D01*
X61754817Y-5751192D01*
X61759421Y-5760228D01*
X61893621Y-5944937D01*
X62055063Y-6106379D01*
X62239772Y-6240579D01*
X62335884Y-6289550D01*
X62443196Y-6344229D01*
X62443198Y-6344229D01*
X62443201Y-6344231D01*
X62523202Y-6370225D01*
X62660339Y-6414784D01*
X62885838Y-6450500D01*
X62885843Y-6450500D01*
X63114162Y-6450500D01*
X63339660Y-6414784D01*
X63353482Y-6410293D01*
X63556799Y-6344231D01*
X63622959Y-6310520D01*
X63691625Y-6297625D01*
X63756365Y-6323901D01*
X63766932Y-6333325D01*
X68418381Y-10984774D01*
X68432442Y-11010525D01*
X68448861Y-11034852D01*
X68450106Y-11042875D01*
X68451866Y-11046097D01*
X68454669Y-11069665D01*
X68454700Y-11071042D01*
X68454700Y-11134257D01*
X68456252Y-11140052D01*
X68456567Y-11154010D01*
X68449159Y-11181509D01*
X68444772Y-11209649D01*
X68440190Y-11214811D01*
X68438395Y-11221476D01*
X68417295Y-11240606D01*
X68398392Y-11261905D01*
X68391678Y-11263832D01*
X68386634Y-11268407D01*
X68360667Y-11272738D01*
X68332598Y-11280800D01*
X63290655Y-11280800D01*
X63223616Y-11261115D01*
X63202974Y-11244481D01*
X62960619Y-11002126D01*
X62927134Y-10940803D01*
X62924300Y-10914445D01*
X62924300Y-10852645D01*
X62924300Y-10852643D01*
X62883377Y-10699916D01*
X62822861Y-10595098D01*
X62804324Y-10562990D01*
X62804318Y-10562982D01*
X62692517Y-10451181D01*
X62692509Y-10451175D01*
X62555590Y-10372126D01*
X62555586Y-10372124D01*
X62555584Y-10372123D01*
X62402857Y-10331200D01*
X62244743Y-10331200D01*
X62092016Y-10372123D01*
X62092009Y-10372126D01*
X61955090Y-10451175D01*
X61955082Y-10451181D01*
X61843281Y-10562982D01*
X61843275Y-10562990D01*
X61764226Y-10699909D01*
X61764223Y-10699916D01*
X61723300Y-10852643D01*
X61723300Y-11010757D01*
X61761685Y-11154010D01*
X61764223Y-11163483D01*
X61764226Y-11163490D01*
X61843275Y-11300409D01*
X61843279Y-11300414D01*
X61843280Y-11300416D01*
X61955084Y-11412220D01*
X61955086Y-11412221D01*
X61955090Y-11412224D01*
X62060572Y-11473123D01*
X62092016Y-11491277D01*
X62244743Y-11532200D01*
X62306545Y-11532200D01*
X62373584Y-11551885D01*
X62394226Y-11568519D01*
X62752919Y-11927212D01*
X62752920Y-11927213D01*
X62827487Y-12001780D01*
X62918813Y-12054507D01*
X63020673Y-12081800D01*
X68387902Y-12081800D01*
X68454941Y-12101485D01*
X68500696Y-12154289D01*
X68510640Y-12223447D01*
X68483173Y-12283591D01*
X68483626Y-12283939D01*
X68482115Y-12285907D01*
X68481615Y-12287003D01*
X68479680Y-12289080D01*
X68478675Y-12290390D01*
X68399626Y-12427309D01*
X68399623Y-12427316D01*
X68358700Y-12580043D01*
X68358700Y-12641845D01*
X68339015Y-12708884D01*
X68322381Y-12729526D01*
X67960122Y-13091784D01*
X67960118Y-13091790D01*
X67907393Y-13183110D01*
X67904357Y-13194441D01*
X67893356Y-13235500D01*
X67880100Y-13284973D01*
X67880100Y-24878302D01*
X67860415Y-24945341D01*
X67843781Y-24965983D01*
X67800081Y-25009682D01*
X67800075Y-25009690D01*
X67721026Y-25146609D01*
X67721023Y-25146616D01*
X67680100Y-25299343D01*
X67680100Y-25457457D01*
X67718809Y-25601919D01*
X67721023Y-25610183D01*
X67721026Y-25610190D01*
X67800075Y-25747109D01*
X67800079Y-25747114D01*
X67800080Y-25747116D01*
X67911884Y-25858920D01*
X67917744Y-25862303D01*
X67965962Y-25912866D01*
X67979189Y-25981472D01*
X67953226Y-26046338D01*
X67943431Y-26057374D01*
X63267526Y-30733281D01*
X63206203Y-30766766D01*
X63179845Y-30769600D01*
X62793127Y-30769600D01*
X62726088Y-30749915D01*
X62680333Y-30697111D01*
X62670389Y-30627953D01*
X62682642Y-30589306D01*
X62738417Y-30479838D01*
X62799221Y-30292705D01*
X62830000Y-30098382D01*
X62830000Y-29901617D01*
X62799221Y-29707294D01*
X62738418Y-29520164D01*
X62649095Y-29344856D01*
X62593922Y-29268919D01*
X62593921Y-29268918D01*
X62048018Y-29814820D01*
X62045925Y-29807007D01*
X61980099Y-29692993D01*
X61887007Y-29599901D01*
X61772993Y-29534075D01*
X61765177Y-29531980D01*
X62311080Y-28986077D01*
X62311079Y-28986076D01*
X62235143Y-28930904D01*
X62059835Y-28841581D01*
X61872705Y-28780778D01*
X61678382Y-28750000D01*
X61481618Y-28750000D01*
X61287294Y-28780778D01*
X61100164Y-28841581D01*
X60924855Y-28930905D01*
X60924846Y-28930911D01*
X60848919Y-28986075D01*
X60848918Y-28986076D01*
X61394823Y-29531980D01*
X61387007Y-29534075D01*
X61272993Y-29599901D01*
X61179901Y-29692993D01*
X61114075Y-29807007D01*
X61111980Y-29814822D01*
X60566076Y-29268918D01*
X60566075Y-29268919D01*
X60510911Y-29344846D01*
X60510905Y-29344855D01*
X60421581Y-29520162D01*
X60375621Y-29661613D01*
X60336183Y-29719288D01*
X60271824Y-29746486D01*
X60202978Y-29734571D01*
X60151502Y-29687327D01*
X60139759Y-29661611D01*
X60106213Y-29558366D01*
X60106211Y-29558360D01*
X60062950Y-29473458D01*
X60023996Y-29397006D01*
X59960281Y-29309309D01*
X59917558Y-29250505D01*
X59917554Y-29250500D01*
X59789499Y-29122445D01*
X59789494Y-29122441D01*
X59642997Y-29016006D01*
X59642996Y-29016005D01*
X59642994Y-29016004D01*
X59584257Y-28986076D01*
X59481639Y-28933788D01*
X59481636Y-28933787D01*
X59309410Y-28877829D01*
X59130551Y-28849500D01*
X59130546Y-28849500D01*
X58949454Y-28849500D01*
X58949449Y-28849500D01*
X58770589Y-28877829D01*
X58598363Y-28933787D01*
X58598360Y-28933788D01*
X58437002Y-29016006D01*
X58290505Y-29122441D01*
X58290500Y-29122445D01*
X58162445Y-29250500D01*
X58162441Y-29250505D01*
X58056006Y-29397002D01*
X57973787Y-29558363D01*
X57972517Y-29561431D01*
X57971721Y-29562417D01*
X57971577Y-29562702D01*
X57971517Y-29562671D01*
X57971267Y-29562981D01*
X57970993Y-29564955D01*
X57949442Y-29590064D01*
X57928676Y-29615834D01*
X57926785Y-29616463D01*
X57925488Y-29617975D01*
X57893775Y-29627450D01*
X57862382Y-29637899D01*
X57859848Y-29637586D01*
X57858543Y-29637977D01*
X57851020Y-29636499D01*
X57823584Y-29633119D01*
X57810911Y-29629463D01*
X57806287Y-29626793D01*
X57741279Y-29609374D01*
X57740127Y-29609042D01*
X57711594Y-29590895D01*
X57682745Y-29573310D01*
X57682208Y-29572205D01*
X57681171Y-29571546D01*
X57666975Y-29540846D01*
X57652216Y-29510463D01*
X57652059Y-29508589D01*
X57651846Y-29508128D01*
X57651955Y-29507341D01*
X57650499Y-29489901D01*
X57650499Y-29105143D01*
X57650499Y-29105136D01*
X57649512Y-29096623D01*
X57647586Y-29080012D01*
X57647585Y-29080010D01*
X57647585Y-29080009D01*
X57602206Y-28977235D01*
X57522765Y-28897794D01*
X57511353Y-28892755D01*
X57419992Y-28852415D01*
X57394865Y-28849500D01*
X55605143Y-28849500D01*
X55605117Y-28849502D01*
X55580012Y-28852413D01*
X55580008Y-28852415D01*
X55477235Y-28897793D01*
X55397794Y-28977234D01*
X55352415Y-29080006D01*
X55352415Y-29080008D01*
X55349500Y-29105131D01*
X55349500Y-30894856D01*
X55349502Y-30894882D01*
X55352413Y-30919987D01*
X55352415Y-30919991D01*
X55397793Y-31022764D01*
X55397794Y-31022765D01*
X55477235Y-31102206D01*
X55580009Y-31147585D01*
X55605135Y-31150500D01*
X55635443Y-31150499D01*
X55702480Y-31170182D01*
X55748237Y-31222984D01*
X55758182Y-31292142D01*
X55729159Y-31355699D01*
X55723125Y-31362180D01*
X54488722Y-32596584D01*
X54488720Y-32596587D01*
X54435993Y-32687910D01*
X54408700Y-32789773D01*
X54408700Y-33375702D01*
X54389015Y-33442741D01*
X54372381Y-33463383D01*
X54328681Y-33507082D01*
X54328675Y-33507090D01*
X54249626Y-33644009D01*
X54249623Y-33644016D01*
X54208700Y-33796743D01*
X54208700Y-33954857D01*
X54223543Y-34010253D01*
X54224094Y-34012307D01*
X54222431Y-34082156D01*
X54183268Y-34140019D01*
X54119040Y-34167523D01*
X54104319Y-34168400D01*
X47201454Y-34168400D01*
X47134415Y-34148715D01*
X47088660Y-34095911D01*
X47078716Y-34026753D01*
X47107741Y-33963197D01*
X47113773Y-33956719D01*
X48659011Y-32411481D01*
X53326703Y-27743787D01*
X53326708Y-27743784D01*
X53336911Y-27733580D01*
X53336913Y-27733580D01*
X53411480Y-27659013D01*
X53464207Y-27567687D01*
X53465031Y-27564613D01*
X53491501Y-27465827D01*
X53491501Y-27360373D01*
X53491500Y-27360371D01*
X53491500Y-27352769D01*
X53491500Y-15470098D01*
X53511185Y-15403059D01*
X53527819Y-15382417D01*
X53547795Y-15362441D01*
X53571520Y-15338716D01*
X53650577Y-15201784D01*
X53691500Y-15049057D01*
X53691500Y-14890943D01*
X53650577Y-14738216D01*
X53650573Y-14738209D01*
X53571524Y-14601290D01*
X53571518Y-14601282D01*
X53459717Y-14489481D01*
X53459709Y-14489475D01*
X53322790Y-14410426D01*
X53322786Y-14410424D01*
X53322784Y-14410423D01*
X53170057Y-14369500D01*
X53011943Y-14369500D01*
X52859216Y-14410423D01*
X52859209Y-14410426D01*
X52722290Y-14489475D01*
X52722282Y-14489481D01*
X52610481Y-14601282D01*
X52610475Y-14601290D01*
X52531426Y-14738209D01*
X52531423Y-14738216D01*
X52490500Y-14890943D01*
X52490500Y-15049057D01*
X52515908Y-15143879D01*
X52531423Y-15201783D01*
X52531426Y-15201790D01*
X52610475Y-15338709D01*
X52610481Y-15338717D01*
X52654181Y-15382417D01*
X52687666Y-15443740D01*
X52690500Y-15470098D01*
X52690500Y-27195845D01*
X52670815Y-27262884D01*
X52654181Y-27283526D01*
X39721081Y-40216626D01*
X39659758Y-40250111D01*
X39590066Y-40245127D01*
X39534133Y-40203255D01*
X39509716Y-40137791D01*
X39509400Y-40128945D01*
X39509400Y-35056774D01*
X39509399Y-35056770D01*
X39506667Y-35046573D01*
X39503888Y-35036200D01*
X39482107Y-34954912D01*
X39429380Y-34863587D01*
X38224419Y-33658626D01*
X38190934Y-33597303D01*
X38188100Y-33570945D01*
X38188100Y-33509145D01*
X38188100Y-33509143D01*
X38147177Y-33356416D01*
X38096661Y-33268919D01*
X38068124Y-33219490D01*
X38068118Y-33219482D01*
X37956317Y-33107681D01*
X37956309Y-33107675D01*
X37819390Y-33028626D01*
X37819386Y-33028624D01*
X37819384Y-33028623D01*
X37666657Y-32987700D01*
X37508543Y-32987700D01*
X37355816Y-33028623D01*
X37355809Y-33028626D01*
X37218890Y-33107675D01*
X37218882Y-33107681D01*
X37107081Y-33219482D01*
X37107075Y-33219490D01*
X37028026Y-33356409D01*
X37028023Y-33356416D01*
X36987100Y-33509143D01*
X36987100Y-33667257D01*
X37013043Y-33764075D01*
X37028023Y-33819983D01*
X37028026Y-33819990D01*
X37107075Y-33956909D01*
X37107079Y-33956914D01*
X37107080Y-33956916D01*
X37218884Y-34068720D01*
X37218886Y-34068721D01*
X37218890Y-34068724D01*
X37348697Y-34143667D01*
X37355816Y-34147777D01*
X37508543Y-34188700D01*
X37570345Y-34188700D01*
X37637384Y-34208385D01*
X37658026Y-34225019D01*
X38672081Y-35239074D01*
X38705566Y-35300397D01*
X38708400Y-35326755D01*
X38708400Y-36035945D01*
X38688715Y-36102984D01*
X38635911Y-36148739D01*
X38566753Y-36158683D01*
X38503197Y-36129658D01*
X38496719Y-36123626D01*
X36744519Y-34371426D01*
X36711034Y-34310103D01*
X36708200Y-34283745D01*
X36708200Y-34221945D01*
X36708200Y-34221943D01*
X36667277Y-34069216D01*
X36666991Y-34068720D01*
X36588224Y-33932290D01*
X36588218Y-33932282D01*
X36476417Y-33820481D01*
X36476409Y-33820475D01*
X36339490Y-33741426D01*
X36339486Y-33741424D01*
X36339484Y-33741423D01*
X36186757Y-33700500D01*
X36028643Y-33700500D01*
X35875916Y-33741423D01*
X35875909Y-33741426D01*
X35738990Y-33820475D01*
X35738982Y-33820481D01*
X35627181Y-33932282D01*
X35627175Y-33932290D01*
X35548126Y-34069209D01*
X35548123Y-34069216D01*
X35507200Y-34221943D01*
X35507200Y-34380057D01*
X35545904Y-34524500D01*
X35548123Y-34532783D01*
X35548126Y-34532790D01*
X35627175Y-34669709D01*
X35627179Y-34669714D01*
X35627180Y-34669716D01*
X35738984Y-34781520D01*
X35738986Y-34781521D01*
X35738990Y-34781524D01*
X35862951Y-34853092D01*
X35875916Y-34860577D01*
X36028643Y-34901500D01*
X36090445Y-34901500D01*
X36157484Y-34921185D01*
X36178126Y-34937819D01*
X38270381Y-37030074D01*
X38303866Y-37091397D01*
X38306700Y-37117755D01*
X38306700Y-38083296D01*
X38287015Y-38150335D01*
X38234211Y-38196090D01*
X38174756Y-38207041D01*
X38162481Y-38206252D01*
X38141757Y-38200700D01*
X38075983Y-38200700D01*
X38072011Y-38200445D01*
X38042773Y-38189782D01*
X38012916Y-38181015D01*
X38008106Y-38177139D01*
X38006370Y-38176506D01*
X38004867Y-38174529D01*
X37992274Y-38164381D01*
X35649115Y-35821222D01*
X35649113Y-35821220D01*
X35595716Y-35790391D01*
X35557789Y-35768493D01*
X35496980Y-35752200D01*
X35455927Y-35741200D01*
X35455926Y-35741200D01*
X28862755Y-35741200D01*
X28795716Y-35721515D01*
X28749961Y-35668711D01*
X28740017Y-35599553D01*
X28769042Y-35535997D01*
X28775074Y-35529519D01*
X35509174Y-28795419D01*
X35570497Y-28761934D01*
X35596855Y-28759100D01*
X44483602Y-28759100D01*
X44550641Y-28778785D01*
X44571283Y-28795419D01*
X44614984Y-28839120D01*
X44614986Y-28839121D01*
X44614990Y-28839124D01*
X44716611Y-28897794D01*
X44751916Y-28918177D01*
X44904643Y-28959100D01*
X44904645Y-28959100D01*
X45062755Y-28959100D01*
X45062757Y-28959100D01*
X45215484Y-28918177D01*
X45352416Y-28839120D01*
X45464220Y-28727316D01*
X45543277Y-28590384D01*
X45584200Y-28437657D01*
X45584200Y-28279543D01*
X45543277Y-28126816D01*
X45503210Y-28057417D01*
X45464224Y-27989890D01*
X45464218Y-27989882D01*
X45352417Y-27878081D01*
X45352409Y-27878075D01*
X45215490Y-27799026D01*
X45215486Y-27799024D01*
X45215484Y-27799023D01*
X45062757Y-27758100D01*
X44904643Y-27758100D01*
X44751916Y-27799023D01*
X44751909Y-27799026D01*
X44614990Y-27878075D01*
X44614982Y-27878081D01*
X44571283Y-27921781D01*
X44509960Y-27955266D01*
X44483602Y-27958100D01*
X35326873Y-27958100D01*
X35225010Y-27985393D01*
X35133687Y-28038120D01*
X35133684Y-28038122D01*
X28127726Y-35044081D01*
X28066403Y-35077566D01*
X28040045Y-35080400D01*
X11722598Y-35080400D01*
X11697372Y-35072992D01*
X11671338Y-35069309D01*
X11661412Y-35062433D01*
X11655559Y-35060715D01*
X11641604Y-35050294D01*
X11638153Y-35047317D01*
X11591216Y-35000380D01*
X11568609Y-34987328D01*
X11559749Y-34979685D01*
X11546885Y-34959766D01*
X11530527Y-34942610D01*
X11528281Y-34930959D01*
X11521844Y-34920991D01*
X11521791Y-34897280D01*
X11517305Y-34874003D01*
X11521708Y-34860227D01*
X11521688Y-34851121D01*
X11527548Y-34841956D01*
X11533353Y-34823796D01*
X11586477Y-34731784D01*
X11627400Y-34579057D01*
X11627400Y-34420943D01*
X11586477Y-34268216D01*
X11564174Y-34229585D01*
X11507424Y-34131290D01*
X11507418Y-34131282D01*
X11395617Y-34019481D01*
X11395609Y-34019475D01*
X11258690Y-33940426D01*
X11258686Y-33940424D01*
X11258684Y-33940423D01*
X11105957Y-33899500D01*
X10947843Y-33899500D01*
X10795116Y-33940423D01*
X10795109Y-33940426D01*
X10658190Y-34019475D01*
X10658182Y-34019481D01*
X10546381Y-34131282D01*
X10546375Y-34131290D01*
X10467326Y-34268209D01*
X10467323Y-34268216D01*
X10426400Y-34420943D01*
X10426400Y-34482745D01*
X10406715Y-34549784D01*
X10390081Y-34570426D01*
X10299522Y-34660984D01*
X10299518Y-34660990D01*
X10246792Y-34752313D01*
X10246791Y-34752314D01*
X10230047Y-34814810D01*
X10230047Y-34814811D01*
X10219790Y-34853092D01*
X10219500Y-34854173D01*
X10219500Y-37172273D01*
X10219500Y-37277727D01*
X10233146Y-37328657D01*
X10246793Y-37379589D01*
X10271287Y-37422012D01*
X10299520Y-37470913D01*
X10299522Y-37470915D01*
X12113881Y-39285274D01*
X12147366Y-39346597D01*
X12150200Y-39372955D01*
X12150200Y-39434757D01*
X12187676Y-39574617D01*
X12191123Y-39587483D01*
X12191126Y-39587490D01*
X12270175Y-39724409D01*
X12270179Y-39724414D01*
X12270180Y-39724416D01*
X12381984Y-39836220D01*
X12381986Y-39836221D01*
X12388435Y-39841170D01*
X12386764Y-39843347D01*
X12425718Y-39884181D01*
X12438957Y-39952785D01*
X12413004Y-40017656D01*
X12403197Y-40028708D01*
X10418722Y-42013184D01*
X10418720Y-42013187D01*
X10365993Y-42104511D01*
X10343248Y-42189395D01*
X10343248Y-42189399D01*
X10342261Y-42193085D01*
X10338700Y-42206374D01*
X10338700Y-49499902D01*
X10319015Y-49566941D01*
X10302381Y-49587583D01*
X10258681Y-49631282D01*
X10258675Y-49631290D01*
X10179626Y-49768209D01*
X10179623Y-49768216D01*
X10138700Y-49920943D01*
X500500Y-49920943D01*
X500500Y-30771243D01*
X15968500Y-30771243D01*
X15968500Y-30929357D01*
X16007639Y-31075424D01*
X16009423Y-31082083D01*
X16009426Y-31082090D01*
X16088475Y-31219009D01*
X16088479Y-31219014D01*
X16088480Y-31219016D01*
X16200284Y-31330820D01*
X16200286Y-31330821D01*
X16200290Y-31330824D01*
X16289998Y-31382616D01*
X16337216Y-31409877D01*
X16489943Y-31450800D01*
X16489945Y-31450800D01*
X16648055Y-31450800D01*
X16648057Y-31450800D01*
X16800784Y-31409877D01*
X16937716Y-31330820D01*
X16981417Y-31287119D01*
X17042740Y-31253634D01*
X17069098Y-31250800D01*
X21235125Y-31250800D01*
X21235127Y-31250800D01*
X21336988Y-31223507D01*
X21428313Y-31170780D01*
X26597474Y-26001617D01*
X28350000Y-26001617D01*
X28350000Y-26198382D01*
X28380778Y-26392705D01*
X28441581Y-26579835D01*
X28530904Y-26755143D01*
X28586076Y-26831079D01*
X28586077Y-26831080D01*
X29131980Y-26285176D01*
X29134075Y-26292993D01*
X29199901Y-26407007D01*
X29292993Y-26500099D01*
X29407007Y-26565925D01*
X29414822Y-26568019D01*
X28868918Y-27113922D01*
X28944856Y-27169095D01*
X29120164Y-27258418D01*
X29307294Y-27319221D01*
X29501618Y-27350000D01*
X29698382Y-27350000D01*
X29892705Y-27319221D01*
X30079835Y-27258418D01*
X30255143Y-27169095D01*
X30331079Y-27113922D01*
X30331080Y-27113921D01*
X29785178Y-26568019D01*
X29792993Y-26565925D01*
X29907007Y-26500099D01*
X30000099Y-26407007D01*
X30065925Y-26292993D01*
X30068019Y-26285177D01*
X30613921Y-26831080D01*
X30613922Y-26831079D01*
X30669095Y-26755143D01*
X30758418Y-26579835D01*
X30819221Y-26392705D01*
X30850000Y-26198382D01*
X30850000Y-26001617D01*
X30819221Y-25807294D01*
X30758418Y-25620164D01*
X30669095Y-25444856D01*
X30613922Y-25368919D01*
X30613922Y-25368918D01*
X30068018Y-25914821D01*
X30065925Y-25907007D01*
X30000099Y-25792993D01*
X29907007Y-25699901D01*
X29792993Y-25634075D01*
X29785177Y-25631980D01*
X30331080Y-25086077D01*
X30331079Y-25086076D01*
X30255143Y-25030904D01*
X30079835Y-24941581D01*
X29892705Y-24880778D01*
X29698382Y-24850000D01*
X29501618Y-24850000D01*
X29307294Y-24880778D01*
X29120164Y-24941581D01*
X28944855Y-25030905D01*
X28944846Y-25030911D01*
X28868919Y-25086075D01*
X28868918Y-25086076D01*
X29414823Y-25631980D01*
X29407007Y-25634075D01*
X29292993Y-25699901D01*
X29199901Y-25792993D01*
X29134075Y-25907007D01*
X29131980Y-25914822D01*
X28586076Y-25368918D01*
X28586075Y-25368919D01*
X28530911Y-25444846D01*
X28530905Y-25444855D01*
X28441581Y-25620164D01*
X28380778Y-25807294D01*
X28350000Y-26001617D01*
X26597474Y-26001617D01*
X26997173Y-25601918D01*
X27058496Y-25568434D01*
X27084854Y-25565600D01*
X27146655Y-25565600D01*
X27146657Y-25565600D01*
X27299384Y-25524677D01*
X27436316Y-25445620D01*
X27548120Y-25333816D01*
X27627177Y-25196884D01*
X27668100Y-25044157D01*
X27668100Y-24886043D01*
X27627177Y-24733316D01*
X27623708Y-24727307D01*
X27548124Y-24596390D01*
X27548118Y-24596382D01*
X27436317Y-24484581D01*
X27436309Y-24484575D01*
X27299390Y-24405526D01*
X27299386Y-24405524D01*
X27299384Y-24405523D01*
X27146657Y-24364600D01*
X26988543Y-24364600D01*
X26835816Y-24405523D01*
X26835809Y-24405526D01*
X26698890Y-24484575D01*
X26698882Y-24484581D01*
X26587081Y-24596382D01*
X26587075Y-24596390D01*
X26508026Y-24733309D01*
X26508023Y-24733316D01*
X26467100Y-24886043D01*
X26467100Y-24947845D01*
X26447415Y-25014884D01*
X26430781Y-25035526D01*
X21052826Y-30413481D01*
X20991503Y-30446966D01*
X20965145Y-30449800D01*
X17523593Y-30449800D01*
X17456554Y-30430115D01*
X17410799Y-30377311D01*
X17400855Y-30308153D01*
X17416205Y-30263801D01*
X17430914Y-30238324D01*
X17443177Y-30217084D01*
X17484100Y-30064357D01*
X17484100Y-30002555D01*
X17503785Y-29935516D01*
X17520419Y-29914874D01*
X26148474Y-21286819D01*
X26209797Y-21253334D01*
X26236155Y-21250500D01*
X28978685Y-21250500D01*
X29045724Y-21270185D01*
X29091479Y-21322989D01*
X29101423Y-21392147D01*
X29072398Y-21455703D01*
X29034980Y-21484985D01*
X28944855Y-21530905D01*
X28944846Y-21530911D01*
X28868919Y-21586075D01*
X28868918Y-21586076D01*
X29414823Y-22131980D01*
X29407007Y-22134075D01*
X29292993Y-22199901D01*
X29199901Y-22292993D01*
X29134075Y-22407007D01*
X29131980Y-22414822D01*
X28586076Y-21868918D01*
X28586075Y-21868919D01*
X28530911Y-21944846D01*
X28530905Y-21944855D01*
X28441581Y-22120164D01*
X28380778Y-22307294D01*
X28350000Y-22501617D01*
X28350000Y-22698382D01*
X28380778Y-22892705D01*
X28441581Y-23079835D01*
X28530904Y-23255143D01*
X28586076Y-23331079D01*
X28586077Y-23331080D01*
X29131980Y-22785176D01*
X29134075Y-22792993D01*
X29199901Y-22907007D01*
X29292993Y-23000099D01*
X29407007Y-23065925D01*
X29414822Y-23068019D01*
X28868918Y-23613922D01*
X28944856Y-23669095D01*
X29120164Y-23758418D01*
X29307294Y-23819221D01*
X29501618Y-23850000D01*
X29698382Y-23850000D01*
X29892705Y-23819221D01*
X30079835Y-23758418D01*
X30255143Y-23669095D01*
X30331079Y-23613922D01*
X30331080Y-23613921D01*
X29785178Y-23068019D01*
X29792993Y-23065925D01*
X29907007Y-23000099D01*
X30000099Y-22907007D01*
X30065925Y-22792993D01*
X30068019Y-22785177D01*
X30613921Y-23331080D01*
X30613922Y-23331079D01*
X30669095Y-23255143D01*
X30758418Y-23079835D01*
X30819221Y-22892705D01*
X30850000Y-22698382D01*
X30850000Y-22501617D01*
X30819221Y-22307294D01*
X30758418Y-22120164D01*
X30669095Y-21944856D01*
X30613922Y-21868919D01*
X30613922Y-21868918D01*
X30068018Y-22414821D01*
X30065925Y-22407007D01*
X30000099Y-22292993D01*
X29907007Y-22199901D01*
X29792993Y-22134075D01*
X29785177Y-22131980D01*
X30331080Y-21586077D01*
X30331079Y-21586076D01*
X30255143Y-21530904D01*
X30079837Y-21441582D01*
X29973588Y-21407059D01*
X29915913Y-21367621D01*
X29888715Y-21303262D01*
X29900630Y-21234416D01*
X29947874Y-21182940D01*
X29949848Y-21181775D01*
X29969413Y-21170480D01*
X46238321Y-4901571D01*
X46299642Y-4868088D01*
X46369334Y-4873072D01*
X46425267Y-4914944D01*
X46449684Y-4980408D01*
X46450000Y-4989254D01*
X46450000Y-5121993D01*
X46488165Y-5362959D01*
X46563560Y-5594998D01*
X46674323Y-5812380D01*
X46771298Y-5945856D01*
X46771299Y-5945856D01*
X47457241Y-5259914D01*
X47519881Y-5368408D01*
X47631592Y-5480119D01*
X47740084Y-5542757D01*
X47054141Y-6228699D01*
X47054142Y-6228700D01*
X47187619Y-6325676D01*
X47405001Y-6436439D01*
X47637040Y-6511834D01*
X47878007Y-6550000D01*
X48121993Y-6550000D01*
X48362959Y-6511834D01*
X48594998Y-6436439D01*
X48812377Y-6325678D01*
X48945856Y-6228699D01*
X48945857Y-6228698D01*
X48259916Y-5542757D01*
X48368408Y-5480119D01*
X48480119Y-5368408D01*
X48542757Y-5259915D01*
X49228699Y-5945857D01*
X49228699Y-5945856D01*
X49325678Y-5812377D01*
X49436439Y-5594998D01*
X49511834Y-5362959D01*
X49550000Y-5121993D01*
X49550000Y-4878006D01*
X49511834Y-4637040D01*
X49436439Y-4405001D01*
X49325678Y-4187622D01*
X49294919Y-4145286D01*
X49271439Y-4079480D01*
X49287264Y-4011426D01*
X49337370Y-3962731D01*
X49395237Y-3948400D01*
X49830645Y-3948400D01*
X49860085Y-3957044D01*
X49890072Y-3963568D01*
X49895087Y-3967322D01*
X49897684Y-3968085D01*
X49918326Y-3984719D01*
X50040132Y-4106525D01*
X50073617Y-4167848D01*
X50072786Y-4224130D01*
X50052401Y-4306103D01*
X50052401Y-4306105D01*
X50052400Y-4306111D01*
X50050088Y-4340209D01*
X50049500Y-4348879D01*
X50049500Y-5651122D01*
X50049501Y-5651125D01*
X50052399Y-5693886D01*
X50052399Y-5693887D01*
X50070565Y-5766932D01*
X50096957Y-5873057D01*
X50098360Y-5878696D01*
X50182967Y-6049292D01*
X50182969Y-6049295D01*
X50302277Y-6197721D01*
X50302278Y-6197722D01*
X50450704Y-6317030D01*
X50450707Y-6317032D01*
X50621302Y-6401639D01*
X50621303Y-6401639D01*
X50621307Y-6401641D01*
X50806111Y-6447600D01*
X50848877Y-6450500D01*
X52151122Y-6450499D01*
X52193889Y-6447600D01*
X52378693Y-6401641D01*
X52549296Y-6317030D01*
X52697722Y-6197722D01*
X52817030Y-6049296D01*
X52901641Y-5878693D01*
X52947600Y-5693889D01*
X52950500Y-5651123D01*
X52950499Y-4348878D01*
X52947600Y-4306111D01*
X52901641Y-4121307D01*
X52868786Y-4055061D01*
X52817032Y-3950707D01*
X52817030Y-3950704D01*
X52697722Y-3802278D01*
X52697721Y-3802277D01*
X52549295Y-3682969D01*
X52549292Y-3682967D01*
X52378697Y-3598360D01*
X52193892Y-3552400D01*
X52172506Y-3550950D01*
X52151123Y-3549500D01*
X52151120Y-3549500D01*
X50848877Y-3549500D01*
X50848874Y-3549501D01*
X50806113Y-3552399D01*
X50806106Y-3552400D01*
X50724130Y-3572786D01*
X50654322Y-3569862D01*
X50606525Y-3540132D01*
X50293815Y-3227422D01*
X50293813Y-3227420D01*
X50213693Y-3181162D01*
X50202489Y-3174693D01*
X50108464Y-3149500D01*
X50100627Y-3147400D01*
X46972873Y-3147400D01*
X46871013Y-3174693D01*
X46871010Y-3174694D01*
X46812603Y-3208416D01*
X46800125Y-3215620D01*
X46779688Y-3227419D01*
X46779685Y-3227421D01*
X30956377Y-19050728D01*
X30895054Y-19084213D01*
X30825362Y-19079229D01*
X30769429Y-19037357D01*
X30746223Y-18982445D01*
X30728499Y-18870546D01*
X30722171Y-18830591D01*
X30668408Y-18665123D01*
X30666212Y-18658363D01*
X30666211Y-18658360D01*
X30630299Y-18587881D01*
X30583996Y-18497006D01*
X30542291Y-18439603D01*
X30477558Y-18350505D01*
X30477554Y-18350500D01*
X30349499Y-18222445D01*
X30349494Y-18222441D01*
X30202997Y-18116006D01*
X30202996Y-18116005D01*
X30202994Y-18116004D01*
X30068205Y-18047325D01*
X30017409Y-17999350D01*
X30000500Y-17936840D01*
X30000500Y-16874499D01*
X30020185Y-16807460D01*
X30072989Y-16761705D01*
X30124500Y-16750499D01*
X30494856Y-16750499D01*
X30494864Y-16750499D01*
X30494879Y-16750497D01*
X30494882Y-16750497D01*
X30519987Y-16747586D01*
X30519988Y-16747585D01*
X30519991Y-16747585D01*
X30622765Y-16702206D01*
X30702206Y-16622765D01*
X30747585Y-16519991D01*
X30750500Y-16494865D01*
X30750499Y-14705136D01*
X30750497Y-14705117D01*
X30747586Y-14680012D01*
X30747585Y-14680010D01*
X30747585Y-14680009D01*
X30702206Y-14577235D01*
X30622765Y-14497794D01*
X30562069Y-14470994D01*
X30519992Y-14452415D01*
X30494865Y-14449500D01*
X28705143Y-14449500D01*
X28705117Y-14449502D01*
X28680012Y-14452413D01*
X28680008Y-14452415D01*
X28577235Y-14497793D01*
X28497794Y-14577234D01*
X28452415Y-14680006D01*
X28452415Y-14680008D01*
X28449500Y-14705131D01*
X28449500Y-16494856D01*
X28449502Y-16494882D01*
X28452413Y-16519987D01*
X28452415Y-16519991D01*
X28497793Y-16622764D01*
X28497794Y-16622765D01*
X28577235Y-16702206D01*
X28680009Y-16747585D01*
X28705135Y-16750500D01*
X29075500Y-16750499D01*
X29142539Y-16770183D01*
X29188294Y-16822987D01*
X29199500Y-16874499D01*
X29199500Y-17936840D01*
X29179815Y-18003879D01*
X29131795Y-18047325D01*
X28997002Y-18116006D01*
X28850505Y-18222441D01*
X28850500Y-18222445D01*
X28722445Y-18350500D01*
X28722441Y-18350505D01*
X28616006Y-18497002D01*
X28533788Y-18658360D01*
X28533787Y-18658363D01*
X28477829Y-18830589D01*
X28449500Y-19009448D01*
X28449500Y-19190551D01*
X28477829Y-19369410D01*
X28533787Y-19541636D01*
X28533788Y-19541639D01*
X28616006Y-19702997D01*
X28722441Y-19849494D01*
X28722445Y-19849499D01*
X28850500Y-19977554D01*
X28850505Y-19977558D01*
X28897669Y-20011824D01*
X28997006Y-20083996D01*
X29102484Y-20137740D01*
X29158360Y-20166211D01*
X29158363Y-20166212D01*
X29285649Y-20207569D01*
X29343324Y-20247006D01*
X29370523Y-20311364D01*
X29358609Y-20380211D01*
X29311365Y-20431687D01*
X29247331Y-20449500D01*
X25966173Y-20449500D01*
X25864310Y-20476793D01*
X25772987Y-20529520D01*
X25772984Y-20529522D01*
X16954026Y-29348481D01*
X16892703Y-29381966D01*
X16866345Y-29384800D01*
X16804543Y-29384800D01*
X16651816Y-29425723D01*
X16651809Y-29425726D01*
X16514890Y-29504775D01*
X16514882Y-29504781D01*
X16403081Y-29616582D01*
X16403075Y-29616590D01*
X16324026Y-29753509D01*
X16324023Y-29753516D01*
X16283100Y-29906243D01*
X16283100Y-30064357D01*
X16291209Y-30094620D01*
X16318252Y-30195547D01*
X16316589Y-30265397D01*
X16277426Y-30323259D01*
X16260477Y-30335027D01*
X16200287Y-30369777D01*
X16200282Y-30369781D01*
X16088481Y-30481582D01*
X16088475Y-30481590D01*
X16009426Y-30618509D01*
X16009423Y-30618516D01*
X15968500Y-30771243D01*
X500500Y-30771243D01*
X500500Y-27967943D01*
X6662000Y-27967943D01*
X6662000Y-28126057D01*
X6694749Y-28248276D01*
X6702923Y-28278783D01*
X6702926Y-28278790D01*
X6781975Y-28415709D01*
X6781979Y-28415714D01*
X6781980Y-28415716D01*
X6893784Y-28527520D01*
X6893786Y-28527521D01*
X6893790Y-28527524D01*
X7002679Y-28590390D01*
X7030716Y-28606577D01*
X7183443Y-28647500D01*
X7183445Y-28647500D01*
X7341555Y-28647500D01*
X7341557Y-28647500D01*
X7494284Y-28606577D01*
X7631216Y-28527520D01*
X7743020Y-28415716D01*
X7822077Y-28278784D01*
X7863000Y-28126057D01*
X7863000Y-28064255D01*
X7882685Y-27997216D01*
X7899319Y-27976574D01*
X8205411Y-27670482D01*
X8513780Y-27362113D01*
X8566507Y-27270788D01*
X8593800Y-27168927D01*
X8593800Y-27063473D01*
X8593800Y-19887998D01*
X8613485Y-19820959D01*
X8630119Y-19800317D01*
X8646163Y-19784273D01*
X8673820Y-19756616D01*
X8752877Y-19619684D01*
X8793800Y-19466957D01*
X8793800Y-19308843D01*
X8752877Y-19156116D01*
X8746832Y-19145645D01*
X8673824Y-19019190D01*
X8673818Y-19019182D01*
X8562017Y-18907381D01*
X8562009Y-18907375D01*
X8425090Y-18828326D01*
X8425086Y-18828324D01*
X8425084Y-18828323D01*
X8272357Y-18787400D01*
X8114243Y-18787400D01*
X7961516Y-18828323D01*
X7961509Y-18828326D01*
X7824590Y-18907375D01*
X7824582Y-18907381D01*
X7712781Y-19019182D01*
X7712775Y-19019190D01*
X7633726Y-19156109D01*
X7633723Y-19156116D01*
X7592800Y-19308843D01*
X7592800Y-19466957D01*
X7596775Y-19481790D01*
X7633723Y-19619683D01*
X7633726Y-19619690D01*
X7712775Y-19756609D01*
X7712781Y-19756617D01*
X7756481Y-19800317D01*
X7789966Y-19861640D01*
X7792800Y-19887998D01*
X7792800Y-26898945D01*
X7773115Y-26965984D01*
X7756481Y-26986626D01*
X7332926Y-27410181D01*
X7271603Y-27443666D01*
X7245245Y-27446500D01*
X7183443Y-27446500D01*
X7030716Y-27487423D01*
X7030709Y-27487426D01*
X6893790Y-27566475D01*
X6893782Y-27566481D01*
X6781981Y-27678282D01*
X6781975Y-27678290D01*
X6702926Y-27815209D01*
X6702923Y-27815216D01*
X6662000Y-27967943D01*
X500500Y-27967943D01*
X500500Y-17491543D01*
X10956500Y-17491543D01*
X10956500Y-17649657D01*
X10995714Y-17796004D01*
X10997423Y-17802383D01*
X10997426Y-17802390D01*
X11076475Y-17939309D01*
X11076479Y-17939314D01*
X11076480Y-17939316D01*
X11188284Y-18051120D01*
X11188286Y-18051121D01*
X11188290Y-18051124D01*
X11237767Y-18079689D01*
X11325216Y-18130177D01*
X11477943Y-18171100D01*
X11477945Y-18171100D01*
X11636055Y-18171100D01*
X11636057Y-18171100D01*
X11788784Y-18130177D01*
X11925716Y-18051120D01*
X11969417Y-18007419D01*
X12030740Y-17973934D01*
X12057098Y-17971100D01*
X23982125Y-17971100D01*
X23982127Y-17971100D01*
X24083988Y-17943807D01*
X24175313Y-17891080D01*
X35606527Y-6459864D01*
X35667848Y-6426381D01*
X35724130Y-6427211D01*
X35806111Y-6447600D01*
X35848877Y-6450500D01*
X37151122Y-6450499D01*
X37193889Y-6447600D01*
X37378693Y-6401641D01*
X37549296Y-6317030D01*
X37697722Y-6197722D01*
X37817030Y-6049296D01*
X37901641Y-5878693D01*
X37947600Y-5693889D01*
X37950500Y-5651123D01*
X37950499Y-4348878D01*
X37947600Y-4306111D01*
X37901641Y-4121307D01*
X37868786Y-4055061D01*
X37817032Y-3950707D01*
X37817030Y-3950704D01*
X37697722Y-3802278D01*
X37697721Y-3802277D01*
X37549295Y-3682969D01*
X37549292Y-3682967D01*
X37378697Y-3598360D01*
X37193892Y-3552400D01*
X37172506Y-3550950D01*
X37151123Y-3549500D01*
X37151120Y-3549500D01*
X35848877Y-3549500D01*
X35848874Y-3549501D01*
X35806113Y-3552399D01*
X35806112Y-3552399D01*
X35621303Y-3598360D01*
X35450707Y-3682967D01*
X35450704Y-3682969D01*
X35302278Y-3802277D01*
X35302277Y-3802278D01*
X35182969Y-3950704D01*
X35182967Y-3950707D01*
X35098360Y-4121302D01*
X35052400Y-4306107D01*
X35049500Y-4348879D01*
X35049500Y-5651122D01*
X35049501Y-5651125D01*
X35052399Y-5693886D01*
X35052400Y-5693890D01*
X35072786Y-5775867D01*
X35069862Y-5845676D01*
X35040132Y-5893473D01*
X23799826Y-17133781D01*
X23738503Y-17167266D01*
X23712145Y-17170100D01*
X12057098Y-17170100D01*
X11990059Y-17150415D01*
X11969417Y-17133781D01*
X11925717Y-17090081D01*
X11925709Y-17090075D01*
X11788790Y-17011026D01*
X11788786Y-17011024D01*
X11788784Y-17011023D01*
X11636057Y-16970100D01*
X11477943Y-16970100D01*
X11325216Y-17011023D01*
X11325209Y-17011026D01*
X11188290Y-17090075D01*
X11188282Y-17090081D01*
X11076481Y-17201882D01*
X11076475Y-17201890D01*
X10997426Y-17338809D01*
X10997423Y-17338816D01*
X10956500Y-17491543D01*
X500500Y-17491543D01*
X500500Y-4878711D01*
X3149500Y-4878711D01*
X3149500Y-5121288D01*
X3179172Y-5346680D01*
X3181162Y-5361789D01*
X3205261Y-5451726D01*
X3243947Y-5596104D01*
X3336773Y-5820205D01*
X3336777Y-5820214D01*
X3347888Y-5839458D01*
X3458064Y-6030289D01*
X3458066Y-6030292D01*
X3458067Y-6030293D01*
X3605733Y-6222736D01*
X3605739Y-6222743D01*
X3777256Y-6394260D01*
X3777263Y-6394266D01*
X3798150Y-6410293D01*
X3969711Y-6541936D01*
X4179788Y-6663224D01*
X4403900Y-6756054D01*
X4638211Y-6818838D01*
X4818586Y-6842584D01*
X4878711Y-6850500D01*
X4878712Y-6850500D01*
X5121289Y-6850500D01*
X5171284Y-6843918D01*
X5361789Y-6818838D01*
X5596100Y-6756054D01*
X5820212Y-6663224D01*
X6030289Y-6541936D01*
X6222738Y-6394265D01*
X6394265Y-6222738D01*
X6471125Y-6122572D01*
X6483877Y-6105954D01*
X6508262Y-6074173D01*
X6541936Y-6030289D01*
X6663224Y-5820212D01*
X6756054Y-5596100D01*
X6818838Y-5361789D01*
X6850500Y-5121288D01*
X6850500Y-4878712D01*
X6850407Y-4878006D01*
X31450000Y-4878006D01*
X31450000Y-5121993D01*
X31488165Y-5362959D01*
X31563560Y-5594998D01*
X31674323Y-5812380D01*
X31771298Y-5945856D01*
X31771299Y-5945856D01*
X32457241Y-5259914D01*
X32519881Y-5368408D01*
X32631592Y-5480119D01*
X32740084Y-5542757D01*
X32054141Y-6228699D01*
X32054142Y-6228700D01*
X32187619Y-6325676D01*
X32405001Y-6436439D01*
X32637040Y-6511834D01*
X32878007Y-6550000D01*
X33121993Y-6550000D01*
X33362959Y-6511834D01*
X33594998Y-6436439D01*
X33812377Y-6325678D01*
X33945856Y-6228699D01*
X33945857Y-6228698D01*
X33259916Y-5542757D01*
X33368408Y-5480119D01*
X33480119Y-5368408D01*
X33542757Y-5259915D01*
X34228698Y-5945857D01*
X34228699Y-5945856D01*
X34325678Y-5812377D01*
X34436439Y-5594998D01*
X34511834Y-5362959D01*
X34550000Y-5121993D01*
X34550000Y-4878006D01*
X34511834Y-4637040D01*
X34436439Y-4405001D01*
X34325676Y-4187619D01*
X34228700Y-4054142D01*
X34228699Y-4054141D01*
X33542757Y-4740083D01*
X33480119Y-4631592D01*
X33368408Y-4519881D01*
X33259915Y-4457242D01*
X33945856Y-3771299D01*
X33945856Y-3771298D01*
X33812380Y-3674323D01*
X33594998Y-3563560D01*
X33362959Y-3488165D01*
X33121993Y-3450000D01*
X32878007Y-3450000D01*
X32637040Y-3488165D01*
X32405001Y-3563560D01*
X32187626Y-3674319D01*
X32054142Y-3771299D01*
X32740085Y-4457242D01*
X32631592Y-4519881D01*
X32519881Y-4631592D01*
X32457242Y-4740085D01*
X31771299Y-4054142D01*
X31674319Y-4187626D01*
X31563560Y-4405001D01*
X31488165Y-4637040D01*
X31450000Y-4878006D01*
X6850407Y-4878006D01*
X6849757Y-4873072D01*
X6842584Y-4818586D01*
X6818838Y-4638211D01*
X6756054Y-4403900D01*
X6663224Y-4179788D01*
X6541936Y-3969711D01*
X6504344Y-3920720D01*
X6483875Y-3894044D01*
X6394266Y-3777263D01*
X6394260Y-3777256D01*
X6222743Y-3605739D01*
X6222736Y-3605733D01*
X6030293Y-3458067D01*
X6030292Y-3458066D01*
X6030289Y-3458064D01*
X5820212Y-3336776D01*
X5820205Y-3336773D01*
X5596104Y-3243947D01*
X5361785Y-3181161D01*
X5121289Y-3149500D01*
X5121288Y-3149500D01*
X4878712Y-3149500D01*
X4878711Y-3149500D01*
X4638214Y-3181161D01*
X4403895Y-3243947D01*
X4179794Y-3336773D01*
X4179785Y-3336777D01*
X3969706Y-3458067D01*
X3777263Y-3605733D01*
X3777256Y-3605739D01*
X3605739Y-3777256D01*
X3605733Y-3777263D01*
X3458067Y-3969706D01*
X3336777Y-4179785D01*
X3336773Y-4179794D01*
X3243947Y-4403895D01*
X3181161Y-4638214D01*
X3149500Y-4878711D01*
X500500Y-4878711D01*
X500500Y-3003750D01*
X500726Y-2996263D01*
X518271Y-2706200D01*
X520076Y-2691339D01*
X571780Y-2409201D01*
X575358Y-2394683D01*
X660700Y-2120806D01*
X665997Y-2106841D01*
X783730Y-1845249D01*
X790675Y-1832016D01*
X939079Y-1586526D01*
X947566Y-1574230D01*
X1124480Y-1348416D01*
X1134395Y-1337225D01*
X1337225Y-1134395D01*
X1348416Y-1124480D01*
X1574230Y-947566D01*
X1586526Y-939079D01*
X1832016Y-790675D01*
X1845249Y-783730D01*
X2106841Y-665997D01*
X2120806Y-660700D01*
X2394683Y-575358D01*
X2409197Y-571780D01*
X2691343Y-520075D01*
X2706200Y-518271D01*
X2996264Y-500726D01*
X3003751Y-500500D01*
X3065892Y-500500D01*
X136934108Y-500500D01*
X136996249Y-500500D01*
X137003736Y-500726D01*
G37*
%TD.AperFunction*%
%TD*%
M02*
