M48
; DRILL file KiCad 10.0.3 date 2026-08-06T18:36:45
; FORMAT={-:-/ absolute / metric / decimal}
; #@! TF.CreationDate,2026-08-06T18:36:45+12:00
; #@! TF.GenerationSoftware,Kicad,Pcbnew,10.0.3
; #@! TF.FileFunction,Plated,1,2,PTH
FMAT,2
METRIC
; #@! TA.AperFunction,Plated,PTH,ViaDrill
T1C0.300
; #@! TA.AperFunction,Plated,PTH,ComponentDrill
T2C0.600
; #@! TA.AperFunction,Plated,PTH,ComponentDrill
T3C1.000
; #@! TA.AperFunction,Plated,PTH,ComponentDrill
T4C1.200
%
G90
G05
T1
X8.187Y-27.618
X9.289Y-36.67
X9.313Y-30.512
X10.761Y-50.089
X10.764Y-32.767
X11.003Y-34.445
X11.029Y-58.977
X11.07Y-28.387
X12.228Y-44.6
X12.618Y-38.375
X12.828Y-41.321
X13.188Y-57.601
X13.401Y-39.025
X13.462Y-56.686
X15.897Y-37.336
X15.974Y-39.675
X16.087Y-27.765
X16.788Y-40.036
X16.979Y-40.861
X17.168Y-41.683
X18.817Y-28.095
X19.216Y-56.659
X22.725Y-36.139
X27.075Y-52.25
X27.314Y-25.059
X29.104Y-50.0
X30.602Y-36.182
X33.625Y-43.956
X34.709Y-39.314
X35.616Y-39.729
X38.663Y-39.014
X40.198Y-45.058
X41.839Y-44.76
X49.119Y-23.827
X55.378Y-57.942
X57.2Y-12.244
X57.272Y-39.025
X57.408Y-41.931
X58.123Y-56.887
X58.192Y-10.014
X58.727Y-55.967
X59.907Y-38.935
X59.922Y-40.325
X59.928Y-37.725
X59.985Y-11.055
X60.568Y-41.727
X60.573Y-39.675
X60.953Y-40.975
X61.65Y-59.151
X61.992Y-36.022
X63.978Y-35.918
X66.005Y-11.055
X66.99Y-48.925
X67.169Y-39.026
X68.078Y-29.887
X68.203Y-50.0
X68.591Y-59.399
X68.671Y-39.907
X69.104Y-46.518
X69.322Y-36.082
X69.888Y-52.724
X70.08Y-46.035
X70.32Y-36.039
X71.041Y-11.055
X71.82Y-14.306
X72.042Y-12.85
X72.745Y-50.0
X72.858Y-42.398
X73.549Y-28.386
X76.665Y-27.291
X76.893Y-40.303
X77.695Y-39.701
X77.717Y-29.339
X77.986Y-24.349
X79.747Y-34.306
X79.847Y-40.686
X80.622Y-21.973
X81.087Y-23.578
X81.135Y-16.884
X81.734Y-27.248
X81.75Y-19.613
X82.028Y-16.61
X82.246Y-35.958
X82.369Y-21.307
X82.705Y-39.005
X83.75Y-19.603
X83.982Y-26.968
X84.266Y-36.022
X84.75Y-17.031
X84.807Y-28.089
X85.064Y-31.572
X85.095Y-32.964
X85.748Y-33.565
X86.027Y-28.1
X87.659Y-23.75
X87.95Y-37.525
X88.797Y-34.354
X89.397Y-22.25
X89.41Y-18.078
X93.573Y-23.375
X93.736Y-19.64
X93.864Y-41.845
X94.154Y-11.521
X94.352Y-54.5
X94.407Y-21.75
X95.399Y-19.446
X95.67Y-40.605
X95.682Y-41.878
X96.881Y-14.096
X97.863Y-16.943
X98.179Y-53.28
X98.223Y-19.43
X98.315Y-39.675
X98.432Y-12.123
X98.947Y-50.156
X99.456Y-45.032
X99.819Y-24.007
X100.124Y-28.631
X100.48Y-21.95
X100.977Y-44.016
X102.255Y-43.893
X102.288Y-43.073
X102.505Y-55.677
X103.845Y-28.526
X103.862Y-24.616
X103.865Y-44.215
X103.912Y-38.612
X103.976Y-41.625
X104.209Y-30.301
X104.319Y-42.835
X105.548Y-38.394
X105.644Y-39.816
X105.796Y-15.91
X105.796Y-54.012
X108.818Y-36.029
X110.575Y-7.212
X110.8Y-43.743
X110.922Y-18.191
X112.185Y-32.248
X112.243Y-35.976
X112.55Y-28.48
X112.832Y-59.151
X114.58Y-32.726
X115.099Y-51.851
X116.289Y-55.71
X117.014Y-36.204
X117.085Y-50.0
X117.225Y-33.971
X117.852Y-56.824
X118.529Y-35.374
X120.108Y-39.927
X121.689Y-39.875
X122.484Y-39.228
X122.602Y-44.483
X123.331Y-40.974
X125.323Y-40.987
X125.614Y-48.79
X129.689Y-51.087
X129.742Y-20.647
X130.89Y-17.6
X130.892Y-22.4
X132.195Y-38.155
T3
X29.6Y-15.6
X29.6Y-19.1
X29.6Y-22.6
X29.6Y-26.1
X56.5Y-30.0
X57.4Y-13.7
X57.4Y-16.24
X57.4Y-18.78
X57.4Y-21.32
X57.4Y-23.86
X57.4Y-26.4
X59.04Y-30.0
X61.58Y-30.0
X64.0Y-34.0
X66.54Y-34.0
X69.08Y-34.0
X71.62Y-34.0
X74.16Y-34.0
T4
X16.3Y-65.0
X19.8Y-65.0
X23.3Y-65.0
X26.8Y-65.0
X30.3Y-65.0
X33.0Y-5.0
X33.8Y-65.0
X36.5Y-5.0
X37.3Y-65.0
X48.0Y-5.0
X51.5Y-5.0
X60.3Y-65.0
X63.0Y-5.0
X63.8Y-65.0
X66.5Y-5.0
X67.3Y-65.0
X70.0Y-5.0
X70.8Y-65.0
X74.3Y-65.0
X77.8Y-65.0
X81.3Y-65.0
X81.5Y-5.0
X85.0Y-5.0
X88.5Y-5.0
X100.0Y-5.0
X103.5Y-5.0
X104.3Y-65.0
X107.0Y-5.0
X107.8Y-65.0
X111.3Y-65.0
X114.8Y-65.0
X118.3Y-65.0
X121.8Y-65.0
X125.3Y-65.0
T2
X132.145Y-15.68G85X133.245Y-15.68
G05
X132.145Y-24.32G85X133.245Y-24.32
G05
X136.575Y-15.68G85X137.175Y-15.68
G05
X136.575Y-24.32G85X137.175Y-24.32
G05
M30
