%TF.GenerationSoftware,KiCad,Pcbnew,10.0.3*%
%TF.CreationDate,2026-08-06T21:59:00+12:00*%
%TF.ProjectId,rcm,72636d2e-6b69-4636-9164-5f7063625858,A*%
%TF.SameCoordinates,Original*%
%TF.FileFunction,Soldermask,Top*%
%TF.FilePolarity,Negative*%
%FSLAX46Y46*%
G04 Gerber Fmt 4.6, Leading zero omitted, Abs format (unit mm)*
G04 Created by KiCad (PCBNEW 10.0.3) date 2026-08-06 21:59:00*
%MOMM*%
%LPD*%
G01*
G04 APERTURE LIST*
G04 Aperture macros list*
%AMRoundRect*
0 Rectangle with rounded corners*
0 $1 Rounding radius*
0 $2 $3 $4 $5 $6 $7 $8 $9 X,Y pos of 4 corners*
0 Add a 4 corners polygon primitive as box body*
4,1,4,$2,$3,$4,$5,$6,$7,$8,$9,$2,$3,0*
0 Add four circle primitives for the rounded corners*
1,1,$1+$1,$2,$3*
1,1,$1+$1,$4,$5*
1,1,$1+$1,$6,$7*
1,1,$1+$1,$8,$9*
0 Add four rect primitives between the rounded corners*
20,1,$1+$1,$2,$3,$4,$5,0*
20,1,$1+$1,$4,$5,$6,$7,0*
20,1,$1+$1,$6,$7,$8,$9,0*
20,1,$1+$1,$8,$9,$2,$3,0*%
G04 Aperture macros list end*
%ADD10RoundRect,0.250000X-0.262500X-0.450000X0.262500X-0.450000X0.262500X0.450000X-0.262500X0.450000X0*%
%ADD11RoundRect,0.100000X-0.637500X-0.100000X0.637500X-0.100000X0.637500X0.100000X-0.637500X0.100000X0*%
%ADD12RoundRect,0.250000X0.450000X-0.262500X0.450000X0.262500X-0.450000X0.262500X-0.450000X-0.262500X0*%
%ADD13RoundRect,0.250000X0.475000X-0.250000X0.475000X0.250000X-0.475000X0.250000X-0.475000X-0.250000X0*%
%ADD14RoundRect,0.150000X0.150000X-0.825000X0.150000X0.825000X-0.150000X0.825000X-0.150000X-0.825000X0*%
%ADD15R,1.700000X1.700000*%
%ADD16C,1.700000*%
%ADD17RoundRect,0.250000X-0.250000X-0.475000X0.250000X-0.475000X0.250000X0.475000X-0.250000X0.475000X0*%
%ADD18RoundRect,0.250000X0.262500X0.450000X-0.262500X0.450000X-0.262500X-0.450000X0.262500X-0.450000X0*%
%ADD19RoundRect,0.250000X1.450000X-0.312500X1.450000X0.312500X-1.450000X0.312500X-1.450000X-0.312500X0*%
%ADD20RoundRect,0.150000X-0.587500X-0.150000X0.587500X-0.150000X0.587500X0.150000X-0.587500X0.150000X0*%
%ADD21RoundRect,0.575000X0.575000X0.575000X-0.575000X0.575000X-0.575000X-0.575000X0.575000X-0.575000X0*%
%ADD22C,2.300000*%
%ADD23RoundRect,0.250000X0.650000X-1.000000X0.650000X1.000000X-0.650000X1.000000X-0.650000X-1.000000X0*%
%ADD24RoundRect,0.243750X-0.243750X-0.456250X0.243750X-0.456250X0.243750X0.456250X-0.243750X0.456250X0*%
%ADD25R,1.700000X1.000000*%
%ADD26RoundRect,0.575000X-0.575000X-0.575000X0.575000X-0.575000X0.575000X0.575000X-0.575000X0.575000X0*%
%ADD27R,1.310000X0.450000*%
%ADD28R,2.650000X4.000000*%
%ADD29RoundRect,0.250000X1.100000X-0.325000X1.100000X0.325000X-1.100000X0.325000X-1.100000X-0.325000X0*%
%ADD30RoundRect,0.150000X-0.825000X-0.150000X0.825000X-0.150000X0.825000X0.150000X-0.825000X0.150000X0*%
%ADD31C,0.650000*%
%ADD32RoundRect,0.150000X0.500000X-0.150000X0.500000X0.150000X-0.500000X0.150000X-0.500000X-0.150000X0*%
%ADD33RoundRect,0.075000X0.575000X-0.075000X0.575000X0.075000X-0.575000X0.075000X-0.575000X-0.075000X0*%
%ADD34O,2.100000X1.000000*%
%ADD35O,1.600000X1.000000*%
%ADD36C,3.200000*%
%ADD37RoundRect,0.375000X-0.625000X-0.375000X0.625000X-0.375000X0.625000X0.375000X-0.625000X0.375000X0*%
%ADD38RoundRect,0.500000X-0.500000X-1.400000X0.500000X-1.400000X0.500000X1.400000X-0.500000X1.400000X0*%
%ADD39RoundRect,0.075000X-0.700000X-0.075000X0.700000X-0.075000X0.700000X0.075000X-0.700000X0.075000X0*%
%ADD40RoundRect,0.075000X-0.075000X-0.700000X0.075000X-0.700000X0.075000X0.700000X-0.075000X0.700000X0*%
%ADD41R,1.800000X1.000000*%
%ADD42RoundRect,0.250000X0.950000X-0.750000X0.950000X0.750000X-0.950000X0.750000X-0.950000X-0.750000X0*%
%ADD43R,0.675000X0.250000*%
%ADD44R,0.250000X0.675000*%
G04 APERTURE END LIST*
D10*
%TO.C,R_PU21*%
X131887500Y-59000000D03*
X133712500Y-59000000D03*
%TD*%
D11*
%TO.C,U_DRV2*%
X52937500Y-37725000D03*
X52937500Y-38375000D03*
X52937500Y-39025000D03*
X52937500Y-39675000D03*
X52937500Y-40325000D03*
X52937500Y-40975000D03*
X52937500Y-41625000D03*
X52937500Y-42275000D03*
X58662500Y-42275000D03*
X58662500Y-41625000D03*
X58662500Y-40975000D03*
X58662500Y-40325000D03*
X58662500Y-39675000D03*
X58662500Y-39025000D03*
X58662500Y-38375000D03*
X58662500Y-37725000D03*
%TD*%
D12*
%TO.C,R_AL3*%
X76000000Y-11912500D03*
X76000000Y-10087500D03*
%TD*%
D13*
%TO.C,C_NRST*%
X95500000Y-22950000D03*
X95500000Y-21050000D03*
%TD*%
D12*
%TO.C,R_OE*%
X116000000Y-33912500D03*
X116000000Y-32087500D03*
%TD*%
D13*
%TO.C,C_EEP*%
X110000000Y-33950000D03*
X110000000Y-32050000D03*
%TD*%
D10*
%TO.C,R_PU11*%
X69887500Y-59000000D03*
X71712500Y-59000000D03*
%TD*%
D14*
%TO.C,U_SI2*%
X76355000Y-42475000D03*
X77625000Y-42475000D03*
X78895000Y-42475000D03*
X80165000Y-42475000D03*
X81435000Y-42475000D03*
X82705000Y-42475000D03*
X83975000Y-42475000D03*
X85245000Y-42475000D03*
X85245000Y-37525000D03*
X83975000Y-37525000D03*
X82705000Y-37525000D03*
X81435000Y-37525000D03*
X80165000Y-37525000D03*
X78895000Y-37525000D03*
X77625000Y-37525000D03*
X76355000Y-37525000D03*
%TD*%
D10*
%TO.C,R_LPD*%
X12087500Y-29000000D03*
X13912500Y-29000000D03*
%TD*%
D15*
%TO.C,J_SWD*%
X64000000Y-34000000D03*
D16*
X66540000Y-34000000D03*
X69080000Y-34000000D03*
X71620000Y-34000000D03*
X74160000Y-34000000D03*
%TD*%
D17*
%TO.C,C_VCAP*%
X87050000Y-33000000D03*
X88950000Y-33000000D03*
%TD*%
D10*
%TO.C,R_PU1*%
X7887500Y-59000000D03*
X9712500Y-59000000D03*
%TD*%
D12*
%TO.C,R_AH2*%
X67000000Y-11912500D03*
X67000000Y-10087500D03*
%TD*%
D17*
%TO.C,C_VDDA*%
X81050000Y-33000000D03*
X82950000Y-33000000D03*
%TD*%
D10*
%TO.C,R_PU3*%
X19887500Y-59000000D03*
X21712500Y-59000000D03*
%TD*%
D18*
%TO.C,R_SL10*%
X65712500Y-50000000D03*
X63887500Y-50000000D03*
%TD*%
D10*
%TO.C,R_SH18*%
X113887500Y-54500000D03*
X115712500Y-54500000D03*
%TD*%
%TO.C,R_CC2*%
X126087500Y-18250000D03*
X127912500Y-18250000D03*
%TD*%
%TO.C,R_SH2*%
X13887500Y-54500000D03*
X15712500Y-54500000D03*
%TD*%
D18*
%TO.C,R_SL18*%
X115712500Y-50000000D03*
X113887500Y-50000000D03*
%TD*%
%TO.C,R_SL17*%
X109712500Y-50000000D03*
X107887500Y-50000000D03*
%TD*%
D10*
%TO.C,R_SH3*%
X19887500Y-54500000D03*
X21712500Y-54500000D03*
%TD*%
D19*
%TO.C,F1*%
X6000000Y-16137500D03*
X6000000Y-11862500D03*
%TD*%
D13*
%TO.C,C_CAN*%
X110000000Y-12950000D03*
X110000000Y-11050000D03*
%TD*%
D20*
%TO.C,D_CAN*%
X117062500Y-17050000D03*
X117062500Y-18950000D03*
X118937500Y-18000000D03*
%TD*%
D18*
%TO.C,R_SL11*%
X71712500Y-50000000D03*
X69887500Y-50000000D03*
%TD*%
D10*
%TO.C,R_IGL*%
X4087500Y-34500000D03*
X5912500Y-34500000D03*
%TD*%
%TO.C,R_SH9*%
X57887500Y-54500000D03*
X59712500Y-54500000D03*
%TD*%
%TO.C,R_LED2*%
X27087500Y-9000000D03*
X28912500Y-9000000D03*
%TD*%
%TO.C,R_SH12*%
X75887500Y-54500000D03*
X77712500Y-54500000D03*
%TD*%
%TO.C,R_PU19*%
X119887500Y-59000000D03*
X121712500Y-59000000D03*
%TD*%
D13*
%TO.C,C_SO1*%
X29300000Y-40950000D03*
X29300000Y-39050000D03*
%TD*%
D10*
%TO.C,R_SH13*%
X81887500Y-54500000D03*
X83712500Y-54500000D03*
%TD*%
D13*
%TO.C,C_SI3*%
X131300000Y-40950000D03*
X131300000Y-39050000D03*
%TD*%
D17*
%TO.C,C_LVS*%
X12050000Y-34500000D03*
X13950000Y-34500000D03*
%TD*%
D21*
%TO.C,J_CAN1*%
X88500000Y-5000000D03*
D22*
X85000000Y-5000000D03*
X81500000Y-5000000D03*
%TD*%
D13*
%TO.C,C_IMU1*%
X111000000Y-25950000D03*
X111000000Y-24050000D03*
%TD*%
D12*
%TO.C,R_BOOT*%
X83250000Y-16412500D03*
X83250000Y-14587500D03*
%TD*%
D18*
%TO.C,R_SL6*%
X39712500Y-50000000D03*
X37887500Y-50000000D03*
%TD*%
D10*
%TO.C,R_PU6*%
X37887500Y-59000000D03*
X39712500Y-59000000D03*
%TD*%
%TO.C,R_SH17*%
X107887500Y-54500000D03*
X109712500Y-54500000D03*
%TD*%
D23*
%TO.C,D1*%
X10000000Y-16000000D03*
X10000000Y-12000000D03*
%TD*%
D13*
%TO.C,C_5V*%
X35000000Y-31950000D03*
X35000000Y-30050000D03*
%TD*%
D24*
%TO.C,D_LED2*%
X27062500Y-5000000D03*
X28937500Y-5000000D03*
%TD*%
D17*
%TO.C,C_LSW*%
X16050000Y-34500000D03*
X17950000Y-34500000D03*
%TD*%
D14*
%TO.C,U_SO2*%
X62355000Y-42475000D03*
X63625000Y-42475000D03*
X64895000Y-42475000D03*
X66165000Y-42475000D03*
X67435000Y-42475000D03*
X68705000Y-42475000D03*
X69975000Y-42475000D03*
X71245000Y-42475000D03*
X71245000Y-37525000D03*
X69975000Y-37525000D03*
X68705000Y-37525000D03*
X67435000Y-37525000D03*
X66165000Y-37525000D03*
X64895000Y-37525000D03*
X63625000Y-37525000D03*
X62355000Y-37525000D03*
%TD*%
D13*
%TO.C,C_3V3O*%
X43000000Y-31950000D03*
X43000000Y-30050000D03*
%TD*%
D10*
%TO.C,R_LIGN*%
X16087500Y-29000000D03*
X17912500Y-29000000D03*
%TD*%
%TO.C,R_PU2*%
X13887500Y-59000000D03*
X15712500Y-59000000D03*
%TD*%
D13*
%TO.C,C_SI1*%
X43300000Y-40950000D03*
X43300000Y-39050000D03*
%TD*%
D25*
%TO.C,SW_RST*%
X46850000Y-30100000D03*
X53150000Y-30100000D03*
X46850000Y-33900000D03*
X53150000Y-33900000D03*
%TD*%
D10*
%TO.C,R_PU17*%
X107887500Y-59000000D03*
X109712500Y-59000000D03*
%TD*%
D21*
%TO.C,J_CAN2*%
X107000000Y-5000000D03*
D22*
X103500000Y-5000000D03*
X100000000Y-5000000D03*
%TD*%
D13*
%TO.C,C_3V3I*%
X39000000Y-31950000D03*
X39000000Y-30050000D03*
%TD*%
%TO.C,C_SO2*%
X73300000Y-40950000D03*
X73300000Y-39050000D03*
%TD*%
D10*
%TO.C,R_PU7*%
X43887500Y-59000000D03*
X45712500Y-59000000D03*
%TD*%
D17*
%TO.C,C_Y1A*%
X70050000Y-25500000D03*
X71950000Y-25500000D03*
%TD*%
D26*
%TO.C,J_CH1*%
X16300000Y-65000000D03*
D22*
X19800000Y-65000000D03*
X23300000Y-65000000D03*
X26800000Y-65000000D03*
X30300000Y-65000000D03*
X33800000Y-65000000D03*
X37300000Y-65000000D03*
%TD*%
D11*
%TO.C,U_DRV3*%
X96937500Y-37725000D03*
X96937500Y-38375000D03*
X96937500Y-39025000D03*
X96937500Y-39675000D03*
X96937500Y-40325000D03*
X96937500Y-40975000D03*
X96937500Y-41625000D03*
X96937500Y-42275000D03*
X102662500Y-42275000D03*
X102662500Y-41625000D03*
X102662500Y-40975000D03*
X102662500Y-40325000D03*
X102662500Y-39675000D03*
X102662500Y-39025000D03*
X102662500Y-38375000D03*
X102662500Y-37725000D03*
%TD*%
D10*
%TO.C,R_PU5*%
X31887500Y-59000000D03*
X33712500Y-59000000D03*
%TD*%
D17*
%TO.C,C_M5*%
X95050000Y-15500000D03*
X96950000Y-15500000D03*
%TD*%
D12*
%TO.C,R_ADDR_ALT*%
X116000000Y-29412500D03*
X116000000Y-27587500D03*
%TD*%
D18*
%TO.C,R_SL3*%
X21712500Y-50000000D03*
X19887500Y-50000000D03*
%TD*%
D10*
%TO.C,R_SH11*%
X69887500Y-54500000D03*
X71712500Y-54500000D03*
%TD*%
D27*
%TO.C,U_LATCH*%
X9150000Y-20050000D03*
X9150000Y-20700000D03*
X9150000Y-21350000D03*
X9155000Y-22000000D03*
X9150000Y-22650000D03*
X9150000Y-23300000D03*
X9150000Y-23950000D03*
X14850000Y-23950000D03*
X14850000Y-23300000D03*
X14850000Y-22650000D03*
X14850000Y-22000000D03*
X14850000Y-21350000D03*
X14850000Y-20700000D03*
X14850000Y-20050000D03*
D28*
X12000000Y-22000000D03*
%TD*%
D18*
%TO.C,R_SL4*%
X27712500Y-50000000D03*
X25887500Y-50000000D03*
%TD*%
D17*
%TO.C,C_M3*%
X87050000Y-15500000D03*
X88950000Y-15500000D03*
%TD*%
D12*
%TO.C,R_AL2*%
X70000000Y-11912500D03*
X70000000Y-10087500D03*
%TD*%
D29*
%TO.C,C_BULK*%
X18000000Y-15475000D03*
X18000000Y-12525000D03*
%TD*%
D13*
%TO.C,C_SO3*%
X117300000Y-40950000D03*
X117300000Y-39050000D03*
%TD*%
D18*
%TO.C,R_SL2*%
X15712500Y-50000000D03*
X13887500Y-50000000D03*
%TD*%
D17*
%TO.C,C_Y2A*%
X70050000Y-19500000D03*
X71950000Y-19500000D03*
%TD*%
D30*
%TO.C,U_CAN*%
X101525000Y-10095000D03*
X101525000Y-11365000D03*
X101525000Y-12635000D03*
X101525000Y-13905000D03*
X106475000Y-13905000D03*
X106475000Y-12635000D03*
X106475000Y-11365000D03*
X106475000Y-10095000D03*
%TD*%
D10*
%TO.C,R_SH8*%
X51887500Y-54500000D03*
X53712500Y-54500000D03*
%TD*%
D17*
%TO.C,C_Y1B*%
X65050000Y-28500000D03*
X66950000Y-28500000D03*
%TD*%
%TO.C,C_MB*%
X100050000Y-20000000D03*
X101950000Y-20000000D03*
%TD*%
D18*
%TO.C,R_SL1*%
X9712500Y-50000000D03*
X7887500Y-50000000D03*
%TD*%
D31*
%TO.C,J_USB*%
X133195000Y-22890000D03*
X133195000Y-17110000D03*
D32*
X132055000Y-23200000D03*
X132055000Y-22400000D03*
D33*
X132055000Y-21250000D03*
X132055000Y-20250000D03*
X132055000Y-19750000D03*
X132055000Y-18750000D03*
D32*
X132055000Y-17600000D03*
X132055000Y-16800000D03*
X132055000Y-16800000D03*
X132055000Y-17600000D03*
D33*
X132055000Y-18250000D03*
X132055000Y-19250000D03*
X132055000Y-20750000D03*
X132055000Y-21750000D03*
D32*
X132055000Y-22400000D03*
X132055000Y-23200000D03*
D34*
X132695000Y-24320000D03*
D35*
X136875000Y-24320000D03*
D34*
X132695000Y-15680000D03*
D35*
X136875000Y-15680000D03*
%TD*%
D15*
%TO.C,JB1*%
X29600000Y-15600000D03*
D16*
X29600000Y-19100000D03*
X29600000Y-22600000D03*
X29600000Y-26100000D03*
%TD*%
D18*
%TO.C,R_SL16*%
X103712500Y-50000000D03*
X101887500Y-50000000D03*
%TD*%
D14*
%TO.C,U_SO3*%
X106355000Y-42475000D03*
X107625000Y-42475000D03*
X108895000Y-42475000D03*
X110165000Y-42475000D03*
X111435000Y-42475000D03*
X112705000Y-42475000D03*
X113975000Y-42475000D03*
X115245000Y-42475000D03*
X115245000Y-37525000D03*
X113975000Y-37525000D03*
X112705000Y-37525000D03*
X111435000Y-37525000D03*
X110165000Y-37525000D03*
X108895000Y-37525000D03*
X107625000Y-37525000D03*
X106355000Y-37525000D03*
%TD*%
D12*
%TO.C,R_ADDR*%
X116000000Y-25912500D03*
X116000000Y-24087500D03*
%TD*%
D36*
%TO.C,H3*%
X5000000Y-65000000D03*
%TD*%
D37*
%TO.C,U_LDO*%
X24850000Y-28700000D03*
X24850000Y-31000000D03*
D38*
X31150000Y-31000000D03*
D37*
X24850000Y-33300000D03*
%TD*%
D39*
%TO.C,U_MCU*%
X79325000Y-20250000D03*
X79325000Y-20750000D03*
X79325000Y-21250000D03*
X79325000Y-21750000D03*
X79325000Y-22250000D03*
X79325000Y-22750000D03*
X79325000Y-23250000D03*
X79325000Y-23750000D03*
X79325000Y-24250000D03*
X79325000Y-24750000D03*
X79325000Y-25250000D03*
X79325000Y-25750000D03*
X79325000Y-26250000D03*
X79325000Y-26750000D03*
X79325000Y-27250000D03*
X79325000Y-27750000D03*
D40*
X81250000Y-29675000D03*
X81750000Y-29675000D03*
X82250000Y-29675000D03*
X82750000Y-29675000D03*
X83250000Y-29675000D03*
X83750000Y-29675000D03*
X84250000Y-29675000D03*
X84750000Y-29675000D03*
X85250000Y-29675000D03*
X85750000Y-29675000D03*
X86250000Y-29675000D03*
X86750000Y-29675000D03*
X87250000Y-29675000D03*
X87750000Y-29675000D03*
X88250000Y-29675000D03*
X88750000Y-29675000D03*
D39*
X90675000Y-27750000D03*
X90675000Y-27250000D03*
X90675000Y-26750000D03*
X90675000Y-26250000D03*
X90675000Y-25750000D03*
X90675000Y-25250000D03*
X90675000Y-24750000D03*
X90675000Y-24250000D03*
X90675000Y-23750000D03*
X90675000Y-23250000D03*
X90675000Y-22750000D03*
X90675000Y-22250000D03*
X90675000Y-21750000D03*
X90675000Y-21250000D03*
X90675000Y-20750000D03*
X90675000Y-20250000D03*
D40*
X88750000Y-18325000D03*
X88250000Y-18325000D03*
X87750000Y-18325000D03*
X87250000Y-18325000D03*
X86750000Y-18325000D03*
X86250000Y-18325000D03*
X85750000Y-18325000D03*
X85250000Y-18325000D03*
X84750000Y-18325000D03*
X84250000Y-18325000D03*
X83750000Y-18325000D03*
X83250000Y-18325000D03*
X82750000Y-18325000D03*
X82250000Y-18325000D03*
X81750000Y-18325000D03*
X81250000Y-18325000D03*
%TD*%
D18*
%TO.C,R_SL19*%
X121712500Y-50000000D03*
X119887500Y-50000000D03*
%TD*%
D10*
%TO.C,R_PU20*%
X125887500Y-59000000D03*
X127712500Y-59000000D03*
%TD*%
D18*
%TO.C,R_SL12*%
X77712500Y-50000000D03*
X75887500Y-50000000D03*
%TD*%
D24*
%TO.C,D_LED1*%
X22062500Y-5000000D03*
X23937500Y-5000000D03*
%TD*%
D10*
%TO.C,R_PU9*%
X57887500Y-59000000D03*
X59712500Y-59000000D03*
%TD*%
D18*
%TO.C,R_SL20*%
X127712500Y-50000000D03*
X125887500Y-50000000D03*
%TD*%
D10*
%TO.C,R_SH20*%
X125887500Y-54500000D03*
X127712500Y-54500000D03*
%TD*%
%TO.C,R_PU15*%
X95887500Y-59000000D03*
X97712500Y-59000000D03*
%TD*%
D15*
%TO.C,JB2*%
X57400000Y-13700000D03*
D16*
X57400000Y-16240000D03*
X57400000Y-18780000D03*
X57400000Y-21320000D03*
X57400000Y-23860000D03*
X57400000Y-26400000D03*
%TD*%
D10*
%TO.C,R_SH10*%
X63887500Y-54500000D03*
X65712500Y-54500000D03*
%TD*%
%TO.C,R_RS*%
X112087500Y-18000000D03*
X113912500Y-18000000D03*
%TD*%
D18*
%TO.C,R_SL13*%
X83712500Y-50000000D03*
X81887500Y-50000000D03*
%TD*%
D10*
%TO.C,R_SH6*%
X37887500Y-54500000D03*
X39712500Y-54500000D03*
%TD*%
D30*
%TO.C,U_EEP*%
X101525000Y-31095000D03*
X101525000Y-32365000D03*
X101525000Y-33635000D03*
X101525000Y-34905000D03*
X106475000Y-34905000D03*
X106475000Y-33635000D03*
X106475000Y-32365000D03*
X106475000Y-31095000D03*
%TD*%
D17*
%TO.C,C_M2*%
X78050000Y-15500000D03*
X79950000Y-15500000D03*
%TD*%
D10*
%TO.C,R_SH7*%
X43887500Y-54500000D03*
X45712500Y-54500000D03*
%TD*%
%TO.C,R_CC1*%
X126087500Y-21250000D03*
X127912500Y-21250000D03*
%TD*%
%TO.C,R_PU13*%
X81887500Y-59000000D03*
X83712500Y-59000000D03*
%TD*%
D11*
%TO.C,U_DRV1*%
X8937500Y-37725000D03*
X8937500Y-38375000D03*
X8937500Y-39025000D03*
X8937500Y-39675000D03*
X8937500Y-40325000D03*
X8937500Y-40975000D03*
X8937500Y-41625000D03*
X8937500Y-42275000D03*
X14662500Y-42275000D03*
X14662500Y-41625000D03*
X14662500Y-40975000D03*
X14662500Y-40325000D03*
X14662500Y-39675000D03*
X14662500Y-39025000D03*
X14662500Y-38375000D03*
X14662500Y-37725000D03*
%TD*%
D10*
%TO.C,R_SH16*%
X101887500Y-54500000D03*
X103712500Y-54500000D03*
%TD*%
%TO.C,R_LG*%
X8087500Y-29000000D03*
X9912500Y-29000000D03*
%TD*%
D15*
%TO.C,J_BOOT*%
X56500000Y-30000000D03*
D16*
X59040000Y-30000000D03*
X61580000Y-30000000D03*
%TD*%
D10*
%TO.C,R_SH19*%
X119887500Y-54500000D03*
X121712500Y-54500000D03*
%TD*%
%TO.C,R_PU4*%
X25887500Y-59000000D03*
X27712500Y-59000000D03*
%TD*%
%TO.C,R_IGH*%
X4087500Y-29000000D03*
X5912500Y-29000000D03*
%TD*%
%TO.C,R_SH4*%
X25887500Y-54500000D03*
X27712500Y-54500000D03*
%TD*%
D18*
%TO.C,R_SL8*%
X53712500Y-50000000D03*
X51887500Y-50000000D03*
%TD*%
D21*
%TO.C,J_AUX*%
X70000000Y-5000000D03*
D22*
X66500000Y-5000000D03*
X63000000Y-5000000D03*
%TD*%
D41*
%TO.C,Y2*%
X76000000Y-19750000D03*
X76000000Y-22250000D03*
%TD*%
D18*
%TO.C,R_SL5*%
X33712500Y-50000000D03*
X31887500Y-50000000D03*
%TD*%
D14*
%TO.C,U_SI1*%
X32355000Y-42475000D03*
X33625000Y-42475000D03*
X34895000Y-42475000D03*
X36165000Y-42475000D03*
X37435000Y-42475000D03*
X38705000Y-42475000D03*
X39975000Y-42475000D03*
X41245000Y-42475000D03*
X41245000Y-37525000D03*
X39975000Y-37525000D03*
X38705000Y-37525000D03*
X37435000Y-37525000D03*
X36165000Y-37525000D03*
X34895000Y-37525000D03*
X33625000Y-37525000D03*
X32355000Y-37525000D03*
%TD*%
D13*
%TO.C,C_IMU2*%
X111000000Y-29450000D03*
X111000000Y-27550000D03*
%TD*%
D17*
%TO.C,C_M1*%
X73050000Y-15500000D03*
X74950000Y-15500000D03*
%TD*%
D18*
%TO.C,R_SL14*%
X89712500Y-50000000D03*
X87887500Y-50000000D03*
%TD*%
D17*
%TO.C,C_Y2B*%
X70050000Y-22500000D03*
X71950000Y-22500000D03*
%TD*%
D18*
%TO.C,R_SL9*%
X59712500Y-50000000D03*
X57887500Y-50000000D03*
%TD*%
D10*
%TO.C,R_LHOLD*%
X8087500Y-34500000D03*
X9912500Y-34500000D03*
%TD*%
%TO.C,R_SH21*%
X131887500Y-54500000D03*
X133712500Y-54500000D03*
%TD*%
%TO.C,R_SH5*%
X31887500Y-54500000D03*
X33712500Y-54500000D03*
%TD*%
D12*
%TO.C,R_AL1*%
X64000000Y-11912500D03*
X64000000Y-10087500D03*
%TD*%
D10*
%TO.C,R_SH15*%
X95887500Y-54500000D03*
X97712500Y-54500000D03*
%TD*%
D36*
%TO.C,H2*%
X135000000Y-5000000D03*
%TD*%
D10*
%TO.C,R_PU8*%
X51887500Y-59000000D03*
X53712500Y-59000000D03*
%TD*%
D12*
%TO.C,R_AH1*%
X61000000Y-11912500D03*
X61000000Y-10087500D03*
%TD*%
D21*
%TO.C,J_IGN*%
X51500000Y-5000000D03*
D22*
X48000000Y-5000000D03*
%TD*%
D10*
%TO.C,R_PU10*%
X63887500Y-59000000D03*
X65712500Y-59000000D03*
%TD*%
D14*
%TO.C,U_SI3*%
X120355000Y-42475000D03*
X121625000Y-42475000D03*
X122895000Y-42475000D03*
X124165000Y-42475000D03*
X125435000Y-42475000D03*
X126705000Y-42475000D03*
X127975000Y-42475000D03*
X129245000Y-42475000D03*
X129245000Y-37525000D03*
X127975000Y-37525000D03*
X126705000Y-37525000D03*
X125435000Y-37525000D03*
X124165000Y-37525000D03*
X122895000Y-37525000D03*
X121625000Y-37525000D03*
X120355000Y-37525000D03*
%TD*%
D10*
%TO.C,R_SH14*%
X87887500Y-54500000D03*
X89712500Y-54500000D03*
%TD*%
D17*
%TO.C,C_M4*%
X91050000Y-15500000D03*
X92950000Y-15500000D03*
%TD*%
D36*
%TO.C,H1*%
X5000000Y-5000000D03*
%TD*%
D13*
%TO.C,C_SI2*%
X87300000Y-40950000D03*
X87300000Y-39050000D03*
%TD*%
D12*
%TO.C,R_SDA*%
X121000000Y-25912500D03*
X121000000Y-24087500D03*
%TD*%
D10*
%TO.C,R_PU16*%
X101887500Y-59000000D03*
X103712500Y-59000000D03*
%TD*%
%TO.C,R_TERM*%
X102087500Y-18000000D03*
X103912500Y-18000000D03*
%TD*%
D23*
%TO.C,D2*%
X14000000Y-16000000D03*
X14000000Y-12000000D03*
%TD*%
D10*
%TO.C,R_PU18*%
X113887500Y-59000000D03*
X115712500Y-59000000D03*
%TD*%
D18*
%TO.C,R_SL15*%
X97712500Y-50000000D03*
X95887500Y-50000000D03*
%TD*%
D10*
%TO.C,R_PU14*%
X87887500Y-59000000D03*
X89712500Y-59000000D03*
%TD*%
D12*
%TO.C,R_SCL*%
X121000000Y-29412500D03*
X121000000Y-27587500D03*
%TD*%
%TO.C,R_AH3*%
X73000000Y-11912500D03*
X73000000Y-10087500D03*
%TD*%
D21*
%TO.C,J_PWR*%
X36500000Y-5000000D03*
D22*
X33000000Y-5000000D03*
%TD*%
D18*
%TO.C,R_SL21*%
X133712500Y-50000000D03*
X131887500Y-50000000D03*
%TD*%
D10*
%TO.C,R_LED1*%
X22087500Y-9000000D03*
X23912500Y-9000000D03*
%TD*%
%TO.C,R_PU12*%
X75887500Y-59000000D03*
X77712500Y-59000000D03*
%TD*%
D18*
%TO.C,R_SL7*%
X45712500Y-50000000D03*
X43887500Y-50000000D03*
%TD*%
D10*
%TO.C,R_TJ*%
X107087500Y-18000000D03*
X108912500Y-18000000D03*
%TD*%
D26*
%TO.C,J_CH3*%
X104300000Y-65000000D03*
D22*
X107800000Y-65000000D03*
X111300000Y-65000000D03*
X114800000Y-65000000D03*
X118300000Y-65000000D03*
X121800000Y-65000000D03*
X125300000Y-65000000D03*
%TD*%
D36*
%TO.C,H4*%
X135000000Y-65000000D03*
%TD*%
D14*
%TO.C,U_SO1*%
X18355000Y-42475000D03*
X19625000Y-42475000D03*
X20895000Y-42475000D03*
X22165000Y-42475000D03*
X23435000Y-42475000D03*
X24705000Y-42475000D03*
X25975000Y-42475000D03*
X27245000Y-42475000D03*
X27245000Y-37525000D03*
X25975000Y-37525000D03*
X24705000Y-37525000D03*
X23435000Y-37525000D03*
X22165000Y-37525000D03*
X20895000Y-37525000D03*
X19625000Y-37525000D03*
X18355000Y-37525000D03*
%TD*%
D10*
%TO.C,R_SH1*%
X7887500Y-54500000D03*
X9712500Y-54500000D03*
%TD*%
D26*
%TO.C,J_CH2*%
X60300000Y-65000000D03*
D22*
X63800000Y-65000000D03*
X67300000Y-65000000D03*
X70800000Y-65000000D03*
X74300000Y-65000000D03*
X77800000Y-65000000D03*
X81300000Y-65000000D03*
%TD*%
D42*
%TO.C,Y1*%
X76000000Y-28850000D03*
X76000000Y-25150000D03*
%TD*%
D43*
%TO.C,U_IMU*%
X103737500Y-25250000D03*
X103737500Y-25750000D03*
X103737500Y-26250000D03*
X103737500Y-26750000D03*
D44*
X104500000Y-27012500D03*
X105000000Y-27012500D03*
X105500000Y-27012500D03*
D43*
X106262500Y-26750000D03*
X106262500Y-26250000D03*
X106262500Y-25750000D03*
X106262500Y-25250000D03*
D44*
X105500000Y-24987500D03*
X105000000Y-24987500D03*
X104500000Y-24987500D03*
%TD*%
M02*
