%TF.GenerationSoftware,KiCad,Pcbnew,10.0.3*%
%TF.CreationDate,2026-08-06T20:56:13+12:00*%
%TF.ProjectId,rcm,72636d2e-6b69-4636-9164-5f7063625858,A*%
%TF.SameCoordinates,Original*%
%TF.FileFunction,Copper,L2,Bot*%
%TF.FilePolarity,Positive*%
%FSLAX46Y46*%
G04 Gerber Fmt 4.6, Leading zero omitted, Abs format (unit mm)*
G04 Created by KiCad (PCBNEW 10.0.3) date 2026-08-06 20:56:13*
%MOMM*%
%LPD*%
G01*
G04 APERTURE LIST*
G04 Aperture macros list*
%AMRoundRect*
0 Rectangle with rounded corners*
0 $1 Rounding radius*
0 $2 $3 $4 $5 $6 $7 $8 $9 X,Y pos of 4 corners*
0 Add a 4 corners polygon primitive as box body*
4,1,4,$2,$3,$4,$5,$6,$7,$8,$9,$2,$3,0*
0 Add four circle primitives for the rounded corners*
1,1,$1+$1,$2,$3*
1,1,$1+$1,$4,$5*
1,1,$1+$1,$6,$7*
1,1,$1+$1,$8,$9*
0 Add four rect primitives between the rounded corners*
20,1,$1+$1,$2,$3,$4,$5,0*
20,1,$1+$1,$4,$5,$6,$7,0*
20,1,$1+$1,$6,$7,$8,$9,0*
20,1,$1+$1,$8,$9,$2,$3,0*%
G04 Aperture macros list end*
%TA.AperFunction,ComponentPad*%
%ADD10O,2.100000X1.000000*%
%TD*%
%TA.AperFunction,ComponentPad*%
%ADD11O,1.600000X1.000000*%
%TD*%
%TA.AperFunction,ComponentPad*%
%ADD12R,1.700000X1.700000*%
%TD*%
%TA.AperFunction,ComponentPad*%
%ADD13C,1.700000*%
%TD*%
%TA.AperFunction,ComponentPad*%
%ADD14RoundRect,0.575000X0.575000X0.575000X-0.575000X0.575000X-0.575000X-0.575000X0.575000X-0.575000X0*%
%TD*%
%TA.AperFunction,ComponentPad*%
%ADD15C,2.300000*%
%TD*%
%TA.AperFunction,ComponentPad*%
%ADD16RoundRect,0.575000X-0.575000X-0.575000X0.575000X-0.575000X0.575000X0.575000X-0.575000X0.575000X0*%
%TD*%
%TA.AperFunction,ViaPad*%
%ADD17C,0.600000*%
%TD*%
%TA.AperFunction,Conductor*%
%ADD18C,0.200000*%
%TD*%
G04 APERTURE END LIST*
D10*
%TO.P,J_USB,SH*%
%TO.N,GND*%
X132695000Y-24320000D03*
D11*
X136875000Y-24320000D03*
D10*
X132695000Y-15680000D03*
D11*
X136875000Y-15680000D03*
%TD*%
D12*
%TO.P,J_SWD,1*%
%TO.N,+3V3*%
X64000000Y-34000000D03*
D13*
%TO.P,J_SWD,2*%
%TO.N,SWDIO*%
X66540000Y-34000000D03*
%TO.P,J_SWD,3*%
%TO.N,SWCLK*%
X69080000Y-34000000D03*
%TO.P,J_SWD,4*%
%TO.N,NRST*%
X71620000Y-34000000D03*
%TO.P,J_SWD,5*%
%TO.N,GND*%
X74160000Y-34000000D03*
%TD*%
D14*
%TO.P,J_AUX,1*%
%TO.N,AUX1*%
X70000000Y-5000000D03*
D15*
%TO.P,J_AUX,2*%
%TO.N,AUX2*%
X66500000Y-5000000D03*
%TO.P,J_AUX,3*%
%TO.N,AUX3*%
X63000000Y-5000000D03*
%TD*%
D14*
%TO.P,J_CAN2,1*%
%TO.N,CANH*%
X107000000Y-5000000D03*
D15*
%TO.P,J_CAN2,2*%
%TO.N,CANL*%
X103500000Y-5000000D03*
%TO.P,J_CAN2,3*%
%TO.N,GND*%
X100000000Y-5000000D03*
%TD*%
D16*
%TO.P,J_CH3,1*%
%TO.N,CH15*%
X104300000Y-65000000D03*
D15*
%TO.P,J_CH3,2*%
%TO.N,CH16*%
X107800000Y-65000000D03*
%TO.P,J_CH3,3*%
%TO.N,CH17*%
X111300000Y-65000000D03*
%TO.P,J_CH3,4*%
%TO.N,CH18*%
X114800000Y-65000000D03*
%TO.P,J_CH3,5*%
%TO.N,CH19*%
X118300000Y-65000000D03*
%TO.P,J_CH3,6*%
%TO.N,CH20*%
X121800000Y-65000000D03*
%TO.P,J_CH3,7*%
%TO.N,CH21*%
X125300000Y-65000000D03*
%TD*%
D16*
%TO.P,J_CH1,1*%
%TO.N,CH1*%
X16300000Y-65000000D03*
D15*
%TO.P,J_CH1,2*%
%TO.N,CH2*%
X19800000Y-65000000D03*
%TO.P,J_CH1,3*%
%TO.N,CH3*%
X23300000Y-65000000D03*
%TO.P,J_CH1,4*%
%TO.N,CH4*%
X26800000Y-65000000D03*
%TO.P,J_CH1,5*%
%TO.N,CH5*%
X30300000Y-65000000D03*
%TO.P,J_CH1,6*%
%TO.N,CH6*%
X33800000Y-65000000D03*
%TO.P,J_CH1,7*%
%TO.N,CH7*%
X37300000Y-65000000D03*
%TD*%
D14*
%TO.P,J_PWR,1*%
%TO.N,+12V_IN*%
X36500000Y-5000000D03*
D15*
%TO.P,J_PWR,2*%
%TO.N,GND*%
X33000000Y-5000000D03*
%TD*%
D12*
%TO.P,J_BOOT,1*%
%TO.N,+3V3*%
X56500000Y-30000000D03*
D13*
%TO.P,J_BOOT,2*%
%TO.N,BOOT0*%
X59040000Y-30000000D03*
%TO.P,J_BOOT,3*%
%TO.N,GND*%
X61580000Y-30000000D03*
%TD*%
D12*
%TO.P,JB2,1*%
%TO.N,+5V*%
X57400000Y-13700000D03*
D13*
X57400000Y-16240000D03*
X57400000Y-18780000D03*
%TO.P,JB2,2*%
%TO.N,GND*%
X57400000Y-21320000D03*
X57400000Y-23860000D03*
X57400000Y-26400000D03*
%TD*%
D12*
%TO.P,JB1,1*%
%TO.N,+12V_SW*%
X29600000Y-15600000D03*
D13*
X29600000Y-19100000D03*
%TO.P,JB1,2*%
%TO.N,GND*%
X29600000Y-22600000D03*
X29600000Y-26100000D03*
%TD*%
D16*
%TO.P,J_CH2,1*%
%TO.N,CH8*%
X60300000Y-65000000D03*
D15*
%TO.P,J_CH2,2*%
%TO.N,CH9*%
X63800000Y-65000000D03*
%TO.P,J_CH2,3*%
%TO.N,CH10*%
X67300000Y-65000000D03*
%TO.P,J_CH2,4*%
%TO.N,CH11*%
X70800000Y-65000000D03*
%TO.P,J_CH2,5*%
%TO.N,CH12*%
X74300000Y-65000000D03*
%TO.P,J_CH2,6*%
%TO.N,CH13*%
X77800000Y-65000000D03*
%TO.P,J_CH2,7*%
%TO.N,CH14*%
X81300000Y-65000000D03*
%TD*%
D14*
%TO.P,J_CAN1,1*%
%TO.N,CANH*%
X88500000Y-5000000D03*
D15*
%TO.P,J_CAN1,2*%
%TO.N,CANL*%
X85000000Y-5000000D03*
%TO.P,J_CAN1,3*%
%TO.N,GND*%
X81500000Y-5000000D03*
%TD*%
D14*
%TO.P,J_IGN,1*%
%TO.N,LATCH_IGN*%
X51500000Y-5000000D03*
D15*
%TO.P,J_IGN,2*%
%TO.N,GND*%
X48000000Y-5000000D03*
%TD*%
D17*
%TO.N,CH10*%
X59903500Y-38959200D03*
%TO.N,+12V_P*%
X13420300Y-41653900D03*
X14401300Y-56887000D03*
X105796500Y-57997300D03*
X61340100Y-42869700D03*
X73493500Y-56456500D03*
X11034500Y-34444600D03*
X115654600Y-57786100D03*
X85501900Y-57993500D03*
X102808400Y-44183100D03*
X11029000Y-58976900D03*
%TO.N,SNS1*%
X9576700Y-51625500D03*
X38882900Y-36044900D03*
%TO.N,GND*%
X81817700Y-34130200D03*
X129380700Y-40000000D03*
X55233300Y-33592700D03*
X83462700Y-35760200D03*
%TO.N,+12V_IN*%
X8568800Y-16585500D03*
%TO.N,ASNS3*%
X126306800Y-40990300D03*
X84911100Y-12360500D03*
%TO.N,USB_VBUS*%
X130886100Y-17600000D03*
X130900200Y-22414600D03*
%TO.N,USB_DP*%
X130318700Y-19974700D03*
X88737700Y-21856500D03*
%TO.N,DRV16*%
X105852200Y-41022600D03*
X98858900Y-38384500D03*
%TO.N,DRV18*%
X108768400Y-39744200D03*
X95687800Y-39675000D03*
%TO.N,DRV20*%
X108998000Y-40860600D03*
X95686700Y-40975000D03*
%TO.N,SR_CH32*%
X96586800Y-36776800D03*
X90228000Y-38746700D03*
X65616900Y-38919600D03*
X116057000Y-37341100D03*
%TO.N,+3V3*%
X78046200Y-20250000D03*
X80414200Y-17864200D03*
X106456500Y-27387800D03*
X99038100Y-19898100D03*
X113682300Y-14096700D03*
X62356600Y-36044400D03*
X106475000Y-30256200D03*
X89912500Y-29839900D03*
X112490000Y-25699300D03*
%TO.N,SR_SCK*%
X30847200Y-40000000D03*
X111819500Y-35946000D03*
X77125900Y-40172300D03*
X74028500Y-36875600D03*
X24588400Y-36044600D03*
X121625000Y-40992600D03*
X83154900Y-28397700D03*
%TO.N,SR_RCLK*%
X59077400Y-35073500D03*
X88838200Y-27742500D03*
X112535800Y-34283500D03*
X65798800Y-35924800D03*
%TO.N,SR_OE_N*%
X110382900Y-35819700D03*
X87028500Y-31262600D03*
%TO.N,SR_MOSI*%
X108456000Y-35461400D03*
X84830200Y-30963900D03*
%TO.N,CH4*%
X15962900Y-39675000D03*
X19215800Y-56658600D03*
%TO.N,LATCH_IN*%
X12336500Y-30202900D03*
X18814800Y-28097700D03*
%TO.N,CH19*%
X102565300Y-43278200D03*
X116585500Y-55767600D03*
%TO.N,CH3*%
X12812300Y-39025000D03*
%TO.N,SNS3*%
X24274400Y-49361100D03*
X29947900Y-36778400D03*
%TO.N,DRV2*%
X14483100Y-42988700D03*
X8841800Y-36594500D03*
%TO.N,CH7*%
X17168000Y-41625000D03*
%TO.N,CH6*%
X16775800Y-40844700D03*
%TO.N,CH5*%
X16765300Y-40004400D03*
%TO.N,CH2*%
X15914500Y-38375000D03*
%TO.N,CH1*%
X15884000Y-37311700D03*
%TO.N,SWDIO*%
X81984100Y-21250000D03*
%TO.N,SWCLK*%
X91653000Y-18364500D03*
%TO.N,NRST*%
X80942100Y-23250000D03*
X93639200Y-22010900D03*
%TO.N,CH18*%
X104269200Y-45652400D03*
%TO.N,HSE_IN*%
X74570400Y-30189300D03*
X80643200Y-24062300D03*
%TO.N,AUX1*%
X59984700Y-11055200D03*
%TO.N,AUX2*%
X67885500Y-10987100D03*
%TO.N,AUX3*%
X71041300Y-11055200D03*
%TO.N,CH21*%
X103991200Y-41625000D03*
%TO.N,CH20*%
X117924500Y-56751600D03*
X104469600Y-42754700D03*
%TO.N,+5V*%
X41559600Y-31000000D03*
%TO.N,SR_PL*%
X119526800Y-43069700D03*
X86143800Y-31002000D03*
X75549300Y-41738400D03*
%TO.N,ASNS1*%
X41357100Y-39887400D03*
X58192400Y-10015200D03*
%TO.N,SR_DI12*%
X73565500Y-36204500D03*
X42405400Y-37316700D03*
%TO.N,SNS2*%
X22995000Y-49839800D03*
X30038900Y-35798500D03*
%TO.N,SNS4*%
X31494100Y-36428600D03*
X28741100Y-50000000D03*
%TO.N,CAN_RX*%
X98062500Y-15807400D03*
X80779800Y-19452100D03*
%TO.N,CANL*%
X104982700Y-13738000D03*
%TO.N,CH11*%
X60729000Y-39675000D03*
X67813200Y-59398800D03*
X70607400Y-53123200D03*
%TO.N,SNS11*%
X72749800Y-50000000D03*
X79136600Y-39027100D03*
%TO.N,IMU_SDO*%
X112690900Y-28113800D03*
X102878800Y-25250000D03*
%TO.N,IMU_INT1*%
X81316100Y-28273200D03*
X104401200Y-27855900D03*
%TO.N,IMU_SCL*%
X91266800Y-19398200D03*
X106442300Y-23670200D03*
%TO.N,IMU_SDA*%
X91967100Y-22873400D03*
X83316400Y-19609500D03*
%TO.N,ASNS2*%
X66099200Y-31581000D03*
X82691300Y-43955400D03*
X77720500Y-33186400D03*
X73773200Y-13159400D03*
%TO.N,CH14*%
X60938400Y-41727200D03*
%TO.N,CH13*%
X60833700Y-40925500D03*
%TO.N,CH12*%
X59911700Y-40346600D03*
%TO.N,CH9*%
X58771300Y-43126200D03*
X58800500Y-55380400D03*
%TO.N,CH8*%
X57415500Y-38079600D03*
X51887500Y-55716200D03*
%TO.N,BOOT0*%
X84476300Y-16412500D03*
%TO.N,SR_CH21*%
X22594800Y-36031500D03*
X75158500Y-37305900D03*
%TO.N,EEP_SCK*%
X100042500Y-28534300D03*
X108576100Y-32406900D03*
%TO.N,SNS17*%
X124165000Y-39049200D03*
X115027100Y-51531600D03*
%TO.N,LATCH_IGN*%
X16087500Y-27764800D03*
X7384800Y-27740500D03*
%TO.N,IGN_SENSE*%
X6935000Y-28472500D03*
X15787300Y-24932800D03*
%TO.N,SNS9*%
X71080200Y-51459600D03*
X81435000Y-39009300D03*
%TO.N,SNS10*%
X69841300Y-52061300D03*
X80189400Y-39006800D03*
%TO.N,SNS16*%
X119231500Y-38850200D03*
X112370000Y-49295000D03*
%TO.N,SR_MISO*%
X115842700Y-34928800D03*
X89370100Y-27123700D03*
%TO.N,SR_DI23*%
X86692000Y-37525000D03*
X112593700Y-35532200D03*
%TO.N,SNS15*%
X98746300Y-50156200D03*
X97895600Y-53279700D03*
X125824000Y-39016600D03*
%TO.N,LATCH_HOLD*%
X87250000Y-28375600D03*
X44048000Y-33771100D03*
%TO.N,LED1*%
X89135500Y-23789400D03*
X75901600Y-18030200D03*
%TO.N,LED2*%
X72160800Y-13812000D03*
X85793800Y-15938600D03*
%TD*%
%TO.N,CH10*%
D18*
X63192600Y-66470000D02*
X62220000Y-65497400D01*
X65830000Y-66470000D02*
X63192600Y-66470000D01*
X58122600Y-59960000D02*
X58122600Y-40740100D01*
X62220000Y-64057400D02*
X58122600Y-59960000D01*
X67300000Y-65000000D02*
X65830000Y-66470000D01*
X58122600Y-40740100D02*
X59903500Y-38959200D01*
X62220000Y-65497400D02*
X62220000Y-64057400D01*
%TO.N,+12V_P*%
X13420300Y-56887000D02*
X14401300Y-56887000D01*
X115443400Y-57997300D02*
X115654600Y-57786100D01*
X11034500Y-34444600D02*
X13420300Y-36830400D01*
X13420300Y-56887000D02*
X13420300Y-41653900D01*
X105796500Y-57997300D02*
X102808400Y-55009200D01*
X70085700Y-53724900D02*
X61159700Y-44798900D01*
X85501900Y-57993500D02*
X99824100Y-57993500D01*
X105796500Y-57997300D02*
X115443400Y-57997300D01*
X99824100Y-57993500D02*
X102808400Y-55009200D01*
X102808400Y-55009200D02*
X102808400Y-44183100D01*
X70761900Y-53724900D02*
X70085700Y-53724900D01*
X73493500Y-56456500D02*
X83964900Y-56456500D01*
X13118900Y-56887000D02*
X13420300Y-56887000D01*
X61159700Y-43050100D02*
X61340100Y-42869700D01*
X11029000Y-58976900D02*
X13118900Y-56887000D01*
X73493500Y-56456500D02*
X70761900Y-53724900D01*
X83964900Y-56456500D02*
X85501900Y-57993500D01*
X61159700Y-44798900D02*
X61159700Y-43050100D01*
X13420300Y-36830400D02*
X13420300Y-41653900D01*
%TO.N,SNS1*%
X8163400Y-35847600D02*
X10632900Y-33378100D01*
X9576700Y-51625500D02*
X8163400Y-50212200D01*
X8163400Y-50212200D02*
X8163400Y-35847600D01*
X10632900Y-33378100D02*
X36216100Y-33378100D01*
X36216100Y-33378100D02*
X38882900Y-36044900D01*
%TO.N,GND*%
X83462700Y-35760200D02*
X83447700Y-35760200D01*
X60415500Y-35675200D02*
X58828300Y-35675200D01*
X64702600Y-36711100D02*
X64365500Y-37048200D01*
X57400000Y-21320000D02*
X58802500Y-19917500D01*
X58802500Y-9756200D02*
X52512100Y-3465800D01*
X58828300Y-35675200D02*
X56745900Y-33592800D01*
X56745900Y-33592800D02*
X56745900Y-33592700D01*
X132695000Y-24320000D02*
X131343300Y-24320000D01*
X82967600Y-3532400D02*
X81500000Y-5000000D01*
X100000000Y-5000000D02*
X98532400Y-3532400D01*
X74160000Y-34000000D02*
X71448900Y-36711100D01*
X58802500Y-19917500D02*
X58802500Y-9756200D01*
X57980000Y-26400000D02*
X61580000Y-30000000D01*
X131343300Y-24320000D02*
X131343300Y-38037400D01*
X55233300Y-28566700D02*
X55233300Y-33592700D01*
X98532400Y-3532400D02*
X82967600Y-3532400D01*
X52512100Y-3465800D02*
X49534200Y-3465800D01*
X57400000Y-26400000D02*
X57400000Y-23860000D01*
X136875000Y-15680000D02*
X135773300Y-15680000D01*
X57400000Y-26400000D02*
X57980000Y-26400000D01*
X57400000Y-23860000D02*
X57400000Y-21320000D01*
X56745900Y-33592700D02*
X55233300Y-33592700D01*
X71448900Y-36711100D02*
X64702600Y-36711100D01*
X49534200Y-3465800D02*
X48000000Y-5000000D01*
X131343300Y-38037400D02*
X129380700Y-40000000D01*
X29600000Y-26100000D02*
X29600000Y-22600000D01*
X136875000Y-24320000D02*
X135773300Y-24320000D01*
X57400000Y-26400000D02*
X55233300Y-28566700D01*
X83447700Y-35760200D02*
X81817700Y-34130200D01*
X64365500Y-37048200D02*
X61788500Y-37048200D01*
X61788500Y-37048200D02*
X60415500Y-35675200D01*
X135773300Y-15680000D02*
X135773300Y-24320000D01*
%TO.N,+12V_IN*%
X36500000Y-5000000D02*
X24914500Y-16585500D01*
X24914500Y-16585500D02*
X8568800Y-16585500D01*
%TO.N,ASNS3*%
X126425700Y-40871400D02*
X126425700Y-26024700D01*
X126306800Y-40990300D02*
X126425700Y-40871400D01*
X110082300Y-13472900D02*
X109215400Y-14339800D01*
X130920400Y-21530000D02*
X130920400Y-19691800D01*
X109215400Y-14339800D02*
X86890400Y-14339800D01*
X86890400Y-14339800D02*
X84911100Y-12360500D01*
X124701500Y-13472900D02*
X110082300Y-13472900D01*
X126425700Y-26024700D02*
X130920400Y-21530000D01*
X130920400Y-19691800D02*
X124701500Y-13472900D01*
%TO.N,USB_VBUS*%
X130900200Y-22414600D02*
X131322100Y-21992700D01*
X131322100Y-21992700D02*
X131322100Y-18036000D01*
X131322100Y-18036000D02*
X130886100Y-17600000D01*
%TO.N,USB_DP*%
X123983500Y-26309900D02*
X109069600Y-26309900D01*
X130318700Y-19974700D02*
X123983500Y-26309900D01*
X94205700Y-21007400D02*
X89586800Y-21007400D01*
X89586800Y-21007400D02*
X88737700Y-21856500D01*
X107031600Y-24271900D02*
X97470200Y-24271900D01*
X109069600Y-26309900D02*
X107031600Y-24271900D01*
X97470200Y-24271900D02*
X94205700Y-21007400D01*
%TO.N,DRV16*%
X101497000Y-41022600D02*
X98858900Y-38384500D01*
X105852200Y-41022600D02*
X101497000Y-41022600D01*
%TO.N,DRV18*%
X102615900Y-37220900D02*
X102457200Y-37379600D01*
X95687800Y-39490200D02*
X95687800Y-39675000D01*
X103501100Y-38164900D02*
X103501100Y-38023500D01*
X98198600Y-36979400D02*
X95687800Y-39490200D01*
X103705700Y-38369500D02*
X103501100Y-38164900D01*
X108768400Y-39744200D02*
X107393700Y-38369500D01*
X103501100Y-38023500D02*
X102698500Y-37220900D01*
X107393700Y-38369500D02*
X103705700Y-38369500D01*
X100556300Y-36979400D02*
X98198600Y-36979400D01*
X100956500Y-37379600D02*
X100556300Y-36979400D01*
X102698500Y-37220900D02*
X102615900Y-37220900D01*
X102457200Y-37379600D02*
X100956500Y-37379600D01*
%TO.N,DRV20*%
X97855400Y-37929200D02*
X98403500Y-37381100D01*
X97855400Y-38806300D02*
X97855400Y-37929200D01*
X98403500Y-37381100D02*
X100269400Y-37381100D01*
X101882900Y-38994600D02*
X107132000Y-38994600D01*
X107132000Y-38994600D02*
X108998000Y-40860600D01*
X100269400Y-37381100D02*
X101882900Y-38994600D01*
X95686700Y-40975000D02*
X97855400Y-38806300D01*
%TO.N,SR_CH32*%
X103161300Y-36547700D02*
X103738700Y-36547700D01*
X102153100Y-36547700D02*
X102324600Y-36376200D01*
X104532100Y-37341100D02*
X116057000Y-37341100D01*
X82484100Y-44599200D02*
X84375500Y-44599200D01*
X81763300Y-38405000D02*
X82045100Y-38686800D01*
X78443200Y-40288500D02*
X78443200Y-38853900D01*
X82045100Y-38686800D02*
X82045100Y-44160200D01*
X101089100Y-36176000D02*
X101460800Y-36547700D01*
X84375500Y-44599200D02*
X90228000Y-38746700D01*
X97187600Y-36176000D02*
X101089100Y-36176000D01*
X82045100Y-44160200D02*
X82484100Y-44599200D01*
X78892100Y-38405000D02*
X81763300Y-38405000D01*
X78443200Y-38853900D02*
X78892100Y-38405000D01*
X102324600Y-36376200D02*
X102989800Y-36376200D01*
X101460800Y-36547700D02*
X102153100Y-36547700D01*
X96586800Y-36776800D02*
X97187600Y-36176000D01*
X69871300Y-43174000D02*
X75557700Y-43174000D01*
X103738700Y-36547700D02*
X104532100Y-37341100D01*
X102989800Y-36376200D02*
X103161300Y-36547700D01*
X65616900Y-38919600D02*
X69871300Y-43174000D01*
X75557700Y-43174000D02*
X78443200Y-40288500D01*
%TO.N,+3V3*%
X112490000Y-25699300D02*
X106688800Y-19898100D01*
X57651700Y-30287900D02*
X61363800Y-34000000D01*
X62356600Y-34000000D02*
X64000000Y-34000000D01*
X66349000Y-32750200D02*
X78046200Y-21053000D01*
X66136000Y-32750200D02*
X66349000Y-32750200D01*
X106456500Y-29839900D02*
X89912500Y-29839900D01*
X78046200Y-20232200D02*
X80414200Y-17864200D01*
X64000000Y-34000000D02*
X65151700Y-34000000D01*
X65151700Y-34000000D02*
X65151700Y-33734500D01*
X106456500Y-29839900D02*
X106456500Y-27387800D01*
X113682300Y-24507000D02*
X112490000Y-25699300D01*
X78046200Y-21053000D02*
X78046200Y-20250000D01*
X65151700Y-33734500D02*
X66136000Y-32750200D01*
X78046200Y-20250000D02*
X78046200Y-20232200D01*
X106456500Y-30237700D02*
X106475000Y-30256200D01*
X106688800Y-19898100D02*
X99038100Y-19898100D01*
X57651700Y-30000000D02*
X57651700Y-30287900D01*
X62356600Y-34000000D02*
X62356600Y-36044400D01*
X106456500Y-29839900D02*
X106456500Y-30237700D01*
X56500000Y-30000000D02*
X57651700Y-30000000D01*
X61363800Y-34000000D02*
X62356600Y-34000000D01*
X113682300Y-14096700D02*
X113682300Y-24507000D01*
%TO.N,SR_SCK*%
X108530400Y-33008600D02*
X110420200Y-34898400D01*
X53446600Y-40492600D02*
X39618900Y-40492600D01*
X80695500Y-28525500D02*
X80695500Y-28015300D01*
X57982000Y-37065200D02*
X56874000Y-37065200D01*
X65201500Y-37916200D02*
X64864400Y-38253300D01*
X76683400Y-35062900D02*
X76683400Y-32768400D01*
X104046300Y-30355400D02*
X105673800Y-30355400D01*
X64864400Y-38253300D02*
X61289600Y-38253300D01*
X76683400Y-32768400D02*
X76920000Y-32531800D01*
X105673800Y-30355400D02*
X108327000Y-33008600D01*
X25452500Y-35180500D02*
X24588400Y-36044600D01*
X30825700Y-39978500D02*
X30825700Y-35816600D01*
X76315300Y-36667100D02*
X74237000Y-36667100D01*
X74028500Y-36875600D02*
X72987900Y-37916200D01*
X76315300Y-36667100D02*
X76315300Y-35431000D01*
X30825700Y-35816600D02*
X30825700Y-35727300D01*
X110420200Y-34898400D02*
X111819500Y-34898400D01*
X90161700Y-30441600D02*
X90249400Y-30353900D01*
X77125900Y-37477700D02*
X76315300Y-36667100D01*
X72987900Y-37916200D02*
X65201500Y-37916200D01*
X80695500Y-28015300D02*
X81060000Y-27650800D01*
X30278900Y-35180500D02*
X25452500Y-35180500D01*
X76920000Y-32531800D02*
X76920000Y-32529700D01*
X89575700Y-30353900D02*
X89663400Y-30441600D01*
X56874000Y-37065200D02*
X53446600Y-40492600D01*
X34942900Y-35816600D02*
X30825700Y-35816600D01*
X61289600Y-38253300D02*
X60902300Y-37866000D01*
X87995200Y-30353900D02*
X89575700Y-30353900D01*
X121625000Y-40992600D02*
X121625000Y-39800900D01*
X76920000Y-32529700D02*
X80809900Y-28639800D01*
X74237000Y-36667100D02*
X74028500Y-36875600D01*
X89663400Y-30441600D02*
X90161700Y-30441600D01*
X30847200Y-40000000D02*
X30825700Y-39978500D01*
X108327000Y-33008600D02*
X108530400Y-33008600D01*
X39618900Y-40492600D02*
X34942900Y-35816600D01*
X80809900Y-28639800D02*
X82123700Y-29953700D01*
X76315300Y-35431000D02*
X76683400Y-35062900D01*
X111819500Y-34898400D02*
X111819500Y-35946000D01*
X104044800Y-30353900D02*
X104046300Y-30355400D01*
X81060000Y-27650800D02*
X82408000Y-27650800D01*
X115881600Y-36739400D02*
X114040600Y-34898400D01*
X60902300Y-37866000D02*
X58782800Y-37866000D01*
X118563500Y-36739400D02*
X115881600Y-36739400D01*
X30825700Y-35727300D02*
X30278900Y-35180500D01*
X58782800Y-37866000D02*
X57982000Y-37065200D01*
X77125900Y-40172300D02*
X77125900Y-37477700D01*
X87595000Y-29953700D02*
X87995200Y-30353900D01*
X82408000Y-27650800D02*
X83154900Y-28397700D01*
X121625000Y-39800900D02*
X118563500Y-36739400D01*
X82123700Y-29953700D02*
X87595000Y-29953700D01*
X114040600Y-34898400D02*
X111819500Y-34898400D01*
X80809900Y-28639800D02*
X80695500Y-28525500D01*
X90249400Y-30353900D02*
X104044800Y-30353900D01*
%TO.N,SR_RCLK*%
X65798800Y-35924800D02*
X64920900Y-35924800D01*
X62055000Y-36646500D02*
X60482000Y-35073500D01*
X64920900Y-35924800D02*
X64199200Y-36646500D01*
X106872000Y-26384300D02*
X104169700Y-26384300D01*
X102811500Y-27742500D02*
X88838200Y-27742500D01*
X64199200Y-36646500D02*
X62055000Y-36646500D01*
X112535800Y-32048100D02*
X106872000Y-26384300D01*
X112535800Y-34283500D02*
X112535800Y-32048100D01*
X104169700Y-26384300D02*
X102811500Y-27742500D01*
X60482000Y-35073500D02*
X59077400Y-35073500D01*
%TO.N,SR_OE_N*%
X104590300Y-36063100D02*
X104100000Y-35572800D01*
X104100000Y-35572800D02*
X101992000Y-35572800D01*
X101793400Y-35744300D02*
X101421700Y-35372600D01*
X101992000Y-35572800D02*
X101820500Y-35744300D01*
X101820500Y-35744300D02*
X101793400Y-35744300D01*
X101421700Y-35372600D02*
X91138500Y-35372600D01*
X91138500Y-35372600D02*
X87028500Y-31262600D01*
X110382900Y-35819700D02*
X110139500Y-36063100D01*
X110139500Y-36063100D02*
X104590300Y-36063100D01*
%TO.N,SR_MOSI*%
X101588000Y-34970900D02*
X91844000Y-34970900D01*
X85438700Y-30355400D02*
X84830200Y-30963900D01*
X101825700Y-35171100D02*
X101807000Y-35189800D01*
X101806900Y-35189800D02*
X101588000Y-34970900D01*
X87228500Y-30355400D02*
X85438700Y-30355400D01*
X101807000Y-35189800D02*
X101806900Y-35189800D01*
X108456000Y-35461400D02*
X108165700Y-35171100D01*
X108165700Y-35171100D02*
X101825700Y-35171100D01*
X91844000Y-34970900D02*
X87228500Y-30355400D01*
%TO.N,CH4*%
X19215800Y-57415800D02*
X19215800Y-56658600D01*
X19215800Y-56658600D02*
X15888200Y-53331000D01*
X15888200Y-53331000D02*
X15888200Y-42406900D01*
X15888200Y-42406900D02*
X15762800Y-42281500D01*
X26800000Y-65000000D02*
X19215800Y-57415800D01*
X15762800Y-42281500D02*
X15762800Y-39875100D01*
X15762800Y-39875100D02*
X15962900Y-39675000D01*
%TO.N,LATCH_IN*%
X16709600Y-30202900D02*
X12336500Y-30202900D01*
X18814800Y-28097700D02*
X16709600Y-30202900D01*
%TO.N,CH19*%
X115914700Y-56438400D02*
X116585500Y-55767600D01*
X102754400Y-43278200D02*
X115914700Y-56438400D01*
X118300000Y-58823800D02*
X115914700Y-56438400D01*
X118300000Y-65000000D02*
X118300000Y-58823800D01*
X102565300Y-43278200D02*
X102754400Y-43278200D01*
%TO.N,CH3*%
X10404400Y-41432900D02*
X12812300Y-39025000D01*
X21832400Y-66467600D02*
X15317100Y-66467600D01*
X10404400Y-61554900D02*
X10404400Y-41432900D01*
X23300000Y-65000000D02*
X21832400Y-66467600D01*
X15317100Y-66467600D02*
X10404400Y-61554900D01*
%TO.N,SNS3*%
X29947900Y-43687600D02*
X29947900Y-36778400D01*
X24274400Y-49361100D02*
X29947900Y-43687600D01*
%TO.N,DRV2*%
X11349400Y-33840900D02*
X14483100Y-36974600D01*
X8841800Y-36594500D02*
X8841800Y-35774700D01*
X8841800Y-35774700D02*
X10775600Y-33840900D01*
X14483100Y-36974600D02*
X14483100Y-42988700D01*
X10775600Y-33840900D02*
X11349400Y-33840900D01*
%TO.N,CH7*%
X17168000Y-41625000D02*
X17168000Y-45436000D01*
X17168000Y-45436000D02*
X36732000Y-65000000D01*
X36732000Y-65000000D02*
X37300000Y-65000000D01*
%TO.N,CH6*%
X33800000Y-65000000D02*
X16691600Y-47891600D01*
X16566200Y-41054300D02*
X16775800Y-40844700D01*
X16691600Y-42074300D02*
X16566200Y-41948900D01*
X16691600Y-47891600D02*
X16691600Y-42074300D01*
X16566200Y-41948900D02*
X16566200Y-41054300D01*
%TO.N,CH5*%
X16164500Y-40605200D02*
X16765300Y-40004400D01*
X16164500Y-42115200D02*
X16164500Y-40605200D01*
X30300000Y-65000000D02*
X16289900Y-50989900D01*
X16289900Y-42240600D02*
X16164500Y-42115200D01*
X16289900Y-50989900D02*
X16289900Y-42240600D01*
%TO.N,CH2*%
X15486500Y-42573200D02*
X15361100Y-42447800D01*
X15486500Y-60686500D02*
X15486500Y-42573200D01*
X15361100Y-38928400D02*
X15914500Y-38375000D01*
X19800000Y-65000000D02*
X15486500Y-60686500D01*
X15361100Y-42447800D02*
X15361100Y-38928400D01*
%TO.N,CH1*%
X14959400Y-43363300D02*
X15084800Y-43237900D01*
X14959400Y-42614100D02*
X14959400Y-38236300D01*
X15003000Y-63703000D02*
X15003000Y-56637800D01*
X15084800Y-42739500D02*
X14959400Y-42614100D01*
X14959400Y-56594200D02*
X14959400Y-43363300D01*
X15084800Y-43237900D02*
X15084800Y-42739500D01*
X14959400Y-38236300D02*
X15884000Y-37311700D01*
X16300000Y-65000000D02*
X15003000Y-63703000D01*
X15003000Y-56637800D02*
X14959400Y-56594200D01*
%TO.N,SWDIO*%
X66540000Y-34000000D02*
X79290000Y-21250000D01*
X79290000Y-21250000D02*
X81984100Y-21250000D01*
%TO.N,SWCLK*%
X94267900Y-21737700D02*
X94267900Y-22234700D01*
X72771700Y-34550300D02*
X72119500Y-35202500D01*
X72771700Y-33674900D02*
X72771700Y-34550300D01*
X88118500Y-21603400D02*
X88118500Y-22100100D01*
X88118500Y-22100100D02*
X88804400Y-22786000D01*
X91463900Y-18258000D02*
X88118500Y-21603400D01*
X93939300Y-21409100D02*
X94267900Y-21737700D01*
X91653000Y-18364500D02*
X91546500Y-18258000D01*
X72119500Y-35202500D02*
X70282500Y-35202500D01*
X90906300Y-25596300D02*
X80850300Y-25596300D01*
X91082500Y-21409100D02*
X93939300Y-21409100D01*
X89705600Y-22786000D02*
X91082500Y-21409100D01*
X94267900Y-22234700D02*
X90906300Y-25596300D01*
X88804400Y-22786000D02*
X89705600Y-22786000D01*
X91546500Y-18258000D02*
X91463900Y-18258000D01*
X80850300Y-25596300D02*
X72771700Y-33674900D01*
X70282500Y-35202500D02*
X69080000Y-34000000D01*
%TO.N,NRST*%
X93639200Y-22088800D02*
X90533400Y-25194600D01*
X90533400Y-25194600D02*
X82064400Y-25194600D01*
X82064400Y-25194600D02*
X81244900Y-24375100D01*
X81244900Y-23552800D02*
X80942100Y-23250000D01*
X81244900Y-24375100D02*
X71620000Y-34000000D01*
X93639200Y-22010900D02*
X93639200Y-22088800D01*
X81244900Y-24375100D02*
X81244900Y-23552800D01*
%TO.N,CH18*%
X114800000Y-65000000D02*
X116256800Y-63543200D01*
X116256800Y-57473100D02*
X104436100Y-45652400D01*
X116256800Y-63543200D02*
X116256800Y-57473100D01*
X104436100Y-45652400D02*
X104269200Y-45652400D01*
%TO.N,+12V_SW*%
X29600000Y-19100000D02*
X29600000Y-15600000D01*
%TO.N,HSE_IN*%
X80643200Y-24062300D02*
X80643200Y-24116500D01*
X80643200Y-24116500D02*
X74570400Y-30189300D01*
%TO.N,AUX1*%
X68093100Y-3093100D02*
X62818300Y-3093100D01*
X62818300Y-3093100D02*
X59984700Y-5926700D01*
X70000000Y-5000000D02*
X68093100Y-3093100D01*
X59984700Y-5926700D02*
X59984700Y-11055200D01*
%TO.N,AUX2*%
X66500000Y-9601600D02*
X67885500Y-10987100D01*
X66500000Y-5000000D02*
X66500000Y-9601600D01*
%TO.N,AUX3*%
X67100900Y-3538600D02*
X64461400Y-3538600D01*
X64461400Y-3538600D02*
X63000000Y-5000000D01*
X71041300Y-11055200D02*
X68080100Y-8094000D01*
X68080100Y-4517800D02*
X67100900Y-3538600D01*
X68080100Y-8094000D02*
X68080100Y-4517800D01*
%TO.N,CH21*%
X111366400Y-49710600D02*
X111954400Y-50298600D01*
X125300000Y-62986100D02*
X125300000Y-65000000D01*
X112612500Y-50298600D02*
X125300000Y-62986100D01*
X103991200Y-41625000D02*
X104207100Y-41625000D01*
X111366400Y-48784300D02*
X111366400Y-49710600D01*
X111954400Y-50298600D02*
X112612500Y-50298600D01*
X104207100Y-41625000D02*
X111366400Y-48784300D01*
%TO.N,CH20*%
X117924500Y-56209600D02*
X117924500Y-56751600D01*
X112064100Y-50976300D02*
X112691200Y-50976300D01*
X117924500Y-56751600D02*
X121800000Y-60627100D01*
X121800000Y-60627100D02*
X121800000Y-65000000D01*
X104469600Y-43381800D02*
X112064100Y-50976300D01*
X104469600Y-42754700D02*
X104469600Y-43381800D01*
X112691200Y-50976300D02*
X117924500Y-56209600D01*
%TO.N,+5V*%
X53779600Y-18780000D02*
X41559600Y-31000000D01*
X57400000Y-18780000D02*
X57400000Y-16240000D01*
X57400000Y-18780000D02*
X53779600Y-18780000D01*
X57400000Y-16240000D02*
X57400000Y-13700000D01*
%TO.N,SR_PL*%
X116342900Y-37906100D02*
X119162200Y-37906100D01*
X78000200Y-40163500D02*
X78000200Y-34669600D01*
X77471900Y-32547900D02*
X85859200Y-32547900D01*
X120016900Y-38760800D02*
X120016900Y-42579600D01*
X100922800Y-36577700D02*
X101323000Y-36977900D01*
X77118700Y-32901100D02*
X77471900Y-32547900D01*
X78000200Y-34669600D02*
X77118700Y-33788100D01*
X120016900Y-42579600D02*
X119526800Y-43069700D01*
X85859200Y-37552100D02*
X86437200Y-38130100D01*
X97663300Y-36577700D02*
X100922800Y-36577700D01*
X116306200Y-37942800D02*
X116342900Y-37906100D01*
X85859200Y-31286600D02*
X86143800Y-31002000D01*
X102823500Y-36777900D02*
X103988400Y-37942800D01*
X119162200Y-37906100D02*
X120016900Y-38760800D01*
X86437200Y-38130100D02*
X96110900Y-38130100D01*
X102290900Y-36977900D02*
X102490900Y-36777900D01*
X103988400Y-37942800D02*
X116306200Y-37942800D01*
X75549300Y-41738400D02*
X75862000Y-41425700D01*
X85859200Y-32547900D02*
X85859200Y-31286600D01*
X102490900Y-36777900D02*
X102823500Y-36777900D01*
X101323000Y-36977900D02*
X102290900Y-36977900D01*
X75862000Y-41425700D02*
X76738000Y-41425700D01*
X77118700Y-33788100D02*
X77118700Y-32901100D01*
X96110900Y-38130100D02*
X97663300Y-36577700D01*
X76738000Y-41425700D02*
X78000200Y-40163500D01*
X85859200Y-32547900D02*
X85859200Y-37552100D01*
%TO.N,ASNS1*%
X40957900Y-27249700D02*
X58192400Y-10015200D01*
X41357100Y-39887400D02*
X41357100Y-31648200D01*
X40957900Y-31249100D02*
X40957900Y-27249700D01*
X41357000Y-31648200D02*
X40957900Y-31249100D01*
X41357100Y-31648200D02*
X41357000Y-31648200D01*
%TO.N,SR_DI12*%
X58207500Y-36604300D02*
X43117800Y-36604300D01*
X59067500Y-37464300D02*
X58207500Y-36604300D01*
X73565500Y-36204500D02*
X72255500Y-37514500D01*
X72255500Y-37514500D02*
X65035200Y-37514500D01*
X65035200Y-37514500D02*
X64698100Y-37851600D01*
X43117800Y-36604300D02*
X42405400Y-37316700D01*
X64698100Y-37851600D02*
X61455900Y-37851600D01*
X61068600Y-37464300D02*
X59067500Y-37464300D01*
X61455900Y-37851600D02*
X61068600Y-37464300D01*
%TO.N,SNS2*%
X22995000Y-42842400D02*
X30038900Y-35798500D01*
X22995000Y-49839800D02*
X22995000Y-42842400D01*
%TO.N,SNS4*%
X31494100Y-47247000D02*
X31494100Y-36428600D01*
X28741100Y-50000000D02*
X31494100Y-47247000D01*
%TO.N,CAN_RX*%
X86913400Y-22599000D02*
X86913400Y-22347500D01*
X87716800Y-21437100D02*
X87716800Y-22266400D01*
X88705600Y-24391200D02*
X86913400Y-22599000D01*
X83569700Y-19003800D02*
X81228100Y-19003800D01*
X89402400Y-24391200D02*
X88705600Y-24391200D01*
X88762200Y-23311800D02*
X88762300Y-23311800D01*
X89384700Y-23187700D02*
X89737200Y-23540200D01*
X86913400Y-22347500D02*
X83569700Y-19003800D01*
X93346500Y-15807400D02*
X87716800Y-21437100D01*
X88886400Y-23187700D02*
X89384700Y-23187700D01*
X81228100Y-19003800D02*
X80779800Y-19452100D01*
X89737200Y-24056400D02*
X89402400Y-24391200D01*
X98062500Y-15807400D02*
X93346500Y-15807400D01*
X89737200Y-23540200D02*
X89737200Y-24056400D01*
X88762300Y-23311800D02*
X88886400Y-23187700D01*
X87716800Y-22266400D02*
X88762200Y-23311800D01*
%TO.N,CANL*%
X103500000Y-5000000D02*
X103500000Y-12255300D01*
X103500000Y-12255300D02*
X104982700Y-13738000D01*
%TO.N,CH11*%
X70800000Y-62385600D02*
X67813200Y-59398800D01*
X70252000Y-53323200D02*
X61602700Y-44673900D01*
X70800000Y-65000000D02*
X70800000Y-62385600D01*
X70607400Y-53123200D02*
X70407400Y-53323200D01*
X61941800Y-40887800D02*
X60729000Y-39675000D01*
X61602700Y-44673900D02*
X61602700Y-44591300D01*
X70407400Y-53323200D02*
X70252000Y-53323200D01*
X61941800Y-44252200D02*
X61941800Y-40887800D01*
X61602700Y-44591300D02*
X61941800Y-44252200D01*
%TO.N,SNS11*%
X78844900Y-39318800D02*
X79136600Y-39027100D01*
X72749800Y-46549900D02*
X78844900Y-40454800D01*
X72749800Y-50000000D02*
X72749800Y-46549900D01*
X78844900Y-40454800D02*
X78844900Y-39318800D01*
%TO.N,IMU_SDO*%
X102949600Y-25179200D02*
X102878800Y-25250000D01*
X112690900Y-28113800D02*
X110305500Y-28113800D01*
X107370900Y-25179200D02*
X102949600Y-25179200D01*
X110305500Y-28113800D02*
X107370900Y-25179200D01*
%TO.N,IMU_INT1*%
X82178900Y-29136000D02*
X103121100Y-29136000D01*
X103121100Y-29136000D02*
X104401200Y-27855900D01*
X81316100Y-28273200D02*
X82178900Y-29136000D01*
%TO.N,IMU_SCL*%
X103377800Y-20605700D02*
X92474300Y-20605700D01*
X92474300Y-20605700D02*
X91266800Y-19398200D01*
X106442300Y-23670200D02*
X103377800Y-20605700D01*
%TO.N,IMU_SDA*%
X91967100Y-22873400D02*
X90047600Y-24792900D01*
X90047600Y-24792900D02*
X88499800Y-24792900D01*
X88499800Y-24792900D02*
X83316400Y-19609500D01*
%TO.N,ASNS2*%
X73773200Y-23907000D02*
X66099200Y-31581000D01*
X73773200Y-13159400D02*
X73773200Y-23907000D01*
X82691300Y-43955400D02*
X82691300Y-38157200D01*
X82691300Y-38157200D02*
X77720500Y-33186400D01*
%TO.N,CH14*%
X60738300Y-41927300D02*
X60938400Y-41727200D01*
X60738300Y-44945500D02*
X60738300Y-41927300D01*
X81300000Y-65000000D02*
X80792800Y-65000000D01*
X80792800Y-65000000D02*
X60738300Y-44945500D01*
%TO.N,CH13*%
X77800000Y-65000000D02*
X60336600Y-47536600D01*
X60336600Y-47536600D02*
X60336600Y-41422600D01*
X60336600Y-41422600D02*
X60833700Y-40925500D01*
%TO.N,CH12*%
X74300000Y-65000000D02*
X59911700Y-50611700D01*
X59911700Y-50611700D02*
X59911700Y-40346600D01*
%TO.N,CH9*%
X63800000Y-65000000D02*
X58800500Y-60000500D01*
X58800500Y-60000500D02*
X58800500Y-55380400D01*
X58800500Y-55380400D02*
X58771300Y-55351200D01*
X58771300Y-55351200D02*
X58771300Y-43126200D01*
%TO.N,CH8*%
X51887500Y-55716200D02*
X57415500Y-50188200D01*
X51887500Y-55716200D02*
X60300000Y-64128700D01*
X57415500Y-50188200D02*
X57415500Y-38079600D01*
X60300000Y-64128700D02*
X60300000Y-65000000D01*
%TO.N,BOOT0*%
X76246800Y-22284400D02*
X76246800Y-21180500D01*
X76246800Y-21180500D02*
X81014800Y-16412500D01*
X61388500Y-32348500D02*
X66182700Y-32348500D01*
X66182700Y-32348500D02*
X76246800Y-22284400D01*
X81014800Y-16412500D02*
X84476300Y-16412500D01*
X59040000Y-30000000D02*
X61388500Y-32348500D01*
%TO.N,SR_CH21*%
X61123300Y-38655000D02*
X60736000Y-38267700D01*
X22909000Y-50609000D02*
X20990600Y-48690600D01*
X57715500Y-37466900D02*
X57086600Y-37466900D01*
X20990600Y-48690600D02*
X20990600Y-37635700D01*
X75158500Y-37305900D02*
X74146500Y-38317900D01*
X57086600Y-37466900D02*
X43944500Y-50609000D01*
X20990600Y-37635700D02*
X22594800Y-36031500D01*
X43944500Y-50609000D02*
X22909000Y-50609000D01*
X60736000Y-38267700D02*
X58516300Y-38267700D01*
X65367800Y-38317900D02*
X65030700Y-38655000D01*
X65030700Y-38655000D02*
X61123300Y-38655000D01*
X74146500Y-38317900D02*
X65367800Y-38317900D01*
X58516300Y-38267700D02*
X57715500Y-37466900D01*
%TO.N,EEP_SCK*%
X107543800Y-27624100D02*
X107543800Y-31374600D01*
X102658400Y-28534300D02*
X104406700Y-26786000D01*
X106705700Y-26786000D02*
X107543800Y-27624100D01*
X104406700Y-26786000D02*
X106705700Y-26786000D01*
X107543800Y-31374600D02*
X108576100Y-32406900D01*
X100042500Y-28534300D02*
X102658400Y-28534300D01*
%TO.N,SNS17*%
X124165000Y-42393700D02*
X124165000Y-39049200D01*
X115027100Y-51531600D02*
X124165000Y-42393700D01*
%TO.N,LATCH_IGN*%
X7384800Y-27740500D02*
X16063200Y-27740500D01*
X16063200Y-27740500D02*
X16087500Y-27764800D01*
X35650000Y-20850000D02*
X23002300Y-20850000D01*
X23002300Y-20850000D02*
X16087500Y-27764800D01*
X51500000Y-5000000D02*
X35650000Y-20850000D01*
%TO.N,IGN_SENSE*%
X9336100Y-24932800D02*
X6783100Y-27485800D01*
X6783100Y-28320600D02*
X6935000Y-28472500D01*
X15787300Y-24932800D02*
X9336100Y-24932800D01*
X6783100Y-27485800D02*
X6783100Y-28320600D01*
%TO.N,SNS9*%
X81435000Y-42776000D02*
X81435000Y-39009300D01*
X71080200Y-51459600D02*
X71295200Y-51674600D01*
X72536400Y-51674600D02*
X81435000Y-42776000D01*
X71295200Y-51674600D02*
X72536400Y-51674600D01*
%TO.N,SNS10*%
X72328800Y-51231600D02*
X72411400Y-51231600D01*
X77641600Y-42226100D02*
X80189400Y-39678300D01*
X70844900Y-50832400D02*
X71929600Y-50832400D01*
X72411400Y-51231600D02*
X77641600Y-46001400D01*
X69841300Y-52061300D02*
X69841300Y-51836000D01*
X77641600Y-46001400D02*
X77641600Y-42226100D01*
X71929600Y-50832400D02*
X72328800Y-51231600D01*
X80189400Y-39678300D02*
X80189400Y-39006800D01*
X69841300Y-51836000D02*
X70844900Y-50832400D01*
%TO.N,SNS16*%
X119231500Y-38850200D02*
X112370000Y-45711700D01*
X112370000Y-45711700D02*
X112370000Y-49295000D01*
%TO.N,SR_MISO*%
X115842700Y-34751400D02*
X107057900Y-25966600D01*
X115842700Y-34928800D02*
X115842700Y-34751400D01*
X102082100Y-27123700D02*
X89370100Y-27123700D01*
X107057900Y-25966600D02*
X103239200Y-25966600D01*
X103239200Y-25966600D02*
X102082100Y-27123700D01*
%TO.N,SR_DI23*%
X103327600Y-36146000D02*
X103156100Y-35974500D01*
X112593700Y-35532200D02*
X112593700Y-36022700D01*
X88442700Y-35774300D02*
X86692000Y-37525000D01*
X101255400Y-35774300D02*
X88442700Y-35774300D01*
X101627100Y-36146000D02*
X101255400Y-35774300D01*
X102158300Y-35974500D02*
X101986800Y-36146000D01*
X101986800Y-36146000D02*
X101627100Y-36146000D01*
X112068700Y-36547700D02*
X104506900Y-36547700D01*
X104506900Y-36547700D02*
X104105200Y-36146000D01*
X103156100Y-35974500D02*
X102158300Y-35974500D01*
X104105200Y-36146000D02*
X103327600Y-36146000D01*
X112593700Y-36022700D02*
X112068700Y-36547700D01*
%TO.N,SNS15*%
X111768100Y-46005100D02*
X111768100Y-49544300D01*
X97895600Y-53279700D02*
X97895600Y-51006900D01*
X113641500Y-49896900D02*
X122268800Y-41269600D01*
X99108100Y-37782800D02*
X101121700Y-39796400D01*
X98257100Y-49667000D02*
X98257100Y-38114700D01*
X125246700Y-38439300D02*
X125824000Y-39016600D01*
X97895600Y-51006900D02*
X98746300Y-50156200D01*
X98746300Y-50156200D02*
X98257100Y-49667000D01*
X98257100Y-38114700D02*
X98589000Y-37782800D01*
X105559500Y-39796500D02*
X111768100Y-46005100D01*
X112120700Y-49896900D02*
X113641500Y-49896900D01*
X111768100Y-49544300D02*
X112120700Y-49896900D01*
X98589000Y-37782800D02*
X99108100Y-37782800D01*
X101121700Y-39796500D02*
X105559500Y-39796500D01*
X122268800Y-41269600D02*
X122268800Y-40032600D01*
X101121700Y-39796400D02*
X101121700Y-39796500D01*
X123862100Y-38439300D02*
X125246700Y-38439300D01*
X122268800Y-40032600D02*
X123862100Y-38439300D01*
%TO.N,LATCH_HOLD*%
X73408000Y-35510700D02*
X71805900Y-37112800D01*
X59548500Y-37062600D02*
X58233900Y-35748000D01*
X61622200Y-37449900D02*
X61234900Y-37062600D01*
X58233900Y-35748000D02*
X46024900Y-35748000D01*
X76115400Y-33677100D02*
X74281800Y-35510700D01*
X64531800Y-37449900D02*
X61622200Y-37449900D01*
X86096300Y-27221900D02*
X80920700Y-27221900D01*
X74281800Y-35510700D02*
X73408000Y-35510700D01*
X46024900Y-35748000D02*
X44048000Y-33771100D01*
X80920700Y-27221900D02*
X76115400Y-32027200D01*
X76115400Y-32027200D02*
X76115400Y-33677100D01*
X61234900Y-37062600D02*
X59548500Y-37062600D01*
X71805900Y-37112800D02*
X64868900Y-37112800D01*
X64868900Y-37112800D02*
X64531800Y-37449900D01*
X87250000Y-28375600D02*
X86096300Y-27221900D01*
%TO.N,LED1*%
X84752200Y-15754800D02*
X87315100Y-18317700D01*
X87315100Y-18317700D02*
X87315100Y-22432700D01*
X75901600Y-18030200D02*
X78177000Y-15754800D01*
X87315100Y-22432700D02*
X88631200Y-23748800D01*
X88631200Y-23748800D02*
X89094900Y-23748800D01*
X89094900Y-23748800D02*
X89135500Y-23789400D01*
X78177000Y-15754800D02*
X84752200Y-15754800D01*
%TO.N,LED2*%
X82412800Y-12557600D02*
X85793800Y-15938600D01*
X73415200Y-12557600D02*
X82412800Y-12557600D01*
X72160800Y-13812000D02*
X73415200Y-12557600D01*
%TD*%
%TA.AperFunction,Conductor*%
%TO.N,GND*%
G36*
X85401739Y-32968085D02*
G01*
X85447494Y-33020889D01*
X85458700Y-33072400D01*
X85458700Y-37499373D01*
X85458700Y-37604827D01*
X85461443Y-37615063D01*
X85485993Y-37706689D01*
X85501583Y-37733690D01*
X85538720Y-37798013D01*
X86116719Y-38376012D01*
X86116720Y-38376013D01*
X86191287Y-38450580D01*
X86282613Y-38503307D01*
X86384473Y-38530600D01*
X89504147Y-38530600D01*
X89513348Y-38533301D01*
X89522854Y-38532019D01*
X89546331Y-38542986D01*
X89571186Y-38550285D01*
X89577465Y-38557531D01*
X89586157Y-38561592D01*
X89599978Y-38583513D01*
X89616941Y-38603089D01*
X89619298Y-38614154D01*
X89623422Y-38620695D01*
X89624850Y-38640221D01*
X89628142Y-38655672D01*
X89628056Y-38665566D01*
X89627500Y-38667643D01*
X89627500Y-38729938D01*
X89627495Y-38730517D01*
X89617507Y-38763474D01*
X89607815Y-38796484D01*
X89607317Y-38797101D01*
X89607232Y-38797384D01*
X89606778Y-38797769D01*
X89591181Y-38817126D01*
X84245926Y-44162381D01*
X84184603Y-44195866D01*
X84158245Y-44198700D01*
X83409391Y-44198700D01*
X83342352Y-44179015D01*
X83296597Y-44126211D01*
X83286653Y-44057053D01*
X83289616Y-44042608D01*
X83289755Y-44042088D01*
X83291800Y-44034457D01*
X83291800Y-43876343D01*
X83250877Y-43723616D01*
X83206637Y-43646989D01*
X83171824Y-43586690D01*
X83171818Y-43586682D01*
X83128119Y-43542983D01*
X83094634Y-43481660D01*
X83091800Y-43455302D01*
X83091800Y-38104476D01*
X83091800Y-38104473D01*
X83083096Y-38071988D01*
X83064507Y-38002612D01*
X83031128Y-37944799D01*
X83011780Y-37911287D01*
X82937213Y-37836720D01*
X82937210Y-37836718D01*
X80644794Y-35544302D01*
X78357319Y-33256826D01*
X78323834Y-33195503D01*
X78321000Y-33169145D01*
X78321000Y-33107345D01*
X78321000Y-33107343D01*
X78320236Y-33104491D01*
X78320295Y-33101994D01*
X78319939Y-33099287D01*
X78320361Y-33099231D01*
X78321899Y-33034643D01*
X78361062Y-32976781D01*
X78425290Y-32949277D01*
X78440011Y-32948400D01*
X85334700Y-32948400D01*
X85401739Y-32968085D01*
G37*
%TD.AperFunction*%
%TA.AperFunction,Conductor*%
G36*
X65317866Y-36330927D02*
G01*
X65337829Y-36331635D01*
X65362775Y-36344114D01*
X65365741Y-36344985D01*
X65367745Y-36346600D01*
X65369394Y-36347425D01*
X65378525Y-36353761D01*
X65430084Y-36405320D01*
X65565471Y-36483485D01*
X65569708Y-36486425D01*
X65588533Y-36509772D01*
X65609231Y-36531479D01*
X65610234Y-36536687D01*
X65613564Y-36540816D01*
X65616778Y-36570633D01*
X65622455Y-36600086D01*
X65620483Y-36605010D01*
X65621052Y-36610284D01*
X65607633Y-36637109D01*
X65596487Y-36664951D01*
X65592166Y-36668027D01*
X65589794Y-36672771D01*
X65564003Y-36688083D01*
X65539573Y-36705480D01*
X65534275Y-36705732D01*
X65529715Y-36708440D01*
X65499016Y-36712300D01*
X64999155Y-36712300D01*
X64932116Y-36692615D01*
X64886361Y-36639811D01*
X64876417Y-36570653D01*
X64905442Y-36507097D01*
X64911474Y-36500619D01*
X65050474Y-36361619D01*
X65111797Y-36328134D01*
X65138155Y-36325300D01*
X65298702Y-36325300D01*
X65317866Y-36330927D01*
G37*
%TD.AperFunction*%
%TA.AperFunction,Conductor*%
G36*
X67846630Y-34010253D02*
G01*
X67904863Y-34048863D01*
X67932473Y-34109321D01*
X67957829Y-34269410D01*
X68013787Y-34441636D01*
X68013788Y-34441639D01*
X68060891Y-34534081D01*
X68079396Y-34570400D01*
X68096006Y-34602997D01*
X68202441Y-34749494D01*
X68202445Y-34749499D01*
X68330502Y-34877556D01*
X68395975Y-34925124D01*
X68477006Y-34983996D01*
X68557198Y-35024856D01*
X68638360Y-35066211D01*
X68638363Y-35066212D01*
X68704560Y-35087720D01*
X68810591Y-35122171D01*
X68893429Y-35135291D01*
X68989449Y-35150500D01*
X68989454Y-35150500D01*
X69170551Y-35150500D01*
X69349409Y-35122171D01*
X69349412Y-35122170D01*
X69493284Y-35075423D01*
X69563123Y-35073429D01*
X69619281Y-35105674D01*
X70036587Y-35522980D01*
X70108285Y-35564375D01*
X70120798Y-35571600D01*
X70127912Y-35575707D01*
X70229773Y-35603000D01*
X70229775Y-35603000D01*
X72172225Y-35603000D01*
X72172227Y-35603000D01*
X72274088Y-35575707D01*
X72365413Y-35522980D01*
X73092180Y-34796213D01*
X73099367Y-34783764D01*
X73101964Y-34780378D01*
X73102462Y-34778688D01*
X73104846Y-34776622D01*
X73119074Y-34758081D01*
X73691980Y-34185176D01*
X73694075Y-34192993D01*
X73759901Y-34307007D01*
X73852993Y-34400099D01*
X73967007Y-34465925D01*
X73974822Y-34468019D01*
X73418827Y-35024014D01*
X73418579Y-35024856D01*
X73412362Y-35054451D01*
X73408823Y-35058040D01*
X73407402Y-35062876D01*
X73384538Y-35082674D01*
X73363310Y-35104208D01*
X73358393Y-35105314D01*
X73354583Y-35108614D01*
X73335204Y-35115576D01*
X73335020Y-35115626D01*
X73254976Y-35137074D01*
X73254975Y-35137073D01*
X73253415Y-35137492D01*
X73253413Y-35137492D01*
X73253413Y-35137493D01*
X73210760Y-35162119D01*
X73162084Y-35190222D01*
X71676326Y-36675981D01*
X71615003Y-36709466D01*
X71588645Y-36712300D01*
X66098584Y-36712300D01*
X66031545Y-36692615D01*
X65985790Y-36639811D01*
X65975846Y-36570653D01*
X66004871Y-36507097D01*
X66036585Y-36480913D01*
X66162732Y-36408082D01*
X66167516Y-36405320D01*
X66279320Y-36293516D01*
X66358377Y-36156584D01*
X66399300Y-36003857D01*
X66399300Y-35845743D01*
X66358377Y-35693016D01*
X66348374Y-35675690D01*
X66279324Y-35556090D01*
X66279318Y-35556082D01*
X66167517Y-35444281D01*
X66167509Y-35444275D01*
X66030590Y-35365226D01*
X66030586Y-35365224D01*
X66030584Y-35365223D01*
X65877857Y-35324300D01*
X65719743Y-35324300D01*
X65567016Y-35365223D01*
X65567009Y-35365226D01*
X65430090Y-35444275D01*
X65430082Y-35444281D01*
X65386383Y-35487981D01*
X65325060Y-35521466D01*
X65298702Y-35524300D01*
X64868173Y-35524300D01*
X64766310Y-35551593D01*
X64674987Y-35604320D01*
X64674984Y-35604322D01*
X64069626Y-36209681D01*
X64008303Y-36243166D01*
X63981945Y-36246000D01*
X63081100Y-36246000D01*
X63014061Y-36226315D01*
X62968306Y-36173511D01*
X62957100Y-36122000D01*
X62957100Y-35965345D01*
X62957100Y-35965343D01*
X62916177Y-35812616D01*
X62913103Y-35807292D01*
X62837124Y-35675690D01*
X62837118Y-35675682D01*
X62793419Y-35631983D01*
X62759934Y-35570660D01*
X62757100Y-35544302D01*
X62757100Y-35181433D01*
X62776785Y-35114394D01*
X62829589Y-35068639D01*
X62898747Y-35058695D01*
X62962303Y-35087720D01*
X62968781Y-35093752D01*
X62977235Y-35102206D01*
X63080009Y-35147585D01*
X63105135Y-35150500D01*
X64894864Y-35150499D01*
X64894879Y-35150497D01*
X64894882Y-35150497D01*
X64919987Y-35147586D01*
X64919988Y-35147585D01*
X64919991Y-35147585D01*
X65022765Y-35102206D01*
X65102206Y-35022765D01*
X65147585Y-34919991D01*
X65150500Y-34894865D01*
X65150500Y-34510098D01*
X65158023Y-34484475D01*
X65161950Y-34458054D01*
X65167717Y-34451460D01*
X65170185Y-34443059D01*
X65190365Y-34425572D01*
X65207954Y-34405467D01*
X65219348Y-34400458D01*
X65222989Y-34397304D01*
X65240128Y-34390957D01*
X65241244Y-34390634D01*
X65306287Y-34373207D01*
X65310915Y-34370534D01*
X65323584Y-34366880D01*
X65351860Y-34367013D01*
X65379970Y-34363991D01*
X65386334Y-34367176D01*
X65393453Y-34367210D01*
X65417168Y-34382609D01*
X65442450Y-34395264D01*
X65447207Y-34402115D01*
X65452052Y-34405262D01*
X65456983Y-34416198D01*
X65472519Y-34438574D01*
X65473786Y-34441633D01*
X65473788Y-34441636D01*
X65473789Y-34441639D01*
X65550902Y-34592981D01*
X65556006Y-34602997D01*
X65662441Y-34749494D01*
X65662445Y-34749499D01*
X65790502Y-34877556D01*
X65855975Y-34925124D01*
X65937006Y-34983996D01*
X66017198Y-35024856D01*
X66098360Y-35066211D01*
X66098363Y-35066212D01*
X66164560Y-35087720D01*
X66270591Y-35122171D01*
X66353429Y-35135291D01*
X66449449Y-35150500D01*
X66449454Y-35150500D01*
X66630551Y-35150500D01*
X66717259Y-35136765D01*
X66809409Y-35122171D01*
X66981639Y-35066211D01*
X67142994Y-34983996D01*
X67241147Y-34912684D01*
X67289498Y-34877556D01*
X67289498Y-34877554D01*
X67289501Y-34877553D01*
X67417553Y-34749501D01*
X67523996Y-34602994D01*
X67606211Y-34441639D01*
X67662171Y-34269409D01*
X67676422Y-34179425D01*
X67687527Y-34109321D01*
X67717456Y-34046186D01*
X67776768Y-34009255D01*
X67846630Y-34010253D01*
G37*
%TD.AperFunction*%
%TA.AperFunction,Conductor*%
G36*
X60331784Y-35493685D02*
G01*
X60352426Y-35510319D01*
X61292526Y-36450419D01*
X61326011Y-36511742D01*
X61321027Y-36581434D01*
X61279155Y-36637367D01*
X61213691Y-36661784D01*
X61204845Y-36662100D01*
X59765755Y-36662100D01*
X59698716Y-36642415D01*
X59678074Y-36625781D01*
X58937974Y-35885681D01*
X58904489Y-35824358D01*
X58909473Y-35754666D01*
X58951345Y-35698733D01*
X59016809Y-35674316D01*
X59025655Y-35674000D01*
X59156455Y-35674000D01*
X59156457Y-35674000D01*
X59309184Y-35633077D01*
X59446116Y-35554020D01*
X59489817Y-35510319D01*
X59551140Y-35476834D01*
X59577498Y-35474000D01*
X60264745Y-35474000D01*
X60331784Y-35493685D01*
G37*
%TD.AperFunction*%
%TA.AperFunction,Conductor*%
G36*
X94806659Y-22211761D02*
G01*
X94834427Y-22215081D01*
X94842126Y-22220292D01*
X94847405Y-22221562D01*
X94853666Y-22228102D01*
X94873296Y-22241389D01*
X97224287Y-24592380D01*
X97315612Y-24645107D01*
X97417473Y-24672400D01*
X97522927Y-24672400D01*
X102307802Y-24672400D01*
X102374841Y-24692085D01*
X102420596Y-24744889D01*
X102430540Y-24814047D01*
X102402893Y-24874584D01*
X102403226Y-24874839D01*
X102402117Y-24876283D01*
X102401515Y-24877603D01*
X102399183Y-24880106D01*
X102398275Y-24881290D01*
X102319226Y-25018209D01*
X102319223Y-25018216D01*
X102278300Y-25170943D01*
X102278300Y-25329057D01*
X102300880Y-25413324D01*
X102319223Y-25481783D01*
X102319226Y-25481790D01*
X102398275Y-25618709D01*
X102398279Y-25618714D01*
X102398280Y-25618716D01*
X102510084Y-25730520D01*
X102622967Y-25795692D01*
X102671181Y-25846257D01*
X102684405Y-25914864D01*
X102658437Y-25979729D01*
X102648647Y-25990759D01*
X101952526Y-26686881D01*
X101891203Y-26720366D01*
X101864845Y-26723200D01*
X89870198Y-26723200D01*
X89803159Y-26703515D01*
X89782517Y-26686881D01*
X89738817Y-26643181D01*
X89738809Y-26643175D01*
X89601890Y-26564126D01*
X89601886Y-26564124D01*
X89601884Y-26564123D01*
X89449157Y-26523200D01*
X89291043Y-26523200D01*
X89138316Y-26564123D01*
X89138309Y-26564126D01*
X89001390Y-26643175D01*
X89001382Y-26643181D01*
X88889581Y-26754982D01*
X88889575Y-26754990D01*
X88810526Y-26891909D01*
X88810523Y-26891916D01*
X88769600Y-27044643D01*
X88768539Y-27052703D01*
X88767113Y-27052515D01*
X88749915Y-27111088D01*
X88697111Y-27156843D01*
X88677696Y-27163823D01*
X88606416Y-27182923D01*
X88606415Y-27182923D01*
X88606413Y-27182924D01*
X88606409Y-27182926D01*
X88469490Y-27261975D01*
X88469482Y-27261981D01*
X88357681Y-27373782D01*
X88357675Y-27373790D01*
X88278626Y-27510709D01*
X88278623Y-27510716D01*
X88237700Y-27663443D01*
X88237700Y-27821557D01*
X88268086Y-27934957D01*
X88278623Y-27974283D01*
X88278626Y-27974290D01*
X88357675Y-28111209D01*
X88357679Y-28111214D01*
X88357680Y-28111216D01*
X88469484Y-28223020D01*
X88469486Y-28223021D01*
X88469490Y-28223024D01*
X88525421Y-28255315D01*
X88606416Y-28302077D01*
X88759143Y-28343000D01*
X88759145Y-28343000D01*
X88917255Y-28343000D01*
X88917257Y-28343000D01*
X89069984Y-28302077D01*
X89206916Y-28223020D01*
X89250617Y-28179319D01*
X89311940Y-28145834D01*
X89338298Y-28143000D01*
X99364066Y-28143000D01*
X99431105Y-28162685D01*
X99476860Y-28215489D01*
X99486804Y-28284647D01*
X99483841Y-28299094D01*
X99482924Y-28302512D01*
X99482923Y-28302516D01*
X99442000Y-28455243D01*
X99442000Y-28455245D01*
X99442000Y-28611500D01*
X99422315Y-28678539D01*
X99369511Y-28724294D01*
X99318000Y-28735500D01*
X87936848Y-28735500D01*
X87869809Y-28715815D01*
X87824054Y-28663011D01*
X87814110Y-28593853D01*
X87817073Y-28579407D01*
X87850500Y-28454657D01*
X87850500Y-28296543D01*
X87809577Y-28143816D01*
X87777173Y-28087690D01*
X87730524Y-28006890D01*
X87730518Y-28006882D01*
X87618717Y-27895081D01*
X87618709Y-27895075D01*
X87481790Y-27816026D01*
X87481786Y-27816024D01*
X87481784Y-27816023D01*
X87329057Y-27775100D01*
X87329056Y-27775100D01*
X87267255Y-27775100D01*
X87200216Y-27755415D01*
X87179574Y-27738781D01*
X86342215Y-26901422D01*
X86342213Y-26901420D01*
X86296550Y-26875056D01*
X86250889Y-26848693D01*
X86185150Y-26831079D01*
X86149027Y-26821400D01*
X80867973Y-26821400D01*
X80766113Y-26848693D01*
X80766110Y-26848694D01*
X80674785Y-26901421D01*
X75794922Y-31781284D01*
X75794920Y-31781287D01*
X75771313Y-31822176D01*
X75742193Y-31872612D01*
X75727786Y-31926380D01*
X75720330Y-31954208D01*
X75714900Y-31974472D01*
X75714900Y-33459844D01*
X75706255Y-33489284D01*
X75699732Y-33519271D01*
X75695977Y-33524286D01*
X75695215Y-33526883D01*
X75678581Y-33547526D01*
X75556536Y-33669570D01*
X75495213Y-33703054D01*
X75425521Y-33698070D01*
X75369588Y-33656198D01*
X75350924Y-33620206D01*
X75318418Y-33520164D01*
X75229095Y-33344856D01*
X75173922Y-33268919D01*
X75173922Y-33268918D01*
X74628019Y-33814822D01*
X74625925Y-33807007D01*
X74560099Y-33692993D01*
X74467007Y-33599901D01*
X74352993Y-33534075D01*
X74345176Y-33531980D01*
X74891080Y-32986077D01*
X74891079Y-32986076D01*
X74815143Y-32930904D01*
X74639837Y-32841581D01*
X74478730Y-32789234D01*
X74421055Y-32749796D01*
X74393857Y-32685437D01*
X74405772Y-32616591D01*
X74429362Y-32583629D01*
X80979873Y-26033119D01*
X81041196Y-25999634D01*
X81067554Y-25996800D01*
X90959025Y-25996800D01*
X90959027Y-25996800D01*
X91060888Y-25969507D01*
X91152213Y-25916780D01*
X94588380Y-22480613D01*
X94603975Y-22453601D01*
X94641107Y-22389287D01*
X94667722Y-22289954D01*
X94670408Y-22283209D01*
X94687649Y-22261196D01*
X94702204Y-22237317D01*
X94708900Y-22234063D01*
X94713491Y-22228203D01*
X94739899Y-22219005D01*
X94765051Y-22206787D01*
X94772442Y-22207670D01*
X94779473Y-22205222D01*
X94806659Y-22211761D01*
G37*
%TD.AperFunction*%
%TA.AperFunction,Conductor*%
G36*
X137003736Y-500726D02*
G01*
X137293797Y-518271D01*
X137308660Y-520076D01*
X137590798Y-571780D01*
X137605335Y-575363D01*
X137879172Y-660695D01*
X137893163Y-666000D01*
X138154743Y-783727D01*
X138167989Y-790680D01*
X138413465Y-939075D01*
X138425776Y-947573D01*
X138651573Y-1124473D01*
X138662781Y-1134403D01*
X138865596Y-1337218D01*
X138875525Y-1348425D01*
X138995481Y-1501538D01*
X139052422Y-1574217D01*
X139060928Y-1586540D01*
X139209316Y-1832004D01*
X139216275Y-1845263D01*
X139333997Y-2106831D01*
X139339306Y-2120832D01*
X139424635Y-2394663D01*
X139428219Y-2409201D01*
X139479923Y-2691339D01*
X139481728Y-2706204D01*
X139499274Y-2996263D01*
X139499500Y-3003750D01*
X139499500Y-66996249D01*
X139499274Y-67003736D01*
X139481728Y-67293794D01*
X139479923Y-67308659D01*
X139428219Y-67590797D01*
X139424635Y-67605335D01*
X139339304Y-67879174D01*
X139333994Y-67893176D01*
X139216277Y-68154730D01*
X139209319Y-68167987D01*
X139060928Y-68413458D01*
X139052422Y-68425782D01*
X138875525Y-68651573D01*
X138865595Y-68662781D01*
X138662781Y-68865595D01*
X138651573Y-68875525D01*
X138425782Y-69052422D01*
X138413458Y-69060928D01*
X138167987Y-69209319D01*
X138154730Y-69216277D01*
X137893176Y-69333994D01*
X137879174Y-69339304D01*
X137605335Y-69424635D01*
X137590797Y-69428219D01*
X137308659Y-69479923D01*
X137293794Y-69481728D01*
X137003736Y-69499274D01*
X136996249Y-69499500D01*
X3003751Y-69499500D01*
X2996264Y-69499274D01*
X2706204Y-69481728D01*
X2691339Y-69479923D01*
X2409201Y-69428219D01*
X2394663Y-69424635D01*
X2120832Y-69339306D01*
X2106831Y-69333997D01*
X1845263Y-69216275D01*
X1832004Y-69209316D01*
X1586537Y-69060926D01*
X1574217Y-69052422D01*
X1348426Y-68875526D01*
X1337218Y-68865596D01*
X1134403Y-68662781D01*
X1124473Y-68651573D01*
X947573Y-68425776D01*
X939075Y-68413465D01*
X790679Y-68167987D01*
X783727Y-68154743D01*
X666000Y-67893163D01*
X660693Y-67879167D01*
X575364Y-67605336D01*
X571780Y-67590798D01*
X520076Y-67308660D01*
X518271Y-67293795D01*
X500726Y-67003736D01*
X500500Y-66996249D01*
X500500Y-64878711D01*
X3149500Y-64878711D01*
X3149500Y-65121288D01*
X3181161Y-65361785D01*
X3243947Y-65596104D01*
X3314689Y-65766890D01*
X3336776Y-65820212D01*
X3458064Y-66030289D01*
X3458066Y-66030292D01*
X3458067Y-66030293D01*
X3605733Y-66222736D01*
X3605739Y-66222743D01*
X3777256Y-66394260D01*
X3777263Y-66394266D01*
X3804003Y-66414784D01*
X3969711Y-66541936D01*
X4179788Y-66663224D01*
X4403900Y-66756054D01*
X4638211Y-66818838D01*
X4805085Y-66840807D01*
X4878711Y-66850500D01*
X4878712Y-66850500D01*
X5121289Y-66850500D01*
X5176692Y-66843206D01*
X5361789Y-66818838D01*
X5596100Y-66756054D01*
X5820212Y-66663224D01*
X6030289Y-66541936D01*
X6222738Y-66394265D01*
X6394265Y-66222738D01*
X6541936Y-66030289D01*
X6663224Y-65820212D01*
X6756054Y-65596100D01*
X6818838Y-65361789D01*
X6850500Y-65121288D01*
X6850500Y-64878712D01*
X6818838Y-64638211D01*
X6756054Y-64403900D01*
X6755711Y-64403073D01*
X6733263Y-64348877D01*
X6663224Y-64179788D01*
X6541936Y-63969711D01*
X6413462Y-63802280D01*
X6394266Y-63777263D01*
X6394260Y-63777256D01*
X6222743Y-63605739D01*
X6222736Y-63605733D01*
X6030293Y-63458067D01*
X6030292Y-63458066D01*
X6030289Y-63458064D01*
X5820212Y-63336776D01*
X5820205Y-63336773D01*
X5596104Y-63243947D01*
X5361785Y-63181161D01*
X5121289Y-63149500D01*
X5121288Y-63149500D01*
X4878712Y-63149500D01*
X4878711Y-63149500D01*
X4638214Y-63181161D01*
X4403895Y-63243947D01*
X4179794Y-63336773D01*
X4179785Y-63336777D01*
X3969706Y-63458067D01*
X3777263Y-63605733D01*
X3777256Y-63605739D01*
X3605739Y-63777256D01*
X3605733Y-63777263D01*
X3458067Y-63969706D01*
X3336777Y-64179785D01*
X3336773Y-64179794D01*
X3243947Y-64403895D01*
X3181161Y-64638214D01*
X3149500Y-64878711D01*
X500500Y-64878711D01*
X500500Y-35794874D01*
X7762900Y-35794874D01*
X7762900Y-50264926D01*
X7790193Y-50366789D01*
X7802434Y-50387990D01*
X7842920Y-50458113D01*
X7842922Y-50458115D01*
X8939881Y-51555074D01*
X8973366Y-51616397D01*
X8976200Y-51642755D01*
X8976200Y-51704557D01*
X9013873Y-51845152D01*
X9017123Y-51857283D01*
X9017126Y-51857290D01*
X9096175Y-51994209D01*
X9096179Y-51994214D01*
X9096180Y-51994216D01*
X9207984Y-52106020D01*
X9207986Y-52106021D01*
X9207990Y-52106024D01*
X9306966Y-52163167D01*
X9344916Y-52185077D01*
X9497643Y-52226000D01*
X9497645Y-52226000D01*
X9655755Y-52226000D01*
X9655757Y-52226000D01*
X9808484Y-52185077D01*
X9817898Y-52179641D01*
X9885796Y-52163167D01*
X9951824Y-52186017D01*
X9995016Y-52240937D01*
X10003900Y-52287027D01*
X10003900Y-61607626D01*
X10031193Y-61709489D01*
X10057556Y-61755150D01*
X10083920Y-61800813D01*
X15071187Y-66788080D01*
X15162512Y-66840807D01*
X15264373Y-66868100D01*
X15264375Y-66868100D01*
X21885125Y-66868100D01*
X21885127Y-66868100D01*
X21986988Y-66840807D01*
X22078313Y-66788080D01*
X22533068Y-66333323D01*
X22594389Y-66299840D01*
X22664080Y-66304824D01*
X22677042Y-66310521D01*
X22743196Y-66344229D01*
X22743198Y-66344229D01*
X22743201Y-66344231D01*
X22859592Y-66382049D01*
X22960339Y-66414784D01*
X23185838Y-66450500D01*
X23185843Y-66450500D01*
X23414162Y-66450500D01*
X23639660Y-66414784D01*
X23856799Y-66344231D01*
X24060228Y-66240579D01*
X24244937Y-66106379D01*
X24406379Y-65944937D01*
X24540579Y-65760228D01*
X24644231Y-65556799D01*
X24714784Y-65339660D01*
X24732476Y-65227958D01*
X24750500Y-65114162D01*
X24750500Y-64885837D01*
X24714784Y-64660339D01*
X24644229Y-64443196D01*
X24569621Y-64296771D01*
X24540579Y-64239772D01*
X24406379Y-64055063D01*
X24244937Y-63893621D01*
X24060228Y-63759421D01*
X24003228Y-63730378D01*
X23856803Y-63655770D01*
X23639660Y-63585215D01*
X23414162Y-63549500D01*
X23414157Y-63549500D01*
X23185843Y-63549500D01*
X23185838Y-63549500D01*
X22960339Y-63585215D01*
X22743196Y-63655770D01*
X22539771Y-63759421D01*
X22355061Y-63893622D01*
X22193622Y-64055061D01*
X22059421Y-64239771D01*
X21955770Y-64443196D01*
X21885215Y-64660339D01*
X21849500Y-64885837D01*
X21849500Y-65114162D01*
X21885215Y-65339660D01*
X21955771Y-65556806D01*
X21989477Y-65622957D01*
X22002373Y-65691626D01*
X21976096Y-65756366D01*
X21966674Y-65766932D01*
X21702824Y-66030782D01*
X21641504Y-66064266D01*
X21615145Y-66067100D01*
X21060986Y-66067100D01*
X20993947Y-66047415D01*
X20948192Y-65994611D01*
X20938248Y-65925453D01*
X20960669Y-65870214D01*
X21040576Y-65760232D01*
X21040575Y-65760232D01*
X21040579Y-65760228D01*
X21144231Y-65556799D01*
X21214784Y-65339660D01*
X21232476Y-65227958D01*
X21250500Y-65114162D01*
X21250500Y-64885837D01*
X21214784Y-64660339D01*
X21144229Y-64443196D01*
X21069621Y-64296771D01*
X21040579Y-64239772D01*
X20906379Y-64055063D01*
X20744937Y-63893621D01*
X20560228Y-63759421D01*
X20503228Y-63730378D01*
X20356803Y-63655770D01*
X20139660Y-63585215D01*
X19914162Y-63549500D01*
X19914157Y-63549500D01*
X19685843Y-63549500D01*
X19685838Y-63549500D01*
X19460339Y-63585215D01*
X19313818Y-63632824D01*
X19243201Y-63655769D01*
X19243198Y-63655770D01*
X19243196Y-63655771D01*
X19177040Y-63689478D01*
X19108370Y-63702373D01*
X19043631Y-63676095D01*
X19033066Y-63666673D01*
X15923319Y-60556926D01*
X15889834Y-60495603D01*
X15887000Y-60469245D01*
X15887000Y-54195555D01*
X15906685Y-54128516D01*
X15959489Y-54082761D01*
X16028647Y-54072817D01*
X16092203Y-54101842D01*
X16098681Y-54107874D01*
X18578981Y-56588174D01*
X18612466Y-56649497D01*
X18615300Y-56675855D01*
X18615300Y-56737657D01*
X18652553Y-56876685D01*
X18656223Y-56890383D01*
X18656226Y-56890390D01*
X18735275Y-57027309D01*
X18735281Y-57027317D01*
X18778981Y-57071017D01*
X18812466Y-57132340D01*
X18815300Y-57158698D01*
X18815300Y-57363073D01*
X18815300Y-57468527D01*
X18820384Y-57487500D01*
X18842593Y-57570389D01*
X18849883Y-57583015D01*
X18895320Y-57661713D01*
X18895322Y-57661715D01*
X25466673Y-64233066D01*
X25500158Y-64294389D01*
X25495174Y-64364081D01*
X25489478Y-64377040D01*
X25455771Y-64443196D01*
X25385215Y-64660339D01*
X25349500Y-64885837D01*
X25349500Y-65114162D01*
X25385215Y-65339660D01*
X25455770Y-65556803D01*
X25525621Y-65693892D01*
X25559421Y-65760228D01*
X25693621Y-65944937D01*
X25855063Y-66106379D01*
X26039772Y-66240579D01*
X26135884Y-66289550D01*
X26243196Y-66344229D01*
X26243198Y-66344229D01*
X26243201Y-66344231D01*
X26359592Y-66382049D01*
X26460339Y-66414784D01*
X26685838Y-66450500D01*
X26685843Y-66450500D01*
X26914162Y-66450500D01*
X27139660Y-66414784D01*
X27356799Y-66344231D01*
X27560228Y-66240579D01*
X27744937Y-66106379D01*
X27906379Y-65944937D01*
X28040579Y-65760228D01*
X28144231Y-65556799D01*
X28214784Y-65339660D01*
X28232476Y-65227958D01*
X28250500Y-65114162D01*
X28250500Y-64885837D01*
X28214784Y-64660339D01*
X28144229Y-64443196D01*
X28069621Y-64296771D01*
X28040579Y-64239772D01*
X27906379Y-64055063D01*
X27744937Y-63893621D01*
X27560228Y-63759421D01*
X27503228Y-63730378D01*
X27356803Y-63655770D01*
X27139660Y-63585215D01*
X26914162Y-63549500D01*
X26914157Y-63549500D01*
X26685843Y-63549500D01*
X26685838Y-63549500D01*
X26460339Y-63585215D01*
X26313818Y-63632824D01*
X26243201Y-63655769D01*
X26243198Y-63655770D01*
X26243196Y-63655771D01*
X26177040Y-63689478D01*
X26108370Y-63702373D01*
X26043631Y-63676095D01*
X26033066Y-63666673D01*
X19652619Y-57286226D01*
X19637915Y-57259298D01*
X19621323Y-57233480D01*
X19620431Y-57227279D01*
X19619134Y-57224903D01*
X19616300Y-57198545D01*
X19616300Y-57158698D01*
X19635985Y-57091659D01*
X19652619Y-57071017D01*
X19668673Y-57054963D01*
X19696320Y-57027316D01*
X19775377Y-56890384D01*
X19816300Y-56737657D01*
X19816300Y-56579543D01*
X19775377Y-56426816D01*
X19755976Y-56393212D01*
X19696324Y-56289890D01*
X19696318Y-56289882D01*
X19584517Y-56178081D01*
X19584509Y-56178075D01*
X19447590Y-56099026D01*
X19447586Y-56099024D01*
X19447584Y-56099023D01*
X19294857Y-56058100D01*
X19294856Y-56058100D01*
X19233055Y-56058100D01*
X19166016Y-56038415D01*
X19145374Y-56021781D01*
X16325019Y-53201426D01*
X16291534Y-53140103D01*
X16288700Y-53113745D01*
X16288700Y-51854455D01*
X16308385Y-51787416D01*
X16361189Y-51741661D01*
X16430347Y-51731717D01*
X16493903Y-51760742D01*
X16500381Y-51766774D01*
X28966673Y-64233066D01*
X29000158Y-64294389D01*
X28995174Y-64364081D01*
X28989478Y-64377040D01*
X28955771Y-64443196D01*
X28885215Y-64660339D01*
X28849500Y-64885837D01*
X28849500Y-65114162D01*
X28885215Y-65339660D01*
X28955770Y-65556803D01*
X29025621Y-65693892D01*
X29059421Y-65760228D01*
X29193621Y-65944937D01*
X29355063Y-66106379D01*
X29539772Y-66240579D01*
X29635884Y-66289550D01*
X29743196Y-66344229D01*
X29743198Y-66344229D01*
X29743201Y-66344231D01*
X29859592Y-66382049D01*
X29960339Y-66414784D01*
X30185838Y-66450500D01*
X30185843Y-66450500D01*
X30414162Y-66450500D01*
X30639660Y-66414784D01*
X30856799Y-66344231D01*
X31060228Y-66240579D01*
X31244937Y-66106379D01*
X31406379Y-65944937D01*
X31540579Y-65760228D01*
X31644231Y-65556799D01*
X31714784Y-65339660D01*
X31732476Y-65227958D01*
X31750500Y-65114162D01*
X31750500Y-64885837D01*
X31714784Y-64660339D01*
X31644229Y-64443196D01*
X31569621Y-64296771D01*
X31540579Y-64239772D01*
X31406379Y-64055063D01*
X31244937Y-63893621D01*
X31060228Y-63759421D01*
X31003228Y-63730378D01*
X30856803Y-63655770D01*
X30639660Y-63585215D01*
X30414162Y-63549500D01*
X30414157Y-63549500D01*
X30185843Y-63549500D01*
X30185838Y-63549500D01*
X29960339Y-63585215D01*
X29813818Y-63632824D01*
X29743201Y-63655769D01*
X29743198Y-63655770D01*
X29743196Y-63655771D01*
X29677040Y-63689478D01*
X29608370Y-63702373D01*
X29543631Y-63676095D01*
X29533066Y-63666673D01*
X16726719Y-50860326D01*
X16693234Y-50799003D01*
X16690400Y-50772645D01*
X16690400Y-48756155D01*
X16710085Y-48689116D01*
X16762889Y-48643361D01*
X16832047Y-48633417D01*
X16895603Y-48662442D01*
X16902081Y-48668474D01*
X32466673Y-64233066D01*
X32500158Y-64294389D01*
X32495174Y-64364081D01*
X32489478Y-64377040D01*
X32455771Y-64443196D01*
X32385215Y-64660339D01*
X32349500Y-64885837D01*
X32349500Y-65114162D01*
X32385215Y-65339660D01*
X32455770Y-65556803D01*
X32525621Y-65693892D01*
X32559421Y-65760228D01*
X32693621Y-65944937D01*
X32855063Y-66106379D01*
X33039772Y-66240579D01*
X33135884Y-66289550D01*
X33243196Y-66344229D01*
X33243198Y-66344229D01*
X33243201Y-66344231D01*
X33359592Y-66382049D01*
X33460339Y-66414784D01*
X33685838Y-66450500D01*
X33685843Y-66450500D01*
X33914162Y-66450500D01*
X34139660Y-66414784D01*
X34356799Y-66344231D01*
X34560228Y-66240579D01*
X34744937Y-66106379D01*
X34906379Y-65944937D01*
X35040579Y-65760228D01*
X35144231Y-65556799D01*
X35214784Y-65339660D01*
X35232476Y-65227958D01*
X35250500Y-65114162D01*
X35250500Y-64885837D01*
X35214784Y-64660339D01*
X35144229Y-64443196D01*
X35069621Y-64296771D01*
X35040579Y-64239772D01*
X34997444Y-64180403D01*
X34973965Y-64114598D01*
X34989790Y-64046544D01*
X35039896Y-63997849D01*
X35108374Y-63983973D01*
X35173483Y-64009322D01*
X35185444Y-64019837D01*
X35832436Y-64666829D01*
X35865921Y-64728152D01*
X35867228Y-64773908D01*
X35849500Y-64885837D01*
X35849500Y-65114162D01*
X35885215Y-65339660D01*
X35955770Y-65556803D01*
X36025621Y-65693892D01*
X36059421Y-65760228D01*
X36193621Y-65944937D01*
X36355063Y-66106379D01*
X36539772Y-66240579D01*
X36635884Y-66289550D01*
X36743196Y-66344229D01*
X36743198Y-66344229D01*
X36743201Y-66344231D01*
X36859592Y-66382049D01*
X36960339Y-66414784D01*
X37185838Y-66450500D01*
X37185843Y-66450500D01*
X37414162Y-66450500D01*
X37639660Y-66414784D01*
X37856799Y-66344231D01*
X38060228Y-66240579D01*
X38244937Y-66106379D01*
X38406379Y-65944937D01*
X38540579Y-65760228D01*
X38644231Y-65556799D01*
X38714784Y-65339660D01*
X38732476Y-65227958D01*
X38750500Y-65114162D01*
X38750500Y-64885837D01*
X38714784Y-64660339D01*
X38644229Y-64443196D01*
X38569621Y-64296771D01*
X38540579Y-64239772D01*
X38406379Y-64055063D01*
X38244937Y-63893621D01*
X38060228Y-63759421D01*
X38003228Y-63730378D01*
X37856803Y-63655770D01*
X37639660Y-63585215D01*
X37414162Y-63549500D01*
X37414157Y-63549500D01*
X37185843Y-63549500D01*
X37185838Y-63549500D01*
X36960339Y-63585215D01*
X36743196Y-63655770D01*
X36539771Y-63759421D01*
X36355048Y-63893631D01*
X36354264Y-63894302D01*
X36353905Y-63894462D01*
X36351122Y-63896485D01*
X36350696Y-63895899D01*
X36290497Y-63922860D01*
X36221413Y-63912409D01*
X36186070Y-63887677D01*
X23519574Y-51221181D01*
X23486089Y-51159858D01*
X23491073Y-51090166D01*
X23532945Y-51034233D01*
X23598409Y-51009816D01*
X23607255Y-51009500D01*
X43997225Y-51009500D01*
X43997227Y-51009500D01*
X44099088Y-50982207D01*
X44190413Y-50929480D01*
X56724301Y-38395590D01*
X56785622Y-38362107D01*
X56855314Y-38367091D01*
X56907889Y-38404676D01*
X56914304Y-38412504D01*
X56934980Y-38448316D01*
X56983022Y-38496358D01*
X56986909Y-38501101D01*
X56998245Y-38527847D01*
X57012166Y-38553340D01*
X57013224Y-38563185D01*
X57014176Y-38565430D01*
X57013739Y-38567970D01*
X57015000Y-38579698D01*
X57015000Y-49970945D01*
X56995315Y-50037984D01*
X56978681Y-50058626D01*
X51957926Y-55079381D01*
X51896603Y-55112866D01*
X51870245Y-55115700D01*
X51808443Y-55115700D01*
X51655716Y-55156623D01*
X51655709Y-55156626D01*
X51518790Y-55235675D01*
X51518782Y-55235681D01*
X51406981Y-55347482D01*
X51406975Y-55347490D01*
X51327926Y-55484409D01*
X51327923Y-55484416D01*
X51287000Y-55637143D01*
X51287000Y-55795257D01*
X51314242Y-55896923D01*
X51327923Y-55947983D01*
X51327926Y-55947990D01*
X51406975Y-56084909D01*
X51406979Y-56084914D01*
X51406980Y-56084916D01*
X51518784Y-56196720D01*
X51518786Y-56196721D01*
X51518790Y-56196724D01*
X51607812Y-56248120D01*
X51655716Y-56275777D01*
X51808443Y-56316700D01*
X51870245Y-56316700D01*
X51937284Y-56336385D01*
X51957926Y-56353019D01*
X59173578Y-63568670D01*
X59207063Y-63629993D01*
X59202079Y-63699685D01*
X59163584Y-63752998D01*
X59102280Y-63802277D01*
X59102276Y-63802280D01*
X58982969Y-63950704D01*
X58982967Y-63950707D01*
X58898360Y-64121302D01*
X58852400Y-64306107D01*
X58849500Y-64348879D01*
X58849500Y-65651122D01*
X58849501Y-65651125D01*
X58852399Y-65693886D01*
X58852399Y-65693887D01*
X58870565Y-65766932D01*
X58898359Y-65878693D01*
X58898359Y-65878694D01*
X58898360Y-65878696D01*
X58982967Y-66049292D01*
X58982969Y-66049295D01*
X59102277Y-66197721D01*
X59102278Y-66197722D01*
X59250704Y-66317030D01*
X59250707Y-66317032D01*
X59421302Y-66401639D01*
X59421303Y-66401639D01*
X59421307Y-66401641D01*
X59606111Y-66447600D01*
X59648877Y-66450500D01*
X60951122Y-66450499D01*
X60993889Y-66447600D01*
X61178693Y-66401641D01*
X61349296Y-66317030D01*
X61497722Y-66197722D01*
X61617030Y-66049296D01*
X61701641Y-65878693D01*
X61715082Y-65824643D01*
X61750362Y-65764339D01*
X61812648Y-65732679D01*
X61882162Y-65739720D01*
X61923097Y-65766890D01*
X62946687Y-66790480D01*
X63038012Y-66843207D01*
X63139873Y-66870500D01*
X63139875Y-66870500D01*
X65882725Y-66870500D01*
X65882727Y-66870500D01*
X65984588Y-66843207D01*
X66075913Y-66790480D01*
X66533068Y-66333323D01*
X66594389Y-66299840D01*
X66664080Y-66304824D01*
X66677042Y-66310521D01*
X66743196Y-66344229D01*
X66743198Y-66344229D01*
X66743201Y-66344231D01*
X66859592Y-66382049D01*
X66960339Y-66414784D01*
X67185838Y-66450500D01*
X67185843Y-66450500D01*
X67414162Y-66450500D01*
X67639660Y-66414784D01*
X67856799Y-66344231D01*
X68060228Y-66240579D01*
X68244937Y-66106379D01*
X68406379Y-65944937D01*
X68540579Y-65760228D01*
X68644231Y-65556799D01*
X68714784Y-65339660D01*
X68732476Y-65227958D01*
X68750500Y-65114162D01*
X68750500Y-64885837D01*
X68714784Y-64660339D01*
X68644229Y-64443196D01*
X68569621Y-64296771D01*
X68540579Y-64239772D01*
X68406379Y-64055063D01*
X68244937Y-63893621D01*
X68060228Y-63759421D01*
X68003228Y-63730378D01*
X67856803Y-63655770D01*
X67639660Y-63585215D01*
X67414162Y-63549500D01*
X67414157Y-63549500D01*
X67185843Y-63549500D01*
X67185838Y-63549500D01*
X66960339Y-63585215D01*
X66743196Y-63655770D01*
X66539771Y-63759421D01*
X66355061Y-63893622D01*
X66193622Y-64055061D01*
X66059421Y-64239771D01*
X65955770Y-64443196D01*
X65885215Y-64660339D01*
X65849500Y-64885837D01*
X65849500Y-65114162D01*
X65885215Y-65339660D01*
X65955771Y-65556806D01*
X65989477Y-65622957D01*
X66002373Y-65691626D01*
X65976096Y-65756366D01*
X65966674Y-65766932D01*
X65700424Y-66033182D01*
X65639104Y-66066666D01*
X65612745Y-66069500D01*
X65059243Y-66069500D01*
X64992204Y-66049815D01*
X64946449Y-65997011D01*
X64936505Y-65927853D01*
X64958925Y-65872614D01*
X64996996Y-65820214D01*
X65040579Y-65760228D01*
X65144231Y-65556799D01*
X65214784Y-65339660D01*
X65232476Y-65227958D01*
X65250500Y-65114162D01*
X65250500Y-64885837D01*
X65214784Y-64660339D01*
X65144229Y-64443196D01*
X65069621Y-64296771D01*
X65040579Y-64239772D01*
X64906379Y-64055063D01*
X64744937Y-63893621D01*
X64560228Y-63759421D01*
X64503228Y-63730378D01*
X64356803Y-63655770D01*
X64139660Y-63585215D01*
X63914162Y-63549500D01*
X63914157Y-63549500D01*
X63685843Y-63549500D01*
X63685838Y-63549500D01*
X63460338Y-63585216D01*
X63460335Y-63585216D01*
X63243204Y-63655767D01*
X63243202Y-63655767D01*
X63177041Y-63689478D01*
X63108371Y-63702374D01*
X63043631Y-63676097D01*
X63033066Y-63666674D01*
X59237319Y-59870926D01*
X59203834Y-59809603D01*
X59201000Y-59783245D01*
X59201000Y-55880498D01*
X59220685Y-55813459D01*
X59237319Y-55792817D01*
X59258720Y-55771416D01*
X59281020Y-55749116D01*
X59360077Y-55612184D01*
X59401000Y-55459457D01*
X59401000Y-55301343D01*
X59360077Y-55148616D01*
X59320105Y-55079381D01*
X59281024Y-55011690D01*
X59281018Y-55011682D01*
X59208119Y-54938783D01*
X59174634Y-54877460D01*
X59171800Y-54851102D01*
X59171800Y-43626298D01*
X59178326Y-43604072D01*
X59180371Y-43580997D01*
X59188948Y-43567895D01*
X59191485Y-43559259D01*
X59197810Y-43550312D01*
X59202596Y-43544139D01*
X59251820Y-43494916D01*
X59284034Y-43439117D01*
X59289210Y-43432444D01*
X59310959Y-43416731D01*
X59330379Y-43398215D01*
X59338851Y-43396581D01*
X59345846Y-43391529D01*
X59372636Y-43390069D01*
X59398986Y-43384991D01*
X59406997Y-43388198D01*
X59415613Y-43387729D01*
X59438941Y-43400986D01*
X59463851Y-43410959D01*
X59468856Y-43417987D01*
X59476358Y-43422251D01*
X59488813Y-43446012D01*
X59504380Y-43467872D01*
X59506320Y-43479411D01*
X59508796Y-43484134D01*
X59508215Y-43490682D01*
X59511200Y-43508430D01*
X59511200Y-50664426D01*
X59538493Y-50766289D01*
X59542163Y-50772645D01*
X59591220Y-50857613D01*
X59591222Y-50857615D01*
X67461856Y-58728249D01*
X67495341Y-58789572D01*
X67490357Y-58859264D01*
X67449671Y-58914298D01*
X67444488Y-58918275D01*
X67332681Y-59030082D01*
X67332675Y-59030090D01*
X67253626Y-59167009D01*
X67253623Y-59167016D01*
X67212700Y-59319743D01*
X67212700Y-59477857D01*
X67241920Y-59586905D01*
X67253623Y-59630583D01*
X67253626Y-59630590D01*
X67332675Y-59767509D01*
X67332679Y-59767514D01*
X67332680Y-59767516D01*
X67444484Y-59879320D01*
X67444486Y-59879321D01*
X67444490Y-59879324D01*
X67492900Y-59907273D01*
X67581416Y-59958377D01*
X67734143Y-59999300D01*
X67795945Y-59999300D01*
X67862984Y-60018985D01*
X67883626Y-60035619D01*
X70363181Y-62515174D01*
X70396666Y-62576497D01*
X70399500Y-62602855D01*
X70399500Y-63514893D01*
X70379815Y-63581932D01*
X70327011Y-63627687D01*
X70313824Y-63632821D01*
X70288495Y-63641051D01*
X70243196Y-63655770D01*
X70039771Y-63759421D01*
X69855061Y-63893622D01*
X69693622Y-64055061D01*
X69559421Y-64239771D01*
X69455770Y-64443196D01*
X69385215Y-64660339D01*
X69349500Y-64885837D01*
X69349500Y-65114162D01*
X69385215Y-65339660D01*
X69455770Y-65556803D01*
X69525621Y-65693892D01*
X69559421Y-65760228D01*
X69693621Y-65944937D01*
X69855063Y-66106379D01*
X70039772Y-66240579D01*
X70135884Y-66289550D01*
X70243196Y-66344229D01*
X70243198Y-66344229D01*
X70243201Y-66344231D01*
X70359592Y-66382049D01*
X70460339Y-66414784D01*
X70685838Y-66450500D01*
X70685843Y-66450500D01*
X70914162Y-66450500D01*
X71139660Y-66414784D01*
X71356799Y-66344231D01*
X71560228Y-66240579D01*
X71744937Y-66106379D01*
X71906379Y-65944937D01*
X72040579Y-65760228D01*
X72144231Y-65556799D01*
X72214784Y-65339660D01*
X72232476Y-65227958D01*
X72250500Y-65114162D01*
X72250500Y-64885837D01*
X72214784Y-64660339D01*
X72144229Y-64443196D01*
X72069621Y-64296771D01*
X72040579Y-64239772D01*
X71906379Y-64055063D01*
X71744937Y-63893621D01*
X71560228Y-63759421D01*
X71503228Y-63730378D01*
X71356803Y-63655770D01*
X71324184Y-63645171D01*
X71286180Y-63632823D01*
X71228506Y-63593386D01*
X71201308Y-63529027D01*
X71200500Y-63514893D01*
X71200500Y-62766255D01*
X71220185Y-62699216D01*
X71272989Y-62653461D01*
X71342147Y-62643517D01*
X71405703Y-62672542D01*
X71412181Y-62678574D01*
X72966673Y-64233066D01*
X73000158Y-64294389D01*
X72995174Y-64364081D01*
X72989478Y-64377040D01*
X72955771Y-64443196D01*
X72885215Y-64660339D01*
X72849500Y-64885837D01*
X72849500Y-65114162D01*
X72885215Y-65339660D01*
X72955770Y-65556803D01*
X73025621Y-65693892D01*
X73059421Y-65760228D01*
X73193621Y-65944937D01*
X73355063Y-66106379D01*
X73539772Y-66240579D01*
X73635884Y-66289550D01*
X73743196Y-66344229D01*
X73743198Y-66344229D01*
X73743201Y-66344231D01*
X73859592Y-66382049D01*
X73960339Y-66414784D01*
X74185838Y-66450500D01*
X74185843Y-66450500D01*
X74414162Y-66450500D01*
X74639660Y-66414784D01*
X74856799Y-66344231D01*
X75060228Y-66240579D01*
X75244937Y-66106379D01*
X75406379Y-65944937D01*
X75540579Y-65760228D01*
X75644231Y-65556799D01*
X75714784Y-65339660D01*
X75732476Y-65227958D01*
X75750500Y-65114162D01*
X75750500Y-64885837D01*
X75714784Y-64660339D01*
X75644229Y-64443196D01*
X75569621Y-64296771D01*
X75540579Y-64239772D01*
X75406379Y-64055063D01*
X75244937Y-63893621D01*
X75060228Y-63759421D01*
X75003228Y-63730378D01*
X74856803Y-63655770D01*
X74639660Y-63585215D01*
X74414162Y-63549500D01*
X74414157Y-63549500D01*
X74185843Y-63549500D01*
X74185838Y-63549500D01*
X73960339Y-63585215D01*
X73813818Y-63632824D01*
X73743201Y-63655769D01*
X73743198Y-63655770D01*
X73743196Y-63655771D01*
X73677040Y-63689478D01*
X73608370Y-63702373D01*
X73543631Y-63676095D01*
X73533066Y-63666673D01*
X60348519Y-50482126D01*
X60315034Y-50420803D01*
X60312200Y-50394445D01*
X60312200Y-48377955D01*
X60331885Y-48310916D01*
X60384689Y-48265161D01*
X60453847Y-48255217D01*
X60517403Y-48284242D01*
X60523881Y-48290274D01*
X76466673Y-64233066D01*
X76500158Y-64294389D01*
X76495174Y-64364081D01*
X76489478Y-64377040D01*
X76455771Y-64443196D01*
X76385215Y-64660339D01*
X76349500Y-64885837D01*
X76349500Y-65114162D01*
X76385215Y-65339660D01*
X76455770Y-65556803D01*
X76525621Y-65693892D01*
X76559421Y-65760228D01*
X76693621Y-65944937D01*
X76855063Y-66106379D01*
X77039772Y-66240579D01*
X77135884Y-66289550D01*
X77243196Y-66344229D01*
X77243198Y-66344229D01*
X77243201Y-66344231D01*
X77359592Y-66382049D01*
X77460339Y-66414784D01*
X77685838Y-66450500D01*
X77685843Y-66450500D01*
X77914162Y-66450500D01*
X78139660Y-66414784D01*
X78356799Y-66344231D01*
X78560228Y-66240579D01*
X78744937Y-66106379D01*
X78906379Y-65944937D01*
X79040579Y-65760228D01*
X79144231Y-65556799D01*
X79214784Y-65339660D01*
X79232476Y-65227958D01*
X79250500Y-65114162D01*
X79250500Y-64885837D01*
X79214784Y-64660339D01*
X79144229Y-64443196D01*
X79069621Y-64296771D01*
X79040579Y-64239772D01*
X78906379Y-64055063D01*
X78744937Y-63893621D01*
X78560228Y-63759421D01*
X78503228Y-63730378D01*
X78356803Y-63655770D01*
X78139660Y-63585215D01*
X77914162Y-63549500D01*
X77914157Y-63549500D01*
X77685843Y-63549500D01*
X77685838Y-63549500D01*
X77460339Y-63585215D01*
X77313818Y-63632824D01*
X77243201Y-63655769D01*
X77243198Y-63655770D01*
X77243196Y-63655771D01*
X77177040Y-63689478D01*
X77108370Y-63702373D01*
X77043631Y-63676095D01*
X77033066Y-63666673D01*
X60773419Y-47407026D01*
X60739934Y-47345703D01*
X60737100Y-47319345D01*
X60737100Y-45810055D01*
X60756785Y-45743016D01*
X60809589Y-45697261D01*
X60878747Y-45687317D01*
X60942303Y-45716342D01*
X60948781Y-45722374D01*
X79840748Y-64614341D01*
X79874233Y-64675664D01*
X79875540Y-64721419D01*
X79849500Y-64885836D01*
X79849500Y-65114162D01*
X79885215Y-65339660D01*
X79955770Y-65556803D01*
X80025621Y-65693892D01*
X80059421Y-65760228D01*
X80193621Y-65944937D01*
X80355063Y-66106379D01*
X80539772Y-66240579D01*
X80635884Y-66289550D01*
X80743196Y-66344229D01*
X80743198Y-66344229D01*
X80743201Y-66344231D01*
X80859592Y-66382049D01*
X80960339Y-66414784D01*
X81185838Y-66450500D01*
X81185843Y-66450500D01*
X81414162Y-66450500D01*
X81639660Y-66414784D01*
X81856799Y-66344231D01*
X82060228Y-66240579D01*
X82244937Y-66106379D01*
X82406379Y-65944937D01*
X82540579Y-65760228D01*
X82644231Y-65556799D01*
X82714784Y-65339660D01*
X82732476Y-65227958D01*
X82750500Y-65114162D01*
X82750500Y-64885837D01*
X82714784Y-64660339D01*
X82644229Y-64443196D01*
X82623785Y-64403073D01*
X82596172Y-64348879D01*
X102849500Y-64348879D01*
X102849500Y-65651122D01*
X102849501Y-65651125D01*
X102852399Y-65693886D01*
X102852399Y-65693887D01*
X102870565Y-65766932D01*
X102898359Y-65878693D01*
X102898359Y-65878694D01*
X102898360Y-65878696D01*
X102982967Y-66049292D01*
X102982969Y-66049295D01*
X103102277Y-66197721D01*
X103102278Y-66197722D01*
X103250704Y-66317030D01*
X103250707Y-66317032D01*
X103421302Y-66401639D01*
X103421303Y-66401639D01*
X103421307Y-66401641D01*
X103606111Y-66447600D01*
X103648877Y-66450500D01*
X104951122Y-66450499D01*
X104993889Y-66447600D01*
X105178693Y-66401641D01*
X105349296Y-66317030D01*
X105497722Y-66197722D01*
X105617030Y-66049296D01*
X105701641Y-65878693D01*
X105747600Y-65693889D01*
X105750500Y-65651123D01*
X105750499Y-64885837D01*
X106349500Y-64885837D01*
X106349500Y-65114162D01*
X106385215Y-65339660D01*
X106455770Y-65556803D01*
X106525621Y-65693892D01*
X106559421Y-65760228D01*
X106693621Y-65944937D01*
X106855063Y-66106379D01*
X107039772Y-66240579D01*
X107135884Y-66289550D01*
X107243196Y-66344229D01*
X107243198Y-66344229D01*
X107243201Y-66344231D01*
X107359592Y-66382049D01*
X107460339Y-66414784D01*
X107685838Y-66450500D01*
X107685843Y-66450500D01*
X107914162Y-66450500D01*
X108139660Y-66414784D01*
X108356799Y-66344231D01*
X108560228Y-66240579D01*
X108744937Y-66106379D01*
X108906379Y-65944937D01*
X109040579Y-65760228D01*
X109144231Y-65556799D01*
X109214784Y-65339660D01*
X109232476Y-65227958D01*
X109250500Y-65114162D01*
X109250500Y-64885837D01*
X109849500Y-64885837D01*
X109849500Y-65114162D01*
X109885215Y-65339660D01*
X109955770Y-65556803D01*
X110025621Y-65693892D01*
X110059421Y-65760228D01*
X110193621Y-65944937D01*
X110355063Y-66106379D01*
X110539772Y-66240579D01*
X110635884Y-66289550D01*
X110743196Y-66344229D01*
X110743198Y-66344229D01*
X110743201Y-66344231D01*
X110859592Y-66382049D01*
X110960339Y-66414784D01*
X111185838Y-66450500D01*
X111185843Y-66450500D01*
X111414162Y-66450500D01*
X111639660Y-66414784D01*
X111856799Y-66344231D01*
X112060228Y-66240579D01*
X112244937Y-66106379D01*
X112406379Y-65944937D01*
X112540579Y-65760228D01*
X112644231Y-65556799D01*
X112714784Y-65339660D01*
X112732476Y-65227958D01*
X112750500Y-65114162D01*
X112750500Y-64885837D01*
X112714784Y-64660339D01*
X112644229Y-64443196D01*
X112569621Y-64296771D01*
X112540579Y-64239772D01*
X112406379Y-64055063D01*
X112244937Y-63893621D01*
X112060228Y-63759421D01*
X112003228Y-63730378D01*
X111856803Y-63655770D01*
X111639660Y-63585215D01*
X111414162Y-63549500D01*
X111414157Y-63549500D01*
X111185843Y-63549500D01*
X111185838Y-63549500D01*
X110960339Y-63585215D01*
X110743196Y-63655770D01*
X110539771Y-63759421D01*
X110355061Y-63893622D01*
X110193622Y-64055061D01*
X110059421Y-64239771D01*
X109955770Y-64443196D01*
X109885215Y-64660339D01*
X109849500Y-64885837D01*
X109250500Y-64885837D01*
X109214784Y-64660339D01*
X109144229Y-64443196D01*
X109069621Y-64296771D01*
X109040579Y-64239772D01*
X108906379Y-64055063D01*
X108744937Y-63893621D01*
X108560228Y-63759421D01*
X108503228Y-63730378D01*
X108356803Y-63655770D01*
X108139660Y-63585215D01*
X107914162Y-63549500D01*
X107914157Y-63549500D01*
X107685843Y-63549500D01*
X107685838Y-63549500D01*
X107460339Y-63585215D01*
X107243196Y-63655770D01*
X107039771Y-63759421D01*
X106855061Y-63893622D01*
X106693622Y-64055061D01*
X106559421Y-64239771D01*
X106455770Y-64443196D01*
X106385215Y-64660339D01*
X106349500Y-64885837D01*
X105750499Y-64885837D01*
X105750499Y-64348878D01*
X105747600Y-64306111D01*
X105701641Y-64121307D01*
X105626457Y-63969711D01*
X105617032Y-63950707D01*
X105617030Y-63950704D01*
X105497722Y-63802278D01*
X105497721Y-63802277D01*
X105349295Y-63682969D01*
X105349292Y-63682967D01*
X105178697Y-63598360D01*
X104993892Y-63552400D01*
X104972506Y-63550950D01*
X104951123Y-63549500D01*
X104951120Y-63549500D01*
X103648877Y-63549500D01*
X103648874Y-63549501D01*
X103606113Y-63552399D01*
X103606112Y-63552399D01*
X103421303Y-63598360D01*
X103250707Y-63682967D01*
X103250704Y-63682969D01*
X103102278Y-63802277D01*
X103102277Y-63802278D01*
X102982969Y-63950704D01*
X102982967Y-63950707D01*
X102898360Y-64121302D01*
X102852400Y-64306107D01*
X102849500Y-64348879D01*
X82596172Y-64348879D01*
X82569621Y-64296771D01*
X82540579Y-64239772D01*
X82406379Y-64055063D01*
X82244937Y-63893621D01*
X82060228Y-63759421D01*
X82003228Y-63730378D01*
X81856803Y-63655770D01*
X81639660Y-63585215D01*
X81414162Y-63549500D01*
X81414157Y-63549500D01*
X81185843Y-63549500D01*
X81185838Y-63549500D01*
X80960339Y-63585215D01*
X80743196Y-63655770D01*
X80539771Y-63759421D01*
X80381521Y-63874398D01*
X80315714Y-63897878D01*
X80247661Y-63882053D01*
X80220954Y-63861761D01*
X73601104Y-57241911D01*
X73567619Y-57180588D01*
X73572603Y-57110896D01*
X73614475Y-57054963D01*
X73656689Y-57034456D01*
X73725284Y-57016077D01*
X73862216Y-56937020D01*
X73905917Y-56893319D01*
X73967240Y-56859834D01*
X73993598Y-56857000D01*
X83747645Y-56857000D01*
X83814684Y-56876685D01*
X83835326Y-56893319D01*
X84865081Y-57923074D01*
X84898566Y-57984397D01*
X84901400Y-58010755D01*
X84901400Y-58072556D01*
X84942323Y-58225283D01*
X84942326Y-58225290D01*
X85021375Y-58362209D01*
X85021379Y-58362214D01*
X85021380Y-58362216D01*
X85133184Y-58474020D01*
X85133186Y-58474021D01*
X85133190Y-58474024D01*
X85270109Y-58553073D01*
X85270116Y-58553077D01*
X85422843Y-58594000D01*
X85422845Y-58594000D01*
X85580955Y-58594000D01*
X85580957Y-58594000D01*
X85733684Y-58553077D01*
X85870616Y-58474020D01*
X85914317Y-58430319D01*
X85975640Y-58396834D01*
X86001998Y-58394000D01*
X99876825Y-58394000D01*
X99876827Y-58394000D01*
X99978688Y-58366707D01*
X100070013Y-58313980D01*
X102720718Y-55663272D01*
X102782041Y-55629788D01*
X102851733Y-55634772D01*
X102896080Y-55663273D01*
X105159681Y-57926873D01*
X105193166Y-57988196D01*
X105196000Y-58014554D01*
X105196000Y-58076357D01*
X105235907Y-58225290D01*
X105236923Y-58229083D01*
X105236926Y-58229090D01*
X105315975Y-58366009D01*
X105315979Y-58366014D01*
X105315980Y-58366016D01*
X105427784Y-58477820D01*
X105427786Y-58477821D01*
X105427790Y-58477824D01*
X105558127Y-58553073D01*
X105564716Y-58556877D01*
X105717443Y-58597800D01*
X105717445Y-58597800D01*
X105875555Y-58597800D01*
X105875557Y-58597800D01*
X106028284Y-58556877D01*
X106165216Y-58477820D01*
X106208917Y-58434119D01*
X106270240Y-58400634D01*
X106296598Y-58397800D01*
X115496125Y-58397800D01*
X115496127Y-58397800D01*
X115526497Y-58389662D01*
X115559417Y-58385440D01*
X115571516Y-58385521D01*
X115575543Y-58386600D01*
X115732682Y-58386600D01*
X115733130Y-58386603D01*
X115766197Y-58396553D01*
X115799339Y-58406285D01*
X115799621Y-58406611D01*
X115800036Y-58406736D01*
X115822520Y-58433038D01*
X115845094Y-58459089D01*
X115845197Y-58459564D01*
X115845437Y-58459845D01*
X115845740Y-58462060D01*
X115856300Y-58510600D01*
X115856300Y-63325944D01*
X115836615Y-63392983D01*
X115819981Y-63413625D01*
X115566932Y-63666673D01*
X115505609Y-63700158D01*
X115435917Y-63695174D01*
X115422957Y-63689477D01*
X115356806Y-63655771D01*
X115139660Y-63585215D01*
X114914162Y-63549500D01*
X114914157Y-63549500D01*
X114685843Y-63549500D01*
X114685838Y-63549500D01*
X114460339Y-63585215D01*
X114243196Y-63655770D01*
X114039771Y-63759421D01*
X113855061Y-63893622D01*
X113693622Y-64055061D01*
X113559421Y-64239771D01*
X113455770Y-64443196D01*
X113385215Y-64660339D01*
X113349500Y-64885837D01*
X113349500Y-65114162D01*
X113385215Y-65339660D01*
X113455770Y-65556803D01*
X113525621Y-65693892D01*
X113559421Y-65760228D01*
X113693621Y-65944937D01*
X113855063Y-66106379D01*
X114039772Y-66240579D01*
X114135884Y-66289550D01*
X114243196Y-66344229D01*
X114243198Y-66344229D01*
X114243201Y-66344231D01*
X114359592Y-66382049D01*
X114460339Y-66414784D01*
X114685838Y-66450500D01*
X114685843Y-66450500D01*
X114914162Y-66450500D01*
X115139660Y-66414784D01*
X115356799Y-66344231D01*
X115560228Y-66240579D01*
X115744937Y-66106379D01*
X115906379Y-65944937D01*
X116040579Y-65760228D01*
X116144231Y-65556799D01*
X116214784Y-65339660D01*
X116232476Y-65227958D01*
X116250500Y-65114162D01*
X116250500Y-64885837D01*
X116214784Y-64660339D01*
X116144229Y-64443196D01*
X116110521Y-64377042D01*
X116097625Y-64308373D01*
X116123901Y-64243633D01*
X116133315Y-64233076D01*
X116577280Y-63789113D01*
X116596555Y-63755727D01*
X116596689Y-63755495D01*
X116596690Y-63755493D01*
X116630007Y-63697787D01*
X116657300Y-63595927D01*
X116657300Y-58046806D01*
X116676985Y-57979767D01*
X116729789Y-57934012D01*
X116798947Y-57924068D01*
X116862503Y-57953093D01*
X116868982Y-57959126D01*
X117824113Y-58914298D01*
X117863183Y-58953369D01*
X117896667Y-59014692D01*
X117899500Y-59041048D01*
X117899500Y-63514893D01*
X117879815Y-63581932D01*
X117827011Y-63627687D01*
X117813824Y-63632821D01*
X117788495Y-63641051D01*
X117743196Y-63655770D01*
X117539771Y-63759421D01*
X117355061Y-63893622D01*
X117193622Y-64055061D01*
X117059421Y-64239771D01*
X116955770Y-64443196D01*
X116885215Y-64660339D01*
X116849500Y-64885837D01*
X116849500Y-65114162D01*
X116885215Y-65339660D01*
X116955770Y-65556803D01*
X117025621Y-65693892D01*
X117059421Y-65760228D01*
X117193621Y-65944937D01*
X117355063Y-66106379D01*
X117539772Y-66240579D01*
X117635884Y-66289550D01*
X117743196Y-66344229D01*
X117743198Y-66344229D01*
X117743201Y-66344231D01*
X117859592Y-66382049D01*
X117960339Y-66414784D01*
X118185838Y-66450500D01*
X118185843Y-66450500D01*
X118414162Y-66450500D01*
X118639660Y-66414784D01*
X118856799Y-66344231D01*
X119060228Y-66240579D01*
X119244937Y-66106379D01*
X119406379Y-65944937D01*
X119540579Y-65760228D01*
X119644231Y-65556799D01*
X119714784Y-65339660D01*
X119732476Y-65227958D01*
X119750500Y-65114162D01*
X119750500Y-64885837D01*
X119714784Y-64660339D01*
X119644229Y-64443196D01*
X119569621Y-64296771D01*
X119540579Y-64239772D01*
X119406379Y-64055063D01*
X119244937Y-63893621D01*
X119060228Y-63759421D01*
X119003228Y-63730378D01*
X118856803Y-63655770D01*
X118824184Y-63645171D01*
X118786180Y-63632823D01*
X118728506Y-63593386D01*
X118701308Y-63529027D01*
X118700500Y-63514893D01*
X118700500Y-58789572D01*
X118700501Y-58771081D01*
X118700500Y-58771077D01*
X118700500Y-58771073D01*
X118686740Y-58719719D01*
X118673210Y-58669220D01*
X118673208Y-58669218D01*
X118673207Y-58669214D01*
X118673207Y-58669213D01*
X118673201Y-58669203D01*
X118671710Y-58666138D01*
X118669494Y-58662781D01*
X118629783Y-58594000D01*
X118629780Y-58593995D01*
X118622333Y-58581095D01*
X118620849Y-58578338D01*
X118620613Y-58578020D01*
X118568991Y-58526398D01*
X118439151Y-58396553D01*
X117554970Y-57512335D01*
X117521487Y-57451013D01*
X117526473Y-57381321D01*
X117568346Y-57325388D01*
X117633811Y-57300973D01*
X117684820Y-57309239D01*
X117684865Y-57309073D01*
X117686503Y-57309512D01*
X117690107Y-57310096D01*
X117692712Y-57311174D01*
X117692716Y-57311177D01*
X117845443Y-57352100D01*
X117907245Y-57352100D01*
X117974284Y-57371785D01*
X117994926Y-57388419D01*
X121363181Y-60756673D01*
X121396666Y-60817996D01*
X121399500Y-60844354D01*
X121399500Y-63514893D01*
X121379815Y-63581932D01*
X121327011Y-63627687D01*
X121313824Y-63632821D01*
X121288495Y-63641051D01*
X121243196Y-63655770D01*
X121039771Y-63759421D01*
X120855061Y-63893622D01*
X120693622Y-64055061D01*
X120559421Y-64239771D01*
X120455770Y-64443196D01*
X120385215Y-64660339D01*
X120349500Y-64885837D01*
X120349500Y-65114162D01*
X120385215Y-65339660D01*
X120455770Y-65556803D01*
X120525621Y-65693892D01*
X120559421Y-65760228D01*
X120693621Y-65944937D01*
X120855063Y-66106379D01*
X121039772Y-66240579D01*
X121135884Y-66289550D01*
X121243196Y-66344229D01*
X121243198Y-66344229D01*
X121243201Y-66344231D01*
X121359592Y-66382049D01*
X121460339Y-66414784D01*
X121685838Y-66450500D01*
X121685843Y-66450500D01*
X121914162Y-66450500D01*
X122139660Y-66414784D01*
X122356799Y-66344231D01*
X122560228Y-66240579D01*
X122744937Y-66106379D01*
X122906379Y-65944937D01*
X123040579Y-65760228D01*
X123144231Y-65556799D01*
X123214784Y-65339660D01*
X123232476Y-65227958D01*
X123250500Y-65114162D01*
X123250500Y-64885837D01*
X123214784Y-64660339D01*
X123144229Y-64443196D01*
X123069621Y-64296771D01*
X123040579Y-64239772D01*
X122906379Y-64055063D01*
X122744937Y-63893621D01*
X122560228Y-63759421D01*
X122503228Y-63730378D01*
X122356803Y-63655770D01*
X122324184Y-63645171D01*
X122286180Y-63632823D01*
X122228506Y-63593386D01*
X122201308Y-63529027D01*
X122200500Y-63514893D01*
X122200500Y-60752354D01*
X122220185Y-60685315D01*
X122272989Y-60639560D01*
X122342147Y-60629616D01*
X122405703Y-60658641D01*
X122412181Y-60664673D01*
X124863181Y-63115673D01*
X124896666Y-63176996D01*
X124899500Y-63203354D01*
X124899500Y-63514893D01*
X124879815Y-63581932D01*
X124827011Y-63627687D01*
X124813824Y-63632821D01*
X124788495Y-63641051D01*
X124743196Y-63655770D01*
X124539771Y-63759421D01*
X124355061Y-63893622D01*
X124193622Y-64055061D01*
X124059421Y-64239771D01*
X123955770Y-64443196D01*
X123885215Y-64660339D01*
X123849500Y-64885837D01*
X123849500Y-65114162D01*
X123885215Y-65339660D01*
X123955770Y-65556803D01*
X124025621Y-65693892D01*
X124059421Y-65760228D01*
X124193621Y-65944937D01*
X124355063Y-66106379D01*
X124539772Y-66240579D01*
X124635884Y-66289550D01*
X124743196Y-66344229D01*
X124743198Y-66344229D01*
X124743201Y-66344231D01*
X124859592Y-66382049D01*
X124960339Y-66414784D01*
X125185838Y-66450500D01*
X125185843Y-66450500D01*
X125414162Y-66450500D01*
X125639660Y-66414784D01*
X125856799Y-66344231D01*
X126060228Y-66240579D01*
X126244937Y-66106379D01*
X126406379Y-65944937D01*
X126540579Y-65760228D01*
X126644231Y-65556799D01*
X126714784Y-65339660D01*
X126732476Y-65227958D01*
X126750500Y-65114162D01*
X126750500Y-64885838D01*
X126750499Y-64885836D01*
X126749371Y-64878711D01*
X133149500Y-64878711D01*
X133149500Y-65121288D01*
X133181161Y-65361785D01*
X133243947Y-65596104D01*
X133314689Y-65766890D01*
X133336776Y-65820212D01*
X133458064Y-66030289D01*
X133458066Y-66030292D01*
X133458067Y-66030293D01*
X133605733Y-66222736D01*
X133605739Y-66222743D01*
X133777256Y-66394260D01*
X133777263Y-66394266D01*
X133804003Y-66414784D01*
X133969711Y-66541936D01*
X134179788Y-66663224D01*
X134403900Y-66756054D01*
X134638211Y-66818838D01*
X134805085Y-66840807D01*
X134878711Y-66850500D01*
X134878712Y-66850500D01*
X135121289Y-66850500D01*
X135176692Y-66843206D01*
X135361789Y-66818838D01*
X135596100Y-66756054D01*
X135820212Y-66663224D01*
X136030289Y-66541936D01*
X136222738Y-66394265D01*
X136394265Y-66222738D01*
X136541936Y-66030289D01*
X136663224Y-65820212D01*
X136756054Y-65596100D01*
X136818838Y-65361789D01*
X136850500Y-65121288D01*
X136850500Y-64878712D01*
X136818838Y-64638211D01*
X136756054Y-64403900D01*
X136755711Y-64403073D01*
X136733263Y-64348877D01*
X136663224Y-64179788D01*
X136541936Y-63969711D01*
X136413462Y-63802280D01*
X136394266Y-63777263D01*
X136394260Y-63777256D01*
X136222743Y-63605739D01*
X136222736Y-63605733D01*
X136030293Y-63458067D01*
X136030292Y-63458066D01*
X136030289Y-63458064D01*
X135820212Y-63336776D01*
X135820205Y-63336773D01*
X135596104Y-63243947D01*
X135361785Y-63181161D01*
X135121289Y-63149500D01*
X135121288Y-63149500D01*
X134878712Y-63149500D01*
X134878711Y-63149500D01*
X134638214Y-63181161D01*
X134403895Y-63243947D01*
X134179794Y-63336773D01*
X134179785Y-63336777D01*
X133969706Y-63458067D01*
X133777263Y-63605733D01*
X133777256Y-63605739D01*
X133605739Y-63777256D01*
X133605733Y-63777263D01*
X133458067Y-63969706D01*
X133336777Y-64179785D01*
X133336773Y-64179794D01*
X133243947Y-64403895D01*
X133181161Y-64638214D01*
X133149500Y-64878711D01*
X126749371Y-64878711D01*
X126714784Y-64660339D01*
X126644229Y-64443196D01*
X126569621Y-64296771D01*
X126540579Y-64239772D01*
X126406379Y-64055063D01*
X126244937Y-63893621D01*
X126060228Y-63759421D01*
X126003228Y-63730378D01*
X125856803Y-63655770D01*
X125824184Y-63645171D01*
X125786180Y-63632823D01*
X125728506Y-63593386D01*
X125701308Y-63529027D01*
X125700500Y-63514893D01*
X125700500Y-63048829D01*
X125700501Y-63048816D01*
X125700501Y-62933374D01*
X125700501Y-62933373D01*
X125673207Y-62831513D01*
X125631230Y-62758807D01*
X125620480Y-62740187D01*
X125545913Y-62665620D01*
X125545910Y-62665618D01*
X120367791Y-57487499D01*
X115184075Y-52303782D01*
X115150590Y-52242459D01*
X115155574Y-52172767D01*
X115197446Y-52116834D01*
X115239659Y-52096328D01*
X115258884Y-52091177D01*
X115395816Y-52012120D01*
X115507620Y-51900316D01*
X115586677Y-51763384D01*
X115627600Y-51610657D01*
X115627600Y-51548855D01*
X115647285Y-51481816D01*
X115663919Y-51461174D01*
X120043986Y-47081107D01*
X124485480Y-42639613D01*
X124538207Y-42548288D01*
X124565500Y-42446427D01*
X124565500Y-42340973D01*
X124565500Y-39549298D01*
X124585185Y-39482259D01*
X124601819Y-39461617D01*
X124623577Y-39439859D01*
X124645520Y-39417916D01*
X124724577Y-39280984D01*
X124765500Y-39128257D01*
X124765500Y-38970143D01*
X124765500Y-38963800D01*
X124768050Y-38955114D01*
X124766762Y-38946153D01*
X124777740Y-38922112D01*
X124785185Y-38896761D01*
X124792025Y-38890833D01*
X124795787Y-38882597D01*
X124818021Y-38868307D01*
X124837989Y-38851006D01*
X124848503Y-38848718D01*
X124854565Y-38844823D01*
X124889500Y-38839800D01*
X125029445Y-38839800D01*
X125096484Y-38859485D01*
X125117126Y-38876119D01*
X125187181Y-38946174D01*
X125220666Y-39007497D01*
X125223500Y-39033855D01*
X125223500Y-39095657D01*
X125263689Y-39245642D01*
X125264423Y-39248383D01*
X125264426Y-39248390D01*
X125343475Y-39385309D01*
X125343479Y-39385314D01*
X125343480Y-39385316D01*
X125455284Y-39497120D01*
X125455286Y-39497121D01*
X125455290Y-39497124D01*
X125586304Y-39572764D01*
X125592216Y-39576177D01*
X125744943Y-39617100D01*
X125744945Y-39617100D01*
X125901200Y-39617100D01*
X125968239Y-39636785D01*
X126013994Y-39689589D01*
X126025200Y-39741100D01*
X126025200Y-40387892D01*
X126005515Y-40454931D01*
X125963200Y-40495279D01*
X125938087Y-40509777D01*
X125938082Y-40509781D01*
X125826281Y-40621582D01*
X125826275Y-40621590D01*
X125747226Y-40758509D01*
X125747223Y-40758516D01*
X125706300Y-40911243D01*
X125706300Y-41069357D01*
X125743124Y-41206784D01*
X125747223Y-41222083D01*
X125747226Y-41222090D01*
X125826275Y-41359009D01*
X125826279Y-41359014D01*
X125826280Y-41359016D01*
X125938084Y-41470820D01*
X125938086Y-41470821D01*
X125938090Y-41470824D01*
X126070206Y-41547100D01*
X126075016Y-41549877D01*
X126227743Y-41590800D01*
X126227745Y-41590800D01*
X126385855Y-41590800D01*
X126385857Y-41590800D01*
X126538584Y-41549877D01*
X126675516Y-41470820D01*
X126787320Y-41359016D01*
X126866377Y-41222084D01*
X126907300Y-41069357D01*
X126907300Y-40911243D01*
X126866377Y-40758516D01*
X126857540Y-40743209D01*
X126842812Y-40717698D01*
X126826200Y-40655700D01*
X126826200Y-26241954D01*
X126845885Y-26174915D01*
X126862519Y-26154273D01*
X128896792Y-24120000D01*
X131267150Y-24120000D01*
X131920735Y-24120000D01*
X131904940Y-24135795D01*
X131865444Y-24204204D01*
X131845000Y-24280504D01*
X131845000Y-24359496D01*
X131865444Y-24435796D01*
X131904940Y-24504205D01*
X131920735Y-24520000D01*
X131267150Y-24520000D01*
X131279584Y-24582512D01*
X131279586Y-24582520D01*
X131347428Y-24746307D01*
X131347433Y-24746316D01*
X131445923Y-24893716D01*
X131445926Y-24893720D01*
X131571279Y-25019073D01*
X131571283Y-25019076D01*
X131718683Y-25117566D01*
X131718692Y-25117571D01*
X131882479Y-25185413D01*
X131882487Y-25185415D01*
X132056353Y-25219999D01*
X132056357Y-25220000D01*
X132495000Y-25220000D01*
X132495000Y-24620000D01*
X132895000Y-24620000D01*
X132895000Y-25220000D01*
X133333643Y-25220000D01*
X133333646Y-25219999D01*
X133507512Y-25185415D01*
X133507520Y-25185413D01*
X133671307Y-25117571D01*
X133671316Y-25117566D01*
X133818716Y-25019076D01*
X133818720Y-25019073D01*
X133944073Y-24893720D01*
X133944076Y-24893716D01*
X134042566Y-24746316D01*
X134042571Y-24746307D01*
X134110413Y-24582520D01*
X134110415Y-24582512D01*
X134122850Y-24520000D01*
X133469265Y-24520000D01*
X133485060Y-24504205D01*
X133524556Y-24435796D01*
X133545000Y-24359496D01*
X133545000Y-24280504D01*
X133524556Y-24204204D01*
X133485060Y-24135795D01*
X133469265Y-24120000D01*
X134122850Y-24120000D01*
X135697150Y-24120000D01*
X136350735Y-24120000D01*
X136334940Y-24135795D01*
X136295444Y-24204204D01*
X136275000Y-24280504D01*
X136275000Y-24359496D01*
X136295444Y-24435796D01*
X136334940Y-24504205D01*
X136350735Y-24520000D01*
X135697150Y-24520000D01*
X135709584Y-24582512D01*
X135709586Y-24582520D01*
X135777428Y-24746307D01*
X135777433Y-24746316D01*
X135875923Y-24893716D01*
X135875926Y-24893720D01*
X136001279Y-25019073D01*
X136001283Y-25019076D01*
X136148683Y-25117566D01*
X136148692Y-25117571D01*
X136312479Y-25185413D01*
X136312487Y-25185415D01*
X136486353Y-25219999D01*
X136486357Y-25220000D01*
X136675000Y-25220000D01*
X136675000Y-24620000D01*
X137075000Y-24620000D01*
X137075000Y-25220000D01*
X137263643Y-25220000D01*
X137263646Y-25219999D01*
X137437512Y-25185415D01*
X137437520Y-25185413D01*
X137601307Y-25117571D01*
X137601316Y-25117566D01*
X137748716Y-25019076D01*
X137748720Y-25019073D01*
X137874073Y-24893720D01*
X137874076Y-24893716D01*
X137972566Y-24746316D01*
X137972571Y-24746307D01*
X138040413Y-24582520D01*
X138040415Y-24582512D01*
X138052850Y-24520000D01*
X137399265Y-24520000D01*
X137415060Y-24504205D01*
X137454556Y-24435796D01*
X137475000Y-24359496D01*
X137475000Y-24280504D01*
X137454556Y-24204204D01*
X137415060Y-24135795D01*
X137399265Y-24120000D01*
X138052850Y-24120000D01*
X138040415Y-24057487D01*
X138040413Y-24057479D01*
X137972571Y-23893692D01*
X137972566Y-23893683D01*
X137874076Y-23746283D01*
X137874073Y-23746279D01*
X137748720Y-23620926D01*
X137748716Y-23620923D01*
X137601316Y-23522433D01*
X137601307Y-23522428D01*
X137437520Y-23454586D01*
X137437512Y-23454584D01*
X137263646Y-23420000D01*
X137075000Y-23420000D01*
X137075000Y-24020000D01*
X136675000Y-24020000D01*
X136675000Y-23420000D01*
X136486353Y-23420000D01*
X136312487Y-23454584D01*
X136312479Y-23454586D01*
X136148692Y-23522428D01*
X136148683Y-23522433D01*
X136001283Y-23620923D01*
X136001279Y-23620926D01*
X135875926Y-23746279D01*
X135875923Y-23746283D01*
X135777433Y-23893683D01*
X135777428Y-23893692D01*
X135709586Y-24057479D01*
X135709584Y-24057487D01*
X135697150Y-24120000D01*
X134122850Y-24120000D01*
X134110415Y-24057487D01*
X134110413Y-24057479D01*
X134042571Y-23893692D01*
X134042566Y-23893683D01*
X133944076Y-23746283D01*
X133944073Y-23746279D01*
X133818720Y-23620926D01*
X133818716Y-23620923D01*
X133666245Y-23519045D01*
X133667050Y-23517838D01*
X133622377Y-23473942D01*
X133606926Y-23405802D01*
X133630767Y-23340126D01*
X133643003Y-23325880D01*
X133680466Y-23288417D01*
X133680469Y-23288413D01*
X133748864Y-23186054D01*
X133748871Y-23186041D01*
X133795979Y-23072310D01*
X133795982Y-23072300D01*
X133820000Y-22951559D01*
X133820000Y-22828440D01*
X133795982Y-22707699D01*
X133795979Y-22707689D01*
X133748871Y-22593958D01*
X133748864Y-22593945D01*
X133680469Y-22491586D01*
X133680466Y-22491582D01*
X133593417Y-22404533D01*
X133593413Y-22404530D01*
X133491054Y-22336135D01*
X133491041Y-22336128D01*
X133377310Y-22289020D01*
X133377300Y-22289017D01*
X133256559Y-22265000D01*
X133133441Y-22265000D01*
X133012699Y-22289017D01*
X133012689Y-22289020D01*
X132898958Y-22336128D01*
X132898945Y-22336135D01*
X132796586Y-22404530D01*
X132796582Y-22404533D01*
X132709533Y-22491582D01*
X132709530Y-22491586D01*
X132641135Y-22593945D01*
X132641128Y-22593958D01*
X132594020Y-22707689D01*
X132594017Y-22707699D01*
X132570000Y-22828440D01*
X132570000Y-22951559D01*
X132569999Y-22951559D01*
X132594017Y-23072300D01*
X132594020Y-23072310D01*
X132641128Y-23186041D01*
X132641135Y-23186054D01*
X132704816Y-23281358D01*
X132711434Y-23290000D01*
X132771000Y-23290000D01*
X132838039Y-23309685D01*
X132883794Y-23362489D01*
X132895000Y-23414000D01*
X132895000Y-24020000D01*
X132495000Y-24020000D01*
X132495000Y-23420000D01*
X132056353Y-23420000D01*
X131882487Y-23454584D01*
X131882479Y-23454586D01*
X131718692Y-23522428D01*
X131718683Y-23522433D01*
X131571283Y-23620923D01*
X131571279Y-23620926D01*
X131445926Y-23746279D01*
X131445923Y-23746283D01*
X131347433Y-23893683D01*
X131347428Y-23893692D01*
X131279586Y-24057479D01*
X131279584Y-24057487D01*
X131267150Y-24120000D01*
X128896792Y-24120000D01*
X130238897Y-22777895D01*
X130300220Y-22744410D01*
X130369912Y-22749394D01*
X130414259Y-22777895D01*
X130419680Y-22783316D01*
X130531484Y-22895120D01*
X130531486Y-22895121D01*
X130531490Y-22895124D01*
X130615844Y-22943825D01*
X130668416Y-22974177D01*
X130821143Y-23015100D01*
X130821145Y-23015100D01*
X130979255Y-23015100D01*
X130979257Y-23015100D01*
X131131984Y-22974177D01*
X131268916Y-22895120D01*
X131380720Y-22783316D01*
X131459777Y-22646384D01*
X131500700Y-22493657D01*
X131500700Y-22431854D01*
X131509343Y-22402419D01*
X131515866Y-22372430D01*
X131519622Y-22367411D01*
X131520385Y-22364815D01*
X131537017Y-22344175D01*
X131557799Y-22323392D01*
X131557804Y-22323389D01*
X131557804Y-22323388D01*
X131568011Y-22313180D01*
X131568013Y-22313180D01*
X131642580Y-22238613D01*
X131695307Y-22147287D01*
X131698818Y-22134184D01*
X131699106Y-22133111D01*
X131715603Y-22071544D01*
X131722601Y-22045427D01*
X131722601Y-21939973D01*
X131722601Y-21932378D01*
X131722600Y-21932360D01*
X131722600Y-17983276D01*
X131722599Y-17983269D01*
X131710341Y-17937520D01*
X131695307Y-17881412D01*
X131642580Y-17790087D01*
X131522919Y-17670426D01*
X131489434Y-17609103D01*
X131486600Y-17582745D01*
X131486600Y-17520945D01*
X131486600Y-17520943D01*
X131445677Y-17368216D01*
X131417596Y-17319577D01*
X131366624Y-17231290D01*
X131366618Y-17231282D01*
X131254817Y-17119481D01*
X131254809Y-17119475D01*
X131117890Y-17040426D01*
X131117886Y-17040424D01*
X131117884Y-17040423D01*
X130965157Y-16999500D01*
X130807043Y-16999500D01*
X130654316Y-17040423D01*
X130654309Y-17040426D01*
X130517390Y-17119475D01*
X130517382Y-17119481D01*
X130405581Y-17231282D01*
X130405575Y-17231290D01*
X130326526Y-17368209D01*
X130326523Y-17368216D01*
X130285600Y-17520943D01*
X130285600Y-17679057D01*
X130322326Y-17816118D01*
X130326523Y-17831783D01*
X130326526Y-17831790D01*
X130405575Y-17968709D01*
X130405579Y-17968714D01*
X130405580Y-17968716D01*
X130517384Y-18080520D01*
X130517386Y-18080521D01*
X130517390Y-18080524D01*
X130607791Y-18132716D01*
X130654316Y-18159577D01*
X130807043Y-18200500D01*
X130807053Y-18200500D01*
X130813782Y-18201386D01*
X130877679Y-18229651D01*
X130916152Y-18287974D01*
X130921600Y-18324326D01*
X130921600Y-18827245D01*
X130901915Y-18894284D01*
X130849111Y-18940039D01*
X130779953Y-18949983D01*
X130716397Y-18920958D01*
X130709919Y-18914926D01*
X127274993Y-15480000D01*
X131267150Y-15480000D01*
X131920735Y-15480000D01*
X131904940Y-15495795D01*
X131865444Y-15564204D01*
X131845000Y-15640504D01*
X131845000Y-15719496D01*
X131865444Y-15795796D01*
X131904940Y-15864205D01*
X131920735Y-15880000D01*
X131267150Y-15880000D01*
X131279584Y-15942512D01*
X131279586Y-15942520D01*
X131347428Y-16106307D01*
X131347433Y-16106316D01*
X131445923Y-16253716D01*
X131445926Y-16253720D01*
X131571279Y-16379073D01*
X131571283Y-16379076D01*
X131718683Y-16477566D01*
X131718692Y-16477571D01*
X131882479Y-16545413D01*
X131882487Y-16545415D01*
X132056353Y-16579999D01*
X132056357Y-16580000D01*
X132494999Y-16580000D01*
X132495000Y-16579999D01*
X132495000Y-15980000D01*
X132895000Y-15980000D01*
X132895000Y-16586000D01*
X132875315Y-16653039D01*
X132822511Y-16698794D01*
X132771000Y-16710000D01*
X132711433Y-16710000D01*
X132704811Y-16718646D01*
X132641138Y-16813940D01*
X132641128Y-16813958D01*
X132594020Y-16927689D01*
X132594017Y-16927699D01*
X132570000Y-17048440D01*
X132570000Y-17171559D01*
X132569999Y-17171559D01*
X132594017Y-17292300D01*
X132594020Y-17292310D01*
X132641128Y-17406041D01*
X132641135Y-17406054D01*
X132709530Y-17508413D01*
X132709533Y-17508417D01*
X132796582Y-17595466D01*
X132796586Y-17595469D01*
X132898945Y-17663864D01*
X132898958Y-17663871D01*
X133012689Y-17710979D01*
X133012699Y-17710982D01*
X133133440Y-17735000D01*
X133256559Y-17735000D01*
X133377300Y-17710982D01*
X133377310Y-17710979D01*
X133491041Y-17663871D01*
X133491054Y-17663864D01*
X133593413Y-17595469D01*
X133593417Y-17595466D01*
X133680466Y-17508417D01*
X133680469Y-17508413D01*
X133748864Y-17406054D01*
X133748871Y-17406041D01*
X133795979Y-17292310D01*
X133795982Y-17292300D01*
X133820000Y-17171559D01*
X133820000Y-17048440D01*
X133795982Y-16927699D01*
X133795979Y-16927689D01*
X133748871Y-16813958D01*
X133748864Y-16813945D01*
X133680469Y-16711586D01*
X133680466Y-16711582D01*
X133643002Y-16674118D01*
X133609517Y-16612795D01*
X133614501Y-16543103D01*
X133656373Y-16487170D01*
X133668363Y-16479539D01*
X133818716Y-16379076D01*
X133818720Y-16379073D01*
X133944073Y-16253720D01*
X133944076Y-16253716D01*
X134042566Y-16106316D01*
X134042571Y-16106307D01*
X134110413Y-15942520D01*
X134110415Y-15942512D01*
X134122850Y-15880000D01*
X133469265Y-15880000D01*
X133485060Y-15864205D01*
X133524556Y-15795796D01*
X133545000Y-15719496D01*
X133545000Y-15640504D01*
X133524556Y-15564204D01*
X133485060Y-15495795D01*
X133469265Y-15480000D01*
X134122850Y-15480000D01*
X135697150Y-15480000D01*
X136350735Y-15480000D01*
X136334940Y-15495795D01*
X136295444Y-15564204D01*
X136275000Y-15640504D01*
X136275000Y-15719496D01*
X136295444Y-15795796D01*
X136334940Y-15864205D01*
X136350735Y-15880000D01*
X135697150Y-15880000D01*
X135709584Y-15942512D01*
X135709586Y-15942520D01*
X135777428Y-16106307D01*
X135777433Y-16106316D01*
X135875923Y-16253716D01*
X135875926Y-16253720D01*
X136001279Y-16379073D01*
X136001283Y-16379076D01*
X136148683Y-16477566D01*
X136148692Y-16477571D01*
X136312479Y-16545413D01*
X136312487Y-16545415D01*
X136486353Y-16579999D01*
X136486357Y-16580000D01*
X136675000Y-16580000D01*
X136675000Y-15980000D01*
X137075000Y-15980000D01*
X137075000Y-16580000D01*
X137263643Y-16580000D01*
X137263646Y-16579999D01*
X137437512Y-16545415D01*
X137437520Y-16545413D01*
X137601307Y-16477571D01*
X137601316Y-16477566D01*
X137748716Y-16379076D01*
X137748720Y-16379073D01*
X137874073Y-16253720D01*
X137874076Y-16253716D01*
X137972566Y-16106316D01*
X137972571Y-16106307D01*
X138040413Y-15942520D01*
X138040415Y-15942512D01*
X138052850Y-15880000D01*
X137399265Y-15880000D01*
X137415060Y-15864205D01*
X137454556Y-15795796D01*
X137475000Y-15719496D01*
X137475000Y-15640504D01*
X137454556Y-15564204D01*
X137415060Y-15495795D01*
X137399265Y-15480000D01*
X138052850Y-15480000D01*
X138040415Y-15417487D01*
X138040413Y-15417479D01*
X137972571Y-15253692D01*
X137972566Y-15253683D01*
X137874076Y-15106283D01*
X137874073Y-15106279D01*
X137748720Y-14980926D01*
X137748716Y-14980923D01*
X137601316Y-14882433D01*
X137601307Y-14882428D01*
X137437520Y-14814586D01*
X137437512Y-14814584D01*
X137263646Y-14780000D01*
X137075000Y-14780000D01*
X137075000Y-15380000D01*
X136675000Y-15380000D01*
X136675000Y-14780000D01*
X136486353Y-14780000D01*
X136312487Y-14814584D01*
X136312479Y-14814586D01*
X136148692Y-14882428D01*
X136148683Y-14882433D01*
X136001283Y-14980923D01*
X136001279Y-14980926D01*
X135875926Y-15106279D01*
X135875923Y-15106283D01*
X135777433Y-15253683D01*
X135777428Y-15253692D01*
X135709586Y-15417479D01*
X135709584Y-15417487D01*
X135697150Y-15480000D01*
X134122850Y-15480000D01*
X134110415Y-15417487D01*
X134110413Y-15417479D01*
X134042571Y-15253692D01*
X134042566Y-15253683D01*
X133944076Y-15106283D01*
X133944073Y-15106279D01*
X133818720Y-14980926D01*
X133818716Y-14980923D01*
X133671316Y-14882433D01*
X133671307Y-14882428D01*
X133507520Y-14814586D01*
X133507512Y-14814584D01*
X133333646Y-14780000D01*
X132895000Y-14780000D01*
X132895000Y-15380000D01*
X132495000Y-15380000D01*
X132495000Y-14780000D01*
X132056353Y-14780000D01*
X131882487Y-14814584D01*
X131882479Y-14814586D01*
X131718692Y-14882428D01*
X131718683Y-14882433D01*
X131571283Y-14980923D01*
X131571279Y-14980926D01*
X131445926Y-15106279D01*
X131445923Y-15106283D01*
X131347433Y-15253683D01*
X131347428Y-15253692D01*
X131279586Y-15417479D01*
X131279584Y-15417487D01*
X131267150Y-15480000D01*
X127274993Y-15480000D01*
X124947415Y-13152422D01*
X124947413Y-13152420D01*
X124887476Y-13117815D01*
X124856089Y-13099693D01*
X124805157Y-13086046D01*
X124754227Y-13072400D01*
X124754226Y-13072400D01*
X110142639Y-13072400D01*
X110142623Y-13072399D01*
X110135027Y-13072399D01*
X110029573Y-13072399D01*
X109961666Y-13090595D01*
X109927712Y-13099693D01*
X109836384Y-13152422D01*
X109085826Y-13902981D01*
X109024503Y-13936466D01*
X108998145Y-13939300D01*
X105707200Y-13939300D01*
X105640161Y-13919615D01*
X105594406Y-13866811D01*
X105583200Y-13815300D01*
X105583200Y-13658945D01*
X105583200Y-13658943D01*
X105542277Y-13506216D01*
X105505944Y-13443284D01*
X105463224Y-13369290D01*
X105463218Y-13369282D01*
X105351417Y-13257481D01*
X105351409Y-13257475D01*
X105214490Y-13178426D01*
X105214486Y-13178424D01*
X105214484Y-13178423D01*
X105061757Y-13137500D01*
X105061756Y-13137500D01*
X104999955Y-13137500D01*
X104932916Y-13117815D01*
X104912274Y-13101181D01*
X103936819Y-12125726D01*
X103903334Y-12064403D01*
X103900500Y-12038045D01*
X103900500Y-6485106D01*
X103920185Y-6418067D01*
X103972989Y-6372312D01*
X103986169Y-6367179D01*
X104056799Y-6344231D01*
X104260228Y-6240579D01*
X104444937Y-6106379D01*
X104606379Y-5944937D01*
X104740579Y-5760228D01*
X104844231Y-5556799D01*
X104914784Y-5339660D01*
X104923783Y-5282842D01*
X104950500Y-5114162D01*
X104950500Y-4885837D01*
X104914784Y-4660339D01*
X104869146Y-4519881D01*
X104844231Y-4443201D01*
X104844229Y-4443198D01*
X104844229Y-4443196D01*
X104823785Y-4403073D01*
X104796172Y-4348879D01*
X105549500Y-4348879D01*
X105549500Y-5651122D01*
X105549501Y-5651125D01*
X105552399Y-5693886D01*
X105552399Y-5693887D01*
X105598360Y-5878696D01*
X105682967Y-6049292D01*
X105682969Y-6049295D01*
X105802277Y-6197721D01*
X105802278Y-6197722D01*
X105950704Y-6317030D01*
X105950707Y-6317032D01*
X106121302Y-6401639D01*
X106121303Y-6401639D01*
X106121307Y-6401641D01*
X106306111Y-6447600D01*
X106348877Y-6450500D01*
X107651122Y-6450499D01*
X107693889Y-6447600D01*
X107878693Y-6401641D01*
X108049296Y-6317030D01*
X108197722Y-6197722D01*
X108317030Y-6049296D01*
X108401641Y-5878693D01*
X108447600Y-5693889D01*
X108450500Y-5651123D01*
X108450499Y-4878711D01*
X133149500Y-4878711D01*
X133149500Y-5121288D01*
X133181161Y-5361785D01*
X133243947Y-5596104D01*
X133311930Y-5760228D01*
X133336776Y-5820212D01*
X133458064Y-6030289D01*
X133458066Y-6030292D01*
X133458067Y-6030293D01*
X133605733Y-6222736D01*
X133605739Y-6222743D01*
X133777256Y-6394260D01*
X133777263Y-6394266D01*
X133798150Y-6410293D01*
X133969711Y-6541936D01*
X134179788Y-6663224D01*
X134403900Y-6756054D01*
X134638211Y-6818838D01*
X134818586Y-6842584D01*
X134878711Y-6850500D01*
X134878712Y-6850500D01*
X135121289Y-6850500D01*
X135169388Y-6844167D01*
X135361789Y-6818838D01*
X135596100Y-6756054D01*
X135820212Y-6663224D01*
X136030289Y-6541936D01*
X136222738Y-6394265D01*
X136394265Y-6222738D01*
X136541936Y-6030289D01*
X136663224Y-5820212D01*
X136756054Y-5596100D01*
X136818838Y-5361789D01*
X136850500Y-5121288D01*
X136850500Y-4878712D01*
X136818838Y-4638211D01*
X136756054Y-4403900D01*
X136755711Y-4403073D01*
X136744195Y-4375269D01*
X136663224Y-4179788D01*
X136541936Y-3969711D01*
X136481018Y-3890321D01*
X136394266Y-3777263D01*
X136394260Y-3777256D01*
X136222743Y-3605739D01*
X136222736Y-3605733D01*
X136030293Y-3458067D01*
X136030292Y-3458066D01*
X136030289Y-3458064D01*
X135820212Y-3336776D01*
X135820205Y-3336773D01*
X135596104Y-3243947D01*
X135361785Y-3181161D01*
X135121289Y-3149500D01*
X135121288Y-3149500D01*
X134878712Y-3149500D01*
X134878711Y-3149500D01*
X134638214Y-3181161D01*
X134403895Y-3243947D01*
X134179794Y-3336773D01*
X134179785Y-3336777D01*
X133969706Y-3458067D01*
X133777263Y-3605733D01*
X133777256Y-3605739D01*
X133605739Y-3777256D01*
X133605733Y-3777263D01*
X133458067Y-3969706D01*
X133336777Y-4179785D01*
X133336773Y-4179794D01*
X133243947Y-4403895D01*
X133181161Y-4638214D01*
X133149500Y-4878711D01*
X108450499Y-4878711D01*
X108450499Y-4348878D01*
X108447600Y-4306111D01*
X108401641Y-4121307D01*
X108368786Y-4055061D01*
X108317032Y-3950707D01*
X108317030Y-3950704D01*
X108197722Y-3802278D01*
X108197721Y-3802277D01*
X108049295Y-3682969D01*
X108049292Y-3682967D01*
X107878697Y-3598360D01*
X107693892Y-3552400D01*
X107672506Y-3550950D01*
X107651123Y-3549500D01*
X107651120Y-3549500D01*
X106348877Y-3549500D01*
X106348874Y-3549501D01*
X106306113Y-3552399D01*
X106306112Y-3552399D01*
X106121303Y-3598360D01*
X105950707Y-3682967D01*
X105950704Y-3682969D01*
X105802278Y-3802277D01*
X105802277Y-3802278D01*
X105682969Y-3950704D01*
X105682967Y-3950707D01*
X105598360Y-4121302D01*
X105552400Y-4306107D01*
X105549500Y-4348879D01*
X104796172Y-4348879D01*
X104740578Y-4239771D01*
X104697002Y-4179794D01*
X104606379Y-4055063D01*
X104444937Y-3893621D01*
X104260228Y-3759421D01*
X104203228Y-3730378D01*
X104056803Y-3655770D01*
X103839660Y-3585215D01*
X103614162Y-3549500D01*
X103614157Y-3549500D01*
X103385843Y-3549500D01*
X103385838Y-3549500D01*
X103160339Y-3585215D01*
X102943196Y-3655770D01*
X102739771Y-3759421D01*
X102555061Y-3893622D01*
X102393622Y-4055061D01*
X102259421Y-4239771D01*
X102155770Y-4443196D01*
X102085215Y-4660339D01*
X102049500Y-4885837D01*
X102049500Y-5114162D01*
X102085215Y-5339660D01*
X102155770Y-5556803D01*
X102225620Y-5693890D01*
X102259421Y-5760228D01*
X102393621Y-5944937D01*
X102555063Y-6106379D01*
X102739772Y-6240579D01*
X102943201Y-6344231D01*
X103013818Y-6367175D01*
X103071492Y-6406611D01*
X103098692Y-6470969D01*
X103099500Y-6485106D01*
X103099500Y-12202573D01*
X103099500Y-12308027D01*
X103109218Y-12344297D01*
X103126793Y-12409889D01*
X103153156Y-12455550D01*
X103179520Y-12501213D01*
X103179522Y-12501215D01*
X104345881Y-13667574D01*
X104360584Y-13694501D01*
X104377177Y-13720320D01*
X104378068Y-13726520D01*
X104379366Y-13728897D01*
X104382200Y-13755255D01*
X104382200Y-13815300D01*
X104362515Y-13882339D01*
X104309711Y-13928094D01*
X104258200Y-13939300D01*
X87107655Y-13939300D01*
X87040616Y-13919615D01*
X87019974Y-13902981D01*
X85547919Y-12430926D01*
X85514434Y-12369603D01*
X85511600Y-12343245D01*
X85511600Y-12281445D01*
X85511600Y-12281443D01*
X85470677Y-12128716D01*
X85418329Y-12038045D01*
X85391624Y-11991790D01*
X85391618Y-11991782D01*
X85279817Y-11879981D01*
X85279809Y-11879975D01*
X85142890Y-11800926D01*
X85142886Y-11800924D01*
X85142884Y-11800923D01*
X84990157Y-11760000D01*
X84832043Y-11760000D01*
X84679316Y-11800923D01*
X84679309Y-11800926D01*
X84542390Y-11879975D01*
X84542382Y-11879981D01*
X84430581Y-11991782D01*
X84430575Y-11991790D01*
X84351526Y-12128709D01*
X84351523Y-12128716D01*
X84310600Y-12281443D01*
X84310600Y-12439557D01*
X84340060Y-12549501D01*
X84351523Y-12592283D01*
X84351526Y-12592290D01*
X84430575Y-12729209D01*
X84430579Y-12729214D01*
X84430580Y-12729216D01*
X84542384Y-12841020D01*
X84542386Y-12841021D01*
X84542390Y-12841024D01*
X84679309Y-12920073D01*
X84679316Y-12920077D01*
X84832043Y-12961000D01*
X84893845Y-12961000D01*
X84960884Y-12980685D01*
X84981526Y-12997319D01*
X86644487Y-14660280D01*
X86735812Y-14713007D01*
X86837673Y-14740300D01*
X86837675Y-14740300D01*
X109268125Y-14740300D01*
X109268127Y-14740300D01*
X109369988Y-14713007D01*
X109461313Y-14660280D01*
X110211873Y-13909718D01*
X110273196Y-13876234D01*
X110299554Y-13873400D01*
X112959395Y-13873400D01*
X113026434Y-13893085D01*
X113072189Y-13945889D01*
X113081724Y-14009516D01*
X113081800Y-14009516D01*
X113081800Y-14010020D01*
X113082334Y-14013584D01*
X113081800Y-14017640D01*
X113081800Y-14017643D01*
X113081800Y-14175757D01*
X113113087Y-14292520D01*
X113122723Y-14328483D01*
X113122726Y-14328490D01*
X113201775Y-14465409D01*
X113201781Y-14465417D01*
X113245481Y-14509117D01*
X113278966Y-14570440D01*
X113281800Y-14596798D01*
X113281800Y-24289745D01*
X113262115Y-24356784D01*
X113245481Y-24377426D01*
X112577680Y-25045226D01*
X112516357Y-25078711D01*
X112446665Y-25073727D01*
X112402318Y-25045226D01*
X109694112Y-22337020D01*
X106934713Y-19577620D01*
X106872393Y-19541639D01*
X106843389Y-19524893D01*
X106792457Y-19511246D01*
X106741527Y-19497600D01*
X106741526Y-19497600D01*
X99538198Y-19497600D01*
X99471159Y-19477915D01*
X99450517Y-19461281D01*
X99406817Y-19417581D01*
X99406809Y-19417575D01*
X99269890Y-19338526D01*
X99269886Y-19338524D01*
X99269884Y-19338523D01*
X99117157Y-19297600D01*
X98959043Y-19297600D01*
X98806316Y-19338523D01*
X98806309Y-19338526D01*
X98669390Y-19417575D01*
X98669382Y-19417581D01*
X98557581Y-19529382D01*
X98557575Y-19529390D01*
X98478526Y-19666309D01*
X98478523Y-19666316D01*
X98437600Y-19819043D01*
X98437600Y-19977157D01*
X98446850Y-20011677D01*
X98456879Y-20049107D01*
X98455216Y-20118957D01*
X98416053Y-20176819D01*
X98351825Y-20204323D01*
X98337104Y-20205200D01*
X92691555Y-20205200D01*
X92624516Y-20185515D01*
X92603874Y-20168881D01*
X91903619Y-19468626D01*
X91870134Y-19407303D01*
X91867300Y-19380945D01*
X91867300Y-19319145D01*
X91867300Y-19319143D01*
X91826377Y-19166416D01*
X91793831Y-19110045D01*
X91777359Y-19042146D01*
X91800212Y-18976119D01*
X91855133Y-18932928D01*
X91869112Y-18928276D01*
X91884784Y-18924077D01*
X92021716Y-18845020D01*
X92133520Y-18733216D01*
X92212577Y-18596284D01*
X92253500Y-18443557D01*
X92253500Y-18285443D01*
X92212577Y-18132716D01*
X92202930Y-18116006D01*
X92133524Y-17995790D01*
X92133518Y-17995782D01*
X92016695Y-17878959D01*
X91983210Y-17817636D01*
X91988194Y-17747944D01*
X92016695Y-17703597D01*
X92720793Y-16999500D01*
X93476074Y-16244219D01*
X93537397Y-16210734D01*
X93563755Y-16207900D01*
X97562402Y-16207900D01*
X97629441Y-16227585D01*
X97650083Y-16244219D01*
X97693784Y-16287920D01*
X97693786Y-16287921D01*
X97693790Y-16287924D01*
X97830709Y-16366973D01*
X97830716Y-16366977D01*
X97983443Y-16407900D01*
X97983445Y-16407900D01*
X98141555Y-16407900D01*
X98141557Y-16407900D01*
X98294284Y-16366977D01*
X98431216Y-16287920D01*
X98543020Y-16176116D01*
X98622077Y-16039184D01*
X98663000Y-15886457D01*
X98663000Y-15728343D01*
X98622077Y-15575616D01*
X98583553Y-15508889D01*
X98543024Y-15438690D01*
X98543018Y-15438682D01*
X98431217Y-15326881D01*
X98431209Y-15326875D01*
X98294290Y-15247826D01*
X98294286Y-15247824D01*
X98294284Y-15247823D01*
X98141557Y-15206900D01*
X97983443Y-15206900D01*
X97830716Y-15247823D01*
X97830709Y-15247826D01*
X97693790Y-15326875D01*
X97693782Y-15326881D01*
X97650083Y-15370581D01*
X97588760Y-15404066D01*
X97562402Y-15406900D01*
X93293773Y-15406900D01*
X93191910Y-15434193D01*
X93100587Y-15486920D01*
X93100584Y-15486922D01*
X87927281Y-20660226D01*
X87865958Y-20693711D01*
X87796266Y-20688727D01*
X87740333Y-20646855D01*
X87715916Y-20581391D01*
X87715600Y-20572545D01*
X87715600Y-18264973D01*
X87714799Y-18261984D01*
X87688307Y-18163112D01*
X87635580Y-18071787D01*
X86160395Y-16596602D01*
X86126910Y-16535279D01*
X86131894Y-16465587D01*
X86160395Y-16421239D01*
X86162511Y-16419122D01*
X86162516Y-16419120D01*
X86274320Y-16307316D01*
X86353377Y-16170384D01*
X86394300Y-16017657D01*
X86394300Y-15859543D01*
X86353377Y-15706816D01*
X86313073Y-15637006D01*
X86274324Y-15569890D01*
X86274318Y-15569882D01*
X86162517Y-15458081D01*
X86162509Y-15458075D01*
X86025590Y-15379026D01*
X86025586Y-15379024D01*
X86025584Y-15379023D01*
X85872857Y-15338100D01*
X85872856Y-15338100D01*
X85811055Y-15338100D01*
X85744016Y-15318415D01*
X85723374Y-15301781D01*
X82658715Y-12237122D01*
X82658713Y-12237120D01*
X82613050Y-12210756D01*
X82567389Y-12184393D01*
X82516457Y-12170746D01*
X82465527Y-12157100D01*
X73362473Y-12157100D01*
X73260613Y-12184393D01*
X73260610Y-12184394D01*
X73229124Y-12202573D01*
X73223341Y-12205912D01*
X73196314Y-12221516D01*
X73169288Y-12237119D01*
X73169285Y-12237121D01*
X72231226Y-13175181D01*
X72169903Y-13208666D01*
X72143545Y-13211500D01*
X72081743Y-13211500D01*
X71929016Y-13252423D01*
X71929009Y-13252426D01*
X71792090Y-13331475D01*
X71792082Y-13331481D01*
X71680281Y-13443282D01*
X71680275Y-13443290D01*
X71601226Y-13580209D01*
X71601223Y-13580216D01*
X71560300Y-13732943D01*
X71560300Y-13891057D01*
X71572468Y-13936466D01*
X71601223Y-14043783D01*
X71601226Y-14043790D01*
X71680275Y-14180709D01*
X71680279Y-14180714D01*
X71680280Y-14180716D01*
X71792084Y-14292520D01*
X71792086Y-14292521D01*
X71792090Y-14292524D01*
X71854374Y-14328483D01*
X71929016Y-14371577D01*
X72081743Y-14412500D01*
X72081745Y-14412500D01*
X72239855Y-14412500D01*
X72239857Y-14412500D01*
X72392584Y-14371577D01*
X72529516Y-14292520D01*
X72641320Y-14180716D01*
X72720377Y-14043784D01*
X72761300Y-13891057D01*
X72761300Y-13829254D01*
X72780985Y-13762215D01*
X72797615Y-13741577D01*
X73075339Y-13463852D01*
X73136660Y-13430369D01*
X73206351Y-13435353D01*
X73260147Y-13474451D01*
X73265833Y-13481616D01*
X73292680Y-13528116D01*
X73341410Y-13576846D01*
X73345829Y-13582414D01*
X73356393Y-13608467D01*
X73369866Y-13633140D01*
X73371117Y-13644776D01*
X73372085Y-13647163D01*
X73371632Y-13649568D01*
X73372700Y-13659498D01*
X73372700Y-23689745D01*
X73353015Y-23756784D01*
X73336381Y-23777426D01*
X66169626Y-30944181D01*
X66108303Y-30977666D01*
X66081945Y-30980500D01*
X66020143Y-30980500D01*
X65867416Y-31021423D01*
X65867409Y-31021426D01*
X65730490Y-31100475D01*
X65730482Y-31100481D01*
X65618681Y-31212282D01*
X65618675Y-31212290D01*
X65539626Y-31349209D01*
X65539623Y-31349216D01*
X65498700Y-31501943D01*
X65498700Y-31660056D01*
X65534029Y-31791907D01*
X65532366Y-31861757D01*
X65493203Y-31919619D01*
X65428975Y-31947123D01*
X65414254Y-31948000D01*
X61605754Y-31948000D01*
X61538715Y-31928315D01*
X61518073Y-31911681D01*
X60968483Y-31362090D01*
X60934998Y-31300767D01*
X60939982Y-31231075D01*
X60981854Y-31175142D01*
X61047318Y-31150725D01*
X61095027Y-31158468D01*
X61095533Y-31156914D01*
X61287294Y-31219221D01*
X61481618Y-31250000D01*
X61678382Y-31250000D01*
X61872705Y-31219221D01*
X62059835Y-31158418D01*
X62235143Y-31069095D01*
X62311079Y-31013922D01*
X62311080Y-31013922D01*
X61765177Y-30468019D01*
X61772993Y-30465925D01*
X61887007Y-30400099D01*
X61980099Y-30307007D01*
X62045925Y-30192993D01*
X62048019Y-30185177D01*
X62593921Y-30731080D01*
X62593922Y-30731079D01*
X62649095Y-30655143D01*
X62738418Y-30479835D01*
X62799221Y-30292705D01*
X62830000Y-30098382D01*
X62830000Y-29901617D01*
X62799221Y-29707294D01*
X62738418Y-29520164D01*
X62649095Y-29344856D01*
X62593922Y-29268919D01*
X62593922Y-29268918D01*
X62048018Y-29814821D01*
X62045925Y-29807007D01*
X61980099Y-29692993D01*
X61887007Y-29599901D01*
X61772993Y-29534075D01*
X61765177Y-29531980D01*
X62311080Y-28986077D01*
X62311079Y-28986076D01*
X62235143Y-28930904D01*
X62059835Y-28841581D01*
X61872705Y-28780778D01*
X61678382Y-28750000D01*
X61481618Y-28750000D01*
X61287294Y-28780778D01*
X61100164Y-28841581D01*
X60924855Y-28930905D01*
X60924846Y-28930911D01*
X60848919Y-28986075D01*
X60848918Y-28986076D01*
X61394823Y-29531980D01*
X61387007Y-29534075D01*
X61272993Y-29599901D01*
X61179901Y-29692993D01*
X61114075Y-29807007D01*
X61111980Y-29814822D01*
X60566076Y-29268918D01*
X60566075Y-29268919D01*
X60510911Y-29344846D01*
X60510905Y-29344855D01*
X60421581Y-29520162D01*
X60375621Y-29661613D01*
X60336183Y-29719288D01*
X60271824Y-29746486D01*
X60202978Y-29734571D01*
X60151502Y-29687327D01*
X60139759Y-29661611D01*
X60106213Y-29558366D01*
X60106211Y-29558360D01*
X60071329Y-29489901D01*
X60023996Y-29397006D01*
X59951885Y-29297753D01*
X59917558Y-29250505D01*
X59917554Y-29250500D01*
X59789499Y-29122445D01*
X59789494Y-29122441D01*
X59642997Y-29016006D01*
X59642996Y-29016005D01*
X59642994Y-29016004D01*
X59584257Y-28986076D01*
X59481639Y-28933788D01*
X59481636Y-28933787D01*
X59309410Y-28877829D01*
X59130551Y-28849500D01*
X59130546Y-28849500D01*
X58949454Y-28849500D01*
X58949449Y-28849500D01*
X58770589Y-28877829D01*
X58598363Y-28933787D01*
X58598360Y-28933788D01*
X58437002Y-29016006D01*
X58290505Y-29122441D01*
X58290500Y-29122445D01*
X58162445Y-29250500D01*
X58162441Y-29250505D01*
X58056006Y-29397002D01*
X57973787Y-29558363D01*
X57972517Y-29561431D01*
X57971721Y-29562417D01*
X57971577Y-29562702D01*
X57971517Y-29562671D01*
X57971267Y-29562981D01*
X57970993Y-29564955D01*
X57949442Y-29590064D01*
X57928676Y-29615834D01*
X57926785Y-29616463D01*
X57925488Y-29617975D01*
X57893775Y-29627450D01*
X57862382Y-29637899D01*
X57859848Y-29637586D01*
X57858543Y-29637977D01*
X57851020Y-29636499D01*
X57823584Y-29633119D01*
X57810911Y-29629463D01*
X57806287Y-29626793D01*
X57741279Y-29609374D01*
X57740127Y-29609042D01*
X57711594Y-29590895D01*
X57682745Y-29573310D01*
X57682208Y-29572205D01*
X57681171Y-29571546D01*
X57666975Y-29540846D01*
X57652216Y-29510463D01*
X57652059Y-29508589D01*
X57651846Y-29508128D01*
X57651955Y-29507341D01*
X57650499Y-29489901D01*
X57650499Y-29105143D01*
X57650499Y-29105136D01*
X57650497Y-29105117D01*
X57647586Y-29080012D01*
X57647585Y-29080010D01*
X57647585Y-29080009D01*
X57602206Y-28977235D01*
X57522765Y-28897794D01*
X57522763Y-28897793D01*
X57419992Y-28852415D01*
X57394865Y-28849500D01*
X55605143Y-28849500D01*
X55605117Y-28849502D01*
X55580012Y-28852413D01*
X55580008Y-28852415D01*
X55477235Y-28897793D01*
X55397794Y-28977234D01*
X55352415Y-29080006D01*
X55352415Y-29080008D01*
X55349500Y-29105131D01*
X55349500Y-30894856D01*
X55349502Y-30894882D01*
X55352413Y-30919987D01*
X55352415Y-30919991D01*
X55397793Y-31022764D01*
X55397794Y-31022765D01*
X55477235Y-31102206D01*
X55580009Y-31147585D01*
X55605135Y-31150500D01*
X57394864Y-31150499D01*
X57394879Y-31150497D01*
X57394882Y-31150497D01*
X57419987Y-31147586D01*
X57419988Y-31147585D01*
X57419991Y-31147585D01*
X57522765Y-31102206D01*
X57602206Y-31022765D01*
X57602210Y-31022755D01*
X57606421Y-31016609D01*
X57660545Y-30972423D01*
X57729965Y-30964513D01*
X57792642Y-30995390D01*
X57796406Y-30998999D01*
X61117887Y-34320480D01*
X61187049Y-34360411D01*
X61206428Y-34371600D01*
X61209212Y-34373207D01*
X61311073Y-34400500D01*
X61832100Y-34400500D01*
X61899139Y-34420185D01*
X61944894Y-34472989D01*
X61956100Y-34524500D01*
X61956100Y-35544302D01*
X61948338Y-35570733D01*
X61943908Y-35597920D01*
X61937840Y-35606486D01*
X61936415Y-35611341D01*
X61924273Y-35627248D01*
X61922088Y-35629675D01*
X61876080Y-35675684D01*
X61867836Y-35689962D01*
X61859125Y-35699643D01*
X61840012Y-35711425D01*
X61823763Y-35726917D01*
X61810847Y-35729405D01*
X61799649Y-35736309D01*
X61777200Y-35735887D01*
X61755155Y-35740135D01*
X61742942Y-35735244D01*
X61729791Y-35734998D01*
X61711134Y-35722507D01*
X61690293Y-35714162D01*
X61679271Y-35704378D01*
X60727915Y-34753022D01*
X60727913Y-34753020D01*
X60664782Y-34716571D01*
X60636589Y-34700293D01*
X60572742Y-34683186D01*
X60534727Y-34673000D01*
X60534726Y-34673000D01*
X59577498Y-34673000D01*
X59510459Y-34653315D01*
X59489817Y-34636681D01*
X59446117Y-34592981D01*
X59446109Y-34592975D01*
X59309190Y-34513926D01*
X59309186Y-34513924D01*
X59309184Y-34513923D01*
X59156457Y-34473000D01*
X58998343Y-34473000D01*
X58845616Y-34513923D01*
X58845609Y-34513926D01*
X58708690Y-34592975D01*
X58708682Y-34592981D01*
X58596881Y-34704782D01*
X58596875Y-34704790D01*
X58517826Y-34841709D01*
X58517823Y-34841716D01*
X58476900Y-34994443D01*
X58476900Y-35152557D01*
X58479462Y-35162119D01*
X58492305Y-35210050D01*
X58490642Y-35279900D01*
X58451479Y-35337763D01*
X58387250Y-35365266D01*
X58340438Y-35361918D01*
X58286628Y-35347500D01*
X58286627Y-35347500D01*
X46242154Y-35347500D01*
X46175115Y-35327815D01*
X46154473Y-35311181D01*
X44684819Y-33841526D01*
X44651334Y-33780203D01*
X44648500Y-33753845D01*
X44648500Y-33692045D01*
X44648500Y-33692043D01*
X44607577Y-33539316D01*
X44594621Y-33516875D01*
X44528524Y-33402390D01*
X44528518Y-33402382D01*
X44416717Y-33290581D01*
X44416709Y-33290575D01*
X44279790Y-33211526D01*
X44279786Y-33211524D01*
X44279784Y-33211523D01*
X44127057Y-33170600D01*
X43968943Y-33170600D01*
X43816216Y-33211523D01*
X43816209Y-33211526D01*
X43679290Y-33290575D01*
X43679282Y-33290581D01*
X43567481Y-33402382D01*
X43567475Y-33402390D01*
X43488426Y-33539309D01*
X43488423Y-33539316D01*
X43447500Y-33692043D01*
X43447500Y-33850157D01*
X43475275Y-33953813D01*
X43488423Y-34002883D01*
X43488426Y-34002890D01*
X43567475Y-34139809D01*
X43567479Y-34139814D01*
X43567480Y-34139816D01*
X43679284Y-34251620D01*
X43679286Y-34251621D01*
X43679290Y-34251624D01*
X43750432Y-34292697D01*
X43816216Y-34330677D01*
X43968943Y-34371600D01*
X44030745Y-34371600D01*
X44097784Y-34391285D01*
X44118426Y-34407919D01*
X44920558Y-35210050D01*
X45701389Y-35990881D01*
X45702660Y-35992153D01*
X45704250Y-35995067D01*
X45707657Y-35997869D01*
X45707667Y-35997881D01*
X45706373Y-35998959D01*
X45720343Y-36024566D01*
X45736110Y-36053442D01*
X45736108Y-36053465D01*
X45736121Y-36053489D01*
X45733563Y-36089051D01*
X45731126Y-36123134D01*
X45731110Y-36123154D01*
X45731109Y-36123179D01*
X45711354Y-36149546D01*
X45689254Y-36179067D01*
X45689230Y-36179075D01*
X45689215Y-36179096D01*
X45656275Y-36191367D01*
X45623790Y-36203484D01*
X45623747Y-36203485D01*
X45623741Y-36203488D01*
X45623732Y-36203486D01*
X45614944Y-36203800D01*
X43178139Y-36203800D01*
X43178123Y-36203799D01*
X43170527Y-36203799D01*
X43065073Y-36203799D01*
X42963212Y-36231093D01*
X42917550Y-36257456D01*
X42880201Y-36279020D01*
X42871887Y-36283820D01*
X42871884Y-36283822D01*
X42475826Y-36679881D01*
X42414503Y-36713366D01*
X42388145Y-36716200D01*
X42326343Y-36716200D01*
X42173616Y-36757123D01*
X42173609Y-36757126D01*
X42036690Y-36836175D01*
X42036682Y-36836181D01*
X41969281Y-36903583D01*
X41907958Y-36937068D01*
X41838266Y-36932084D01*
X41782333Y-36890212D01*
X41757916Y-36824748D01*
X41757600Y-36815902D01*
X41757600Y-31650673D01*
X41777285Y-31583634D01*
X41819598Y-31543287D01*
X41928316Y-31480520D01*
X42040120Y-31368716D01*
X42119177Y-31231784D01*
X42160100Y-31079057D01*
X42160100Y-31017254D01*
X42179785Y-30950215D01*
X42196419Y-30929573D01*
X53909173Y-19216819D01*
X53970496Y-19183334D01*
X53996854Y-19180500D01*
X56236840Y-19180500D01*
X56303879Y-19200185D01*
X56347325Y-19248205D01*
X56407297Y-19365906D01*
X56416006Y-19382997D01*
X56522441Y-19529494D01*
X56522445Y-19529499D01*
X56650500Y-19657554D01*
X56650505Y-19657558D01*
X56745551Y-19726612D01*
X56797006Y-19763996D01*
X56902484Y-19817740D01*
X56958360Y-19846211D01*
X56958366Y-19846213D01*
X57061611Y-19879759D01*
X57119287Y-19919196D01*
X57146486Y-19983554D01*
X57134572Y-20052401D01*
X57087328Y-20103877D01*
X57061613Y-20115621D01*
X56920162Y-20161581D01*
X56744855Y-20250905D01*
X56744846Y-20250911D01*
X56668919Y-20306075D01*
X56668918Y-20306076D01*
X57214823Y-20851980D01*
X57207007Y-20854075D01*
X57092993Y-20919901D01*
X56999901Y-21012993D01*
X56934075Y-21127007D01*
X56931980Y-21134822D01*
X56386076Y-20588918D01*
X56386075Y-20588919D01*
X56330911Y-20664846D01*
X56330905Y-20664855D01*
X56241581Y-20840164D01*
X56180778Y-21027294D01*
X56150000Y-21221617D01*
X56150000Y-21418382D01*
X56180778Y-21612705D01*
X56241581Y-21799835D01*
X56330904Y-21975143D01*
X56386076Y-22051079D01*
X56386077Y-22051080D01*
X56931980Y-21505176D01*
X56934075Y-21512993D01*
X56999901Y-21627007D01*
X57092993Y-21720099D01*
X57207007Y-21785925D01*
X57214822Y-21788019D01*
X56668918Y-22333922D01*
X56744856Y-22389095D01*
X56922315Y-22479515D01*
X56973111Y-22527489D01*
X56989906Y-22595310D01*
X56967369Y-22661445D01*
X56922315Y-22700485D01*
X56744855Y-22790905D01*
X56744846Y-22790911D01*
X56668919Y-22846075D01*
X56668918Y-22846076D01*
X57214823Y-23391980D01*
X57207007Y-23394075D01*
X57092993Y-23459901D01*
X56999901Y-23552993D01*
X56934075Y-23667007D01*
X56931980Y-23674822D01*
X56386076Y-23128918D01*
X56386075Y-23128919D01*
X56330911Y-23204846D01*
X56330905Y-23204855D01*
X56241581Y-23380164D01*
X56180778Y-23567294D01*
X56150000Y-23761617D01*
X56150000Y-23958382D01*
X56180778Y-24152705D01*
X56241581Y-24339835D01*
X56330904Y-24515143D01*
X56386076Y-24591079D01*
X56386077Y-24591080D01*
X56931980Y-24045176D01*
X56934075Y-24052993D01*
X56999901Y-24167007D01*
X57092993Y-24260099D01*
X57207007Y-24325925D01*
X57214822Y-24328019D01*
X56668918Y-24873922D01*
X56744856Y-24929095D01*
X56922315Y-25019515D01*
X56973111Y-25067489D01*
X56989906Y-25135310D01*
X56967369Y-25201445D01*
X56922315Y-25240485D01*
X56744855Y-25330905D01*
X56744846Y-25330911D01*
X56668919Y-25386075D01*
X56668918Y-25386076D01*
X57214823Y-25931980D01*
X57207007Y-25934075D01*
X57092993Y-25999901D01*
X56999901Y-26092993D01*
X56934075Y-26207007D01*
X56931980Y-26214822D01*
X56386076Y-25668918D01*
X56386075Y-25668919D01*
X56330911Y-25744846D01*
X56330905Y-25744855D01*
X56241581Y-25920164D01*
X56180778Y-26107294D01*
X56150000Y-26301617D01*
X56150000Y-26498382D01*
X56180778Y-26692705D01*
X56241581Y-26879835D01*
X56330904Y-27055143D01*
X56386076Y-27131079D01*
X56386077Y-27131080D01*
X56931980Y-26585176D01*
X56934075Y-26592993D01*
X56999901Y-26707007D01*
X57092993Y-26800099D01*
X57207007Y-26865925D01*
X57214822Y-26868019D01*
X56668918Y-27413922D01*
X56744856Y-27469095D01*
X56920164Y-27558418D01*
X57107294Y-27619221D01*
X57301618Y-27650000D01*
X57498382Y-27650000D01*
X57692705Y-27619221D01*
X57879835Y-27558418D01*
X58055143Y-27469095D01*
X58131079Y-27413922D01*
X58131080Y-27413921D01*
X57585178Y-26868019D01*
X57592993Y-26865925D01*
X57707007Y-26800099D01*
X57800099Y-26707007D01*
X57865925Y-26592993D01*
X57868019Y-26585177D01*
X58413921Y-27131080D01*
X58413922Y-27131079D01*
X58469095Y-27055143D01*
X58558418Y-26879835D01*
X58619221Y-26692705D01*
X58650000Y-26498382D01*
X58650000Y-26301617D01*
X58619221Y-26107294D01*
X58558418Y-25920164D01*
X58469095Y-25744856D01*
X58413922Y-25668919D01*
X58413922Y-25668918D01*
X57868018Y-26214821D01*
X57865925Y-26207007D01*
X57800099Y-26092993D01*
X57707007Y-25999901D01*
X57592993Y-25934075D01*
X57585177Y-25931980D01*
X58131080Y-25386077D01*
X58131079Y-25386076D01*
X58055141Y-25330902D01*
X57877685Y-25240485D01*
X57826888Y-25192511D01*
X57810093Y-25124690D01*
X57832630Y-25058555D01*
X57877685Y-25019515D01*
X58055140Y-24929097D01*
X58055141Y-24929097D01*
X58131079Y-24873922D01*
X58131080Y-24873921D01*
X57585178Y-24328019D01*
X57592993Y-24325925D01*
X57707007Y-24260099D01*
X57800099Y-24167007D01*
X57865925Y-24052993D01*
X57868019Y-24045177D01*
X58413921Y-24591080D01*
X58413922Y-24591079D01*
X58469095Y-24515143D01*
X58558418Y-24339835D01*
X58619221Y-24152705D01*
X58650000Y-23958382D01*
X58650000Y-23761617D01*
X58619221Y-23567294D01*
X58558418Y-23380164D01*
X58469095Y-23204856D01*
X58413922Y-23128919D01*
X58413922Y-23128918D01*
X57868018Y-23674821D01*
X57865925Y-23667007D01*
X57800099Y-23552993D01*
X57707007Y-23459901D01*
X57592993Y-23394075D01*
X57585177Y-23391980D01*
X58131080Y-22846077D01*
X58131079Y-22846076D01*
X58055141Y-22790902D01*
X57877685Y-22700485D01*
X57826888Y-22652511D01*
X57810093Y-22584690D01*
X57832630Y-22518555D01*
X57877685Y-22479515D01*
X58055140Y-22389097D01*
X58055141Y-22389097D01*
X58131079Y-22333922D01*
X58131080Y-22333921D01*
X57585178Y-21788019D01*
X57592993Y-21785925D01*
X57707007Y-21720099D01*
X57800099Y-21627007D01*
X57865925Y-21512993D01*
X57868019Y-21505177D01*
X58413921Y-22051080D01*
X58413922Y-22051079D01*
X58469095Y-21975143D01*
X58558418Y-21799835D01*
X58619221Y-21612705D01*
X58650000Y-21418382D01*
X58650000Y-21221617D01*
X58619221Y-21027294D01*
X58558418Y-20840164D01*
X58469095Y-20664856D01*
X58413922Y-20588919D01*
X58413922Y-20588918D01*
X57868018Y-21134821D01*
X57865925Y-21127007D01*
X57800099Y-21012993D01*
X57707007Y-20919901D01*
X57592993Y-20854075D01*
X57585177Y-20851980D01*
X58131080Y-20306077D01*
X58131079Y-20306076D01*
X58055143Y-20250904D01*
X57879837Y-20161582D01*
X57738386Y-20115621D01*
X57680711Y-20076183D01*
X57653513Y-20011824D01*
X57665428Y-19942978D01*
X57712672Y-19891502D01*
X57738388Y-19879759D01*
X57841633Y-19846213D01*
X57841639Y-19846211D01*
X57851311Y-19841283D01*
X58002994Y-19763996D01*
X58149501Y-19657553D01*
X58277553Y-19529501D01*
X58383996Y-19382994D01*
X58466211Y-19221639D01*
X58522171Y-19049409D01*
X58536765Y-18957259D01*
X58550500Y-18870551D01*
X58550500Y-18689448D01*
X58534019Y-18585397D01*
X58522171Y-18510591D01*
X58479578Y-18379500D01*
X58466212Y-18338363D01*
X58466211Y-18338360D01*
X58412484Y-18232917D01*
X58383996Y-18177006D01*
X58334773Y-18109256D01*
X58277558Y-18030505D01*
X58277554Y-18030500D01*
X58149499Y-17902445D01*
X58149494Y-17902441D01*
X58002997Y-17796006D01*
X58002996Y-17796005D01*
X58002994Y-17796004D01*
X57868205Y-17727325D01*
X57857140Y-17716875D01*
X57843297Y-17710553D01*
X57832255Y-17693372D01*
X57817409Y-17679350D01*
X57813167Y-17663670D01*
X57805523Y-17651775D01*
X57800500Y-17616840D01*
X57800500Y-17403159D01*
X57820185Y-17336120D01*
X57868202Y-17292675D01*
X58002994Y-17223996D01*
X58149501Y-17117553D01*
X58277553Y-16989501D01*
X58383996Y-16842994D01*
X58466211Y-16681639D01*
X58522171Y-16509409D01*
X58542814Y-16379073D01*
X58550500Y-16330551D01*
X58550500Y-16149448D01*
X58523661Y-15980000D01*
X58522171Y-15970591D01*
X58466211Y-15798361D01*
X58466211Y-15798360D01*
X58419566Y-15706816D01*
X58383996Y-15637006D01*
X58335234Y-15569890D01*
X58277558Y-15490505D01*
X58277554Y-15490500D01*
X58149499Y-15362445D01*
X58149494Y-15362441D01*
X58002997Y-15256006D01*
X58002996Y-15256005D01*
X58002994Y-15256004D01*
X57868205Y-15187325D01*
X57857140Y-15176875D01*
X57843297Y-15170553D01*
X57832255Y-15153372D01*
X57817409Y-15139350D01*
X57813167Y-15123670D01*
X57805523Y-15111775D01*
X57800500Y-15076840D01*
X57800500Y-14974499D01*
X57820185Y-14907460D01*
X57872989Y-14861705D01*
X57924500Y-14850499D01*
X58294856Y-14850499D01*
X58294864Y-14850499D01*
X58294879Y-14850497D01*
X58294882Y-14850497D01*
X58319987Y-14847586D01*
X58319988Y-14847585D01*
X58319991Y-14847585D01*
X58422765Y-14802206D01*
X58502206Y-14722765D01*
X58547585Y-14619991D01*
X58550500Y-14594865D01*
X58550499Y-12805136D01*
X58550497Y-12805117D01*
X58547586Y-12780012D01*
X58547585Y-12780010D01*
X58547585Y-12780009D01*
X58502206Y-12677235D01*
X58422765Y-12597794D01*
X58410284Y-12592283D01*
X58319992Y-12552415D01*
X58294868Y-12549500D01*
X56523853Y-12549500D01*
X56456814Y-12529815D01*
X56411059Y-12477011D01*
X56401115Y-12407853D01*
X56430140Y-12344297D01*
X56436158Y-12337833D01*
X57797849Y-10976143D01*
X59384200Y-10976143D01*
X59384200Y-11134257D01*
X59406878Y-11218890D01*
X59425123Y-11286983D01*
X59425126Y-11286990D01*
X59504175Y-11423909D01*
X59504179Y-11423914D01*
X59504180Y-11423916D01*
X59615984Y-11535720D01*
X59615986Y-11535721D01*
X59615990Y-11535724D01*
X59752909Y-11614773D01*
X59752916Y-11614777D01*
X59905643Y-11655700D01*
X59905645Y-11655700D01*
X60063755Y-11655700D01*
X60063757Y-11655700D01*
X60216484Y-11614777D01*
X60353416Y-11535720D01*
X60465220Y-11423916D01*
X60544277Y-11286984D01*
X60585200Y-11134257D01*
X60585200Y-10976143D01*
X60544277Y-10823416D01*
X60504956Y-10755309D01*
X60465224Y-10686490D01*
X60465218Y-10686482D01*
X60421519Y-10642783D01*
X60388034Y-10581460D01*
X60385200Y-10555102D01*
X60385200Y-6143954D01*
X60404885Y-6076915D01*
X60421519Y-6056273D01*
X60882794Y-5594998D01*
X61352004Y-5125787D01*
X61413325Y-5092304D01*
X61483016Y-5097288D01*
X61538950Y-5139160D01*
X61562156Y-5194071D01*
X61585216Y-5339661D01*
X61655770Y-5556803D01*
X61725620Y-5693890D01*
X61759421Y-5760228D01*
X61893621Y-5944937D01*
X62055063Y-6106379D01*
X62239772Y-6240579D01*
X62335884Y-6289550D01*
X62443196Y-6344229D01*
X62443198Y-6344229D01*
X62443201Y-6344231D01*
X62513812Y-6367174D01*
X62660339Y-6414784D01*
X62885838Y-6450500D01*
X62885843Y-6450500D01*
X63114162Y-6450500D01*
X63339660Y-6414784D01*
X63364814Y-6406611D01*
X63556799Y-6344231D01*
X63760228Y-6240579D01*
X63944937Y-6106379D01*
X64106379Y-5944937D01*
X64240579Y-5760228D01*
X64344231Y-5556799D01*
X64414784Y-5339660D01*
X64423783Y-5282842D01*
X64450500Y-5114162D01*
X64450500Y-4885837D01*
X64414784Y-4660339D01*
X64369146Y-4519881D01*
X64344231Y-4443201D01*
X64344229Y-4443198D01*
X64344229Y-4443196D01*
X64310521Y-4377041D01*
X64297625Y-4308372D01*
X64323901Y-4243631D01*
X64333307Y-4233084D01*
X64590974Y-3975416D01*
X64652296Y-3941934D01*
X64678654Y-3939100D01*
X65234509Y-3939100D01*
X65301548Y-3958785D01*
X65347303Y-4011589D01*
X65357247Y-4080747D01*
X65334827Y-4135984D01*
X65305449Y-4176420D01*
X65259421Y-4239771D01*
X65155770Y-4443196D01*
X65085215Y-4660339D01*
X65049500Y-4885837D01*
X65049500Y-5114162D01*
X65085215Y-5339660D01*
X65155770Y-5556803D01*
X65225620Y-5693890D01*
X65259421Y-5760228D01*
X65393621Y-5944937D01*
X65555063Y-6106379D01*
X65739772Y-6240579D01*
X65943201Y-6344231D01*
X66013818Y-6367175D01*
X66071492Y-6406611D01*
X66098692Y-6470969D01*
X66099500Y-6485106D01*
X66099500Y-9654326D01*
X66126793Y-9756189D01*
X66142509Y-9783409D01*
X66179520Y-9847513D01*
X66179522Y-9847515D01*
X67248681Y-10916674D01*
X67282166Y-10977997D01*
X67285000Y-11004355D01*
X67285000Y-11066157D01*
X67303248Y-11134257D01*
X67325923Y-11218883D01*
X67325926Y-11218890D01*
X67404975Y-11355809D01*
X67404979Y-11355814D01*
X67404980Y-11355816D01*
X67516784Y-11467620D01*
X67516786Y-11467621D01*
X67516790Y-11467624D01*
X67653709Y-11546673D01*
X67653716Y-11546677D01*
X67806443Y-11587600D01*
X67806445Y-11587600D01*
X67964555Y-11587600D01*
X67964557Y-11587600D01*
X68117284Y-11546677D01*
X68254216Y-11467620D01*
X68366020Y-11355816D01*
X68445077Y-11218884D01*
X68486000Y-11066157D01*
X68486000Y-10908043D01*
X68445077Y-10755316D01*
X68380107Y-10642783D01*
X68366024Y-10618390D01*
X68366018Y-10618382D01*
X68254217Y-10506581D01*
X68254209Y-10506575D01*
X68117290Y-10427526D01*
X68117286Y-10427524D01*
X68117284Y-10427523D01*
X67964557Y-10386600D01*
X67964556Y-10386600D01*
X67902755Y-10386600D01*
X67835716Y-10366915D01*
X67815074Y-10350281D01*
X66936819Y-9472026D01*
X66903334Y-9410703D01*
X66900500Y-9384345D01*
X66900500Y-6485106D01*
X66920185Y-6418067D01*
X66972989Y-6372312D01*
X66986169Y-6367179D01*
X67056799Y-6344231D01*
X67260228Y-6240579D01*
X67444937Y-6106379D01*
X67467919Y-6083397D01*
X67529242Y-6049912D01*
X67598934Y-6054896D01*
X67654867Y-6096768D01*
X67679284Y-6162232D01*
X67679600Y-6171078D01*
X67679600Y-8146726D01*
X67706893Y-8248589D01*
X67733256Y-8294250D01*
X67759620Y-8339913D01*
X67759622Y-8339915D01*
X70404481Y-10984774D01*
X70437966Y-11046097D01*
X70440800Y-11072455D01*
X70440800Y-11134257D01*
X70463478Y-11218890D01*
X70481723Y-11286983D01*
X70481726Y-11286990D01*
X70560775Y-11423909D01*
X70560779Y-11423914D01*
X70560780Y-11423916D01*
X70672584Y-11535720D01*
X70672586Y-11535721D01*
X70672590Y-11535724D01*
X70809509Y-11614773D01*
X70809516Y-11614777D01*
X70962243Y-11655700D01*
X70962245Y-11655700D01*
X71120355Y-11655700D01*
X71120357Y-11655700D01*
X71273084Y-11614777D01*
X71410016Y-11535720D01*
X71521820Y-11423916D01*
X71600877Y-11286984D01*
X71641800Y-11134257D01*
X71641800Y-10976143D01*
X71600877Y-10823416D01*
X71561556Y-10755309D01*
X71521824Y-10686490D01*
X71521818Y-10686482D01*
X71410017Y-10574681D01*
X71410009Y-10574675D01*
X71273090Y-10495626D01*
X71273086Y-10495624D01*
X71273084Y-10495623D01*
X71120357Y-10454700D01*
X71120356Y-10454700D01*
X71058555Y-10454700D01*
X70991516Y-10435015D01*
X70970874Y-10418381D01*
X68516919Y-7964426D01*
X68483434Y-7903103D01*
X68480600Y-7876745D01*
X68480600Y-6149720D01*
X68500285Y-6082681D01*
X68553089Y-6036926D01*
X68622247Y-6026982D01*
X68685803Y-6056007D01*
X68701238Y-6072023D01*
X68802278Y-6197722D01*
X68802280Y-6197724D01*
X68950704Y-6317030D01*
X68950707Y-6317032D01*
X69121302Y-6401639D01*
X69121303Y-6401639D01*
X69121307Y-6401641D01*
X69306111Y-6447600D01*
X69348877Y-6450500D01*
X70651122Y-6450499D01*
X70693889Y-6447600D01*
X70878693Y-6401641D01*
X71049296Y-6317030D01*
X71197722Y-6197722D01*
X71317030Y-6049296D01*
X71401641Y-5878693D01*
X71447600Y-5693889D01*
X71450500Y-5651123D01*
X71450499Y-4878006D01*
X79950000Y-4878006D01*
X79950000Y-5121993D01*
X79988165Y-5362959D01*
X80063560Y-5594998D01*
X80174323Y-5812380D01*
X80271298Y-5945856D01*
X80271299Y-5945856D01*
X80957241Y-5259914D01*
X81019881Y-5368408D01*
X81131592Y-5480119D01*
X81240084Y-5542757D01*
X80554141Y-6228699D01*
X80554142Y-6228700D01*
X80687619Y-6325676D01*
X80905001Y-6436439D01*
X81137040Y-6511834D01*
X81378007Y-6550000D01*
X81621993Y-6550000D01*
X81862959Y-6511834D01*
X82094998Y-6436439D01*
X82312377Y-6325678D01*
X82445856Y-6228699D01*
X82445857Y-6228698D01*
X81759916Y-5542757D01*
X81868408Y-5480119D01*
X81980119Y-5368408D01*
X82042757Y-5259915D01*
X82728698Y-5945857D01*
X82728699Y-5945856D01*
X82825678Y-5812377D01*
X82936439Y-5594998D01*
X83011834Y-5362959D01*
X83050000Y-5121993D01*
X83050000Y-4885837D01*
X83549500Y-4885837D01*
X83549500Y-5114162D01*
X83585215Y-5339660D01*
X83655770Y-5556803D01*
X83725620Y-5693890D01*
X83759421Y-5760228D01*
X83893621Y-5944937D01*
X84055063Y-6106379D01*
X84239772Y-6240579D01*
X84335884Y-6289550D01*
X84443196Y-6344229D01*
X84443198Y-6344229D01*
X84443201Y-6344231D01*
X84513812Y-6367174D01*
X84660339Y-6414784D01*
X84885838Y-6450500D01*
X84885843Y-6450500D01*
X85114162Y-6450500D01*
X85339660Y-6414784D01*
X85364814Y-6406611D01*
X85556799Y-6344231D01*
X85760228Y-6240579D01*
X85944937Y-6106379D01*
X86106379Y-5944937D01*
X86240579Y-5760228D01*
X86344231Y-5556799D01*
X86414784Y-5339660D01*
X86423783Y-5282842D01*
X86450500Y-5114162D01*
X86450500Y-4885837D01*
X86414784Y-4660339D01*
X86369146Y-4519881D01*
X86344231Y-4443201D01*
X86344229Y-4443198D01*
X86344229Y-4443196D01*
X86323785Y-4403073D01*
X86296172Y-4348879D01*
X87049500Y-4348879D01*
X87049500Y-5651122D01*
X87049501Y-5651125D01*
X87052399Y-5693886D01*
X87052399Y-5693887D01*
X87098360Y-5878696D01*
X87182967Y-6049292D01*
X87182969Y-6049295D01*
X87302277Y-6197721D01*
X87302278Y-6197722D01*
X87450704Y-6317030D01*
X87450707Y-6317032D01*
X87621302Y-6401639D01*
X87621303Y-6401639D01*
X87621307Y-6401641D01*
X87806111Y-6447600D01*
X87848877Y-6450500D01*
X89151122Y-6450499D01*
X89193889Y-6447600D01*
X89378693Y-6401641D01*
X89549296Y-6317030D01*
X89697722Y-6197722D01*
X89817030Y-6049296D01*
X89901641Y-5878693D01*
X89947600Y-5693889D01*
X89950500Y-5651123D01*
X89950499Y-4878006D01*
X98450000Y-4878006D01*
X98450000Y-5121993D01*
X98488165Y-5362959D01*
X98563560Y-5594998D01*
X98674323Y-5812380D01*
X98771298Y-5945856D01*
X98771299Y-5945856D01*
X99457241Y-5259914D01*
X99519881Y-5368408D01*
X99631592Y-5480119D01*
X99740084Y-5542757D01*
X99054141Y-6228699D01*
X99054142Y-6228700D01*
X99187619Y-6325676D01*
X99405001Y-6436439D01*
X99637040Y-6511834D01*
X99878007Y-6550000D01*
X100121993Y-6550000D01*
X100362959Y-6511834D01*
X100594998Y-6436439D01*
X100812377Y-6325678D01*
X100945856Y-6228699D01*
X100945857Y-6228698D01*
X100259916Y-5542757D01*
X100368408Y-5480119D01*
X100480119Y-5368408D01*
X100542757Y-5259915D01*
X101228698Y-5945857D01*
X101228699Y-5945856D01*
X101325678Y-5812377D01*
X101436439Y-5594998D01*
X101511834Y-5362959D01*
X101550000Y-5121993D01*
X101550000Y-4878006D01*
X101511834Y-4637040D01*
X101436439Y-4405001D01*
X101325676Y-4187619D01*
X101228700Y-4054142D01*
X101228699Y-4054141D01*
X100542757Y-4740083D01*
X100480119Y-4631592D01*
X100368408Y-4519881D01*
X100259915Y-4457242D01*
X100945856Y-3771299D01*
X100945856Y-3771298D01*
X100812380Y-3674323D01*
X100594998Y-3563560D01*
X100362959Y-3488165D01*
X100121993Y-3450000D01*
X99878007Y-3450000D01*
X99637040Y-3488165D01*
X99405001Y-3563560D01*
X99187626Y-3674319D01*
X99054142Y-3771299D01*
X99740085Y-4457242D01*
X99631592Y-4519881D01*
X99519881Y-4631592D01*
X99457242Y-4740085D01*
X98771299Y-4054142D01*
X98674319Y-4187626D01*
X98563560Y-4405001D01*
X98488165Y-4637040D01*
X98450000Y-4878006D01*
X89950499Y-4878006D01*
X89950499Y-4348878D01*
X89947600Y-4306111D01*
X89901641Y-4121307D01*
X89868786Y-4055061D01*
X89817033Y-3950709D01*
X89817031Y-3950707D01*
X89817030Y-3950704D01*
X89697722Y-3802278D01*
X89659183Y-3771299D01*
X89549295Y-3682969D01*
X89549292Y-3682967D01*
X89378697Y-3598360D01*
X89193892Y-3552400D01*
X89172506Y-3550950D01*
X89151123Y-3549500D01*
X89151120Y-3549500D01*
X87848877Y-3549500D01*
X87848874Y-3549501D01*
X87806113Y-3552399D01*
X87806112Y-3552399D01*
X87621303Y-3598360D01*
X87450707Y-3682967D01*
X87450704Y-3682969D01*
X87302278Y-3802277D01*
X87302277Y-3802278D01*
X87182969Y-3950704D01*
X87182967Y-3950707D01*
X87098360Y-4121302D01*
X87052400Y-4306107D01*
X87049500Y-4348879D01*
X86296172Y-4348879D01*
X86240578Y-4239771D01*
X86197002Y-4179794D01*
X86106379Y-4055063D01*
X85944937Y-3893621D01*
X85760228Y-3759421D01*
X85703228Y-3730378D01*
X85556803Y-3655770D01*
X85339660Y-3585215D01*
X85114162Y-3549500D01*
X85114157Y-3549500D01*
X84885843Y-3549500D01*
X84885838Y-3549500D01*
X84660339Y-3585215D01*
X84443196Y-3655770D01*
X84239771Y-3759421D01*
X84055061Y-3893622D01*
X83893622Y-4055061D01*
X83759421Y-4239771D01*
X83655770Y-4443196D01*
X83585215Y-4660339D01*
X83549500Y-4885837D01*
X83050000Y-4885837D01*
X83050000Y-4878006D01*
X83011834Y-4637040D01*
X82936439Y-4405001D01*
X82825676Y-4187619D01*
X82728700Y-4054142D01*
X82728699Y-4054141D01*
X82042757Y-4740083D01*
X81980119Y-4631592D01*
X81868408Y-4519881D01*
X81759915Y-4457242D01*
X82445856Y-3771299D01*
X82445856Y-3771298D01*
X82312380Y-3674323D01*
X82094998Y-3563560D01*
X81862959Y-3488165D01*
X81621993Y-3450000D01*
X81378007Y-3450000D01*
X81137040Y-3488165D01*
X80905001Y-3563560D01*
X80687626Y-3674319D01*
X80554142Y-3771299D01*
X81240085Y-4457242D01*
X81131592Y-4519881D01*
X81019881Y-4631592D01*
X80957242Y-4740085D01*
X80271299Y-4054142D01*
X80174319Y-4187626D01*
X80063560Y-4405001D01*
X79988165Y-4637040D01*
X79950000Y-4878006D01*
X71450499Y-4878006D01*
X71450499Y-4348878D01*
X71447600Y-4306111D01*
X71401641Y-4121307D01*
X71368786Y-4055061D01*
X71317033Y-3950709D01*
X71317031Y-3950707D01*
X71317030Y-3950704D01*
X71197722Y-3802278D01*
X71159183Y-3771299D01*
X71049295Y-3682969D01*
X71049292Y-3682967D01*
X70878697Y-3598360D01*
X70693892Y-3552400D01*
X70672506Y-3550950D01*
X70651123Y-3549500D01*
X70651120Y-3549500D01*
X69348877Y-3549500D01*
X69348874Y-3549501D01*
X69306113Y-3552399D01*
X69306106Y-3552400D01*
X69224130Y-3572786D01*
X69154322Y-3569862D01*
X69106525Y-3540132D01*
X68339015Y-2772622D01*
X68339013Y-2772620D01*
X68293350Y-2746256D01*
X68247689Y-2719893D01*
X68168660Y-2698718D01*
X68145827Y-2692600D01*
X68145826Y-2692600D01*
X62878639Y-2692600D01*
X62878623Y-2692599D01*
X62871027Y-2692599D01*
X62765573Y-2692599D01*
X62714800Y-2706204D01*
X62663712Y-2719893D01*
X62572384Y-2772622D01*
X59664222Y-5680784D01*
X59664218Y-5680790D01*
X59611492Y-5772112D01*
X59611493Y-5772113D01*
X59584200Y-5873973D01*
X59584200Y-10555102D01*
X59564515Y-10622141D01*
X59547881Y-10642783D01*
X59504181Y-10686482D01*
X59504175Y-10686490D01*
X59425126Y-10823409D01*
X59425123Y-10823416D01*
X59384200Y-10976143D01*
X57797849Y-10976143D01*
X58121973Y-10652019D01*
X58183296Y-10618534D01*
X58209654Y-10615700D01*
X58271455Y-10615700D01*
X58271457Y-10615700D01*
X58424184Y-10574777D01*
X58561116Y-10495720D01*
X58672920Y-10383916D01*
X58751977Y-10246984D01*
X58792900Y-10094257D01*
X58792900Y-9936143D01*
X58751977Y-9783416D01*
X58736257Y-9756188D01*
X58672924Y-9646490D01*
X58672918Y-9646482D01*
X58561117Y-9534681D01*
X58561109Y-9534675D01*
X58424190Y-9455626D01*
X58424186Y-9455624D01*
X58424184Y-9455623D01*
X58271457Y-9414700D01*
X58113343Y-9414700D01*
X57960616Y-9455623D01*
X57960609Y-9455626D01*
X57823690Y-9534675D01*
X57823682Y-9534681D01*
X57711881Y-9646482D01*
X57711875Y-9646490D01*
X57632826Y-9783409D01*
X57632823Y-9783416D01*
X57591900Y-9936143D01*
X57591900Y-9997945D01*
X57572215Y-10064984D01*
X57555581Y-10085626D01*
X40637422Y-27003784D01*
X40637420Y-27003787D01*
X40584691Y-27095113D01*
X40564870Y-27169095D01*
X40561165Y-27182923D01*
X40560122Y-27186816D01*
X40557400Y-27196973D01*
X40557400Y-31301826D01*
X40584693Y-31403689D01*
X40588157Y-31409688D01*
X40637420Y-31495013D01*
X40920282Y-31777874D01*
X40953766Y-31839195D01*
X40956600Y-31865554D01*
X40956600Y-39387302D01*
X40936915Y-39454341D01*
X40920281Y-39474983D01*
X40876581Y-39518682D01*
X40876575Y-39518690D01*
X40797526Y-39655609D01*
X40797523Y-39655616D01*
X40756600Y-39808343D01*
X40756600Y-39968100D01*
X40736915Y-40035139D01*
X40684111Y-40080894D01*
X40632600Y-40092100D01*
X39836154Y-40092100D01*
X39769115Y-40072415D01*
X39748473Y-40055781D01*
X37485511Y-37792819D01*
X35188813Y-35496120D01*
X35143150Y-35469756D01*
X35097489Y-35443393D01*
X35021005Y-35422900D01*
X34995627Y-35416100D01*
X34995626Y-35416100D01*
X31132255Y-35416100D01*
X31065216Y-35396415D01*
X31044574Y-35379781D01*
X30524815Y-34860022D01*
X30524813Y-34860020D01*
X30479150Y-34833656D01*
X30433489Y-34807293D01*
X30372960Y-34791075D01*
X30331627Y-34780000D01*
X25505227Y-34780000D01*
X25399773Y-34780000D01*
X25297910Y-34807293D01*
X25206587Y-34860020D01*
X25206584Y-34860022D01*
X24658826Y-35407781D01*
X24597503Y-35441266D01*
X24571145Y-35444100D01*
X24509343Y-35444100D01*
X24356616Y-35485023D01*
X24356609Y-35485026D01*
X24219690Y-35564075D01*
X24219682Y-35564081D01*
X24107881Y-35675882D01*
X24107875Y-35675890D01*
X24028826Y-35812809D01*
X24028823Y-35812816D01*
X23987900Y-35965543D01*
X23987900Y-36123657D01*
X24026742Y-36268615D01*
X24028823Y-36276383D01*
X24028826Y-36276390D01*
X24107875Y-36413309D01*
X24107879Y-36413314D01*
X24107880Y-36413316D01*
X24219684Y-36525120D01*
X24219686Y-36525121D01*
X24219690Y-36525124D01*
X24333919Y-36591073D01*
X24356616Y-36604177D01*
X24509343Y-36645100D01*
X24509345Y-36645100D01*
X24667455Y-36645100D01*
X24667457Y-36645100D01*
X24820184Y-36604177D01*
X24957116Y-36525120D01*
X25068920Y-36413316D01*
X25147977Y-36276384D01*
X25188900Y-36123657D01*
X25188900Y-36061855D01*
X25208585Y-35994816D01*
X25225219Y-35974174D01*
X25582074Y-35617319D01*
X25643397Y-35583834D01*
X25669755Y-35581000D01*
X29315232Y-35581000D01*
X29324569Y-35583741D01*
X29334217Y-35582462D01*
X29357543Y-35593424D01*
X29382271Y-35600685D01*
X29388643Y-35608039D01*
X29397452Y-35612179D01*
X29411149Y-35634012D01*
X29428026Y-35653489D01*
X29430400Y-35664698D01*
X29434583Y-35671365D01*
X29436008Y-35691170D01*
X29439225Y-35706353D01*
X29439111Y-35716789D01*
X29438400Y-35719443D01*
X29438400Y-35781956D01*
X29438393Y-35782598D01*
X29428358Y-35815443D01*
X29418715Y-35848284D01*
X29418086Y-35849063D01*
X29417978Y-35849419D01*
X29417417Y-35849893D01*
X29402081Y-35868926D01*
X22674522Y-42596484D01*
X22674520Y-42596487D01*
X22621793Y-42687811D01*
X22600600Y-42766907D01*
X22594500Y-42789671D01*
X22594500Y-49339702D01*
X22585855Y-49369139D01*
X22579332Y-49399130D01*
X22575577Y-49404145D01*
X22574815Y-49406741D01*
X22558181Y-49427383D01*
X22558180Y-49427384D01*
X22513658Y-49471905D01*
X22452335Y-49505390D01*
X22382643Y-49500404D01*
X22338297Y-49471904D01*
X21427419Y-48561026D01*
X21393934Y-48499703D01*
X21391100Y-48473345D01*
X21391100Y-37852955D01*
X21410785Y-37785916D01*
X21427419Y-37765274D01*
X22524374Y-36668319D01*
X22585697Y-36634834D01*
X22612055Y-36632000D01*
X22673855Y-36632000D01*
X22673857Y-36632000D01*
X22826584Y-36591077D01*
X22963516Y-36512020D01*
X23075320Y-36400216D01*
X23154377Y-36263284D01*
X23195300Y-36110557D01*
X23195300Y-35952443D01*
X23154377Y-35799716D01*
X23154373Y-35799709D01*
X23075324Y-35662790D01*
X23075318Y-35662782D01*
X22963517Y-35550981D01*
X22963509Y-35550975D01*
X22826590Y-35471926D01*
X22826586Y-35471924D01*
X22826584Y-35471923D01*
X22673857Y-35431000D01*
X22515743Y-35431000D01*
X22363016Y-35471923D01*
X22363009Y-35471926D01*
X22226090Y-35550975D01*
X22226082Y-35550981D01*
X22114281Y-35662782D01*
X22114275Y-35662790D01*
X22035226Y-35799709D01*
X22035223Y-35799716D01*
X21994300Y-35952443D01*
X21994300Y-36014245D01*
X21974615Y-36081284D01*
X21957981Y-36101926D01*
X20670122Y-37389784D01*
X20670120Y-37389787D01*
X20617393Y-37481112D01*
X20602448Y-37536888D01*
X20602448Y-37536889D01*
X20602447Y-37536888D01*
X20590100Y-37582969D01*
X20590100Y-47992345D01*
X20570415Y-48059384D01*
X20517611Y-48105139D01*
X20448453Y-48115083D01*
X20384897Y-48086058D01*
X20378419Y-48080026D01*
X17604819Y-45306426D01*
X17571334Y-45245103D01*
X17568500Y-45218745D01*
X17568500Y-42125098D01*
X17588185Y-42058059D01*
X17604819Y-42037417D01*
X17623204Y-42019032D01*
X17648520Y-41993716D01*
X17727577Y-41856784D01*
X17768500Y-41704057D01*
X17768500Y-41545943D01*
X17727577Y-41393216D01*
X17726480Y-41391316D01*
X17648524Y-41256290D01*
X17648518Y-41256282D01*
X17536717Y-41144481D01*
X17536709Y-41144475D01*
X17428974Y-41082275D01*
X17380758Y-41031709D01*
X17367534Y-40963102D01*
X17371199Y-40942792D01*
X17371708Y-40940893D01*
X17376300Y-40923757D01*
X17376300Y-40765643D01*
X17335377Y-40612916D01*
X17270004Y-40499685D01*
X17257170Y-40477456D01*
X17240697Y-40409555D01*
X17257169Y-40353458D01*
X17324877Y-40236184D01*
X17365800Y-40083457D01*
X17365800Y-39925343D01*
X17324877Y-39772616D01*
X17314162Y-39754057D01*
X17245824Y-39635690D01*
X17245818Y-39635682D01*
X17134017Y-39523881D01*
X17134009Y-39523875D01*
X16997090Y-39444826D01*
X16997086Y-39444824D01*
X16997084Y-39444823D01*
X16844357Y-39403900D01*
X16686243Y-39403900D01*
X16686241Y-39403900D01*
X16616664Y-39422543D01*
X16546815Y-39420880D01*
X16488952Y-39381717D01*
X16477189Y-39364774D01*
X16443420Y-39306284D01*
X16331616Y-39194480D01*
X16331615Y-39194479D01*
X16331612Y-39194477D01*
X16199867Y-39118415D01*
X16151652Y-39067849D01*
X16138428Y-38999242D01*
X16164396Y-38934377D01*
X16199866Y-38903641D01*
X16283216Y-38855520D01*
X16395020Y-38743716D01*
X16474077Y-38606784D01*
X16515000Y-38454057D01*
X16515000Y-38295943D01*
X16474077Y-38143216D01*
X16471484Y-38138725D01*
X16395024Y-38006290D01*
X16395018Y-38006282D01*
X16304517Y-37915781D01*
X16271032Y-37854458D01*
X16276016Y-37784766D01*
X16304517Y-37740419D01*
X16332739Y-37712197D01*
X16364520Y-37680416D01*
X16443577Y-37543484D01*
X16484500Y-37390757D01*
X16484500Y-37232643D01*
X16443577Y-37079916D01*
X16439366Y-37072623D01*
X16364524Y-36942990D01*
X16364518Y-36942982D01*
X16252717Y-36831181D01*
X16252709Y-36831175D01*
X16115790Y-36752126D01*
X16115786Y-36752124D01*
X16115784Y-36752123D01*
X15963057Y-36711200D01*
X15804943Y-36711200D01*
X15652216Y-36752123D01*
X15652209Y-36752126D01*
X15515290Y-36831175D01*
X15515282Y-36831181D01*
X15403481Y-36942982D01*
X15403475Y-36942990D01*
X15324426Y-37079909D01*
X15324423Y-37079916D01*
X15283500Y-37232643D01*
X15283500Y-37294445D01*
X15274855Y-37323885D01*
X15268332Y-37353872D01*
X15264577Y-37358887D01*
X15263815Y-37361484D01*
X15247181Y-37382126D01*
X15095281Y-37534026D01*
X15033958Y-37567511D01*
X14964266Y-37562527D01*
X14908333Y-37520655D01*
X14883916Y-37455191D01*
X14883600Y-37446345D01*
X14883600Y-36921875D01*
X14883600Y-36921873D01*
X14860639Y-36836180D01*
X14858856Y-36829526D01*
X14858854Y-36829523D01*
X14856307Y-36820012D01*
X14803580Y-36728687D01*
X12065174Y-33990281D01*
X12031689Y-33928958D01*
X12036673Y-33859266D01*
X12078545Y-33803333D01*
X12144009Y-33778916D01*
X12152855Y-33778600D01*
X35998845Y-33778600D01*
X36065884Y-33798285D01*
X36086526Y-33814919D01*
X38246081Y-35974473D01*
X38279566Y-36035796D01*
X38282400Y-36062154D01*
X38282400Y-36123957D01*
X38323243Y-36276383D01*
X38323323Y-36276683D01*
X38323326Y-36276690D01*
X38402375Y-36413609D01*
X38402379Y-36413614D01*
X38402380Y-36413616D01*
X38514184Y-36525420D01*
X38514186Y-36525421D01*
X38514190Y-36525424D01*
X38627906Y-36591077D01*
X38651116Y-36604477D01*
X38803843Y-36645400D01*
X38803845Y-36645400D01*
X38961955Y-36645400D01*
X38961957Y-36645400D01*
X39114684Y-36604477D01*
X39251616Y-36525420D01*
X39363420Y-36413616D01*
X39442477Y-36276684D01*
X39483400Y-36123957D01*
X39483400Y-35965843D01*
X39442477Y-35813116D01*
X39431945Y-35794874D01*
X39363424Y-35676190D01*
X39363418Y-35676182D01*
X39251617Y-35564381D01*
X39251609Y-35564375D01*
X39114690Y-35485326D01*
X39114686Y-35485324D01*
X39114684Y-35485323D01*
X38961957Y-35444400D01*
X38961956Y-35444400D01*
X38900154Y-35444400D01*
X38833115Y-35424715D01*
X38812473Y-35408081D01*
X36462015Y-33057622D01*
X36462014Y-33057621D01*
X36462013Y-33057620D01*
X36398394Y-33020889D01*
X36370689Y-33004893D01*
X36300464Y-32986077D01*
X36268827Y-32977600D01*
X10580173Y-32977600D01*
X10478313Y-33004893D01*
X10478310Y-33004894D01*
X10450607Y-33020889D01*
X10431688Y-33031812D01*
X10426785Y-33034643D01*
X10386988Y-33057619D01*
X10386985Y-33057621D01*
X7842922Y-35601684D01*
X7842920Y-35601687D01*
X7800199Y-35675682D01*
X7790193Y-35693012D01*
X7771175Y-35763990D01*
X7768998Y-35772115D01*
X7762900Y-35794874D01*
X500500Y-35794874D01*
X500500Y-30123843D01*
X11736000Y-30123843D01*
X11736000Y-30281957D01*
X11767496Y-30399500D01*
X11776923Y-30434683D01*
X11776926Y-30434690D01*
X11855975Y-30571609D01*
X11855979Y-30571614D01*
X11855980Y-30571616D01*
X11967784Y-30683420D01*
X11967786Y-30683421D01*
X11967790Y-30683424D01*
X12056280Y-30734513D01*
X12104716Y-30762477D01*
X12257443Y-30803400D01*
X12257445Y-30803400D01*
X12415555Y-30803400D01*
X12415557Y-30803400D01*
X12568284Y-30762477D01*
X12705216Y-30683420D01*
X12748917Y-30639719D01*
X12810240Y-30606234D01*
X12836598Y-30603400D01*
X16762325Y-30603400D01*
X16762327Y-30603400D01*
X16864188Y-30576107D01*
X16955513Y-30523380D01*
X18744374Y-28734519D01*
X18805697Y-28701034D01*
X18832055Y-28698200D01*
X18893855Y-28698200D01*
X18893857Y-28698200D01*
X19046584Y-28657277D01*
X19183516Y-28578220D01*
X19295320Y-28466416D01*
X19374377Y-28329484D01*
X19415300Y-28176757D01*
X19415300Y-28018643D01*
X19374377Y-27865916D01*
X19352758Y-27828471D01*
X19295324Y-27728990D01*
X19295318Y-27728982D01*
X19183517Y-27617181D01*
X19183509Y-27617175D01*
X19046590Y-27538126D01*
X19046586Y-27538124D01*
X19046584Y-27538123D01*
X18893857Y-27497200D01*
X18735743Y-27497200D01*
X18583016Y-27538123D01*
X18583009Y-27538126D01*
X18446090Y-27617175D01*
X18446082Y-27617181D01*
X18334281Y-27728982D01*
X18334275Y-27728990D01*
X18255226Y-27865909D01*
X18255223Y-27865916D01*
X18214300Y-28018643D01*
X18214300Y-28080445D01*
X18194615Y-28147484D01*
X18177981Y-28168126D01*
X16580026Y-29766081D01*
X16518703Y-29799566D01*
X16492345Y-29802400D01*
X12836598Y-29802400D01*
X12769559Y-29782715D01*
X12748917Y-29766081D01*
X12705217Y-29722381D01*
X12705209Y-29722375D01*
X12568290Y-29643326D01*
X12568286Y-29643324D01*
X12568284Y-29643323D01*
X12415557Y-29602400D01*
X12257443Y-29602400D01*
X12104716Y-29643323D01*
X12104709Y-29643326D01*
X11967790Y-29722375D01*
X11967782Y-29722381D01*
X11855981Y-29834182D01*
X11855975Y-29834190D01*
X11776926Y-29971109D01*
X11776923Y-29971116D01*
X11736000Y-30123843D01*
X500500Y-30123843D01*
X500500Y-28393443D01*
X6334500Y-28393443D01*
X6334500Y-28551557D01*
X6367142Y-28673377D01*
X6375423Y-28704283D01*
X6375426Y-28704290D01*
X6454475Y-28841209D01*
X6454479Y-28841214D01*
X6454480Y-28841216D01*
X6566284Y-28953020D01*
X6566286Y-28953021D01*
X6566290Y-28953024D01*
X6675376Y-29016004D01*
X6703216Y-29032077D01*
X6855943Y-29073000D01*
X6855945Y-29073000D01*
X7014055Y-29073000D01*
X7014057Y-29073000D01*
X7166784Y-29032077D01*
X7303716Y-28953020D01*
X7415520Y-28841216D01*
X7494577Y-28704284D01*
X7535500Y-28551557D01*
X7535500Y-28416517D01*
X7555185Y-28349478D01*
X7607989Y-28303723D01*
X7612049Y-28301955D01*
X7616573Y-28300079D01*
X7616584Y-28300077D01*
X7753516Y-28221020D01*
X7797217Y-28177319D01*
X7858540Y-28143834D01*
X7884898Y-28141000D01*
X15563102Y-28141000D01*
X15630141Y-28160685D01*
X15650783Y-28177319D01*
X15718784Y-28245320D01*
X15718786Y-28245321D01*
X15718790Y-28245324D01*
X15845784Y-28318643D01*
X15855716Y-28324377D01*
X16008443Y-28365300D01*
X16008445Y-28365300D01*
X16166555Y-28365300D01*
X16166557Y-28365300D01*
X16319284Y-28324377D01*
X16456216Y-28245320D01*
X16568020Y-28133516D01*
X16647077Y-27996584D01*
X16688000Y-27843857D01*
X16688000Y-27782055D01*
X16707685Y-27715016D01*
X16724319Y-27694374D01*
X18417076Y-26001617D01*
X28350000Y-26001617D01*
X28350000Y-26198382D01*
X28380778Y-26392705D01*
X28441581Y-26579835D01*
X28530904Y-26755143D01*
X28586076Y-26831079D01*
X28586077Y-26831080D01*
X29131980Y-26285176D01*
X29134075Y-26292993D01*
X29199901Y-26407007D01*
X29292993Y-26500099D01*
X29407007Y-26565925D01*
X29414822Y-26568019D01*
X28868918Y-27113922D01*
X28944856Y-27169095D01*
X29120164Y-27258418D01*
X29307294Y-27319221D01*
X29501618Y-27350000D01*
X29698382Y-27350000D01*
X29892705Y-27319221D01*
X30079835Y-27258418D01*
X30255143Y-27169095D01*
X30331079Y-27113922D01*
X30331080Y-27113921D01*
X29785178Y-26568019D01*
X29792993Y-26565925D01*
X29907007Y-26500099D01*
X30000099Y-26407007D01*
X30065925Y-26292993D01*
X30068019Y-26285177D01*
X30613921Y-26831080D01*
X30613922Y-26831079D01*
X30669095Y-26755143D01*
X30758418Y-26579835D01*
X30819221Y-26392705D01*
X30850000Y-26198382D01*
X30850000Y-26001617D01*
X30819221Y-25807294D01*
X30758418Y-25620164D01*
X30669095Y-25444856D01*
X30613922Y-25368919D01*
X30613922Y-25368918D01*
X30068018Y-25914821D01*
X30065925Y-25907007D01*
X30000099Y-25792993D01*
X29907007Y-25699901D01*
X29792993Y-25634075D01*
X29785177Y-25631980D01*
X30331080Y-25086077D01*
X30331079Y-25086076D01*
X30255143Y-25030904D01*
X30079835Y-24941581D01*
X29892705Y-24880778D01*
X29698382Y-24850000D01*
X29501618Y-24850000D01*
X29307294Y-24880778D01*
X29120164Y-24941581D01*
X28944855Y-25030905D01*
X28944846Y-25030911D01*
X28868919Y-25086075D01*
X28868918Y-25086076D01*
X29414823Y-25631980D01*
X29407007Y-25634075D01*
X29292993Y-25699901D01*
X29199901Y-25792993D01*
X29134075Y-25907007D01*
X29131980Y-25914822D01*
X28586076Y-25368918D01*
X28586075Y-25368919D01*
X28530911Y-25444846D01*
X28530905Y-25444855D01*
X28441581Y-25620164D01*
X28380778Y-25807294D01*
X28350000Y-26001617D01*
X18417076Y-26001617D01*
X23131874Y-21286819D01*
X23193197Y-21253334D01*
X23219555Y-21250500D01*
X28978685Y-21250500D01*
X29045724Y-21270185D01*
X29091479Y-21322989D01*
X29101423Y-21392147D01*
X29072398Y-21455703D01*
X29034980Y-21484985D01*
X28944855Y-21530905D01*
X28944846Y-21530911D01*
X28868919Y-21586075D01*
X28868918Y-21586076D01*
X29414823Y-22131980D01*
X29407007Y-22134075D01*
X29292993Y-22199901D01*
X29199901Y-22292993D01*
X29134075Y-22407007D01*
X29131980Y-22414822D01*
X28586076Y-21868918D01*
X28586075Y-21868919D01*
X28530911Y-21944846D01*
X28530905Y-21944855D01*
X28441581Y-22120164D01*
X28380778Y-22307294D01*
X28350000Y-22501617D01*
X28350000Y-22698382D01*
X28380778Y-22892705D01*
X28441581Y-23079835D01*
X28530904Y-23255143D01*
X28586076Y-23331079D01*
X28586077Y-23331080D01*
X29131980Y-22785176D01*
X29134075Y-22792993D01*
X29199901Y-22907007D01*
X29292993Y-23000099D01*
X29407007Y-23065925D01*
X29414822Y-23068019D01*
X28868918Y-23613922D01*
X28944856Y-23669095D01*
X29120164Y-23758418D01*
X29307294Y-23819221D01*
X29501618Y-23850000D01*
X29698382Y-23850000D01*
X29892705Y-23819221D01*
X30079835Y-23758418D01*
X30255143Y-23669095D01*
X30331079Y-23613922D01*
X30331080Y-23613921D01*
X29785178Y-23068019D01*
X29792993Y-23065925D01*
X29907007Y-23000099D01*
X30000099Y-22907007D01*
X30065925Y-22792993D01*
X30068019Y-22785177D01*
X30613921Y-23331080D01*
X30613922Y-23331079D01*
X30669095Y-23255143D01*
X30758418Y-23079835D01*
X30819221Y-22892705D01*
X30850000Y-22698382D01*
X30850000Y-22501617D01*
X30819221Y-22307294D01*
X30758418Y-22120164D01*
X30669095Y-21944856D01*
X30613922Y-21868919D01*
X30613922Y-21868918D01*
X30068018Y-22414821D01*
X30065925Y-22407007D01*
X30000099Y-22292993D01*
X29907007Y-22199901D01*
X29792993Y-22134075D01*
X29785177Y-22131980D01*
X30331080Y-21586077D01*
X30331079Y-21586076D01*
X30255143Y-21530904D01*
X30165021Y-21484985D01*
X30114225Y-21437011D01*
X30097430Y-21369190D01*
X30119967Y-21303055D01*
X30174682Y-21259603D01*
X30221316Y-21250500D01*
X35702725Y-21250500D01*
X35702727Y-21250500D01*
X35804588Y-21223207D01*
X35895913Y-21170480D01*
X50606527Y-6459864D01*
X50667848Y-6426381D01*
X50724130Y-6427211D01*
X50806111Y-6447600D01*
X50848877Y-6450500D01*
X52151122Y-6450499D01*
X52193889Y-6447600D01*
X52378693Y-6401641D01*
X52549296Y-6317030D01*
X52697722Y-6197722D01*
X52817030Y-6049296D01*
X52901641Y-5878693D01*
X52947600Y-5693889D01*
X52950500Y-5651123D01*
X52950499Y-4348878D01*
X52947600Y-4306111D01*
X52901641Y-4121307D01*
X52868786Y-4055061D01*
X52817032Y-3950707D01*
X52817030Y-3950704D01*
X52697722Y-3802278D01*
X52697721Y-3802277D01*
X52549295Y-3682969D01*
X52549292Y-3682967D01*
X52378697Y-3598360D01*
X52193892Y-3552400D01*
X52172506Y-3550950D01*
X52151123Y-3549500D01*
X52151120Y-3549500D01*
X50848877Y-3549500D01*
X50848874Y-3549501D01*
X50806113Y-3552399D01*
X50806112Y-3552399D01*
X50621303Y-3598360D01*
X50450707Y-3682967D01*
X50450704Y-3682969D01*
X50302278Y-3802277D01*
X50302277Y-3802278D01*
X50182969Y-3950704D01*
X50182967Y-3950707D01*
X50098360Y-4121302D01*
X50052400Y-4306107D01*
X50049500Y-4348879D01*
X50049500Y-5651122D01*
X50049501Y-5651125D01*
X50052399Y-5693886D01*
X50052400Y-5693890D01*
X50072786Y-5775867D01*
X50069862Y-5845676D01*
X50040132Y-5893473D01*
X35520426Y-20413181D01*
X35459103Y-20446666D01*
X35432745Y-20449500D01*
X29952669Y-20449500D01*
X29885630Y-20429815D01*
X29839875Y-20377011D01*
X29829931Y-20307853D01*
X29858956Y-20244297D01*
X29914351Y-20207569D01*
X30041636Y-20166212D01*
X30041639Y-20166211D01*
X30050726Y-20161581D01*
X30202994Y-20083996D01*
X30349501Y-19977553D01*
X30477553Y-19849501D01*
X30583996Y-19702994D01*
X30666211Y-19541639D01*
X30722171Y-19369409D01*
X30741368Y-19248205D01*
X30750500Y-19190551D01*
X30750500Y-19009448D01*
X30732259Y-18894284D01*
X30722171Y-18830591D01*
X30690533Y-18733217D01*
X30666212Y-18658363D01*
X30666211Y-18658360D01*
X30631263Y-18589773D01*
X30583996Y-18497006D01*
X30570396Y-18478287D01*
X30477558Y-18350505D01*
X30477554Y-18350500D01*
X30349499Y-18222445D01*
X30349494Y-18222441D01*
X30202997Y-18116006D01*
X30202996Y-18116005D01*
X30202994Y-18116004D01*
X30068205Y-18047325D01*
X30017409Y-17999350D01*
X30000500Y-17936840D01*
X30000500Y-16874499D01*
X30020185Y-16807460D01*
X30072989Y-16761705D01*
X30124500Y-16750499D01*
X30494856Y-16750499D01*
X30494864Y-16750499D01*
X30494879Y-16750497D01*
X30494882Y-16750497D01*
X30519987Y-16747586D01*
X30519988Y-16747585D01*
X30519991Y-16747585D01*
X30622765Y-16702206D01*
X30702206Y-16622765D01*
X30747585Y-16519991D01*
X30750500Y-16494865D01*
X30750499Y-14705136D01*
X30750497Y-14705117D01*
X30747586Y-14680012D01*
X30747585Y-14680010D01*
X30747585Y-14680009D01*
X30702206Y-14577235D01*
X30622765Y-14497794D01*
X30622763Y-14497793D01*
X30519992Y-14452415D01*
X30494865Y-14449500D01*
X28705143Y-14449500D01*
X28705117Y-14449502D01*
X28680012Y-14452413D01*
X28680008Y-14452415D01*
X28577235Y-14497793D01*
X28497794Y-14577234D01*
X28452415Y-14680006D01*
X28452415Y-14680008D01*
X28449500Y-14705131D01*
X28449500Y-16494856D01*
X28449502Y-16494882D01*
X28452413Y-16519987D01*
X28452415Y-16519991D01*
X28497793Y-16622764D01*
X28497794Y-16622765D01*
X28577235Y-16702206D01*
X28680009Y-16747585D01*
X28705135Y-16750500D01*
X29075500Y-16750499D01*
X29142539Y-16770183D01*
X29188294Y-16822987D01*
X29199500Y-16874499D01*
X29199500Y-17936840D01*
X29179815Y-18003879D01*
X29131795Y-18047325D01*
X28997002Y-18116006D01*
X28850505Y-18222441D01*
X28850500Y-18222445D01*
X28722445Y-18350500D01*
X28722441Y-18350505D01*
X28616006Y-18497002D01*
X28533788Y-18658360D01*
X28533787Y-18658363D01*
X28477829Y-18830589D01*
X28449500Y-19009448D01*
X28449500Y-19190551D01*
X28477829Y-19369410D01*
X28533787Y-19541636D01*
X28533788Y-19541639D01*
X28578803Y-19629984D01*
X28608647Y-19688556D01*
X28616006Y-19702997D01*
X28722441Y-19849494D01*
X28722445Y-19849499D01*
X28850500Y-19977554D01*
X28850505Y-19977558D01*
X28953793Y-20052600D01*
X28997006Y-20083996D01*
X29087066Y-20129884D01*
X29158360Y-20166211D01*
X29158363Y-20166212D01*
X29285649Y-20207569D01*
X29343324Y-20247006D01*
X29370523Y-20311364D01*
X29358609Y-20380211D01*
X29311365Y-20431687D01*
X29247331Y-20449500D01*
X22949573Y-20449500D01*
X22847710Y-20476793D01*
X22756387Y-20529520D01*
X22756384Y-20529522D01*
X16157926Y-27127981D01*
X16096603Y-27161466D01*
X16070245Y-27164300D01*
X16008443Y-27164300D01*
X15855716Y-27205223D01*
X15855709Y-27205226D01*
X15718790Y-27284275D01*
X15718782Y-27284281D01*
X15699383Y-27303681D01*
X15638060Y-27337166D01*
X15611702Y-27340000D01*
X7884898Y-27340000D01*
X7855457Y-27331355D01*
X7825471Y-27324832D01*
X7820455Y-27321077D01*
X7817859Y-27320315D01*
X7797217Y-27303681D01*
X7752095Y-27258559D01*
X7718610Y-27197236D01*
X7723594Y-27127544D01*
X7752095Y-27083197D01*
X8593339Y-26241954D01*
X9465674Y-25369619D01*
X9526997Y-25336134D01*
X9553355Y-25333300D01*
X15287202Y-25333300D01*
X15354241Y-25352985D01*
X15374883Y-25369619D01*
X15418584Y-25413320D01*
X15418586Y-25413321D01*
X15418590Y-25413324D01*
X15555509Y-25492373D01*
X15555516Y-25492377D01*
X15708243Y-25533300D01*
X15708245Y-25533300D01*
X15866355Y-25533300D01*
X15866357Y-25533300D01*
X16019084Y-25492377D01*
X16156016Y-25413320D01*
X16267820Y-25301516D01*
X16346877Y-25164584D01*
X16387800Y-25011857D01*
X16387800Y-24853743D01*
X16346877Y-24701016D01*
X16324114Y-24661589D01*
X16267824Y-24564090D01*
X16267818Y-24564082D01*
X16156017Y-24452281D01*
X16156009Y-24452275D01*
X16019090Y-24373226D01*
X16019086Y-24373224D01*
X16019084Y-24373223D01*
X15866357Y-24332300D01*
X15708243Y-24332300D01*
X15555516Y-24373223D01*
X15555509Y-24373226D01*
X15418590Y-24452275D01*
X15418582Y-24452281D01*
X15374883Y-24495981D01*
X15313560Y-24529466D01*
X15287202Y-24532300D01*
X9283373Y-24532300D01*
X9181510Y-24559593D01*
X9090187Y-24612320D01*
X9090184Y-24612322D01*
X6462622Y-27239884D01*
X6462620Y-27239887D01*
X6409891Y-27331213D01*
X6385563Y-27422015D01*
X6385562Y-27422021D01*
X6382600Y-27433073D01*
X6382600Y-28198723D01*
X6381431Y-28204600D01*
X6378675Y-28229676D01*
X6376156Y-28239445D01*
X6375423Y-28240716D01*
X6334500Y-28393443D01*
X500500Y-28393443D01*
X500500Y-16506443D01*
X7968300Y-16506443D01*
X7968300Y-16664557D01*
X8008835Y-16815834D01*
X8009223Y-16817283D01*
X8009226Y-16817290D01*
X8088275Y-16954209D01*
X8088279Y-16954214D01*
X8088280Y-16954216D01*
X8200084Y-17066020D01*
X8200086Y-17066021D01*
X8200090Y-17066024D01*
X8292680Y-17119480D01*
X8337016Y-17145077D01*
X8489743Y-17186000D01*
X8489745Y-17186000D01*
X8647855Y-17186000D01*
X8647857Y-17186000D01*
X8800584Y-17145077D01*
X8937516Y-17066020D01*
X8981217Y-17022319D01*
X9042540Y-16988834D01*
X9068898Y-16986000D01*
X24967225Y-16986000D01*
X24967227Y-16986000D01*
X25069088Y-16958707D01*
X25160413Y-16905980D01*
X35606527Y-6459864D01*
X35667848Y-6426381D01*
X35724130Y-6427211D01*
X35806111Y-6447600D01*
X35848877Y-6450500D01*
X37151122Y-6450499D01*
X37193889Y-6447600D01*
X37378693Y-6401641D01*
X37549296Y-6317030D01*
X37697722Y-6197722D01*
X37817030Y-6049296D01*
X37901641Y-5878693D01*
X37947600Y-5693889D01*
X37950500Y-5651123D01*
X37950499Y-4878006D01*
X46450000Y-4878006D01*
X46450000Y-5121993D01*
X46488165Y-5362959D01*
X46563560Y-5594998D01*
X46674323Y-5812380D01*
X46771298Y-5945856D01*
X46771299Y-5945856D01*
X47457241Y-5259914D01*
X47519881Y-5368408D01*
X47631592Y-5480119D01*
X47740084Y-5542757D01*
X47054141Y-6228699D01*
X47054142Y-6228700D01*
X47187619Y-6325676D01*
X47405001Y-6436439D01*
X47637040Y-6511834D01*
X47878007Y-6550000D01*
X48121993Y-6550000D01*
X48362959Y-6511834D01*
X48594998Y-6436439D01*
X48812377Y-6325678D01*
X48945856Y-6228699D01*
X48945857Y-6228698D01*
X48259916Y-5542757D01*
X48368408Y-5480119D01*
X48480119Y-5368408D01*
X48542757Y-5259915D01*
X49228698Y-5945857D01*
X49228699Y-5945856D01*
X49325678Y-5812377D01*
X49436439Y-5594998D01*
X49511834Y-5362959D01*
X49550000Y-5121993D01*
X49550000Y-4878006D01*
X49511834Y-4637040D01*
X49436439Y-4405001D01*
X49325676Y-4187619D01*
X49228700Y-4054142D01*
X49228699Y-4054141D01*
X48542757Y-4740083D01*
X48480119Y-4631592D01*
X48368408Y-4519881D01*
X48259915Y-4457242D01*
X48945856Y-3771299D01*
X48945856Y-3771298D01*
X48812380Y-3674323D01*
X48594998Y-3563560D01*
X48362959Y-3488165D01*
X48121993Y-3450000D01*
X47878007Y-3450000D01*
X47637040Y-3488165D01*
X47405001Y-3563560D01*
X47187626Y-3674319D01*
X47054142Y-3771299D01*
X47740085Y-4457242D01*
X47631592Y-4519881D01*
X47519881Y-4631592D01*
X47457242Y-4740085D01*
X46771299Y-4054142D01*
X46674319Y-4187626D01*
X46563560Y-4405001D01*
X46488165Y-4637040D01*
X46450000Y-4878006D01*
X37950499Y-4878006D01*
X37950499Y-4348878D01*
X37947600Y-4306111D01*
X37901641Y-4121307D01*
X37868786Y-4055061D01*
X37817033Y-3950709D01*
X37817031Y-3950707D01*
X37817030Y-3950704D01*
X37697722Y-3802278D01*
X37659183Y-3771299D01*
X37549295Y-3682969D01*
X37549292Y-3682967D01*
X37378697Y-3598360D01*
X37193892Y-3552400D01*
X37172506Y-3550950D01*
X37151123Y-3549500D01*
X37151120Y-3549500D01*
X35848877Y-3549500D01*
X35848874Y-3549501D01*
X35806113Y-3552399D01*
X35806112Y-3552399D01*
X35621303Y-3598360D01*
X35450707Y-3682967D01*
X35450704Y-3682969D01*
X35302278Y-3802277D01*
X35302277Y-3802278D01*
X35182969Y-3950704D01*
X35182967Y-3950707D01*
X35098360Y-4121302D01*
X35052400Y-4306107D01*
X35049500Y-4348879D01*
X35049500Y-5651122D01*
X35049501Y-5651125D01*
X35052399Y-5693886D01*
X35052400Y-5693890D01*
X35072786Y-5775867D01*
X35069862Y-5845676D01*
X35040132Y-5893473D01*
X24784926Y-16148681D01*
X24723603Y-16182166D01*
X24697245Y-16185000D01*
X9068898Y-16185000D01*
X9001859Y-16165315D01*
X8981217Y-16148681D01*
X8937517Y-16104981D01*
X8937509Y-16104975D01*
X8800590Y-16025926D01*
X8800586Y-16025924D01*
X8800584Y-16025923D01*
X8647857Y-15985000D01*
X8489743Y-15985000D01*
X8337016Y-16025923D01*
X8337009Y-16025926D01*
X8200090Y-16104975D01*
X8200082Y-16104981D01*
X8088281Y-16216782D01*
X8088275Y-16216790D01*
X8009226Y-16353709D01*
X8009223Y-16353716D01*
X7968300Y-16506443D01*
X500500Y-16506443D01*
X500500Y-4878711D01*
X3149500Y-4878711D01*
X3149500Y-5121288D01*
X3181161Y-5361785D01*
X3243947Y-5596104D01*
X3311930Y-5760228D01*
X3336776Y-5820212D01*
X3458064Y-6030289D01*
X3458066Y-6030292D01*
X3458067Y-6030293D01*
X3605733Y-6222736D01*
X3605739Y-6222743D01*
X3777256Y-6394260D01*
X3777263Y-6394266D01*
X3798150Y-6410293D01*
X3969711Y-6541936D01*
X4179788Y-6663224D01*
X4403900Y-6756054D01*
X4638211Y-6818838D01*
X4818586Y-6842584D01*
X4878711Y-6850500D01*
X4878712Y-6850500D01*
X5121289Y-6850500D01*
X5169388Y-6844167D01*
X5361789Y-6818838D01*
X5596100Y-6756054D01*
X5820212Y-6663224D01*
X6030289Y-6541936D01*
X6222738Y-6394265D01*
X6394265Y-6222738D01*
X6454718Y-6143954D01*
X6483877Y-6105954D01*
X6509905Y-6072033D01*
X6541936Y-6030289D01*
X6663224Y-5820212D01*
X6756054Y-5596100D01*
X6818838Y-5361789D01*
X6850500Y-5121288D01*
X6850500Y-4878712D01*
X6850407Y-4878006D01*
X31450000Y-4878006D01*
X31450000Y-5121993D01*
X31488165Y-5362959D01*
X31563560Y-5594998D01*
X31674323Y-5812380D01*
X31771298Y-5945856D01*
X31771299Y-5945856D01*
X32457241Y-5259914D01*
X32519881Y-5368408D01*
X32631592Y-5480119D01*
X32740084Y-5542757D01*
X32054141Y-6228699D01*
X32054142Y-6228700D01*
X32187619Y-6325676D01*
X32405001Y-6436439D01*
X32637040Y-6511834D01*
X32878007Y-6550000D01*
X33121993Y-6550000D01*
X33362959Y-6511834D01*
X33594998Y-6436439D01*
X33812377Y-6325678D01*
X33945856Y-6228699D01*
X33945857Y-6228698D01*
X33259916Y-5542757D01*
X33368408Y-5480119D01*
X33480119Y-5368408D01*
X33542757Y-5259915D01*
X34228698Y-5945857D01*
X34228699Y-5945856D01*
X34325678Y-5812377D01*
X34436439Y-5594998D01*
X34511834Y-5362959D01*
X34550000Y-5121993D01*
X34550000Y-4878006D01*
X34511834Y-4637040D01*
X34436439Y-4405001D01*
X34325676Y-4187619D01*
X34228700Y-4054142D01*
X34228699Y-4054141D01*
X33542757Y-4740083D01*
X33480119Y-4631592D01*
X33368408Y-4519881D01*
X33259915Y-4457242D01*
X33945856Y-3771299D01*
X33945856Y-3771298D01*
X33812380Y-3674323D01*
X33594998Y-3563560D01*
X33362959Y-3488165D01*
X33121993Y-3450000D01*
X32878007Y-3450000D01*
X32637040Y-3488165D01*
X32405001Y-3563560D01*
X32187626Y-3674319D01*
X32054142Y-3771299D01*
X32740085Y-4457242D01*
X32631592Y-4519881D01*
X32519881Y-4631592D01*
X32457242Y-4740085D01*
X31771299Y-4054142D01*
X31674319Y-4187626D01*
X31563560Y-4405001D01*
X31488165Y-4637040D01*
X31450000Y-4878006D01*
X6850407Y-4878006D01*
X6818838Y-4638211D01*
X6756054Y-4403900D01*
X6755711Y-4403073D01*
X6744195Y-4375269D01*
X6663224Y-4179788D01*
X6541936Y-3969711D01*
X6485564Y-3896245D01*
X6483875Y-3894044D01*
X6394266Y-3777263D01*
X6394260Y-3777256D01*
X6222743Y-3605739D01*
X6222736Y-3605733D01*
X6030293Y-3458067D01*
X6030292Y-3458066D01*
X6030289Y-3458064D01*
X5820212Y-3336776D01*
X5820205Y-3336773D01*
X5596104Y-3243947D01*
X5361785Y-3181161D01*
X5121289Y-3149500D01*
X5121288Y-3149500D01*
X4878712Y-3149500D01*
X4878711Y-3149500D01*
X4638214Y-3181161D01*
X4403895Y-3243947D01*
X4179794Y-3336773D01*
X4179785Y-3336777D01*
X3969706Y-3458067D01*
X3777263Y-3605733D01*
X3777256Y-3605739D01*
X3605739Y-3777256D01*
X3605733Y-3777263D01*
X3458067Y-3969706D01*
X3336777Y-4179785D01*
X3336773Y-4179794D01*
X3243947Y-4403895D01*
X3181161Y-4638214D01*
X3149500Y-4878711D01*
X500500Y-4878711D01*
X500500Y-3003750D01*
X500726Y-2996263D01*
X518271Y-2706204D01*
X520076Y-2691339D01*
X571780Y-2409201D01*
X575358Y-2394683D01*
X660700Y-2120806D01*
X665997Y-2106841D01*
X783730Y-1845249D01*
X790675Y-1832016D01*
X939079Y-1586526D01*
X947566Y-1574230D01*
X1124480Y-1348416D01*
X1134395Y-1337225D01*
X1337225Y-1134395D01*
X1348416Y-1124480D01*
X1574230Y-947566D01*
X1586526Y-939079D01*
X1832016Y-790675D01*
X1845249Y-783730D01*
X2106841Y-665997D01*
X2120806Y-660700D01*
X2394683Y-575358D01*
X2409197Y-571780D01*
X2691343Y-520075D01*
X2706200Y-518271D01*
X2996264Y-500726D01*
X3003751Y-500500D01*
X3065892Y-500500D01*
X136934108Y-500500D01*
X136996249Y-500500D01*
X137003736Y-500726D01*
G37*
%TD.AperFunction*%
%TD*%
M02*
