%TF.GenerationSoftware,KiCad,Pcbnew,10.0.3*%
%TF.CreationDate,2026-08-06T17:31:46+12:00*%
%TF.ProjectId,rcm,72636d2e-6b69-4636-9164-5f7063625858,A*%
%TF.SameCoordinates,Original*%
%TF.FileFunction,Drillmap*%
%TF.FilePolarity,Positive*%
%FSLAX45Y45*%
G04 Gerber Fmt 4.5, Leading zero omitted, Abs format (unit mm)*
G04 Created by KiCad (PCBNEW 10.0.3) date 2026-08-06 17:31:46*
%MOMM*%
%LPD*%
G01*
G04 APERTURE LIST*
%ADD10C,0.100000*%
%ADD11C,0.200000*%
%ADD12C,0.120000*%
G04 APERTURE END LIST*
D10*
X0Y-300000D02*
G75*
G02*
X300000Y0I300000J0D01*
G01*
X0Y-6700000D02*
X0Y-300000D01*
X300000Y0D02*
X13700000Y0D01*
X300000Y-7000000D02*
G75*
G02*
X0Y-6700000I0J300000D01*
G01*
X13700000Y0D02*
G75*
G02*
X14000000Y-300000I0J-300000D01*
G01*
X13700000Y-7000000D02*
X300000Y-7000000D01*
X14000000Y-300000D02*
X14000000Y-6700000D01*
X14000000Y-6700000D02*
G75*
G02*
X13700000Y-7000000I-300000J0D01*
G01*
D11*
D10*
X808190Y-2763740D02*
X838190Y-2793740D01*
X838190Y-2763740D02*
X808190Y-2793740D01*
X834740Y-1915230D02*
X864740Y-1945230D01*
X864740Y-1915230D02*
X834740Y-1945230D01*
X841880Y-1643550D02*
X871880Y-1673550D01*
X871880Y-1643550D02*
X841880Y-1673550D01*
X932540Y-4286320D02*
X962540Y-4316320D01*
X962540Y-4286320D02*
X932540Y-4316320D01*
X1002770Y-4116120D02*
X1032770Y-4146120D01*
X1032770Y-4116120D02*
X1002770Y-4146120D01*
X1005360Y-3785360D02*
X1035360Y-3815360D01*
X1035360Y-3785360D02*
X1005360Y-3815360D01*
X1018540Y-5410630D02*
X1048540Y-5440630D01*
X1048540Y-5410630D02*
X1018540Y-5440630D01*
X1088090Y-3413610D02*
X1118090Y-3443610D01*
X1118090Y-3413610D02*
X1088090Y-3443610D01*
X1188440Y-3868490D02*
X1218440Y-3898490D01*
X1218440Y-3868490D02*
X1188440Y-3898490D01*
X1308330Y-4277870D02*
X1338330Y-4307870D01*
X1338330Y-4277870D02*
X1308330Y-4307870D01*
X1308610Y-4790270D02*
X1338610Y-4820270D01*
X1338610Y-4790270D02*
X1308610Y-4820270D01*
X1328930Y-5299930D02*
X1358930Y-5329930D01*
X1358930Y-5299930D02*
X1328930Y-5329930D01*
X1480320Y-5179500D02*
X1510320Y-5209500D01*
X1510320Y-5179500D02*
X1480320Y-5209500D01*
X1523750Y-3114110D02*
X1553750Y-3144110D01*
X1553750Y-3114110D02*
X1523750Y-3144110D01*
X1525320Y-3030530D02*
X1555320Y-3060530D01*
X1555320Y-3030530D02*
X1525320Y-3060530D01*
X1577170Y-3842370D02*
X1607170Y-3872370D01*
X1607170Y-3842370D02*
X1577170Y-3872370D01*
X1577970Y-5443120D02*
X1607970Y-5473120D01*
X1607970Y-5443120D02*
X1577970Y-5473120D01*
X1644670Y-4525200D02*
X1674670Y-4555200D01*
X1674670Y-4525200D02*
X1644670Y-4555200D01*
X1689440Y-4211980D02*
X1719440Y-4241980D01*
X1719440Y-4211980D02*
X1689440Y-4241980D01*
X1698380Y-4127150D02*
X1728380Y-4157150D01*
X1728380Y-4127150D02*
X1698380Y-4157150D01*
X1982320Y-3887240D02*
X2012320Y-3917240D01*
X2012320Y-3887240D02*
X1982320Y-3917240D01*
X2046500Y-3953310D02*
X2076500Y-3983310D01*
X2076500Y-3953310D02*
X2046500Y-3983310D01*
X2351390Y-4006640D02*
X2381390Y-4036640D01*
X2381390Y-4006640D02*
X2351390Y-4036640D01*
X2391170Y-3864750D02*
X2421170Y-3894750D01*
X2421170Y-3864750D02*
X2391170Y-3894750D01*
X2469980Y-5151260D02*
X2499980Y-5181260D01*
X2499980Y-5151260D02*
X2469980Y-5181260D01*
X2785140Y-3315000D02*
X2815140Y-3345000D01*
X2815140Y-3315000D02*
X2785140Y-3345000D01*
X2848940Y-3737290D02*
X2878940Y-3767290D01*
X2878940Y-3737290D02*
X2848940Y-3767290D01*
X2851740Y-5437930D02*
X2881740Y-5467930D01*
X2881740Y-5437930D02*
X2851740Y-5467930D01*
X2905460Y-3662010D02*
X2935460Y-3692010D01*
X2935460Y-3662010D02*
X2905460Y-3692010D01*
X3176020Y-5437270D02*
X3206020Y-5467270D01*
X3206020Y-5437270D02*
X3176020Y-5467270D01*
X3474500Y-4382680D02*
X3504500Y-4412680D01*
X3504500Y-4382680D02*
X3474500Y-4412680D01*
X3509920Y-4027570D02*
X3539920Y-4057570D01*
X3539920Y-4027570D02*
X3509920Y-4057570D01*
X3538470Y-3944270D02*
X3568470Y-3974270D01*
X3568470Y-3944270D02*
X3538470Y-3974270D01*
X3601500Y-4381820D02*
X3631500Y-4411820D01*
X3631500Y-4381820D02*
X3601500Y-4411820D01*
X3671010Y-3921110D02*
X3701010Y-3951110D01*
X3701010Y-3921110D02*
X3671010Y-3951110D01*
X3793200Y-1863000D02*
X3823200Y-1893000D01*
X3823200Y-1863000D02*
X3793200Y-1893000D01*
X3795410Y-3884590D02*
X3825410Y-3914590D01*
X3825410Y-3884590D02*
X3795410Y-3914590D01*
X3831260Y-5180700D02*
X3861260Y-5210700D01*
X3861260Y-5180700D02*
X3831260Y-5210700D01*
X3858010Y-4381040D02*
X3888010Y-4411040D01*
X3888010Y-4381040D02*
X3858010Y-4411040D01*
X4002050Y-4576450D02*
X4032050Y-4606450D01*
X4032050Y-4576450D02*
X4002050Y-4606450D01*
X4025420Y-4082800D02*
X4055420Y-4112800D01*
X4055420Y-4082800D02*
X4025420Y-4112800D01*
X4278260Y-5088540D02*
X4308260Y-5118540D01*
X4308260Y-5088540D02*
X4278260Y-5118540D01*
X4297280Y-1237670D02*
X4327280Y-1267670D01*
X4327280Y-1237670D02*
X4297280Y-1267670D01*
X4299550Y-993750D02*
X4329550Y-1023750D01*
X4329550Y-993750D02*
X4299550Y-1023750D01*
X4341580Y-5463800D02*
X4371580Y-5493800D01*
X4371580Y-5463800D02*
X4341580Y-5493800D01*
X4690190Y-3499880D02*
X4720190Y-3529880D01*
X4720190Y-3499880D02*
X4690190Y-3529880D01*
X4745050Y-4679270D02*
X4775050Y-4709270D01*
X4775050Y-4679270D02*
X4745050Y-4709270D01*
X5215180Y-5240030D02*
X5245180Y-5270030D01*
X5245180Y-5240030D02*
X5215180Y-5270030D01*
X5453770Y-3827500D02*
X5483770Y-3857500D01*
X5483770Y-3827500D02*
X5453770Y-3857500D01*
X5470630Y-3683810D02*
X5500630Y-3713810D01*
X5500630Y-3683810D02*
X5470630Y-3713810D01*
X5578510Y-4246360D02*
X5608510Y-4276360D01*
X5608510Y-4246360D02*
X5578510Y-4276360D01*
X5599400Y-4002290D02*
X5629400Y-4032290D01*
X5629400Y-4002290D02*
X5599400Y-4032290D01*
X5632960Y-5048540D02*
X5662960Y-5078540D01*
X5662960Y-5048540D02*
X5632960Y-5078540D01*
X5638630Y-3924090D02*
X5668630Y-3954090D01*
X5668630Y-3924090D02*
X5638630Y-3954090D01*
X5674540Y-4374320D02*
X5704540Y-4404320D01*
X5704540Y-4374320D02*
X5674540Y-4404320D01*
X5722510Y-3901000D02*
X5752510Y-3931000D01*
X5752510Y-3901000D02*
X5722510Y-3931000D01*
X5727220Y-3788500D02*
X5757220Y-3818500D01*
X5757220Y-3788500D02*
X5727220Y-3818500D01*
X5746060Y-4267910D02*
X5776060Y-4297910D01*
X5776060Y-4267910D02*
X5746060Y-4297910D01*
X5782770Y-3485510D02*
X5812770Y-3515510D01*
X5812770Y-3485510D02*
X5782770Y-3515510D01*
X5816950Y-5178950D02*
X5846950Y-5208950D01*
X5846950Y-5178950D02*
X5816950Y-5208950D01*
X5907850Y-4518900D02*
X5937850Y-4548900D01*
X5937850Y-4518900D02*
X5907850Y-4548900D01*
X5983470Y-1090520D02*
X6013470Y-1120520D01*
X6013470Y-1090520D02*
X5983470Y-1120520D01*
X5984650Y-4116800D02*
X6014650Y-4146800D01*
X6014650Y-4116800D02*
X5984650Y-4146800D01*
X6009410Y-2767490D02*
X6039410Y-2797490D01*
X6039410Y-2767490D02*
X6009410Y-2797490D01*
X6101220Y-5243770D02*
X6131220Y-5273770D01*
X6131220Y-5243770D02*
X6101220Y-5273770D01*
X6102070Y-3871740D02*
X6132070Y-3901740D01*
X6132070Y-3871740D02*
X6102070Y-3901740D01*
X6158070Y-3586750D02*
X6188070Y-3616750D01*
X6188070Y-3586750D02*
X6158070Y-3616750D01*
X6160530Y-5427770D02*
X6190530Y-5457770D01*
X6190530Y-5427770D02*
X6160530Y-5457770D01*
X6167160Y-4369280D02*
X6197160Y-4399280D01*
X6197160Y-4369280D02*
X6167160Y-4399280D01*
X6190720Y-3962880D02*
X6220720Y-3992880D01*
X6220720Y-3962880D02*
X6190720Y-3992880D01*
X6291000Y-3871440D02*
X6321000Y-3901440D01*
X6321000Y-3871440D02*
X6291000Y-3901440D01*
X6310990Y-3065700D02*
X6340990Y-3095700D01*
X6340990Y-3065700D02*
X6310990Y-3095700D01*
X6345170Y-4029310D02*
X6375170Y-4059310D01*
X6375170Y-4029310D02*
X6345170Y-4059310D01*
X6452070Y-4643560D02*
X6482070Y-4673560D01*
X6482070Y-4643560D02*
X6452070Y-4673560D01*
X6453290Y-3956910D02*
X6483290Y-3986910D01*
X6483290Y-3956910D02*
X6453290Y-3986910D01*
X6544120Y-4561290D02*
X6574120Y-4591290D01*
X6574120Y-4561290D02*
X6544120Y-4591290D01*
X6585840Y-5076250D02*
X6615840Y-5106250D01*
X6615840Y-5076250D02*
X6585840Y-5106250D01*
X6637120Y-4000960D02*
X6667120Y-4030960D01*
X6667120Y-4000960D02*
X6637120Y-4030960D01*
X6666410Y-3865360D02*
X6696410Y-3895360D01*
X6696410Y-3865360D02*
X6666410Y-3895360D01*
X6686030Y-5971970D02*
X6716030Y-6001970D01*
X6716030Y-5971970D02*
X6686030Y-6001970D01*
X6686590Y-5076570D02*
X6716590Y-5106570D01*
X6716590Y-5076570D02*
X6686590Y-5106570D01*
X6799300Y-3968870D02*
X6829300Y-3998870D01*
X6829300Y-3968870D02*
X6799300Y-3998870D01*
X6861760Y-3910270D02*
X6891760Y-3940270D01*
X6891760Y-3910270D02*
X6861760Y-3940270D01*
X6999390Y-4043510D02*
X7029390Y-4073510D01*
X7029390Y-4043510D02*
X6999390Y-4073510D01*
X7078310Y-1090520D02*
X7108310Y-1120520D01*
X7108310Y-1090520D02*
X7078310Y-1120520D01*
X7167620Y-3603970D02*
X7197620Y-3633970D01*
X7197620Y-3603970D02*
X7167620Y-3633970D01*
X7187570Y-5490330D02*
X7217570Y-5520330D01*
X7217570Y-5490330D02*
X7187570Y-5520330D01*
X7189760Y-3737500D02*
X7219760Y-3767500D01*
X7219760Y-3737500D02*
X7189760Y-3767500D01*
X7247140Y-4643560D02*
X7277140Y-4673560D01*
X7277140Y-4643560D02*
X7247140Y-4673560D01*
X7306700Y-5414770D02*
X7336700Y-5444770D01*
X7336700Y-5414770D02*
X7306700Y-5444770D01*
X7538990Y-5880170D02*
X7568990Y-5910170D01*
X7568990Y-5880170D02*
X7538990Y-5910170D01*
X7576030Y-5437280D02*
X7606030Y-5467280D01*
X7606030Y-5437280D02*
X7576030Y-5467280D01*
X7581650Y-4577920D02*
X7611650Y-4607920D01*
X7611650Y-4577920D02*
X7581650Y-4607920D01*
X7588920Y-3327610D02*
X7618920Y-3357610D01*
X7618920Y-3327610D02*
X7588920Y-3357610D01*
X7693700Y-1105620D02*
X7723700Y-1135620D01*
X7723700Y-1105620D02*
X7693700Y-1135620D01*
X7730560Y-3575140D02*
X7760560Y-3605140D01*
X7760560Y-3575140D02*
X7730560Y-3605140D01*
X7782010Y-3260850D02*
X7812010Y-3290850D01*
X7812010Y-3260850D02*
X7782010Y-3290850D01*
X7840720Y-3569520D02*
X7870720Y-3599520D01*
X7870720Y-3569520D02*
X7840720Y-3599520D01*
X7867270Y-3952590D02*
X7897270Y-3982590D01*
X7897270Y-3952590D02*
X7867270Y-3982590D01*
X7867410Y-3260850D02*
X7897410Y-3290850D01*
X7897410Y-3260850D02*
X7867410Y-3290850D01*
X7874750Y-4082410D02*
X7904750Y-4112410D01*
X7904750Y-4082410D02*
X7874750Y-4112410D01*
X7880020Y-1943790D02*
X7910020Y-1973790D01*
X7910020Y-1943790D02*
X7880020Y-1973790D01*
X7933260Y-4008630D02*
X7963260Y-4038630D01*
X7963260Y-4008630D02*
X7933260Y-4038630D01*
X7938340Y-3608980D02*
X7968340Y-3638980D01*
X7968340Y-3608980D02*
X7938340Y-3638980D01*
X7998520Y-4380760D02*
X8028520Y-4410760D01*
X8028520Y-4380760D02*
X7998520Y-4410760D01*
X8026850Y-1659510D02*
X8056850Y-1689510D01*
X8056850Y-1659510D02*
X8026850Y-1689510D01*
X8044230Y-2866510D02*
X8074230Y-2896510D01*
X8074230Y-2866510D02*
X8044230Y-2896510D01*
X8049630Y-2182370D02*
X8079630Y-2212370D01*
X8079630Y-2182370D02*
X8049630Y-2212370D01*
X8068270Y-3604410D02*
X8098270Y-3634410D01*
X8098270Y-3604410D02*
X8068270Y-3634410D01*
X8128500Y-3550170D02*
X8158500Y-3580170D01*
X8158500Y-3550170D02*
X8128500Y-3580170D01*
X8137300Y-2320670D02*
X8167300Y-2350670D01*
X8167300Y-2320670D02*
X8137300Y-2350670D01*
X8149710Y-2112250D02*
X8179710Y-2142250D01*
X8179710Y-2112250D02*
X8149710Y-2142250D01*
X8178250Y-4375320D02*
X8208250Y-4405320D01*
X8208250Y-4375320D02*
X8178250Y-4405320D01*
X8179510Y-1957190D02*
X8209510Y-1987190D01*
X8209510Y-1957190D02*
X8179510Y-1987190D01*
X8203910Y-3440860D02*
X8233910Y-3470860D01*
X8233910Y-3440860D02*
X8203910Y-3470860D01*
X8211590Y-5239850D02*
X8241590Y-5269850D01*
X8241590Y-5239850D02*
X8211590Y-5269850D01*
X8248700Y-3111870D02*
X8278700Y-3141870D01*
X8278700Y-3111870D02*
X8248700Y-3141870D01*
X8262520Y-1947290D02*
X8292520Y-1977290D01*
X8292520Y-1947290D02*
X8262520Y-1977290D01*
X8329010Y-3081390D02*
X8359010Y-3111390D01*
X8359010Y-3081390D02*
X8329010Y-3111390D01*
X8415370Y-3082180D02*
X8445370Y-3112180D01*
X8445370Y-3082180D02*
X8415370Y-3112180D01*
X8418610Y-2432780D02*
X8448610Y-2462780D01*
X8448610Y-2432780D02*
X8418610Y-2462780D01*
X8432080Y-1626250D02*
X8462080Y-1656250D01*
X8462080Y-1626250D02*
X8432080Y-1656250D01*
X8520870Y-3275900D02*
X8550870Y-3305900D01*
X8550870Y-3275900D02*
X8520870Y-3305900D01*
X8531680Y-3080730D02*
X8561680Y-3110730D01*
X8561680Y-3080730D02*
X8531680Y-3110730D01*
X8572540Y-1519460D02*
X8602540Y-1549460D01*
X8602540Y-1519460D02*
X8572540Y-1549460D01*
X8635220Y-1375500D02*
X8665220Y-1405500D01*
X8665220Y-1375500D02*
X8635220Y-1405500D01*
X8637680Y-2754780D02*
X8667680Y-2784780D01*
X8667680Y-2754780D02*
X8637680Y-2784780D01*
X8672050Y-3085180D02*
X8702050Y-3115180D01*
X8702050Y-3085180D02*
X8672050Y-3115180D01*
X8706720Y-2146620D02*
X8736720Y-2176620D01*
X8736720Y-2146620D02*
X8706720Y-2176620D01*
X8783110Y-1687310D02*
X8813110Y-1717310D01*
X8813110Y-1687310D02*
X8783110Y-1717310D01*
X8886620Y-2744600D02*
X8916620Y-2774600D01*
X8916620Y-2744600D02*
X8886620Y-2774600D01*
X8924500Y-2660000D02*
X8954500Y-2690000D01*
X8954500Y-2660000D02*
X8924500Y-2690000D01*
X8985790Y-5547690D02*
X9015790Y-5577690D01*
X9015790Y-5547690D02*
X8985790Y-5577690D01*
X9073280Y-3131060D02*
X9103280Y-3161060D01*
X9103280Y-3131060D02*
X9073280Y-3161060D01*
X9195380Y-2650930D02*
X9225380Y-2680930D01*
X9225380Y-2650930D02*
X9195380Y-2680930D01*
X9359660Y-4591080D02*
X9389660Y-4621080D01*
X9389660Y-4591080D02*
X9359660Y-4621080D01*
X9386080Y-2209220D02*
X9416080Y-2239220D01*
X9416080Y-2209220D02*
X9386080Y-2239220D01*
X9395650Y-3607540D02*
X9425650Y-3637540D01*
X9425650Y-3607540D02*
X9395650Y-3637540D01*
X9415030Y-3288270D02*
X9445030Y-3318270D01*
X9445030Y-3288270D02*
X9415030Y-3318270D01*
X9446740Y-4781030D02*
X9476740Y-4811030D01*
X9476740Y-4781030D02*
X9446740Y-4811030D01*
X9511850Y-2712960D02*
X9541850Y-2742960D01*
X9541850Y-2712960D02*
X9511850Y-2742960D01*
X9515880Y-4137500D02*
X9545880Y-4167500D01*
X9545880Y-4137500D02*
X9515880Y-4167500D01*
X9552020Y-4017500D02*
X9582020Y-4047500D01*
X9582020Y-4017500D02*
X9552020Y-4047500D01*
X9568340Y-4994090D02*
X9598340Y-5024090D01*
X9598340Y-4994090D02*
X9568340Y-5024090D01*
X9617370Y-2466730D02*
X9647370Y-2496730D01*
X9647370Y-2466730D02*
X9617370Y-2496730D01*
X9652120Y-5240390D02*
X9682120Y-5270390D01*
X9682120Y-5240390D02*
X9652120Y-5270390D01*
X9673470Y-5660000D02*
X9703470Y-5690000D01*
X9703470Y-5660000D02*
X9673470Y-5690000D01*
X9678750Y-4283450D02*
X9708750Y-4313450D01*
X9708750Y-4283450D02*
X9678750Y-4313450D01*
X9693700Y-4517160D02*
X9723700Y-4547160D01*
X9723700Y-4517160D02*
X9693700Y-4547160D01*
X9799020Y-3537970D02*
X9829020Y-3567970D01*
X9829020Y-3537970D02*
X9799020Y-3567970D01*
X9827710Y-3839370D02*
X9857710Y-3869370D01*
X9857710Y-3839370D02*
X9827710Y-3869370D01*
X9860720Y-4103270D02*
X9890720Y-4133270D01*
X9890720Y-4103270D02*
X9860720Y-4133270D01*
X9907860Y-3221500D02*
X9937860Y-3251500D01*
X9937860Y-3221500D02*
X9907860Y-3251500D01*
X9943480Y-4668320D02*
X9973480Y-4698320D01*
X9973480Y-4668320D02*
X9943480Y-4698320D01*
X9946810Y-4781030D02*
X9976810Y-4811030D01*
X9976810Y-4781030D02*
X9946810Y-4811030D01*
X9970110Y-5441060D02*
X10000110Y-5471060D01*
X10000110Y-5441060D02*
X9970110Y-5471060D01*
X9987830Y-3519560D02*
X10017830Y-3549560D01*
X10017830Y-3519560D02*
X9987830Y-3549560D01*
X10070350Y-4470000D02*
X10100350Y-4500000D01*
X10100350Y-4470000D02*
X10070350Y-4500000D01*
X10113540Y-3763490D02*
X10143540Y-3793490D01*
X10143540Y-3763490D02*
X10113540Y-3793490D01*
X10119500Y-4566270D02*
X10149500Y-4596270D01*
X10149500Y-4566270D02*
X10119500Y-4596270D01*
X10159530Y-4820220D02*
X10189530Y-4850220D01*
X10189530Y-4820220D02*
X10159530Y-4850220D01*
X10201590Y-1505150D02*
X10231590Y-1535150D01*
X10231590Y-1505150D02*
X10201590Y-1535150D01*
X10271040Y-4415610D02*
X10301040Y-4445610D01*
X10301040Y-4415610D02*
X10271040Y-4445610D01*
X10274730Y-2510000D02*
X10304730Y-2540000D01*
X10304730Y-2510000D02*
X10274730Y-2540000D01*
X10290650Y-3371720D02*
X10320650Y-3401720D01*
X10320650Y-3371720D02*
X10290650Y-3401720D01*
X10377030Y-4082500D02*
X10407030Y-4112500D01*
X10407030Y-4082500D02*
X10377030Y-4112500D01*
X10428450Y-4514040D02*
X10458450Y-4544040D01*
X10458450Y-4514040D02*
X10428450Y-4544040D01*
X10435870Y-4208200D02*
X10465870Y-4238200D01*
X10465870Y-4208200D02*
X10435870Y-4238200D01*
X10471730Y-4443920D02*
X10501730Y-4473920D01*
X10501730Y-4443920D02*
X10471730Y-4473920D01*
X10487440Y-3657340D02*
X10517440Y-3687340D01*
X10517440Y-3657340D02*
X10487440Y-3687340D01*
X10508770Y-4584670D02*
X10538770Y-4614670D01*
X10538770Y-4584670D02*
X10508770Y-4614670D01*
X10561690Y-1682930D02*
X10591690Y-1712930D01*
X10591690Y-1682930D02*
X10561690Y-1712930D01*
X10572660Y-2367670D02*
X10602660Y-2397670D01*
X10602660Y-2367670D02*
X10572660Y-2397670D01*
X10583610Y-1575920D02*
X10613610Y-1605920D01*
X10613610Y-1575920D02*
X10583610Y-1605920D01*
X10683550Y-4103110D02*
X10713550Y-4133110D01*
X10713550Y-4103110D02*
X10683550Y-4133110D01*
X10708630Y-4768850D02*
X10738630Y-4798850D01*
X10738630Y-4768850D02*
X10708630Y-4798850D01*
X10761730Y-5156030D02*
X10791730Y-5186030D01*
X10791730Y-5156030D02*
X10761730Y-5186030D01*
X10838910Y-3034270D02*
X10868910Y-3064270D01*
X10868910Y-3034270D02*
X10838910Y-3064270D01*
X10910300Y-3563900D02*
X10940300Y-3593900D01*
X10940300Y-3563900D02*
X10910300Y-3593900D01*
X10929600Y-5179990D02*
X10959600Y-5209990D01*
X10959600Y-5179990D02*
X10929600Y-5209990D01*
X11220870Y-3564070D02*
X11250870Y-3594070D01*
X11250870Y-3564070D02*
X11220870Y-3594070D01*
X11243330Y-2970620D02*
X11273330Y-3000620D01*
X11273330Y-2970620D02*
X11243330Y-3000620D01*
X11586370Y-5262490D02*
X11616370Y-5292490D01*
X11616370Y-5262490D02*
X11586370Y-5292490D01*
X11590500Y-3742920D02*
X11620500Y-3772920D01*
X11620500Y-3742920D02*
X11590500Y-3772920D01*
X11651270Y-4292550D02*
X11681270Y-4322550D01*
X11681270Y-4292550D02*
X11651270Y-4322550D01*
X11714500Y-5447430D02*
X11744500Y-5477430D01*
X11744500Y-5447430D02*
X11714500Y-5477430D01*
X11725560Y-2326860D02*
X11755560Y-2356860D01*
X11755560Y-2326860D02*
X11725560Y-2356860D01*
X11870920Y-3511320D02*
X11900920Y-3541320D01*
X11900920Y-3511320D02*
X11870920Y-3541320D01*
X11910350Y-3437130D02*
X11940350Y-3467130D01*
X11940350Y-3437130D02*
X11910350Y-3467130D01*
X12004300Y-4021710D02*
X12034300Y-4051710D01*
X12034300Y-4021710D02*
X12004300Y-4051710D01*
X12085300Y-4030950D02*
X12115300Y-4060950D01*
X12115300Y-4030950D02*
X12085300Y-4060950D01*
X12175870Y-2834620D02*
X12205870Y-2864620D01*
X12205870Y-2834620D02*
X12175870Y-2864620D01*
X12276130Y-3992360D02*
X12306130Y-4022360D01*
X12306130Y-3992360D02*
X12276130Y-4022360D01*
X12354450Y-5093750D02*
X12384450Y-5123750D01*
X12384450Y-5093750D02*
X12354450Y-5123750D01*
X12461660Y-4363040D02*
X12491660Y-4393040D01*
X12491660Y-4363040D02*
X12461660Y-4393040D01*
X12473650Y-3919630D02*
X12503650Y-3949630D01*
X12503650Y-3919630D02*
X12473650Y-3949630D01*
X12490660Y-2168750D02*
X12520660Y-2198750D01*
X12520660Y-2168750D02*
X12490660Y-2198750D01*
X12626660Y-4083500D02*
X12656660Y-4113500D01*
X12656660Y-4083500D02*
X12626660Y-4113500D01*
X12760300Y-5443200D02*
X12790300Y-5473200D01*
X12790300Y-5443200D02*
X12760300Y-5473200D01*
X12861220Y-3572740D02*
X12891220Y-3602740D01*
X12891220Y-3572740D02*
X12861220Y-3602740D01*
X12934210Y-2007760D02*
X12964210Y-2037760D01*
X12964210Y-2007760D02*
X12934210Y-2037760D01*
X12951050Y-5357700D02*
X12981050Y-5387700D01*
X12981050Y-5357700D02*
X12951050Y-5387700D01*
X13068420Y-1745000D02*
X13098420Y-1775000D01*
X13098420Y-1745000D02*
X13068420Y-1775000D01*
X13074960Y-2225000D02*
X13104960Y-2255000D01*
X13104960Y-2225000D02*
X13074960Y-2255000D01*
X13299500Y-1568000D02*
G75*
G02*
X13239500Y-1568000I-30000J0D01*
G01*
X13239500Y-1568000D02*
G75*
G02*
X13299500Y-1568000I30000J0D01*
G01*
X13214500Y-1598000D02*
X13324500Y-1598000D01*
X13324500Y-1538000D02*
G75*
G02*
X13324500Y-1598000I0J-30000D01*
G01*
X13324500Y-1538000D02*
X13214500Y-1538000D01*
X13214500Y-1538000D02*
G75*
G03*
X13214500Y-1598000I0J-30000D01*
G01*
X13299500Y-2432000D02*
G75*
G02*
X13239500Y-2432000I-30000J0D01*
G01*
X13239500Y-2432000D02*
G75*
G02*
X13299500Y-2432000I30000J0D01*
G01*
X13214500Y-2462000D02*
X13324500Y-2462000D01*
X13324500Y-2402000D02*
G75*
G02*
X13324500Y-2462000I0J-30000D01*
G01*
X13324500Y-2402000D02*
X13214500Y-2402000D01*
X13214500Y-2402000D02*
G75*
G03*
X13214500Y-2462000I0J-30000D01*
G01*
X13717500Y-1568000D02*
G75*
G02*
X13657500Y-1568000I-30000J0D01*
G01*
X13657500Y-1568000D02*
G75*
G02*
X13717500Y-1568000I30000J0D01*
G01*
X13657500Y-1598000D02*
X13717500Y-1598000D01*
X13717500Y-1538000D02*
G75*
G02*
X13717500Y-1598000I0J-30000D01*
G01*
X13717500Y-1538000D02*
X13657500Y-1538000D01*
X13657500Y-1538000D02*
G75*
G03*
X13657500Y-1598000I0J-30000D01*
G01*
X13717500Y-2432000D02*
G75*
G02*
X13657500Y-2432000I-30000J0D01*
G01*
X13657500Y-2432000D02*
G75*
G02*
X13717500Y-2432000I30000J0D01*
G01*
X13657500Y-2462000D02*
X13717500Y-2462000D01*
X13717500Y-2402000D02*
G75*
G02*
X13717500Y-2462000I0J-30000D01*
G01*
X13717500Y-2402000D02*
X13657500Y-2402000D01*
X13657500Y-2402000D02*
G75*
G03*
X13657500Y-2462000I0J-30000D01*
G01*
X2960000Y-1510000D02*
X2960000Y-1610000D01*
X2910000Y-1560000D02*
X3010000Y-1560000D01*
X2960000Y-1860000D02*
X2960000Y-1960000D01*
X2910000Y-1910000D02*
X3010000Y-1910000D01*
X2960000Y-2210000D02*
X2960000Y-2310000D01*
X2910000Y-2260000D02*
X3010000Y-2260000D01*
X2960000Y-2560000D02*
X2960000Y-2660000D01*
X2910000Y-2610000D02*
X3010000Y-2610000D01*
X5650000Y-2950000D02*
X5650000Y-3050000D01*
X5600000Y-3000000D02*
X5700000Y-3000000D01*
X5740000Y-1320000D02*
X5740000Y-1420000D01*
X5690000Y-1370000D02*
X5790000Y-1370000D01*
X5740000Y-1574000D02*
X5740000Y-1674000D01*
X5690000Y-1624000D02*
X5790000Y-1624000D01*
X5740000Y-1828000D02*
X5740000Y-1928000D01*
X5690000Y-1878000D02*
X5790000Y-1878000D01*
X5740000Y-2082000D02*
X5740000Y-2182000D01*
X5690000Y-2132000D02*
X5790000Y-2132000D01*
X5740000Y-2336000D02*
X5740000Y-2436000D01*
X5690000Y-2386000D02*
X5790000Y-2386000D01*
X5740000Y-2590000D02*
X5740000Y-2690000D01*
X5690000Y-2640000D02*
X5790000Y-2640000D01*
X5904000Y-2950000D02*
X5904000Y-3050000D01*
X5854000Y-3000000D02*
X5954000Y-3000000D01*
X6158000Y-2950000D02*
X6158000Y-3050000D01*
X6108000Y-3000000D02*
X6208000Y-3000000D01*
X6400000Y-3350000D02*
X6400000Y-3450000D01*
X6350000Y-3400000D02*
X6450000Y-3400000D01*
X6654000Y-3350000D02*
X6654000Y-3450000D01*
X6604000Y-3400000D02*
X6704000Y-3400000D01*
X6908000Y-3350000D02*
X6908000Y-3450000D01*
X6858000Y-3400000D02*
X6958000Y-3400000D01*
X7162000Y-3350000D02*
X7162000Y-3450000D01*
X7112000Y-3400000D02*
X7212000Y-3400000D01*
X7416000Y-3350000D02*
X7416000Y-3450000D01*
X7366000Y-3400000D02*
X7466000Y-3400000D01*
D12*
X1672427Y-6542427D02*
X1672427Y-6457573D01*
X1587573Y-6457573D01*
X1587573Y-6542427D01*
X1672427Y-6542427D01*
X2022427Y-6542427D02*
X2022427Y-6457573D01*
X1937573Y-6457573D01*
X1937573Y-6542427D01*
X2022427Y-6542427D01*
X2372427Y-6542427D02*
X2372427Y-6457573D01*
X2287573Y-6457573D01*
X2287573Y-6542427D01*
X2372427Y-6542427D01*
X2722427Y-6542427D02*
X2722427Y-6457573D01*
X2637573Y-6457573D01*
X2637573Y-6542427D01*
X2722427Y-6542427D01*
X3072427Y-6542427D02*
X3072427Y-6457573D01*
X2987573Y-6457573D01*
X2987573Y-6542427D01*
X3072427Y-6542427D01*
X3342427Y-542427D02*
X3342427Y-457573D01*
X3257573Y-457573D01*
X3257573Y-542427D01*
X3342427Y-542427D01*
X3422427Y-6542427D02*
X3422427Y-6457573D01*
X3337573Y-6457573D01*
X3337573Y-6542427D01*
X3422427Y-6542427D01*
X3692427Y-542427D02*
X3692427Y-457573D01*
X3607573Y-457573D01*
X3607573Y-542427D01*
X3692427Y-542427D01*
X3772427Y-6542427D02*
X3772427Y-6457573D01*
X3687573Y-6457573D01*
X3687573Y-6542427D01*
X3772427Y-6542427D01*
X4842427Y-542427D02*
X4842427Y-457573D01*
X4757573Y-457573D01*
X4757573Y-542427D01*
X4842427Y-542427D01*
X5192427Y-542427D02*
X5192427Y-457573D01*
X5107573Y-457573D01*
X5107573Y-542427D01*
X5192427Y-542427D01*
X6072427Y-6542427D02*
X6072427Y-6457573D01*
X5987573Y-6457573D01*
X5987573Y-6542427D01*
X6072427Y-6542427D01*
X6342427Y-542427D02*
X6342427Y-457573D01*
X6257573Y-457573D01*
X6257573Y-542427D01*
X6342427Y-542427D01*
X6422427Y-6542427D02*
X6422427Y-6457573D01*
X6337573Y-6457573D01*
X6337573Y-6542427D01*
X6422427Y-6542427D01*
X6692427Y-542427D02*
X6692427Y-457573D01*
X6607573Y-457573D01*
X6607573Y-542427D01*
X6692427Y-542427D01*
X6772427Y-6542427D02*
X6772427Y-6457573D01*
X6687573Y-6457573D01*
X6687573Y-6542427D01*
X6772427Y-6542427D01*
X7042427Y-542427D02*
X7042427Y-457573D01*
X6957573Y-457573D01*
X6957573Y-542427D01*
X7042427Y-542427D01*
X7122427Y-6542427D02*
X7122427Y-6457573D01*
X7037573Y-6457573D01*
X7037573Y-6542427D01*
X7122427Y-6542427D01*
X7472427Y-6542427D02*
X7472427Y-6457573D01*
X7387573Y-6457573D01*
X7387573Y-6542427D01*
X7472427Y-6542427D01*
X7822427Y-6542427D02*
X7822427Y-6457573D01*
X7737573Y-6457573D01*
X7737573Y-6542427D01*
X7822427Y-6542427D01*
X8172427Y-6542427D02*
X8172427Y-6457573D01*
X8087573Y-6457573D01*
X8087573Y-6542427D01*
X8172427Y-6542427D01*
X8192427Y-542427D02*
X8192427Y-457573D01*
X8107573Y-457573D01*
X8107573Y-542427D01*
X8192427Y-542427D01*
X8542427Y-542427D02*
X8542427Y-457573D01*
X8457573Y-457573D01*
X8457573Y-542427D01*
X8542427Y-542427D01*
X8892427Y-542427D02*
X8892427Y-457573D01*
X8807573Y-457573D01*
X8807573Y-542427D01*
X8892427Y-542427D01*
X10042427Y-542427D02*
X10042427Y-457573D01*
X9957573Y-457573D01*
X9957573Y-542427D01*
X10042427Y-542427D01*
X10392427Y-542427D02*
X10392427Y-457573D01*
X10307573Y-457573D01*
X10307573Y-542427D01*
X10392427Y-542427D01*
X10472427Y-6542427D02*
X10472427Y-6457573D01*
X10387573Y-6457573D01*
X10387573Y-6542427D01*
X10472427Y-6542427D01*
X10742427Y-542427D02*
X10742427Y-457573D01*
X10657573Y-457573D01*
X10657573Y-542427D01*
X10742427Y-542427D01*
X10822427Y-6542427D02*
X10822427Y-6457573D01*
X10737573Y-6457573D01*
X10737573Y-6542427D01*
X10822427Y-6542427D01*
X11172427Y-6542427D02*
X11172427Y-6457573D01*
X11087573Y-6457573D01*
X11087573Y-6542427D01*
X11172427Y-6542427D01*
X11522427Y-6542427D02*
X11522427Y-6457573D01*
X11437573Y-6457573D01*
X11437573Y-6542427D01*
X11522427Y-6542427D01*
X11872427Y-6542427D02*
X11872427Y-6457573D01*
X11787573Y-6457573D01*
X11787573Y-6542427D01*
X11872427Y-6542427D01*
X12222427Y-6542427D02*
X12222427Y-6457573D01*
X12137573Y-6457573D01*
X12137573Y-6542427D01*
X12222427Y-6542427D01*
X12572427Y-6542427D02*
X12572427Y-6457573D01*
X12487573Y-6457573D01*
X12487573Y-6542427D01*
X12572427Y-6542427D01*
D11*
X255777Y-7316484D02*
X255777Y-7116484D01*
X255777Y-7116484D02*
X303396Y-7116484D01*
X303396Y-7116484D02*
X331967Y-7126008D01*
X331967Y-7126008D02*
X351015Y-7145055D01*
X351015Y-7145055D02*
X360539Y-7164103D01*
X360539Y-7164103D02*
X370062Y-7202198D01*
X370062Y-7202198D02*
X370062Y-7230769D01*
X370062Y-7230769D02*
X360539Y-7268865D01*
X360539Y-7268865D02*
X351015Y-7287912D01*
X351015Y-7287912D02*
X331967Y-7306960D01*
X331967Y-7306960D02*
X303396Y-7316484D01*
X303396Y-7316484D02*
X255777Y-7316484D01*
X455777Y-7316484D02*
X455777Y-7183150D01*
X455777Y-7221246D02*
X465301Y-7202198D01*
X465301Y-7202198D02*
X474824Y-7192674D01*
X474824Y-7192674D02*
X493872Y-7183150D01*
X493872Y-7183150D02*
X512920Y-7183150D01*
X579586Y-7316484D02*
X579586Y-7183150D01*
X579586Y-7116484D02*
X570063Y-7126008D01*
X570063Y-7126008D02*
X579586Y-7135531D01*
X579586Y-7135531D02*
X589110Y-7126008D01*
X589110Y-7126008D02*
X579586Y-7116484D01*
X579586Y-7116484D02*
X579586Y-7135531D01*
X703396Y-7316484D02*
X684348Y-7306960D01*
X684348Y-7306960D02*
X674824Y-7287912D01*
X674824Y-7287912D02*
X674824Y-7116484D01*
X808158Y-7316484D02*
X789110Y-7306960D01*
X789110Y-7306960D02*
X779586Y-7287912D01*
X779586Y-7287912D02*
X779586Y-7116484D01*
X1036729Y-7316484D02*
X1036729Y-7116484D01*
X1036729Y-7116484D02*
X1103396Y-7259341D01*
X1103396Y-7259341D02*
X1170063Y-7116484D01*
X1170063Y-7116484D02*
X1170063Y-7316484D01*
X1351015Y-7316484D02*
X1351015Y-7211722D01*
X1351015Y-7211722D02*
X1341491Y-7192674D01*
X1341491Y-7192674D02*
X1322444Y-7183150D01*
X1322444Y-7183150D02*
X1284348Y-7183150D01*
X1284348Y-7183150D02*
X1265301Y-7192674D01*
X1351015Y-7306960D02*
X1331967Y-7316484D01*
X1331967Y-7316484D02*
X1284348Y-7316484D01*
X1284348Y-7316484D02*
X1265301Y-7306960D01*
X1265301Y-7306960D02*
X1255777Y-7287912D01*
X1255777Y-7287912D02*
X1255777Y-7268865D01*
X1255777Y-7268865D02*
X1265301Y-7249817D01*
X1265301Y-7249817D02*
X1284348Y-7240293D01*
X1284348Y-7240293D02*
X1331967Y-7240293D01*
X1331967Y-7240293D02*
X1351015Y-7230769D01*
X1446253Y-7183150D02*
X1446253Y-7383150D01*
X1446253Y-7192674D02*
X1465301Y-7183150D01*
X1465301Y-7183150D02*
X1503396Y-7183150D01*
X1503396Y-7183150D02*
X1522443Y-7192674D01*
X1522443Y-7192674D02*
X1531967Y-7202198D01*
X1531967Y-7202198D02*
X1541491Y-7221246D01*
X1541491Y-7221246D02*
X1541491Y-7278388D01*
X1541491Y-7278388D02*
X1531967Y-7297436D01*
X1531967Y-7297436D02*
X1522443Y-7306960D01*
X1522443Y-7306960D02*
X1503396Y-7316484D01*
X1503396Y-7316484D02*
X1465301Y-7316484D01*
X1465301Y-7316484D02*
X1446253Y-7306960D01*
X1627205Y-7297436D02*
X1636729Y-7306960D01*
X1636729Y-7306960D02*
X1627205Y-7316484D01*
X1627205Y-7316484D02*
X1617682Y-7306960D01*
X1617682Y-7306960D02*
X1627205Y-7297436D01*
X1627205Y-7297436D02*
X1627205Y-7316484D01*
X1627205Y-7192674D02*
X1636729Y-7202198D01*
X1636729Y-7202198D02*
X1627205Y-7211722D01*
X1627205Y-7211722D02*
X1617682Y-7202198D01*
X1617682Y-7202198D02*
X1627205Y-7192674D01*
X1627205Y-7192674D02*
X1627205Y-7211722D01*
D10*
X-35000Y-7630000D02*
X-5000Y-7660000D01*
X-5000Y-7630000D02*
X-35000Y-7660000D01*
D11*
X293872Y-7536484D02*
X312920Y-7536484D01*
X312920Y-7536484D02*
X331967Y-7546008D01*
X331967Y-7546008D02*
X341491Y-7555531D01*
X341491Y-7555531D02*
X351015Y-7574579D01*
X351015Y-7574579D02*
X360539Y-7612674D01*
X360539Y-7612674D02*
X360539Y-7660293D01*
X360539Y-7660293D02*
X351015Y-7698388D01*
X351015Y-7698388D02*
X341491Y-7717436D01*
X341491Y-7717436D02*
X331967Y-7726960D01*
X331967Y-7726960D02*
X312920Y-7736484D01*
X312920Y-7736484D02*
X293872Y-7736484D01*
X293872Y-7736484D02*
X274824Y-7726960D01*
X274824Y-7726960D02*
X265301Y-7717436D01*
X265301Y-7717436D02*
X255777Y-7698388D01*
X255777Y-7698388D02*
X246253Y-7660293D01*
X246253Y-7660293D02*
X246253Y-7612674D01*
X246253Y-7612674D02*
X255777Y-7574579D01*
X255777Y-7574579D02*
X265301Y-7555531D01*
X265301Y-7555531D02*
X274824Y-7546008D01*
X274824Y-7546008D02*
X293872Y-7536484D01*
X446253Y-7717436D02*
X455777Y-7726960D01*
X455777Y-7726960D02*
X446253Y-7736484D01*
X446253Y-7736484D02*
X436729Y-7726960D01*
X436729Y-7726960D02*
X446253Y-7717436D01*
X446253Y-7717436D02*
X446253Y-7736484D01*
X522443Y-7536484D02*
X646253Y-7536484D01*
X646253Y-7536484D02*
X579586Y-7612674D01*
X579586Y-7612674D02*
X608158Y-7612674D01*
X608158Y-7612674D02*
X627205Y-7622198D01*
X627205Y-7622198D02*
X636729Y-7631722D01*
X636729Y-7631722D02*
X646253Y-7650769D01*
X646253Y-7650769D02*
X646253Y-7698388D01*
X646253Y-7698388D02*
X636729Y-7717436D01*
X636729Y-7717436D02*
X627205Y-7726960D01*
X627205Y-7726960D02*
X608158Y-7736484D01*
X608158Y-7736484D02*
X551015Y-7736484D01*
X551015Y-7736484D02*
X531967Y-7726960D01*
X531967Y-7726960D02*
X522443Y-7717436D01*
X770062Y-7536484D02*
X789110Y-7536484D01*
X789110Y-7536484D02*
X808158Y-7546008D01*
X808158Y-7546008D02*
X817682Y-7555531D01*
X817682Y-7555531D02*
X827205Y-7574579D01*
X827205Y-7574579D02*
X836729Y-7612674D01*
X836729Y-7612674D02*
X836729Y-7660293D01*
X836729Y-7660293D02*
X827205Y-7698388D01*
X827205Y-7698388D02*
X817682Y-7717436D01*
X817682Y-7717436D02*
X808158Y-7726960D01*
X808158Y-7726960D02*
X789110Y-7736484D01*
X789110Y-7736484D02*
X770062Y-7736484D01*
X770062Y-7736484D02*
X751015Y-7726960D01*
X751015Y-7726960D02*
X741491Y-7717436D01*
X741491Y-7717436D02*
X731967Y-7698388D01*
X731967Y-7698388D02*
X722443Y-7660293D01*
X722443Y-7660293D02*
X722443Y-7612674D01*
X722443Y-7612674D02*
X731967Y-7574579D01*
X731967Y-7574579D02*
X741491Y-7555531D01*
X741491Y-7555531D02*
X751015Y-7546008D01*
X751015Y-7546008D02*
X770062Y-7536484D01*
X960539Y-7536484D02*
X979586Y-7536484D01*
X979586Y-7536484D02*
X998634Y-7546008D01*
X998634Y-7546008D02*
X1008158Y-7555531D01*
X1008158Y-7555531D02*
X1017682Y-7574579D01*
X1017682Y-7574579D02*
X1027205Y-7612674D01*
X1027205Y-7612674D02*
X1027205Y-7660293D01*
X1027205Y-7660293D02*
X1017682Y-7698388D01*
X1017682Y-7698388D02*
X1008158Y-7717436D01*
X1008158Y-7717436D02*
X998634Y-7726960D01*
X998634Y-7726960D02*
X979586Y-7736484D01*
X979586Y-7736484D02*
X960539Y-7736484D01*
X960539Y-7736484D02*
X941491Y-7726960D01*
X941491Y-7726960D02*
X931967Y-7717436D01*
X931967Y-7717436D02*
X922443Y-7698388D01*
X922443Y-7698388D02*
X912920Y-7660293D01*
X912920Y-7660293D02*
X912920Y-7612674D01*
X912920Y-7612674D02*
X922443Y-7574579D01*
X922443Y-7574579D02*
X931967Y-7555531D01*
X931967Y-7555531D02*
X941491Y-7546008D01*
X941491Y-7546008D02*
X960539Y-7536484D01*
X1112920Y-7736484D02*
X1112920Y-7603150D01*
X1112920Y-7622198D02*
X1122444Y-7612674D01*
X1122444Y-7612674D02*
X1141491Y-7603150D01*
X1141491Y-7603150D02*
X1170063Y-7603150D01*
X1170063Y-7603150D02*
X1189110Y-7612674D01*
X1189110Y-7612674D02*
X1198634Y-7631722D01*
X1198634Y-7631722D02*
X1198634Y-7736484D01*
X1198634Y-7631722D02*
X1208158Y-7612674D01*
X1208158Y-7612674D02*
X1227205Y-7603150D01*
X1227205Y-7603150D02*
X1255777Y-7603150D01*
X1255777Y-7603150D02*
X1274825Y-7612674D01*
X1274825Y-7612674D02*
X1284348Y-7631722D01*
X1284348Y-7631722D02*
X1284348Y-7736484D01*
X1379586Y-7736484D02*
X1379586Y-7603150D01*
X1379586Y-7622198D02*
X1389110Y-7612674D01*
X1389110Y-7612674D02*
X1408158Y-7603150D01*
X1408158Y-7603150D02*
X1436729Y-7603150D01*
X1436729Y-7603150D02*
X1455777Y-7612674D01*
X1455777Y-7612674D02*
X1465301Y-7631722D01*
X1465301Y-7631722D02*
X1465301Y-7736484D01*
X1465301Y-7631722D02*
X1474824Y-7612674D01*
X1474824Y-7612674D02*
X1493872Y-7603150D01*
X1493872Y-7603150D02*
X1522443Y-7603150D01*
X1522443Y-7603150D02*
X1541491Y-7612674D01*
X1541491Y-7612674D02*
X1551015Y-7631722D01*
X1551015Y-7631722D02*
X1551015Y-7736484D01*
X1941491Y-7526960D02*
X1770063Y-7784103D01*
X2198634Y-7536484D02*
X2217682Y-7536484D01*
X2217682Y-7536484D02*
X2236729Y-7546008D01*
X2236729Y-7546008D02*
X2246253Y-7555531D01*
X2246253Y-7555531D02*
X2255777Y-7574579D01*
X2255777Y-7574579D02*
X2265301Y-7612674D01*
X2265301Y-7612674D02*
X2265301Y-7660293D01*
X2265301Y-7660293D02*
X2255777Y-7698388D01*
X2255777Y-7698388D02*
X2246253Y-7717436D01*
X2246253Y-7717436D02*
X2236729Y-7726960D01*
X2236729Y-7726960D02*
X2217682Y-7736484D01*
X2217682Y-7736484D02*
X2198634Y-7736484D01*
X2198634Y-7736484D02*
X2179587Y-7726960D01*
X2179587Y-7726960D02*
X2170063Y-7717436D01*
X2170063Y-7717436D02*
X2160539Y-7698388D01*
X2160539Y-7698388D02*
X2151015Y-7660293D01*
X2151015Y-7660293D02*
X2151015Y-7612674D01*
X2151015Y-7612674D02*
X2160539Y-7574579D01*
X2160539Y-7574579D02*
X2170063Y-7555531D01*
X2170063Y-7555531D02*
X2179587Y-7546008D01*
X2179587Y-7546008D02*
X2198634Y-7536484D01*
X2351015Y-7717436D02*
X2360539Y-7726960D01*
X2360539Y-7726960D02*
X2351015Y-7736484D01*
X2351015Y-7736484D02*
X2341491Y-7726960D01*
X2341491Y-7726960D02*
X2351015Y-7717436D01*
X2351015Y-7717436D02*
X2351015Y-7736484D01*
X2484348Y-7536484D02*
X2503396Y-7536484D01*
X2503396Y-7536484D02*
X2522444Y-7546008D01*
X2522444Y-7546008D02*
X2531968Y-7555531D01*
X2531968Y-7555531D02*
X2541491Y-7574579D01*
X2541491Y-7574579D02*
X2551015Y-7612674D01*
X2551015Y-7612674D02*
X2551015Y-7660293D01*
X2551015Y-7660293D02*
X2541491Y-7698388D01*
X2541491Y-7698388D02*
X2531968Y-7717436D01*
X2531968Y-7717436D02*
X2522444Y-7726960D01*
X2522444Y-7726960D02*
X2503396Y-7736484D01*
X2503396Y-7736484D02*
X2484348Y-7736484D01*
X2484348Y-7736484D02*
X2465301Y-7726960D01*
X2465301Y-7726960D02*
X2455777Y-7717436D01*
X2455777Y-7717436D02*
X2446253Y-7698388D01*
X2446253Y-7698388D02*
X2436729Y-7660293D01*
X2436729Y-7660293D02*
X2436729Y-7612674D01*
X2436729Y-7612674D02*
X2446253Y-7574579D01*
X2446253Y-7574579D02*
X2455777Y-7555531D01*
X2455777Y-7555531D02*
X2465301Y-7546008D01*
X2465301Y-7546008D02*
X2484348Y-7536484D01*
X2741491Y-7736484D02*
X2627206Y-7736484D01*
X2684348Y-7736484D02*
X2684348Y-7536484D01*
X2684348Y-7536484D02*
X2665301Y-7565055D01*
X2665301Y-7565055D02*
X2646253Y-7584103D01*
X2646253Y-7584103D02*
X2627206Y-7593627D01*
X2931967Y-7736484D02*
X2817682Y-7736484D01*
X2874825Y-7736484D02*
X2874825Y-7536484D01*
X2874825Y-7536484D02*
X2855777Y-7565055D01*
X2855777Y-7565055D02*
X2836729Y-7584103D01*
X2836729Y-7584103D02*
X2817682Y-7593627D01*
X3046253Y-7622198D02*
X3027206Y-7612674D01*
X3027206Y-7612674D02*
X3017682Y-7603150D01*
X3017682Y-7603150D02*
X3008158Y-7584103D01*
X3008158Y-7584103D02*
X3008158Y-7574579D01*
X3008158Y-7574579D02*
X3017682Y-7555531D01*
X3017682Y-7555531D02*
X3027206Y-7546008D01*
X3027206Y-7546008D02*
X3046253Y-7536484D01*
X3046253Y-7536484D02*
X3084348Y-7536484D01*
X3084348Y-7536484D02*
X3103396Y-7546008D01*
X3103396Y-7546008D02*
X3112920Y-7555531D01*
X3112920Y-7555531D02*
X3122444Y-7574579D01*
X3122444Y-7574579D02*
X3122444Y-7584103D01*
X3122444Y-7584103D02*
X3112920Y-7603150D01*
X3112920Y-7603150D02*
X3103396Y-7612674D01*
X3103396Y-7612674D02*
X3084348Y-7622198D01*
X3084348Y-7622198D02*
X3046253Y-7622198D01*
X3046253Y-7622198D02*
X3027206Y-7631722D01*
X3027206Y-7631722D02*
X3017682Y-7641246D01*
X3017682Y-7641246D02*
X3008158Y-7660293D01*
X3008158Y-7660293D02*
X3008158Y-7698388D01*
X3008158Y-7698388D02*
X3017682Y-7717436D01*
X3017682Y-7717436D02*
X3027206Y-7726960D01*
X3027206Y-7726960D02*
X3046253Y-7736484D01*
X3046253Y-7736484D02*
X3084348Y-7736484D01*
X3084348Y-7736484D02*
X3103396Y-7726960D01*
X3103396Y-7726960D02*
X3112920Y-7717436D01*
X3112920Y-7717436D02*
X3122444Y-7698388D01*
X3122444Y-7698388D02*
X3122444Y-7660293D01*
X3122444Y-7660293D02*
X3112920Y-7641246D01*
X3112920Y-7641246D02*
X3103396Y-7631722D01*
X3103396Y-7631722D02*
X3084348Y-7622198D01*
X3198634Y-7536484D02*
X3198634Y-7574579D01*
X3274825Y-7536484D02*
X3274825Y-7574579D01*
X3570063Y-7812674D02*
X3560539Y-7803150D01*
X3560539Y-7803150D02*
X3541491Y-7774579D01*
X3541491Y-7774579D02*
X3531968Y-7755531D01*
X3531968Y-7755531D02*
X3522444Y-7726960D01*
X3522444Y-7726960D02*
X3512920Y-7679341D01*
X3512920Y-7679341D02*
X3512920Y-7641246D01*
X3512920Y-7641246D02*
X3522444Y-7593627D01*
X3522444Y-7593627D02*
X3531968Y-7565055D01*
X3531968Y-7565055D02*
X3541491Y-7546008D01*
X3541491Y-7546008D02*
X3560539Y-7517436D01*
X3560539Y-7517436D02*
X3570063Y-7507912D01*
X3636729Y-7555531D02*
X3646253Y-7546008D01*
X3646253Y-7546008D02*
X3665301Y-7536484D01*
X3665301Y-7536484D02*
X3712920Y-7536484D01*
X3712920Y-7536484D02*
X3731968Y-7546008D01*
X3731968Y-7546008D02*
X3741491Y-7555531D01*
X3741491Y-7555531D02*
X3751015Y-7574579D01*
X3751015Y-7574579D02*
X3751015Y-7593627D01*
X3751015Y-7593627D02*
X3741491Y-7622198D01*
X3741491Y-7622198D02*
X3627206Y-7736484D01*
X3627206Y-7736484D02*
X3751015Y-7736484D01*
X3874825Y-7536484D02*
X3893872Y-7536484D01*
X3893872Y-7536484D02*
X3912920Y-7546008D01*
X3912920Y-7546008D02*
X3922444Y-7555531D01*
X3922444Y-7555531D02*
X3931968Y-7574579D01*
X3931968Y-7574579D02*
X3941491Y-7612674D01*
X3941491Y-7612674D02*
X3941491Y-7660293D01*
X3941491Y-7660293D02*
X3931968Y-7698388D01*
X3931968Y-7698388D02*
X3922444Y-7717436D01*
X3922444Y-7717436D02*
X3912920Y-7726960D01*
X3912920Y-7726960D02*
X3893872Y-7736484D01*
X3893872Y-7736484D02*
X3874825Y-7736484D01*
X3874825Y-7736484D02*
X3855777Y-7726960D01*
X3855777Y-7726960D02*
X3846253Y-7717436D01*
X3846253Y-7717436D02*
X3836729Y-7698388D01*
X3836729Y-7698388D02*
X3827206Y-7660293D01*
X3827206Y-7660293D02*
X3827206Y-7612674D01*
X3827206Y-7612674D02*
X3836729Y-7574579D01*
X3836729Y-7574579D02*
X3846253Y-7555531D01*
X3846253Y-7555531D02*
X3855777Y-7546008D01*
X3855777Y-7546008D02*
X3874825Y-7536484D01*
X4112920Y-7603150D02*
X4112920Y-7736484D01*
X4065301Y-7526960D02*
X4017682Y-7669817D01*
X4017682Y-7669817D02*
X4141491Y-7669817D01*
X4370063Y-7736484D02*
X4370063Y-7536484D01*
X4455777Y-7736484D02*
X4455777Y-7631722D01*
X4455777Y-7631722D02*
X4446253Y-7612674D01*
X4446253Y-7612674D02*
X4427206Y-7603150D01*
X4427206Y-7603150D02*
X4398634Y-7603150D01*
X4398634Y-7603150D02*
X4379587Y-7612674D01*
X4379587Y-7612674D02*
X4370063Y-7622198D01*
X4579587Y-7736484D02*
X4560539Y-7726960D01*
X4560539Y-7726960D02*
X4551015Y-7717436D01*
X4551015Y-7717436D02*
X4541492Y-7698388D01*
X4541492Y-7698388D02*
X4541492Y-7641246D01*
X4541492Y-7641246D02*
X4551015Y-7622198D01*
X4551015Y-7622198D02*
X4560539Y-7612674D01*
X4560539Y-7612674D02*
X4579587Y-7603150D01*
X4579587Y-7603150D02*
X4608158Y-7603150D01*
X4608158Y-7603150D02*
X4627206Y-7612674D01*
X4627206Y-7612674D02*
X4636730Y-7622198D01*
X4636730Y-7622198D02*
X4646253Y-7641246D01*
X4646253Y-7641246D02*
X4646253Y-7698388D01*
X4646253Y-7698388D02*
X4636730Y-7717436D01*
X4636730Y-7717436D02*
X4627206Y-7726960D01*
X4627206Y-7726960D02*
X4608158Y-7736484D01*
X4608158Y-7736484D02*
X4579587Y-7736484D01*
X4760539Y-7736484D02*
X4741492Y-7726960D01*
X4741492Y-7726960D02*
X4731968Y-7707912D01*
X4731968Y-7707912D02*
X4731968Y-7536484D01*
X4912920Y-7726960D02*
X4893873Y-7736484D01*
X4893873Y-7736484D02*
X4855777Y-7736484D01*
X4855777Y-7736484D02*
X4836730Y-7726960D01*
X4836730Y-7726960D02*
X4827206Y-7707912D01*
X4827206Y-7707912D02*
X4827206Y-7631722D01*
X4827206Y-7631722D02*
X4836730Y-7612674D01*
X4836730Y-7612674D02*
X4855777Y-7603150D01*
X4855777Y-7603150D02*
X4893873Y-7603150D01*
X4893873Y-7603150D02*
X4912920Y-7612674D01*
X4912920Y-7612674D02*
X4922444Y-7631722D01*
X4922444Y-7631722D02*
X4922444Y-7650769D01*
X4922444Y-7650769D02*
X4827206Y-7669817D01*
X4998634Y-7726960D02*
X5017682Y-7736484D01*
X5017682Y-7736484D02*
X5055777Y-7736484D01*
X5055777Y-7736484D02*
X5074825Y-7726960D01*
X5074825Y-7726960D02*
X5084349Y-7707912D01*
X5084349Y-7707912D02*
X5084349Y-7698388D01*
X5084349Y-7698388D02*
X5074825Y-7679341D01*
X5074825Y-7679341D02*
X5055777Y-7669817D01*
X5055777Y-7669817D02*
X5027206Y-7669817D01*
X5027206Y-7669817D02*
X5008158Y-7660293D01*
X5008158Y-7660293D02*
X4998634Y-7641246D01*
X4998634Y-7641246D02*
X4998634Y-7631722D01*
X4998634Y-7631722D02*
X5008158Y-7612674D01*
X5008158Y-7612674D02*
X5027206Y-7603150D01*
X5027206Y-7603150D02*
X5055777Y-7603150D01*
X5055777Y-7603150D02*
X5074825Y-7612674D01*
X5151015Y-7812674D02*
X5160539Y-7803150D01*
X5160539Y-7803150D02*
X5179587Y-7774579D01*
X5179587Y-7774579D02*
X5189111Y-7755531D01*
X5189111Y-7755531D02*
X5198634Y-7726960D01*
X5198634Y-7726960D02*
X5208158Y-7679341D01*
X5208158Y-7679341D02*
X5208158Y-7641246D01*
X5208158Y-7641246D02*
X5198634Y-7593627D01*
X5198634Y-7593627D02*
X5189111Y-7565055D01*
X5189111Y-7565055D02*
X5179587Y-7546008D01*
X5179587Y-7546008D02*
X5160539Y-7517436D01*
X5160539Y-7517436D02*
X5151015Y-7507912D01*
D10*
X-5000Y-7909000D02*
G75*
G02*
X-65000Y-7909000I-30000J0D01*
G01*
X-65000Y-7909000D02*
G75*
G02*
X-5000Y-7909000I30000J0D01*
G01*
D11*
X293872Y-7800484D02*
X312920Y-7800484D01*
X312920Y-7800484D02*
X331967Y-7810008D01*
X331967Y-7810008D02*
X341491Y-7819531D01*
X341491Y-7819531D02*
X351015Y-7838579D01*
X351015Y-7838579D02*
X360539Y-7876674D01*
X360539Y-7876674D02*
X360539Y-7924293D01*
X360539Y-7924293D02*
X351015Y-7962388D01*
X351015Y-7962388D02*
X341491Y-7981436D01*
X341491Y-7981436D02*
X331967Y-7990960D01*
X331967Y-7990960D02*
X312920Y-8000484D01*
X312920Y-8000484D02*
X293872Y-8000484D01*
X293872Y-8000484D02*
X274824Y-7990960D01*
X274824Y-7990960D02*
X265301Y-7981436D01*
X265301Y-7981436D02*
X255777Y-7962388D01*
X255777Y-7962388D02*
X246253Y-7924293D01*
X246253Y-7924293D02*
X246253Y-7876674D01*
X246253Y-7876674D02*
X255777Y-7838579D01*
X255777Y-7838579D02*
X265301Y-7819531D01*
X265301Y-7819531D02*
X274824Y-7810008D01*
X274824Y-7810008D02*
X293872Y-7800484D01*
X446253Y-7981436D02*
X455777Y-7990960D01*
X455777Y-7990960D02*
X446253Y-8000484D01*
X446253Y-8000484D02*
X436729Y-7990960D01*
X436729Y-7990960D02*
X446253Y-7981436D01*
X446253Y-7981436D02*
X446253Y-8000484D01*
X627205Y-7800484D02*
X589110Y-7800484D01*
X589110Y-7800484D02*
X570063Y-7810008D01*
X570063Y-7810008D02*
X560539Y-7819531D01*
X560539Y-7819531D02*
X541491Y-7848103D01*
X541491Y-7848103D02*
X531967Y-7886198D01*
X531967Y-7886198D02*
X531967Y-7962388D01*
X531967Y-7962388D02*
X541491Y-7981436D01*
X541491Y-7981436D02*
X551015Y-7990960D01*
X551015Y-7990960D02*
X570063Y-8000484D01*
X570063Y-8000484D02*
X608158Y-8000484D01*
X608158Y-8000484D02*
X627205Y-7990960D01*
X627205Y-7990960D02*
X636729Y-7981436D01*
X636729Y-7981436D02*
X646253Y-7962388D01*
X646253Y-7962388D02*
X646253Y-7914769D01*
X646253Y-7914769D02*
X636729Y-7895722D01*
X636729Y-7895722D02*
X627205Y-7886198D01*
X627205Y-7886198D02*
X608158Y-7876674D01*
X608158Y-7876674D02*
X570063Y-7876674D01*
X570063Y-7876674D02*
X551015Y-7886198D01*
X551015Y-7886198D02*
X541491Y-7895722D01*
X541491Y-7895722D02*
X531967Y-7914769D01*
X770062Y-7800484D02*
X789110Y-7800484D01*
X789110Y-7800484D02*
X808158Y-7810008D01*
X808158Y-7810008D02*
X817682Y-7819531D01*
X817682Y-7819531D02*
X827205Y-7838579D01*
X827205Y-7838579D02*
X836729Y-7876674D01*
X836729Y-7876674D02*
X836729Y-7924293D01*
X836729Y-7924293D02*
X827205Y-7962388D01*
X827205Y-7962388D02*
X817682Y-7981436D01*
X817682Y-7981436D02*
X808158Y-7990960D01*
X808158Y-7990960D02*
X789110Y-8000484D01*
X789110Y-8000484D02*
X770062Y-8000484D01*
X770062Y-8000484D02*
X751015Y-7990960D01*
X751015Y-7990960D02*
X741491Y-7981436D01*
X741491Y-7981436D02*
X731967Y-7962388D01*
X731967Y-7962388D02*
X722443Y-7924293D01*
X722443Y-7924293D02*
X722443Y-7876674D01*
X722443Y-7876674D02*
X731967Y-7838579D01*
X731967Y-7838579D02*
X741491Y-7819531D01*
X741491Y-7819531D02*
X751015Y-7810008D01*
X751015Y-7810008D02*
X770062Y-7800484D01*
X960539Y-7800484D02*
X979586Y-7800484D01*
X979586Y-7800484D02*
X998634Y-7810008D01*
X998634Y-7810008D02*
X1008158Y-7819531D01*
X1008158Y-7819531D02*
X1017682Y-7838579D01*
X1017682Y-7838579D02*
X1027205Y-7876674D01*
X1027205Y-7876674D02*
X1027205Y-7924293D01*
X1027205Y-7924293D02*
X1017682Y-7962388D01*
X1017682Y-7962388D02*
X1008158Y-7981436D01*
X1008158Y-7981436D02*
X998634Y-7990960D01*
X998634Y-7990960D02*
X979586Y-8000484D01*
X979586Y-8000484D02*
X960539Y-8000484D01*
X960539Y-8000484D02*
X941491Y-7990960D01*
X941491Y-7990960D02*
X931967Y-7981436D01*
X931967Y-7981436D02*
X922443Y-7962388D01*
X922443Y-7962388D02*
X912920Y-7924293D01*
X912920Y-7924293D02*
X912920Y-7876674D01*
X912920Y-7876674D02*
X922443Y-7838579D01*
X922443Y-7838579D02*
X931967Y-7819531D01*
X931967Y-7819531D02*
X941491Y-7810008D01*
X941491Y-7810008D02*
X960539Y-7800484D01*
X1112920Y-8000484D02*
X1112920Y-7867150D01*
X1112920Y-7886198D02*
X1122444Y-7876674D01*
X1122444Y-7876674D02*
X1141491Y-7867150D01*
X1141491Y-7867150D02*
X1170063Y-7867150D01*
X1170063Y-7867150D02*
X1189110Y-7876674D01*
X1189110Y-7876674D02*
X1198634Y-7895722D01*
X1198634Y-7895722D02*
X1198634Y-8000484D01*
X1198634Y-7895722D02*
X1208158Y-7876674D01*
X1208158Y-7876674D02*
X1227205Y-7867150D01*
X1227205Y-7867150D02*
X1255777Y-7867150D01*
X1255777Y-7867150D02*
X1274825Y-7876674D01*
X1274825Y-7876674D02*
X1284348Y-7895722D01*
X1284348Y-7895722D02*
X1284348Y-8000484D01*
X1379586Y-8000484D02*
X1379586Y-7867150D01*
X1379586Y-7886198D02*
X1389110Y-7876674D01*
X1389110Y-7876674D02*
X1408158Y-7867150D01*
X1408158Y-7867150D02*
X1436729Y-7867150D01*
X1436729Y-7867150D02*
X1455777Y-7876674D01*
X1455777Y-7876674D02*
X1465301Y-7895722D01*
X1465301Y-7895722D02*
X1465301Y-8000484D01*
X1465301Y-7895722D02*
X1474824Y-7876674D01*
X1474824Y-7876674D02*
X1493872Y-7867150D01*
X1493872Y-7867150D02*
X1522443Y-7867150D01*
X1522443Y-7867150D02*
X1541491Y-7876674D01*
X1541491Y-7876674D02*
X1551015Y-7895722D01*
X1551015Y-7895722D02*
X1551015Y-8000484D01*
X1941491Y-7790960D02*
X1770063Y-8048103D01*
X2198634Y-7800484D02*
X2217682Y-7800484D01*
X2217682Y-7800484D02*
X2236729Y-7810008D01*
X2236729Y-7810008D02*
X2246253Y-7819531D01*
X2246253Y-7819531D02*
X2255777Y-7838579D01*
X2255777Y-7838579D02*
X2265301Y-7876674D01*
X2265301Y-7876674D02*
X2265301Y-7924293D01*
X2265301Y-7924293D02*
X2255777Y-7962388D01*
X2255777Y-7962388D02*
X2246253Y-7981436D01*
X2246253Y-7981436D02*
X2236729Y-7990960D01*
X2236729Y-7990960D02*
X2217682Y-8000484D01*
X2217682Y-8000484D02*
X2198634Y-8000484D01*
X2198634Y-8000484D02*
X2179587Y-7990960D01*
X2179587Y-7990960D02*
X2170063Y-7981436D01*
X2170063Y-7981436D02*
X2160539Y-7962388D01*
X2160539Y-7962388D02*
X2151015Y-7924293D01*
X2151015Y-7924293D02*
X2151015Y-7876674D01*
X2151015Y-7876674D02*
X2160539Y-7838579D01*
X2160539Y-7838579D02*
X2170063Y-7819531D01*
X2170063Y-7819531D02*
X2179587Y-7810008D01*
X2179587Y-7810008D02*
X2198634Y-7800484D01*
X2351015Y-7981436D02*
X2360539Y-7990960D01*
X2360539Y-7990960D02*
X2351015Y-8000484D01*
X2351015Y-8000484D02*
X2341491Y-7990960D01*
X2341491Y-7990960D02*
X2351015Y-7981436D01*
X2351015Y-7981436D02*
X2351015Y-8000484D01*
X2484348Y-7800484D02*
X2503396Y-7800484D01*
X2503396Y-7800484D02*
X2522444Y-7810008D01*
X2522444Y-7810008D02*
X2531968Y-7819531D01*
X2531968Y-7819531D02*
X2541491Y-7838579D01*
X2541491Y-7838579D02*
X2551015Y-7876674D01*
X2551015Y-7876674D02*
X2551015Y-7924293D01*
X2551015Y-7924293D02*
X2541491Y-7962388D01*
X2541491Y-7962388D02*
X2531968Y-7981436D01*
X2531968Y-7981436D02*
X2522444Y-7990960D01*
X2522444Y-7990960D02*
X2503396Y-8000484D01*
X2503396Y-8000484D02*
X2484348Y-8000484D01*
X2484348Y-8000484D02*
X2465301Y-7990960D01*
X2465301Y-7990960D02*
X2455777Y-7981436D01*
X2455777Y-7981436D02*
X2446253Y-7962388D01*
X2446253Y-7962388D02*
X2436729Y-7924293D01*
X2436729Y-7924293D02*
X2436729Y-7876674D01*
X2436729Y-7876674D02*
X2446253Y-7838579D01*
X2446253Y-7838579D02*
X2455777Y-7819531D01*
X2455777Y-7819531D02*
X2465301Y-7810008D01*
X2465301Y-7810008D02*
X2484348Y-7800484D01*
X2627206Y-7819531D02*
X2636729Y-7810008D01*
X2636729Y-7810008D02*
X2655777Y-7800484D01*
X2655777Y-7800484D02*
X2703396Y-7800484D01*
X2703396Y-7800484D02*
X2722444Y-7810008D01*
X2722444Y-7810008D02*
X2731968Y-7819531D01*
X2731968Y-7819531D02*
X2741491Y-7838579D01*
X2741491Y-7838579D02*
X2741491Y-7857627D01*
X2741491Y-7857627D02*
X2731968Y-7886198D01*
X2731968Y-7886198D02*
X2617682Y-8000484D01*
X2617682Y-8000484D02*
X2741491Y-8000484D01*
X2808158Y-7800484D02*
X2931967Y-7800484D01*
X2931967Y-7800484D02*
X2865301Y-7876674D01*
X2865301Y-7876674D02*
X2893872Y-7876674D01*
X2893872Y-7876674D02*
X2912920Y-7886198D01*
X2912920Y-7886198D02*
X2922444Y-7895722D01*
X2922444Y-7895722D02*
X2931967Y-7914769D01*
X2931967Y-7914769D02*
X2931967Y-7962388D01*
X2931967Y-7962388D02*
X2922444Y-7981436D01*
X2922444Y-7981436D02*
X2912920Y-7990960D01*
X2912920Y-7990960D02*
X2893872Y-8000484D01*
X2893872Y-8000484D02*
X2836729Y-8000484D01*
X2836729Y-8000484D02*
X2817682Y-7990960D01*
X2817682Y-7990960D02*
X2808158Y-7981436D01*
X3103396Y-7800484D02*
X3065301Y-7800484D01*
X3065301Y-7800484D02*
X3046253Y-7810008D01*
X3046253Y-7810008D02*
X3036729Y-7819531D01*
X3036729Y-7819531D02*
X3017682Y-7848103D01*
X3017682Y-7848103D02*
X3008158Y-7886198D01*
X3008158Y-7886198D02*
X3008158Y-7962388D01*
X3008158Y-7962388D02*
X3017682Y-7981436D01*
X3017682Y-7981436D02*
X3027206Y-7990960D01*
X3027206Y-7990960D02*
X3046253Y-8000484D01*
X3046253Y-8000484D02*
X3084348Y-8000484D01*
X3084348Y-8000484D02*
X3103396Y-7990960D01*
X3103396Y-7990960D02*
X3112920Y-7981436D01*
X3112920Y-7981436D02*
X3122444Y-7962388D01*
X3122444Y-7962388D02*
X3122444Y-7914769D01*
X3122444Y-7914769D02*
X3112920Y-7895722D01*
X3112920Y-7895722D02*
X3103396Y-7886198D01*
X3103396Y-7886198D02*
X3084348Y-7876674D01*
X3084348Y-7876674D02*
X3046253Y-7876674D01*
X3046253Y-7876674D02*
X3027206Y-7886198D01*
X3027206Y-7886198D02*
X3017682Y-7895722D01*
X3017682Y-7895722D02*
X3008158Y-7914769D01*
X3198634Y-7800484D02*
X3198634Y-7838579D01*
X3274825Y-7800484D02*
X3274825Y-7838579D01*
X3570063Y-8076674D02*
X3560539Y-8067150D01*
X3560539Y-8067150D02*
X3541491Y-8038579D01*
X3541491Y-8038579D02*
X3531968Y-8019531D01*
X3531968Y-8019531D02*
X3522444Y-7990960D01*
X3522444Y-7990960D02*
X3512920Y-7943341D01*
X3512920Y-7943341D02*
X3512920Y-7905246D01*
X3512920Y-7905246D02*
X3522444Y-7857627D01*
X3522444Y-7857627D02*
X3531968Y-7829055D01*
X3531968Y-7829055D02*
X3541491Y-7810008D01*
X3541491Y-7810008D02*
X3560539Y-7781436D01*
X3560539Y-7781436D02*
X3570063Y-7771912D01*
X3684348Y-7800484D02*
X3703396Y-7800484D01*
X3703396Y-7800484D02*
X3722444Y-7810008D01*
X3722444Y-7810008D02*
X3731968Y-7819531D01*
X3731968Y-7819531D02*
X3741491Y-7838579D01*
X3741491Y-7838579D02*
X3751015Y-7876674D01*
X3751015Y-7876674D02*
X3751015Y-7924293D01*
X3751015Y-7924293D02*
X3741491Y-7962388D01*
X3741491Y-7962388D02*
X3731968Y-7981436D01*
X3731968Y-7981436D02*
X3722444Y-7990960D01*
X3722444Y-7990960D02*
X3703396Y-8000484D01*
X3703396Y-8000484D02*
X3684348Y-8000484D01*
X3684348Y-8000484D02*
X3665301Y-7990960D01*
X3665301Y-7990960D02*
X3655777Y-7981436D01*
X3655777Y-7981436D02*
X3646253Y-7962388D01*
X3646253Y-7962388D02*
X3636729Y-7924293D01*
X3636729Y-7924293D02*
X3636729Y-7876674D01*
X3636729Y-7876674D02*
X3646253Y-7838579D01*
X3646253Y-7838579D02*
X3655777Y-7819531D01*
X3655777Y-7819531D02*
X3665301Y-7810008D01*
X3665301Y-7810008D02*
X3684348Y-7800484D01*
X3989110Y-8000484D02*
X3989110Y-7800484D01*
X4074825Y-8000484D02*
X4074825Y-7895722D01*
X4074825Y-7895722D02*
X4065301Y-7876674D01*
X4065301Y-7876674D02*
X4046253Y-7867150D01*
X4046253Y-7867150D02*
X4017682Y-7867150D01*
X4017682Y-7867150D02*
X3998634Y-7876674D01*
X3998634Y-7876674D02*
X3989110Y-7886198D01*
X4198634Y-8000484D02*
X4179587Y-7990960D01*
X4179587Y-7990960D02*
X4170063Y-7981436D01*
X4170063Y-7981436D02*
X4160539Y-7962388D01*
X4160539Y-7962388D02*
X4160539Y-7905246D01*
X4160539Y-7905246D02*
X4170063Y-7886198D01*
X4170063Y-7886198D02*
X4179587Y-7876674D01*
X4179587Y-7876674D02*
X4198634Y-7867150D01*
X4198634Y-7867150D02*
X4227206Y-7867150D01*
X4227206Y-7867150D02*
X4246253Y-7876674D01*
X4246253Y-7876674D02*
X4255777Y-7886198D01*
X4255777Y-7886198D02*
X4265301Y-7905246D01*
X4265301Y-7905246D02*
X4265301Y-7962388D01*
X4265301Y-7962388D02*
X4255777Y-7981436D01*
X4255777Y-7981436D02*
X4246253Y-7990960D01*
X4246253Y-7990960D02*
X4227206Y-8000484D01*
X4227206Y-8000484D02*
X4198634Y-8000484D01*
X4379587Y-8000484D02*
X4360539Y-7990960D01*
X4360539Y-7990960D02*
X4351015Y-7971912D01*
X4351015Y-7971912D02*
X4351015Y-7800484D01*
X4531968Y-7990960D02*
X4512920Y-8000484D01*
X4512920Y-8000484D02*
X4474825Y-8000484D01*
X4474825Y-8000484D02*
X4455777Y-7990960D01*
X4455777Y-7990960D02*
X4446253Y-7971912D01*
X4446253Y-7971912D02*
X4446253Y-7895722D01*
X4446253Y-7895722D02*
X4455777Y-7876674D01*
X4455777Y-7876674D02*
X4474825Y-7867150D01*
X4474825Y-7867150D02*
X4512920Y-7867150D01*
X4512920Y-7867150D02*
X4531968Y-7876674D01*
X4531968Y-7876674D02*
X4541492Y-7895722D01*
X4541492Y-7895722D02*
X4541492Y-7914769D01*
X4541492Y-7914769D02*
X4446253Y-7933817D01*
X4617682Y-7990960D02*
X4636730Y-8000484D01*
X4636730Y-8000484D02*
X4674825Y-8000484D01*
X4674825Y-8000484D02*
X4693873Y-7990960D01*
X4693873Y-7990960D02*
X4703396Y-7971912D01*
X4703396Y-7971912D02*
X4703396Y-7962388D01*
X4703396Y-7962388D02*
X4693873Y-7943341D01*
X4693873Y-7943341D02*
X4674825Y-7933817D01*
X4674825Y-7933817D02*
X4646253Y-7933817D01*
X4646253Y-7933817D02*
X4627206Y-7924293D01*
X4627206Y-7924293D02*
X4617682Y-7905246D01*
X4617682Y-7905246D02*
X4617682Y-7895722D01*
X4617682Y-7895722D02*
X4627206Y-7876674D01*
X4627206Y-7876674D02*
X4646253Y-7867150D01*
X4646253Y-7867150D02*
X4674825Y-7867150D01*
X4674825Y-7867150D02*
X4693873Y-7876674D01*
X4941492Y-7924293D02*
X5093873Y-7924293D01*
X5017682Y-8000484D02*
X5017682Y-7848103D01*
X5427206Y-7867150D02*
X5427206Y-8000484D01*
X5379587Y-7790960D02*
X5331968Y-7933817D01*
X5331968Y-7933817D02*
X5455777Y-7933817D01*
X5674825Y-7990960D02*
X5693873Y-8000484D01*
X5693873Y-8000484D02*
X5731968Y-8000484D01*
X5731968Y-8000484D02*
X5751015Y-7990960D01*
X5751015Y-7990960D02*
X5760539Y-7971912D01*
X5760539Y-7971912D02*
X5760539Y-7962388D01*
X5760539Y-7962388D02*
X5751015Y-7943341D01*
X5751015Y-7943341D02*
X5731968Y-7933817D01*
X5731968Y-7933817D02*
X5703396Y-7933817D01*
X5703396Y-7933817D02*
X5684349Y-7924293D01*
X5684349Y-7924293D02*
X5674825Y-7905246D01*
X5674825Y-7905246D02*
X5674825Y-7895722D01*
X5674825Y-7895722D02*
X5684349Y-7876674D01*
X5684349Y-7876674D02*
X5703396Y-7867150D01*
X5703396Y-7867150D02*
X5731968Y-7867150D01*
X5731968Y-7867150D02*
X5751015Y-7876674D01*
X5874825Y-8000484D02*
X5855777Y-7990960D01*
X5855777Y-7990960D02*
X5846254Y-7971912D01*
X5846254Y-7971912D02*
X5846254Y-7800484D01*
X5979587Y-8000484D02*
X5960539Y-7990960D01*
X5960539Y-7990960D02*
X5951015Y-7981436D01*
X5951015Y-7981436D02*
X5941492Y-7962388D01*
X5941492Y-7962388D02*
X5941492Y-7905246D01*
X5941492Y-7905246D02*
X5951015Y-7886198D01*
X5951015Y-7886198D02*
X5960539Y-7876674D01*
X5960539Y-7876674D02*
X5979587Y-7867150D01*
X5979587Y-7867150D02*
X6008158Y-7867150D01*
X6008158Y-7867150D02*
X6027206Y-7876674D01*
X6027206Y-7876674D02*
X6036730Y-7886198D01*
X6036730Y-7886198D02*
X6046254Y-7905246D01*
X6046254Y-7905246D02*
X6046254Y-7962388D01*
X6046254Y-7962388D02*
X6036730Y-7981436D01*
X6036730Y-7981436D02*
X6027206Y-7990960D01*
X6027206Y-7990960D02*
X6008158Y-8000484D01*
X6008158Y-8000484D02*
X5979587Y-8000484D01*
X6103396Y-7867150D02*
X6179587Y-7867150D01*
X6131968Y-7800484D02*
X6131968Y-7971912D01*
X6131968Y-7971912D02*
X6141492Y-7990960D01*
X6141492Y-7990960D02*
X6160539Y-8000484D01*
X6160539Y-8000484D02*
X6179587Y-8000484D01*
X6236730Y-7990960D02*
X6255777Y-8000484D01*
X6255777Y-8000484D02*
X6293873Y-8000484D01*
X6293873Y-8000484D02*
X6312920Y-7990960D01*
X6312920Y-7990960D02*
X6322444Y-7971912D01*
X6322444Y-7971912D02*
X6322444Y-7962388D01*
X6322444Y-7962388D02*
X6312920Y-7943341D01*
X6312920Y-7943341D02*
X6293873Y-7933817D01*
X6293873Y-7933817D02*
X6265301Y-7933817D01*
X6265301Y-7933817D02*
X6246254Y-7924293D01*
X6246254Y-7924293D02*
X6236730Y-7905246D01*
X6236730Y-7905246D02*
X6236730Y-7895722D01*
X6236730Y-7895722D02*
X6246254Y-7876674D01*
X6246254Y-7876674D02*
X6265301Y-7867150D01*
X6265301Y-7867150D02*
X6293873Y-7867150D01*
X6293873Y-7867150D02*
X6312920Y-7876674D01*
X6389111Y-8076674D02*
X6398635Y-8067150D01*
X6398635Y-8067150D02*
X6417682Y-8038579D01*
X6417682Y-8038579D02*
X6427206Y-8019531D01*
X6427206Y-8019531D02*
X6436730Y-7990960D01*
X6436730Y-7990960D02*
X6446254Y-7943341D01*
X6446254Y-7943341D02*
X6446254Y-7905246D01*
X6446254Y-7905246D02*
X6436730Y-7857627D01*
X6436730Y-7857627D02*
X6427206Y-7829055D01*
X6427206Y-7829055D02*
X6417682Y-7810008D01*
X6417682Y-7810008D02*
X6398635Y-7781436D01*
X6398635Y-7781436D02*
X6389111Y-7771912D01*
D10*
X-55000Y-8123000D02*
X-55000Y-8223000D01*
X-105000Y-8173000D02*
X-5000Y-8173000D01*
D11*
X360539Y-8264484D02*
X246253Y-8264484D01*
X303396Y-8264484D02*
X303396Y-8064484D01*
X303396Y-8064484D02*
X284348Y-8093055D01*
X284348Y-8093055D02*
X265301Y-8112103D01*
X265301Y-8112103D02*
X246253Y-8121627D01*
X446253Y-8245436D02*
X455777Y-8254960D01*
X455777Y-8254960D02*
X446253Y-8264484D01*
X446253Y-8264484D02*
X436729Y-8254960D01*
X436729Y-8254960D02*
X446253Y-8245436D01*
X446253Y-8245436D02*
X446253Y-8264484D01*
X579586Y-8064484D02*
X598634Y-8064484D01*
X598634Y-8064484D02*
X617682Y-8074008D01*
X617682Y-8074008D02*
X627205Y-8083531D01*
X627205Y-8083531D02*
X636729Y-8102579D01*
X636729Y-8102579D02*
X646253Y-8140674D01*
X646253Y-8140674D02*
X646253Y-8188293D01*
X646253Y-8188293D02*
X636729Y-8226388D01*
X636729Y-8226388D02*
X627205Y-8245436D01*
X627205Y-8245436D02*
X617682Y-8254960D01*
X617682Y-8254960D02*
X598634Y-8264484D01*
X598634Y-8264484D02*
X579586Y-8264484D01*
X579586Y-8264484D02*
X560539Y-8254960D01*
X560539Y-8254960D02*
X551015Y-8245436D01*
X551015Y-8245436D02*
X541491Y-8226388D01*
X541491Y-8226388D02*
X531967Y-8188293D01*
X531967Y-8188293D02*
X531967Y-8140674D01*
X531967Y-8140674D02*
X541491Y-8102579D01*
X541491Y-8102579D02*
X551015Y-8083531D01*
X551015Y-8083531D02*
X560539Y-8074008D01*
X560539Y-8074008D02*
X579586Y-8064484D01*
X770062Y-8064484D02*
X789110Y-8064484D01*
X789110Y-8064484D02*
X808158Y-8074008D01*
X808158Y-8074008D02*
X817682Y-8083531D01*
X817682Y-8083531D02*
X827205Y-8102579D01*
X827205Y-8102579D02*
X836729Y-8140674D01*
X836729Y-8140674D02*
X836729Y-8188293D01*
X836729Y-8188293D02*
X827205Y-8226388D01*
X827205Y-8226388D02*
X817682Y-8245436D01*
X817682Y-8245436D02*
X808158Y-8254960D01*
X808158Y-8254960D02*
X789110Y-8264484D01*
X789110Y-8264484D02*
X770062Y-8264484D01*
X770062Y-8264484D02*
X751015Y-8254960D01*
X751015Y-8254960D02*
X741491Y-8245436D01*
X741491Y-8245436D02*
X731967Y-8226388D01*
X731967Y-8226388D02*
X722443Y-8188293D01*
X722443Y-8188293D02*
X722443Y-8140674D01*
X722443Y-8140674D02*
X731967Y-8102579D01*
X731967Y-8102579D02*
X741491Y-8083531D01*
X741491Y-8083531D02*
X751015Y-8074008D01*
X751015Y-8074008D02*
X770062Y-8064484D01*
X960539Y-8064484D02*
X979586Y-8064484D01*
X979586Y-8064484D02*
X998634Y-8074008D01*
X998634Y-8074008D02*
X1008158Y-8083531D01*
X1008158Y-8083531D02*
X1017682Y-8102579D01*
X1017682Y-8102579D02*
X1027205Y-8140674D01*
X1027205Y-8140674D02*
X1027205Y-8188293D01*
X1027205Y-8188293D02*
X1017682Y-8226388D01*
X1017682Y-8226388D02*
X1008158Y-8245436D01*
X1008158Y-8245436D02*
X998634Y-8254960D01*
X998634Y-8254960D02*
X979586Y-8264484D01*
X979586Y-8264484D02*
X960539Y-8264484D01*
X960539Y-8264484D02*
X941491Y-8254960D01*
X941491Y-8254960D02*
X931967Y-8245436D01*
X931967Y-8245436D02*
X922443Y-8226388D01*
X922443Y-8226388D02*
X912920Y-8188293D01*
X912920Y-8188293D02*
X912920Y-8140674D01*
X912920Y-8140674D02*
X922443Y-8102579D01*
X922443Y-8102579D02*
X931967Y-8083531D01*
X931967Y-8083531D02*
X941491Y-8074008D01*
X941491Y-8074008D02*
X960539Y-8064484D01*
X1112920Y-8264484D02*
X1112920Y-8131150D01*
X1112920Y-8150198D02*
X1122444Y-8140674D01*
X1122444Y-8140674D02*
X1141491Y-8131150D01*
X1141491Y-8131150D02*
X1170063Y-8131150D01*
X1170063Y-8131150D02*
X1189110Y-8140674D01*
X1189110Y-8140674D02*
X1198634Y-8159722D01*
X1198634Y-8159722D02*
X1198634Y-8264484D01*
X1198634Y-8159722D02*
X1208158Y-8140674D01*
X1208158Y-8140674D02*
X1227205Y-8131150D01*
X1227205Y-8131150D02*
X1255777Y-8131150D01*
X1255777Y-8131150D02*
X1274825Y-8140674D01*
X1274825Y-8140674D02*
X1284348Y-8159722D01*
X1284348Y-8159722D02*
X1284348Y-8264484D01*
X1379586Y-8264484D02*
X1379586Y-8131150D01*
X1379586Y-8150198D02*
X1389110Y-8140674D01*
X1389110Y-8140674D02*
X1408158Y-8131150D01*
X1408158Y-8131150D02*
X1436729Y-8131150D01*
X1436729Y-8131150D02*
X1455777Y-8140674D01*
X1455777Y-8140674D02*
X1465301Y-8159722D01*
X1465301Y-8159722D02*
X1465301Y-8264484D01*
X1465301Y-8159722D02*
X1474824Y-8140674D01*
X1474824Y-8140674D02*
X1493872Y-8131150D01*
X1493872Y-8131150D02*
X1522443Y-8131150D01*
X1522443Y-8131150D02*
X1541491Y-8140674D01*
X1541491Y-8140674D02*
X1551015Y-8159722D01*
X1551015Y-8159722D02*
X1551015Y-8264484D01*
X1941491Y-8054960D02*
X1770063Y-8312103D01*
X2198634Y-8064484D02*
X2217682Y-8064484D01*
X2217682Y-8064484D02*
X2236729Y-8074008D01*
X2236729Y-8074008D02*
X2246253Y-8083531D01*
X2246253Y-8083531D02*
X2255777Y-8102579D01*
X2255777Y-8102579D02*
X2265301Y-8140674D01*
X2265301Y-8140674D02*
X2265301Y-8188293D01*
X2265301Y-8188293D02*
X2255777Y-8226388D01*
X2255777Y-8226388D02*
X2246253Y-8245436D01*
X2246253Y-8245436D02*
X2236729Y-8254960D01*
X2236729Y-8254960D02*
X2217682Y-8264484D01*
X2217682Y-8264484D02*
X2198634Y-8264484D01*
X2198634Y-8264484D02*
X2179587Y-8254960D01*
X2179587Y-8254960D02*
X2170063Y-8245436D01*
X2170063Y-8245436D02*
X2160539Y-8226388D01*
X2160539Y-8226388D02*
X2151015Y-8188293D01*
X2151015Y-8188293D02*
X2151015Y-8140674D01*
X2151015Y-8140674D02*
X2160539Y-8102579D01*
X2160539Y-8102579D02*
X2170063Y-8083531D01*
X2170063Y-8083531D02*
X2179587Y-8074008D01*
X2179587Y-8074008D02*
X2198634Y-8064484D01*
X2351015Y-8245436D02*
X2360539Y-8254960D01*
X2360539Y-8254960D02*
X2351015Y-8264484D01*
X2351015Y-8264484D02*
X2341491Y-8254960D01*
X2341491Y-8254960D02*
X2351015Y-8245436D01*
X2351015Y-8245436D02*
X2351015Y-8264484D01*
X2484348Y-8064484D02*
X2503396Y-8064484D01*
X2503396Y-8064484D02*
X2522444Y-8074008D01*
X2522444Y-8074008D02*
X2531968Y-8083531D01*
X2531968Y-8083531D02*
X2541491Y-8102579D01*
X2541491Y-8102579D02*
X2551015Y-8140674D01*
X2551015Y-8140674D02*
X2551015Y-8188293D01*
X2551015Y-8188293D02*
X2541491Y-8226388D01*
X2541491Y-8226388D02*
X2531968Y-8245436D01*
X2531968Y-8245436D02*
X2522444Y-8254960D01*
X2522444Y-8254960D02*
X2503396Y-8264484D01*
X2503396Y-8264484D02*
X2484348Y-8264484D01*
X2484348Y-8264484D02*
X2465301Y-8254960D01*
X2465301Y-8254960D02*
X2455777Y-8245436D01*
X2455777Y-8245436D02*
X2446253Y-8226388D01*
X2446253Y-8226388D02*
X2436729Y-8188293D01*
X2436729Y-8188293D02*
X2436729Y-8140674D01*
X2436729Y-8140674D02*
X2446253Y-8102579D01*
X2446253Y-8102579D02*
X2455777Y-8083531D01*
X2455777Y-8083531D02*
X2465301Y-8074008D01*
X2465301Y-8074008D02*
X2484348Y-8064484D01*
X2617682Y-8064484D02*
X2741491Y-8064484D01*
X2741491Y-8064484D02*
X2674825Y-8140674D01*
X2674825Y-8140674D02*
X2703396Y-8140674D01*
X2703396Y-8140674D02*
X2722444Y-8150198D01*
X2722444Y-8150198D02*
X2731968Y-8159722D01*
X2731968Y-8159722D02*
X2741491Y-8178769D01*
X2741491Y-8178769D02*
X2741491Y-8226388D01*
X2741491Y-8226388D02*
X2731968Y-8245436D01*
X2731968Y-8245436D02*
X2722444Y-8254960D01*
X2722444Y-8254960D02*
X2703396Y-8264484D01*
X2703396Y-8264484D02*
X2646253Y-8264484D01*
X2646253Y-8264484D02*
X2627206Y-8254960D01*
X2627206Y-8254960D02*
X2617682Y-8245436D01*
X2836729Y-8264484D02*
X2874825Y-8264484D01*
X2874825Y-8264484D02*
X2893872Y-8254960D01*
X2893872Y-8254960D02*
X2903396Y-8245436D01*
X2903396Y-8245436D02*
X2922444Y-8216865D01*
X2922444Y-8216865D02*
X2931967Y-8178769D01*
X2931967Y-8178769D02*
X2931967Y-8102579D01*
X2931967Y-8102579D02*
X2922444Y-8083531D01*
X2922444Y-8083531D02*
X2912920Y-8074008D01*
X2912920Y-8074008D02*
X2893872Y-8064484D01*
X2893872Y-8064484D02*
X2855777Y-8064484D01*
X2855777Y-8064484D02*
X2836729Y-8074008D01*
X2836729Y-8074008D02*
X2827206Y-8083531D01*
X2827206Y-8083531D02*
X2817682Y-8102579D01*
X2817682Y-8102579D02*
X2817682Y-8150198D01*
X2817682Y-8150198D02*
X2827206Y-8169246D01*
X2827206Y-8169246D02*
X2836729Y-8178769D01*
X2836729Y-8178769D02*
X2855777Y-8188293D01*
X2855777Y-8188293D02*
X2893872Y-8188293D01*
X2893872Y-8188293D02*
X2912920Y-8178769D01*
X2912920Y-8178769D02*
X2922444Y-8169246D01*
X2922444Y-8169246D02*
X2931967Y-8150198D01*
X3103396Y-8131150D02*
X3103396Y-8264484D01*
X3055777Y-8054960D02*
X3008158Y-8197817D01*
X3008158Y-8197817D02*
X3131967Y-8197817D01*
X3198634Y-8064484D02*
X3198634Y-8102579D01*
X3274825Y-8064484D02*
X3274825Y-8102579D01*
X3570063Y-8340674D02*
X3560539Y-8331150D01*
X3560539Y-8331150D02*
X3541491Y-8302579D01*
X3541491Y-8302579D02*
X3531968Y-8283531D01*
X3531968Y-8283531D02*
X3522444Y-8254960D01*
X3522444Y-8254960D02*
X3512920Y-8207341D01*
X3512920Y-8207341D02*
X3512920Y-8169246D01*
X3512920Y-8169246D02*
X3522444Y-8121627D01*
X3522444Y-8121627D02*
X3531968Y-8093055D01*
X3531968Y-8093055D02*
X3541491Y-8074008D01*
X3541491Y-8074008D02*
X3560539Y-8045436D01*
X3560539Y-8045436D02*
X3570063Y-8035912D01*
X3751015Y-8264484D02*
X3636729Y-8264484D01*
X3693872Y-8264484D02*
X3693872Y-8064484D01*
X3693872Y-8064484D02*
X3674825Y-8093055D01*
X3674825Y-8093055D02*
X3655777Y-8112103D01*
X3655777Y-8112103D02*
X3636729Y-8121627D01*
X3865301Y-8150198D02*
X3846253Y-8140674D01*
X3846253Y-8140674D02*
X3836729Y-8131150D01*
X3836729Y-8131150D02*
X3827206Y-8112103D01*
X3827206Y-8112103D02*
X3827206Y-8102579D01*
X3827206Y-8102579D02*
X3836729Y-8083531D01*
X3836729Y-8083531D02*
X3846253Y-8074008D01*
X3846253Y-8074008D02*
X3865301Y-8064484D01*
X3865301Y-8064484D02*
X3903396Y-8064484D01*
X3903396Y-8064484D02*
X3922444Y-8074008D01*
X3922444Y-8074008D02*
X3931968Y-8083531D01*
X3931968Y-8083531D02*
X3941491Y-8102579D01*
X3941491Y-8102579D02*
X3941491Y-8112103D01*
X3941491Y-8112103D02*
X3931968Y-8131150D01*
X3931968Y-8131150D02*
X3922444Y-8140674D01*
X3922444Y-8140674D02*
X3903396Y-8150198D01*
X3903396Y-8150198D02*
X3865301Y-8150198D01*
X3865301Y-8150198D02*
X3846253Y-8159722D01*
X3846253Y-8159722D02*
X3836729Y-8169246D01*
X3836729Y-8169246D02*
X3827206Y-8188293D01*
X3827206Y-8188293D02*
X3827206Y-8226388D01*
X3827206Y-8226388D02*
X3836729Y-8245436D01*
X3836729Y-8245436D02*
X3846253Y-8254960D01*
X3846253Y-8254960D02*
X3865301Y-8264484D01*
X3865301Y-8264484D02*
X3903396Y-8264484D01*
X3903396Y-8264484D02*
X3922444Y-8254960D01*
X3922444Y-8254960D02*
X3931968Y-8245436D01*
X3931968Y-8245436D02*
X3941491Y-8226388D01*
X3941491Y-8226388D02*
X3941491Y-8188293D01*
X3941491Y-8188293D02*
X3931968Y-8169246D01*
X3931968Y-8169246D02*
X3922444Y-8159722D01*
X3922444Y-8159722D02*
X3903396Y-8150198D01*
X4179587Y-8264484D02*
X4179587Y-8064484D01*
X4265301Y-8264484D02*
X4265301Y-8159722D01*
X4265301Y-8159722D02*
X4255777Y-8140674D01*
X4255777Y-8140674D02*
X4236730Y-8131150D01*
X4236730Y-8131150D02*
X4208158Y-8131150D01*
X4208158Y-8131150D02*
X4189110Y-8140674D01*
X4189110Y-8140674D02*
X4179587Y-8150198D01*
X4389111Y-8264484D02*
X4370063Y-8254960D01*
X4370063Y-8254960D02*
X4360539Y-8245436D01*
X4360539Y-8245436D02*
X4351015Y-8226388D01*
X4351015Y-8226388D02*
X4351015Y-8169246D01*
X4351015Y-8169246D02*
X4360539Y-8150198D01*
X4360539Y-8150198D02*
X4370063Y-8140674D01*
X4370063Y-8140674D02*
X4389111Y-8131150D01*
X4389111Y-8131150D02*
X4417682Y-8131150D01*
X4417682Y-8131150D02*
X4436730Y-8140674D01*
X4436730Y-8140674D02*
X4446253Y-8150198D01*
X4446253Y-8150198D02*
X4455777Y-8169246D01*
X4455777Y-8169246D02*
X4455777Y-8226388D01*
X4455777Y-8226388D02*
X4446253Y-8245436D01*
X4446253Y-8245436D02*
X4436730Y-8254960D01*
X4436730Y-8254960D02*
X4417682Y-8264484D01*
X4417682Y-8264484D02*
X4389111Y-8264484D01*
X4570063Y-8264484D02*
X4551015Y-8254960D01*
X4551015Y-8254960D02*
X4541492Y-8235912D01*
X4541492Y-8235912D02*
X4541492Y-8064484D01*
X4722444Y-8254960D02*
X4703396Y-8264484D01*
X4703396Y-8264484D02*
X4665301Y-8264484D01*
X4665301Y-8264484D02*
X4646253Y-8254960D01*
X4646253Y-8254960D02*
X4636730Y-8235912D01*
X4636730Y-8235912D02*
X4636730Y-8159722D01*
X4636730Y-8159722D02*
X4646253Y-8140674D01*
X4646253Y-8140674D02*
X4665301Y-8131150D01*
X4665301Y-8131150D02*
X4703396Y-8131150D01*
X4703396Y-8131150D02*
X4722444Y-8140674D01*
X4722444Y-8140674D02*
X4731968Y-8159722D01*
X4731968Y-8159722D02*
X4731968Y-8178769D01*
X4731968Y-8178769D02*
X4636730Y-8197817D01*
X4808158Y-8254960D02*
X4827206Y-8264484D01*
X4827206Y-8264484D02*
X4865301Y-8264484D01*
X4865301Y-8264484D02*
X4884349Y-8254960D01*
X4884349Y-8254960D02*
X4893873Y-8235912D01*
X4893873Y-8235912D02*
X4893873Y-8226388D01*
X4893873Y-8226388D02*
X4884349Y-8207341D01*
X4884349Y-8207341D02*
X4865301Y-8197817D01*
X4865301Y-8197817D02*
X4836730Y-8197817D01*
X4836730Y-8197817D02*
X4817682Y-8188293D01*
X4817682Y-8188293D02*
X4808158Y-8169246D01*
X4808158Y-8169246D02*
X4808158Y-8159722D01*
X4808158Y-8159722D02*
X4817682Y-8140674D01*
X4817682Y-8140674D02*
X4836730Y-8131150D01*
X4836730Y-8131150D02*
X4865301Y-8131150D01*
X4865301Y-8131150D02*
X4884349Y-8140674D01*
X4960539Y-8340674D02*
X4970063Y-8331150D01*
X4970063Y-8331150D02*
X4989111Y-8302579D01*
X4989111Y-8302579D02*
X4998634Y-8283531D01*
X4998634Y-8283531D02*
X5008158Y-8254960D01*
X5008158Y-8254960D02*
X5017682Y-8207341D01*
X5017682Y-8207341D02*
X5017682Y-8169246D01*
X5017682Y-8169246D02*
X5008158Y-8121627D01*
X5008158Y-8121627D02*
X4998634Y-8093055D01*
X4998634Y-8093055D02*
X4989111Y-8074008D01*
X4989111Y-8074008D02*
X4970063Y-8045436D01*
X4970063Y-8045436D02*
X4960539Y-8035912D01*
D12*
X-22573Y-8479427D02*
X-22573Y-8394573D01*
X-107427Y-8394573D01*
X-107427Y-8479427D01*
X-22573Y-8479427D01*
D11*
X360539Y-8528484D02*
X246253Y-8528484D01*
X303396Y-8528484D02*
X303396Y-8328484D01*
X303396Y-8328484D02*
X284348Y-8357055D01*
X284348Y-8357055D02*
X265301Y-8376103D01*
X265301Y-8376103D02*
X246253Y-8385627D01*
X446253Y-8509436D02*
X455777Y-8518960D01*
X455777Y-8518960D02*
X446253Y-8528484D01*
X446253Y-8528484D02*
X436729Y-8518960D01*
X436729Y-8518960D02*
X446253Y-8509436D01*
X446253Y-8509436D02*
X446253Y-8528484D01*
X531967Y-8347531D02*
X541491Y-8338008D01*
X541491Y-8338008D02*
X560539Y-8328484D01*
X560539Y-8328484D02*
X608158Y-8328484D01*
X608158Y-8328484D02*
X627205Y-8338008D01*
X627205Y-8338008D02*
X636729Y-8347531D01*
X636729Y-8347531D02*
X646253Y-8366579D01*
X646253Y-8366579D02*
X646253Y-8385627D01*
X646253Y-8385627D02*
X636729Y-8414198D01*
X636729Y-8414198D02*
X522443Y-8528484D01*
X522443Y-8528484D02*
X646253Y-8528484D01*
X770062Y-8328484D02*
X789110Y-8328484D01*
X789110Y-8328484D02*
X808158Y-8338008D01*
X808158Y-8338008D02*
X817682Y-8347531D01*
X817682Y-8347531D02*
X827205Y-8366579D01*
X827205Y-8366579D02*
X836729Y-8404674D01*
X836729Y-8404674D02*
X836729Y-8452293D01*
X836729Y-8452293D02*
X827205Y-8490389D01*
X827205Y-8490389D02*
X817682Y-8509436D01*
X817682Y-8509436D02*
X808158Y-8518960D01*
X808158Y-8518960D02*
X789110Y-8528484D01*
X789110Y-8528484D02*
X770062Y-8528484D01*
X770062Y-8528484D02*
X751015Y-8518960D01*
X751015Y-8518960D02*
X741491Y-8509436D01*
X741491Y-8509436D02*
X731967Y-8490389D01*
X731967Y-8490389D02*
X722443Y-8452293D01*
X722443Y-8452293D02*
X722443Y-8404674D01*
X722443Y-8404674D02*
X731967Y-8366579D01*
X731967Y-8366579D02*
X741491Y-8347531D01*
X741491Y-8347531D02*
X751015Y-8338008D01*
X751015Y-8338008D02*
X770062Y-8328484D01*
X960539Y-8328484D02*
X979586Y-8328484D01*
X979586Y-8328484D02*
X998634Y-8338008D01*
X998634Y-8338008D02*
X1008158Y-8347531D01*
X1008158Y-8347531D02*
X1017682Y-8366579D01*
X1017682Y-8366579D02*
X1027205Y-8404674D01*
X1027205Y-8404674D02*
X1027205Y-8452293D01*
X1027205Y-8452293D02*
X1017682Y-8490389D01*
X1017682Y-8490389D02*
X1008158Y-8509436D01*
X1008158Y-8509436D02*
X998634Y-8518960D01*
X998634Y-8518960D02*
X979586Y-8528484D01*
X979586Y-8528484D02*
X960539Y-8528484D01*
X960539Y-8528484D02*
X941491Y-8518960D01*
X941491Y-8518960D02*
X931967Y-8509436D01*
X931967Y-8509436D02*
X922443Y-8490389D01*
X922443Y-8490389D02*
X912920Y-8452293D01*
X912920Y-8452293D02*
X912920Y-8404674D01*
X912920Y-8404674D02*
X922443Y-8366579D01*
X922443Y-8366579D02*
X931967Y-8347531D01*
X931967Y-8347531D02*
X941491Y-8338008D01*
X941491Y-8338008D02*
X960539Y-8328484D01*
X1112920Y-8528484D02*
X1112920Y-8395150D01*
X1112920Y-8414198D02*
X1122444Y-8404674D01*
X1122444Y-8404674D02*
X1141491Y-8395150D01*
X1141491Y-8395150D02*
X1170063Y-8395150D01*
X1170063Y-8395150D02*
X1189110Y-8404674D01*
X1189110Y-8404674D02*
X1198634Y-8423722D01*
X1198634Y-8423722D02*
X1198634Y-8528484D01*
X1198634Y-8423722D02*
X1208158Y-8404674D01*
X1208158Y-8404674D02*
X1227205Y-8395150D01*
X1227205Y-8395150D02*
X1255777Y-8395150D01*
X1255777Y-8395150D02*
X1274825Y-8404674D01*
X1274825Y-8404674D02*
X1284348Y-8423722D01*
X1284348Y-8423722D02*
X1284348Y-8528484D01*
X1379586Y-8528484D02*
X1379586Y-8395150D01*
X1379586Y-8414198D02*
X1389110Y-8404674D01*
X1389110Y-8404674D02*
X1408158Y-8395150D01*
X1408158Y-8395150D02*
X1436729Y-8395150D01*
X1436729Y-8395150D02*
X1455777Y-8404674D01*
X1455777Y-8404674D02*
X1465301Y-8423722D01*
X1465301Y-8423722D02*
X1465301Y-8528484D01*
X1465301Y-8423722D02*
X1474824Y-8404674D01*
X1474824Y-8404674D02*
X1493872Y-8395150D01*
X1493872Y-8395150D02*
X1522443Y-8395150D01*
X1522443Y-8395150D02*
X1541491Y-8404674D01*
X1541491Y-8404674D02*
X1551015Y-8423722D01*
X1551015Y-8423722D02*
X1551015Y-8528484D01*
X1941491Y-8318960D02*
X1770063Y-8576103D01*
X2198634Y-8328484D02*
X2217682Y-8328484D01*
X2217682Y-8328484D02*
X2236729Y-8338008D01*
X2236729Y-8338008D02*
X2246253Y-8347531D01*
X2246253Y-8347531D02*
X2255777Y-8366579D01*
X2255777Y-8366579D02*
X2265301Y-8404674D01*
X2265301Y-8404674D02*
X2265301Y-8452293D01*
X2265301Y-8452293D02*
X2255777Y-8490389D01*
X2255777Y-8490389D02*
X2246253Y-8509436D01*
X2246253Y-8509436D02*
X2236729Y-8518960D01*
X2236729Y-8518960D02*
X2217682Y-8528484D01*
X2217682Y-8528484D02*
X2198634Y-8528484D01*
X2198634Y-8528484D02*
X2179587Y-8518960D01*
X2179587Y-8518960D02*
X2170063Y-8509436D01*
X2170063Y-8509436D02*
X2160539Y-8490389D01*
X2160539Y-8490389D02*
X2151015Y-8452293D01*
X2151015Y-8452293D02*
X2151015Y-8404674D01*
X2151015Y-8404674D02*
X2160539Y-8366579D01*
X2160539Y-8366579D02*
X2170063Y-8347531D01*
X2170063Y-8347531D02*
X2179587Y-8338008D01*
X2179587Y-8338008D02*
X2198634Y-8328484D01*
X2351015Y-8509436D02*
X2360539Y-8518960D01*
X2360539Y-8518960D02*
X2351015Y-8528484D01*
X2351015Y-8528484D02*
X2341491Y-8518960D01*
X2341491Y-8518960D02*
X2351015Y-8509436D01*
X2351015Y-8509436D02*
X2351015Y-8528484D01*
X2484348Y-8328484D02*
X2503396Y-8328484D01*
X2503396Y-8328484D02*
X2522444Y-8338008D01*
X2522444Y-8338008D02*
X2531968Y-8347531D01*
X2531968Y-8347531D02*
X2541491Y-8366579D01*
X2541491Y-8366579D02*
X2551015Y-8404674D01*
X2551015Y-8404674D02*
X2551015Y-8452293D01*
X2551015Y-8452293D02*
X2541491Y-8490389D01*
X2541491Y-8490389D02*
X2531968Y-8509436D01*
X2531968Y-8509436D02*
X2522444Y-8518960D01*
X2522444Y-8518960D02*
X2503396Y-8528484D01*
X2503396Y-8528484D02*
X2484348Y-8528484D01*
X2484348Y-8528484D02*
X2465301Y-8518960D01*
X2465301Y-8518960D02*
X2455777Y-8509436D01*
X2455777Y-8509436D02*
X2446253Y-8490389D01*
X2446253Y-8490389D02*
X2436729Y-8452293D01*
X2436729Y-8452293D02*
X2436729Y-8404674D01*
X2436729Y-8404674D02*
X2446253Y-8366579D01*
X2446253Y-8366579D02*
X2455777Y-8347531D01*
X2455777Y-8347531D02*
X2465301Y-8338008D01*
X2465301Y-8338008D02*
X2484348Y-8328484D01*
X2722444Y-8395150D02*
X2722444Y-8528484D01*
X2674825Y-8318960D02*
X2627206Y-8461817D01*
X2627206Y-8461817D02*
X2751015Y-8461817D01*
X2808158Y-8328484D02*
X2941491Y-8328484D01*
X2941491Y-8328484D02*
X2855777Y-8528484D01*
X3008158Y-8347531D02*
X3017682Y-8338008D01*
X3017682Y-8338008D02*
X3036729Y-8328484D01*
X3036729Y-8328484D02*
X3084348Y-8328484D01*
X3084348Y-8328484D02*
X3103396Y-8338008D01*
X3103396Y-8338008D02*
X3112920Y-8347531D01*
X3112920Y-8347531D02*
X3122444Y-8366579D01*
X3122444Y-8366579D02*
X3122444Y-8385627D01*
X3122444Y-8385627D02*
X3112920Y-8414198D01*
X3112920Y-8414198D02*
X2998634Y-8528484D01*
X2998634Y-8528484D02*
X3122444Y-8528484D01*
X3198634Y-8328484D02*
X3198634Y-8366579D01*
X3274825Y-8328484D02*
X3274825Y-8366579D01*
X3570063Y-8604674D02*
X3560539Y-8595150D01*
X3560539Y-8595150D02*
X3541491Y-8566579D01*
X3541491Y-8566579D02*
X3531968Y-8547531D01*
X3531968Y-8547531D02*
X3522444Y-8518960D01*
X3522444Y-8518960D02*
X3512920Y-8471341D01*
X3512920Y-8471341D02*
X3512920Y-8433246D01*
X3512920Y-8433246D02*
X3522444Y-8385627D01*
X3522444Y-8385627D02*
X3531968Y-8357055D01*
X3531968Y-8357055D02*
X3541491Y-8338008D01*
X3541491Y-8338008D02*
X3560539Y-8309436D01*
X3560539Y-8309436D02*
X3570063Y-8299912D01*
X3627206Y-8328484D02*
X3751015Y-8328484D01*
X3751015Y-8328484D02*
X3684348Y-8404674D01*
X3684348Y-8404674D02*
X3712920Y-8404674D01*
X3712920Y-8404674D02*
X3731968Y-8414198D01*
X3731968Y-8414198D02*
X3741491Y-8423722D01*
X3741491Y-8423722D02*
X3751015Y-8442770D01*
X3751015Y-8442770D02*
X3751015Y-8490389D01*
X3751015Y-8490389D02*
X3741491Y-8509436D01*
X3741491Y-8509436D02*
X3731968Y-8518960D01*
X3731968Y-8518960D02*
X3712920Y-8528484D01*
X3712920Y-8528484D02*
X3655777Y-8528484D01*
X3655777Y-8528484D02*
X3636729Y-8518960D01*
X3636729Y-8518960D02*
X3627206Y-8509436D01*
X3922444Y-8395150D02*
X3922444Y-8528484D01*
X3874825Y-8318960D02*
X3827206Y-8461817D01*
X3827206Y-8461817D02*
X3951015Y-8461817D01*
X4179587Y-8528484D02*
X4179587Y-8328484D01*
X4265301Y-8528484D02*
X4265301Y-8423722D01*
X4265301Y-8423722D02*
X4255777Y-8404674D01*
X4255777Y-8404674D02*
X4236730Y-8395150D01*
X4236730Y-8395150D02*
X4208158Y-8395150D01*
X4208158Y-8395150D02*
X4189110Y-8404674D01*
X4189110Y-8404674D02*
X4179587Y-8414198D01*
X4389111Y-8528484D02*
X4370063Y-8518960D01*
X4370063Y-8518960D02*
X4360539Y-8509436D01*
X4360539Y-8509436D02*
X4351015Y-8490389D01*
X4351015Y-8490389D02*
X4351015Y-8433246D01*
X4351015Y-8433246D02*
X4360539Y-8414198D01*
X4360539Y-8414198D02*
X4370063Y-8404674D01*
X4370063Y-8404674D02*
X4389111Y-8395150D01*
X4389111Y-8395150D02*
X4417682Y-8395150D01*
X4417682Y-8395150D02*
X4436730Y-8404674D01*
X4436730Y-8404674D02*
X4446253Y-8414198D01*
X4446253Y-8414198D02*
X4455777Y-8433246D01*
X4455777Y-8433246D02*
X4455777Y-8490389D01*
X4455777Y-8490389D02*
X4446253Y-8509436D01*
X4446253Y-8509436D02*
X4436730Y-8518960D01*
X4436730Y-8518960D02*
X4417682Y-8528484D01*
X4417682Y-8528484D02*
X4389111Y-8528484D01*
X4570063Y-8528484D02*
X4551015Y-8518960D01*
X4551015Y-8518960D02*
X4541492Y-8499912D01*
X4541492Y-8499912D02*
X4541492Y-8328484D01*
X4722444Y-8518960D02*
X4703396Y-8528484D01*
X4703396Y-8528484D02*
X4665301Y-8528484D01*
X4665301Y-8528484D02*
X4646253Y-8518960D01*
X4646253Y-8518960D02*
X4636730Y-8499912D01*
X4636730Y-8499912D02*
X4636730Y-8423722D01*
X4636730Y-8423722D02*
X4646253Y-8404674D01*
X4646253Y-8404674D02*
X4665301Y-8395150D01*
X4665301Y-8395150D02*
X4703396Y-8395150D01*
X4703396Y-8395150D02*
X4722444Y-8404674D01*
X4722444Y-8404674D02*
X4731968Y-8423722D01*
X4731968Y-8423722D02*
X4731968Y-8442770D01*
X4731968Y-8442770D02*
X4636730Y-8461817D01*
X4808158Y-8518960D02*
X4827206Y-8528484D01*
X4827206Y-8528484D02*
X4865301Y-8528484D01*
X4865301Y-8528484D02*
X4884349Y-8518960D01*
X4884349Y-8518960D02*
X4893873Y-8499912D01*
X4893873Y-8499912D02*
X4893873Y-8490389D01*
X4893873Y-8490389D02*
X4884349Y-8471341D01*
X4884349Y-8471341D02*
X4865301Y-8461817D01*
X4865301Y-8461817D02*
X4836730Y-8461817D01*
X4836730Y-8461817D02*
X4817682Y-8452293D01*
X4817682Y-8452293D02*
X4808158Y-8433246D01*
X4808158Y-8433246D02*
X4808158Y-8423722D01*
X4808158Y-8423722D02*
X4817682Y-8404674D01*
X4817682Y-8404674D02*
X4836730Y-8395150D01*
X4836730Y-8395150D02*
X4865301Y-8395150D01*
X4865301Y-8395150D02*
X4884349Y-8404674D01*
X4960539Y-8604674D02*
X4970063Y-8595150D01*
X4970063Y-8595150D02*
X4989111Y-8566579D01*
X4989111Y-8566579D02*
X4998634Y-8547531D01*
X4998634Y-8547531D02*
X5008158Y-8518960D01*
X5008158Y-8518960D02*
X5017682Y-8471341D01*
X5017682Y-8471341D02*
X5017682Y-8433246D01*
X5017682Y-8433246D02*
X5008158Y-8385627D01*
X5008158Y-8385627D02*
X4998634Y-8357055D01*
X4998634Y-8357055D02*
X4989111Y-8338008D01*
X4989111Y-8338008D02*
X4970063Y-8309436D01*
X4970063Y-8309436D02*
X4960539Y-8299912D01*
M02*
