M48
; DRILL file KiCad 10.0.3 date 2026-08-06T23:52:44
; FORMAT={-:-/ absolute / metric / decimal}
; #@! TF.CreationDate,2026-08-06T23:52:44+12:00
; #@! TF.GenerationSoftware,Kicad,Pcbnew,10.0.3
; #@! TF.FileFunction,Plated,1,2,PTH
FMAT,2
METRIC
; #@! TA.AperFunction,Plated,PTH,ViaDrill
T1C0.300
; #@! TA.AperFunction,Plated,PTH,ComponentDrill
T2C0.600
; #@! TA.AperFunction,Plated,PTH,ComponentDrill
T3C1.000
; #@! TA.AperFunction,Plated,PTH,ComponentDrill
T4C1.200
%
G90
G05
T1
X7.262Y-28.047
X8.193Y-19.388
X10.739Y-50.0
X11.027Y-34.5
X11.223Y-35.481
X11.557Y-17.571
X12.751Y-39.356
X16.084Y-37.821
X16.385Y-39.057
X16.569Y-30.85
X16.825Y-37.201
X16.884Y-29.985
X16.901Y-41.625
X16.904Y-40.327
X17.195Y-39.185
X17.224Y-53.878
X18.175Y-40.473
X25.117Y-48.834
X27.068Y-24.965
X28.048Y-41.198
X29.19Y-54.536
X30.81Y-36.751
X34.274Y-43.97
X34.625Y-40.991
X36.108Y-34.301
X37.588Y-33.588
X38.063Y-38.801
X39.334Y-41.17
X44.984Y-28.359
X51.795Y-33.851
X53.091Y-14.97
X54.284Y-36.051
X54.809Y-33.876
X56.277Y-41.728
X57.03Y-42.129
X57.401Y-37.697
X58.635Y-43.076
X58.781Y-56.935
X58.905Y-13.062
X59.915Y-38.734
X59.919Y-40.163
X60.326Y-40.975
X60.635Y-35.18
X60.735Y-41.77
X60.889Y-39.194
X61.538Y-36.743
X61.849Y-40.735
X62.324Y-10.932
X63.934Y-39.206
X68.145Y-30.107
X68.281Y-25.378
X68.481Y-31.294
X68.959Y-12.659
X69.055Y-11.055
X70.643Y-27.689
X72.078Y-37.163
X73.081Y-36.761
X73.35Y-51.086
X73.399Y-35.152
X73.962Y-49.357
X74.291Y-29.614
X75.552Y-41.626
X75.966Y-43.976
X77.122Y-48.153
X77.133Y-34.927
X77.536Y-39.21
X77.704Y-10.894
X77.773Y-26.688
X77.798Y-47.458
X77.95Y-17.51
X78.019Y-25.75
X78.034Y-24.25
X78.196Y-35.931
X78.724Y-31.999
X78.811Y-33.773
X79.284Y-30.782
X79.455Y-29.421
X79.888Y-28.458
X80.558Y-30.782
X80.684Y-35.598
X80.815Y-23.131
X81.588Y-39.016
X82.671Y-27.319
X82.731Y-34.418
X82.826Y-22.801
X82.929Y-36.046
X83.598Y-27.742
X83.858Y-31.046
X84.383Y-28.386
X84.447Y-17.032
X84.789Y-33.171
X84.949Y-35.651
X84.956Y-21.116
X85.017Y-16.412
X85.358Y-28.382
X85.48Y-32.014
X86.558Y-38.047
X88.844Y-24.677
X88.878Y-21.718
X89.28Y-23.428
X89.376Y-25.279
X89.417Y-17.995
X90.237Y-17.834
X91.962Y-20.784
X91.977Y-21.648
X92.706Y-25.763
X92.929Y-21.44
X93.939Y-22.93
X94.475Y-16.991
X94.965Y-17.881
X95.683Y-41.625
X96.103Y-36.253
X97.556Y-12.033
X98.067Y-36.055
X98.188Y-37.925
X100.55Y-43.137
X100.784Y-42.33
X101.234Y-23.779
X101.409Y-40.272
X101.848Y-26.364
X102.882Y-25.25
X103.077Y-16.071
X103.902Y-40.325
X103.911Y-41.784
X103.934Y-39.34
X103.935Y-24.323
X104.981Y-14.13
X105.344Y-4.263
X105.709Y-22.971
X105.961Y-40.989
X106.42Y-24.547
X107.268Y-16.789
X107.974Y-12.635
X108.314Y-41.141
X108.779Y-19.225
X108.89Y-44.827
X109.054Y-5.827
X109.215Y-36.026
X109.423Y-23.129
X110.143Y-6.981
X110.276Y-9.335
X110.353Y-8.135
X111.046Y-18.18
X111.399Y-34.245
X111.573Y-45.429
X112.258Y-29.656
X112.335Y-3.44
X112.342Y-36.043
X112.438Y-10.095
X114.398Y-47.221
X115.469Y-48.481
X115.494Y-35.732
X115.635Y-40.174
X116.081Y-37.525
X117.204Y-24.187
X118.724Y-54.567
X119.547Y-42.521
X120.977Y-41.179
X122.017Y-40.416
X122.21Y-27.662
X123.376Y-39.455
X124.783Y-38.817
X130.07Y-43.752
X130.397Y-38.147
X133.231Y-19.25
X133.322Y-20.698
T3
X29.6Y-15.6
X29.6Y-19.1
X29.6Y-22.6
X29.6Y-26.1
X56.5Y-30.0
X57.4Y-13.7
X57.4Y-16.24
X57.4Y-18.78
X57.4Y-21.32
X57.4Y-23.86
X57.4Y-26.4
X59.04Y-30.0
X61.58Y-30.0
X64.0Y-34.0
X66.54Y-34.0
X69.08Y-34.0
X71.62Y-34.0
X74.16Y-34.0
T4
X16.3Y-65.0
X19.8Y-65.0
X23.3Y-65.0
X26.8Y-65.0
X30.3Y-65.0
X33.0Y-5.0
X33.8Y-65.0
X36.5Y-5.0
X37.3Y-65.0
X48.0Y-5.0
X51.5Y-5.0
X60.3Y-65.0
X63.0Y-5.0
X63.8Y-65.0
X66.5Y-5.0
X67.3Y-65.0
X70.0Y-5.0
X70.8Y-65.0
X74.3Y-65.0
X77.8Y-65.0
X81.3Y-65.0
X81.5Y-5.0
X85.0Y-5.0
X88.5Y-5.0
X100.0Y-5.0
X103.5Y-5.0
X104.3Y-65.0
X107.0Y-5.0
X107.8Y-65.0
X111.3Y-65.0
X114.8Y-65.0
X118.3Y-65.0
X121.8Y-65.0
X125.3Y-65.0
T2
X132.145Y-15.68G85X133.245Y-15.68
G05
X132.145Y-24.32G85X133.245Y-24.32
G05
X136.575Y-15.68G85X137.175Y-15.68
G05
X136.575Y-24.32G85X137.175Y-24.32
G05
M30
