%TF.GenerationSoftware,KiCad,Pcbnew,10.0.3*%
%TF.CreationDate,2026-08-06T17:31:45+12:00*%
%TF.ProjectId,rcm,72636d2e-6b69-4636-9164-5f7063625858,A*%
%TF.SameCoordinates,Original*%
%TF.FileFunction,Copper,L2,Bot*%
%TF.FilePolarity,Positive*%
%FSLAX46Y46*%
G04 Gerber Fmt 4.6, Leading zero omitted, Abs format (unit mm)*
G04 Created by KiCad (PCBNEW 10.0.3) date 2026-08-06 17:31:45*
%MOMM*%
%LPD*%
G01*
G04 APERTURE LIST*
G04 Aperture macros list*
%AMRoundRect*
0 Rectangle with rounded corners*
0 $1 Rounding radius*
0 $2 $3 $4 $5 $6 $7 $8 $9 X,Y pos of 4 corners*
0 Add a 4 corners polygon primitive as box body*
4,1,4,$2,$3,$4,$5,$6,$7,$8,$9,$2,$3,0*
0 Add four circle primitives for the rounded corners*
1,1,$1+$1,$2,$3*
1,1,$1+$1,$4,$5*
1,1,$1+$1,$6,$7*
1,1,$1+$1,$8,$9*
0 Add four rect primitives between the rounded corners*
20,1,$1+$1,$2,$3,$4,$5,0*
20,1,$1+$1,$4,$5,$6,$7,0*
20,1,$1+$1,$6,$7,$8,$9,0*
20,1,$1+$1,$8,$9,$2,$3,0*%
G04 Aperture macros list end*
%TA.AperFunction,ComponentPad*%
%ADD10RoundRect,0.575000X0.575000X0.575000X-0.575000X0.575000X-0.575000X-0.575000X0.575000X-0.575000X0*%
%TD*%
%TA.AperFunction,ComponentPad*%
%ADD11C,2.300000*%
%TD*%
%TA.AperFunction,ComponentPad*%
%ADD12O,2.100000X1.000000*%
%TD*%
%TA.AperFunction,ComponentPad*%
%ADD13O,1.600000X1.000000*%
%TD*%
%TA.AperFunction,ComponentPad*%
%ADD14RoundRect,0.575000X-0.575000X-0.575000X0.575000X-0.575000X0.575000X0.575000X-0.575000X0.575000X0*%
%TD*%
%TA.AperFunction,ComponentPad*%
%ADD15R,1.700000X1.700000*%
%TD*%
%TA.AperFunction,ComponentPad*%
%ADD16C,1.700000*%
%TD*%
%TA.AperFunction,ViaPad*%
%ADD17C,0.600000*%
%TD*%
%TA.AperFunction,Conductor*%
%ADD18C,0.200000*%
%TD*%
G04 APERTURE END LIST*
D10*
%TO.P,J_AUX,1*%
%TO.N,AUX1*%
X70000000Y-5000000D03*
D11*
%TO.P,J_AUX,2*%
%TO.N,AUX2*%
X66500000Y-5000000D03*
%TO.P,J_AUX,3*%
%TO.N,AUX3*%
X63000000Y-5000000D03*
%TD*%
D12*
%TO.P,J_USB,SH*%
%TO.N,GND*%
X132695000Y-24320000D03*
D13*
X136875000Y-24320000D03*
D12*
X132695000Y-15680000D03*
D13*
X136875000Y-15680000D03*
%TD*%
D10*
%TO.P,J_CAN2,1*%
%TO.N,CANH*%
X107000000Y-5000000D03*
D11*
%TO.P,J_CAN2,2*%
%TO.N,CANL*%
X103500000Y-5000000D03*
%TO.P,J_CAN2,3*%
%TO.N,GND*%
X100000000Y-5000000D03*
%TD*%
D14*
%TO.P,J_CH2,1*%
%TO.N,CH8*%
X60300000Y-65000000D03*
D11*
%TO.P,J_CH2,2*%
%TO.N,CH9*%
X63800000Y-65000000D03*
%TO.P,J_CH2,3*%
%TO.N,CH10*%
X67300000Y-65000000D03*
%TO.P,J_CH2,4*%
%TO.N,CH11*%
X70800000Y-65000000D03*
%TO.P,J_CH2,5*%
%TO.N,CH12*%
X74300000Y-65000000D03*
%TO.P,J_CH2,6*%
%TO.N,CH13*%
X77800000Y-65000000D03*
%TO.P,J_CH2,7*%
%TO.N,CH14*%
X81300000Y-65000000D03*
%TD*%
D10*
%TO.P,J_IGN,1*%
%TO.N,LATCH_IGN*%
X51500000Y-5000000D03*
D11*
%TO.P,J_IGN,2*%
%TO.N,GND*%
X48000000Y-5000000D03*
%TD*%
D14*
%TO.P,J_CH3,1*%
%TO.N,CH15*%
X104300000Y-65000000D03*
D11*
%TO.P,J_CH3,2*%
%TO.N,CH16*%
X107800000Y-65000000D03*
%TO.P,J_CH3,3*%
%TO.N,CH17*%
X111300000Y-65000000D03*
%TO.P,J_CH3,4*%
%TO.N,CH18*%
X114800000Y-65000000D03*
%TO.P,J_CH3,5*%
%TO.N,CH19*%
X118300000Y-65000000D03*
%TO.P,J_CH3,6*%
%TO.N,CH20*%
X121800000Y-65000000D03*
%TO.P,J_CH3,7*%
%TO.N,CH21*%
X125300000Y-65000000D03*
%TD*%
D15*
%TO.P,JB2,1*%
%TO.N,+5V*%
X57400000Y-13700000D03*
D16*
X57400000Y-16240000D03*
X57400000Y-18780000D03*
%TO.P,JB2,2*%
%TO.N,GND*%
X57400000Y-21320000D03*
X57400000Y-23860000D03*
X57400000Y-26400000D03*
%TD*%
D15*
%TO.P,J_BOOT,1*%
%TO.N,+3V3*%
X56500000Y-30000000D03*
D16*
%TO.P,J_BOOT,2*%
%TO.N,BOOT0*%
X59040000Y-30000000D03*
%TO.P,J_BOOT,3*%
%TO.N,GND*%
X61580000Y-30000000D03*
%TD*%
D15*
%TO.P,J_SWD,1*%
%TO.N,+3V3*%
X64000000Y-34000000D03*
D16*
%TO.P,J_SWD,2*%
%TO.N,SWDIO*%
X66540000Y-34000000D03*
%TO.P,J_SWD,3*%
%TO.N,SWCLK*%
X69080000Y-34000000D03*
%TO.P,J_SWD,4*%
%TO.N,NRST*%
X71620000Y-34000000D03*
%TO.P,J_SWD,5*%
%TO.N,GND*%
X74160000Y-34000000D03*
%TD*%
D14*
%TO.P,J_CH1,1*%
%TO.N,CH1*%
X16300000Y-65000000D03*
D11*
%TO.P,J_CH1,2*%
%TO.N,CH2*%
X19800000Y-65000000D03*
%TO.P,J_CH1,3*%
%TO.N,CH3*%
X23300000Y-65000000D03*
%TO.P,J_CH1,4*%
%TO.N,CH4*%
X26800000Y-65000000D03*
%TO.P,J_CH1,5*%
%TO.N,CH5*%
X30300000Y-65000000D03*
%TO.P,J_CH1,6*%
%TO.N,CH6*%
X33800000Y-65000000D03*
%TO.P,J_CH1,7*%
%TO.N,CH7*%
X37300000Y-65000000D03*
%TD*%
D10*
%TO.P,J_PWR,1*%
%TO.N,+12V_IN*%
X36500000Y-5000000D03*
D11*
%TO.P,J_PWR,2*%
%TO.N,GND*%
X33000000Y-5000000D03*
%TD*%
D10*
%TO.P,J_CAN1,1*%
%TO.N,CANH*%
X88500000Y-5000000D03*
D11*
%TO.P,J_CAN1,2*%
%TO.N,CANL*%
X85000000Y-5000000D03*
%TO.P,J_CAN1,3*%
%TO.N,GND*%
X81500000Y-5000000D03*
%TD*%
D15*
%TO.P,JB1,1*%
%TO.N,+12V_SW*%
X29600000Y-15600000D03*
D16*
X29600000Y-19100000D03*
%TO.P,JB1,2*%
%TO.N,GND*%
X29600000Y-22600000D03*
X29600000Y-26100000D03*
%TD*%
D17*
%TO.N,SNS10*%
X79533400Y-36239800D03*
X73217000Y-54297700D03*
%TO.N,GND*%
X28639400Y-37522900D03*
X96937500Y-42984500D03*
X96671200Y-52553900D03*
X95833400Y-50090900D03*
X102165900Y-15201500D03*
X129660500Y-53727000D03*
X128762200Y-35877400D03*
%TO.N,SNS4*%
X28667400Y-54529300D03*
X35249200Y-40425700D03*
%TO.N,+3V3*%
X84336100Y-24477800D03*
X82637000Y-31268700D03*
X71826200Y-36189700D03*
X80646300Y-21973700D03*
X86526800Y-27697800D03*
X80418500Y-16745100D03*
X78822700Y-39675900D03*
X78950200Y-19587900D03*
X85875400Y-15344600D03*
%TO.N,+12V_P*%
X13236100Y-48052700D03*
X13233300Y-42928700D03*
X11030900Y-34286100D03*
X107236300Y-47838500D03*
X101745300Y-48352200D03*
%TO.N,CH2*%
X14953200Y-51945000D03*
%TO.N,CH21*%
X102860400Y-44306100D03*
%TO.N,CH10*%
X67010300Y-59869700D03*
X66008400Y-50912500D03*
%TO.N,AUX1*%
X59984700Y-11055200D03*
%TO.N,AUX3*%
X70933100Y-11055200D03*
%TO.N,USB_VBUS*%
X130899600Y-22400000D03*
X130834200Y-17600000D03*
%TO.N,USB_DM*%
X129492100Y-20227600D03*
X125056600Y-21837500D03*
%TO.N,CANH*%
X105766900Y-16979300D03*
%TO.N,CANL*%
X105986100Y-15909200D03*
%TO.N,SNS16*%
X99851100Y-54560600D03*
X124886500Y-39346300D03*
%TO.N,CH12*%
X57610600Y-42829100D03*
%TO.N,CH8*%
X56479600Y-50635400D03*
X57422200Y-38035000D03*
%TO.N,CH9*%
X58319500Y-51939500D03*
X56536300Y-39390900D03*
%TO.N,CH11*%
X67015900Y-50915700D03*
%TO.N,CH13*%
X59996500Y-41318000D03*
%TO.N,CH14*%
X59228500Y-45339000D03*
%TO.N,CH6*%
X17133800Y-41421500D03*
%TO.N,SNS6*%
X36165000Y-43968200D03*
X38462600Y-51957000D03*
%TO.N,NRST*%
X94010800Y-22242200D03*
X81523000Y-23356700D03*
%TO.N,IGN_SENSE*%
X63259900Y-30807000D03*
X15387500Y-31291100D03*
%TO.N,SR_SCK*%
X109253000Y-35789000D03*
X47051900Y-35148800D03*
X40404200Y-40978000D03*
X80592300Y-28815100D03*
%TO.N,SR_MISO*%
X83440100Y-30963900D03*
X82189100Y-34558600D03*
X98140200Y-35529700D03*
X118859200Y-35263200D03*
%TO.N,SR_MOSI*%
X98427100Y-38543700D03*
X84303700Y-30971800D03*
%TO.N,SR_RCLK*%
X76039200Y-33426100D03*
X77970100Y-32758500D03*
X68143000Y-39838700D03*
X24061700Y-38797500D03*
X78824100Y-32758500D03*
X85466800Y-30957300D03*
X112358700Y-35790700D03*
X66814100Y-38803600D03*
%TO.N,SR_PL*%
X75966500Y-45929200D03*
X99584800Y-46833200D03*
X79482600Y-40236300D03*
X65591200Y-45762900D03*
X116662700Y-43075500D03*
X85358700Y-32909000D03*
X56895400Y-43893200D03*
%TO.N,SR_OE_N*%
X105024400Y-36723400D03*
X86870500Y-31001800D03*
X57977700Y-35005100D03*
X29204600Y-36770100D03*
X68767600Y-39252700D03*
%TO.N,EEP_CS*%
X90882800Y-31460600D03*
X89016200Y-27596000D03*
%TO.N,EEP_SCK*%
X95268500Y-27279600D03*
X103056500Y-33867200D03*
%TO.N,EEP_MISO*%
X89395000Y-26750000D03*
X99228600Y-32365000D03*
%TO.N,EEP_MOSI*%
X92103800Y-26659300D03*
X100028300Y-35345600D03*
%TO.N,SWDIO*%
X87217200Y-21616200D03*
%TO.N,SWCLK*%
X81647100Y-21272500D03*
%TO.N,IMU_SCL*%
X87981100Y-17023100D03*
X121908700Y-28496200D03*
X117405600Y-23418600D03*
X105876600Y-23826700D03*
%TO.N,IMU_SDA*%
X96323700Y-24817300D03*
X81945100Y-19721900D03*
%TO.N,BOOT0*%
X60244100Y-27824900D03*
X84470800Y-16412500D03*
%TO.N,CAN_RX*%
X86502200Y-13905000D03*
X82775200Y-19622900D03*
%TO.N,CH1*%
X13439300Y-53149300D03*
%TO.N,SNS1*%
X38104100Y-38995900D03*
X10335400Y-54256300D03*
%TO.N,ASNS1*%
X38730100Y-43960400D03*
X43145500Y-10087500D03*
%TO.N,LATCH_IGN*%
X15403200Y-30455300D03*
%TO.N,CH15*%
X101285400Y-37784900D03*
%TO.N,CH17*%
X107767300Y-51710300D03*
%TO.N,CH18*%
X109446000Y-51949900D03*
X104508700Y-42232000D03*
%TO.N,CH20*%
X103920300Y-40975000D03*
X123694500Y-51087500D03*
%TO.N,SNS13*%
X82265900Y-52548500D03*
X80135200Y-43957600D03*
%TO.N,SNS17*%
X116013700Y-52774900D03*
X121003000Y-40459500D03*
%TO.N,SNS11*%
X77455600Y-35901400D03*
X72025700Y-55053300D03*
%TO.N,SNS7*%
X40170500Y-45914500D03*
X43565800Y-54788000D03*
%TO.N,SNS20*%
X124766600Y-43780400D03*
X127753000Y-54582000D03*
%TO.N,+5V*%
X28001400Y-33300000D03*
X38082000Y-18780000D03*
%TO.N,LATCH_GND*%
X8497400Y-19302300D03*
X8231900Y-27787400D03*
%TO.N,ASNS3*%
X77087000Y-11206200D03*
X126416600Y-40985000D03*
%TO.N,SNS18*%
X117295000Y-54624300D03*
X120193000Y-40367100D03*
%TO.N,CH5*%
X16596700Y-45402000D03*
%TO.N,SNS5*%
X34895000Y-43976800D03*
X31910200Y-54522700D03*
%TO.N,SNS14*%
X81932500Y-43903200D03*
X90007900Y-55626900D03*
%TO.N,SNS8*%
X61755300Y-54427700D03*
X64670700Y-46585600D03*
X78557200Y-35845200D03*
X72621400Y-46585600D03*
%TO.N,+12V_IN*%
X8568800Y-16585500D03*
%TO.N,SR_DI12*%
X80832700Y-36194100D03*
X64682900Y-39719100D03*
%TO.N,SNS2*%
X15929700Y-54581200D03*
X36860100Y-39361100D03*
%TO.N,SNS3*%
X35534700Y-39592700D03*
X24849800Y-51662600D03*
%TO.N,IMU_SDO*%
X102897300Y-25250000D03*
X112583300Y-29856200D03*
%TO.N,DRV2*%
X15921700Y-38573700D03*
X12034400Y-38834900D03*
%TO.N,DRV6*%
X20615000Y-39683100D03*
X9475400Y-43013200D03*
%TO.N,DRV7*%
X10177700Y-41311200D03*
X23663900Y-40216400D03*
%TO.N,SR_CH21*%
X47600500Y-46942700D03*
X72047600Y-37525000D03*
%TO.N,DRV1*%
X10203600Y-38003600D03*
X19973200Y-39022400D03*
%TO.N,SNS12*%
X75910300Y-54522800D03*
X78897500Y-40974100D03*
%TO.N,DRV8*%
X61170700Y-38867400D03*
X63060000Y-38864400D03*
%TO.N,DRV9*%
X61821600Y-43842800D03*
X61162200Y-52587700D03*
X52301800Y-52550300D03*
X54687700Y-38425000D03*
%TO.N,DRV11*%
X56144000Y-40172900D03*
X62057200Y-39778800D03*
%TO.N,DRV12*%
X63601700Y-40443100D03*
X55935100Y-42613600D03*
%TO.N,DRV13*%
X54856300Y-36988100D03*
X61730700Y-36017500D03*
%TO.N,DRV14*%
X57375100Y-39160000D03*
X66521200Y-40159600D03*
%TO.N,ASNS2*%
X43122800Y-12526700D03*
X70143900Y-40585100D03*
%TO.N,SR_DI23*%
X94300300Y-33032700D03*
X108539100Y-30492700D03*
X119253500Y-34521300D03*
X94106500Y-36225400D03*
%TO.N,SNS9*%
X81435000Y-35651700D03*
X75539900Y-58951700D03*
%TO.N,SR_CH32*%
X116055000Y-37579200D03*
X97087000Y-45321600D03*
%TO.N,SNS15*%
X122911300Y-40073600D03*
X96884700Y-56750000D03*
%TO.N,CH7*%
X17044400Y-42269800D03*
X42932600Y-51035400D03*
%TO.N,DRV17*%
X95308800Y-41525000D03*
X106985500Y-41181100D03*
X99618100Y-47960300D03*
X94617400Y-47960300D03*
%TO.N,DRV19*%
X95670200Y-40325000D03*
X101345000Y-45812700D03*
X105237700Y-45996700D03*
X93746600Y-46060800D03*
%TO.N,DRV20*%
X104867300Y-44589200D03*
X98757200Y-41182700D03*
%TO.N,DRV21*%
X104434500Y-45290400D03*
X100853500Y-44850000D03*
%TD*%
%TO.N,SNS10*%
D18*
X73217000Y-54297700D02*
X73223100Y-54291600D01*
X73223100Y-42550100D02*
X79533400Y-36239800D01*
X73223100Y-54291600D02*
X73223100Y-42550100D01*
%TO.N,GND*%
X96067800Y-43854200D02*
X96937500Y-42984500D01*
X128763800Y-35877400D02*
X128762200Y-35877400D01*
X67810000Y-33605100D02*
X64204900Y-30000000D01*
X61580000Y-30000000D02*
X61568100Y-30000000D01*
X136875000Y-24320000D02*
X135773300Y-24320000D01*
X48000000Y-11920000D02*
X48000000Y-5000000D01*
X61568100Y-30000000D02*
X57968100Y-26400000D01*
X74160000Y-34000000D02*
X72981900Y-35178100D01*
X64204900Y-30000000D02*
X61580000Y-30000000D01*
X135773300Y-24320000D02*
X135773300Y-15680000D01*
X27399600Y-36283100D02*
X28639400Y-37522900D01*
X132695000Y-24320000D02*
X131343300Y-24320000D01*
X57400000Y-26400000D02*
X57400000Y-23860000D01*
X136875000Y-15680000D02*
X135773300Y-15680000D01*
X128763800Y-52830300D02*
X129660500Y-53727000D01*
X72981900Y-35178100D02*
X68627800Y-35178100D01*
X29600000Y-26100000D02*
X29600000Y-22600000D01*
X67810000Y-34360300D02*
X67810000Y-33605100D01*
X27399600Y-28300400D02*
X27399600Y-36283100D01*
X131343300Y-33297900D02*
X131343300Y-24320000D01*
X128763800Y-35877400D02*
X131343300Y-33297900D01*
X68627800Y-35178100D02*
X67810000Y-34360300D01*
X57400000Y-23860000D02*
X57400000Y-21320000D01*
X98475300Y-6524700D02*
X83024700Y-6524700D01*
X83024700Y-6524700D02*
X81500000Y-5000000D01*
X128763800Y-35877400D02*
X128763800Y-52830300D01*
X96067800Y-50090900D02*
X96067800Y-43854200D01*
X98475300Y-6524700D02*
X102165900Y-10215300D01*
X96671200Y-52553900D02*
X96067800Y-51950500D01*
X96067800Y-51950500D02*
X96067800Y-50090900D01*
X57400000Y-21320000D02*
X48000000Y-11920000D01*
X57968100Y-26400000D02*
X57400000Y-26400000D01*
X102165900Y-10215300D02*
X102165900Y-15201500D01*
X29600000Y-26100000D02*
X27399600Y-28300400D01*
X96067800Y-50090900D02*
X95833400Y-50090900D01*
X100000000Y-5000000D02*
X98475300Y-6524700D01*
%TO.N,SNS4*%
X28667400Y-54529300D02*
X28667400Y-47007500D01*
X28667400Y-47007500D02*
X35249200Y-40425700D01*
%TO.N,+3V3*%
X78950200Y-19587900D02*
X78950200Y-18213400D01*
X82790800Y-35707800D02*
X82790800Y-31422500D01*
X84336100Y-24477800D02*
X84078800Y-24477800D01*
X67053500Y-36189700D02*
X71826200Y-36189700D01*
X78950200Y-18213400D02*
X80418500Y-16745100D01*
X80646300Y-21284000D02*
X80646300Y-21973700D01*
X74183400Y-36189600D02*
X74183400Y-36189700D01*
X86526800Y-27697800D02*
X84336100Y-25507100D01*
X64000000Y-34000000D02*
X61363800Y-34000000D01*
X56500000Y-30000000D02*
X57651700Y-30000000D01*
X65151700Y-34287900D02*
X67053500Y-36189700D01*
X78822700Y-39675900D02*
X82790800Y-35707800D01*
X84078800Y-24477800D02*
X76650800Y-31905800D01*
X65151700Y-34000000D02*
X65151700Y-34287900D01*
X84336100Y-25507100D02*
X84336100Y-24477800D01*
X57651700Y-30287900D02*
X57651700Y-30000000D01*
X76650800Y-31905800D02*
X76650800Y-33722200D01*
X61363800Y-34000000D02*
X57651700Y-30287900D01*
X85875400Y-15885200D02*
X85875400Y-15344600D01*
X64000000Y-34000000D02*
X65151700Y-34000000D01*
X80702700Y-17029300D02*
X84731300Y-17029300D01*
X74183400Y-36189700D02*
X71826200Y-36189700D01*
X80418500Y-16745100D02*
X80702700Y-17029300D01*
X76650800Y-33722200D02*
X74183400Y-36189600D01*
X82790800Y-31422500D02*
X82637000Y-31268700D01*
X84731300Y-17029300D02*
X85875400Y-15885200D01*
X78950200Y-19587900D02*
X80646300Y-21284000D01*
%TO.N,+12V_P*%
X103466000Y-44003700D02*
X103462200Y-44007500D01*
X13233300Y-41941400D02*
X13233300Y-42928700D01*
X102660600Y-43704400D02*
X102777600Y-43587400D01*
X104493800Y-46293800D02*
X106038500Y-47838500D01*
X13233300Y-42928700D02*
X13236100Y-42931500D01*
X103308900Y-45108900D02*
X103431100Y-45231100D01*
X103431100Y-45231100D02*
X103431100Y-45705800D01*
X103462200Y-44637500D02*
X103308900Y-44790800D01*
X103462200Y-44007500D02*
X103462200Y-44637500D01*
X102258700Y-44057000D02*
X102611300Y-43704400D01*
X103308900Y-44790800D02*
X103308900Y-45108900D01*
X102777600Y-43587400D02*
X103132300Y-43587400D01*
X13236100Y-42931500D02*
X13236100Y-48052700D01*
X106038500Y-47838500D02*
X107236300Y-47838500D01*
X102611300Y-43704400D02*
X102660600Y-43704400D01*
X101745300Y-48352200D02*
X102258700Y-47838800D01*
X102258700Y-47838800D02*
X102258700Y-44057000D01*
X104019100Y-46293800D02*
X104493800Y-46293800D01*
X11030900Y-39739000D02*
X13233300Y-41941400D01*
X103466000Y-43921100D02*
X103466000Y-44003700D01*
X103431100Y-45705800D02*
X104019100Y-46293800D01*
X11030900Y-34286100D02*
X11030900Y-39739000D01*
X103132300Y-43587400D02*
X103466000Y-43921100D01*
%TO.N,CH2*%
X19800000Y-65000000D02*
X14953200Y-60153200D01*
X14953200Y-60153200D02*
X14953200Y-51945000D01*
%TO.N,CH21*%
X108369000Y-52211600D02*
X108369000Y-51211700D01*
X120050100Y-65356100D02*
X120050100Y-63892700D01*
X108369000Y-51211700D02*
X102860400Y-45703100D01*
X102860400Y-45703100D02*
X102860400Y-44306100D01*
X120050100Y-63892700D02*
X108369000Y-52211600D01*
X123837600Y-66462400D02*
X121156400Y-66462400D01*
X121156400Y-66462400D02*
X120050100Y-65356100D01*
X125300000Y-65000000D02*
X123837600Y-66462400D01*
%TO.N,CH10*%
X67010300Y-51914400D02*
X66008400Y-50912500D01*
X67010300Y-59869700D02*
X67010300Y-51914400D01*
%TO.N,AUX1*%
X68547900Y-3547900D02*
X62397700Y-3547900D01*
X59984700Y-5960900D02*
X59984700Y-11055200D01*
X62397700Y-3547900D02*
X59984700Y-5960900D01*
X70000000Y-5000000D02*
X68547900Y-3547900D01*
%TO.N,AUX3*%
X63000000Y-5000000D02*
X69055200Y-11055200D01*
X69055200Y-11055200D02*
X70933100Y-11055200D01*
%TO.N,USB_VBUS*%
X130834200Y-22334600D02*
X130899600Y-22400000D01*
X130834200Y-17600000D02*
X130834200Y-22334600D01*
%TO.N,USB_DM*%
X127882200Y-21837500D02*
X129492100Y-20227600D01*
X125056600Y-21837500D02*
X127882200Y-21837500D01*
%TO.N,CANH*%
X107000000Y-15746200D02*
X107000000Y-5000000D01*
X105766900Y-16979300D02*
X107000000Y-15746200D01*
%TO.N,CANL*%
X105986100Y-7486100D02*
X105986100Y-15909200D01*
X103500000Y-5000000D02*
X105986100Y-7486100D01*
%TO.N,SNS16*%
X101829400Y-40950200D02*
X99469100Y-43310500D01*
X98965900Y-44962800D02*
X98965900Y-53675400D01*
X99046700Y-44882000D02*
X98965900Y-44962800D01*
X99469100Y-43679600D02*
X99046700Y-44102000D01*
X101829500Y-40950200D02*
X101829400Y-40950200D01*
X124886500Y-39346300D02*
X123554700Y-40678100D01*
X121264000Y-39554500D02*
X103225200Y-39554500D01*
X103225200Y-39554500D02*
X101829500Y-40950200D01*
X122387600Y-40678100D02*
X121264000Y-39554500D01*
X99469100Y-43310500D02*
X99469100Y-43679600D01*
X123554700Y-40678100D02*
X122387600Y-40678100D01*
X99046700Y-44102000D02*
X99046700Y-44882000D01*
X98965900Y-53675400D02*
X99851100Y-54560600D01*
%TO.N,CH12*%
X74300000Y-65000000D02*
X72387200Y-63087200D01*
X60560500Y-54288100D02*
X60560500Y-45779000D01*
X69359600Y-63087200D02*
X60560500Y-54288100D01*
X72387200Y-63087200D02*
X69359600Y-63087200D01*
X60560500Y-45779000D02*
X57610600Y-42829100D01*
%TO.N,CH8*%
X56119100Y-38770100D02*
X54931700Y-39957500D01*
X57422200Y-38035000D02*
X56687100Y-38770100D01*
X56687100Y-38770100D02*
X56119100Y-38770100D01*
X54931700Y-49087500D02*
X56479600Y-50635400D01*
X60300000Y-65000000D02*
X56479600Y-61179600D01*
X54931700Y-39957500D02*
X54931700Y-49087500D01*
X56479600Y-61179600D02*
X56479600Y-50635400D01*
%TO.N,CH9*%
X56285400Y-39171800D02*
X56317200Y-39171800D01*
X55333400Y-40123800D02*
X56285400Y-39171800D01*
X58319500Y-46542500D02*
X55333400Y-43556400D01*
X55333400Y-43556400D02*
X55333400Y-40123800D01*
X56317200Y-39171800D02*
X56536300Y-39390900D01*
X63800000Y-65000000D02*
X58319500Y-59519500D01*
X58319500Y-51939500D02*
X58319500Y-46542500D01*
X58319500Y-59519500D02*
X58319500Y-51939500D01*
%TO.N,CH11*%
X75763700Y-65607400D02*
X74906100Y-66465000D01*
X74906100Y-66465000D02*
X72265000Y-66465000D01*
X70103800Y-54934400D02*
X75763700Y-60594300D01*
X67015900Y-50915700D02*
X70103800Y-54003600D01*
X70103800Y-54003600D02*
X70103800Y-54934400D01*
X72265000Y-66465000D02*
X70800000Y-65000000D01*
X75763700Y-60594300D02*
X75763700Y-65607400D01*
%TO.N,CH13*%
X77800000Y-61979100D02*
X75374300Y-59553400D01*
X77800000Y-65000000D02*
X77800000Y-61979100D01*
X74938200Y-58866600D02*
X70505500Y-54433900D01*
X70505500Y-54433900D02*
X70505500Y-51551500D01*
X70505500Y-51551500D02*
X60272000Y-41318000D01*
X75290800Y-59553400D02*
X74938200Y-59200800D01*
X74938200Y-59200800D02*
X74938200Y-58866600D01*
X60272000Y-41318000D02*
X59996500Y-41318000D01*
X75374300Y-59553400D02*
X75290800Y-59553400D01*
%TO.N,CH14*%
X70558900Y-66868900D02*
X69348300Y-65658300D01*
X81300000Y-65000000D02*
X79431100Y-66868900D01*
X69348300Y-64085500D02*
X59228500Y-53965700D01*
X59228500Y-53965700D02*
X59228500Y-45339000D01*
X79431100Y-66868900D02*
X70558900Y-66868900D01*
X69348300Y-65658300D02*
X69348300Y-64085500D01*
%TO.N,CH6*%
X16374100Y-42089000D02*
X17041600Y-41421500D01*
X33800000Y-65000000D02*
X18727400Y-49927400D01*
X16374100Y-42789400D02*
X16374100Y-42089000D01*
X18727400Y-45142700D02*
X16374100Y-42789400D01*
X18727400Y-49927400D02*
X18727400Y-45142700D01*
X17041600Y-41421500D02*
X17133800Y-41421500D01*
%TO.N,SNS6*%
X38462600Y-46265800D02*
X36165000Y-43968200D01*
X38462600Y-51957000D02*
X38462600Y-46265800D01*
%TO.N,NRST*%
X83865300Y-21014400D02*
X92783000Y-21014400D01*
X71620000Y-34000000D02*
X81523000Y-24097000D01*
X92783000Y-21014400D02*
X94010800Y-22242200D01*
X81523000Y-23356700D02*
X83865300Y-21014400D01*
X81523000Y-24097000D02*
X81523000Y-23356700D01*
%TO.N,IGN_SENSE*%
X60310000Y-29578100D02*
X58874700Y-28142800D01*
X29075100Y-20850000D02*
X18634000Y-31291100D01*
X18634000Y-31291100D02*
X15387500Y-31291100D01*
X43418300Y-9441200D02*
X42720300Y-9441200D01*
X63259900Y-30807000D02*
X62915200Y-31151700D01*
X60310000Y-30382500D02*
X60310000Y-29578100D01*
X31311500Y-20850000D02*
X29075100Y-20850000D01*
X43913500Y-9936400D02*
X43418300Y-9441200D01*
X57456400Y-28142800D02*
X43913500Y-14599900D01*
X42720300Y-9441200D02*
X31311500Y-20850000D01*
X61079200Y-31151700D02*
X60310000Y-30382500D01*
X43913500Y-14599900D02*
X43913500Y-9936400D01*
X62915200Y-31151700D02*
X61079200Y-31151700D01*
X58874700Y-28142800D02*
X57456400Y-28142800D01*
%TO.N,SR_SCK*%
X46233400Y-35148800D02*
X47051900Y-35148800D01*
X40404200Y-40978000D02*
X46233400Y-35148800D01*
X90278400Y-32062400D02*
X87031100Y-28815100D01*
X104386800Y-35720000D02*
X104144300Y-35962500D01*
X109184000Y-35720000D02*
X104386800Y-35720000D01*
X95826600Y-32062400D02*
X90278400Y-32062400D01*
X109253000Y-35789000D02*
X109184000Y-35720000D01*
X104144300Y-35962500D02*
X99726700Y-35962500D01*
X99726700Y-35962500D02*
X95826600Y-32062400D01*
X87031100Y-28815100D02*
X80592300Y-28815100D01*
%TO.N,SR_MISO*%
X105273600Y-36121700D02*
X104775300Y-36121700D01*
X99002900Y-36392400D02*
X98140200Y-35529700D01*
X83138700Y-30662500D02*
X83440100Y-30963900D01*
X117730000Y-36392400D02*
X105544300Y-36392400D01*
X105544300Y-36392400D02*
X105273600Y-36121700D01*
X82017600Y-30998400D02*
X82353500Y-30662500D01*
X104765600Y-36131400D02*
X104543400Y-36131400D01*
X118859200Y-35263200D02*
X117730000Y-36392400D01*
X82017600Y-34387100D02*
X82017600Y-30998400D01*
X104775300Y-36121700D02*
X104765600Y-36131400D01*
X82189100Y-34558600D02*
X82017600Y-34387100D01*
X104543400Y-36131400D02*
X104282400Y-36392400D01*
X82353500Y-30662500D02*
X83138700Y-30662500D01*
X104282400Y-36392400D02*
X99002900Y-36392400D01*
%TO.N,SR_MOSI*%
X98427100Y-38543700D02*
X91875600Y-38543700D01*
X91875600Y-38543700D02*
X84303700Y-30971800D01*
%TO.N,SR_RCLK*%
X37461800Y-44184000D02*
X37461800Y-39111900D01*
X112358700Y-35790700D02*
X102220800Y-25652800D01*
X24322800Y-38536400D02*
X24061700Y-38797500D01*
X69608900Y-41588600D02*
X70559500Y-41588600D01*
X55700500Y-36997100D02*
X54874300Y-37823300D01*
X54438600Y-37823300D02*
X47294200Y-44967700D01*
X76107300Y-33358000D02*
X76039200Y-33426100D01*
X77970100Y-33610000D02*
X77970100Y-32758500D01*
X68143000Y-39838700D02*
X68143000Y-40122700D01*
X84619800Y-23337200D02*
X76107300Y-31849700D01*
X47294200Y-44967700D02*
X38245500Y-44967700D01*
X102220800Y-25652800D02*
X87017900Y-25652800D01*
X36886300Y-38536400D02*
X24322800Y-38536400D01*
X37461800Y-39111900D02*
X36886300Y-38536400D01*
X78824100Y-32758500D02*
X81372800Y-30209800D01*
X38245500Y-44967700D02*
X37461800Y-44184000D01*
X70559500Y-41588600D02*
X76452100Y-35696000D01*
X87017900Y-25652800D02*
X84702300Y-23337200D01*
X81372800Y-30209800D02*
X84719300Y-30209800D01*
X84702300Y-23337200D02*
X84619800Y-23337200D01*
X54874300Y-37823300D02*
X54438600Y-37823300D01*
X76452100Y-35696000D02*
X76452100Y-35128000D01*
X76107300Y-31849700D02*
X76107300Y-33358000D01*
X68143000Y-40122700D02*
X69608900Y-41588600D01*
X84719300Y-30209800D02*
X85466800Y-30957300D01*
X66814100Y-38803600D02*
X65007600Y-36997100D01*
X65007600Y-36997100D02*
X55700500Y-36997100D01*
X76452100Y-35128000D02*
X77970100Y-33610000D01*
%TO.N,SR_PL*%
X79441300Y-40277600D02*
X79482600Y-40236300D01*
X65378300Y-45762900D02*
X65591200Y-45762900D01*
X60331600Y-40716200D02*
X65378300Y-45762900D01*
X116662700Y-43075500D02*
X113543400Y-39956200D01*
X58862900Y-40716200D02*
X60331600Y-40716200D01*
X99889000Y-43827600D02*
X99889000Y-43827700D01*
X99889000Y-43827700D02*
X99448400Y-44268300D01*
X101995800Y-41351900D02*
X101995700Y-41351900D01*
X99870800Y-43809400D02*
X99889000Y-43827600D01*
X99448400Y-46696800D02*
X99584800Y-46833200D01*
X113543400Y-39956200D02*
X103391500Y-39956200D01*
X78692400Y-40277600D02*
X79441300Y-40277600D01*
X75966500Y-45929200D02*
X75966500Y-43003500D01*
X79482600Y-40236300D02*
X85358700Y-34360200D01*
X101995700Y-41351900D02*
X99870800Y-43476800D01*
X56895400Y-43893200D02*
X56895400Y-42683700D01*
X99870800Y-43476800D02*
X99870800Y-43809400D01*
X85358700Y-34360200D02*
X85358700Y-32909000D01*
X56895400Y-42683700D02*
X58862900Y-40716200D01*
X75966500Y-43003500D02*
X78692400Y-40277600D01*
X99448400Y-44268300D02*
X99448400Y-46696800D01*
X103391500Y-39956200D02*
X101995800Y-41351900D01*
%TO.N,SR_OE_N*%
X75909000Y-35388300D02*
X75909000Y-35032000D01*
X105024400Y-36723400D02*
X104901800Y-36846000D01*
X38110200Y-44193700D02*
X38482500Y-44566000D01*
X49181700Y-35005100D02*
X57977700Y-35005100D01*
X104901800Y-36846000D02*
X92714700Y-36846000D01*
X85607800Y-29739100D02*
X86870500Y-31001800D01*
X70393200Y-41186900D02*
X76009100Y-35571000D01*
X75909000Y-35032000D02*
X77218900Y-33722100D01*
X36781200Y-36770100D02*
X38730100Y-38719000D01*
X38730100Y-38719000D02*
X38730100Y-40007600D01*
X38482500Y-44566000D02*
X39620800Y-44566000D01*
X69844700Y-41186900D02*
X70393200Y-41186900D01*
X76009100Y-35571000D02*
X76009100Y-35488400D01*
X68767600Y-40109800D02*
X69844700Y-41186900D01*
X29204600Y-36770100D02*
X36781200Y-36770100D01*
X92714700Y-36846000D02*
X86870500Y-31001800D01*
X38730100Y-40007600D02*
X38110200Y-40627500D01*
X39620800Y-44566000D02*
X49181700Y-35005100D01*
X77218900Y-33722100D02*
X77218900Y-32636300D01*
X38110200Y-40627500D02*
X38110200Y-44193700D01*
X77218900Y-32636300D02*
X80116100Y-29739100D01*
X68767600Y-39252700D02*
X68767600Y-40109800D01*
X76009100Y-35488400D02*
X75909000Y-35388300D01*
X80116100Y-29739100D02*
X85607800Y-29739100D01*
%TO.N,EEP_CS*%
X89016200Y-27596000D02*
X89016200Y-29594000D01*
X89016200Y-29594000D02*
X90882800Y-31460600D01*
%TO.N,EEP_SCK*%
X101856100Y-33867200D02*
X103056500Y-33867200D01*
X95268500Y-27279600D02*
X101856100Y-33867200D01*
%TO.N,EEP_MISO*%
X92918100Y-26054500D02*
X99228600Y-32365000D01*
X89395000Y-26750000D02*
X90090500Y-26054500D01*
X90090500Y-26054500D02*
X92918100Y-26054500D01*
%TO.N,EEP_MOSI*%
X100028300Y-35345600D02*
X100028300Y-34583800D01*
X100028300Y-34583800D02*
X92103800Y-26659300D01*
%TO.N,SWDIO*%
X85772800Y-21616200D02*
X75400300Y-31988700D01*
X75400300Y-34390600D02*
X74204900Y-35586000D01*
X75400300Y-31988700D02*
X75400300Y-34390600D01*
X74204900Y-35586000D02*
X68126000Y-35586000D01*
X87217200Y-21616200D02*
X85772800Y-21616200D01*
X68126000Y-35586000D02*
X66540000Y-34000000D01*
%TO.N,SWCLK*%
X69470900Y-34000000D02*
X81647100Y-21823800D01*
X69080000Y-34000000D02*
X69470900Y-34000000D01*
X81647100Y-21823800D02*
X81647100Y-21272500D01*
%TO.N,IMU_SCL*%
X99073000Y-17023100D02*
X87981100Y-17023100D01*
X117405600Y-23993100D02*
X121908700Y-28496200D01*
X117405600Y-23418600D02*
X117405600Y-23993100D01*
X105876600Y-23826700D02*
X99073000Y-17023100D01*
%TO.N,IMU_SDA*%
X96323700Y-23671800D02*
X96323700Y-24817300D01*
X81945100Y-19721900D02*
X82606500Y-20383300D01*
X82606500Y-20383300D02*
X93035200Y-20383300D01*
X93035200Y-20383300D02*
X96323700Y-23671800D01*
%TO.N,BOOT0*%
X60244100Y-27824900D02*
X71925700Y-16143300D01*
X71925700Y-16143300D02*
X84201600Y-16143300D01*
X84201600Y-16143300D02*
X84470800Y-16412500D01*
%TO.N,CAN_RX*%
X86502200Y-15895900D02*
X86502200Y-13905000D01*
X82775200Y-19622900D02*
X86502200Y-15895900D01*
%TO.N,CH1*%
X16300000Y-65000000D02*
X13439300Y-62139300D01*
X13439300Y-62139300D02*
X13439300Y-53149300D01*
%TO.N,SNS1*%
X13837900Y-41517700D02*
X13837900Y-49484000D01*
X13837900Y-49484000D02*
X12060600Y-51261300D01*
X17222400Y-38133200D02*
X13837900Y-41517700D01*
X10335400Y-53340700D02*
X10335400Y-54256300D01*
X38104100Y-38995900D02*
X37241400Y-38133200D01*
X37241400Y-38133200D02*
X17222400Y-38133200D01*
X12060600Y-51615500D02*
X10335400Y-53340700D01*
X12060600Y-51261300D02*
X12060600Y-51615500D01*
%TO.N,ASNS1*%
X39131800Y-43558700D02*
X39131800Y-14101200D01*
X38730100Y-43960400D02*
X39131800Y-43558700D01*
X39131800Y-14101200D02*
X43145500Y-10087500D01*
%TO.N,LATCH_IGN*%
X50032400Y-3532400D02*
X47041100Y-3532400D01*
X51500000Y-5000000D02*
X50032400Y-3532400D01*
X47041100Y-3532400D02*
X30125200Y-20448300D01*
X30125200Y-20448300D02*
X25410200Y-20448300D01*
X25410200Y-20448300D02*
X15403200Y-30455300D01*
%TO.N,CH15*%
X95220100Y-43850200D02*
X101285400Y-37784900D01*
X95220100Y-56530000D02*
X95220100Y-43850200D01*
X104300000Y-65000000D02*
X103690100Y-65000000D01*
X103690100Y-65000000D02*
X95220100Y-56530000D01*
%TO.N,CH17*%
X111300000Y-65000000D02*
X107767300Y-61467300D01*
X107767300Y-61467300D02*
X107767300Y-51710300D01*
%TO.N,CH18*%
X105668300Y-44480700D02*
X105668300Y-43391600D01*
X109446000Y-51949900D02*
X109446000Y-48258400D01*
X109446000Y-48258400D02*
X105668300Y-44480700D01*
X105668300Y-43391600D02*
X104508700Y-42232000D01*
%TO.N,CH20*%
X104106500Y-40975000D02*
X103920300Y-40975000D01*
X119345000Y-55437000D02*
X117256900Y-55437000D01*
X119345000Y-55437000D02*
X123694500Y-51087500D01*
X106070000Y-44250100D02*
X106070000Y-42938500D01*
X121800000Y-65000000D02*
X119345000Y-62545000D01*
X119345000Y-62545000D02*
X119345000Y-55437000D01*
X117256900Y-55437000D02*
X106070000Y-44250100D01*
X106070000Y-42938500D02*
X104106500Y-40975000D01*
%TO.N,SNS13*%
X80135200Y-50417800D02*
X80135200Y-43957600D01*
X82265900Y-52548500D02*
X80135200Y-50417800D01*
%TO.N,SNS17*%
X116013700Y-52774900D02*
X121003000Y-47785600D01*
X121003000Y-47785600D02*
X121003000Y-40459500D01*
%TO.N,SNS11*%
X77455600Y-35901400D02*
X72019700Y-41337300D01*
X72019700Y-55047300D02*
X72025700Y-55053300D01*
X72019700Y-41337300D02*
X72019700Y-55047300D01*
%TO.N,SNS7*%
X43565800Y-54788000D02*
X43565800Y-49309800D01*
X43565800Y-49309800D02*
X40170500Y-45914500D01*
%TO.N,SNS20*%
X124766600Y-51595600D02*
X127753000Y-54582000D01*
X124766600Y-43780400D02*
X124766600Y-51595600D01*
%TO.N,+5V*%
X38082000Y-18780000D02*
X38082000Y-23219400D01*
X38082000Y-23219400D02*
X28001400Y-33300000D01*
X57400000Y-18780000D02*
X57400000Y-16240000D01*
X57400000Y-16240000D02*
X57400000Y-13700000D01*
%TO.N,LATCH_GND*%
X8497400Y-27521900D02*
X8231900Y-27787400D01*
X8497400Y-19302300D02*
X8497400Y-27521900D01*
%TO.N,ASNS3*%
X77087000Y-11206200D02*
X97319800Y-11206200D01*
X97319800Y-11206200D02*
X101916800Y-15803200D01*
X102230600Y-15803200D02*
X126416600Y-39989200D01*
X126416600Y-39989200D02*
X126416600Y-40985000D01*
X101916800Y-15803200D02*
X102230600Y-15803200D01*
%TO.N,SNS18*%
X120193000Y-40396100D02*
X120193000Y-40367100D01*
X117295000Y-54624300D02*
X117012300Y-54624300D01*
X115411600Y-45177500D02*
X120193000Y-40396100D01*
X115411600Y-53023600D02*
X115411600Y-45177500D01*
X117012300Y-54624300D02*
X115411600Y-53023600D01*
%TO.N,CH5*%
X30300000Y-65000000D02*
X16596700Y-51296700D01*
X16596700Y-51296700D02*
X16596700Y-45402000D01*
%TO.N,SNS5*%
X31910200Y-54522700D02*
X34895000Y-51537900D01*
X34895000Y-51537900D02*
X34895000Y-43976800D01*
%TO.N,SNS14*%
X90007900Y-55626900D02*
X90007900Y-51978600D01*
X90007900Y-51978600D02*
X81932500Y-43903200D01*
%TO.N,SNS8*%
X78557200Y-35845200D02*
X72621400Y-41781000D01*
X61755300Y-54427700D02*
X64670700Y-51512300D01*
X72621400Y-41781000D02*
X72621400Y-46585600D01*
X64670700Y-51512300D02*
X64670700Y-46585600D01*
%TO.N,+12V_IN*%
X36500000Y-5000000D02*
X24914500Y-16585500D01*
X24914500Y-16585500D02*
X8568800Y-16585500D01*
%TO.N,SR_DI12*%
X77239800Y-35242000D02*
X79880600Y-35242000D01*
X64682900Y-39719100D02*
X66954100Y-41990300D01*
X70725800Y-41990300D02*
X76853800Y-35862300D01*
X79880600Y-35242000D02*
X80832700Y-36194100D01*
X76853800Y-35862300D02*
X76853800Y-35628000D01*
X66954100Y-41990300D02*
X70725800Y-41990300D01*
X76853800Y-35628000D02*
X77239800Y-35242000D01*
%TO.N,SNS2*%
X33078400Y-40819700D02*
X16875100Y-40819700D01*
X16875100Y-40819700D02*
X16373200Y-41321600D01*
X15971600Y-54539300D02*
X15929700Y-54581200D01*
X34920700Y-38977400D02*
X33078400Y-40819700D01*
X16373200Y-41321600D02*
X16373200Y-41521900D01*
X36860100Y-39361100D02*
X36476400Y-38977400D01*
X15971600Y-41923500D02*
X15971600Y-54539300D01*
X36476400Y-38977400D02*
X34920700Y-38977400D01*
X16373200Y-41521900D02*
X15971600Y-41923500D01*
%TO.N,SNS3*%
X35207200Y-39592700D02*
X35534700Y-39592700D01*
X24849800Y-51662600D02*
X24849800Y-49950100D01*
X24849800Y-49950100D02*
X35207200Y-39592700D01*
%TO.N,IMU_SDO*%
X112583300Y-29856200D02*
X107503500Y-29856200D01*
X107503500Y-29856200D02*
X102897300Y-25250000D01*
%TO.N,DRV2*%
X12034400Y-38834900D02*
X12295600Y-38573700D01*
X12295600Y-38573700D02*
X15921700Y-38573700D01*
%TO.N,DRV6*%
X9332000Y-43156600D02*
X9475400Y-43013200D01*
X13005400Y-51735100D02*
X13005400Y-52143900D01*
X9872400Y-55304500D02*
X9332000Y-54764100D01*
X11664600Y-53484700D02*
X11664600Y-54415400D01*
X10775500Y-55304500D02*
X9872400Y-55304500D01*
X16875700Y-39683100D02*
X15168100Y-41390700D01*
X15168100Y-49572400D02*
X13005400Y-51735100D01*
X11664600Y-54415400D02*
X10775500Y-55304500D01*
X15168100Y-41390700D02*
X15168100Y-49572400D01*
X20615000Y-39683100D02*
X16875700Y-39683100D01*
X13005400Y-52143900D02*
X11664600Y-53484700D01*
X9332000Y-54764100D02*
X9332000Y-43156600D01*
%TO.N,DRV7*%
X8842000Y-54905300D02*
X9644300Y-55707600D01*
X23462300Y-40418000D02*
X23663900Y-40216400D01*
X12759200Y-52958100D02*
X15569800Y-50147500D01*
X15971500Y-41155300D02*
X16708800Y-40418000D01*
X15569800Y-41674600D02*
X15971500Y-41272900D01*
X10177700Y-41311200D02*
X8842000Y-42646900D01*
X16708800Y-40418000D02*
X23462300Y-40418000D01*
X12759200Y-53958000D02*
X12759200Y-52958100D01*
X15971500Y-41272900D02*
X15971500Y-41155300D01*
X15569800Y-50147500D02*
X15569800Y-41674600D01*
X9644300Y-55707600D02*
X11009600Y-55707600D01*
X8842000Y-42646900D02*
X8842000Y-54905300D01*
X11009600Y-55707600D02*
X12759200Y-53958000D01*
%TO.N,SR_CH21*%
X66477500Y-39446700D02*
X64455700Y-37424900D01*
X56896300Y-37424900D02*
X47600500Y-46720700D01*
X69605900Y-37525000D02*
X67684200Y-39446700D01*
X72047600Y-37525000D02*
X69605900Y-37525000D01*
X64455700Y-37424900D02*
X56896300Y-37424900D01*
X47600500Y-46720700D02*
X47600500Y-46942700D01*
X67684200Y-39446700D02*
X66477500Y-39446700D01*
%TO.N,DRV1*%
X14548400Y-49341500D02*
X12462300Y-51427600D01*
X9733700Y-53303300D02*
X10823300Y-52213700D01*
X12462300Y-51427600D02*
X12462300Y-51995600D01*
X16968300Y-39022400D02*
X14548400Y-41442300D01*
X10203600Y-39479800D02*
X10203600Y-38003600D01*
X10966300Y-54476600D02*
X10573900Y-54869000D01*
X12462300Y-51995600D02*
X10966300Y-53491600D01*
X10966300Y-53491600D02*
X10966300Y-54476600D01*
X10823300Y-40099500D02*
X10203600Y-39479800D01*
X14548400Y-41442300D02*
X14548400Y-49341500D01*
X10049600Y-54869000D02*
X9733700Y-54553100D01*
X9733700Y-54553100D02*
X9733700Y-53303300D01*
X10823300Y-52213700D02*
X10823300Y-40099500D01*
X19973200Y-39022400D02*
X16968300Y-39022400D01*
X10573900Y-54869000D02*
X10049600Y-54869000D01*
%TO.N,SNS12*%
X78897500Y-51535600D02*
X75910300Y-54522800D01*
X78897500Y-40974100D02*
X78897500Y-51535600D01*
%TO.N,DRV8*%
X63060000Y-38864400D02*
X63057000Y-38867400D01*
X63057000Y-38867400D02*
X61170700Y-38867400D01*
%TO.N,DRV9*%
X61821600Y-51928300D02*
X61162200Y-52587700D01*
X61821600Y-43842800D02*
X61821600Y-51928300D01*
X46996300Y-46116400D02*
X46996300Y-47244800D01*
X54687700Y-38425000D02*
X46996300Y-46116400D01*
X46996300Y-47244800D02*
X52301800Y-52550300D01*
%TO.N,DRV11*%
X56999300Y-39778800D02*
X62057200Y-39778800D01*
X56605200Y-40172900D02*
X56999300Y-39778800D01*
X56144000Y-40172900D02*
X56605200Y-40172900D01*
%TO.N,DRV12*%
X60468000Y-40284500D02*
X58264200Y-40284500D01*
X58264200Y-40284500D02*
X55935100Y-42613600D01*
X63601700Y-40443100D02*
X60626600Y-40443100D01*
X60626600Y-40443100D02*
X60468000Y-40284500D01*
%TO.N,DRV13*%
X55826900Y-36017500D02*
X61730700Y-36017500D01*
X54856300Y-36988100D02*
X55826900Y-36017500D01*
%TO.N,DRV14*%
X64623200Y-38261600D02*
X66521200Y-40159600D01*
X57375100Y-39160000D02*
X58273500Y-38261600D01*
X58273500Y-38261600D02*
X64623200Y-38261600D01*
%TO.N,ASNS2*%
X64242300Y-35383000D02*
X59725800Y-35383000D01*
X70143900Y-40585100D02*
X72694600Y-38034400D01*
X65650800Y-36791500D02*
X64242300Y-35383000D01*
X72208100Y-36791500D02*
X65650800Y-36791500D01*
X59725800Y-35383000D02*
X43122800Y-18780000D01*
X72694600Y-38034400D02*
X72694600Y-37278000D01*
X72694600Y-37278000D02*
X72208100Y-36791500D01*
X43122800Y-18780000D02*
X43122800Y-12526700D01*
%TO.N,SR_DI23*%
X94106500Y-33226500D02*
X94106500Y-36225400D01*
X119253500Y-34521300D02*
X112567700Y-34521300D01*
X94300300Y-33032700D02*
X94106500Y-33226500D01*
X112567700Y-34521300D02*
X108539100Y-30492700D01*
%TO.N,SNS9*%
X78806500Y-39074200D02*
X78556500Y-39074200D01*
X75308500Y-58382300D02*
X75539900Y-58613700D01*
X78556500Y-39074200D02*
X75308500Y-42322200D01*
X75308500Y-42322200D02*
X75308500Y-58382300D01*
X81435000Y-36445700D02*
X78806500Y-39074200D01*
X75539900Y-58613700D02*
X75539900Y-58951700D01*
X81435000Y-35651700D02*
X81435000Y-36445700D01*
%TO.N,SR_CH32*%
X97087000Y-44556600D02*
X97087000Y-45321600D01*
X104064400Y-37579200D02*
X97087000Y-44556600D01*
X116055000Y-37579200D02*
X104064400Y-37579200D01*
%TO.N,SNS15*%
X98564200Y-44016500D02*
X98564200Y-55070500D01*
X121990500Y-39152800D02*
X103058900Y-39152800D01*
X98564200Y-55070500D02*
X96884700Y-56750000D01*
X99067400Y-43513300D02*
X98564200Y-44016500D01*
X99067400Y-43144200D02*
X99067400Y-43513300D01*
X101663100Y-40548500D02*
X99067400Y-43144200D01*
X122911300Y-40073600D02*
X121990500Y-39152800D01*
X103058900Y-39152800D02*
X101663200Y-40548500D01*
X101663200Y-40548500D02*
X101663100Y-40548500D01*
%TO.N,CH7*%
X37300000Y-65000000D02*
X42932600Y-59367400D01*
X19129100Y-46829100D02*
X19129100Y-44354500D01*
X42932600Y-59367400D02*
X42932600Y-51035400D01*
X19129100Y-44354500D02*
X17044400Y-42269800D01*
X37300000Y-65000000D02*
X19129100Y-46829100D01*
%TO.N,+12V_SW*%
X29600000Y-19100000D02*
X29600000Y-15600000D01*
%TO.N,DRV17*%
X95308800Y-41525000D02*
X94617400Y-42216400D01*
X100415100Y-43500600D02*
X100415100Y-43869600D01*
X106985500Y-41181100D02*
X106162300Y-40357900D01*
X103557800Y-40357900D02*
X100415100Y-43500600D01*
X106162300Y-40357900D02*
X103557800Y-40357900D01*
X100470200Y-46357100D02*
X100470200Y-47108200D01*
X99850100Y-45737000D02*
X100470200Y-46357100D01*
X94617400Y-42216400D02*
X94617400Y-47960300D01*
X99850100Y-44434600D02*
X99850100Y-45737000D01*
X100415100Y-43869600D02*
X99850100Y-44434600D01*
X100470200Y-47108200D02*
X99618100Y-47960300D01*
%TO.N,DRV19*%
X104185400Y-45892100D02*
X105133100Y-45892100D01*
X103298600Y-43185700D02*
X104063100Y-43950200D01*
X105133100Y-45892100D02*
X105237700Y-45996700D01*
X103717900Y-44949800D02*
X103717900Y-44949900D01*
X103717900Y-44949900D02*
X103832800Y-45064800D01*
X101857000Y-45300700D02*
X101857000Y-43890700D01*
X95670200Y-40325000D02*
X95658000Y-40325000D01*
X95658000Y-40325000D02*
X93746600Y-42236400D01*
X102562000Y-43185700D02*
X103298600Y-43185700D01*
X104063100Y-43950200D02*
X104063100Y-43974600D01*
X103863900Y-44803800D02*
X103717900Y-44949800D01*
X103863900Y-44173800D02*
X103863900Y-44803800D01*
X101857000Y-43890700D02*
X102562000Y-43185700D01*
X103832800Y-45539500D02*
X104185400Y-45892100D01*
X93746600Y-42236400D02*
X93746600Y-46060800D01*
X101345000Y-45812700D02*
X101857000Y-45300700D01*
X103832800Y-45064800D02*
X103832800Y-45539500D01*
X104063100Y-43974600D02*
X103863900Y-44173800D01*
%TO.N,DRV20*%
X96280900Y-56302100D02*
X96280900Y-56998900D01*
X96638700Y-57356700D02*
X97906300Y-57356700D01*
X100871900Y-46190800D02*
X100312300Y-45631200D01*
X97272900Y-46958200D02*
X97272900Y-55310100D01*
X96469500Y-44541200D02*
X96469500Y-46154800D01*
X100604400Y-44248300D02*
X100703800Y-44248300D01*
X98757200Y-41182700D02*
X98757200Y-42253500D01*
X100312300Y-45631200D02*
X100312300Y-45159600D01*
X96469500Y-46154800D02*
X97272900Y-46958200D01*
X100312300Y-45159600D02*
X100251800Y-45099100D01*
X100251800Y-44600900D02*
X100604400Y-44248300D01*
X100251800Y-45099100D02*
X100251800Y-44600900D01*
X96280900Y-56998900D02*
X96638700Y-57356700D01*
X97906300Y-57356700D02*
X100871900Y-54391100D01*
X103694800Y-42341000D02*
X104867300Y-43513500D01*
X100816800Y-44135300D02*
X100816800Y-43737800D01*
X100816800Y-43737800D02*
X102213600Y-42341000D01*
X98757200Y-42253500D02*
X96469500Y-44541200D01*
X104867300Y-43513500D02*
X104867300Y-44589200D01*
X97272900Y-55310100D02*
X96280900Y-56302100D01*
X100703800Y-44248300D02*
X100816800Y-44135300D01*
X100871900Y-54391100D02*
X100871900Y-46190800D01*
X102213600Y-42341000D02*
X103694800Y-42341000D01*
%TO.N,DRV21*%
X104265600Y-45121500D02*
X104434500Y-45290400D01*
X104464800Y-44140900D02*
X104265600Y-44340100D01*
X103553200Y-42784000D02*
X104464800Y-43695600D01*
X104265600Y-44340100D02*
X104265600Y-45121500D01*
X101218500Y-43939300D02*
X102373800Y-42784000D01*
X102373800Y-42784000D02*
X103553200Y-42784000D01*
X104464800Y-43695600D02*
X104464800Y-44140900D01*
X101218500Y-44485000D02*
X101218500Y-43939300D01*
X100853500Y-44850000D02*
X101218500Y-44485000D01*
%TD*%
%TA.AperFunction,Conductor*%
%TO.N,GND*%
G36*
X98224610Y-41514594D02*
G01*
X98269112Y-41547489D01*
X98270933Y-41545669D01*
X98320381Y-41595117D01*
X98353866Y-41656440D01*
X98356700Y-41682798D01*
X98356700Y-42036245D01*
X98337015Y-42103284D01*
X98320381Y-42123926D01*
X96149022Y-44295284D01*
X96149020Y-44295287D01*
X96096291Y-44386613D01*
X96082492Y-44438119D01*
X96082492Y-44438120D01*
X96069000Y-44488473D01*
X96069000Y-46207526D01*
X96096293Y-46309389D01*
X96104480Y-46323569D01*
X96149020Y-46400713D01*
X96149022Y-46400715D01*
X96836081Y-47087774D01*
X96869566Y-47149097D01*
X96872400Y-47175455D01*
X96872400Y-55092845D01*
X96852715Y-55159884D01*
X96836081Y-55180526D01*
X95960422Y-56056184D01*
X95960418Y-56056190D01*
X95907691Y-56147514D01*
X95907690Y-56147517D01*
X95905205Y-56156790D01*
X95905206Y-56156791D01*
X95880400Y-56249371D01*
X95880400Y-56324545D01*
X95874161Y-56345790D01*
X95872582Y-56367879D01*
X95864509Y-56378662D01*
X95860715Y-56391584D01*
X95843981Y-56406083D01*
X95830710Y-56423812D01*
X95818089Y-56428519D01*
X95807911Y-56437339D01*
X95785993Y-56440490D01*
X95765246Y-56448229D01*
X95752085Y-56445366D01*
X95738753Y-56447283D01*
X95718609Y-56438083D01*
X95696973Y-56433377D01*
X95679247Y-56420108D01*
X95675197Y-56418258D01*
X95668719Y-56412226D01*
X95656919Y-56400426D01*
X95623434Y-56339103D01*
X95620600Y-56312745D01*
X95620600Y-44067453D01*
X95640285Y-44000414D01*
X95656914Y-43979777D01*
X98093597Y-41543093D01*
X98154918Y-41509610D01*
X98224610Y-41514594D01*
G37*
%TD.AperFunction*%
%TA.AperFunction,Conductor*%
G36*
X70386630Y-34010253D02*
G01*
X70444863Y-34048863D01*
X70472473Y-34109321D01*
X70497829Y-34269410D01*
X70553787Y-34441636D01*
X70553788Y-34441639D01*
X70592638Y-34517884D01*
X70636003Y-34602993D01*
X70636006Y-34602997D01*
X70742441Y-34749494D01*
X70742445Y-34749499D01*
X70870500Y-34877554D01*
X70870505Y-34877558D01*
X70985604Y-34961182D01*
X71028270Y-35016511D01*
X71034249Y-35086125D01*
X71001644Y-35147920D01*
X70940805Y-35182277D01*
X70912719Y-35185500D01*
X69787281Y-35185500D01*
X69720242Y-35165815D01*
X69674487Y-35113011D01*
X69664543Y-35043853D01*
X69693568Y-34980297D01*
X69714396Y-34961182D01*
X69829494Y-34877558D01*
X69829492Y-34877558D01*
X69829501Y-34877553D01*
X69957553Y-34749501D01*
X70063996Y-34602994D01*
X70146211Y-34441639D01*
X70202171Y-34269409D01*
X70219904Y-34157447D01*
X70227527Y-34109321D01*
X70257456Y-34046186D01*
X70316768Y-34009255D01*
X70386630Y-34010253D01*
G37*
%TD.AperFunction*%
%TA.AperFunction,Conductor*%
G36*
X73694075Y-34192993D02*
G01*
X73759901Y-34307007D01*
X73852993Y-34400099D01*
X73967007Y-34465925D01*
X73974821Y-34468018D01*
X73428919Y-35013921D01*
X73431898Y-35051771D01*
X73417534Y-35120148D01*
X73368483Y-35169905D01*
X73308280Y-35185500D01*
X72327281Y-35185500D01*
X72260242Y-35165815D01*
X72214487Y-35113011D01*
X72204543Y-35043853D01*
X72233568Y-34980297D01*
X72254396Y-34961182D01*
X72369494Y-34877558D01*
X72369492Y-34877558D01*
X72369501Y-34877553D01*
X72497553Y-34749501D01*
X72603996Y-34602994D01*
X72686211Y-34441639D01*
X72699708Y-34400099D01*
X72719759Y-34338388D01*
X72759196Y-34280712D01*
X72823554Y-34253513D01*
X72892401Y-34265427D01*
X72943877Y-34312671D01*
X72955621Y-34338386D01*
X73001582Y-34479837D01*
X73090904Y-34655143D01*
X73146076Y-34731079D01*
X73146076Y-34731080D01*
X73691980Y-34185175D01*
X73694075Y-34192993D01*
G37*
%TD.AperFunction*%
%TA.AperFunction,Conductor*%
G36*
X67846630Y-34010253D02*
G01*
X67904863Y-34048863D01*
X67932473Y-34109321D01*
X67957829Y-34269410D01*
X68013787Y-34441636D01*
X68013788Y-34441639D01*
X68096003Y-34602993D01*
X68197100Y-34742142D01*
X68220579Y-34807949D01*
X68204753Y-34876002D01*
X68154647Y-34924697D01*
X68086169Y-34938572D01*
X68021060Y-34913222D01*
X68009100Y-34902708D01*
X67937197Y-34830805D01*
X67645674Y-34539281D01*
X67612189Y-34477958D01*
X67615423Y-34413284D01*
X67662171Y-34269409D01*
X67664689Y-34253513D01*
X67687527Y-34109321D01*
X67717456Y-34046186D01*
X67776768Y-34009255D01*
X67846630Y-34010253D01*
G37*
%TD.AperFunction*%
%TA.AperFunction,Conductor*%
G36*
X79761039Y-16563485D02*
G01*
X79806794Y-16616289D01*
X79818000Y-16667800D01*
X79818000Y-16727845D01*
X79798315Y-16794884D01*
X79781681Y-16815526D01*
X78629722Y-17967484D01*
X78629720Y-17967487D01*
X78576991Y-18058814D01*
X78561669Y-18116002D01*
X78549700Y-18160671D01*
X78549700Y-19087802D01*
X78530015Y-19154841D01*
X78513381Y-19175483D01*
X78469681Y-19219182D01*
X78469675Y-19219190D01*
X78390626Y-19356109D01*
X78390623Y-19356116D01*
X78349700Y-19508843D01*
X78349700Y-19666957D01*
X78385992Y-19802398D01*
X78390623Y-19819683D01*
X78390626Y-19819690D01*
X78469675Y-19956609D01*
X78469679Y-19956614D01*
X78469680Y-19956616D01*
X78581484Y-20068420D01*
X78581486Y-20068421D01*
X78581490Y-20068424D01*
X78684372Y-20127822D01*
X78718416Y-20147477D01*
X78871143Y-20188400D01*
X78932945Y-20188400D01*
X78999984Y-20208085D01*
X79020626Y-20224719D01*
X80195654Y-21399747D01*
X80229139Y-21461070D01*
X80224155Y-21530762D01*
X80195655Y-21575108D01*
X80165781Y-21604982D01*
X80165775Y-21604990D01*
X80086726Y-21741909D01*
X80086723Y-21741916D01*
X80045800Y-21894643D01*
X80045800Y-22052757D01*
X80077691Y-22171774D01*
X80086723Y-22205483D01*
X80086726Y-22205490D01*
X80165775Y-22342409D01*
X80165781Y-22342417D01*
X80276254Y-22452890D01*
X80309739Y-22514213D01*
X80304755Y-22583905D01*
X80276254Y-22628252D01*
X69876909Y-33027596D01*
X69815586Y-33061081D01*
X69745894Y-33056097D01*
X69716344Y-33040234D01*
X69682994Y-33016004D01*
X69521639Y-32933788D01*
X69521636Y-32933787D01*
X69349410Y-32877829D01*
X69170551Y-32849500D01*
X69170546Y-32849500D01*
X68989454Y-32849500D01*
X68989449Y-32849500D01*
X68810589Y-32877829D01*
X68638363Y-32933787D01*
X68638360Y-32933788D01*
X68477002Y-33016006D01*
X68330505Y-33122441D01*
X68330500Y-33122445D01*
X68202445Y-33250500D01*
X68202441Y-33250505D01*
X68096006Y-33397002D01*
X68013788Y-33558360D01*
X68013787Y-33558363D01*
X67957829Y-33730589D01*
X67932473Y-33890678D01*
X67902544Y-33953813D01*
X67843232Y-33990744D01*
X67773369Y-33989746D01*
X67715137Y-33951136D01*
X67687527Y-33890678D01*
X67673740Y-33803639D01*
X67662171Y-33730591D01*
X67628446Y-33626793D01*
X67606212Y-33558363D01*
X67606211Y-33558360D01*
X67549477Y-33447015D01*
X67523996Y-33397006D01*
X67496383Y-33359000D01*
X67417558Y-33250505D01*
X67417554Y-33250500D01*
X67289499Y-33122445D01*
X67289494Y-33122441D01*
X67142997Y-33016006D01*
X67142996Y-33016005D01*
X67142994Y-33016004D01*
X67066906Y-32977235D01*
X66981639Y-32933788D01*
X66981636Y-32933787D01*
X66809410Y-32877829D01*
X66630551Y-32849500D01*
X66630546Y-32849500D01*
X66449454Y-32849500D01*
X66449449Y-32849500D01*
X66270589Y-32877829D01*
X66098363Y-32933787D01*
X66098360Y-32933788D01*
X65937002Y-33016006D01*
X65790505Y-33122441D01*
X65790500Y-33122445D01*
X65662445Y-33250500D01*
X65662441Y-33250505D01*
X65556006Y-33397002D01*
X65473787Y-33558363D01*
X65472517Y-33561431D01*
X65471721Y-33562417D01*
X65471577Y-33562702D01*
X65471517Y-33562671D01*
X65471267Y-33562981D01*
X65470993Y-33564955D01*
X65449442Y-33590064D01*
X65428676Y-33615834D01*
X65426785Y-33616463D01*
X65425488Y-33617975D01*
X65393775Y-33627450D01*
X65362382Y-33637899D01*
X65359848Y-33637586D01*
X65358543Y-33637977D01*
X65351020Y-33636499D01*
X65323584Y-33633119D01*
X65310911Y-33629463D01*
X65306287Y-33626793D01*
X65241279Y-33609374D01*
X65240127Y-33609042D01*
X65211594Y-33590895D01*
X65182745Y-33573310D01*
X65182208Y-33572205D01*
X65181171Y-33571546D01*
X65166975Y-33540846D01*
X65152216Y-33510463D01*
X65152059Y-33508589D01*
X65151846Y-33508128D01*
X65151955Y-33507341D01*
X65150499Y-33489901D01*
X65150499Y-33105143D01*
X65150499Y-33105136D01*
X65150497Y-33105117D01*
X65147586Y-33080012D01*
X65147585Y-33080010D01*
X65147585Y-33080009D01*
X65102206Y-32977235D01*
X65022765Y-32897794D01*
X65022763Y-32897793D01*
X64919992Y-32852415D01*
X64894865Y-32849500D01*
X63105143Y-32849500D01*
X63105117Y-32849502D01*
X63080012Y-32852413D01*
X63080008Y-32852415D01*
X62977235Y-32897793D01*
X62897794Y-32977234D01*
X62852415Y-33080006D01*
X62852415Y-33080008D01*
X62849500Y-33105131D01*
X62849500Y-33475500D01*
X62829815Y-33542539D01*
X62777011Y-33588294D01*
X62725500Y-33599500D01*
X61581055Y-33599500D01*
X61514016Y-33579815D01*
X61493374Y-33563181D01*
X59258483Y-31328290D01*
X59224998Y-31266967D01*
X59229982Y-31197275D01*
X59271854Y-31141342D01*
X59307847Y-31122678D01*
X59309405Y-31122171D01*
X59309409Y-31122171D01*
X59481639Y-31066211D01*
X59642994Y-30983996D01*
X59789501Y-30877553D01*
X59917553Y-30749501D01*
X59917563Y-30749486D01*
X59919359Y-30747385D01*
X59920252Y-30746801D01*
X59920998Y-30746056D01*
X59921154Y-30746212D01*
X59977863Y-30709188D01*
X60047731Y-30708684D01*
X60101336Y-30740229D01*
X60833287Y-31472180D01*
X60924612Y-31524907D01*
X61026473Y-31552200D01*
X61026475Y-31552200D01*
X62967925Y-31552200D01*
X62967927Y-31552200D01*
X63069788Y-31524907D01*
X63161113Y-31472180D01*
X63189474Y-31443819D01*
X63250797Y-31410334D01*
X63277155Y-31407500D01*
X63338955Y-31407500D01*
X63338957Y-31407500D01*
X63491684Y-31366577D01*
X63628616Y-31287520D01*
X63740420Y-31175716D01*
X63819477Y-31038784D01*
X63860400Y-30886057D01*
X63860400Y-30727943D01*
X63819477Y-30575216D01*
X63795886Y-30534355D01*
X63740424Y-30438290D01*
X63740418Y-30438282D01*
X63628617Y-30326481D01*
X63628609Y-30326475D01*
X63491690Y-30247426D01*
X63491686Y-30247424D01*
X63491684Y-30247423D01*
X63338957Y-30206500D01*
X63180843Y-30206500D01*
X63028116Y-30247423D01*
X63028111Y-30247425D01*
X63009218Y-30258333D01*
X62941318Y-30274804D01*
X62875291Y-30251951D01*
X62832102Y-30197029D01*
X62824747Y-30131546D01*
X62830000Y-30098381D01*
X62830000Y-29901617D01*
X62799221Y-29707294D01*
X62738418Y-29520164D01*
X62649095Y-29344856D01*
X62593922Y-29268919D01*
X62593921Y-29268918D01*
X62048018Y-29814820D01*
X62045925Y-29807007D01*
X61980099Y-29692993D01*
X61887007Y-29599901D01*
X61772993Y-29534075D01*
X61765177Y-29531980D01*
X62311080Y-28986077D01*
X62311079Y-28986076D01*
X62235143Y-28930904D01*
X62059835Y-28841581D01*
X61872705Y-28780778D01*
X61678382Y-28750000D01*
X61481618Y-28750000D01*
X61287294Y-28780778D01*
X61100164Y-28841581D01*
X60924855Y-28930905D01*
X60924846Y-28930911D01*
X60848919Y-28986075D01*
X60848918Y-28986076D01*
X61394823Y-29531980D01*
X61387007Y-29534075D01*
X61272993Y-29599901D01*
X61179901Y-29692993D01*
X61114075Y-29807007D01*
X61111980Y-29814823D01*
X60639974Y-29342817D01*
X60639416Y-29342256D01*
X60631895Y-29334639D01*
X60630480Y-29332187D01*
X60555913Y-29257620D01*
X60555910Y-29257618D01*
X60163201Y-28864909D01*
X59889377Y-28591084D01*
X59855892Y-28529761D01*
X59860876Y-28460069D01*
X59902748Y-28404136D01*
X59968212Y-28379719D01*
X60009152Y-28383628D01*
X60012312Y-28384474D01*
X60012316Y-28384477D01*
X60165043Y-28425400D01*
X60165046Y-28425400D01*
X60323155Y-28425400D01*
X60323157Y-28425400D01*
X60475884Y-28384477D01*
X60612816Y-28305420D01*
X60724620Y-28193616D01*
X60803677Y-28056684D01*
X60844600Y-27903957D01*
X60844600Y-27842155D01*
X60864285Y-27775116D01*
X60880919Y-27754474D01*
X72055274Y-16580119D01*
X72116597Y-16546634D01*
X72142955Y-16543800D01*
X79694000Y-16543800D01*
X79761039Y-16563485D01*
G37*
%TD.AperFunction*%
%TA.AperFunction,Conductor*%
G36*
X137003736Y-500726D02*
G01*
X137293797Y-518271D01*
X137308660Y-520076D01*
X137590798Y-571780D01*
X137605335Y-575363D01*
X137879172Y-660695D01*
X137893163Y-666000D01*
X138154743Y-783727D01*
X138167989Y-790680D01*
X138413465Y-939075D01*
X138425776Y-947573D01*
X138651573Y-1124473D01*
X138662781Y-1134403D01*
X138865596Y-1337218D01*
X138875525Y-1348425D01*
X138995481Y-1501538D01*
X139052422Y-1574217D01*
X139060928Y-1586540D01*
X139209316Y-1832004D01*
X139216275Y-1845263D01*
X139333997Y-2106831D01*
X139339306Y-2120832D01*
X139424635Y-2394663D01*
X139428219Y-2409201D01*
X139479923Y-2691339D01*
X139481728Y-2706204D01*
X139499274Y-2996263D01*
X139499500Y-3003750D01*
X139499500Y-66996249D01*
X139499274Y-67003736D01*
X139481728Y-67293794D01*
X139479923Y-67308659D01*
X139428219Y-67590797D01*
X139424635Y-67605335D01*
X139339304Y-67879174D01*
X139333994Y-67893176D01*
X139216277Y-68154730D01*
X139209319Y-68167987D01*
X139060928Y-68413458D01*
X139052422Y-68425782D01*
X138875525Y-68651573D01*
X138865595Y-68662781D01*
X138662781Y-68865595D01*
X138651573Y-68875525D01*
X138425782Y-69052422D01*
X138413458Y-69060928D01*
X138167987Y-69209319D01*
X138154730Y-69216277D01*
X137893176Y-69333994D01*
X137879174Y-69339304D01*
X137605335Y-69424635D01*
X137590797Y-69428219D01*
X137308659Y-69479923D01*
X137293794Y-69481728D01*
X137003736Y-69499274D01*
X136996249Y-69499500D01*
X3003751Y-69499500D01*
X2996264Y-69499274D01*
X2706204Y-69481728D01*
X2691339Y-69479923D01*
X2409201Y-69428219D01*
X2394663Y-69424635D01*
X2120832Y-69339306D01*
X2106831Y-69333997D01*
X1845263Y-69216275D01*
X1832004Y-69209316D01*
X1586537Y-69060926D01*
X1574217Y-69052422D01*
X1348426Y-68875526D01*
X1337218Y-68865596D01*
X1134403Y-68662781D01*
X1124473Y-68651573D01*
X947573Y-68425776D01*
X939075Y-68413465D01*
X790679Y-68167987D01*
X783727Y-68154743D01*
X666000Y-67893163D01*
X660693Y-67879167D01*
X575364Y-67605336D01*
X571780Y-67590798D01*
X520076Y-67308660D01*
X518271Y-67293795D01*
X516795Y-67269400D01*
X500726Y-67003736D01*
X500500Y-66996249D01*
X500500Y-64878711D01*
X3149500Y-64878711D01*
X3149500Y-65121288D01*
X3181161Y-65361785D01*
X3243947Y-65596104D01*
X3312658Y-65761987D01*
X3336776Y-65820212D01*
X3458064Y-66030289D01*
X3458066Y-66030292D01*
X3458067Y-66030293D01*
X3605733Y-66222736D01*
X3605739Y-66222743D01*
X3777256Y-66394260D01*
X3777263Y-66394266D01*
X3804003Y-66414784D01*
X3969711Y-66541936D01*
X4179788Y-66663224D01*
X4403900Y-66756054D01*
X4638211Y-66818838D01*
X4818586Y-66842584D01*
X4878711Y-66850500D01*
X4878712Y-66850500D01*
X5121289Y-66850500D01*
X5169388Y-66844167D01*
X5361789Y-66818838D01*
X5596100Y-66756054D01*
X5820212Y-66663224D01*
X6030289Y-66541936D01*
X6222738Y-66394265D01*
X6394265Y-66222738D01*
X6541936Y-66030289D01*
X6663224Y-65820212D01*
X6756054Y-65596100D01*
X6818838Y-65361789D01*
X6850500Y-65121288D01*
X6850500Y-64878712D01*
X6818838Y-64638211D01*
X6756054Y-64403900D01*
X6663224Y-64179788D01*
X6541936Y-63969711D01*
X6456922Y-63858918D01*
X6394266Y-63777263D01*
X6394260Y-63777256D01*
X6222743Y-63605739D01*
X6222736Y-63605733D01*
X6030293Y-63458067D01*
X6030292Y-63458066D01*
X6030289Y-63458064D01*
X5820212Y-63336776D01*
X5820205Y-63336773D01*
X5596104Y-63243947D01*
X5361785Y-63181161D01*
X5121289Y-63149500D01*
X5121288Y-63149500D01*
X4878712Y-63149500D01*
X4878711Y-63149500D01*
X4638214Y-63181161D01*
X4403895Y-63243947D01*
X4179794Y-63336773D01*
X4179785Y-63336777D01*
X3969706Y-63458067D01*
X3777263Y-63605733D01*
X3777256Y-63605739D01*
X3605739Y-63777256D01*
X3605733Y-63777263D01*
X3458067Y-63969706D01*
X3336777Y-64179785D01*
X3336773Y-64179794D01*
X3243947Y-64403895D01*
X3181161Y-64638214D01*
X3149500Y-64878711D01*
X500500Y-64878711D01*
X500500Y-42594171D01*
X8441500Y-42594171D01*
X8441500Y-42594173D01*
X8441500Y-54852573D01*
X8441500Y-54958027D01*
X8445845Y-54974243D01*
X8468793Y-55059889D01*
X8486493Y-55090545D01*
X8521520Y-55151213D01*
X9323818Y-55953510D01*
X9323820Y-55953513D01*
X9398387Y-56028080D01*
X9447070Y-56056187D01*
X9489713Y-56080807D01*
X9591573Y-56108101D01*
X9591575Y-56108101D01*
X9704623Y-56108101D01*
X9704639Y-56108100D01*
X11062325Y-56108100D01*
X11062327Y-56108100D01*
X11164188Y-56080807D01*
X11255513Y-56028080D01*
X12827119Y-54456474D01*
X12888442Y-54422989D01*
X12958134Y-54427973D01*
X13014067Y-54469845D01*
X13038484Y-54535309D01*
X13038800Y-54544155D01*
X13038800Y-62192026D01*
X13066093Y-62293889D01*
X13092456Y-62339550D01*
X13118820Y-62385213D01*
X13118821Y-62385214D01*
X13118822Y-62385215D01*
X14840133Y-64106525D01*
X14873618Y-64167848D01*
X14872787Y-64224131D01*
X14852400Y-64306106D01*
X14849500Y-64348879D01*
X14849500Y-65651122D01*
X14849501Y-65651125D01*
X14852399Y-65693886D01*
X14852399Y-65693887D01*
X14868897Y-65760226D01*
X14892047Y-65853314D01*
X14898360Y-65878696D01*
X14982967Y-66049292D01*
X14982969Y-66049295D01*
X15102277Y-66197721D01*
X15102278Y-66197722D01*
X15250704Y-66317030D01*
X15250707Y-66317032D01*
X15421302Y-66401639D01*
X15421303Y-66401639D01*
X15421307Y-66401641D01*
X15606111Y-66447600D01*
X15648877Y-66450500D01*
X16951122Y-66450499D01*
X16993889Y-66447600D01*
X17178693Y-66401641D01*
X17349296Y-66317030D01*
X17497722Y-66197722D01*
X17617030Y-66049296D01*
X17701641Y-65878693D01*
X17747600Y-65693889D01*
X17750500Y-65651123D01*
X17750499Y-64348878D01*
X17747600Y-64306111D01*
X17701641Y-64121307D01*
X17668786Y-64055061D01*
X17617032Y-63950707D01*
X17617030Y-63950704D01*
X17497722Y-63802278D01*
X17497721Y-63802277D01*
X17349295Y-63682969D01*
X17349292Y-63682967D01*
X17178697Y-63598360D01*
X16993892Y-63552400D01*
X16972506Y-63550950D01*
X16951123Y-63549500D01*
X16951120Y-63549500D01*
X15648877Y-63549500D01*
X15648874Y-63549501D01*
X15606113Y-63552399D01*
X15606109Y-63552400D01*
X15524131Y-63572787D01*
X15454323Y-63569863D01*
X15406525Y-63540133D01*
X13876119Y-62009726D01*
X13842634Y-61948403D01*
X13839800Y-61922045D01*
X13839800Y-53649398D01*
X13859485Y-53582359D01*
X13876119Y-53561717D01*
X13892010Y-53545826D01*
X13919820Y-53518016D01*
X13998877Y-53381084D01*
X14039800Y-53228357D01*
X14039800Y-53070243D01*
X13998877Y-52917516D01*
X13998700Y-52917209D01*
X13919824Y-52780590D01*
X13919818Y-52780582D01*
X13802269Y-52663033D01*
X13803905Y-52661396D01*
X13769727Y-52614593D01*
X13765569Y-52544847D01*
X13798731Y-52484960D01*
X14181167Y-52102524D01*
X14242488Y-52069041D01*
X14312180Y-52074025D01*
X14368113Y-52115897D01*
X14388620Y-52158113D01*
X14389209Y-52160310D01*
X14393622Y-52176782D01*
X14393626Y-52176790D01*
X14472675Y-52313709D01*
X14472681Y-52313717D01*
X14516381Y-52357417D01*
X14549866Y-52418740D01*
X14552700Y-52445098D01*
X14552700Y-60100473D01*
X14552700Y-60205927D01*
X14566346Y-60256857D01*
X14579993Y-60307789D01*
X14604491Y-60350220D01*
X14632720Y-60399113D01*
X14632722Y-60399115D01*
X18466673Y-64233066D01*
X18500158Y-64294389D01*
X18495174Y-64364081D01*
X18489478Y-64377040D01*
X18455771Y-64443196D01*
X18385215Y-64660339D01*
X18349500Y-64885837D01*
X18349500Y-65114162D01*
X18385215Y-65339660D01*
X18455770Y-65556803D01*
X18525621Y-65693892D01*
X18559421Y-65760228D01*
X18693621Y-65944937D01*
X18855063Y-66106379D01*
X19039772Y-66240579D01*
X19135884Y-66289550D01*
X19243196Y-66344229D01*
X19243198Y-66344229D01*
X19243201Y-66344231D01*
X19359592Y-66382049D01*
X19460339Y-66414784D01*
X19685838Y-66450500D01*
X19685843Y-66450500D01*
X19914162Y-66450500D01*
X20139660Y-66414784D01*
X20356799Y-66344231D01*
X20560228Y-66240579D01*
X20744937Y-66106379D01*
X20906379Y-65944937D01*
X21040579Y-65760228D01*
X21144231Y-65556799D01*
X21214784Y-65339660D01*
X21249371Y-65121288D01*
X21250500Y-65114162D01*
X21250500Y-64885837D01*
X21849500Y-64885837D01*
X21849500Y-65114162D01*
X21885215Y-65339660D01*
X21955770Y-65556803D01*
X22025621Y-65693892D01*
X22059421Y-65760228D01*
X22193621Y-65944937D01*
X22355063Y-66106379D01*
X22539772Y-66240579D01*
X22635884Y-66289550D01*
X22743196Y-66344229D01*
X22743198Y-66344229D01*
X22743201Y-66344231D01*
X22859592Y-66382049D01*
X22960339Y-66414784D01*
X23185838Y-66450500D01*
X23185843Y-66450500D01*
X23414162Y-66450500D01*
X23639660Y-66414784D01*
X23856799Y-66344231D01*
X24060228Y-66240579D01*
X24244937Y-66106379D01*
X24406379Y-65944937D01*
X24540579Y-65760228D01*
X24644231Y-65556799D01*
X24714784Y-65339660D01*
X24749371Y-65121288D01*
X24750500Y-65114162D01*
X24750500Y-64885837D01*
X25349500Y-64885837D01*
X25349500Y-65114162D01*
X25385215Y-65339660D01*
X25455770Y-65556803D01*
X25525621Y-65693892D01*
X25559421Y-65760228D01*
X25693621Y-65944937D01*
X25855063Y-66106379D01*
X26039772Y-66240579D01*
X26135884Y-66289550D01*
X26243196Y-66344229D01*
X26243198Y-66344229D01*
X26243201Y-66344231D01*
X26359592Y-66382049D01*
X26460339Y-66414784D01*
X26685838Y-66450500D01*
X26685843Y-66450500D01*
X26914162Y-66450500D01*
X27139660Y-66414784D01*
X27356799Y-66344231D01*
X27560228Y-66240579D01*
X27744937Y-66106379D01*
X27906379Y-65944937D01*
X28040579Y-65760228D01*
X28144231Y-65556799D01*
X28214784Y-65339660D01*
X28249371Y-65121288D01*
X28250500Y-65114162D01*
X28250500Y-64885837D01*
X28214784Y-64660339D01*
X28144229Y-64443196D01*
X28069621Y-64296770D01*
X28040579Y-64239772D01*
X27906379Y-64055063D01*
X27744937Y-63893621D01*
X27560228Y-63759421D01*
X27503228Y-63730378D01*
X27356803Y-63655770D01*
X27139660Y-63585215D01*
X26914162Y-63549500D01*
X26914157Y-63549500D01*
X26685843Y-63549500D01*
X26685838Y-63549500D01*
X26460339Y-63585215D01*
X26243196Y-63655770D01*
X26039771Y-63759421D01*
X25855061Y-63893622D01*
X25693622Y-64055061D01*
X25559421Y-64239771D01*
X25455770Y-64443196D01*
X25385215Y-64660339D01*
X25349500Y-64885837D01*
X24750500Y-64885837D01*
X24714784Y-64660339D01*
X24644229Y-64443196D01*
X24569621Y-64296770D01*
X24540579Y-64239772D01*
X24406379Y-64055063D01*
X24244937Y-63893621D01*
X24060228Y-63759421D01*
X24003228Y-63730378D01*
X23856803Y-63655770D01*
X23639660Y-63585215D01*
X23414162Y-63549500D01*
X23414157Y-63549500D01*
X23185843Y-63549500D01*
X23185838Y-63549500D01*
X22960339Y-63585215D01*
X22743196Y-63655770D01*
X22539771Y-63759421D01*
X22355061Y-63893622D01*
X22193622Y-64055061D01*
X22059421Y-64239771D01*
X21955770Y-64443196D01*
X21885215Y-64660339D01*
X21849500Y-64885837D01*
X21250500Y-64885837D01*
X21214784Y-64660339D01*
X21144229Y-64443196D01*
X21069621Y-64296770D01*
X21040579Y-64239772D01*
X20906379Y-64055063D01*
X20744937Y-63893621D01*
X20560228Y-63759421D01*
X20503228Y-63730378D01*
X20356803Y-63655770D01*
X20139660Y-63585215D01*
X19914162Y-63549500D01*
X19914157Y-63549500D01*
X19685843Y-63549500D01*
X19685838Y-63549500D01*
X19460339Y-63585215D01*
X19296934Y-63638310D01*
X19243201Y-63655769D01*
X19243198Y-63655770D01*
X19243196Y-63655771D01*
X19177040Y-63689478D01*
X19108370Y-63702373D01*
X19043631Y-63676095D01*
X19033066Y-63666673D01*
X15390019Y-60023626D01*
X15356534Y-59962303D01*
X15353700Y-59935945D01*
X15353700Y-55153798D01*
X15373385Y-55086759D01*
X15426189Y-55041004D01*
X15495347Y-55031060D01*
X15553790Y-55057749D01*
X15554539Y-55056774D01*
X15558781Y-55060029D01*
X15558903Y-55060085D01*
X15559133Y-55060299D01*
X15560981Y-55061717D01*
X15560984Y-55061720D01*
X15560987Y-55061721D01*
X15560990Y-55061724D01*
X15683330Y-55132356D01*
X15697916Y-55140777D01*
X15850643Y-55181700D01*
X15850645Y-55181700D01*
X16008755Y-55181700D01*
X16008757Y-55181700D01*
X16161484Y-55140777D01*
X16298416Y-55061720D01*
X16410220Y-54949916D01*
X16489277Y-54812984D01*
X16530200Y-54660257D01*
X16530200Y-54502143D01*
X16489277Y-54349416D01*
X16478533Y-54330807D01*
X16410224Y-54212490D01*
X16410218Y-54212482D01*
X16408419Y-54210683D01*
X16407386Y-54208791D01*
X16405274Y-54206039D01*
X16405703Y-54205709D01*
X16374934Y-54149360D01*
X16372100Y-54123002D01*
X16372100Y-51937854D01*
X16391785Y-51870815D01*
X16444589Y-51825060D01*
X16513747Y-51815116D01*
X16577303Y-51844141D01*
X16583781Y-51850173D01*
X28966674Y-64233066D01*
X29000159Y-64294389D01*
X28995175Y-64364081D01*
X28989478Y-64377041D01*
X28955767Y-64443202D01*
X28955767Y-64443204D01*
X28885216Y-64660335D01*
X28885216Y-64660338D01*
X28849500Y-64885837D01*
X28849500Y-65114162D01*
X28885215Y-65339660D01*
X28955770Y-65556803D01*
X29025621Y-65693892D01*
X29059421Y-65760228D01*
X29193621Y-65944937D01*
X29355063Y-66106379D01*
X29539772Y-66240579D01*
X29635884Y-66289550D01*
X29743196Y-66344229D01*
X29743198Y-66344229D01*
X29743201Y-66344231D01*
X29859592Y-66382049D01*
X29960339Y-66414784D01*
X30185838Y-66450500D01*
X30185843Y-66450500D01*
X30414162Y-66450500D01*
X30639660Y-66414784D01*
X30856799Y-66344231D01*
X31060228Y-66240579D01*
X31244937Y-66106379D01*
X31406379Y-65944937D01*
X31540579Y-65760228D01*
X31644231Y-65556799D01*
X31714784Y-65339660D01*
X31749371Y-65121288D01*
X31750500Y-65114162D01*
X31750500Y-64885837D01*
X31714784Y-64660339D01*
X31644229Y-64443196D01*
X31569621Y-64296770D01*
X31540579Y-64239772D01*
X31406379Y-64055063D01*
X31244937Y-63893621D01*
X31060228Y-63759421D01*
X31003228Y-63730378D01*
X30856803Y-63655770D01*
X30639660Y-63585215D01*
X30414162Y-63549500D01*
X30414157Y-63549500D01*
X30185843Y-63549500D01*
X30185838Y-63549500D01*
X29960338Y-63585216D01*
X29960335Y-63585216D01*
X29743204Y-63655767D01*
X29743202Y-63655767D01*
X29677041Y-63689478D01*
X29608371Y-63702374D01*
X29543631Y-63676097D01*
X29533066Y-63666674D01*
X17033519Y-51167126D01*
X17000034Y-51105803D01*
X16997200Y-51079445D01*
X16997200Y-45902098D01*
X17016885Y-45835059D01*
X17033519Y-45814417D01*
X17045818Y-45802118D01*
X17077220Y-45770716D01*
X17156277Y-45633784D01*
X17197200Y-45481057D01*
X17197200Y-45322943D01*
X17156277Y-45170216D01*
X17155569Y-45168989D01*
X17077224Y-45033290D01*
X17077218Y-45033282D01*
X16965417Y-44921481D01*
X16965409Y-44921475D01*
X16828490Y-44842426D01*
X16828486Y-44842424D01*
X16828484Y-44842423D01*
X16675757Y-44801500D01*
X16517643Y-44801500D01*
X16517639Y-44801500D01*
X16512283Y-44802205D01*
X16443248Y-44791438D01*
X16390993Y-44745057D01*
X16372100Y-44679266D01*
X16372100Y-43653154D01*
X16391785Y-43586115D01*
X16444589Y-43540360D01*
X16513747Y-43530416D01*
X16577303Y-43559441D01*
X16583781Y-43565473D01*
X18290581Y-45272273D01*
X18324066Y-45333596D01*
X18326900Y-45359954D01*
X18326900Y-49980126D01*
X18354193Y-50081989D01*
X18364774Y-50100315D01*
X18406920Y-50173313D01*
X18406922Y-50173315D01*
X32466673Y-64233066D01*
X32500158Y-64294389D01*
X32495174Y-64364081D01*
X32489478Y-64377040D01*
X32455771Y-64443196D01*
X32385215Y-64660339D01*
X32349500Y-64885837D01*
X32349500Y-65114162D01*
X32385215Y-65339660D01*
X32455770Y-65556803D01*
X32525621Y-65693892D01*
X32559421Y-65760228D01*
X32693621Y-65944937D01*
X32855063Y-66106379D01*
X33039772Y-66240579D01*
X33135884Y-66289550D01*
X33243196Y-66344229D01*
X33243198Y-66344229D01*
X33243201Y-66344231D01*
X33359592Y-66382049D01*
X33460339Y-66414784D01*
X33685838Y-66450500D01*
X33685843Y-66450500D01*
X33914162Y-66450500D01*
X34139660Y-66414784D01*
X34356799Y-66344231D01*
X34560228Y-66240579D01*
X34744937Y-66106379D01*
X34906379Y-65944937D01*
X35040579Y-65760228D01*
X35144231Y-65556799D01*
X35214784Y-65339660D01*
X35249371Y-65121288D01*
X35250500Y-65114162D01*
X35250500Y-64885837D01*
X35214784Y-64660339D01*
X35144229Y-64443196D01*
X35069621Y-64296770D01*
X35040579Y-64239772D01*
X34906379Y-64055063D01*
X34744937Y-63893621D01*
X34560228Y-63759421D01*
X34503228Y-63730378D01*
X34356803Y-63655770D01*
X34139660Y-63585215D01*
X33914162Y-63549500D01*
X33914157Y-63549500D01*
X33685843Y-63549500D01*
X33685838Y-63549500D01*
X33460339Y-63585215D01*
X33296934Y-63638310D01*
X33243201Y-63655769D01*
X33243198Y-63655770D01*
X33243196Y-63655771D01*
X33177040Y-63689478D01*
X33108370Y-63702373D01*
X33043631Y-63676095D01*
X33033066Y-63666673D01*
X19164219Y-49797826D01*
X19130734Y-49736503D01*
X19127900Y-49710145D01*
X19127900Y-47693655D01*
X19147585Y-47626616D01*
X19200389Y-47580861D01*
X19269547Y-47570917D01*
X19333103Y-47599942D01*
X19339581Y-47605974D01*
X35966673Y-64233066D01*
X36000158Y-64294389D01*
X35995174Y-64364081D01*
X35989478Y-64377040D01*
X35955771Y-64443196D01*
X35885215Y-64660339D01*
X35849500Y-64885837D01*
X35849500Y-65114162D01*
X35885215Y-65339660D01*
X35955770Y-65556803D01*
X36025621Y-65693892D01*
X36059421Y-65760228D01*
X36193621Y-65944937D01*
X36355063Y-66106379D01*
X36539772Y-66240579D01*
X36635884Y-66289550D01*
X36743196Y-66344229D01*
X36743198Y-66344229D01*
X36743201Y-66344231D01*
X36859592Y-66382049D01*
X36960339Y-66414784D01*
X37185838Y-66450500D01*
X37185843Y-66450500D01*
X37414162Y-66450500D01*
X37639660Y-66414784D01*
X37856799Y-66344231D01*
X38060228Y-66240579D01*
X38244937Y-66106379D01*
X38406379Y-65944937D01*
X38540579Y-65760228D01*
X38644231Y-65556799D01*
X38714784Y-65339660D01*
X38749371Y-65121288D01*
X38750500Y-65114162D01*
X38750500Y-64885837D01*
X38714784Y-64660339D01*
X38644229Y-64443196D01*
X38610521Y-64377042D01*
X38597625Y-64308373D01*
X38623901Y-64243633D01*
X38633316Y-64233075D01*
X43253080Y-59613313D01*
X43276801Y-59572227D01*
X43305807Y-59521987D01*
X43333100Y-59420127D01*
X43333100Y-55508931D01*
X43352785Y-55441892D01*
X43405589Y-55396137D01*
X43474747Y-55386193D01*
X43484643Y-55388223D01*
X43486741Y-55388499D01*
X43486743Y-55388500D01*
X43486745Y-55388500D01*
X43644855Y-55388500D01*
X43644857Y-55388500D01*
X43797584Y-55347577D01*
X43934516Y-55268520D01*
X44046320Y-55156716D01*
X44125377Y-55019784D01*
X44166300Y-54867057D01*
X44166300Y-54708943D01*
X44125377Y-54556216D01*
X44115988Y-54539953D01*
X44046324Y-54419290D01*
X44046318Y-54419282D01*
X44002619Y-54375583D01*
X43969134Y-54314260D01*
X43966300Y-54287902D01*
X43966300Y-49257075D01*
X43966300Y-49257073D01*
X43939007Y-49155213D01*
X43886280Y-49063887D01*
X43811713Y-48989320D01*
X40807319Y-45984926D01*
X40773834Y-45923603D01*
X40771000Y-45897245D01*
X40771000Y-45835445D01*
X40771000Y-45835443D01*
X40730077Y-45682716D01*
X40655879Y-45554200D01*
X40639406Y-45486299D01*
X40662259Y-45420273D01*
X40717180Y-45377082D01*
X40763266Y-45368200D01*
X46878745Y-45368200D01*
X46945784Y-45387885D01*
X46991539Y-45440689D01*
X47001483Y-45509847D01*
X46972458Y-45573403D01*
X46966426Y-45579881D01*
X46675822Y-45870484D01*
X46675820Y-45870487D01*
X46645839Y-45922416D01*
X46623093Y-45961812D01*
X46599617Y-46049427D01*
X46595800Y-46063673D01*
X46595800Y-47192073D01*
X46595800Y-47297527D01*
X46599522Y-47311417D01*
X46623093Y-47399389D01*
X46643094Y-47434031D01*
X46675820Y-47490713D01*
X46675822Y-47490715D01*
X51664981Y-52479874D01*
X51698466Y-52541197D01*
X51701300Y-52567555D01*
X51701300Y-52629357D01*
X51741743Y-52780290D01*
X51742223Y-52782083D01*
X51742226Y-52782090D01*
X51821275Y-52919009D01*
X51821279Y-52919014D01*
X51821280Y-52919016D01*
X51933084Y-53030820D01*
X51933086Y-53030821D01*
X51933090Y-53030824D01*
X52066898Y-53108077D01*
X52070016Y-53109877D01*
X52222743Y-53150800D01*
X52222745Y-53150800D01*
X52380855Y-53150800D01*
X52380857Y-53150800D01*
X52533584Y-53109877D01*
X52670516Y-53030820D01*
X52782320Y-52919016D01*
X52861377Y-52782084D01*
X52902300Y-52629357D01*
X52902300Y-52471243D01*
X52861377Y-52318516D01*
X52827450Y-52259752D01*
X52782324Y-52181590D01*
X52782318Y-52181582D01*
X52670517Y-52069781D01*
X52670509Y-52069775D01*
X52533590Y-51990726D01*
X52533586Y-51990724D01*
X52533584Y-51990723D01*
X52380857Y-51949800D01*
X52380856Y-51949800D01*
X52319055Y-51949800D01*
X52252016Y-51930115D01*
X52231374Y-51913481D01*
X47938872Y-47620979D01*
X47905387Y-47559656D01*
X47910371Y-47489964D01*
X47952243Y-47434031D01*
X47964554Y-47425911D01*
X47969216Y-47423220D01*
X48081020Y-47311416D01*
X48160077Y-47174484D01*
X48201000Y-47021757D01*
X48201000Y-46863643D01*
X48182113Y-46793157D01*
X48183776Y-46723309D01*
X48214205Y-46673386D01*
X54319521Y-40568071D01*
X54380842Y-40534588D01*
X54450534Y-40539572D01*
X54506467Y-40581444D01*
X54530884Y-40646908D01*
X54531200Y-40655754D01*
X54531200Y-49034773D01*
X54531200Y-49140227D01*
X54544846Y-49191157D01*
X54558493Y-49242089D01*
X54572729Y-49266745D01*
X54611220Y-49333413D01*
X54611222Y-49333415D01*
X55842781Y-50564974D01*
X55876266Y-50626297D01*
X55879100Y-50652655D01*
X55879100Y-50714457D01*
X55916949Y-50855709D01*
X55920023Y-50867183D01*
X55920026Y-50867190D01*
X55999075Y-51004109D01*
X55999081Y-51004117D01*
X56042781Y-51047817D01*
X56076266Y-51109140D01*
X56079100Y-51135498D01*
X56079100Y-61126873D01*
X56079100Y-61232327D01*
X56090910Y-61276403D01*
X56106393Y-61334189D01*
X56132756Y-61379850D01*
X56159120Y-61425513D01*
X56159122Y-61425515D01*
X58840132Y-64106525D01*
X58873617Y-64167848D01*
X58872786Y-64224130D01*
X58852401Y-64306103D01*
X58852401Y-64306105D01*
X58852400Y-64306111D01*
X58852400Y-64306113D01*
X58849500Y-64348879D01*
X58849500Y-65651122D01*
X58849501Y-65651125D01*
X58852399Y-65693886D01*
X58852399Y-65693887D01*
X58868897Y-65760226D01*
X58892047Y-65853314D01*
X58898360Y-65878696D01*
X58982967Y-66049292D01*
X58982969Y-66049295D01*
X59102277Y-66197721D01*
X59102278Y-66197722D01*
X59250704Y-66317030D01*
X59250707Y-66317032D01*
X59421302Y-66401639D01*
X59421303Y-66401639D01*
X59421307Y-66401641D01*
X59606111Y-66447600D01*
X59648877Y-66450500D01*
X60951122Y-66450499D01*
X60993889Y-66447600D01*
X61178693Y-66401641D01*
X61349296Y-66317030D01*
X61497722Y-66197722D01*
X61617030Y-66049296D01*
X61701641Y-65878693D01*
X61747600Y-65693889D01*
X61750500Y-65651123D01*
X61750499Y-64348878D01*
X61747600Y-64306111D01*
X61701641Y-64121307D01*
X61668786Y-64055061D01*
X61617032Y-63950707D01*
X61617030Y-63950704D01*
X61497722Y-63802278D01*
X61497721Y-63802277D01*
X61349295Y-63682969D01*
X61349292Y-63682967D01*
X61178697Y-63598360D01*
X60993892Y-63552400D01*
X60972506Y-63550950D01*
X60951123Y-63549500D01*
X60951120Y-63549500D01*
X59648877Y-63549500D01*
X59648874Y-63549501D01*
X59606113Y-63552399D01*
X59606106Y-63552400D01*
X59524130Y-63572786D01*
X59454322Y-63569862D01*
X59406525Y-63540132D01*
X56916419Y-61050026D01*
X56882934Y-60988703D01*
X56880100Y-60962345D01*
X56880100Y-51135498D01*
X56899785Y-51068459D01*
X56916419Y-51047817D01*
X56960120Y-51004116D01*
X57039177Y-50867184D01*
X57080100Y-50714457D01*
X57080100Y-50556343D01*
X57039177Y-50403616D01*
X57039173Y-50403609D01*
X56960124Y-50266690D01*
X56960118Y-50266682D01*
X56848317Y-50154881D01*
X56848309Y-50154875D01*
X56711390Y-50075826D01*
X56711386Y-50075824D01*
X56711384Y-50075823D01*
X56558657Y-50034900D01*
X56558656Y-50034900D01*
X56496855Y-50034900D01*
X56429816Y-50015215D01*
X56409174Y-49998581D01*
X55368519Y-48957926D01*
X55335034Y-48896603D01*
X55332200Y-48870245D01*
X55332200Y-44420955D01*
X55351885Y-44353916D01*
X55404689Y-44308161D01*
X55473847Y-44298217D01*
X55537403Y-44327242D01*
X55543881Y-44333274D01*
X57882681Y-46672074D01*
X57916166Y-46733397D01*
X57919000Y-46759755D01*
X57919000Y-51439402D01*
X57899315Y-51506441D01*
X57882681Y-51527083D01*
X57838981Y-51570782D01*
X57838975Y-51570790D01*
X57759926Y-51707709D01*
X57759925Y-51707711D01*
X57759924Y-51707713D01*
X57759923Y-51707716D01*
X57719000Y-51860443D01*
X57719000Y-52018557D01*
X57756984Y-52160313D01*
X57759923Y-52171283D01*
X57759926Y-52171290D01*
X57838975Y-52308209D01*
X57838981Y-52308217D01*
X57882681Y-52351917D01*
X57916166Y-52413240D01*
X57919000Y-52439598D01*
X57919000Y-59572226D01*
X57946293Y-59674089D01*
X57972656Y-59719750D01*
X57999020Y-59765413D01*
X57999022Y-59765415D01*
X62466673Y-64233066D01*
X62500158Y-64294389D01*
X62495174Y-64364081D01*
X62489478Y-64377040D01*
X62455771Y-64443196D01*
X62385215Y-64660339D01*
X62349500Y-64885837D01*
X62349500Y-65114162D01*
X62385215Y-65339660D01*
X62455770Y-65556803D01*
X62525621Y-65693892D01*
X62559421Y-65760228D01*
X62693621Y-65944937D01*
X62855063Y-66106379D01*
X63039772Y-66240579D01*
X63135884Y-66289550D01*
X63243196Y-66344229D01*
X63243198Y-66344229D01*
X63243201Y-66344231D01*
X63359592Y-66382049D01*
X63460339Y-66414784D01*
X63685838Y-66450500D01*
X63685843Y-66450500D01*
X63914162Y-66450500D01*
X64139660Y-66414784D01*
X64356799Y-66344231D01*
X64560228Y-66240579D01*
X64744937Y-66106379D01*
X64906379Y-65944937D01*
X65040579Y-65760228D01*
X65144231Y-65556799D01*
X65214784Y-65339660D01*
X65249371Y-65121288D01*
X65250500Y-65114162D01*
X65250500Y-64885837D01*
X65214784Y-64660339D01*
X65144229Y-64443196D01*
X65069621Y-64296770D01*
X65040579Y-64239772D01*
X64906379Y-64055063D01*
X64744937Y-63893621D01*
X64560228Y-63759421D01*
X64503228Y-63730378D01*
X64356803Y-63655770D01*
X64139660Y-63585215D01*
X63914162Y-63549500D01*
X63914157Y-63549500D01*
X63685843Y-63549500D01*
X63685838Y-63549500D01*
X63460339Y-63585215D01*
X63296934Y-63638310D01*
X63243201Y-63655769D01*
X63243198Y-63655770D01*
X63243196Y-63655771D01*
X63177040Y-63689478D01*
X63108370Y-63702373D01*
X63043631Y-63676095D01*
X63033066Y-63666673D01*
X58756319Y-59389926D01*
X58722834Y-59328603D01*
X58720000Y-59302245D01*
X58720000Y-54322955D01*
X58739685Y-54255916D01*
X58792489Y-54210161D01*
X58861647Y-54200217D01*
X58925203Y-54229242D01*
X58931681Y-54235274D01*
X68392798Y-63696391D01*
X68426283Y-63757714D01*
X68421299Y-63827406D01*
X68379427Y-63883339D01*
X68313963Y-63907756D01*
X68245690Y-63892904D01*
X68232236Y-63884393D01*
X68060228Y-63759421D01*
X68003228Y-63730378D01*
X67856803Y-63655770D01*
X67639660Y-63585215D01*
X67414162Y-63549500D01*
X67414157Y-63549500D01*
X67185843Y-63549500D01*
X67185838Y-63549500D01*
X66960339Y-63585215D01*
X66743196Y-63655770D01*
X66539771Y-63759421D01*
X66355061Y-63893622D01*
X66193622Y-64055061D01*
X66059421Y-64239771D01*
X65955770Y-64443196D01*
X65885215Y-64660339D01*
X65849500Y-64885837D01*
X65849500Y-65114162D01*
X65885215Y-65339660D01*
X65955770Y-65556803D01*
X66025621Y-65693892D01*
X66059421Y-65760228D01*
X66193621Y-65944937D01*
X66355063Y-66106379D01*
X66539772Y-66240579D01*
X66635884Y-66289550D01*
X66743196Y-66344229D01*
X66743198Y-66344229D01*
X66743201Y-66344231D01*
X66859592Y-66382049D01*
X66960339Y-66414784D01*
X67185838Y-66450500D01*
X67185843Y-66450500D01*
X67414162Y-66450500D01*
X67639660Y-66414784D01*
X67856799Y-66344231D01*
X68060228Y-66240579D01*
X68244937Y-66106379D01*
X68406379Y-65944937D01*
X68540579Y-65760228D01*
X68644231Y-65556799D01*
X68705869Y-65367098D01*
X68745307Y-65309423D01*
X68809666Y-65282225D01*
X68878512Y-65294140D01*
X68929988Y-65341384D01*
X68947800Y-65405417D01*
X68947800Y-65711026D01*
X68975093Y-65812889D01*
X68998433Y-65853313D01*
X69027820Y-65904213D01*
X70312987Y-67189380D01*
X70404312Y-67242107D01*
X70506173Y-67269400D01*
X70506175Y-67269400D01*
X79483825Y-67269400D01*
X79483827Y-67269400D01*
X79585688Y-67242107D01*
X79677013Y-67189380D01*
X80533068Y-66333323D01*
X80594389Y-66299840D01*
X80664080Y-66304824D01*
X80677042Y-66310521D01*
X80743196Y-66344229D01*
X80743198Y-66344229D01*
X80743201Y-66344231D01*
X80859592Y-66382049D01*
X80960339Y-66414784D01*
X81185838Y-66450500D01*
X81185843Y-66450500D01*
X81414162Y-66450500D01*
X81639660Y-66414784D01*
X81856799Y-66344231D01*
X82060228Y-66240579D01*
X82244937Y-66106379D01*
X82406379Y-65944937D01*
X82540579Y-65760228D01*
X82644231Y-65556799D01*
X82714784Y-65339660D01*
X82749371Y-65121288D01*
X82750500Y-65114162D01*
X82750500Y-64885837D01*
X82714784Y-64660339D01*
X82644229Y-64443196D01*
X82569621Y-64296770D01*
X82540579Y-64239772D01*
X82406379Y-64055063D01*
X82244937Y-63893621D01*
X82060228Y-63759421D01*
X82003228Y-63730378D01*
X81856803Y-63655770D01*
X81639660Y-63585215D01*
X81414162Y-63549500D01*
X81414157Y-63549500D01*
X81185843Y-63549500D01*
X81185838Y-63549500D01*
X80960339Y-63585215D01*
X80743196Y-63655770D01*
X80539771Y-63759421D01*
X80355061Y-63893622D01*
X80193622Y-64055061D01*
X80059421Y-64239771D01*
X79955770Y-64443196D01*
X79885215Y-64660339D01*
X79849500Y-64885837D01*
X79849500Y-65114162D01*
X79885215Y-65339660D01*
X79955771Y-65556806D01*
X79989477Y-65622957D01*
X80002373Y-65691626D01*
X79976096Y-65756366D01*
X79966673Y-65766932D01*
X79301526Y-66432081D01*
X79240203Y-66465566D01*
X79213845Y-66468400D01*
X78628129Y-66468400D01*
X78561090Y-66448715D01*
X78515335Y-66395911D01*
X78505391Y-66326753D01*
X78534416Y-66263197D01*
X78556830Y-66244193D01*
X78556286Y-66243443D01*
X78584784Y-66222738D01*
X78744937Y-66106379D01*
X78906379Y-65944937D01*
X79040579Y-65760228D01*
X79144231Y-65556799D01*
X79214784Y-65339660D01*
X79249371Y-65121288D01*
X79250500Y-65114162D01*
X79250500Y-64885837D01*
X79214784Y-64660339D01*
X79144229Y-64443196D01*
X79069621Y-64296770D01*
X79040579Y-64239772D01*
X78906379Y-64055063D01*
X78744937Y-63893621D01*
X78560228Y-63759421D01*
X78503228Y-63730378D01*
X78356803Y-63655770D01*
X78303066Y-63638310D01*
X78286180Y-63632823D01*
X78228506Y-63593386D01*
X78201308Y-63529027D01*
X78200500Y-63514893D01*
X78200500Y-61926375D01*
X78200500Y-61926373D01*
X78173207Y-61824513D01*
X78173207Y-61824512D01*
X78120480Y-61733187D01*
X75951745Y-59564452D01*
X75918260Y-59503129D01*
X75923244Y-59433437D01*
X75951741Y-59389094D01*
X76020420Y-59320416D01*
X76099477Y-59183484D01*
X76140400Y-59030757D01*
X76140400Y-58872643D01*
X76099477Y-58719916D01*
X76099473Y-58719909D01*
X76020424Y-58582990D01*
X76020418Y-58582982D01*
X75942256Y-58504820D01*
X75915373Y-58464586D01*
X75913109Y-58459119D01*
X75913107Y-58459112D01*
X75860380Y-58367787D01*
X75745319Y-58252726D01*
X75711834Y-58191403D01*
X75709000Y-58165045D01*
X75709000Y-55247300D01*
X75728685Y-55180261D01*
X75781489Y-55134506D01*
X75833000Y-55123300D01*
X75989355Y-55123300D01*
X75989357Y-55123300D01*
X76142084Y-55082377D01*
X76279016Y-55003320D01*
X76390820Y-54891516D01*
X76469877Y-54754584D01*
X76510800Y-54601857D01*
X76510800Y-54540053D01*
X76530485Y-54473014D01*
X76547114Y-54452377D01*
X79143410Y-51856081D01*
X79143413Y-51856080D01*
X79217980Y-51781513D01*
X79250483Y-51725216D01*
X79270707Y-51690188D01*
X79298001Y-51588327D01*
X79298001Y-51482873D01*
X79298001Y-51475278D01*
X79298000Y-51475260D01*
X79298000Y-44095152D01*
X79317685Y-44028113D01*
X79370489Y-43982358D01*
X79439647Y-43972414D01*
X79503203Y-44001439D01*
X79540977Y-44060217D01*
X79541761Y-44063010D01*
X79575623Y-44189383D01*
X79575626Y-44189390D01*
X79654675Y-44326309D01*
X79654681Y-44326317D01*
X79698381Y-44370017D01*
X79731866Y-44431340D01*
X79734700Y-44457698D01*
X79734700Y-50365073D01*
X79734700Y-50470527D01*
X79739114Y-50487000D01*
X79761993Y-50572389D01*
X79769632Y-50585619D01*
X79814720Y-50663713D01*
X79814722Y-50663715D01*
X81629081Y-52478074D01*
X81662566Y-52539397D01*
X81665400Y-52565755D01*
X81665400Y-52627557D01*
X81699624Y-52755281D01*
X81706323Y-52780283D01*
X81706326Y-52780290D01*
X81785375Y-52917209D01*
X81785379Y-52917214D01*
X81785380Y-52917216D01*
X81897184Y-53029020D01*
X81897186Y-53029021D01*
X81897190Y-53029024D01*
X81968585Y-53070243D01*
X82034116Y-53108077D01*
X82186843Y-53149000D01*
X82186845Y-53149000D01*
X82344955Y-53149000D01*
X82344957Y-53149000D01*
X82497684Y-53108077D01*
X82634616Y-53029020D01*
X82746420Y-52917216D01*
X82825477Y-52780284D01*
X82866400Y-52627557D01*
X82866400Y-52469443D01*
X82825477Y-52316716D01*
X82751620Y-52188790D01*
X82746424Y-52179790D01*
X82746418Y-52179782D01*
X82634617Y-52067981D01*
X82634609Y-52067975D01*
X82497690Y-51988926D01*
X82497686Y-51988924D01*
X82497684Y-51988923D01*
X82344957Y-51948000D01*
X82344956Y-51948000D01*
X82283155Y-51948000D01*
X82216116Y-51928315D01*
X82195474Y-51911681D01*
X80572019Y-50288226D01*
X80538534Y-50226903D01*
X80535700Y-50200545D01*
X80535700Y-44457698D01*
X80555385Y-44390659D01*
X80572019Y-44370017D01*
X80588120Y-44353916D01*
X80615720Y-44326316D01*
X80694777Y-44189384D01*
X80735700Y-44036657D01*
X80735700Y-43878543D01*
X80721124Y-43824143D01*
X81332000Y-43824143D01*
X81332000Y-43982257D01*
X81370972Y-44127700D01*
X81372923Y-44134983D01*
X81372926Y-44134990D01*
X81451975Y-44271909D01*
X81451979Y-44271914D01*
X81451980Y-44271916D01*
X81563784Y-44383720D01*
X81563786Y-44383721D01*
X81563790Y-44383724D01*
X81683388Y-44452773D01*
X81700716Y-44462777D01*
X81853443Y-44503700D01*
X81915245Y-44503700D01*
X81982284Y-44523385D01*
X82002926Y-44540019D01*
X89571081Y-52108174D01*
X89604566Y-52169497D01*
X89607400Y-52195855D01*
X89607400Y-55126802D01*
X89587715Y-55193841D01*
X89571081Y-55214483D01*
X89527381Y-55258182D01*
X89527375Y-55258190D01*
X89448326Y-55395109D01*
X89448323Y-55395116D01*
X89407400Y-55547843D01*
X89407400Y-55705957D01*
X89447922Y-55857185D01*
X89448323Y-55858683D01*
X89448326Y-55858690D01*
X89527375Y-55995609D01*
X89527379Y-55995614D01*
X89527380Y-55995616D01*
X89639184Y-56107420D01*
X89639186Y-56107421D01*
X89639190Y-56107424D01*
X89724701Y-56156793D01*
X89776116Y-56186477D01*
X89928843Y-56227400D01*
X89928845Y-56227400D01*
X90086955Y-56227400D01*
X90086957Y-56227400D01*
X90239684Y-56186477D01*
X90376616Y-56107420D01*
X90488420Y-55995616D01*
X90567477Y-55858684D01*
X90608400Y-55705957D01*
X90608400Y-55547843D01*
X90567477Y-55395116D01*
X90540030Y-55347576D01*
X90488424Y-55258190D01*
X90488418Y-55258182D01*
X90444719Y-55214483D01*
X90411234Y-55153160D01*
X90408400Y-55126802D01*
X90408400Y-51925875D01*
X90408400Y-51925873D01*
X90381107Y-51824013D01*
X90381107Y-51824012D01*
X90328380Y-51732687D01*
X82569319Y-43973626D01*
X82535834Y-43912303D01*
X82533000Y-43885945D01*
X82533000Y-43824145D01*
X82533000Y-43824143D01*
X82492077Y-43671416D01*
X82481534Y-43653154D01*
X82413024Y-43534490D01*
X82413018Y-43534482D01*
X82301217Y-43422681D01*
X82301209Y-43422675D01*
X82164290Y-43343626D01*
X82164286Y-43343624D01*
X82164284Y-43343623D01*
X82011557Y-43302700D01*
X81853443Y-43302700D01*
X81700716Y-43343623D01*
X81700709Y-43343626D01*
X81563790Y-43422675D01*
X81563782Y-43422681D01*
X81451981Y-43534482D01*
X81451975Y-43534490D01*
X81372926Y-43671409D01*
X81372923Y-43671416D01*
X81332000Y-43824143D01*
X80721124Y-43824143D01*
X80694777Y-43725816D01*
X80688546Y-43715024D01*
X80615724Y-43588890D01*
X80615718Y-43588882D01*
X80503917Y-43477081D01*
X80503909Y-43477075D01*
X80366990Y-43398026D01*
X80366986Y-43398024D01*
X80366984Y-43398023D01*
X80214257Y-43357100D01*
X80056143Y-43357100D01*
X79903416Y-43398023D01*
X79903409Y-43398026D01*
X79766490Y-43477075D01*
X79766482Y-43477081D01*
X79654681Y-43588882D01*
X79654675Y-43588890D01*
X79575626Y-43725809D01*
X79575624Y-43725814D01*
X79575623Y-43725816D01*
X79549277Y-43824143D01*
X79541775Y-43852140D01*
X79505410Y-43911801D01*
X79442563Y-43942330D01*
X79373187Y-43934035D01*
X79319310Y-43889550D01*
X79298035Y-43822998D01*
X79298000Y-43820047D01*
X79298000Y-41474198D01*
X79317685Y-41407159D01*
X79334319Y-41386517D01*
X79346052Y-41374784D01*
X79378020Y-41342816D01*
X79457077Y-41205884D01*
X79498000Y-41053157D01*
X79498000Y-40949005D01*
X79517685Y-40881966D01*
X79570489Y-40836211D01*
X79589902Y-40829231D01*
X79714384Y-40795877D01*
X79851316Y-40716820D01*
X79963120Y-40605016D01*
X80042177Y-40468084D01*
X80083100Y-40315357D01*
X80083100Y-40253555D01*
X80102785Y-40186516D01*
X80119419Y-40165874D01*
X82897146Y-37388147D01*
X85679180Y-34606113D01*
X85714355Y-34545188D01*
X85731907Y-34514787D01*
X85759200Y-34412927D01*
X85759200Y-33409098D01*
X85767518Y-33380769D01*
X85773233Y-33351799D01*
X85777888Y-33345451D01*
X85778885Y-33342059D01*
X85793830Y-33323138D01*
X85794636Y-33322299D01*
X85839220Y-33277716D01*
X85841774Y-33273291D01*
X85850723Y-33263988D01*
X85875295Y-33249943D01*
X85898148Y-33233258D01*
X85905226Y-33232836D01*
X85911384Y-33229317D01*
X85939646Y-33230786D01*
X85967894Y-33229105D01*
X85974173Y-33232582D01*
X85981159Y-33232946D01*
X86002421Y-33248226D01*
X86027774Y-33262267D01*
X91550779Y-38785271D01*
X91550789Y-38785282D01*
X91629688Y-38864181D01*
X91632458Y-38865780D01*
X91681649Y-38894180D01*
X91681650Y-38894181D01*
X91721007Y-38916904D01*
X91721010Y-38916906D01*
X91721012Y-38916906D01*
X91721013Y-38916907D01*
X91822873Y-38944201D01*
X91822875Y-38944201D01*
X91935923Y-38944201D01*
X91935939Y-38944200D01*
X97927002Y-38944200D01*
X97994041Y-38963885D01*
X98014683Y-38980519D01*
X98058384Y-39024220D01*
X98058386Y-39024221D01*
X98058390Y-39024224D01*
X98152482Y-39078547D01*
X98195316Y-39103277D01*
X98348043Y-39144200D01*
X98348045Y-39144200D01*
X98506155Y-39144200D01*
X98506157Y-39144200D01*
X98658884Y-39103277D01*
X98795816Y-39024220D01*
X98907620Y-38912416D01*
X98986677Y-38775484D01*
X99027600Y-38622757D01*
X99027600Y-38464643D01*
X98986677Y-38311916D01*
X98947481Y-38244026D01*
X98907624Y-38174990D01*
X98907618Y-38174982D01*
X98795817Y-38063181D01*
X98795809Y-38063175D01*
X98658890Y-37984126D01*
X98658886Y-37984124D01*
X98658884Y-37984123D01*
X98506157Y-37943200D01*
X98348043Y-37943200D01*
X98195316Y-37984123D01*
X98195309Y-37984126D01*
X98058390Y-38063175D01*
X98058382Y-38063181D01*
X98014683Y-38106881D01*
X97953360Y-38140366D01*
X97927002Y-38143200D01*
X92092854Y-38143200D01*
X92025815Y-38123515D01*
X92005173Y-38106881D01*
X85626930Y-31728637D01*
X85593445Y-31667314D01*
X85598429Y-31597622D01*
X85640301Y-31541689D01*
X85682518Y-31521181D01*
X85698584Y-31516877D01*
X85835516Y-31437820D01*
X85947320Y-31326016D01*
X86026377Y-31189084D01*
X86042914Y-31127365D01*
X86079278Y-31067708D01*
X86142124Y-31037178D01*
X86211500Y-31045472D01*
X86265378Y-31089957D01*
X86282461Y-31127365D01*
X86310275Y-31231165D01*
X86310923Y-31233583D01*
X86310926Y-31233590D01*
X86389975Y-31370509D01*
X86389979Y-31370514D01*
X86389980Y-31370516D01*
X86501784Y-31482320D01*
X86501786Y-31482321D01*
X86501790Y-31482324D01*
X86604615Y-31541689D01*
X86638716Y-31561377D01*
X86791443Y-31602300D01*
X86853245Y-31602300D01*
X86920284Y-31621985D01*
X86940926Y-31638619D01*
X92468787Y-37166480D01*
X92560112Y-37219207D01*
X92661973Y-37246500D01*
X92767427Y-37246500D01*
X100688073Y-37246500D01*
X100755112Y-37266185D01*
X100800867Y-37318989D01*
X100810811Y-37388147D01*
X100795460Y-37432500D01*
X100725824Y-37553113D01*
X100725823Y-37553116D01*
X100684900Y-37705843D01*
X100684900Y-37767645D01*
X100665215Y-37834684D01*
X100648581Y-37855326D01*
X95229581Y-43274326D01*
X95168258Y-43307811D01*
X95098566Y-43302827D01*
X95042633Y-43260955D01*
X95018216Y-43195491D01*
X95017900Y-43186645D01*
X95017900Y-42433655D01*
X95037585Y-42366616D01*
X95054219Y-42345974D01*
X95238374Y-42161819D01*
X95299697Y-42128334D01*
X95326055Y-42125500D01*
X95387855Y-42125500D01*
X95387857Y-42125500D01*
X95540584Y-42084577D01*
X95677516Y-42005520D01*
X95789320Y-41893716D01*
X95868377Y-41756784D01*
X95909300Y-41604057D01*
X95909300Y-41445943D01*
X95868377Y-41293216D01*
X95862381Y-41282830D01*
X95789324Y-41156290D01*
X95789318Y-41156282D01*
X95750708Y-41117672D01*
X95717223Y-41056349D01*
X95722207Y-40986657D01*
X95764079Y-40930724D01*
X95806293Y-40910217D01*
X95901984Y-40884577D01*
X96038916Y-40805520D01*
X96150720Y-40693716D01*
X96229777Y-40556784D01*
X96270700Y-40404057D01*
X96270700Y-40245943D01*
X96229777Y-40093216D01*
X96224430Y-40083955D01*
X96150724Y-39956290D01*
X96150718Y-39956282D01*
X96038917Y-39844481D01*
X96038909Y-39844475D01*
X95901990Y-39765426D01*
X95901986Y-39765424D01*
X95901984Y-39765423D01*
X95749257Y-39724500D01*
X95591143Y-39724500D01*
X95438416Y-39765423D01*
X95438409Y-39765426D01*
X95301490Y-39844475D01*
X95301482Y-39844481D01*
X95189681Y-39956282D01*
X95189675Y-39956290D01*
X95110626Y-40093209D01*
X95110623Y-40093216D01*
X95069700Y-40245943D01*
X95069700Y-40295545D01*
X95050015Y-40362584D01*
X95033381Y-40383226D01*
X93426122Y-41990484D01*
X93426120Y-41990487D01*
X93376585Y-42076284D01*
X93373393Y-42081812D01*
X93356492Y-42144888D01*
X93356492Y-42144889D01*
X93356491Y-42144888D01*
X93346100Y-42183669D01*
X93346100Y-45560702D01*
X93326415Y-45627741D01*
X93309781Y-45648383D01*
X93266081Y-45692082D01*
X93266075Y-45692090D01*
X93187026Y-45829009D01*
X93187023Y-45829016D01*
X93146100Y-45981743D01*
X93146100Y-46139857D01*
X93175390Y-46249167D01*
X93187023Y-46292583D01*
X93187026Y-46292590D01*
X93266075Y-46429509D01*
X93266079Y-46429514D01*
X93266080Y-46429516D01*
X93377884Y-46541320D01*
X93377886Y-46541321D01*
X93377890Y-46541324D01*
X93467861Y-46593268D01*
X93514816Y-46620377D01*
X93667543Y-46661300D01*
X93667545Y-46661300D01*
X93825655Y-46661300D01*
X93825657Y-46661300D01*
X93978384Y-46620377D01*
X94030900Y-46590056D01*
X94098800Y-46573584D01*
X94164827Y-46596437D01*
X94208018Y-46651358D01*
X94216900Y-46697444D01*
X94216900Y-47460202D01*
X94197215Y-47527241D01*
X94180581Y-47547883D01*
X94136881Y-47591582D01*
X94136875Y-47591590D01*
X94057826Y-47728509D01*
X94057823Y-47728516D01*
X94016900Y-47881243D01*
X94016900Y-48039357D01*
X94041659Y-48131757D01*
X94057823Y-48192083D01*
X94057826Y-48192090D01*
X94136875Y-48329009D01*
X94136879Y-48329014D01*
X94136880Y-48329016D01*
X94248684Y-48440820D01*
X94248686Y-48440821D01*
X94248690Y-48440824D01*
X94365699Y-48508378D01*
X94385616Y-48519877D01*
X94538343Y-48560800D01*
X94538345Y-48560800D01*
X94695600Y-48560800D01*
X94762639Y-48580485D01*
X94808394Y-48633289D01*
X94819600Y-48684800D01*
X94819600Y-56582726D01*
X94846893Y-56684589D01*
X94873256Y-56730250D01*
X94899620Y-56775913D01*
X94899622Y-56775915D01*
X102813181Y-64689474D01*
X102846666Y-64750797D01*
X102849500Y-64777155D01*
X102849500Y-65651122D01*
X102849501Y-65651125D01*
X102852399Y-65693886D01*
X102852399Y-65693887D01*
X102868897Y-65760226D01*
X102892047Y-65853314D01*
X102898360Y-65878696D01*
X102982967Y-66049292D01*
X102982969Y-66049295D01*
X103102277Y-66197721D01*
X103102278Y-66197722D01*
X103250704Y-66317030D01*
X103250707Y-66317032D01*
X103421302Y-66401639D01*
X103421303Y-66401639D01*
X103421307Y-66401641D01*
X103606111Y-66447600D01*
X103648877Y-66450500D01*
X104951122Y-66450499D01*
X104993889Y-66447600D01*
X105178693Y-66401641D01*
X105349296Y-66317030D01*
X105497722Y-66197722D01*
X105617030Y-66049296D01*
X105701641Y-65878693D01*
X105747600Y-65693889D01*
X105750500Y-65651123D01*
X105750499Y-64885837D01*
X106349500Y-64885837D01*
X106349500Y-65114162D01*
X106385215Y-65339660D01*
X106455770Y-65556803D01*
X106525621Y-65693892D01*
X106559421Y-65760228D01*
X106693621Y-65944937D01*
X106855063Y-66106379D01*
X107039772Y-66240579D01*
X107135884Y-66289550D01*
X107243196Y-66344229D01*
X107243198Y-66344229D01*
X107243201Y-66344231D01*
X107359592Y-66382049D01*
X107460339Y-66414784D01*
X107685838Y-66450500D01*
X107685843Y-66450500D01*
X107914162Y-66450500D01*
X108139660Y-66414784D01*
X108356799Y-66344231D01*
X108560228Y-66240579D01*
X108744937Y-66106379D01*
X108906379Y-65944937D01*
X109040579Y-65760228D01*
X109144231Y-65556799D01*
X109214784Y-65339660D01*
X109249371Y-65121288D01*
X109250500Y-65114162D01*
X109250500Y-64885837D01*
X109214784Y-64660339D01*
X109144229Y-64443196D01*
X109069621Y-64296770D01*
X109040579Y-64239772D01*
X108906379Y-64055063D01*
X108744937Y-63893621D01*
X108560228Y-63759421D01*
X108503228Y-63730378D01*
X108356803Y-63655770D01*
X108139660Y-63585215D01*
X107914162Y-63549500D01*
X107914157Y-63549500D01*
X107685843Y-63549500D01*
X107685838Y-63549500D01*
X107460339Y-63585215D01*
X107243196Y-63655770D01*
X107039771Y-63759421D01*
X106855061Y-63893622D01*
X106693622Y-64055061D01*
X106559421Y-64239771D01*
X106455770Y-64443196D01*
X106385215Y-64660339D01*
X106349500Y-64885837D01*
X105750499Y-64885837D01*
X105750499Y-64348878D01*
X105747600Y-64306111D01*
X105701641Y-64121307D01*
X105668786Y-64055061D01*
X105617032Y-63950707D01*
X105617030Y-63950704D01*
X105497722Y-63802278D01*
X105497721Y-63802277D01*
X105349295Y-63682969D01*
X105349292Y-63682967D01*
X105178697Y-63598360D01*
X104993892Y-63552400D01*
X104972506Y-63550950D01*
X104951123Y-63549500D01*
X104951120Y-63549500D01*
X103648877Y-63549500D01*
X103648874Y-63549501D01*
X103606113Y-63552399D01*
X103606112Y-63552399D01*
X103421303Y-63598360D01*
X103250707Y-63682967D01*
X103250705Y-63682968D01*
X103164863Y-63751970D01*
X103100279Y-63778628D01*
X103031535Y-63766137D01*
X102999496Y-63743003D01*
X97225374Y-57968881D01*
X97191889Y-57907558D01*
X97196873Y-57837866D01*
X97238745Y-57781933D01*
X97304209Y-57757516D01*
X97313055Y-57757200D01*
X97959025Y-57757200D01*
X97959027Y-57757200D01*
X98060888Y-57729907D01*
X98152213Y-57677180D01*
X101117810Y-54711581D01*
X101117813Y-54711580D01*
X101192380Y-54637013D01*
X101222514Y-54584820D01*
X101245107Y-54545688D01*
X101272401Y-54443827D01*
X101272401Y-54338373D01*
X101272401Y-54330778D01*
X101272400Y-54330760D01*
X101272400Y-48987343D01*
X101292085Y-48920304D01*
X101344889Y-48874549D01*
X101414047Y-48864605D01*
X101458399Y-48879955D01*
X101513516Y-48911777D01*
X101666243Y-48952700D01*
X101666245Y-48952700D01*
X101824355Y-48952700D01*
X101824357Y-48952700D01*
X101977084Y-48911777D01*
X102114016Y-48832720D01*
X102225820Y-48720916D01*
X102304877Y-48583984D01*
X102345800Y-48431257D01*
X102345800Y-48369455D01*
X102365485Y-48302416D01*
X102382119Y-48281774D01*
X102471810Y-48192083D01*
X102579180Y-48084713D01*
X102631907Y-47993388D01*
X102659200Y-47891527D01*
X102659200Y-47786073D01*
X102659200Y-46367655D01*
X102678885Y-46300616D01*
X102731689Y-46254861D01*
X102800847Y-46244917D01*
X102864403Y-46273942D01*
X102870881Y-46279974D01*
X107551918Y-50961011D01*
X107585403Y-51022334D01*
X107580419Y-51092026D01*
X107538547Y-51147959D01*
X107526237Y-51156079D01*
X107398587Y-51229777D01*
X107398582Y-51229781D01*
X107286781Y-51341582D01*
X107286775Y-51341590D01*
X107207726Y-51478509D01*
X107207723Y-51478516D01*
X107166800Y-51631243D01*
X107166800Y-51789357D01*
X107203380Y-51925873D01*
X107207723Y-51942083D01*
X107207726Y-51942090D01*
X107286775Y-52079009D01*
X107286781Y-52079017D01*
X107330481Y-52122717D01*
X107363966Y-52184040D01*
X107366800Y-52210398D01*
X107366800Y-61520026D01*
X107394093Y-61621889D01*
X107420456Y-61667550D01*
X107446820Y-61713213D01*
X107446822Y-61713215D01*
X109966673Y-64233066D01*
X110000158Y-64294389D01*
X109995174Y-64364081D01*
X109989478Y-64377040D01*
X109955771Y-64443196D01*
X109885215Y-64660339D01*
X109849500Y-64885837D01*
X109849500Y-65114162D01*
X109885215Y-65339660D01*
X109955770Y-65556803D01*
X110025621Y-65693892D01*
X110059421Y-65760228D01*
X110193621Y-65944937D01*
X110355063Y-66106379D01*
X110539772Y-66240579D01*
X110635884Y-66289550D01*
X110743196Y-66344229D01*
X110743198Y-66344229D01*
X110743201Y-66344231D01*
X110859592Y-66382049D01*
X110960339Y-66414784D01*
X111185838Y-66450500D01*
X111185843Y-66450500D01*
X111414162Y-66450500D01*
X111639660Y-66414784D01*
X111856799Y-66344231D01*
X112060228Y-66240579D01*
X112244937Y-66106379D01*
X112406379Y-65944937D01*
X112540579Y-65760228D01*
X112644231Y-65556799D01*
X112714784Y-65339660D01*
X112749371Y-65121288D01*
X112750500Y-65114162D01*
X112750500Y-64885837D01*
X113349500Y-64885837D01*
X113349500Y-65114162D01*
X113385215Y-65339660D01*
X113455770Y-65556803D01*
X113525621Y-65693892D01*
X113559421Y-65760228D01*
X113693621Y-65944937D01*
X113855063Y-66106379D01*
X114039772Y-66240579D01*
X114135884Y-66289550D01*
X114243196Y-66344229D01*
X114243198Y-66344229D01*
X114243201Y-66344231D01*
X114359592Y-66382049D01*
X114460339Y-66414784D01*
X114685838Y-66450500D01*
X114685843Y-66450500D01*
X114914162Y-66450500D01*
X115139660Y-66414784D01*
X115356799Y-66344231D01*
X115560228Y-66240579D01*
X115744937Y-66106379D01*
X115906379Y-65944937D01*
X116040579Y-65760228D01*
X116144231Y-65556799D01*
X116214784Y-65339660D01*
X116249371Y-65121288D01*
X116250500Y-65114162D01*
X116250500Y-64885837D01*
X116214784Y-64660339D01*
X116144229Y-64443196D01*
X116069621Y-64296770D01*
X116040579Y-64239772D01*
X115906379Y-64055063D01*
X115744937Y-63893621D01*
X115560228Y-63759421D01*
X115503228Y-63730378D01*
X115356803Y-63655770D01*
X115139660Y-63585215D01*
X114914162Y-63549500D01*
X114914157Y-63549500D01*
X114685843Y-63549500D01*
X114685838Y-63549500D01*
X114460339Y-63585215D01*
X114243196Y-63655770D01*
X114039771Y-63759421D01*
X113855061Y-63893622D01*
X113693622Y-64055061D01*
X113559421Y-64239771D01*
X113455770Y-64443196D01*
X113385215Y-64660339D01*
X113349500Y-64885837D01*
X112750500Y-64885837D01*
X112714784Y-64660339D01*
X112644229Y-64443196D01*
X112569621Y-64296770D01*
X112540579Y-64239772D01*
X112406379Y-64055063D01*
X112244937Y-63893621D01*
X112060228Y-63759421D01*
X112003228Y-63730378D01*
X111856803Y-63655770D01*
X111639660Y-63585215D01*
X111414162Y-63549500D01*
X111414157Y-63549500D01*
X111185843Y-63549500D01*
X111185838Y-63549500D01*
X110960339Y-63585215D01*
X110796934Y-63638310D01*
X110743201Y-63655769D01*
X110743198Y-63655770D01*
X110743196Y-63655771D01*
X110677040Y-63689478D01*
X110608370Y-63702373D01*
X110543631Y-63676095D01*
X110533066Y-63666673D01*
X108204119Y-61337726D01*
X108170634Y-61276403D01*
X108167800Y-61250045D01*
X108167800Y-52876155D01*
X108187485Y-52809116D01*
X108240289Y-52763361D01*
X108309447Y-52753417D01*
X108373003Y-52782442D01*
X108379481Y-52788474D01*
X119098302Y-63507295D01*
X119131787Y-63568618D01*
X119126803Y-63638310D01*
X119084931Y-63694243D01*
X119019467Y-63718660D01*
X118954326Y-63705461D01*
X118856803Y-63655771D01*
X118856802Y-63655770D01*
X118856799Y-63655769D01*
X118767367Y-63626710D01*
X118639660Y-63585215D01*
X118414162Y-63549500D01*
X118414157Y-63549500D01*
X118185843Y-63549500D01*
X118185838Y-63549500D01*
X117960339Y-63585215D01*
X117743196Y-63655770D01*
X117539771Y-63759421D01*
X117355061Y-63893622D01*
X117193622Y-64055061D01*
X117059421Y-64239771D01*
X116955770Y-64443196D01*
X116885215Y-64660339D01*
X116849500Y-64885837D01*
X116849500Y-65114162D01*
X116885215Y-65339660D01*
X116955770Y-65556803D01*
X117025621Y-65693892D01*
X117059421Y-65760228D01*
X117193621Y-65944937D01*
X117355063Y-66106379D01*
X117539772Y-66240579D01*
X117635884Y-66289550D01*
X117743196Y-66344229D01*
X117743198Y-66344229D01*
X117743201Y-66344231D01*
X117859592Y-66382049D01*
X117960339Y-66414784D01*
X118185838Y-66450500D01*
X118185843Y-66450500D01*
X118414162Y-66450500D01*
X118639660Y-66414784D01*
X118856799Y-66344231D01*
X119060228Y-66240579D01*
X119244937Y-66106379D01*
X119406379Y-65944937D01*
X119540579Y-65760228D01*
X119580309Y-65682252D01*
X119628281Y-65631458D01*
X119696102Y-65614662D01*
X119762237Y-65637199D01*
X119778474Y-65650867D01*
X120835919Y-66708312D01*
X120835920Y-66708313D01*
X120910487Y-66782880D01*
X121001813Y-66835607D01*
X121103673Y-66862900D01*
X121103675Y-66862900D01*
X123890325Y-66862900D01*
X123890327Y-66862900D01*
X123992188Y-66835607D01*
X124083513Y-66782880D01*
X124533068Y-66333323D01*
X124594389Y-66299840D01*
X124664080Y-66304824D01*
X124677042Y-66310521D01*
X124743196Y-66344229D01*
X124743198Y-66344229D01*
X124743201Y-66344231D01*
X124859592Y-66382049D01*
X124960339Y-66414784D01*
X125185838Y-66450500D01*
X125185843Y-66450500D01*
X125414162Y-66450500D01*
X125639660Y-66414784D01*
X125856799Y-66344231D01*
X126060228Y-66240579D01*
X126244937Y-66106379D01*
X126406379Y-65944937D01*
X126540579Y-65760228D01*
X126644231Y-65556799D01*
X126714784Y-65339660D01*
X126749371Y-65121288D01*
X126750500Y-65114162D01*
X126750500Y-64885838D01*
X126750499Y-64885836D01*
X126749371Y-64878711D01*
X133149500Y-64878711D01*
X133149500Y-65121288D01*
X133181161Y-65361785D01*
X133243947Y-65596104D01*
X133312658Y-65761987D01*
X133336776Y-65820212D01*
X133458064Y-66030289D01*
X133458066Y-66030292D01*
X133458067Y-66030293D01*
X133605733Y-66222736D01*
X133605739Y-66222743D01*
X133777256Y-66394260D01*
X133777263Y-66394266D01*
X133804003Y-66414784D01*
X133969711Y-66541936D01*
X134179788Y-66663224D01*
X134403900Y-66756054D01*
X134638211Y-66818838D01*
X134818586Y-66842584D01*
X134878711Y-66850500D01*
X134878712Y-66850500D01*
X135121289Y-66850500D01*
X135169388Y-66844167D01*
X135361789Y-66818838D01*
X135596100Y-66756054D01*
X135820212Y-66663224D01*
X136030289Y-66541936D01*
X136222738Y-66394265D01*
X136394265Y-66222738D01*
X136541936Y-66030289D01*
X136663224Y-65820212D01*
X136756054Y-65596100D01*
X136818838Y-65361789D01*
X136850500Y-65121288D01*
X136850500Y-64878712D01*
X136818838Y-64638211D01*
X136756054Y-64403900D01*
X136663224Y-64179788D01*
X136541936Y-63969711D01*
X136456922Y-63858918D01*
X136394266Y-63777263D01*
X136394260Y-63777256D01*
X136222743Y-63605739D01*
X136222736Y-63605733D01*
X136030293Y-63458067D01*
X136030292Y-63458066D01*
X136030289Y-63458064D01*
X135820212Y-63336776D01*
X135820205Y-63336773D01*
X135596104Y-63243947D01*
X135361785Y-63181161D01*
X135121289Y-63149500D01*
X135121288Y-63149500D01*
X134878712Y-63149500D01*
X134878711Y-63149500D01*
X134638214Y-63181161D01*
X134403895Y-63243947D01*
X134179794Y-63336773D01*
X134179785Y-63336777D01*
X133969706Y-63458067D01*
X133777263Y-63605733D01*
X133777256Y-63605739D01*
X133605739Y-63777256D01*
X133605733Y-63777263D01*
X133458067Y-63969706D01*
X133336777Y-64179785D01*
X133336773Y-64179794D01*
X133243947Y-64403895D01*
X133181161Y-64638214D01*
X133149500Y-64878711D01*
X126749371Y-64878711D01*
X126714784Y-64660339D01*
X126644229Y-64443196D01*
X126569621Y-64296770D01*
X126540579Y-64239772D01*
X126406379Y-64055063D01*
X126244937Y-63893621D01*
X126060228Y-63759421D01*
X126003228Y-63730378D01*
X125856803Y-63655770D01*
X125639660Y-63585215D01*
X125414162Y-63549500D01*
X125414157Y-63549500D01*
X125185843Y-63549500D01*
X125185838Y-63549500D01*
X124960339Y-63585215D01*
X124743196Y-63655770D01*
X124539771Y-63759421D01*
X124355061Y-63893622D01*
X124193622Y-64055061D01*
X124059421Y-64239771D01*
X123955770Y-64443196D01*
X123885215Y-64660339D01*
X123849500Y-64885837D01*
X123849500Y-65114162D01*
X123885215Y-65339660D01*
X123955771Y-65556806D01*
X123989477Y-65622957D01*
X124002373Y-65691626D01*
X123976096Y-65756366D01*
X123966674Y-65766932D01*
X123708024Y-66025582D01*
X123646704Y-66059066D01*
X123620345Y-66061900D01*
X123064765Y-66061900D01*
X122997726Y-66042215D01*
X122951971Y-65989411D01*
X122942027Y-65920253D01*
X122964447Y-65865014D01*
X122970380Y-65856847D01*
X123040579Y-65760228D01*
X123144231Y-65556799D01*
X123214784Y-65339660D01*
X123249371Y-65121288D01*
X123250500Y-65114162D01*
X123250500Y-64885837D01*
X123214784Y-64660339D01*
X123144229Y-64443196D01*
X123069621Y-64296770D01*
X123040579Y-64239772D01*
X122906379Y-64055063D01*
X122744937Y-63893621D01*
X122560228Y-63759421D01*
X122503228Y-63730378D01*
X122356803Y-63655770D01*
X122139660Y-63585215D01*
X121914162Y-63549500D01*
X121914157Y-63549500D01*
X121685843Y-63549500D01*
X121685838Y-63549500D01*
X121460339Y-63585215D01*
X121296934Y-63638310D01*
X121243201Y-63655769D01*
X121243198Y-63655770D01*
X121243196Y-63655771D01*
X121177040Y-63689478D01*
X121108370Y-63702373D01*
X121043631Y-63676095D01*
X121033066Y-63666673D01*
X119781819Y-62415426D01*
X119748334Y-62354103D01*
X119745500Y-62327745D01*
X119745500Y-55654255D01*
X119765185Y-55587216D01*
X119781819Y-55566574D01*
X123624074Y-51724319D01*
X123685397Y-51690834D01*
X123711755Y-51688000D01*
X123773555Y-51688000D01*
X123773557Y-51688000D01*
X123926284Y-51647077D01*
X124063216Y-51568020D01*
X124154419Y-51476817D01*
X124215742Y-51443332D01*
X124285434Y-51448316D01*
X124341367Y-51490188D01*
X124365784Y-51555652D01*
X124366100Y-51564498D01*
X124366100Y-51648327D01*
X124377932Y-51692487D01*
X124393393Y-51750189D01*
X124412807Y-51783814D01*
X124446120Y-51841513D01*
X124446122Y-51841515D01*
X127116181Y-54511574D01*
X127149666Y-54572897D01*
X127152500Y-54599255D01*
X127152500Y-54661057D01*
X127193211Y-54812990D01*
X127193423Y-54813783D01*
X127193426Y-54813790D01*
X127272475Y-54950709D01*
X127272479Y-54950714D01*
X127272480Y-54950716D01*
X127384284Y-55062520D01*
X127384286Y-55062521D01*
X127384290Y-55062524D01*
X127519823Y-55140773D01*
X127521216Y-55141577D01*
X127673943Y-55182500D01*
X127673945Y-55182500D01*
X127832055Y-55182500D01*
X127832057Y-55182500D01*
X127984784Y-55141577D01*
X128121716Y-55062520D01*
X128233520Y-54950716D01*
X128312577Y-54813784D01*
X128353500Y-54661057D01*
X128353500Y-54502943D01*
X128312577Y-54350216D01*
X128286083Y-54304326D01*
X128233524Y-54213290D01*
X128233518Y-54213282D01*
X128121717Y-54101481D01*
X128121709Y-54101475D01*
X127984790Y-54022426D01*
X127984786Y-54022424D01*
X127984784Y-54022423D01*
X127832057Y-53981500D01*
X127832056Y-53981500D01*
X127770255Y-53981500D01*
X127703216Y-53961815D01*
X127682574Y-53945181D01*
X125203419Y-51466026D01*
X125169934Y-51404703D01*
X125167100Y-51378345D01*
X125167100Y-44280498D01*
X125186785Y-44213459D01*
X125203419Y-44192817D01*
X125206853Y-44189383D01*
X125247120Y-44149116D01*
X125326177Y-44012184D01*
X125367100Y-43859457D01*
X125367100Y-43701343D01*
X125326177Y-43548616D01*
X125322335Y-43541962D01*
X125247124Y-43411690D01*
X125247118Y-43411682D01*
X125135317Y-43299881D01*
X125135309Y-43299875D01*
X124998390Y-43220826D01*
X124998386Y-43220824D01*
X124998384Y-43220823D01*
X124845657Y-43179900D01*
X124687543Y-43179900D01*
X124534816Y-43220823D01*
X124534809Y-43220826D01*
X124397890Y-43299875D01*
X124397882Y-43299881D01*
X124286081Y-43411682D01*
X124286075Y-43411690D01*
X124207026Y-43548609D01*
X124207023Y-43548616D01*
X124166100Y-43701343D01*
X124166100Y-43859457D01*
X124204377Y-44002307D01*
X124207023Y-44012183D01*
X124207026Y-44012190D01*
X124286075Y-44149109D01*
X124286081Y-44149117D01*
X124329781Y-44192817D01*
X124363266Y-44254140D01*
X124366100Y-44280498D01*
X124366100Y-50610502D01*
X124346415Y-50677541D01*
X124293611Y-50723296D01*
X124224453Y-50733240D01*
X124160897Y-50704215D01*
X124154419Y-50698183D01*
X124063217Y-50606981D01*
X124063209Y-50606975D01*
X123926290Y-50527926D01*
X123926286Y-50527924D01*
X123926284Y-50527923D01*
X123773557Y-50487000D01*
X123615443Y-50487000D01*
X123462716Y-50527923D01*
X123462709Y-50527926D01*
X123325790Y-50606975D01*
X123325782Y-50606981D01*
X123213981Y-50718782D01*
X123213975Y-50718790D01*
X123134926Y-50855709D01*
X123134923Y-50855716D01*
X123094000Y-51008443D01*
X123094000Y-51070245D01*
X123074315Y-51137284D01*
X123057681Y-51157926D01*
X119215426Y-55000181D01*
X119154103Y-55033666D01*
X119127745Y-55036500D01*
X117965188Y-55036500D01*
X117898149Y-55016815D01*
X117852394Y-54964011D01*
X117842450Y-54894853D01*
X117853042Y-54864246D01*
X117851466Y-54863594D01*
X117854572Y-54856092D01*
X117854577Y-54856084D01*
X117895500Y-54703357D01*
X117895500Y-54545243D01*
X117854577Y-54392516D01*
X117845478Y-54376756D01*
X117775524Y-54255590D01*
X117775518Y-54255582D01*
X117663717Y-54143781D01*
X117663709Y-54143775D01*
X117526790Y-54064726D01*
X117526786Y-54064724D01*
X117526784Y-54064723D01*
X117374057Y-54023800D01*
X117215943Y-54023800D01*
X117097586Y-54055513D01*
X117027736Y-54053850D01*
X116977812Y-54023419D01*
X116383795Y-53429402D01*
X116350310Y-53368079D01*
X116355294Y-53298387D01*
X116383791Y-53254044D01*
X116494220Y-53143616D01*
X116573277Y-53006684D01*
X116614200Y-52853957D01*
X116614200Y-52792153D01*
X116633885Y-52725114D01*
X116650514Y-52704477D01*
X121238703Y-48116287D01*
X121238708Y-48116284D01*
X121248911Y-48106080D01*
X121248913Y-48106080D01*
X121323480Y-48031513D01*
X121376207Y-47940187D01*
X121382271Y-47917556D01*
X121384947Y-47907572D01*
X121394564Y-47871680D01*
X121403501Y-47838327D01*
X121403501Y-47732873D01*
X121403501Y-47725278D01*
X121403500Y-47725260D01*
X121403500Y-40959598D01*
X121423185Y-40892559D01*
X121439819Y-40871917D01*
X121456858Y-40854878D01*
X121483520Y-40828216D01*
X121562577Y-40691284D01*
X121564430Y-40684365D01*
X121600795Y-40624706D01*
X121663642Y-40594177D01*
X121733017Y-40602471D01*
X121771886Y-40628779D01*
X122067119Y-40924012D01*
X122067120Y-40924013D01*
X122141687Y-40998580D01*
X122233013Y-41051307D01*
X122334873Y-41078600D01*
X122334875Y-41078600D01*
X123607425Y-41078600D01*
X123607427Y-41078600D01*
X123709288Y-41051307D01*
X123800613Y-40998580D01*
X124816073Y-39983118D01*
X124877396Y-39949634D01*
X124903754Y-39946800D01*
X124965555Y-39946800D01*
X124965557Y-39946800D01*
X125118284Y-39905877D01*
X125255216Y-39826820D01*
X125367020Y-39715016D01*
X125367025Y-39715005D01*
X125371683Y-39708937D01*
X125428108Y-39667731D01*
X125497854Y-39663572D01*
X125557744Y-39696737D01*
X125979781Y-40118774D01*
X126013266Y-40180097D01*
X126016100Y-40206455D01*
X126016100Y-40484902D01*
X125996415Y-40551941D01*
X125979781Y-40572583D01*
X125936081Y-40616282D01*
X125936075Y-40616290D01*
X125857026Y-40753209D01*
X125857023Y-40753216D01*
X125816100Y-40905943D01*
X125816100Y-41064057D01*
X125855148Y-41209784D01*
X125857023Y-41216783D01*
X125857026Y-41216790D01*
X125936075Y-41353709D01*
X125936079Y-41353714D01*
X125936080Y-41353716D01*
X126047884Y-41465520D01*
X126047886Y-41465521D01*
X126047890Y-41465524D01*
X126182249Y-41543095D01*
X126184816Y-41544577D01*
X126337543Y-41585500D01*
X126337545Y-41585500D01*
X126495655Y-41585500D01*
X126495657Y-41585500D01*
X126648384Y-41544577D01*
X126785316Y-41465520D01*
X126897120Y-41353716D01*
X126976177Y-41216784D01*
X127017100Y-41064057D01*
X127017100Y-40905943D01*
X126976177Y-40753216D01*
X126972132Y-40746209D01*
X126897124Y-40616290D01*
X126897118Y-40616282D01*
X126853419Y-40572583D01*
X126819934Y-40511260D01*
X126817100Y-40484902D01*
X126817100Y-39936475D01*
X126817100Y-39936473D01*
X126801191Y-39877099D01*
X126789807Y-39834612D01*
X126737080Y-39743287D01*
X110333336Y-23339543D01*
X116805100Y-23339543D01*
X116805100Y-23497657D01*
X116837634Y-23619073D01*
X116846023Y-23650383D01*
X116846026Y-23650390D01*
X116925075Y-23787309D01*
X116925081Y-23787317D01*
X116968781Y-23831017D01*
X117002266Y-23892340D01*
X117005100Y-23918698D01*
X117005100Y-23940373D01*
X117005100Y-24045827D01*
X117008493Y-24058490D01*
X117032393Y-24147689D01*
X117043547Y-24167007D01*
X117085120Y-24239013D01*
X117085122Y-24239015D01*
X121271881Y-28425774D01*
X121305366Y-28487097D01*
X121308200Y-28513455D01*
X121308200Y-28575257D01*
X121333174Y-28668459D01*
X121349123Y-28727983D01*
X121349126Y-28727990D01*
X121428175Y-28864909D01*
X121428179Y-28864914D01*
X121428180Y-28864916D01*
X121539984Y-28976720D01*
X121539986Y-28976721D01*
X121539990Y-28976724D01*
X121676909Y-29055773D01*
X121676916Y-29055777D01*
X121829643Y-29096700D01*
X121829645Y-29096700D01*
X121987755Y-29096700D01*
X121987757Y-29096700D01*
X122140484Y-29055777D01*
X122277416Y-28976720D01*
X122389220Y-28864916D01*
X122468277Y-28727984D01*
X122509200Y-28575257D01*
X122509200Y-28417143D01*
X122468277Y-28264416D01*
X122408338Y-28160597D01*
X122389224Y-28127490D01*
X122389218Y-28127482D01*
X122277417Y-28015681D01*
X122277409Y-28015675D01*
X122140490Y-27936626D01*
X122140486Y-27936624D01*
X122140484Y-27936623D01*
X121987757Y-27895700D01*
X121987756Y-27895700D01*
X121925955Y-27895700D01*
X121858916Y-27876015D01*
X121838274Y-27859381D01*
X118098893Y-24120000D01*
X131267150Y-24120000D01*
X131920735Y-24120000D01*
X131904940Y-24135795D01*
X131865444Y-24204204D01*
X131845000Y-24280504D01*
X131845000Y-24359496D01*
X131865444Y-24435796D01*
X131904940Y-24504205D01*
X131920735Y-24520000D01*
X131267150Y-24520000D01*
X131279584Y-24582512D01*
X131279586Y-24582520D01*
X131347428Y-24746307D01*
X131347433Y-24746316D01*
X131445923Y-24893716D01*
X131445926Y-24893720D01*
X131571279Y-25019073D01*
X131571283Y-25019076D01*
X131718683Y-25117566D01*
X131718692Y-25117571D01*
X131882479Y-25185413D01*
X131882487Y-25185415D01*
X132056353Y-25219999D01*
X132056357Y-25220000D01*
X132495000Y-25220000D01*
X132495000Y-24620000D01*
X132895000Y-24620000D01*
X132895000Y-25220000D01*
X133333643Y-25220000D01*
X133333646Y-25219999D01*
X133507512Y-25185415D01*
X133507520Y-25185413D01*
X133671307Y-25117571D01*
X133671316Y-25117566D01*
X133818716Y-25019076D01*
X133818720Y-25019073D01*
X133944073Y-24893720D01*
X133944076Y-24893716D01*
X134042566Y-24746316D01*
X134042571Y-24746307D01*
X134110413Y-24582520D01*
X134110415Y-24582512D01*
X134122850Y-24520000D01*
X133469265Y-24520000D01*
X133485060Y-24504205D01*
X133524556Y-24435796D01*
X133545000Y-24359496D01*
X133545000Y-24280504D01*
X133524556Y-24204204D01*
X133485060Y-24135795D01*
X133469265Y-24120000D01*
X134122850Y-24120000D01*
X135697150Y-24120000D01*
X136350735Y-24120000D01*
X136334940Y-24135795D01*
X136295444Y-24204204D01*
X136275000Y-24280504D01*
X136275000Y-24359496D01*
X136295444Y-24435796D01*
X136334940Y-24504205D01*
X136350735Y-24520000D01*
X135697150Y-24520000D01*
X135709584Y-24582512D01*
X135709586Y-24582520D01*
X135777428Y-24746307D01*
X135777433Y-24746316D01*
X135875923Y-24893716D01*
X135875926Y-24893720D01*
X136001279Y-25019073D01*
X136001283Y-25019076D01*
X136148683Y-25117566D01*
X136148692Y-25117571D01*
X136312479Y-25185413D01*
X136312487Y-25185415D01*
X136486353Y-25219999D01*
X136486357Y-25220000D01*
X136675000Y-25220000D01*
X136675000Y-24620000D01*
X137075000Y-24620000D01*
X137075000Y-25220000D01*
X137263643Y-25220000D01*
X137263646Y-25219999D01*
X137437512Y-25185415D01*
X137437520Y-25185413D01*
X137601307Y-25117571D01*
X137601316Y-25117566D01*
X137748716Y-25019076D01*
X137748720Y-25019073D01*
X137874073Y-24893720D01*
X137874076Y-24893716D01*
X137972566Y-24746316D01*
X137972571Y-24746307D01*
X138040413Y-24582520D01*
X138040415Y-24582512D01*
X138052850Y-24520000D01*
X137399265Y-24520000D01*
X137415060Y-24504205D01*
X137454556Y-24435796D01*
X137475000Y-24359496D01*
X137475000Y-24280504D01*
X137454556Y-24204204D01*
X137415060Y-24135795D01*
X137399265Y-24120000D01*
X138052850Y-24120000D01*
X138040415Y-24057487D01*
X138040413Y-24057479D01*
X137972571Y-23893692D01*
X137972566Y-23893683D01*
X137874076Y-23746283D01*
X137874073Y-23746279D01*
X137748720Y-23620926D01*
X137748716Y-23620923D01*
X137601316Y-23522433D01*
X137601307Y-23522428D01*
X137437520Y-23454586D01*
X137437512Y-23454584D01*
X137263646Y-23420000D01*
X137075000Y-23420000D01*
X137075000Y-24020000D01*
X136675000Y-24020000D01*
X136675000Y-23420000D01*
X136486353Y-23420000D01*
X136312487Y-23454584D01*
X136312479Y-23454586D01*
X136148692Y-23522428D01*
X136148683Y-23522433D01*
X136001283Y-23620923D01*
X136001279Y-23620926D01*
X135875926Y-23746279D01*
X135875923Y-23746283D01*
X135777433Y-23893683D01*
X135777428Y-23893692D01*
X135709586Y-24057479D01*
X135709584Y-24057487D01*
X135697150Y-24120000D01*
X134122850Y-24120000D01*
X134110415Y-24057487D01*
X134110413Y-24057479D01*
X134042571Y-23893692D01*
X134042566Y-23893683D01*
X133944076Y-23746283D01*
X133944073Y-23746279D01*
X133818720Y-23620926D01*
X133818716Y-23620923D01*
X133666245Y-23519045D01*
X133667050Y-23517838D01*
X133622377Y-23473942D01*
X133606926Y-23405802D01*
X133630767Y-23340126D01*
X133643003Y-23325880D01*
X133680466Y-23288417D01*
X133680469Y-23288413D01*
X133748864Y-23186054D01*
X133748871Y-23186041D01*
X133795979Y-23072310D01*
X133795982Y-23072300D01*
X133820000Y-22951559D01*
X133820000Y-22828440D01*
X133795982Y-22707699D01*
X133795979Y-22707689D01*
X133748871Y-22593958D01*
X133748864Y-22593945D01*
X133680469Y-22491586D01*
X133680466Y-22491582D01*
X133593417Y-22404533D01*
X133593413Y-22404530D01*
X133491054Y-22336135D01*
X133491041Y-22336128D01*
X133377310Y-22289020D01*
X133377300Y-22289017D01*
X133256559Y-22265000D01*
X133133441Y-22265000D01*
X133012699Y-22289017D01*
X133012689Y-22289020D01*
X132898958Y-22336128D01*
X132898945Y-22336135D01*
X132796586Y-22404530D01*
X132796582Y-22404533D01*
X132709533Y-22491582D01*
X132709530Y-22491586D01*
X132641135Y-22593945D01*
X132641128Y-22593958D01*
X132594020Y-22707689D01*
X132594017Y-22707699D01*
X132570000Y-22828440D01*
X132570000Y-22951559D01*
X132569999Y-22951559D01*
X132594017Y-23072300D01*
X132594020Y-23072310D01*
X132641128Y-23186041D01*
X132641135Y-23186054D01*
X132704816Y-23281358D01*
X132711434Y-23290000D01*
X132771000Y-23290000D01*
X132838039Y-23309685D01*
X132883794Y-23362489D01*
X132895000Y-23414000D01*
X132895000Y-24020000D01*
X132495000Y-24020000D01*
X132495000Y-23420000D01*
X132056353Y-23420000D01*
X131882487Y-23454584D01*
X131882479Y-23454586D01*
X131718692Y-23522428D01*
X131718683Y-23522433D01*
X131571283Y-23620923D01*
X131571279Y-23620926D01*
X131445926Y-23746279D01*
X131445923Y-23746283D01*
X131347433Y-23893683D01*
X131347428Y-23893692D01*
X131279586Y-24057479D01*
X131279584Y-24057487D01*
X131267150Y-24120000D01*
X118098893Y-24120000D01*
X117909509Y-23930616D01*
X117876024Y-23869293D01*
X117881008Y-23799601D01*
X117889798Y-23780944D01*
X117965177Y-23650384D01*
X118006100Y-23497657D01*
X118006100Y-23339543D01*
X117965177Y-23186816D01*
X117953548Y-23166673D01*
X117886124Y-23049890D01*
X117886118Y-23049882D01*
X117774317Y-22938081D01*
X117774309Y-22938075D01*
X117637390Y-22859026D01*
X117637386Y-22859024D01*
X117637384Y-22859023D01*
X117484657Y-22818100D01*
X117326543Y-22818100D01*
X117173816Y-22859023D01*
X117173809Y-22859026D01*
X117036890Y-22938075D01*
X117036882Y-22938081D01*
X116925081Y-23049882D01*
X116925075Y-23049890D01*
X116846026Y-23186809D01*
X116846023Y-23186816D01*
X116805100Y-23339543D01*
X110333336Y-23339543D01*
X108752236Y-21758443D01*
X124456100Y-21758443D01*
X124456100Y-21916557D01*
X124492595Y-22052756D01*
X124497023Y-22069283D01*
X124497026Y-22069290D01*
X124576075Y-22206209D01*
X124576079Y-22206214D01*
X124576080Y-22206216D01*
X124687884Y-22318020D01*
X124687886Y-22318021D01*
X124687890Y-22318024D01*
X124810994Y-22389097D01*
X124824816Y-22397077D01*
X124977543Y-22438000D01*
X124977545Y-22438000D01*
X125135655Y-22438000D01*
X125135657Y-22438000D01*
X125288384Y-22397077D01*
X125425316Y-22318020D01*
X125469017Y-22274319D01*
X125530340Y-22240834D01*
X125556698Y-22238000D01*
X127934925Y-22238000D01*
X127934927Y-22238000D01*
X128036788Y-22210707D01*
X128128113Y-22157980D01*
X129421674Y-20864419D01*
X129482997Y-20830934D01*
X129509355Y-20828100D01*
X129571155Y-20828100D01*
X129571157Y-20828100D01*
X129723884Y-20787177D01*
X129860816Y-20708120D01*
X129972620Y-20596316D01*
X130051677Y-20459384D01*
X130092600Y-20306657D01*
X130092600Y-20148543D01*
X130051677Y-19995816D01*
X130013967Y-19930500D01*
X129972624Y-19858890D01*
X129972618Y-19858882D01*
X129860817Y-19747081D01*
X129860809Y-19747075D01*
X129723890Y-19668026D01*
X129723886Y-19668024D01*
X129723884Y-19668023D01*
X129571157Y-19627100D01*
X129413043Y-19627100D01*
X129260316Y-19668023D01*
X129260309Y-19668026D01*
X129123390Y-19747075D01*
X129123382Y-19747081D01*
X129011581Y-19858882D01*
X129011575Y-19858890D01*
X128932526Y-19995809D01*
X128932523Y-19995816D01*
X128891600Y-20148543D01*
X128891600Y-20210345D01*
X128871915Y-20277384D01*
X128855281Y-20298026D01*
X127752626Y-21400681D01*
X127691303Y-21434166D01*
X127664945Y-21437000D01*
X125556698Y-21437000D01*
X125489659Y-21417315D01*
X125469017Y-21400681D01*
X125425317Y-21356981D01*
X125425309Y-21356975D01*
X125288390Y-21277926D01*
X125288386Y-21277924D01*
X125288384Y-21277923D01*
X125135657Y-21237000D01*
X124977543Y-21237000D01*
X124824816Y-21277923D01*
X124824809Y-21277926D01*
X124687890Y-21356975D01*
X124687882Y-21356981D01*
X124576081Y-21468782D01*
X124576075Y-21468790D01*
X124497026Y-21605709D01*
X124497023Y-21605716D01*
X124456100Y-21758443D01*
X108752236Y-21758443D01*
X102476513Y-15482720D01*
X102402417Y-15439940D01*
X102385189Y-15429993D01*
X102307220Y-15409102D01*
X102283327Y-15402700D01*
X102283326Y-15402700D01*
X102134054Y-15402700D01*
X102067015Y-15383015D01*
X102046373Y-15366381D01*
X97565715Y-10885722D01*
X97565714Y-10885721D01*
X97565713Y-10885720D01*
X97520050Y-10859356D01*
X97474389Y-10832993D01*
X97423457Y-10819346D01*
X97372527Y-10805700D01*
X97372526Y-10805700D01*
X77587098Y-10805700D01*
X77520059Y-10786015D01*
X77499417Y-10769381D01*
X77455717Y-10725681D01*
X77455709Y-10725675D01*
X77318790Y-10646626D01*
X77318786Y-10646624D01*
X77318784Y-10646623D01*
X77166057Y-10605700D01*
X77007943Y-10605700D01*
X76855216Y-10646623D01*
X76855209Y-10646626D01*
X76718290Y-10725675D01*
X76718282Y-10725681D01*
X76606481Y-10837482D01*
X76606475Y-10837490D01*
X76527426Y-10974409D01*
X76527423Y-10974416D01*
X76486500Y-11127143D01*
X76486500Y-11285257D01*
X76523654Y-11423916D01*
X76527423Y-11437983D01*
X76527426Y-11437990D01*
X76606475Y-11574909D01*
X76606479Y-11574914D01*
X76606480Y-11574916D01*
X76718284Y-11686720D01*
X76718286Y-11686721D01*
X76718290Y-11686724D01*
X76855209Y-11765773D01*
X76855216Y-11765777D01*
X77007943Y-11806700D01*
X77007945Y-11806700D01*
X77166055Y-11806700D01*
X77166057Y-11806700D01*
X77318784Y-11765777D01*
X77455716Y-11686720D01*
X77499417Y-11643019D01*
X77560740Y-11609534D01*
X77587098Y-11606700D01*
X97102545Y-11606700D01*
X97169584Y-11626385D01*
X97190226Y-11643019D01*
X101596318Y-16049110D01*
X101596320Y-16049113D01*
X101670887Y-16123680D01*
X101707122Y-16144600D01*
X101762212Y-16176407D01*
X101864073Y-16203701D01*
X101864076Y-16203701D01*
X101977123Y-16203701D01*
X101977139Y-16203700D01*
X102013345Y-16203700D01*
X102080384Y-16223385D01*
X102101026Y-16240019D01*
X119620537Y-33759530D01*
X119654022Y-33820853D01*
X119649038Y-33890545D01*
X119607166Y-33946478D01*
X119541702Y-33970895D01*
X119493340Y-33963059D01*
X119493135Y-33963827D01*
X119485577Y-33961801D01*
X119485411Y-33961775D01*
X119485290Y-33961725D01*
X119485285Y-33961723D01*
X119485284Y-33961723D01*
X119332557Y-33920800D01*
X119174443Y-33920800D01*
X119021716Y-33961723D01*
X119021709Y-33961726D01*
X118884790Y-34040775D01*
X118884782Y-34040781D01*
X118841083Y-34084481D01*
X118779760Y-34117966D01*
X118753402Y-34120800D01*
X112784954Y-34120800D01*
X112717915Y-34101115D01*
X112697273Y-34084481D01*
X109175919Y-30563126D01*
X109162557Y-30538655D01*
X109146394Y-30515927D01*
X109144728Y-30506005D01*
X109142434Y-30501803D01*
X109139737Y-30481267D01*
X109139600Y-30478352D01*
X109139600Y-30413643D01*
X109135911Y-30399878D01*
X109135284Y-30386522D01*
X109140509Y-30365040D01*
X109141036Y-30342942D01*
X109148606Y-30331757D01*
X109151799Y-30318632D01*
X109167808Y-30303385D01*
X109180199Y-30285080D01*
X109192614Y-30279763D01*
X109202397Y-30270448D01*
X109224108Y-30266277D01*
X109244428Y-30257577D01*
X109259147Y-30256700D01*
X112083202Y-30256700D01*
X112150241Y-30276385D01*
X112170883Y-30293019D01*
X112214584Y-30336720D01*
X112214586Y-30336721D01*
X112214590Y-30336724D01*
X112326441Y-30401300D01*
X112351516Y-30415777D01*
X112504243Y-30456700D01*
X112504245Y-30456700D01*
X112662355Y-30456700D01*
X112662357Y-30456700D01*
X112815084Y-30415777D01*
X112952016Y-30336720D01*
X113063820Y-30224916D01*
X113142877Y-30087984D01*
X113183800Y-29935257D01*
X113183800Y-29777143D01*
X113142877Y-29624416D01*
X113129349Y-29600984D01*
X113063824Y-29487490D01*
X113063818Y-29487482D01*
X112952017Y-29375681D01*
X112952009Y-29375675D01*
X112815090Y-29296626D01*
X112815086Y-29296624D01*
X112815084Y-29296623D01*
X112662357Y-29255700D01*
X112504243Y-29255700D01*
X112351516Y-29296623D01*
X112351509Y-29296626D01*
X112214590Y-29375675D01*
X112214582Y-29375681D01*
X112170883Y-29419381D01*
X112109560Y-29452866D01*
X112083202Y-29455700D01*
X107720754Y-29455700D01*
X107653715Y-29436015D01*
X107633073Y-29419381D01*
X103534119Y-25320426D01*
X103500634Y-25259103D01*
X103497800Y-25232745D01*
X103497800Y-25170945D01*
X103497800Y-25170943D01*
X103456877Y-25018216D01*
X103405425Y-24929097D01*
X103377824Y-24881290D01*
X103377818Y-24881282D01*
X103266017Y-24769481D01*
X103266009Y-24769475D01*
X103129090Y-24690426D01*
X103129086Y-24690424D01*
X103129084Y-24690423D01*
X102976357Y-24649500D01*
X102818243Y-24649500D01*
X102665516Y-24690423D01*
X102665509Y-24690426D01*
X102528590Y-24769475D01*
X102528582Y-24769481D01*
X102416781Y-24881282D01*
X102416775Y-24881290D01*
X102337726Y-25018209D01*
X102337723Y-25018214D01*
X102329452Y-25049083D01*
X102306645Y-25134203D01*
X102299627Y-25160394D01*
X102263262Y-25220054D01*
X102200415Y-25250583D01*
X102179852Y-25252300D01*
X96980725Y-25252300D01*
X96913686Y-25232615D01*
X96867931Y-25179811D01*
X96857987Y-25110653D01*
X96873337Y-25066302D01*
X96878427Y-25057482D01*
X96883277Y-25049084D01*
X96924200Y-24896357D01*
X96924200Y-24738243D01*
X96883277Y-24585516D01*
X96836333Y-24504205D01*
X96804224Y-24448590D01*
X96804218Y-24448582D01*
X96760519Y-24404883D01*
X96727034Y-24343560D01*
X96724200Y-24317202D01*
X96724200Y-23619073D01*
X96724199Y-23619070D01*
X96722820Y-23613922D01*
X96714565Y-23583113D01*
X96696907Y-23517212D01*
X96644180Y-23425887D01*
X93281113Y-20062820D01*
X93230278Y-20033470D01*
X93189789Y-20010093D01*
X93136478Y-19995809D01*
X93087927Y-19982800D01*
X93087926Y-19982800D01*
X83462048Y-19982800D01*
X83443330Y-19977303D01*
X83423827Y-19976763D01*
X83410493Y-19967661D01*
X83395009Y-19963115D01*
X83382235Y-19948373D01*
X83366119Y-19937373D01*
X83359822Y-19922507D01*
X83349254Y-19910311D01*
X83346477Y-19891002D01*
X83338868Y-19873037D01*
X83340568Y-19849903D01*
X83339310Y-19841153D01*
X83339847Y-19837756D01*
X83340807Y-19832176D01*
X83375700Y-19701957D01*
X83375700Y-19629557D01*
X83377499Y-19619111D01*
X83388407Y-19596876D01*
X83395385Y-19573116D01*
X83407352Y-19558264D01*
X83408275Y-19556385D01*
X83409429Y-19555687D01*
X83412019Y-19552474D01*
X86020450Y-16944043D01*
X87380600Y-16944043D01*
X87380600Y-17102157D01*
X87415200Y-17231284D01*
X87421523Y-17254883D01*
X87421526Y-17254890D01*
X87500575Y-17391809D01*
X87500579Y-17391814D01*
X87500580Y-17391816D01*
X87612384Y-17503620D01*
X87612386Y-17503621D01*
X87612390Y-17503624D01*
X87673451Y-17538877D01*
X87749316Y-17582677D01*
X87902043Y-17623600D01*
X87902045Y-17623600D01*
X88060155Y-17623600D01*
X88060157Y-17623600D01*
X88212884Y-17582677D01*
X88349816Y-17503620D01*
X88393517Y-17459919D01*
X88454840Y-17426434D01*
X88481198Y-17423600D01*
X98855745Y-17423600D01*
X98922784Y-17443285D01*
X98943426Y-17459919D01*
X105239781Y-23756274D01*
X105273266Y-23817597D01*
X105276100Y-23843955D01*
X105276100Y-23905757D01*
X105313632Y-24045826D01*
X105317023Y-24058483D01*
X105317026Y-24058490D01*
X105396075Y-24195409D01*
X105396079Y-24195414D01*
X105396080Y-24195416D01*
X105507884Y-24307220D01*
X105507886Y-24307221D01*
X105507890Y-24307224D01*
X105644809Y-24386273D01*
X105644816Y-24386277D01*
X105797543Y-24427200D01*
X105797545Y-24427200D01*
X105955655Y-24427200D01*
X105955657Y-24427200D01*
X106108384Y-24386277D01*
X106245316Y-24307220D01*
X106357120Y-24195416D01*
X106436177Y-24058484D01*
X106477100Y-23905757D01*
X106477100Y-23747643D01*
X106436177Y-23594916D01*
X106411973Y-23552993D01*
X106357124Y-23457990D01*
X106357118Y-23457982D01*
X106245317Y-23346181D01*
X106245309Y-23346175D01*
X106108390Y-23267126D01*
X106108386Y-23267124D01*
X106108384Y-23267123D01*
X105955657Y-23226200D01*
X105955656Y-23226200D01*
X105893855Y-23226200D01*
X105826816Y-23206515D01*
X105806174Y-23189881D01*
X99318915Y-16702622D01*
X99318913Y-16702620D01*
X99258604Y-16667800D01*
X99227589Y-16649893D01*
X99148866Y-16628800D01*
X99125727Y-16622600D01*
X99125726Y-16622600D01*
X88481198Y-16622600D01*
X88414159Y-16602915D01*
X88393517Y-16586281D01*
X88349817Y-16542581D01*
X88349809Y-16542575D01*
X88212890Y-16463526D01*
X88212886Y-16463524D01*
X88212884Y-16463523D01*
X88060157Y-16422600D01*
X87902043Y-16422600D01*
X87749316Y-16463523D01*
X87749309Y-16463526D01*
X87612390Y-16542575D01*
X87612382Y-16542581D01*
X87500581Y-16654382D01*
X87500575Y-16654390D01*
X87421526Y-16791309D01*
X87421523Y-16791316D01*
X87380600Y-16944043D01*
X86020450Y-16944043D01*
X86116258Y-16848235D01*
X86465716Y-16498777D01*
X86822680Y-16141813D01*
X86875407Y-16050488D01*
X86902700Y-15948627D01*
X86902700Y-15843173D01*
X86902700Y-14405098D01*
X86922385Y-14338059D01*
X86939019Y-14317417D01*
X86960482Y-14295954D01*
X86982720Y-14273716D01*
X87061777Y-14136784D01*
X87102700Y-13984057D01*
X87102700Y-13825943D01*
X87061777Y-13673216D01*
X87061773Y-13673209D01*
X86982724Y-13536290D01*
X86982718Y-13536282D01*
X86870917Y-13424481D01*
X86870909Y-13424475D01*
X86733990Y-13345426D01*
X86733986Y-13345424D01*
X86733984Y-13345423D01*
X86581257Y-13304500D01*
X86423143Y-13304500D01*
X86270416Y-13345423D01*
X86270409Y-13345426D01*
X86133490Y-13424475D01*
X86133482Y-13424481D01*
X86021681Y-13536282D01*
X86021675Y-13536290D01*
X85942626Y-13673209D01*
X85942623Y-13673216D01*
X85901700Y-13825943D01*
X85901700Y-13984056D01*
X85942623Y-14136783D01*
X85942626Y-14136790D01*
X86021675Y-14273709D01*
X86021681Y-14273717D01*
X86065381Y-14317417D01*
X86080084Y-14344344D01*
X86096677Y-14370163D01*
X86097568Y-14376363D01*
X86098866Y-14378740D01*
X86101700Y-14405098D01*
X86101700Y-14622090D01*
X86082015Y-14689129D01*
X86029211Y-14734884D01*
X85961515Y-14745029D01*
X85954458Y-14744100D01*
X85954457Y-14744100D01*
X85796343Y-14744100D01*
X85643616Y-14785023D01*
X85643609Y-14785026D01*
X85506690Y-14864075D01*
X85506682Y-14864081D01*
X85394881Y-14975882D01*
X85394875Y-14975890D01*
X85315826Y-15112809D01*
X85315823Y-15112816D01*
X85274900Y-15265543D01*
X85274900Y-15423657D01*
X85312560Y-15564204D01*
X85315823Y-15576383D01*
X85315823Y-15576384D01*
X85378788Y-15685444D01*
X85395260Y-15753344D01*
X85372407Y-15819371D01*
X85359081Y-15835124D01*
X85137746Y-16056459D01*
X85076423Y-16089944D01*
X85006731Y-16084960D01*
X84957807Y-16048790D01*
X84957067Y-16049531D01*
X84952129Y-16044593D01*
X84951696Y-16044273D01*
X84951323Y-16043787D01*
X84839517Y-15931981D01*
X84839509Y-15931975D01*
X84702590Y-15852926D01*
X84702586Y-15852924D01*
X84702584Y-15852923D01*
X84549857Y-15812000D01*
X84549856Y-15812000D01*
X84461999Y-15812000D01*
X84399998Y-15795387D01*
X84356189Y-15770093D01*
X84304789Y-15756321D01*
X84254327Y-15742800D01*
X71978427Y-15742800D01*
X71872973Y-15742800D01*
X71771110Y-15770093D01*
X71679787Y-15822820D01*
X71679784Y-15822822D01*
X60314526Y-27188081D01*
X60253203Y-27221566D01*
X60226845Y-27224400D01*
X60165043Y-27224400D01*
X60012316Y-27265323D01*
X60012309Y-27265326D01*
X59875390Y-27344375D01*
X59875382Y-27344381D01*
X59763581Y-27456182D01*
X59763575Y-27456190D01*
X59684526Y-27593109D01*
X59684523Y-27593116D01*
X59643600Y-27745843D01*
X59643600Y-27903957D01*
X59674475Y-28019183D01*
X59685371Y-28059848D01*
X59683708Y-28129698D01*
X59644545Y-28187560D01*
X59580317Y-28215064D01*
X59511415Y-28203477D01*
X59477915Y-28179622D01*
X59120615Y-27822322D01*
X59120614Y-27822321D01*
X59120613Y-27822320D01*
X59041868Y-27776856D01*
X59029289Y-27769593D01*
X58972862Y-27754474D01*
X58927427Y-27742300D01*
X58927426Y-27742300D01*
X58035447Y-27742300D01*
X57968408Y-27722615D01*
X57922653Y-27669811D01*
X57912709Y-27600653D01*
X57941734Y-27537097D01*
X57979152Y-27507815D01*
X58055143Y-27469095D01*
X58131079Y-27413922D01*
X58131080Y-27413922D01*
X57585177Y-26868019D01*
X57592993Y-26865925D01*
X57707007Y-26800099D01*
X57800099Y-26707007D01*
X57865925Y-26592993D01*
X57868019Y-26585177D01*
X58413921Y-27131080D01*
X58413922Y-27131079D01*
X58469095Y-27055143D01*
X58558418Y-26879835D01*
X58619221Y-26692705D01*
X58650000Y-26498382D01*
X58650000Y-26301617D01*
X58619221Y-26107294D01*
X58558418Y-25920164D01*
X58469095Y-25744856D01*
X58413922Y-25668919D01*
X58413922Y-25668918D01*
X57868018Y-26214821D01*
X57865925Y-26207007D01*
X57800099Y-26092993D01*
X57707007Y-25999901D01*
X57592993Y-25934075D01*
X57585177Y-25931980D01*
X58131080Y-25386077D01*
X58131079Y-25386076D01*
X58055141Y-25330902D01*
X57877685Y-25240485D01*
X57826888Y-25192511D01*
X57810093Y-25124690D01*
X57832630Y-25058555D01*
X57877685Y-25019515D01*
X58055140Y-24929097D01*
X58055141Y-24929097D01*
X58131079Y-24873922D01*
X58131080Y-24873921D01*
X57585178Y-24328019D01*
X57592993Y-24325925D01*
X57707007Y-24260099D01*
X57800099Y-24167007D01*
X57865925Y-24052993D01*
X57868019Y-24045177D01*
X58413921Y-24591080D01*
X58413922Y-24591079D01*
X58469095Y-24515143D01*
X58558418Y-24339835D01*
X58619221Y-24152705D01*
X58650000Y-23958382D01*
X58650000Y-23761617D01*
X58619221Y-23567294D01*
X58558418Y-23380164D01*
X58469095Y-23204856D01*
X58413922Y-23128919D01*
X58413922Y-23128918D01*
X57868018Y-23674821D01*
X57865925Y-23667007D01*
X57800099Y-23552993D01*
X57707007Y-23459901D01*
X57592993Y-23394075D01*
X57585177Y-23391980D01*
X58131080Y-22846077D01*
X58131079Y-22846076D01*
X58055141Y-22790902D01*
X57877685Y-22700485D01*
X57826888Y-22652511D01*
X57810093Y-22584690D01*
X57832630Y-22518555D01*
X57877685Y-22479515D01*
X58055140Y-22389097D01*
X58055141Y-22389097D01*
X58131079Y-22333922D01*
X58131080Y-22333921D01*
X57585178Y-21788019D01*
X57592993Y-21785925D01*
X57707007Y-21720099D01*
X57800099Y-21627007D01*
X57865925Y-21512993D01*
X57868019Y-21505177D01*
X58413921Y-22051080D01*
X58413922Y-22051079D01*
X58469095Y-21975143D01*
X58558418Y-21799835D01*
X58619221Y-21612705D01*
X58650000Y-21418382D01*
X58650000Y-21221617D01*
X58619221Y-21027294D01*
X58558418Y-20840164D01*
X58469095Y-20664856D01*
X58413922Y-20588919D01*
X58413922Y-20588918D01*
X57868018Y-21134821D01*
X57865925Y-21127007D01*
X57800099Y-21012993D01*
X57707007Y-20919901D01*
X57592993Y-20854075D01*
X57585177Y-20851980D01*
X58131080Y-20306077D01*
X58131079Y-20306076D01*
X58055143Y-20250904D01*
X57879837Y-20161582D01*
X57738386Y-20115621D01*
X57680711Y-20076183D01*
X57653513Y-20011824D01*
X57665428Y-19942978D01*
X57712672Y-19891502D01*
X57738388Y-19879759D01*
X57841633Y-19846213D01*
X57841639Y-19846211D01*
X57851566Y-19841153D01*
X58002994Y-19763996D01*
X58149501Y-19657553D01*
X58277553Y-19529501D01*
X58383996Y-19382994D01*
X58466211Y-19221639D01*
X58522171Y-19049409D01*
X58540516Y-18933582D01*
X58550500Y-18870551D01*
X58550500Y-18689448D01*
X58528129Y-18548209D01*
X58522171Y-18510591D01*
X58479510Y-18379292D01*
X58466212Y-18338363D01*
X58466211Y-18338360D01*
X58407146Y-18222441D01*
X58383996Y-18177006D01*
X58339674Y-18116002D01*
X58277558Y-18030505D01*
X58277554Y-18030500D01*
X58149499Y-17902445D01*
X58149494Y-17902441D01*
X58002997Y-17796006D01*
X58002996Y-17796005D01*
X58002994Y-17796004D01*
X57868205Y-17727325D01*
X57857140Y-17716875D01*
X57843297Y-17710553D01*
X57832255Y-17693372D01*
X57817409Y-17679350D01*
X57813167Y-17663670D01*
X57805523Y-17651775D01*
X57800500Y-17616840D01*
X57800500Y-17403159D01*
X57820185Y-17336120D01*
X57868202Y-17292675D01*
X58002994Y-17223996D01*
X58149501Y-17117553D01*
X58277553Y-16989501D01*
X58383996Y-16842994D01*
X58466211Y-16681639D01*
X58522171Y-16509409D01*
X58542814Y-16379073D01*
X58550500Y-16330551D01*
X58550500Y-16149448D01*
X58525580Y-15992115D01*
X58522171Y-15970591D01*
X58478156Y-15835124D01*
X58466212Y-15798363D01*
X58466211Y-15798360D01*
X58422878Y-15713316D01*
X58383996Y-15637006D01*
X58331103Y-15564204D01*
X58277558Y-15490505D01*
X58277554Y-15490500D01*
X58149499Y-15362445D01*
X58149494Y-15362441D01*
X58002997Y-15256006D01*
X58002996Y-15256005D01*
X58002994Y-15256004D01*
X57868205Y-15187325D01*
X57857140Y-15176875D01*
X57843297Y-15170553D01*
X57832255Y-15153372D01*
X57817409Y-15139350D01*
X57813167Y-15123670D01*
X57805523Y-15111775D01*
X57800500Y-15076840D01*
X57800500Y-14974499D01*
X57820185Y-14907460D01*
X57872989Y-14861705D01*
X57924500Y-14850499D01*
X58294856Y-14850499D01*
X58294864Y-14850499D01*
X58294879Y-14850497D01*
X58294882Y-14850497D01*
X58319987Y-14847586D01*
X58319988Y-14847585D01*
X58319991Y-14847585D01*
X58422765Y-14802206D01*
X58502206Y-14722765D01*
X58547585Y-14619991D01*
X58550500Y-14594865D01*
X58550499Y-12805136D01*
X58550497Y-12805117D01*
X58547586Y-12780012D01*
X58547585Y-12780010D01*
X58547585Y-12780009D01*
X58502206Y-12677235D01*
X58422765Y-12597794D01*
X58422763Y-12597793D01*
X58319992Y-12552415D01*
X58294865Y-12549500D01*
X56505143Y-12549500D01*
X56505117Y-12549502D01*
X56480012Y-12552413D01*
X56480008Y-12552415D01*
X56377235Y-12597793D01*
X56297794Y-12677234D01*
X56252415Y-12780006D01*
X56252415Y-12780008D01*
X56249500Y-12805131D01*
X56249500Y-14594856D01*
X56249502Y-14594882D01*
X56252413Y-14619987D01*
X56252415Y-14619991D01*
X56297793Y-14722764D01*
X56297794Y-14722765D01*
X56377235Y-14802206D01*
X56480009Y-14847585D01*
X56505135Y-14850500D01*
X56875500Y-14850499D01*
X56884186Y-14853049D01*
X56893147Y-14851761D01*
X56917183Y-14862738D01*
X56942539Y-14870183D01*
X56948467Y-14877025D01*
X56956703Y-14880786D01*
X56970989Y-14903017D01*
X56988294Y-14922987D01*
X56990581Y-14933502D01*
X56994477Y-14939564D01*
X56999500Y-14974499D01*
X56999500Y-15076840D01*
X56979815Y-15143879D01*
X56931795Y-15187325D01*
X56797002Y-15256006D01*
X56650505Y-15362441D01*
X56650500Y-15362445D01*
X56522445Y-15490500D01*
X56522441Y-15490505D01*
X56416006Y-15637002D01*
X56333788Y-15798360D01*
X56333787Y-15798363D01*
X56277829Y-15970589D01*
X56249500Y-16149448D01*
X56249500Y-16330551D01*
X56277829Y-16509410D01*
X56333787Y-16681636D01*
X56333788Y-16681639D01*
X56374585Y-16761705D01*
X56401209Y-16813958D01*
X56416006Y-16842997D01*
X56522441Y-16989494D01*
X56522445Y-16989499D01*
X56650500Y-17117554D01*
X56650505Y-17117558D01*
X56797001Y-17223993D01*
X56797003Y-17223994D01*
X56797006Y-17223996D01*
X56931796Y-17292675D01*
X56942859Y-17303123D01*
X56956703Y-17309446D01*
X56967743Y-17326625D01*
X56982591Y-17340648D01*
X56986832Y-17356329D01*
X56994477Y-17368224D01*
X56999500Y-17403159D01*
X56999500Y-17616840D01*
X56979815Y-17683879D01*
X56931795Y-17727325D01*
X56797002Y-17796006D01*
X56650505Y-17902441D01*
X56650500Y-17902445D01*
X56522445Y-18030500D01*
X56522441Y-18030505D01*
X56416006Y-18177002D01*
X56333788Y-18338360D01*
X56333787Y-18338363D01*
X56277829Y-18510589D01*
X56249500Y-18689448D01*
X56249500Y-18870551D01*
X56277829Y-19049410D01*
X56333787Y-19221636D01*
X56333788Y-19221639D01*
X56389664Y-19331300D01*
X56415169Y-19381356D01*
X56416006Y-19382997D01*
X56522441Y-19529494D01*
X56522445Y-19529499D01*
X56650500Y-19657554D01*
X56650505Y-19657558D01*
X56729179Y-19714717D01*
X56797006Y-19763996D01*
X56869544Y-19800956D01*
X56958360Y-19846211D01*
X56958366Y-19846213D01*
X57061611Y-19879759D01*
X57119287Y-19919196D01*
X57146486Y-19983554D01*
X57134572Y-20052401D01*
X57087328Y-20103877D01*
X57061613Y-20115621D01*
X56920162Y-20161581D01*
X56744855Y-20250905D01*
X56744846Y-20250911D01*
X56668919Y-20306075D01*
X56668918Y-20306076D01*
X57214823Y-20851980D01*
X57207007Y-20854075D01*
X57092993Y-20919901D01*
X56999901Y-21012993D01*
X56934075Y-21127007D01*
X56931980Y-21134822D01*
X56386076Y-20588918D01*
X56386075Y-20588919D01*
X56330911Y-20664846D01*
X56330905Y-20664855D01*
X56241581Y-20840164D01*
X56180778Y-21027294D01*
X56150000Y-21221617D01*
X56150000Y-21418382D01*
X56180778Y-21612705D01*
X56241581Y-21799835D01*
X56330904Y-21975143D01*
X56386076Y-22051079D01*
X56386077Y-22051080D01*
X56931980Y-21505176D01*
X56934075Y-21512993D01*
X56999901Y-21627007D01*
X57092993Y-21720099D01*
X57207007Y-21785925D01*
X57214822Y-21788019D01*
X56668918Y-22333922D01*
X56744856Y-22389095D01*
X56922315Y-22479515D01*
X56973111Y-22527489D01*
X56989906Y-22595310D01*
X56967369Y-22661445D01*
X56922315Y-22700485D01*
X56744855Y-22790905D01*
X56744846Y-22790911D01*
X56668919Y-22846075D01*
X56668918Y-22846076D01*
X57214823Y-23391980D01*
X57207007Y-23394075D01*
X57092993Y-23459901D01*
X56999901Y-23552993D01*
X56934075Y-23667007D01*
X56931980Y-23674822D01*
X56386076Y-23128918D01*
X56386075Y-23128919D01*
X56330911Y-23204846D01*
X56330905Y-23204855D01*
X56241581Y-23380164D01*
X56180778Y-23567294D01*
X56150000Y-23761617D01*
X56150000Y-23958382D01*
X56180778Y-24152705D01*
X56241581Y-24339835D01*
X56330904Y-24515143D01*
X56386076Y-24591079D01*
X56386077Y-24591080D01*
X56931980Y-24045176D01*
X56934075Y-24052993D01*
X56999901Y-24167007D01*
X57092993Y-24260099D01*
X57207007Y-24325925D01*
X57214822Y-24328019D01*
X56668918Y-24873922D01*
X56744856Y-24929095D01*
X56922315Y-25019515D01*
X56973111Y-25067489D01*
X56989906Y-25135310D01*
X56967369Y-25201445D01*
X56922315Y-25240485D01*
X56744855Y-25330905D01*
X56744846Y-25330911D01*
X56668919Y-25386075D01*
X56668918Y-25386076D01*
X57214823Y-25931980D01*
X57207007Y-25934075D01*
X57092993Y-25999901D01*
X56999901Y-26092993D01*
X56934075Y-26207007D01*
X56931980Y-26214822D01*
X56386076Y-25668918D01*
X56386075Y-25668919D01*
X56330911Y-25744846D01*
X56330905Y-25744855D01*
X56241581Y-25920162D01*
X56195856Y-26060889D01*
X56156418Y-26118564D01*
X56092059Y-26145762D01*
X56023213Y-26133847D01*
X55990244Y-26110251D01*
X44350319Y-14470326D01*
X44316834Y-14409003D01*
X44314000Y-14382645D01*
X44314000Y-10976143D01*
X59384200Y-10976143D01*
X59384200Y-11134257D01*
X59424661Y-11285257D01*
X59425123Y-11286983D01*
X59425126Y-11286990D01*
X59504175Y-11423909D01*
X59504179Y-11423914D01*
X59504180Y-11423916D01*
X59615984Y-11535720D01*
X59615986Y-11535721D01*
X59615990Y-11535724D01*
X59738926Y-11606700D01*
X59752916Y-11614777D01*
X59905643Y-11655700D01*
X59905645Y-11655700D01*
X60063755Y-11655700D01*
X60063757Y-11655700D01*
X60216484Y-11614777D01*
X60353416Y-11535720D01*
X60465220Y-11423916D01*
X60544277Y-11286984D01*
X60585200Y-11134257D01*
X60585200Y-10976143D01*
X60544277Y-10823416D01*
X60506272Y-10757589D01*
X60465224Y-10686490D01*
X60465218Y-10686482D01*
X60421519Y-10642783D01*
X60388034Y-10581460D01*
X60385200Y-10555102D01*
X60385200Y-6178155D01*
X60404885Y-6111116D01*
X60421519Y-6090474D01*
X60889037Y-5622956D01*
X61356681Y-5155311D01*
X61418002Y-5121828D01*
X61487693Y-5126812D01*
X61543627Y-5168684D01*
X61566833Y-5223596D01*
X61585215Y-5339660D01*
X61655770Y-5556803D01*
X61736371Y-5714990D01*
X61759421Y-5760228D01*
X61893621Y-5944937D01*
X62055063Y-6106379D01*
X62239772Y-6240579D01*
X62335884Y-6289550D01*
X62443196Y-6344229D01*
X62443198Y-6344229D01*
X62443201Y-6344231D01*
X62559592Y-6382049D01*
X62660339Y-6414784D01*
X62885838Y-6450500D01*
X62885843Y-6450500D01*
X63114162Y-6450500D01*
X63339660Y-6414784D01*
X63353482Y-6410293D01*
X63556799Y-6344231D01*
X63622959Y-6310520D01*
X63691625Y-6297625D01*
X63756365Y-6323901D01*
X63766932Y-6333325D01*
X68809287Y-11375680D01*
X68900612Y-11428407D01*
X69002473Y-11455700D01*
X70433002Y-11455700D01*
X70500041Y-11475385D01*
X70520683Y-11492019D01*
X70564384Y-11535720D01*
X70564386Y-11535721D01*
X70564390Y-11535724D01*
X70687326Y-11606700D01*
X70701316Y-11614777D01*
X70854043Y-11655700D01*
X70854045Y-11655700D01*
X71012155Y-11655700D01*
X71012157Y-11655700D01*
X71164884Y-11614777D01*
X71301816Y-11535720D01*
X71413620Y-11423916D01*
X71492677Y-11286984D01*
X71533600Y-11134257D01*
X71533600Y-10976143D01*
X71492677Y-10823416D01*
X71454672Y-10757589D01*
X71413624Y-10686490D01*
X71413618Y-10686482D01*
X71301817Y-10574681D01*
X71301809Y-10574675D01*
X71164890Y-10495626D01*
X71164886Y-10495624D01*
X71164884Y-10495623D01*
X71012157Y-10454700D01*
X70854043Y-10454700D01*
X70701316Y-10495623D01*
X70701309Y-10495626D01*
X70564390Y-10574675D01*
X70564382Y-10574681D01*
X70520683Y-10618381D01*
X70459360Y-10651866D01*
X70433002Y-10654700D01*
X69272455Y-10654700D01*
X69205416Y-10635015D01*
X69184774Y-10618381D01*
X64333325Y-5766932D01*
X64299840Y-5705609D01*
X64304824Y-5635917D01*
X64310514Y-5622970D01*
X64344231Y-5556799D01*
X64414784Y-5339660D01*
X64423783Y-5282842D01*
X64450500Y-5114162D01*
X64450500Y-4885837D01*
X64414784Y-4660339D01*
X64344229Y-4443196D01*
X64240578Y-4239771D01*
X64197002Y-4179794D01*
X64171929Y-4145285D01*
X64148450Y-4079480D01*
X64164275Y-4011426D01*
X64214381Y-3962731D01*
X64272248Y-3948400D01*
X65227752Y-3948400D01*
X65294791Y-3968085D01*
X65340546Y-4020889D01*
X65350490Y-4090047D01*
X65328070Y-4145284D01*
X65311677Y-4167848D01*
X65259421Y-4239771D01*
X65155770Y-4443196D01*
X65085215Y-4660339D01*
X65049500Y-4885837D01*
X65049500Y-5114162D01*
X65085215Y-5339660D01*
X65155770Y-5556803D01*
X65236371Y-5714990D01*
X65259421Y-5760228D01*
X65393621Y-5944937D01*
X65555063Y-6106379D01*
X65739772Y-6240579D01*
X65835884Y-6289550D01*
X65943196Y-6344229D01*
X65943198Y-6344229D01*
X65943201Y-6344231D01*
X66059592Y-6382049D01*
X66160339Y-6414784D01*
X66385838Y-6450500D01*
X66385843Y-6450500D01*
X66614162Y-6450500D01*
X66839660Y-6414784D01*
X66853482Y-6410293D01*
X67056799Y-6344231D01*
X67260228Y-6240579D01*
X67444937Y-6106379D01*
X67606379Y-5944937D01*
X67740579Y-5760228D01*
X67844231Y-5556799D01*
X67914784Y-5339660D01*
X67923783Y-5282842D01*
X67950500Y-5114162D01*
X67950500Y-4885837D01*
X67914784Y-4660339D01*
X67844229Y-4443196D01*
X67740578Y-4239771D01*
X67697002Y-4179794D01*
X67671929Y-4145285D01*
X67648450Y-4079480D01*
X67664275Y-4011426D01*
X67714381Y-3962731D01*
X67772248Y-3948400D01*
X68330645Y-3948400D01*
X68360085Y-3957044D01*
X68390072Y-3963568D01*
X68395087Y-3967322D01*
X68397684Y-3968085D01*
X68418326Y-3984719D01*
X68540132Y-4106525D01*
X68573617Y-4167848D01*
X68572786Y-4224130D01*
X68552401Y-4306103D01*
X68552401Y-4306105D01*
X68552400Y-4306111D01*
X68552400Y-4306113D01*
X68549500Y-4348879D01*
X68549500Y-5651122D01*
X68549501Y-5651125D01*
X68552399Y-5693886D01*
X68552399Y-5693887D01*
X68598360Y-5878696D01*
X68682967Y-6049292D01*
X68682969Y-6049295D01*
X68802277Y-6197721D01*
X68802278Y-6197722D01*
X68950704Y-6317030D01*
X68950707Y-6317032D01*
X69121302Y-6401639D01*
X69121303Y-6401639D01*
X69121307Y-6401641D01*
X69306111Y-6447600D01*
X69348877Y-6450500D01*
X70651122Y-6450499D01*
X70693889Y-6447600D01*
X70878693Y-6401641D01*
X71049296Y-6317030D01*
X71197722Y-6197722D01*
X71317030Y-6049296D01*
X71401641Y-5878693D01*
X71447600Y-5693889D01*
X71450500Y-5651123D01*
X71450499Y-4878006D01*
X79950000Y-4878006D01*
X79950000Y-5121993D01*
X79988165Y-5362959D01*
X80063560Y-5594998D01*
X80174323Y-5812380D01*
X80271298Y-5945856D01*
X80271299Y-5945856D01*
X80957241Y-5259914D01*
X81019881Y-5368408D01*
X81131592Y-5480119D01*
X81240084Y-5542757D01*
X80554141Y-6228699D01*
X80554142Y-6228700D01*
X80687619Y-6325676D01*
X80905001Y-6436439D01*
X81137040Y-6511834D01*
X81378007Y-6550000D01*
X81621993Y-6550000D01*
X81862959Y-6511834D01*
X82094998Y-6436439D01*
X82312377Y-6325678D01*
X82445856Y-6228699D01*
X82445857Y-6228698D01*
X81759916Y-5542757D01*
X81868408Y-5480119D01*
X81980119Y-5368408D01*
X82042757Y-5259915D01*
X82728698Y-5945857D01*
X82728699Y-5945856D01*
X82825678Y-5812377D01*
X82936439Y-5594998D01*
X83011834Y-5362959D01*
X83050000Y-5121993D01*
X83050000Y-4885837D01*
X83549500Y-4885837D01*
X83549500Y-5114162D01*
X83585215Y-5339660D01*
X83655770Y-5556803D01*
X83736371Y-5714990D01*
X83759421Y-5760228D01*
X83893621Y-5944937D01*
X84055063Y-6106379D01*
X84239772Y-6240579D01*
X84335884Y-6289550D01*
X84443196Y-6344229D01*
X84443198Y-6344229D01*
X84443201Y-6344231D01*
X84559592Y-6382049D01*
X84660339Y-6414784D01*
X84885838Y-6450500D01*
X84885843Y-6450500D01*
X85114162Y-6450500D01*
X85339660Y-6414784D01*
X85353482Y-6410293D01*
X85556799Y-6344231D01*
X85760228Y-6240579D01*
X85944937Y-6106379D01*
X86106379Y-5944937D01*
X86240579Y-5760228D01*
X86344231Y-5556799D01*
X86414784Y-5339660D01*
X86423783Y-5282842D01*
X86450500Y-5114162D01*
X86450500Y-4885837D01*
X86414784Y-4660339D01*
X86344229Y-4443196D01*
X86323785Y-4403073D01*
X86296172Y-4348879D01*
X87049500Y-4348879D01*
X87049500Y-5651122D01*
X87049501Y-5651125D01*
X87052399Y-5693886D01*
X87052399Y-5693887D01*
X87098360Y-5878696D01*
X87182967Y-6049292D01*
X87182969Y-6049295D01*
X87302277Y-6197721D01*
X87302278Y-6197722D01*
X87450704Y-6317030D01*
X87450707Y-6317032D01*
X87621302Y-6401639D01*
X87621303Y-6401639D01*
X87621307Y-6401641D01*
X87806111Y-6447600D01*
X87848877Y-6450500D01*
X89151122Y-6450499D01*
X89193889Y-6447600D01*
X89378693Y-6401641D01*
X89549296Y-6317030D01*
X89697722Y-6197722D01*
X89817030Y-6049296D01*
X89901641Y-5878693D01*
X89947600Y-5693889D01*
X89950500Y-5651123D01*
X89950499Y-4878006D01*
X98450000Y-4878006D01*
X98450000Y-5121993D01*
X98488165Y-5362959D01*
X98563560Y-5594998D01*
X98674323Y-5812380D01*
X98771298Y-5945856D01*
X98771299Y-5945856D01*
X99457241Y-5259914D01*
X99519881Y-5368408D01*
X99631592Y-5480119D01*
X99740084Y-5542757D01*
X99054141Y-6228699D01*
X99054142Y-6228700D01*
X99187619Y-6325676D01*
X99405001Y-6436439D01*
X99637040Y-6511834D01*
X99878007Y-6550000D01*
X100121993Y-6550000D01*
X100362959Y-6511834D01*
X100594998Y-6436439D01*
X100812377Y-6325678D01*
X100945856Y-6228699D01*
X100945857Y-6228698D01*
X100259916Y-5542757D01*
X100368408Y-5480119D01*
X100480119Y-5368408D01*
X100542757Y-5259915D01*
X101228698Y-5945857D01*
X101228699Y-5945856D01*
X101325678Y-5812377D01*
X101436439Y-5594998D01*
X101511834Y-5362959D01*
X101550000Y-5121993D01*
X101550000Y-4885837D01*
X102049500Y-4885837D01*
X102049500Y-5114162D01*
X102085215Y-5339660D01*
X102155770Y-5556803D01*
X102236371Y-5714990D01*
X102259421Y-5760228D01*
X102393621Y-5944937D01*
X102555063Y-6106379D01*
X102739772Y-6240579D01*
X102835884Y-6289550D01*
X102943196Y-6344229D01*
X102943198Y-6344229D01*
X102943201Y-6344231D01*
X103059592Y-6382049D01*
X103160339Y-6414784D01*
X103385838Y-6450500D01*
X103385843Y-6450500D01*
X103614162Y-6450500D01*
X103839660Y-6414784D01*
X103853482Y-6410293D01*
X104056799Y-6344231D01*
X104122959Y-6310520D01*
X104191625Y-6297625D01*
X104256365Y-6323901D01*
X104266932Y-6333325D01*
X105549281Y-7615674D01*
X105582766Y-7676997D01*
X105585600Y-7703355D01*
X105585600Y-15409102D01*
X105565915Y-15476141D01*
X105549281Y-15496783D01*
X105505581Y-15540482D01*
X105505575Y-15540490D01*
X105426526Y-15677409D01*
X105426523Y-15677416D01*
X105385600Y-15830143D01*
X105385600Y-15988257D01*
X105421887Y-16123680D01*
X105426523Y-16140983D01*
X105426526Y-16140990D01*
X105509643Y-16284955D01*
X105507894Y-16285964D01*
X105529171Y-16340989D01*
X105515137Y-16409434D01*
X105467602Y-16458701D01*
X105398187Y-16498777D01*
X105398182Y-16498781D01*
X105286381Y-16610582D01*
X105286375Y-16610590D01*
X105207326Y-16747509D01*
X105207323Y-16747516D01*
X105166400Y-16900243D01*
X105166400Y-17058357D01*
X105196733Y-17171559D01*
X105207323Y-17211083D01*
X105207326Y-17211090D01*
X105286375Y-17348009D01*
X105286379Y-17348014D01*
X105286380Y-17348016D01*
X105398184Y-17459820D01*
X105398186Y-17459821D01*
X105398190Y-17459824D01*
X105535109Y-17538873D01*
X105535116Y-17538877D01*
X105687843Y-17579800D01*
X105687845Y-17579800D01*
X105845955Y-17579800D01*
X105845957Y-17579800D01*
X105998684Y-17538877D01*
X106029747Y-17520943D01*
X130233700Y-17520943D01*
X130233700Y-17679057D01*
X130265037Y-17796006D01*
X130274623Y-17831783D01*
X130274626Y-17831790D01*
X130353675Y-17968709D01*
X130353681Y-17968717D01*
X130397381Y-18012417D01*
X130430866Y-18073740D01*
X130433700Y-18100098D01*
X130433700Y-21972735D01*
X130417088Y-22034734D01*
X130340023Y-22168215D01*
X130340023Y-22168216D01*
X130299100Y-22320943D01*
X130299100Y-22479057D01*
X130334432Y-22610916D01*
X130340023Y-22631783D01*
X130340026Y-22631790D01*
X130419075Y-22768709D01*
X130419079Y-22768714D01*
X130419080Y-22768716D01*
X130530884Y-22880520D01*
X130530886Y-22880521D01*
X130530890Y-22880524D01*
X130630583Y-22938081D01*
X130667816Y-22959577D01*
X130820543Y-23000500D01*
X130820545Y-23000500D01*
X130978655Y-23000500D01*
X130978657Y-23000500D01*
X131131384Y-22959577D01*
X131268316Y-22880520D01*
X131380120Y-22768716D01*
X131459177Y-22631784D01*
X131500100Y-22479057D01*
X131500100Y-22320943D01*
X131459177Y-22168216D01*
X131439466Y-22134075D01*
X131380124Y-22031290D01*
X131380121Y-22031286D01*
X131380120Y-22031284D01*
X131271018Y-21922182D01*
X131237534Y-21860859D01*
X131234700Y-21834501D01*
X131234700Y-18100098D01*
X131254385Y-18033059D01*
X131271019Y-18012417D01*
X131284086Y-17999350D01*
X131314720Y-17968716D01*
X131393777Y-17831784D01*
X131434700Y-17679057D01*
X131434700Y-17520943D01*
X131393777Y-17368216D01*
X131365696Y-17319577D01*
X131314724Y-17231290D01*
X131314718Y-17231282D01*
X131202917Y-17119481D01*
X131202909Y-17119475D01*
X131065990Y-17040426D01*
X131065986Y-17040424D01*
X131065984Y-17040423D01*
X130913257Y-16999500D01*
X130755143Y-16999500D01*
X130602416Y-17040423D01*
X130602409Y-17040426D01*
X130465490Y-17119475D01*
X130465482Y-17119481D01*
X130353681Y-17231282D01*
X130353675Y-17231290D01*
X130274626Y-17368209D01*
X130274623Y-17368216D01*
X130233700Y-17520943D01*
X106029747Y-17520943D01*
X106135616Y-17459820D01*
X106247420Y-17348016D01*
X106326477Y-17211084D01*
X106367400Y-17058357D01*
X106367400Y-16996553D01*
X106387085Y-16929514D01*
X106403715Y-16908876D01*
X107235703Y-16076887D01*
X107235708Y-16076884D01*
X107245911Y-16066680D01*
X107245913Y-16066680D01*
X107320480Y-15992113D01*
X107371250Y-15904177D01*
X107373207Y-15900788D01*
X107400501Y-15798927D01*
X107400501Y-15693473D01*
X107400501Y-15685878D01*
X107400500Y-15685860D01*
X107400500Y-15480000D01*
X131267150Y-15480000D01*
X131920735Y-15480000D01*
X131904940Y-15495795D01*
X131865444Y-15564204D01*
X131845000Y-15640504D01*
X131845000Y-15719496D01*
X131865444Y-15795796D01*
X131904940Y-15864205D01*
X131920735Y-15880000D01*
X131267150Y-15880000D01*
X131279584Y-15942512D01*
X131279586Y-15942520D01*
X131347428Y-16106307D01*
X131347433Y-16106316D01*
X131445923Y-16253716D01*
X131445926Y-16253720D01*
X131571279Y-16379073D01*
X131571283Y-16379076D01*
X131718683Y-16477566D01*
X131718692Y-16477571D01*
X131882479Y-16545413D01*
X131882487Y-16545415D01*
X132056353Y-16579999D01*
X132056357Y-16580000D01*
X132494999Y-16580000D01*
X132495000Y-16579999D01*
X132495000Y-15980000D01*
X132895000Y-15980000D01*
X132895000Y-16586000D01*
X132875315Y-16653039D01*
X132822511Y-16698794D01*
X132771000Y-16710000D01*
X132711433Y-16710000D01*
X132704811Y-16718646D01*
X132641138Y-16813940D01*
X132641128Y-16813958D01*
X132594020Y-16927689D01*
X132594017Y-16927699D01*
X132570000Y-17048440D01*
X132570000Y-17171559D01*
X132569999Y-17171559D01*
X132594017Y-17292300D01*
X132594020Y-17292310D01*
X132641128Y-17406041D01*
X132641135Y-17406054D01*
X132709530Y-17508413D01*
X132709533Y-17508417D01*
X132796582Y-17595466D01*
X132796586Y-17595469D01*
X132898945Y-17663864D01*
X132898958Y-17663871D01*
X133012689Y-17710979D01*
X133012699Y-17710982D01*
X133133440Y-17735000D01*
X133256559Y-17735000D01*
X133377300Y-17710982D01*
X133377310Y-17710979D01*
X133491041Y-17663871D01*
X133491054Y-17663864D01*
X133593413Y-17595469D01*
X133593417Y-17595466D01*
X133680466Y-17508417D01*
X133680469Y-17508413D01*
X133748864Y-17406054D01*
X133748871Y-17406041D01*
X133795979Y-17292310D01*
X133795982Y-17292300D01*
X133820000Y-17171559D01*
X133820000Y-17048440D01*
X133795982Y-16927699D01*
X133795979Y-16927689D01*
X133748871Y-16813958D01*
X133748864Y-16813945D01*
X133680469Y-16711586D01*
X133680466Y-16711582D01*
X133643002Y-16674118D01*
X133609517Y-16612795D01*
X133614501Y-16543103D01*
X133656373Y-16487170D01*
X133668363Y-16479539D01*
X133818716Y-16379076D01*
X133818720Y-16379073D01*
X133944073Y-16253720D01*
X133944076Y-16253716D01*
X134042566Y-16106316D01*
X134042571Y-16106307D01*
X134110413Y-15942520D01*
X134110415Y-15942512D01*
X134122850Y-15880000D01*
X133469265Y-15880000D01*
X133485060Y-15864205D01*
X133524556Y-15795796D01*
X133545000Y-15719496D01*
X133545000Y-15640504D01*
X133524556Y-15564204D01*
X133485060Y-15495795D01*
X133469265Y-15480000D01*
X134122850Y-15480000D01*
X135697150Y-15480000D01*
X136350735Y-15480000D01*
X136334940Y-15495795D01*
X136295444Y-15564204D01*
X136275000Y-15640504D01*
X136275000Y-15719496D01*
X136295444Y-15795796D01*
X136334940Y-15864205D01*
X136350735Y-15880000D01*
X135697150Y-15880000D01*
X135709584Y-15942512D01*
X135709586Y-15942520D01*
X135777428Y-16106307D01*
X135777433Y-16106316D01*
X135875923Y-16253716D01*
X135875926Y-16253720D01*
X136001279Y-16379073D01*
X136001283Y-16379076D01*
X136148683Y-16477566D01*
X136148692Y-16477571D01*
X136312479Y-16545413D01*
X136312487Y-16545415D01*
X136486353Y-16579999D01*
X136486357Y-16580000D01*
X136675000Y-16580000D01*
X136675000Y-15980000D01*
X137075000Y-15980000D01*
X137075000Y-16580000D01*
X137263643Y-16580000D01*
X137263646Y-16579999D01*
X137437512Y-16545415D01*
X137437520Y-16545413D01*
X137601307Y-16477571D01*
X137601316Y-16477566D01*
X137748716Y-16379076D01*
X137748720Y-16379073D01*
X137874073Y-16253720D01*
X137874076Y-16253716D01*
X137972566Y-16106316D01*
X137972571Y-16106307D01*
X138040413Y-15942520D01*
X138040415Y-15942512D01*
X138052850Y-15880000D01*
X137399265Y-15880000D01*
X137415060Y-15864205D01*
X137454556Y-15795796D01*
X137475000Y-15719496D01*
X137475000Y-15640504D01*
X137454556Y-15564204D01*
X137415060Y-15495795D01*
X137399265Y-15480000D01*
X138052850Y-15480000D01*
X138040415Y-15417487D01*
X138040413Y-15417479D01*
X137972571Y-15253692D01*
X137972566Y-15253683D01*
X137874076Y-15106283D01*
X137874073Y-15106279D01*
X137748720Y-14980926D01*
X137748716Y-14980923D01*
X137601316Y-14882433D01*
X137601307Y-14882428D01*
X137437520Y-14814586D01*
X137437512Y-14814584D01*
X137263646Y-14780000D01*
X137075000Y-14780000D01*
X137075000Y-15380000D01*
X136675000Y-15380000D01*
X136675000Y-14780000D01*
X136486353Y-14780000D01*
X136312487Y-14814584D01*
X136312479Y-14814586D01*
X136148692Y-14882428D01*
X136148683Y-14882433D01*
X136001283Y-14980923D01*
X136001279Y-14980926D01*
X135875926Y-15106279D01*
X135875923Y-15106283D01*
X135777433Y-15253683D01*
X135777428Y-15253692D01*
X135709586Y-15417479D01*
X135709584Y-15417487D01*
X135697150Y-15480000D01*
X134122850Y-15480000D01*
X134110415Y-15417487D01*
X134110413Y-15417479D01*
X134042571Y-15253692D01*
X134042566Y-15253683D01*
X133944076Y-15106283D01*
X133944073Y-15106279D01*
X133818720Y-14980926D01*
X133818716Y-14980923D01*
X133671316Y-14882433D01*
X133671307Y-14882428D01*
X133507520Y-14814586D01*
X133507512Y-14814584D01*
X133333646Y-14780000D01*
X132895000Y-14780000D01*
X132895000Y-15380000D01*
X132495000Y-15380000D01*
X132495000Y-14780000D01*
X132056353Y-14780000D01*
X131882487Y-14814584D01*
X131882479Y-14814586D01*
X131718692Y-14882428D01*
X131718683Y-14882433D01*
X131571283Y-14980923D01*
X131571279Y-14980926D01*
X131445926Y-15106279D01*
X131445923Y-15106283D01*
X131347433Y-15253683D01*
X131347428Y-15253692D01*
X131279586Y-15417479D01*
X131279584Y-15417487D01*
X131267150Y-15480000D01*
X107400500Y-15480000D01*
X107400500Y-6574499D01*
X107420185Y-6507460D01*
X107472989Y-6461705D01*
X107524500Y-6450499D01*
X107651123Y-6450499D01*
X107651123Y-6450498D01*
X107693889Y-6447600D01*
X107878693Y-6401641D01*
X108049296Y-6317030D01*
X108197722Y-6197722D01*
X108317030Y-6049296D01*
X108401641Y-5878693D01*
X108447600Y-5693889D01*
X108450500Y-5651123D01*
X108450499Y-4878711D01*
X133149500Y-4878711D01*
X133149500Y-5121288D01*
X133181161Y-5361785D01*
X133243947Y-5596104D01*
X133311930Y-5760228D01*
X133336776Y-5820212D01*
X133458064Y-6030289D01*
X133458066Y-6030292D01*
X133458067Y-6030293D01*
X133605733Y-6222736D01*
X133605739Y-6222743D01*
X133777256Y-6394260D01*
X133777263Y-6394266D01*
X133798150Y-6410293D01*
X133969711Y-6541936D01*
X134179788Y-6663224D01*
X134403900Y-6756054D01*
X134638211Y-6818838D01*
X134818586Y-6842584D01*
X134878711Y-6850500D01*
X134878712Y-6850500D01*
X135121289Y-6850500D01*
X135169388Y-6844167D01*
X135361789Y-6818838D01*
X135596100Y-6756054D01*
X135820212Y-6663224D01*
X136030289Y-6541936D01*
X136222738Y-6394265D01*
X136394265Y-6222738D01*
X136541936Y-6030289D01*
X136663224Y-5820212D01*
X136756054Y-5596100D01*
X136818838Y-5361789D01*
X136850500Y-5121288D01*
X136850500Y-4878712D01*
X136849757Y-4873072D01*
X136842584Y-4818586D01*
X136818838Y-4638211D01*
X136756054Y-4403900D01*
X136755711Y-4403073D01*
X136733263Y-4348877D01*
X136663224Y-4179788D01*
X136541936Y-3969711D01*
X136481018Y-3890321D01*
X136394266Y-3777263D01*
X136394260Y-3777256D01*
X136222743Y-3605739D01*
X136222736Y-3605733D01*
X136030293Y-3458067D01*
X136030292Y-3458066D01*
X136030289Y-3458064D01*
X135820212Y-3336776D01*
X135820205Y-3336773D01*
X135596104Y-3243947D01*
X135361785Y-3181161D01*
X135121289Y-3149500D01*
X135121288Y-3149500D01*
X134878712Y-3149500D01*
X134878711Y-3149500D01*
X134638214Y-3181161D01*
X134403895Y-3243947D01*
X134179794Y-3336773D01*
X134179785Y-3336777D01*
X133969706Y-3458067D01*
X133777263Y-3605733D01*
X133777256Y-3605739D01*
X133605739Y-3777256D01*
X133605733Y-3777263D01*
X133458067Y-3969706D01*
X133336777Y-4179785D01*
X133336773Y-4179794D01*
X133243947Y-4403895D01*
X133181161Y-4638214D01*
X133149500Y-4878711D01*
X108450499Y-4878711D01*
X108450499Y-4348878D01*
X108447600Y-4306111D01*
X108401641Y-4121307D01*
X108368786Y-4055061D01*
X108317032Y-3950707D01*
X108317030Y-3950704D01*
X108197722Y-3802278D01*
X108197721Y-3802277D01*
X108049295Y-3682969D01*
X108049292Y-3682967D01*
X107878697Y-3598360D01*
X107693892Y-3552400D01*
X107672506Y-3550950D01*
X107651123Y-3549500D01*
X107651120Y-3549500D01*
X106348877Y-3549500D01*
X106348874Y-3549501D01*
X106306113Y-3552399D01*
X106306112Y-3552399D01*
X106121303Y-3598360D01*
X105950707Y-3682967D01*
X105950704Y-3682969D01*
X105802278Y-3802277D01*
X105802277Y-3802278D01*
X105682969Y-3950704D01*
X105682967Y-3950707D01*
X105598360Y-4121302D01*
X105552400Y-4306107D01*
X105549500Y-4348879D01*
X105549500Y-5651122D01*
X105549501Y-5651125D01*
X105552399Y-5693886D01*
X105552399Y-5693887D01*
X105598360Y-5878696D01*
X105682967Y-6049292D01*
X105682969Y-6049295D01*
X105802277Y-6197721D01*
X105802278Y-6197722D01*
X105950704Y-6317030D01*
X105950707Y-6317032D01*
X106121302Y-6401639D01*
X106121303Y-6401639D01*
X106121307Y-6401641D01*
X106306111Y-6447600D01*
X106348877Y-6450500D01*
X106475500Y-6450499D01*
X106542539Y-6470183D01*
X106588294Y-6522987D01*
X106599500Y-6574499D01*
X106599500Y-7288000D01*
X106579815Y-7355039D01*
X106527011Y-7400794D01*
X106457853Y-7410738D01*
X106394297Y-7381713D01*
X106360939Y-7335453D01*
X106359308Y-7331516D01*
X106359307Y-7331513D01*
X106306580Y-7240187D01*
X106232013Y-7165620D01*
X104833325Y-5766932D01*
X104799840Y-5705609D01*
X104804824Y-5635917D01*
X104810514Y-5622970D01*
X104844231Y-5556799D01*
X104914784Y-5339660D01*
X104923783Y-5282842D01*
X104950500Y-5114162D01*
X104950500Y-4885837D01*
X104914784Y-4660339D01*
X104844229Y-4443196D01*
X104740578Y-4239771D01*
X104697002Y-4179794D01*
X104606379Y-4055063D01*
X104444937Y-3893621D01*
X104260228Y-3759421D01*
X104056803Y-3655770D01*
X103839660Y-3585215D01*
X103614162Y-3549500D01*
X103614157Y-3549500D01*
X103385843Y-3549500D01*
X103385838Y-3549500D01*
X103160339Y-3585215D01*
X102943196Y-3655770D01*
X102739771Y-3759421D01*
X102555061Y-3893622D01*
X102393622Y-4055061D01*
X102259421Y-4239771D01*
X102155770Y-4443196D01*
X102085215Y-4660339D01*
X102049500Y-4885837D01*
X101550000Y-4885837D01*
X101550000Y-4878006D01*
X101511834Y-4637040D01*
X101436439Y-4405001D01*
X101325676Y-4187619D01*
X101228700Y-4054142D01*
X101228699Y-4054141D01*
X100542757Y-4740083D01*
X100480119Y-4631592D01*
X100368408Y-4519881D01*
X100259915Y-4457242D01*
X100945856Y-3771299D01*
X100945856Y-3771298D01*
X100812380Y-3674323D01*
X100594998Y-3563560D01*
X100362959Y-3488165D01*
X100121993Y-3450000D01*
X99878007Y-3450000D01*
X99637040Y-3488165D01*
X99405001Y-3563560D01*
X99187626Y-3674319D01*
X99054142Y-3771299D01*
X99740085Y-4457242D01*
X99631592Y-4519881D01*
X99519881Y-4631592D01*
X99457242Y-4740085D01*
X98771299Y-4054142D01*
X98674319Y-4187626D01*
X98563560Y-4405001D01*
X98488165Y-4637040D01*
X98450000Y-4878006D01*
X89950499Y-4878006D01*
X89950499Y-4348878D01*
X89947600Y-4306111D01*
X89901641Y-4121307D01*
X89868786Y-4055061D01*
X89817033Y-3950709D01*
X89817031Y-3950707D01*
X89817030Y-3950704D01*
X89697722Y-3802278D01*
X89659183Y-3771299D01*
X89549295Y-3682969D01*
X89549292Y-3682967D01*
X89378697Y-3598360D01*
X89193892Y-3552400D01*
X89172506Y-3550950D01*
X89151123Y-3549500D01*
X89151120Y-3549500D01*
X87848877Y-3549500D01*
X87848874Y-3549501D01*
X87806113Y-3552399D01*
X87806112Y-3552399D01*
X87621303Y-3598360D01*
X87450707Y-3682967D01*
X87450704Y-3682969D01*
X87302278Y-3802277D01*
X87302277Y-3802278D01*
X87182969Y-3950704D01*
X87182967Y-3950707D01*
X87098360Y-4121302D01*
X87052400Y-4306107D01*
X87049500Y-4348879D01*
X86296172Y-4348879D01*
X86240578Y-4239771D01*
X86197002Y-4179794D01*
X86106379Y-4055063D01*
X85944937Y-3893621D01*
X85760228Y-3759421D01*
X85556803Y-3655770D01*
X85339660Y-3585215D01*
X85114162Y-3549500D01*
X85114157Y-3549500D01*
X84885843Y-3549500D01*
X84885838Y-3549500D01*
X84660339Y-3585215D01*
X84443196Y-3655770D01*
X84239771Y-3759421D01*
X84055061Y-3893622D01*
X83893622Y-4055061D01*
X83759421Y-4239771D01*
X83655770Y-4443196D01*
X83585215Y-4660339D01*
X83549500Y-4885837D01*
X83050000Y-4885837D01*
X83050000Y-4878006D01*
X83011834Y-4637040D01*
X82936439Y-4405001D01*
X82825676Y-4187619D01*
X82728700Y-4054142D01*
X82728699Y-4054141D01*
X82042757Y-4740083D01*
X81980119Y-4631592D01*
X81868408Y-4519881D01*
X81759915Y-4457242D01*
X82445856Y-3771299D01*
X82445856Y-3771298D01*
X82312380Y-3674323D01*
X82094998Y-3563560D01*
X81862959Y-3488165D01*
X81621993Y-3450000D01*
X81378007Y-3450000D01*
X81137040Y-3488165D01*
X80905001Y-3563560D01*
X80687626Y-3674319D01*
X80554142Y-3771299D01*
X81240085Y-4457242D01*
X81131592Y-4519881D01*
X81019881Y-4631592D01*
X80957242Y-4740085D01*
X80271299Y-4054142D01*
X80174319Y-4187626D01*
X80063560Y-4405001D01*
X79988165Y-4637040D01*
X79950000Y-4878006D01*
X71450499Y-4878006D01*
X71450499Y-4348878D01*
X71447600Y-4306111D01*
X71401641Y-4121307D01*
X71368786Y-4055061D01*
X71317033Y-3950709D01*
X71317031Y-3950707D01*
X71317030Y-3950704D01*
X71197722Y-3802278D01*
X71159183Y-3771299D01*
X71049295Y-3682969D01*
X71049292Y-3682967D01*
X70878697Y-3598360D01*
X70693892Y-3552400D01*
X70672506Y-3550950D01*
X70651123Y-3549500D01*
X70651120Y-3549500D01*
X69348877Y-3549500D01*
X69348874Y-3549501D01*
X69306113Y-3552399D01*
X69306106Y-3552400D01*
X69224130Y-3572786D01*
X69154322Y-3569862D01*
X69106525Y-3540132D01*
X68793815Y-3227422D01*
X68793813Y-3227420D01*
X68713693Y-3181162D01*
X68702489Y-3174693D01*
X68608464Y-3149500D01*
X68600627Y-3147400D01*
X62344973Y-3147400D01*
X62243113Y-3174693D01*
X62243110Y-3174694D01*
X62178634Y-3211920D01*
X62178631Y-3211922D01*
X62151787Y-3227419D01*
X59664222Y-5714984D01*
X59664218Y-5714990D01*
X59611492Y-5806312D01*
X59611493Y-5806313D01*
X59584200Y-5908173D01*
X59584200Y-10555102D01*
X59564515Y-10622141D01*
X59547881Y-10642783D01*
X59504181Y-10686482D01*
X59504175Y-10686490D01*
X59425126Y-10823409D01*
X59425123Y-10823416D01*
X59384200Y-10976143D01*
X44314000Y-10976143D01*
X44314000Y-9999129D01*
X44314001Y-9999116D01*
X44314001Y-9883674D01*
X44314001Y-9883673D01*
X44286707Y-9781813D01*
X44247724Y-9714293D01*
X44233980Y-9690487D01*
X44159413Y-9615920D01*
X44159410Y-9615918D01*
X43664213Y-9120720D01*
X43618550Y-9094356D01*
X43572889Y-9067993D01*
X43521957Y-9054346D01*
X43471027Y-9040700D01*
X43471026Y-9040700D01*
X42780639Y-9040700D01*
X42780623Y-9040699D01*
X42773027Y-9040699D01*
X42667573Y-9040699D01*
X42599666Y-9058895D01*
X42565712Y-9067993D01*
X42474384Y-9120722D01*
X31181926Y-20413181D01*
X31154998Y-20427884D01*
X31129180Y-20444477D01*
X31122979Y-20445368D01*
X31120603Y-20446666D01*
X31094245Y-20449500D01*
X30989755Y-20449500D01*
X30922716Y-20429815D01*
X30876961Y-20377011D01*
X30867017Y-20307853D01*
X30896042Y-20244297D01*
X30902074Y-20237819D01*
X37835393Y-13304500D01*
X46238321Y-4901571D01*
X46299642Y-4868088D01*
X46369334Y-4873072D01*
X46425267Y-4914944D01*
X46449684Y-4980408D01*
X46450000Y-4989254D01*
X46450000Y-5121993D01*
X46488165Y-5362959D01*
X46563560Y-5594998D01*
X46674323Y-5812380D01*
X46771298Y-5945856D01*
X46771299Y-5945856D01*
X47457241Y-5259914D01*
X47519881Y-5368408D01*
X47631592Y-5480119D01*
X47740084Y-5542757D01*
X47054141Y-6228699D01*
X47054142Y-6228700D01*
X47187619Y-6325676D01*
X47405001Y-6436439D01*
X47637040Y-6511834D01*
X47878007Y-6550000D01*
X48121993Y-6550000D01*
X48362959Y-6511834D01*
X48594998Y-6436439D01*
X48812377Y-6325678D01*
X48945856Y-6228699D01*
X48945857Y-6228698D01*
X48259916Y-5542757D01*
X48368408Y-5480119D01*
X48480119Y-5368408D01*
X48542757Y-5259915D01*
X49228699Y-5945857D01*
X49228699Y-5945856D01*
X49325678Y-5812377D01*
X49436439Y-5594998D01*
X49511834Y-5362959D01*
X49550000Y-5121993D01*
X49550000Y-4878006D01*
X49511834Y-4637040D01*
X49436439Y-4405001D01*
X49325676Y-4187619D01*
X49283658Y-4129785D01*
X49260178Y-4063979D01*
X49276004Y-3995925D01*
X49326109Y-3947230D01*
X49383976Y-3932900D01*
X49815145Y-3932900D01*
X49844585Y-3941544D01*
X49874572Y-3948068D01*
X49879587Y-3951822D01*
X49882184Y-3952585D01*
X49902826Y-3969219D01*
X50040132Y-4106525D01*
X50073617Y-4167848D01*
X50072786Y-4224130D01*
X50052401Y-4306103D01*
X50052401Y-4306105D01*
X50052400Y-4306111D01*
X50052400Y-4306113D01*
X50049500Y-4348879D01*
X50049500Y-5651122D01*
X50049501Y-5651125D01*
X50052399Y-5693886D01*
X50052399Y-5693887D01*
X50098360Y-5878696D01*
X50182967Y-6049292D01*
X50182969Y-6049295D01*
X50302277Y-6197721D01*
X50302278Y-6197722D01*
X50450704Y-6317030D01*
X50450707Y-6317032D01*
X50621302Y-6401639D01*
X50621303Y-6401639D01*
X50621307Y-6401641D01*
X50806111Y-6447600D01*
X50848877Y-6450500D01*
X52151122Y-6450499D01*
X52193889Y-6447600D01*
X52378693Y-6401641D01*
X52549296Y-6317030D01*
X52697722Y-6197722D01*
X52817030Y-6049296D01*
X52901641Y-5878693D01*
X52947600Y-5693889D01*
X52950500Y-5651123D01*
X52950499Y-4348878D01*
X52947600Y-4306111D01*
X52901641Y-4121307D01*
X52868786Y-4055061D01*
X52817032Y-3950707D01*
X52817030Y-3950704D01*
X52697722Y-3802278D01*
X52697721Y-3802277D01*
X52549295Y-3682969D01*
X52549292Y-3682967D01*
X52378697Y-3598360D01*
X52193892Y-3552400D01*
X52172506Y-3550950D01*
X52151123Y-3549500D01*
X52151120Y-3549500D01*
X50848877Y-3549500D01*
X50848874Y-3549501D01*
X50806113Y-3552399D01*
X50806106Y-3552400D01*
X50724130Y-3572786D01*
X50654322Y-3569862D01*
X50606525Y-3540132D01*
X50278315Y-3211922D01*
X50278313Y-3211920D01*
X50225039Y-3181162D01*
X50186989Y-3159193D01*
X50136057Y-3145546D01*
X50085127Y-3131900D01*
X47093827Y-3131900D01*
X46988373Y-3131900D01*
X46886510Y-3159193D01*
X46795187Y-3211920D01*
X46795184Y-3211922D01*
X30956377Y-19050728D01*
X30895054Y-19084213D01*
X30825362Y-19079229D01*
X30769429Y-19037357D01*
X30746223Y-18982445D01*
X30728499Y-18870546D01*
X30722171Y-18830591D01*
X30693621Y-18742723D01*
X30666212Y-18658363D01*
X30666211Y-18658360D01*
X30617492Y-18562745D01*
X30583996Y-18497006D01*
X30521716Y-18411284D01*
X30477558Y-18350505D01*
X30477554Y-18350500D01*
X30349499Y-18222445D01*
X30349494Y-18222441D01*
X30202997Y-18116006D01*
X30202996Y-18116005D01*
X30202994Y-18116004D01*
X30068205Y-18047325D01*
X30017409Y-17999350D01*
X30000500Y-17936840D01*
X30000500Y-16874499D01*
X30020185Y-16807460D01*
X30072989Y-16761705D01*
X30124500Y-16750499D01*
X30494856Y-16750499D01*
X30494864Y-16750499D01*
X30494879Y-16750497D01*
X30494882Y-16750497D01*
X30519987Y-16747586D01*
X30519988Y-16747585D01*
X30519991Y-16747585D01*
X30622765Y-16702206D01*
X30702206Y-16622765D01*
X30747585Y-16519991D01*
X30750500Y-16494865D01*
X30750499Y-14705136D01*
X30750497Y-14705117D01*
X30747586Y-14680012D01*
X30747585Y-14680010D01*
X30747585Y-14680009D01*
X30702206Y-14577235D01*
X30622765Y-14497794D01*
X30560556Y-14470326D01*
X30519992Y-14452415D01*
X30494865Y-14449500D01*
X28705143Y-14449500D01*
X28705117Y-14449502D01*
X28680012Y-14452413D01*
X28680008Y-14452415D01*
X28577235Y-14497793D01*
X28497794Y-14577234D01*
X28452415Y-14680006D01*
X28452415Y-14680008D01*
X28449500Y-14705131D01*
X28449500Y-16494856D01*
X28449502Y-16494882D01*
X28452413Y-16519987D01*
X28452415Y-16519991D01*
X28497793Y-16622764D01*
X28497794Y-16622765D01*
X28577235Y-16702206D01*
X28680009Y-16747585D01*
X28705135Y-16750500D01*
X29075500Y-16750499D01*
X29142539Y-16770183D01*
X29188294Y-16822987D01*
X29199500Y-16874499D01*
X29199500Y-17936840D01*
X29179815Y-18003879D01*
X29131795Y-18047325D01*
X28997002Y-18116006D01*
X28850505Y-18222441D01*
X28850500Y-18222445D01*
X28722445Y-18350500D01*
X28722441Y-18350505D01*
X28616006Y-18497002D01*
X28533788Y-18658360D01*
X28533787Y-18658363D01*
X28477829Y-18830589D01*
X28449500Y-19009448D01*
X28449500Y-19190551D01*
X28477829Y-19369410D01*
X28533787Y-19541636D01*
X28533788Y-19541639D01*
X28616006Y-19702997D01*
X28723473Y-19850915D01*
X28746953Y-19916722D01*
X28731127Y-19984775D01*
X28681021Y-20033470D01*
X28623155Y-20047800D01*
X25357473Y-20047800D01*
X25255610Y-20075093D01*
X25164287Y-20127820D01*
X25164284Y-20127822D01*
X15473626Y-29818481D01*
X15412303Y-29851966D01*
X15385945Y-29854800D01*
X15324143Y-29854800D01*
X15171416Y-29895723D01*
X15171409Y-29895726D01*
X15034490Y-29974775D01*
X15034482Y-29974781D01*
X14922681Y-30086582D01*
X14922675Y-30086590D01*
X14843626Y-30223509D01*
X14843623Y-30223516D01*
X14802700Y-30376243D01*
X14802700Y-30534357D01*
X14840933Y-30677042D01*
X14843623Y-30687083D01*
X14843623Y-30687084D01*
X14907431Y-30797604D01*
X14923903Y-30865504D01*
X14907431Y-30921602D01*
X14827923Y-31059315D01*
X14827923Y-31059316D01*
X14787000Y-31212043D01*
X14787000Y-31370157D01*
X14826314Y-31516877D01*
X14827923Y-31522883D01*
X14827926Y-31522890D01*
X14906975Y-31659809D01*
X14906979Y-31659814D01*
X14906980Y-31659816D01*
X15018784Y-31771620D01*
X15018786Y-31771621D01*
X15018790Y-31771624D01*
X15127024Y-31834112D01*
X15155716Y-31850677D01*
X15308443Y-31891600D01*
X15308445Y-31891600D01*
X15466555Y-31891600D01*
X15466557Y-31891600D01*
X15619284Y-31850677D01*
X15756216Y-31771620D01*
X15799917Y-31727919D01*
X15861240Y-31694434D01*
X15887598Y-31691600D01*
X18686725Y-31691600D01*
X18686727Y-31691600D01*
X18788588Y-31664307D01*
X18879913Y-31611580D01*
X24489875Y-26001617D01*
X28350000Y-26001617D01*
X28350000Y-26198382D01*
X28380778Y-26392705D01*
X28441581Y-26579835D01*
X28530904Y-26755143D01*
X28586076Y-26831079D01*
X28586077Y-26831080D01*
X29131980Y-26285176D01*
X29134075Y-26292993D01*
X29199901Y-26407007D01*
X29292993Y-26500099D01*
X29407007Y-26565925D01*
X29414822Y-26568019D01*
X28868918Y-27113922D01*
X28944856Y-27169095D01*
X29120164Y-27258418D01*
X29307294Y-27319221D01*
X29501618Y-27350000D01*
X29698382Y-27350000D01*
X29892705Y-27319221D01*
X30079835Y-27258418D01*
X30255143Y-27169095D01*
X30331079Y-27113922D01*
X30331080Y-27113921D01*
X29785178Y-26568019D01*
X29792993Y-26565925D01*
X29907007Y-26500099D01*
X30000099Y-26407007D01*
X30065925Y-26292993D01*
X30068019Y-26285177D01*
X30613921Y-26831080D01*
X30613922Y-26831079D01*
X30669095Y-26755143D01*
X30758418Y-26579835D01*
X30819221Y-26392705D01*
X30850000Y-26198382D01*
X30850000Y-26001617D01*
X30819221Y-25807294D01*
X30758418Y-25620164D01*
X30669095Y-25444856D01*
X30613922Y-25368919D01*
X30613922Y-25368918D01*
X30068018Y-25914821D01*
X30065925Y-25907007D01*
X30000099Y-25792993D01*
X29907007Y-25699901D01*
X29792993Y-25634075D01*
X29785177Y-25631980D01*
X30331080Y-25086077D01*
X30331079Y-25086076D01*
X30255143Y-25030904D01*
X30079835Y-24941581D01*
X29892705Y-24880778D01*
X29698382Y-24850000D01*
X29501618Y-24850000D01*
X29307294Y-24880778D01*
X29120164Y-24941581D01*
X28944855Y-25030905D01*
X28944846Y-25030911D01*
X28868919Y-25086075D01*
X28868918Y-25086076D01*
X29414823Y-25631980D01*
X29407007Y-25634075D01*
X29292993Y-25699901D01*
X29199901Y-25792993D01*
X29134075Y-25907007D01*
X29131980Y-25914822D01*
X28586076Y-25368918D01*
X28586075Y-25368919D01*
X28530911Y-25444846D01*
X28530905Y-25444855D01*
X28441581Y-25620164D01*
X28380778Y-25807294D01*
X28350000Y-26001617D01*
X24489875Y-26001617D01*
X28147922Y-22343570D01*
X28209241Y-22310088D01*
X28278933Y-22315072D01*
X28334866Y-22356944D01*
X28359283Y-22422408D01*
X28358072Y-22450652D01*
X28350000Y-22501617D01*
X28350000Y-22698382D01*
X28380778Y-22892705D01*
X28441581Y-23079835D01*
X28530904Y-23255143D01*
X28586076Y-23331079D01*
X28586077Y-23331080D01*
X29131980Y-22785176D01*
X29134075Y-22792993D01*
X29199901Y-22907007D01*
X29292993Y-23000099D01*
X29407007Y-23065925D01*
X29414822Y-23068019D01*
X28868918Y-23613922D01*
X28944856Y-23669095D01*
X29120164Y-23758418D01*
X29307294Y-23819221D01*
X29501618Y-23850000D01*
X29698382Y-23850000D01*
X29892705Y-23819221D01*
X30079835Y-23758418D01*
X30255143Y-23669095D01*
X30331079Y-23613922D01*
X30331080Y-23613921D01*
X29785178Y-23068019D01*
X29792993Y-23065925D01*
X29907007Y-23000099D01*
X30000099Y-22907007D01*
X30065925Y-22792993D01*
X30068019Y-22785177D01*
X30613921Y-23331080D01*
X30613922Y-23331079D01*
X30669095Y-23255143D01*
X30758418Y-23079835D01*
X30819221Y-22892705D01*
X30850000Y-22698382D01*
X30850000Y-22501617D01*
X30819221Y-22307294D01*
X30758418Y-22120164D01*
X30669095Y-21944856D01*
X30613922Y-21868919D01*
X30613922Y-21868918D01*
X30068018Y-22414821D01*
X30065925Y-22407007D01*
X30000099Y-22292993D01*
X29907007Y-22199901D01*
X29792993Y-22134075D01*
X29785176Y-22131980D01*
X30331080Y-21586077D01*
X30331079Y-21586076D01*
X30255143Y-21530904D01*
X30165021Y-21484985D01*
X30114225Y-21437011D01*
X30097430Y-21369190D01*
X30119967Y-21303055D01*
X30174682Y-21259603D01*
X30221316Y-21250500D01*
X31364225Y-21250500D01*
X31364227Y-21250500D01*
X31466088Y-21223207D01*
X31557413Y-21170480D01*
X38519619Y-14208272D01*
X38580942Y-14174788D01*
X38650634Y-14179772D01*
X38706567Y-14221644D01*
X38730984Y-14287108D01*
X38731300Y-14295954D01*
X38731300Y-18280702D01*
X38711615Y-18347741D01*
X38658811Y-18393496D01*
X38589653Y-18403440D01*
X38526097Y-18374415D01*
X38519619Y-18368383D01*
X38450717Y-18299481D01*
X38450709Y-18299475D01*
X38313790Y-18220426D01*
X38313786Y-18220424D01*
X38313784Y-18220423D01*
X38161057Y-18179500D01*
X38002943Y-18179500D01*
X37850216Y-18220423D01*
X37850209Y-18220426D01*
X37713290Y-18299475D01*
X37713282Y-18299481D01*
X37601481Y-18411282D01*
X37601475Y-18411290D01*
X37522426Y-18548209D01*
X37522423Y-18548216D01*
X37481500Y-18700943D01*
X37481500Y-18859057D01*
X37501739Y-18934588D01*
X37522423Y-19011783D01*
X37522426Y-19011790D01*
X37601475Y-19148709D01*
X37601481Y-19148717D01*
X37645181Y-19192417D01*
X37678666Y-19253740D01*
X37681500Y-19280098D01*
X37681500Y-23002145D01*
X37661815Y-23069184D01*
X37645181Y-23089826D01*
X28071826Y-32663181D01*
X28010503Y-32696666D01*
X27984145Y-32699500D01*
X27922343Y-32699500D01*
X27769616Y-32740423D01*
X27769609Y-32740426D01*
X27632690Y-32819475D01*
X27632682Y-32819481D01*
X27520881Y-32931282D01*
X27520875Y-32931290D01*
X27441826Y-33068209D01*
X27441823Y-33068216D01*
X27400900Y-33220943D01*
X27400900Y-33379057D01*
X27435485Y-33508128D01*
X27441823Y-33531783D01*
X27441826Y-33531790D01*
X27520875Y-33668709D01*
X27520879Y-33668714D01*
X27520880Y-33668716D01*
X27632684Y-33780520D01*
X27632686Y-33780521D01*
X27632690Y-33780524D01*
X27702543Y-33820853D01*
X27769616Y-33859577D01*
X27922343Y-33900500D01*
X27922345Y-33900500D01*
X28080455Y-33900500D01*
X28080457Y-33900500D01*
X28233184Y-33859577D01*
X28370116Y-33780520D01*
X28481920Y-33668716D01*
X28560977Y-33531784D01*
X28601900Y-33379057D01*
X28601900Y-33317255D01*
X28621585Y-33250216D01*
X28638219Y-33229574D01*
X33500541Y-28367252D01*
X38402480Y-23465313D01*
X38455207Y-23373988D01*
X38482500Y-23272127D01*
X38482500Y-23166673D01*
X38482500Y-19280098D01*
X38491144Y-19250657D01*
X38497668Y-19220671D01*
X38501422Y-19215655D01*
X38502185Y-19213059D01*
X38518819Y-19192417D01*
X38519619Y-19191617D01*
X38580942Y-19158132D01*
X38650634Y-19163116D01*
X38706567Y-19204988D01*
X38730984Y-19270452D01*
X38731300Y-19279298D01*
X38731300Y-37854445D01*
X38711615Y-37921484D01*
X38658811Y-37967239D01*
X38589653Y-37977183D01*
X38526097Y-37948158D01*
X38519619Y-37942126D01*
X37027115Y-36449622D01*
X37027113Y-36449620D01*
X36971106Y-36417284D01*
X36935789Y-36396893D01*
X36884857Y-36383246D01*
X36833927Y-36369600D01*
X36833926Y-36369600D01*
X29704698Y-36369600D01*
X29637659Y-36349915D01*
X29617017Y-36333281D01*
X29573317Y-36289581D01*
X29573309Y-36289575D01*
X29436390Y-36210526D01*
X29436386Y-36210524D01*
X29436384Y-36210523D01*
X29283657Y-36169600D01*
X29125543Y-36169600D01*
X28972816Y-36210523D01*
X28972809Y-36210526D01*
X28835890Y-36289575D01*
X28835882Y-36289581D01*
X28724081Y-36401382D01*
X28724075Y-36401390D01*
X28645026Y-36538309D01*
X28645023Y-36538316D01*
X28604100Y-36691043D01*
X28604100Y-36849157D01*
X28632511Y-36955186D01*
X28645023Y-37001883D01*
X28645026Y-37001890D01*
X28724075Y-37138809D01*
X28724079Y-37138814D01*
X28724080Y-37138816D01*
X28835884Y-37250620D01*
X28835886Y-37250621D01*
X28835890Y-37250624D01*
X28959290Y-37321868D01*
X28972816Y-37329677D01*
X29125543Y-37370600D01*
X29125545Y-37370600D01*
X29283655Y-37370600D01*
X29283657Y-37370600D01*
X29436384Y-37329677D01*
X29573316Y-37250620D01*
X29617017Y-37206919D01*
X29678340Y-37173434D01*
X29704698Y-37170600D01*
X36563945Y-37170600D01*
X36630984Y-37190285D01*
X36651626Y-37206919D01*
X36965726Y-37521019D01*
X36999211Y-37582342D01*
X36994227Y-37652034D01*
X36952355Y-37707967D01*
X36886891Y-37732384D01*
X36878045Y-37732700D01*
X17169673Y-37732700D01*
X17067810Y-37759993D01*
X16976487Y-37812720D01*
X16976484Y-37812722D01*
X16580902Y-38208304D01*
X16519579Y-38241789D01*
X16449887Y-38236805D01*
X16405540Y-38208304D01*
X16290417Y-38093181D01*
X16290409Y-38093175D01*
X16153490Y-38014126D01*
X16153486Y-38014124D01*
X16153484Y-38014123D01*
X16000757Y-37973200D01*
X15842643Y-37973200D01*
X15689916Y-38014123D01*
X15689909Y-38014126D01*
X15552990Y-38093175D01*
X15552982Y-38093181D01*
X15509283Y-38136881D01*
X15447960Y-38170366D01*
X15421602Y-38173200D01*
X12355939Y-38173200D01*
X12355923Y-38173199D01*
X12348327Y-38173199D01*
X12242873Y-38173199D01*
X12155889Y-38196507D01*
X12155888Y-38196506D01*
X12141016Y-38200492D01*
X12141010Y-38200494D01*
X12111059Y-38217787D01*
X12049059Y-38234400D01*
X11955343Y-38234400D01*
X11802616Y-38275323D01*
X11802609Y-38275326D01*
X11665690Y-38354375D01*
X11665682Y-38354381D01*
X11643081Y-38376983D01*
X11581758Y-38410468D01*
X11512066Y-38405484D01*
X11456133Y-38363612D01*
X11431716Y-38298148D01*
X11431400Y-38289302D01*
X11431400Y-34786198D01*
X11451085Y-34719159D01*
X11467719Y-34698517D01*
X11481617Y-34684619D01*
X11511420Y-34654816D01*
X11590477Y-34517884D01*
X11631400Y-34365157D01*
X11631400Y-34207043D01*
X11590477Y-34054316D01*
X11582659Y-34040775D01*
X11511424Y-33917390D01*
X11511418Y-33917382D01*
X11399617Y-33805581D01*
X11399609Y-33805575D01*
X11262690Y-33726526D01*
X11262686Y-33726524D01*
X11262684Y-33726523D01*
X11109957Y-33685600D01*
X10951843Y-33685600D01*
X10799116Y-33726523D01*
X10799109Y-33726526D01*
X10662190Y-33805575D01*
X10662182Y-33805581D01*
X10550381Y-33917382D01*
X10550375Y-33917390D01*
X10471326Y-34054309D01*
X10471323Y-34054316D01*
X10430400Y-34207043D01*
X10430400Y-34365157D01*
X10461221Y-34480180D01*
X10471323Y-34517883D01*
X10471326Y-34517890D01*
X10550375Y-34654809D01*
X10550381Y-34654817D01*
X10594081Y-34698517D01*
X10627566Y-34759840D01*
X10630400Y-34786198D01*
X10630400Y-37341841D01*
X10610715Y-37408880D01*
X10557911Y-37454635D01*
X10488753Y-37464579D01*
X10444402Y-37449229D01*
X10435388Y-37444025D01*
X10435386Y-37444024D01*
X10435384Y-37444023D01*
X10282657Y-37403100D01*
X10124543Y-37403100D01*
X9971816Y-37444023D01*
X9971809Y-37444026D01*
X9834890Y-37523075D01*
X9834882Y-37523081D01*
X9723081Y-37634882D01*
X9723075Y-37634890D01*
X9644026Y-37771809D01*
X9644023Y-37771816D01*
X9603100Y-37924543D01*
X9603100Y-38082657D01*
X9643760Y-38234400D01*
X9644023Y-38235383D01*
X9644026Y-38235390D01*
X9723075Y-38372309D01*
X9723081Y-38372317D01*
X9766781Y-38416017D01*
X9800266Y-38477340D01*
X9803100Y-38503698D01*
X9803100Y-39427073D01*
X9803100Y-39532527D01*
X9807700Y-39549694D01*
X9830393Y-39634389D01*
X9849644Y-39667731D01*
X9883120Y-39725713D01*
X9883122Y-39725715D01*
X10386481Y-40229074D01*
X10419966Y-40290397D01*
X10422800Y-40316755D01*
X10422800Y-40593591D01*
X10403115Y-40660630D01*
X10350311Y-40706385D01*
X10281153Y-40716329D01*
X10266710Y-40713367D01*
X10256757Y-40710700D01*
X10098643Y-40710700D01*
X9945916Y-40751623D01*
X9945909Y-40751626D01*
X9808990Y-40830675D01*
X9808982Y-40830681D01*
X9697181Y-40942482D01*
X9697175Y-40942490D01*
X9618126Y-41079409D01*
X9618123Y-41079416D01*
X9577200Y-41232143D01*
X9577200Y-41293945D01*
X9557515Y-41360984D01*
X9540881Y-41381626D01*
X8521522Y-42400984D01*
X8521520Y-42400987D01*
X8468794Y-42492309D01*
X8468793Y-42492311D01*
X8468793Y-42492312D01*
X8451114Y-42558293D01*
X8451113Y-42558292D01*
X8441500Y-42594171D01*
X500500Y-42594171D01*
X500500Y-27708343D01*
X7631400Y-27708343D01*
X7631400Y-27866457D01*
X7671385Y-28015681D01*
X7672323Y-28019183D01*
X7672326Y-28019190D01*
X7751375Y-28156109D01*
X7751379Y-28156114D01*
X7751380Y-28156116D01*
X7863184Y-28267920D01*
X7863186Y-28267921D01*
X7863190Y-28267924D01*
X7981032Y-28335959D01*
X8000116Y-28346977D01*
X8152843Y-28387900D01*
X8152845Y-28387900D01*
X8310955Y-28387900D01*
X8310957Y-28387900D01*
X8463684Y-28346977D01*
X8600616Y-28267920D01*
X8712420Y-28156116D01*
X8791477Y-28019184D01*
X8832400Y-27866457D01*
X8832400Y-27775888D01*
X8834553Y-27765818D01*
X8833540Y-27759109D01*
X8840066Y-27740034D01*
X8843244Y-27725175D01*
X8845836Y-27719391D01*
X8870607Y-27676487D01*
X8876282Y-27655309D01*
X8897901Y-27574627D01*
X8897901Y-27469173D01*
X8897901Y-27461578D01*
X8897900Y-27461560D01*
X8897900Y-19802398D01*
X8917585Y-19735359D01*
X8934219Y-19714717D01*
X8946979Y-19701957D01*
X8977920Y-19671016D01*
X9056977Y-19534084D01*
X9097900Y-19381357D01*
X9097900Y-19223243D01*
X9056977Y-19070516D01*
X9052824Y-19063323D01*
X8977924Y-18933590D01*
X8977918Y-18933582D01*
X8866117Y-18821781D01*
X8866109Y-18821775D01*
X8729190Y-18742726D01*
X8729186Y-18742724D01*
X8729184Y-18742723D01*
X8576457Y-18701800D01*
X8418343Y-18701800D01*
X8265616Y-18742723D01*
X8265609Y-18742726D01*
X8128690Y-18821775D01*
X8128682Y-18821781D01*
X8016881Y-18933582D01*
X8016875Y-18933590D01*
X7937826Y-19070509D01*
X7937823Y-19070516D01*
X7896900Y-19223243D01*
X7896900Y-19381357D01*
X7936595Y-19529499D01*
X7937823Y-19534083D01*
X7937826Y-19534090D01*
X8016875Y-19671009D01*
X8016881Y-19671017D01*
X8060581Y-19714717D01*
X8094066Y-19776040D01*
X8096900Y-19802398D01*
X8096900Y-27106741D01*
X8077215Y-27173780D01*
X8024411Y-27219535D01*
X8004996Y-27226515D01*
X8000120Y-27227821D01*
X8000109Y-27227826D01*
X7863190Y-27306875D01*
X7863182Y-27306881D01*
X7751381Y-27418682D01*
X7751375Y-27418690D01*
X7672326Y-27555609D01*
X7672323Y-27555616D01*
X7631400Y-27708343D01*
X500500Y-27708343D01*
X500500Y-16506443D01*
X7968300Y-16506443D01*
X7968300Y-16664557D01*
X8008329Y-16813945D01*
X8009223Y-16817283D01*
X8009226Y-16817290D01*
X8088275Y-16954209D01*
X8088279Y-16954214D01*
X8088280Y-16954216D01*
X8200084Y-17066020D01*
X8200086Y-17066021D01*
X8200090Y-17066024D01*
X8292680Y-17119480D01*
X8337016Y-17145077D01*
X8489743Y-17186000D01*
X8489745Y-17186000D01*
X8647855Y-17186000D01*
X8647857Y-17186000D01*
X8800584Y-17145077D01*
X8937516Y-17066020D01*
X8981217Y-17022319D01*
X9042540Y-16988834D01*
X9068898Y-16986000D01*
X24967225Y-16986000D01*
X24967227Y-16986000D01*
X25069088Y-16958707D01*
X25160413Y-16905980D01*
X35606527Y-6459864D01*
X35667848Y-6426381D01*
X35724130Y-6427211D01*
X35806111Y-6447600D01*
X35848877Y-6450500D01*
X37151122Y-6450499D01*
X37193889Y-6447600D01*
X37378693Y-6401641D01*
X37549296Y-6317030D01*
X37697722Y-6197722D01*
X37817030Y-6049296D01*
X37901641Y-5878693D01*
X37947600Y-5693889D01*
X37950500Y-5651123D01*
X37950499Y-4348878D01*
X37947600Y-4306111D01*
X37901641Y-4121307D01*
X37868786Y-4055061D01*
X37817032Y-3950707D01*
X37817030Y-3950704D01*
X37697722Y-3802278D01*
X37697721Y-3802277D01*
X37549295Y-3682969D01*
X37549292Y-3682967D01*
X37378697Y-3598360D01*
X37193892Y-3552400D01*
X37172506Y-3550950D01*
X37151123Y-3549500D01*
X37151120Y-3549500D01*
X35848877Y-3549500D01*
X35848874Y-3549501D01*
X35806113Y-3552399D01*
X35806112Y-3552399D01*
X35621303Y-3598360D01*
X35450707Y-3682967D01*
X35450704Y-3682969D01*
X35302278Y-3802277D01*
X35302277Y-3802278D01*
X35182969Y-3950704D01*
X35182967Y-3950707D01*
X35098360Y-4121302D01*
X35052400Y-4306107D01*
X35049500Y-4348879D01*
X35049500Y-5651122D01*
X35049501Y-5651125D01*
X35052399Y-5693886D01*
X35052400Y-5693890D01*
X35072786Y-5775867D01*
X35069862Y-5845676D01*
X35040132Y-5893473D01*
X24784926Y-16148681D01*
X24723603Y-16182166D01*
X24697245Y-16185000D01*
X9068898Y-16185000D01*
X9001859Y-16165315D01*
X8981217Y-16148681D01*
X8937517Y-16104981D01*
X8937509Y-16104975D01*
X8800590Y-16025926D01*
X8800586Y-16025924D01*
X8800584Y-16025923D01*
X8647857Y-15985000D01*
X8489743Y-15985000D01*
X8337016Y-16025923D01*
X8337009Y-16025926D01*
X8200090Y-16104975D01*
X8200082Y-16104981D01*
X8088281Y-16216782D01*
X8088275Y-16216790D01*
X8009226Y-16353709D01*
X8009223Y-16353716D01*
X7968300Y-16506443D01*
X500500Y-16506443D01*
X500500Y-4878711D01*
X3149500Y-4878711D01*
X3149500Y-5121288D01*
X3181161Y-5361785D01*
X3243947Y-5596104D01*
X3311930Y-5760228D01*
X3336776Y-5820212D01*
X3458064Y-6030289D01*
X3458066Y-6030292D01*
X3458067Y-6030293D01*
X3605733Y-6222736D01*
X3605739Y-6222743D01*
X3777256Y-6394260D01*
X3777263Y-6394266D01*
X3798150Y-6410293D01*
X3969711Y-6541936D01*
X4179788Y-6663224D01*
X4403900Y-6756054D01*
X4638211Y-6818838D01*
X4818586Y-6842584D01*
X4878711Y-6850500D01*
X4878712Y-6850500D01*
X5121289Y-6850500D01*
X5169388Y-6844167D01*
X5361789Y-6818838D01*
X5596100Y-6756054D01*
X5820212Y-6663224D01*
X6030289Y-6541936D01*
X6222738Y-6394265D01*
X6394265Y-6222738D01*
X6467886Y-6126793D01*
X6483877Y-6105954D01*
X6527352Y-6049295D01*
X6541936Y-6030289D01*
X6663224Y-5820212D01*
X6756054Y-5596100D01*
X6818838Y-5361789D01*
X6850500Y-5121288D01*
X6850500Y-4878712D01*
X6850407Y-4878006D01*
X31450000Y-4878006D01*
X31450000Y-5121993D01*
X31488165Y-5362959D01*
X31563560Y-5594998D01*
X31674323Y-5812380D01*
X31771298Y-5945856D01*
X31771299Y-5945856D01*
X32457241Y-5259914D01*
X32519881Y-5368408D01*
X32631592Y-5480119D01*
X32740084Y-5542757D01*
X32054141Y-6228699D01*
X32054142Y-6228700D01*
X32187619Y-6325676D01*
X32405001Y-6436439D01*
X32637040Y-6511834D01*
X32878007Y-6550000D01*
X33121993Y-6550000D01*
X33362959Y-6511834D01*
X33594998Y-6436439D01*
X33812377Y-6325678D01*
X33945856Y-6228699D01*
X33945857Y-6228698D01*
X33259916Y-5542757D01*
X33368408Y-5480119D01*
X33480119Y-5368408D01*
X33542757Y-5259915D01*
X34228698Y-5945857D01*
X34228699Y-5945856D01*
X34325678Y-5812377D01*
X34436439Y-5594998D01*
X34511834Y-5362959D01*
X34550000Y-5121993D01*
X34550000Y-4878006D01*
X34511834Y-4637040D01*
X34436439Y-4405001D01*
X34325676Y-4187619D01*
X34228700Y-4054142D01*
X34228699Y-4054141D01*
X33542757Y-4740083D01*
X33480119Y-4631592D01*
X33368408Y-4519881D01*
X33259915Y-4457242D01*
X33945856Y-3771299D01*
X33945856Y-3771298D01*
X33812380Y-3674323D01*
X33594998Y-3563560D01*
X33362959Y-3488165D01*
X33121993Y-3450000D01*
X32878007Y-3450000D01*
X32637040Y-3488165D01*
X32405001Y-3563560D01*
X32187626Y-3674319D01*
X32054142Y-3771299D01*
X32740085Y-4457242D01*
X32631592Y-4519881D01*
X32519881Y-4631592D01*
X32457242Y-4740085D01*
X31771299Y-4054142D01*
X31674319Y-4187626D01*
X31563560Y-4405001D01*
X31488165Y-4637040D01*
X31450000Y-4878006D01*
X6850407Y-4878006D01*
X6849757Y-4873072D01*
X6842584Y-4818586D01*
X6818838Y-4638211D01*
X6756054Y-4403900D01*
X6755711Y-4403073D01*
X6733263Y-4348877D01*
X6663224Y-4179788D01*
X6541936Y-3969711D01*
X6485564Y-3896245D01*
X6483875Y-3894044D01*
X6394266Y-3777263D01*
X6394260Y-3777256D01*
X6222743Y-3605739D01*
X6222736Y-3605733D01*
X6030293Y-3458067D01*
X6030292Y-3458066D01*
X6030289Y-3458064D01*
X5820212Y-3336776D01*
X5820205Y-3336773D01*
X5596104Y-3243947D01*
X5361785Y-3181161D01*
X5121289Y-3149500D01*
X5121288Y-3149500D01*
X4878712Y-3149500D01*
X4878711Y-3149500D01*
X4638214Y-3181161D01*
X4403895Y-3243947D01*
X4179794Y-3336773D01*
X4179785Y-3336777D01*
X3969706Y-3458067D01*
X3777263Y-3605733D01*
X3777256Y-3605739D01*
X3605739Y-3777256D01*
X3605733Y-3777263D01*
X3458067Y-3969706D01*
X3336777Y-4179785D01*
X3336773Y-4179794D01*
X3243947Y-4403895D01*
X3181161Y-4638214D01*
X3149500Y-4878711D01*
X500500Y-4878711D01*
X500500Y-3003750D01*
X500726Y-2996263D01*
X518271Y-2706204D01*
X520076Y-2691339D01*
X571780Y-2409201D01*
X575358Y-2394683D01*
X660700Y-2120806D01*
X665997Y-2106841D01*
X783730Y-1845249D01*
X790675Y-1832016D01*
X939079Y-1586526D01*
X947566Y-1574230D01*
X1124480Y-1348416D01*
X1134395Y-1337225D01*
X1337225Y-1134395D01*
X1348416Y-1124480D01*
X1574230Y-947566D01*
X1586526Y-939079D01*
X1832016Y-790675D01*
X1845249Y-783730D01*
X2106841Y-665997D01*
X2120806Y-660700D01*
X2394683Y-575358D01*
X2409197Y-571780D01*
X2691343Y-520075D01*
X2706200Y-518271D01*
X2996264Y-500726D01*
X3003751Y-500500D01*
X3065892Y-500500D01*
X136934108Y-500500D01*
X136996249Y-500500D01*
X137003736Y-500726D01*
G37*
%TD.AperFunction*%
%TD*%
M02*
