%TF.GenerationSoftware,KiCad,Pcbnew,10.0.3*%
%TF.CreationDate,2026-08-06T23:52:44+12:00*%
%TF.ProjectId,rcm,72636d2e-6b69-4636-9164-5f7063625858,A*%
%TF.SameCoordinates,Original*%
%TF.FileFunction,Drillmap*%
%TF.FilePolarity,Positive*%
%FSLAX45Y45*%
G04 Gerber Fmt 4.5, Leading zero omitted, Abs format (unit mm)*
G04 Created by KiCad (PCBNEW 10.0.3) date 2026-08-06 23:52:44*
%MOMM*%
%LPD*%
G01*
G04 APERTURE LIST*
%ADD10C,0.100000*%
%ADD11C,0.200000*%
%ADD12C,0.120000*%
G04 APERTURE END LIST*
D10*
X0Y-300000D02*
G75*
G02*
X300000Y0I300000J0D01*
G01*
X0Y-6700000D02*
X0Y-300000D01*
X300000Y0D02*
X13700000Y0D01*
X300000Y-7000000D02*
G75*
G02*
X0Y-6700000I0J300000D01*
G01*
X13700000Y0D02*
G75*
G02*
X14000000Y-300000I0J-300000D01*
G01*
X13700000Y-7000000D02*
X300000Y-7000000D01*
X14000000Y-300000D02*
X14000000Y-6700000D01*
X14000000Y-6700000D02*
G75*
G02*
X13700000Y-7000000I-300000J0D01*
G01*
D11*
D10*
X711250Y-2789700D02*
X741250Y-2819700D01*
X741250Y-2789700D02*
X711250Y-2819700D01*
X804330Y-1923790D02*
X834330Y-1953790D01*
X834330Y-1923790D02*
X804330Y-1953790D01*
X1058920Y-4985000D02*
X1088920Y-5015000D01*
X1088920Y-4985000D02*
X1058920Y-5015000D01*
X1087690Y-3435000D02*
X1117690Y-3465000D01*
X1117690Y-3435000D02*
X1087690Y-3465000D01*
X1107250Y-3533090D02*
X1137250Y-3563090D01*
X1137250Y-3533090D02*
X1107250Y-3563090D01*
X1140700Y-1742060D02*
X1170700Y-1772060D01*
X1170700Y-1742060D02*
X1140700Y-1772060D01*
X1260070Y-3920570D02*
X1290070Y-3950570D01*
X1290070Y-3920570D02*
X1260070Y-3950570D01*
X1593450Y-3767120D02*
X1623450Y-3797120D01*
X1623450Y-3767120D02*
X1593450Y-3797120D01*
X1623500Y-3890680D02*
X1653500Y-3920680D01*
X1653500Y-3890680D02*
X1623500Y-3920680D01*
X1641900Y-3070030D02*
X1671900Y-3100030D01*
X1671900Y-3070030D02*
X1641900Y-3100030D01*
X1667550Y-3705140D02*
X1697550Y-3735140D01*
X1697550Y-3705140D02*
X1667550Y-3735140D01*
X1673360Y-2983530D02*
X1703360Y-3013530D01*
X1703360Y-2983530D02*
X1673360Y-3013530D01*
X1675050Y-4147500D02*
X1705050Y-4177500D01*
X1705050Y-4147500D02*
X1675050Y-4177500D01*
X1675360Y-4017700D02*
X1705360Y-4047700D01*
X1705360Y-4017700D02*
X1675360Y-4047700D01*
X1704460Y-3903490D02*
X1734460Y-3933490D01*
X1734460Y-3903490D02*
X1704460Y-3933490D01*
X1707360Y-5372770D02*
X1737360Y-5402770D01*
X1737360Y-5372770D02*
X1707360Y-5402770D01*
X1802470Y-4032290D02*
X1832470Y-4062290D01*
X1832470Y-4032290D02*
X1802470Y-4062290D01*
X2496680Y-4868390D02*
X2526680Y-4898390D01*
X2526680Y-4868390D02*
X2496680Y-4898390D01*
X2691760Y-2481510D02*
X2721760Y-2511510D01*
X2721760Y-2481510D02*
X2691760Y-2511510D01*
X2789760Y-4104770D02*
X2819760Y-4134770D01*
X2819760Y-4104770D02*
X2789760Y-4134770D01*
X2904010Y-5438610D02*
X2934010Y-5468610D01*
X2934010Y-5438610D02*
X2904010Y-5468610D01*
X3065960Y-3660070D02*
X3095960Y-3690070D01*
X3095960Y-3660070D02*
X3065960Y-3690070D01*
X3412380Y-4381970D02*
X3442380Y-4411970D01*
X3442380Y-4381970D02*
X3412380Y-4411970D01*
X3447470Y-4084120D02*
X3477470Y-4114120D01*
X3477470Y-4084120D02*
X3447470Y-4114120D01*
X3595770Y-3415100D02*
X3625770Y-3445100D01*
X3625770Y-3415100D02*
X3595770Y-3445100D01*
X3743760Y-3343820D02*
X3773760Y-3373820D01*
X3773760Y-3343820D02*
X3743760Y-3373820D01*
X3791270Y-3865120D02*
X3821270Y-3895120D01*
X3821270Y-3865120D02*
X3791270Y-3895120D01*
X3918410Y-4102000D02*
X3948410Y-4132000D01*
X3948410Y-4102000D02*
X3918410Y-4132000D01*
X4483370Y-2820860D02*
X4513370Y-2850860D01*
X4513370Y-2820860D02*
X4483370Y-2850860D01*
X5164510Y-3370110D02*
X5194510Y-3400110D01*
X5194510Y-3370110D02*
X5164510Y-3400110D01*
X5294100Y-1482000D02*
X5324100Y-1512000D01*
X5324100Y-1482000D02*
X5294100Y-1512000D01*
X5413420Y-3590110D02*
X5443420Y-3620110D01*
X5443420Y-3590110D02*
X5413420Y-3620110D01*
X5465920Y-3372580D02*
X5495920Y-3402580D01*
X5495920Y-3372580D02*
X5465920Y-3402580D01*
X5612700Y-4157820D02*
X5642700Y-4187820D01*
X5642700Y-4157820D02*
X5612700Y-4187820D01*
X5687980Y-4197880D02*
X5717980Y-4227880D01*
X5717980Y-4197880D02*
X5687980Y-4227880D01*
X5725150Y-3754680D02*
X5755150Y-3784680D01*
X5755150Y-3754680D02*
X5725150Y-3784680D01*
X5848490Y-4292580D02*
X5878490Y-4322580D01*
X5878490Y-4292580D02*
X5848490Y-4322580D01*
X5863090Y-5678550D02*
X5893090Y-5708550D01*
X5893090Y-5678550D02*
X5863090Y-5708550D01*
X5875500Y-1291250D02*
X5905500Y-1321250D01*
X5905500Y-1291250D02*
X5875500Y-1321250D01*
X5976460Y-3858380D02*
X6006460Y-3888380D01*
X6006460Y-3858380D02*
X5976460Y-3888380D01*
X5976940Y-4001250D02*
X6006940Y-4031250D01*
X6006940Y-4001250D02*
X5976940Y-4031250D01*
X6017590Y-4082500D02*
X6047590Y-4112500D01*
X6047590Y-4082500D02*
X6017590Y-4112500D01*
X6048460Y-3503030D02*
X6078460Y-3533030D01*
X6078460Y-3503030D02*
X6048460Y-3533030D01*
X6058480Y-4161960D02*
X6088480Y-4191960D01*
X6088480Y-4161960D02*
X6058480Y-4191960D01*
X6073880Y-3904410D02*
X6103880Y-3934410D01*
X6103880Y-3904410D02*
X6073880Y-3934410D01*
X6138840Y-3659320D02*
X6168840Y-3689320D01*
X6168840Y-3659320D02*
X6138840Y-3689320D01*
X6169920Y-4058530D02*
X6199920Y-4088530D01*
X6199920Y-4058530D02*
X6169920Y-4088530D01*
X6217380Y-1078170D02*
X6247380Y-1108170D01*
X6247380Y-1078170D02*
X6217380Y-1108170D01*
X6378430Y-3905590D02*
X6408430Y-3935590D01*
X6408430Y-3905590D02*
X6378430Y-3935590D01*
X6799530Y-2995700D02*
X6829530Y-3025700D01*
X6829530Y-2995700D02*
X6799530Y-3025700D01*
X6813060Y-2522840D02*
X6843060Y-2552840D01*
X6843060Y-2522840D02*
X6813060Y-2552840D01*
X6833100Y-3114380D02*
X6863100Y-3144380D01*
X6863100Y-3114380D02*
X6833100Y-3144380D01*
X6880920Y-1250910D02*
X6910920Y-1280910D01*
X6910920Y-1250910D02*
X6880920Y-1280910D01*
X6890520Y-1090520D02*
X6920520Y-1120520D01*
X6920520Y-1090520D02*
X6890520Y-1120520D01*
X7049270Y-2753870D02*
X7079270Y-2783870D01*
X7079270Y-2753870D02*
X7049270Y-2783870D01*
X7192810Y-3701320D02*
X7222810Y-3731320D01*
X7222810Y-3701320D02*
X7192810Y-3731320D01*
X7293140Y-3661150D02*
X7323140Y-3691150D01*
X7323140Y-3661150D02*
X7293140Y-3691150D01*
X7320000Y-5093630D02*
X7350000Y-5123630D01*
X7350000Y-5093630D02*
X7320000Y-5123630D01*
X7324920Y-3500170D02*
X7354920Y-3530170D01*
X7354920Y-3500170D02*
X7324920Y-3530170D01*
X7381250Y-4920690D02*
X7411250Y-4950690D01*
X7411250Y-4920690D02*
X7381250Y-4950690D01*
X7414130Y-2946410D02*
X7444130Y-2976410D01*
X7444130Y-2946410D02*
X7414130Y-2976410D01*
X7540230Y-4147600D02*
X7570230Y-4177600D01*
X7570230Y-4147600D02*
X7540230Y-4177600D01*
X7581650Y-4382630D02*
X7611650Y-4412630D01*
X7611650Y-4382630D02*
X7581650Y-4412630D01*
X7697240Y-4800330D02*
X7727240Y-4830330D01*
X7727240Y-4800330D02*
X7697240Y-4830330D01*
X7698310Y-3477750D02*
X7728310Y-3507750D01*
X7728310Y-3477750D02*
X7698310Y-3507750D01*
X7738610Y-3906050D02*
X7768610Y-3936050D01*
X7768610Y-3906050D02*
X7738610Y-3936050D01*
X7755400Y-1074370D02*
X7785400Y-1104370D01*
X7785400Y-1074370D02*
X7755400Y-1104370D01*
X7762280Y-2653750D02*
X7792280Y-2683750D01*
X7792280Y-2653750D02*
X7762280Y-2683750D01*
X7764840Y-4730790D02*
X7794840Y-4760790D01*
X7794840Y-4730790D02*
X7764840Y-4760790D01*
X7780030Y-1736000D02*
X7810030Y-1766000D01*
X7810030Y-1736000D02*
X7780030Y-1766000D01*
X7786940Y-2560000D02*
X7816940Y-2590000D01*
X7816940Y-2560000D02*
X7786940Y-2590000D01*
X7788440Y-2410000D02*
X7818440Y-2440000D01*
X7818440Y-2410000D02*
X7788440Y-2440000D01*
X7804610Y-3578090D02*
X7834610Y-3608090D01*
X7834610Y-3578090D02*
X7804610Y-3608090D01*
X7857360Y-3184860D02*
X7887360Y-3214860D01*
X7887360Y-3184860D02*
X7857360Y-3214860D01*
X7866120Y-3362250D02*
X7896120Y-3392250D01*
X7896120Y-3362250D02*
X7866120Y-3392250D01*
X7913410Y-3063180D02*
X7943410Y-3093180D01*
X7943410Y-3063180D02*
X7913410Y-3093180D01*
X7930530Y-2927120D02*
X7960530Y-2957120D01*
X7960530Y-2927120D02*
X7930530Y-2957120D01*
X7973850Y-2830840D02*
X8003850Y-2860840D01*
X8003850Y-2830840D02*
X7973850Y-2860840D01*
X8040810Y-3063180D02*
X8070810Y-3093180D01*
X8070810Y-3063180D02*
X8040810Y-3093180D01*
X8053450Y-3544780D02*
X8083450Y-3574780D01*
X8083450Y-3544780D02*
X8053450Y-3574780D01*
X8066490Y-2298100D02*
X8096490Y-2328100D01*
X8096490Y-2298100D02*
X8066490Y-2328100D01*
X8143790Y-3886560D02*
X8173790Y-3916560D01*
X8173790Y-3886560D02*
X8143790Y-3916560D01*
X8252080Y-2716870D02*
X8282080Y-2746870D01*
X8282080Y-2716870D02*
X8252080Y-2746870D01*
X8258070Y-3426770D02*
X8288070Y-3456770D01*
X8288070Y-3426770D02*
X8258070Y-3456770D01*
X8267590Y-2265070D02*
X8297590Y-2295070D01*
X8297590Y-2265070D02*
X8267590Y-2295070D01*
X8277860Y-3589620D02*
X8307860Y-3619620D01*
X8307860Y-3589620D02*
X8277860Y-3619620D01*
X8344830Y-2759160D02*
X8374830Y-2789160D01*
X8374830Y-2759160D02*
X8344830Y-2789160D01*
X8370770Y-3089620D02*
X8400770Y-3119620D01*
X8400770Y-3089620D02*
X8370770Y-3119620D01*
X8423330Y-2823590D02*
X8453330Y-2853590D01*
X8453330Y-2823590D02*
X8423330Y-2853590D01*
X8429670Y-1688200D02*
X8459670Y-1718200D01*
X8459670Y-1688200D02*
X8429670Y-1718200D01*
X8463950Y-3302110D02*
X8493950Y-3332110D01*
X8493950Y-3302110D02*
X8463950Y-3332110D01*
X8479910Y-3550090D02*
X8509910Y-3580090D01*
X8509910Y-3550090D02*
X8479910Y-3580090D01*
X8480650Y-2096640D02*
X8510650Y-2126640D01*
X8510650Y-2096640D02*
X8480650Y-2126640D01*
X8486680Y-1626250D02*
X8516680Y-1656250D01*
X8516680Y-1626250D02*
X8486680Y-1656250D01*
X8520830Y-2823180D02*
X8550830Y-2853180D01*
X8550830Y-2823180D02*
X8520830Y-2853180D01*
X8533010Y-3186390D02*
X8563010Y-3216390D01*
X8563010Y-3186390D02*
X8533010Y-3216390D01*
X8640760Y-3789700D02*
X8670760Y-3819700D01*
X8670760Y-3789700D02*
X8640760Y-3819700D01*
X8869410Y-2452660D02*
X8899410Y-2482660D01*
X8899410Y-2452660D02*
X8869410Y-2482660D01*
X8872780Y-2156810D02*
X8902780Y-2186810D01*
X8902780Y-2156810D02*
X8872780Y-2186810D01*
X8912980Y-2327850D02*
X8942980Y-2357850D01*
X8942980Y-2327850D02*
X8912980Y-2357850D01*
X8922590Y-2512870D02*
X8952590Y-2542870D01*
X8952590Y-2512870D02*
X8922590Y-2542870D01*
X8926740Y-1784540D02*
X8956740Y-1814540D01*
X8956740Y-1784540D02*
X8926740Y-1814540D01*
X9008690Y-1768390D02*
X9038690Y-1798390D01*
X9038690Y-1768390D02*
X9008690Y-1798390D01*
X9181160Y-2063450D02*
X9211160Y-2093450D01*
X9211160Y-2063450D02*
X9181160Y-2093450D01*
X9182720Y-2149820D02*
X9212720Y-2179820D01*
X9212720Y-2149820D02*
X9182720Y-2179820D01*
X9255630Y-2561280D02*
X9285630Y-2591280D01*
X9285630Y-2561280D02*
X9255630Y-2591280D01*
X9277890Y-2129040D02*
X9307890Y-2159040D01*
X9307890Y-2129040D02*
X9277890Y-2159040D01*
X9378940Y-2277980D02*
X9408940Y-2307980D01*
X9408940Y-2277980D02*
X9378940Y-2307980D01*
X9432470Y-1684100D02*
X9462470Y-1714100D01*
X9462470Y-1684100D02*
X9432470Y-1714100D01*
X9481540Y-1773140D02*
X9511540Y-1803140D01*
X9511540Y-1773140D02*
X9481540Y-1803140D01*
X9553300Y-4147500D02*
X9583300Y-4177500D01*
X9583300Y-4147500D02*
X9553300Y-4177500D01*
X9595310Y-3610290D02*
X9625310Y-3640290D01*
X9625310Y-3610290D02*
X9595310Y-3640290D01*
X9740600Y-1188270D02*
X9770600Y-1218270D01*
X9770600Y-1188270D02*
X9740600Y-1218270D01*
X9791670Y-3590550D02*
X9821670Y-3620550D01*
X9821670Y-3590550D02*
X9791670Y-3620550D01*
X9803750Y-3777470D02*
X9833750Y-3807470D01*
X9833750Y-3777470D02*
X9803750Y-3807470D01*
X10040030Y-4298670D02*
X10070030Y-4328670D01*
X10070030Y-4298670D02*
X10040030Y-4328670D01*
X10063440Y-4218020D02*
X10093440Y-4248020D01*
X10093440Y-4218020D02*
X10063440Y-4248020D01*
X10108380Y-2362870D02*
X10138380Y-2392870D01*
X10138380Y-2362870D02*
X10108380Y-2392870D01*
X10125920Y-4012200D02*
X10155920Y-4042200D01*
X10155920Y-4012200D02*
X10125920Y-4042200D01*
X10169780Y-2621450D02*
X10199780Y-2651450D01*
X10199780Y-2621450D02*
X10169780Y-2651450D01*
X10273170Y-2510000D02*
X10303170Y-2540000D01*
X10303170Y-2510000D02*
X10273170Y-2540000D01*
X10292670Y-1592070D02*
X10322670Y-1622070D01*
X10322670Y-1592070D02*
X10292670Y-1622070D01*
X10375210Y-4017500D02*
X10405210Y-4047500D01*
X10405210Y-4017500D02*
X10375210Y-4047500D01*
X10376130Y-4163440D02*
X10406130Y-4193440D01*
X10406130Y-4163440D02*
X10376130Y-4193440D01*
X10378360Y-3918960D02*
X10408360Y-3948960D01*
X10408360Y-3918960D02*
X10378360Y-3948960D01*
X10378540Y-2417290D02*
X10408540Y-2447290D01*
X10408540Y-2417290D02*
X10378540Y-2447290D01*
X10483140Y-1397960D02*
X10513140Y-1427960D01*
X10513140Y-1397960D02*
X10483140Y-1427960D01*
X10519430Y-411280D02*
X10549430Y-441280D01*
X10549430Y-411280D02*
X10519430Y-441280D01*
X10555930Y-2282060D02*
X10585930Y-2312060D01*
X10585930Y-2282060D02*
X10555930Y-2312060D01*
X10581130Y-4083920D02*
X10611130Y-4113920D01*
X10611130Y-4083920D02*
X10581130Y-4113920D01*
X10627040Y-2439710D02*
X10657040Y-2469710D01*
X10657040Y-2439710D02*
X10627040Y-2469710D01*
X10711800Y-1663940D02*
X10741800Y-1693940D01*
X10741800Y-1663940D02*
X10711800Y-1693940D01*
X10782420Y-1248500D02*
X10812420Y-1278500D01*
X10812420Y-1248500D02*
X10782420Y-1278500D01*
X10816410Y-4099130D02*
X10846410Y-4129130D01*
X10846410Y-4099130D02*
X10816410Y-4129130D01*
X10862940Y-1907470D02*
X10892940Y-1937470D01*
X10892940Y-1907470D02*
X10862940Y-1937470D01*
X10873960Y-4467710D02*
X10903960Y-4497710D01*
X10903960Y-4467710D02*
X10873960Y-4497710D01*
X10890410Y-567720D02*
X10920410Y-597720D01*
X10920410Y-567720D02*
X10890410Y-597720D01*
X10906530Y-3587580D02*
X10936530Y-3617580D01*
X10936530Y-3587580D02*
X10906530Y-3617580D01*
X10927300Y-2297860D02*
X10957300Y-2327860D01*
X10957300Y-2297860D02*
X10927300Y-2327860D01*
X10999270Y-683110D02*
X11029270Y-713110D01*
X11029270Y-683110D02*
X10999270Y-713110D01*
X11012560Y-918500D02*
X11042560Y-948500D01*
X11042560Y-918500D02*
X11012560Y-948500D01*
X11020320Y-798500D02*
X11050320Y-828500D01*
X11050320Y-798500D02*
X11020320Y-828500D01*
X11089560Y-1803030D02*
X11119560Y-1833030D01*
X11119560Y-1803030D02*
X11089560Y-1833030D01*
X11124870Y-3409460D02*
X11154870Y-3439460D01*
X11154870Y-3409460D02*
X11124870Y-3439460D01*
X11142290Y-4527880D02*
X11172290Y-4557880D01*
X11172290Y-4527880D02*
X11142290Y-4557880D01*
X11210800Y-2950620D02*
X11240800Y-2980620D01*
X11240800Y-2950620D02*
X11210800Y-2980620D01*
X11218460Y-329020D02*
X11248460Y-359020D01*
X11248460Y-329020D02*
X11218460Y-359020D01*
X11219230Y-3589330D02*
X11249230Y-3619330D01*
X11249230Y-3589330D02*
X11219230Y-3619330D01*
X11228790Y-994500D02*
X11258790Y-1024500D01*
X11258790Y-994500D02*
X11228790Y-1024500D01*
X11424800Y-4707100D02*
X11454800Y-4737100D01*
X11454800Y-4707100D02*
X11424800Y-4737100D01*
X11531920Y-4833110D02*
X11561920Y-4863110D01*
X11561920Y-4833110D02*
X11531920Y-4863110D01*
X11534400Y-3558160D02*
X11564400Y-3588160D01*
X11564400Y-3558160D02*
X11534400Y-3588160D01*
X11548550Y-4002430D02*
X11578550Y-4032430D01*
X11578550Y-4002430D02*
X11548550Y-4032430D01*
X11593080Y-3737500D02*
X11623080Y-3767500D01*
X11623080Y-3737500D02*
X11593080Y-3767500D01*
X11705370Y-2403700D02*
X11735370Y-2433700D01*
X11735370Y-2403700D02*
X11705370Y-2433700D01*
X11857400Y-5441730D02*
X11887400Y-5471730D01*
X11887400Y-5441730D02*
X11857400Y-5471730D01*
X11939660Y-4237150D02*
X11969660Y-4267150D01*
X11969660Y-4237150D02*
X11939660Y-4267150D01*
X12082740Y-4102860D02*
X12112740Y-4132860D01*
X12112740Y-4102860D02*
X12082740Y-4132860D01*
X12186660Y-4026570D02*
X12216660Y-4056570D01*
X12216660Y-4026570D02*
X12186660Y-4056570D01*
X12206000Y-2751240D02*
X12236000Y-2781240D01*
X12236000Y-2751240D02*
X12206000Y-2781240D01*
X12322570Y-3930490D02*
X12352570Y-3960490D01*
X12352570Y-3930490D02*
X12322570Y-3960490D01*
X12463300Y-3866660D02*
X12493300Y-3896660D01*
X12493300Y-3866660D02*
X12463300Y-3896660D01*
X12991980Y-4360230D02*
X13021980Y-4390230D01*
X13021980Y-4360230D02*
X12991980Y-4390230D01*
X13024710Y-3799710D02*
X13054710Y-3829710D01*
X13054710Y-3799710D02*
X13024710Y-3829710D01*
X13308050Y-1910000D02*
X13338050Y-1940000D01*
X13338050Y-1910000D02*
X13308050Y-1940000D01*
X13317220Y-2054810D02*
X13347220Y-2084810D01*
X13347220Y-2054810D02*
X13317220Y-2084810D01*
X13299500Y-1568000D02*
G75*
G02*
X13239500Y-1568000I-30000J0D01*
G01*
X13239500Y-1568000D02*
G75*
G02*
X13299500Y-1568000I30000J0D01*
G01*
X13214500Y-1598000D02*
X13324500Y-1598000D01*
X13324500Y-1538000D02*
G75*
G02*
X13324500Y-1598000I0J-30000D01*
G01*
X13324500Y-1538000D02*
X13214500Y-1538000D01*
X13214500Y-1538000D02*
G75*
G03*
X13214500Y-1598000I0J-30000D01*
G01*
X13299500Y-2432000D02*
G75*
G02*
X13239500Y-2432000I-30000J0D01*
G01*
X13239500Y-2432000D02*
G75*
G02*
X13299500Y-2432000I30000J0D01*
G01*
X13214500Y-2462000D02*
X13324500Y-2462000D01*
X13324500Y-2402000D02*
G75*
G02*
X13324500Y-2462000I0J-30000D01*
G01*
X13324500Y-2402000D02*
X13214500Y-2402000D01*
X13214500Y-2402000D02*
G75*
G03*
X13214500Y-2462000I0J-30000D01*
G01*
X13717500Y-1568000D02*
G75*
G02*
X13657500Y-1568000I-30000J0D01*
G01*
X13657500Y-1568000D02*
G75*
G02*
X13717500Y-1568000I30000J0D01*
G01*
X13657500Y-1598000D02*
X13717500Y-1598000D01*
X13717500Y-1538000D02*
G75*
G02*
X13717500Y-1598000I0J-30000D01*
G01*
X13717500Y-1538000D02*
X13657500Y-1538000D01*
X13657500Y-1538000D02*
G75*
G03*
X13657500Y-1598000I0J-30000D01*
G01*
X13717500Y-2432000D02*
G75*
G02*
X13657500Y-2432000I-30000J0D01*
G01*
X13657500Y-2432000D02*
G75*
G02*
X13717500Y-2432000I30000J0D01*
G01*
X13657500Y-2462000D02*
X13717500Y-2462000D01*
X13717500Y-2402000D02*
G75*
G02*
X13717500Y-2462000I0J-30000D01*
G01*
X13717500Y-2402000D02*
X13657500Y-2402000D01*
X13657500Y-2402000D02*
G75*
G03*
X13657500Y-2462000I0J-30000D01*
G01*
X2960000Y-1510000D02*
X2960000Y-1610000D01*
X2910000Y-1560000D02*
X3010000Y-1560000D01*
X2960000Y-1860000D02*
X2960000Y-1960000D01*
X2910000Y-1910000D02*
X3010000Y-1910000D01*
X2960000Y-2210000D02*
X2960000Y-2310000D01*
X2910000Y-2260000D02*
X3010000Y-2260000D01*
X2960000Y-2560000D02*
X2960000Y-2660000D01*
X2910000Y-2610000D02*
X3010000Y-2610000D01*
X5650000Y-2950000D02*
X5650000Y-3050000D01*
X5600000Y-3000000D02*
X5700000Y-3000000D01*
X5740000Y-1320000D02*
X5740000Y-1420000D01*
X5690000Y-1370000D02*
X5790000Y-1370000D01*
X5740000Y-1574000D02*
X5740000Y-1674000D01*
X5690000Y-1624000D02*
X5790000Y-1624000D01*
X5740000Y-1828000D02*
X5740000Y-1928000D01*
X5690000Y-1878000D02*
X5790000Y-1878000D01*
X5740000Y-2082000D02*
X5740000Y-2182000D01*
X5690000Y-2132000D02*
X5790000Y-2132000D01*
X5740000Y-2336000D02*
X5740000Y-2436000D01*
X5690000Y-2386000D02*
X5790000Y-2386000D01*
X5740000Y-2590000D02*
X5740000Y-2690000D01*
X5690000Y-2640000D02*
X5790000Y-2640000D01*
X5904000Y-2950000D02*
X5904000Y-3050000D01*
X5854000Y-3000000D02*
X5954000Y-3000000D01*
X6158000Y-2950000D02*
X6158000Y-3050000D01*
X6108000Y-3000000D02*
X6208000Y-3000000D01*
X6400000Y-3350000D02*
X6400000Y-3450000D01*
X6350000Y-3400000D02*
X6450000Y-3400000D01*
X6654000Y-3350000D02*
X6654000Y-3450000D01*
X6604000Y-3400000D02*
X6704000Y-3400000D01*
X6908000Y-3350000D02*
X6908000Y-3450000D01*
X6858000Y-3400000D02*
X6958000Y-3400000D01*
X7162000Y-3350000D02*
X7162000Y-3450000D01*
X7112000Y-3400000D02*
X7212000Y-3400000D01*
X7416000Y-3350000D02*
X7416000Y-3450000D01*
X7366000Y-3400000D02*
X7466000Y-3400000D01*
D12*
X1672427Y-6542427D02*
X1672427Y-6457573D01*
X1587573Y-6457573D01*
X1587573Y-6542427D01*
X1672427Y-6542427D01*
X2022427Y-6542427D02*
X2022427Y-6457573D01*
X1937573Y-6457573D01*
X1937573Y-6542427D01*
X2022427Y-6542427D01*
X2372427Y-6542427D02*
X2372427Y-6457573D01*
X2287573Y-6457573D01*
X2287573Y-6542427D01*
X2372427Y-6542427D01*
X2722427Y-6542427D02*
X2722427Y-6457573D01*
X2637573Y-6457573D01*
X2637573Y-6542427D01*
X2722427Y-6542427D01*
X3072427Y-6542427D02*
X3072427Y-6457573D01*
X2987573Y-6457573D01*
X2987573Y-6542427D01*
X3072427Y-6542427D01*
X3342427Y-542427D02*
X3342427Y-457573D01*
X3257573Y-457573D01*
X3257573Y-542427D01*
X3342427Y-542427D01*
X3422427Y-6542427D02*
X3422427Y-6457573D01*
X3337573Y-6457573D01*
X3337573Y-6542427D01*
X3422427Y-6542427D01*
X3692427Y-542427D02*
X3692427Y-457573D01*
X3607573Y-457573D01*
X3607573Y-542427D01*
X3692427Y-542427D01*
X3772427Y-6542427D02*
X3772427Y-6457573D01*
X3687573Y-6457573D01*
X3687573Y-6542427D01*
X3772427Y-6542427D01*
X4842427Y-542427D02*
X4842427Y-457573D01*
X4757573Y-457573D01*
X4757573Y-542427D01*
X4842427Y-542427D01*
X5192427Y-542427D02*
X5192427Y-457573D01*
X5107573Y-457573D01*
X5107573Y-542427D01*
X5192427Y-542427D01*
X6072427Y-6542427D02*
X6072427Y-6457573D01*
X5987573Y-6457573D01*
X5987573Y-6542427D01*
X6072427Y-6542427D01*
X6342427Y-542427D02*
X6342427Y-457573D01*
X6257573Y-457573D01*
X6257573Y-542427D01*
X6342427Y-542427D01*
X6422427Y-6542427D02*
X6422427Y-6457573D01*
X6337573Y-6457573D01*
X6337573Y-6542427D01*
X6422427Y-6542427D01*
X6692427Y-542427D02*
X6692427Y-457573D01*
X6607573Y-457573D01*
X6607573Y-542427D01*
X6692427Y-542427D01*
X6772427Y-6542427D02*
X6772427Y-6457573D01*
X6687573Y-6457573D01*
X6687573Y-6542427D01*
X6772427Y-6542427D01*
X7042427Y-542427D02*
X7042427Y-457573D01*
X6957573Y-457573D01*
X6957573Y-542427D01*
X7042427Y-542427D01*
X7122427Y-6542427D02*
X7122427Y-6457573D01*
X7037573Y-6457573D01*
X7037573Y-6542427D01*
X7122427Y-6542427D01*
X7472427Y-6542427D02*
X7472427Y-6457573D01*
X7387573Y-6457573D01*
X7387573Y-6542427D01*
X7472427Y-6542427D01*
X7822427Y-6542427D02*
X7822427Y-6457573D01*
X7737573Y-6457573D01*
X7737573Y-6542427D01*
X7822427Y-6542427D01*
X8172427Y-6542427D02*
X8172427Y-6457573D01*
X8087573Y-6457573D01*
X8087573Y-6542427D01*
X8172427Y-6542427D01*
X8192427Y-542427D02*
X8192427Y-457573D01*
X8107573Y-457573D01*
X8107573Y-542427D01*
X8192427Y-542427D01*
X8542427Y-542427D02*
X8542427Y-457573D01*
X8457573Y-457573D01*
X8457573Y-542427D01*
X8542427Y-542427D01*
X8892427Y-542427D02*
X8892427Y-457573D01*
X8807573Y-457573D01*
X8807573Y-542427D01*
X8892427Y-542427D01*
X10042427Y-542427D02*
X10042427Y-457573D01*
X9957573Y-457573D01*
X9957573Y-542427D01*
X10042427Y-542427D01*
X10392427Y-542427D02*
X10392427Y-457573D01*
X10307573Y-457573D01*
X10307573Y-542427D01*
X10392427Y-542427D01*
X10472427Y-6542427D02*
X10472427Y-6457573D01*
X10387573Y-6457573D01*
X10387573Y-6542427D01*
X10472427Y-6542427D01*
X10742427Y-542427D02*
X10742427Y-457573D01*
X10657573Y-457573D01*
X10657573Y-542427D01*
X10742427Y-542427D01*
X10822427Y-6542427D02*
X10822427Y-6457573D01*
X10737573Y-6457573D01*
X10737573Y-6542427D01*
X10822427Y-6542427D01*
X11172427Y-6542427D02*
X11172427Y-6457573D01*
X11087573Y-6457573D01*
X11087573Y-6542427D01*
X11172427Y-6542427D01*
X11522427Y-6542427D02*
X11522427Y-6457573D01*
X11437573Y-6457573D01*
X11437573Y-6542427D01*
X11522427Y-6542427D01*
X11872427Y-6542427D02*
X11872427Y-6457573D01*
X11787573Y-6457573D01*
X11787573Y-6542427D01*
X11872427Y-6542427D01*
X12222427Y-6542427D02*
X12222427Y-6457573D01*
X12137573Y-6457573D01*
X12137573Y-6542427D01*
X12222427Y-6542427D01*
X12572427Y-6542427D02*
X12572427Y-6457573D01*
X12487573Y-6457573D01*
X12487573Y-6542427D01*
X12572427Y-6542427D01*
D11*
X255777Y-7316484D02*
X255777Y-7116484D01*
X255777Y-7116484D02*
X303396Y-7116484D01*
X303396Y-7116484D02*
X331967Y-7126008D01*
X331967Y-7126008D02*
X351015Y-7145055D01*
X351015Y-7145055D02*
X360539Y-7164103D01*
X360539Y-7164103D02*
X370062Y-7202198D01*
X370062Y-7202198D02*
X370062Y-7230769D01*
X370062Y-7230769D02*
X360539Y-7268865D01*
X360539Y-7268865D02*
X351015Y-7287912D01*
X351015Y-7287912D02*
X331967Y-7306960D01*
X331967Y-7306960D02*
X303396Y-7316484D01*
X303396Y-7316484D02*
X255777Y-7316484D01*
X455777Y-7316484D02*
X455777Y-7183150D01*
X455777Y-7221246D02*
X465301Y-7202198D01*
X465301Y-7202198D02*
X474824Y-7192674D01*
X474824Y-7192674D02*
X493872Y-7183150D01*
X493872Y-7183150D02*
X512920Y-7183150D01*
X579586Y-7316484D02*
X579586Y-7183150D01*
X579586Y-7116484D02*
X570063Y-7126008D01*
X570063Y-7126008D02*
X579586Y-7135531D01*
X579586Y-7135531D02*
X589110Y-7126008D01*
X589110Y-7126008D02*
X579586Y-7116484D01*
X579586Y-7116484D02*
X579586Y-7135531D01*
X703396Y-7316484D02*
X684348Y-7306960D01*
X684348Y-7306960D02*
X674824Y-7287912D01*
X674824Y-7287912D02*
X674824Y-7116484D01*
X808158Y-7316484D02*
X789110Y-7306960D01*
X789110Y-7306960D02*
X779586Y-7287912D01*
X779586Y-7287912D02*
X779586Y-7116484D01*
X1036729Y-7316484D02*
X1036729Y-7116484D01*
X1036729Y-7116484D02*
X1103396Y-7259341D01*
X1103396Y-7259341D02*
X1170063Y-7116484D01*
X1170063Y-7116484D02*
X1170063Y-7316484D01*
X1351015Y-7316484D02*
X1351015Y-7211722D01*
X1351015Y-7211722D02*
X1341491Y-7192674D01*
X1341491Y-7192674D02*
X1322444Y-7183150D01*
X1322444Y-7183150D02*
X1284348Y-7183150D01*
X1284348Y-7183150D02*
X1265301Y-7192674D01*
X1351015Y-7306960D02*
X1331967Y-7316484D01*
X1331967Y-7316484D02*
X1284348Y-7316484D01*
X1284348Y-7316484D02*
X1265301Y-7306960D01*
X1265301Y-7306960D02*
X1255777Y-7287912D01*
X1255777Y-7287912D02*
X1255777Y-7268865D01*
X1255777Y-7268865D02*
X1265301Y-7249817D01*
X1265301Y-7249817D02*
X1284348Y-7240293D01*
X1284348Y-7240293D02*
X1331967Y-7240293D01*
X1331967Y-7240293D02*
X1351015Y-7230769D01*
X1446253Y-7183150D02*
X1446253Y-7383150D01*
X1446253Y-7192674D02*
X1465301Y-7183150D01*
X1465301Y-7183150D02*
X1503396Y-7183150D01*
X1503396Y-7183150D02*
X1522443Y-7192674D01*
X1522443Y-7192674D02*
X1531967Y-7202198D01*
X1531967Y-7202198D02*
X1541491Y-7221246D01*
X1541491Y-7221246D02*
X1541491Y-7278388D01*
X1541491Y-7278388D02*
X1531967Y-7297436D01*
X1531967Y-7297436D02*
X1522443Y-7306960D01*
X1522443Y-7306960D02*
X1503396Y-7316484D01*
X1503396Y-7316484D02*
X1465301Y-7316484D01*
X1465301Y-7316484D02*
X1446253Y-7306960D01*
X1627205Y-7297436D02*
X1636729Y-7306960D01*
X1636729Y-7306960D02*
X1627205Y-7316484D01*
X1627205Y-7316484D02*
X1617682Y-7306960D01*
X1617682Y-7306960D02*
X1627205Y-7297436D01*
X1627205Y-7297436D02*
X1627205Y-7316484D01*
X1627205Y-7192674D02*
X1636729Y-7202198D01*
X1636729Y-7202198D02*
X1627205Y-7211722D01*
X1627205Y-7211722D02*
X1617682Y-7202198D01*
X1617682Y-7202198D02*
X1627205Y-7192674D01*
X1627205Y-7192674D02*
X1627205Y-7211722D01*
D10*
X-35000Y-7630000D02*
X-5000Y-7660000D01*
X-5000Y-7630000D02*
X-35000Y-7660000D01*
D11*
X293872Y-7536484D02*
X312920Y-7536484D01*
X312920Y-7536484D02*
X331967Y-7546008D01*
X331967Y-7546008D02*
X341491Y-7555531D01*
X341491Y-7555531D02*
X351015Y-7574579D01*
X351015Y-7574579D02*
X360539Y-7612674D01*
X360539Y-7612674D02*
X360539Y-7660293D01*
X360539Y-7660293D02*
X351015Y-7698388D01*
X351015Y-7698388D02*
X341491Y-7717436D01*
X341491Y-7717436D02*
X331967Y-7726960D01*
X331967Y-7726960D02*
X312920Y-7736484D01*
X312920Y-7736484D02*
X293872Y-7736484D01*
X293872Y-7736484D02*
X274824Y-7726960D01*
X274824Y-7726960D02*
X265301Y-7717436D01*
X265301Y-7717436D02*
X255777Y-7698388D01*
X255777Y-7698388D02*
X246253Y-7660293D01*
X246253Y-7660293D02*
X246253Y-7612674D01*
X246253Y-7612674D02*
X255777Y-7574579D01*
X255777Y-7574579D02*
X265301Y-7555531D01*
X265301Y-7555531D02*
X274824Y-7546008D01*
X274824Y-7546008D02*
X293872Y-7536484D01*
X446253Y-7717436D02*
X455777Y-7726960D01*
X455777Y-7726960D02*
X446253Y-7736484D01*
X446253Y-7736484D02*
X436729Y-7726960D01*
X436729Y-7726960D02*
X446253Y-7717436D01*
X446253Y-7717436D02*
X446253Y-7736484D01*
X522443Y-7536484D02*
X646253Y-7536484D01*
X646253Y-7536484D02*
X579586Y-7612674D01*
X579586Y-7612674D02*
X608158Y-7612674D01*
X608158Y-7612674D02*
X627205Y-7622198D01*
X627205Y-7622198D02*
X636729Y-7631722D01*
X636729Y-7631722D02*
X646253Y-7650769D01*
X646253Y-7650769D02*
X646253Y-7698388D01*
X646253Y-7698388D02*
X636729Y-7717436D01*
X636729Y-7717436D02*
X627205Y-7726960D01*
X627205Y-7726960D02*
X608158Y-7736484D01*
X608158Y-7736484D02*
X551015Y-7736484D01*
X551015Y-7736484D02*
X531967Y-7726960D01*
X531967Y-7726960D02*
X522443Y-7717436D01*
X770062Y-7536484D02*
X789110Y-7536484D01*
X789110Y-7536484D02*
X808158Y-7546008D01*
X808158Y-7546008D02*
X817682Y-7555531D01*
X817682Y-7555531D02*
X827205Y-7574579D01*
X827205Y-7574579D02*
X836729Y-7612674D01*
X836729Y-7612674D02*
X836729Y-7660293D01*
X836729Y-7660293D02*
X827205Y-7698388D01*
X827205Y-7698388D02*
X817682Y-7717436D01*
X817682Y-7717436D02*
X808158Y-7726960D01*
X808158Y-7726960D02*
X789110Y-7736484D01*
X789110Y-7736484D02*
X770062Y-7736484D01*
X770062Y-7736484D02*
X751015Y-7726960D01*
X751015Y-7726960D02*
X741491Y-7717436D01*
X741491Y-7717436D02*
X731967Y-7698388D01*
X731967Y-7698388D02*
X722443Y-7660293D01*
X722443Y-7660293D02*
X722443Y-7612674D01*
X722443Y-7612674D02*
X731967Y-7574579D01*
X731967Y-7574579D02*
X741491Y-7555531D01*
X741491Y-7555531D02*
X751015Y-7546008D01*
X751015Y-7546008D02*
X770062Y-7536484D01*
X960539Y-7536484D02*
X979586Y-7536484D01*
X979586Y-7536484D02*
X998634Y-7546008D01*
X998634Y-7546008D02*
X1008158Y-7555531D01*
X1008158Y-7555531D02*
X1017682Y-7574579D01*
X1017682Y-7574579D02*
X1027205Y-7612674D01*
X1027205Y-7612674D02*
X1027205Y-7660293D01*
X1027205Y-7660293D02*
X1017682Y-7698388D01*
X1017682Y-7698388D02*
X1008158Y-7717436D01*
X1008158Y-7717436D02*
X998634Y-7726960D01*
X998634Y-7726960D02*
X979586Y-7736484D01*
X979586Y-7736484D02*
X960539Y-7736484D01*
X960539Y-7736484D02*
X941491Y-7726960D01*
X941491Y-7726960D02*
X931967Y-7717436D01*
X931967Y-7717436D02*
X922443Y-7698388D01*
X922443Y-7698388D02*
X912920Y-7660293D01*
X912920Y-7660293D02*
X912920Y-7612674D01*
X912920Y-7612674D02*
X922443Y-7574579D01*
X922443Y-7574579D02*
X931967Y-7555531D01*
X931967Y-7555531D02*
X941491Y-7546008D01*
X941491Y-7546008D02*
X960539Y-7536484D01*
X1112920Y-7736484D02*
X1112920Y-7603150D01*
X1112920Y-7622198D02*
X1122444Y-7612674D01*
X1122444Y-7612674D02*
X1141491Y-7603150D01*
X1141491Y-7603150D02*
X1170063Y-7603150D01*
X1170063Y-7603150D02*
X1189110Y-7612674D01*
X1189110Y-7612674D02*
X1198634Y-7631722D01*
X1198634Y-7631722D02*
X1198634Y-7736484D01*
X1198634Y-7631722D02*
X1208158Y-7612674D01*
X1208158Y-7612674D02*
X1227205Y-7603150D01*
X1227205Y-7603150D02*
X1255777Y-7603150D01*
X1255777Y-7603150D02*
X1274825Y-7612674D01*
X1274825Y-7612674D02*
X1284348Y-7631722D01*
X1284348Y-7631722D02*
X1284348Y-7736484D01*
X1379586Y-7736484D02*
X1379586Y-7603150D01*
X1379586Y-7622198D02*
X1389110Y-7612674D01*
X1389110Y-7612674D02*
X1408158Y-7603150D01*
X1408158Y-7603150D02*
X1436729Y-7603150D01*
X1436729Y-7603150D02*
X1455777Y-7612674D01*
X1455777Y-7612674D02*
X1465301Y-7631722D01*
X1465301Y-7631722D02*
X1465301Y-7736484D01*
X1465301Y-7631722D02*
X1474824Y-7612674D01*
X1474824Y-7612674D02*
X1493872Y-7603150D01*
X1493872Y-7603150D02*
X1522443Y-7603150D01*
X1522443Y-7603150D02*
X1541491Y-7612674D01*
X1541491Y-7612674D02*
X1551015Y-7631722D01*
X1551015Y-7631722D02*
X1551015Y-7736484D01*
X1941491Y-7526960D02*
X1770063Y-7784103D01*
X2198634Y-7536484D02*
X2217682Y-7536484D01*
X2217682Y-7536484D02*
X2236729Y-7546008D01*
X2236729Y-7546008D02*
X2246253Y-7555531D01*
X2246253Y-7555531D02*
X2255777Y-7574579D01*
X2255777Y-7574579D02*
X2265301Y-7612674D01*
X2265301Y-7612674D02*
X2265301Y-7660293D01*
X2265301Y-7660293D02*
X2255777Y-7698388D01*
X2255777Y-7698388D02*
X2246253Y-7717436D01*
X2246253Y-7717436D02*
X2236729Y-7726960D01*
X2236729Y-7726960D02*
X2217682Y-7736484D01*
X2217682Y-7736484D02*
X2198634Y-7736484D01*
X2198634Y-7736484D02*
X2179587Y-7726960D01*
X2179587Y-7726960D02*
X2170063Y-7717436D01*
X2170063Y-7717436D02*
X2160539Y-7698388D01*
X2160539Y-7698388D02*
X2151015Y-7660293D01*
X2151015Y-7660293D02*
X2151015Y-7612674D01*
X2151015Y-7612674D02*
X2160539Y-7574579D01*
X2160539Y-7574579D02*
X2170063Y-7555531D01*
X2170063Y-7555531D02*
X2179587Y-7546008D01*
X2179587Y-7546008D02*
X2198634Y-7536484D01*
X2351015Y-7717436D02*
X2360539Y-7726960D01*
X2360539Y-7726960D02*
X2351015Y-7736484D01*
X2351015Y-7736484D02*
X2341491Y-7726960D01*
X2341491Y-7726960D02*
X2351015Y-7717436D01*
X2351015Y-7717436D02*
X2351015Y-7736484D01*
X2484348Y-7536484D02*
X2503396Y-7536484D01*
X2503396Y-7536484D02*
X2522444Y-7546008D01*
X2522444Y-7546008D02*
X2531968Y-7555531D01*
X2531968Y-7555531D02*
X2541491Y-7574579D01*
X2541491Y-7574579D02*
X2551015Y-7612674D01*
X2551015Y-7612674D02*
X2551015Y-7660293D01*
X2551015Y-7660293D02*
X2541491Y-7698388D01*
X2541491Y-7698388D02*
X2531968Y-7717436D01*
X2531968Y-7717436D02*
X2522444Y-7726960D01*
X2522444Y-7726960D02*
X2503396Y-7736484D01*
X2503396Y-7736484D02*
X2484348Y-7736484D01*
X2484348Y-7736484D02*
X2465301Y-7726960D01*
X2465301Y-7726960D02*
X2455777Y-7717436D01*
X2455777Y-7717436D02*
X2446253Y-7698388D01*
X2446253Y-7698388D02*
X2436729Y-7660293D01*
X2436729Y-7660293D02*
X2436729Y-7612674D01*
X2436729Y-7612674D02*
X2446253Y-7574579D01*
X2446253Y-7574579D02*
X2455777Y-7555531D01*
X2455777Y-7555531D02*
X2465301Y-7546008D01*
X2465301Y-7546008D02*
X2484348Y-7536484D01*
X2741491Y-7736484D02*
X2627206Y-7736484D01*
X2684348Y-7736484D02*
X2684348Y-7536484D01*
X2684348Y-7536484D02*
X2665301Y-7565055D01*
X2665301Y-7565055D02*
X2646253Y-7584103D01*
X2646253Y-7584103D02*
X2627206Y-7593627D01*
X2931967Y-7736484D02*
X2817682Y-7736484D01*
X2874825Y-7736484D02*
X2874825Y-7536484D01*
X2874825Y-7536484D02*
X2855777Y-7565055D01*
X2855777Y-7565055D02*
X2836729Y-7584103D01*
X2836729Y-7584103D02*
X2817682Y-7593627D01*
X3046253Y-7622198D02*
X3027206Y-7612674D01*
X3027206Y-7612674D02*
X3017682Y-7603150D01*
X3017682Y-7603150D02*
X3008158Y-7584103D01*
X3008158Y-7584103D02*
X3008158Y-7574579D01*
X3008158Y-7574579D02*
X3017682Y-7555531D01*
X3017682Y-7555531D02*
X3027206Y-7546008D01*
X3027206Y-7546008D02*
X3046253Y-7536484D01*
X3046253Y-7536484D02*
X3084348Y-7536484D01*
X3084348Y-7536484D02*
X3103396Y-7546008D01*
X3103396Y-7546008D02*
X3112920Y-7555531D01*
X3112920Y-7555531D02*
X3122444Y-7574579D01*
X3122444Y-7574579D02*
X3122444Y-7584103D01*
X3122444Y-7584103D02*
X3112920Y-7603150D01*
X3112920Y-7603150D02*
X3103396Y-7612674D01*
X3103396Y-7612674D02*
X3084348Y-7622198D01*
X3084348Y-7622198D02*
X3046253Y-7622198D01*
X3046253Y-7622198D02*
X3027206Y-7631722D01*
X3027206Y-7631722D02*
X3017682Y-7641246D01*
X3017682Y-7641246D02*
X3008158Y-7660293D01*
X3008158Y-7660293D02*
X3008158Y-7698388D01*
X3008158Y-7698388D02*
X3017682Y-7717436D01*
X3017682Y-7717436D02*
X3027206Y-7726960D01*
X3027206Y-7726960D02*
X3046253Y-7736484D01*
X3046253Y-7736484D02*
X3084348Y-7736484D01*
X3084348Y-7736484D02*
X3103396Y-7726960D01*
X3103396Y-7726960D02*
X3112920Y-7717436D01*
X3112920Y-7717436D02*
X3122444Y-7698388D01*
X3122444Y-7698388D02*
X3122444Y-7660293D01*
X3122444Y-7660293D02*
X3112920Y-7641246D01*
X3112920Y-7641246D02*
X3103396Y-7631722D01*
X3103396Y-7631722D02*
X3084348Y-7622198D01*
X3198634Y-7536484D02*
X3198634Y-7574579D01*
X3274825Y-7536484D02*
X3274825Y-7574579D01*
X3570063Y-7812674D02*
X3560539Y-7803150D01*
X3560539Y-7803150D02*
X3541491Y-7774579D01*
X3541491Y-7774579D02*
X3531968Y-7755531D01*
X3531968Y-7755531D02*
X3522444Y-7726960D01*
X3522444Y-7726960D02*
X3512920Y-7679341D01*
X3512920Y-7679341D02*
X3512920Y-7641246D01*
X3512920Y-7641246D02*
X3522444Y-7593627D01*
X3522444Y-7593627D02*
X3531968Y-7565055D01*
X3531968Y-7565055D02*
X3541491Y-7546008D01*
X3541491Y-7546008D02*
X3560539Y-7517436D01*
X3560539Y-7517436D02*
X3570063Y-7507912D01*
X3751015Y-7736484D02*
X3636729Y-7736484D01*
X3693872Y-7736484D02*
X3693872Y-7536484D01*
X3693872Y-7536484D02*
X3674825Y-7565055D01*
X3674825Y-7565055D02*
X3655777Y-7584103D01*
X3655777Y-7584103D02*
X3636729Y-7593627D01*
X3922444Y-7536484D02*
X3884348Y-7536484D01*
X3884348Y-7536484D02*
X3865301Y-7546008D01*
X3865301Y-7546008D02*
X3855777Y-7555531D01*
X3855777Y-7555531D02*
X3836729Y-7584103D01*
X3836729Y-7584103D02*
X3827206Y-7622198D01*
X3827206Y-7622198D02*
X3827206Y-7698388D01*
X3827206Y-7698388D02*
X3836729Y-7717436D01*
X3836729Y-7717436D02*
X3846253Y-7726960D01*
X3846253Y-7726960D02*
X3865301Y-7736484D01*
X3865301Y-7736484D02*
X3903396Y-7736484D01*
X3903396Y-7736484D02*
X3922444Y-7726960D01*
X3922444Y-7726960D02*
X3931968Y-7717436D01*
X3931968Y-7717436D02*
X3941491Y-7698388D01*
X3941491Y-7698388D02*
X3941491Y-7650769D01*
X3941491Y-7650769D02*
X3931968Y-7631722D01*
X3931968Y-7631722D02*
X3922444Y-7622198D01*
X3922444Y-7622198D02*
X3903396Y-7612674D01*
X3903396Y-7612674D02*
X3865301Y-7612674D01*
X3865301Y-7612674D02*
X3846253Y-7622198D01*
X3846253Y-7622198D02*
X3836729Y-7631722D01*
X3836729Y-7631722D02*
X3827206Y-7650769D01*
X4112920Y-7536484D02*
X4074825Y-7536484D01*
X4074825Y-7536484D02*
X4055777Y-7546008D01*
X4055777Y-7546008D02*
X4046253Y-7555531D01*
X4046253Y-7555531D02*
X4027206Y-7584103D01*
X4027206Y-7584103D02*
X4017682Y-7622198D01*
X4017682Y-7622198D02*
X4017682Y-7698388D01*
X4017682Y-7698388D02*
X4027206Y-7717436D01*
X4027206Y-7717436D02*
X4036729Y-7726960D01*
X4036729Y-7726960D02*
X4055777Y-7736484D01*
X4055777Y-7736484D02*
X4093872Y-7736484D01*
X4093872Y-7736484D02*
X4112920Y-7726960D01*
X4112920Y-7726960D02*
X4122444Y-7717436D01*
X4122444Y-7717436D02*
X4131968Y-7698388D01*
X4131968Y-7698388D02*
X4131968Y-7650769D01*
X4131968Y-7650769D02*
X4122444Y-7631722D01*
X4122444Y-7631722D02*
X4112920Y-7622198D01*
X4112920Y-7622198D02*
X4093872Y-7612674D01*
X4093872Y-7612674D02*
X4055777Y-7612674D01*
X4055777Y-7612674D02*
X4036729Y-7622198D01*
X4036729Y-7622198D02*
X4027206Y-7631722D01*
X4027206Y-7631722D02*
X4017682Y-7650769D01*
X4370063Y-7736484D02*
X4370063Y-7536484D01*
X4455777Y-7736484D02*
X4455777Y-7631722D01*
X4455777Y-7631722D02*
X4446253Y-7612674D01*
X4446253Y-7612674D02*
X4427206Y-7603150D01*
X4427206Y-7603150D02*
X4398634Y-7603150D01*
X4398634Y-7603150D02*
X4379587Y-7612674D01*
X4379587Y-7612674D02*
X4370063Y-7622198D01*
X4579587Y-7736484D02*
X4560539Y-7726960D01*
X4560539Y-7726960D02*
X4551015Y-7717436D01*
X4551015Y-7717436D02*
X4541492Y-7698388D01*
X4541492Y-7698388D02*
X4541492Y-7641246D01*
X4541492Y-7641246D02*
X4551015Y-7622198D01*
X4551015Y-7622198D02*
X4560539Y-7612674D01*
X4560539Y-7612674D02*
X4579587Y-7603150D01*
X4579587Y-7603150D02*
X4608158Y-7603150D01*
X4608158Y-7603150D02*
X4627206Y-7612674D01*
X4627206Y-7612674D02*
X4636730Y-7622198D01*
X4636730Y-7622198D02*
X4646253Y-7641246D01*
X4646253Y-7641246D02*
X4646253Y-7698388D01*
X4646253Y-7698388D02*
X4636730Y-7717436D01*
X4636730Y-7717436D02*
X4627206Y-7726960D01*
X4627206Y-7726960D02*
X4608158Y-7736484D01*
X4608158Y-7736484D02*
X4579587Y-7736484D01*
X4760539Y-7736484D02*
X4741492Y-7726960D01*
X4741492Y-7726960D02*
X4731968Y-7707912D01*
X4731968Y-7707912D02*
X4731968Y-7536484D01*
X4912920Y-7726960D02*
X4893873Y-7736484D01*
X4893873Y-7736484D02*
X4855777Y-7736484D01*
X4855777Y-7736484D02*
X4836730Y-7726960D01*
X4836730Y-7726960D02*
X4827206Y-7707912D01*
X4827206Y-7707912D02*
X4827206Y-7631722D01*
X4827206Y-7631722D02*
X4836730Y-7612674D01*
X4836730Y-7612674D02*
X4855777Y-7603150D01*
X4855777Y-7603150D02*
X4893873Y-7603150D01*
X4893873Y-7603150D02*
X4912920Y-7612674D01*
X4912920Y-7612674D02*
X4922444Y-7631722D01*
X4922444Y-7631722D02*
X4922444Y-7650769D01*
X4922444Y-7650769D02*
X4827206Y-7669817D01*
X4998634Y-7726960D02*
X5017682Y-7736484D01*
X5017682Y-7736484D02*
X5055777Y-7736484D01*
X5055777Y-7736484D02*
X5074825Y-7726960D01*
X5074825Y-7726960D02*
X5084349Y-7707912D01*
X5084349Y-7707912D02*
X5084349Y-7698388D01*
X5084349Y-7698388D02*
X5074825Y-7679341D01*
X5074825Y-7679341D02*
X5055777Y-7669817D01*
X5055777Y-7669817D02*
X5027206Y-7669817D01*
X5027206Y-7669817D02*
X5008158Y-7660293D01*
X5008158Y-7660293D02*
X4998634Y-7641246D01*
X4998634Y-7641246D02*
X4998634Y-7631722D01*
X4998634Y-7631722D02*
X5008158Y-7612674D01*
X5008158Y-7612674D02*
X5027206Y-7603150D01*
X5027206Y-7603150D02*
X5055777Y-7603150D01*
X5055777Y-7603150D02*
X5074825Y-7612674D01*
X5151015Y-7812674D02*
X5160539Y-7803150D01*
X5160539Y-7803150D02*
X5179587Y-7774579D01*
X5179587Y-7774579D02*
X5189111Y-7755531D01*
X5189111Y-7755531D02*
X5198634Y-7726960D01*
X5198634Y-7726960D02*
X5208158Y-7679341D01*
X5208158Y-7679341D02*
X5208158Y-7641246D01*
X5208158Y-7641246D02*
X5198634Y-7593627D01*
X5198634Y-7593627D02*
X5189111Y-7565055D01*
X5189111Y-7565055D02*
X5179587Y-7546008D01*
X5179587Y-7546008D02*
X5160539Y-7517436D01*
X5160539Y-7517436D02*
X5151015Y-7507912D01*
D10*
X-5000Y-7909000D02*
G75*
G02*
X-65000Y-7909000I-30000J0D01*
G01*
X-65000Y-7909000D02*
G75*
G02*
X-5000Y-7909000I30000J0D01*
G01*
D11*
X293872Y-7800484D02*
X312920Y-7800484D01*
X312920Y-7800484D02*
X331967Y-7810008D01*
X331967Y-7810008D02*
X341491Y-7819531D01*
X341491Y-7819531D02*
X351015Y-7838579D01*
X351015Y-7838579D02*
X360539Y-7876674D01*
X360539Y-7876674D02*
X360539Y-7924293D01*
X360539Y-7924293D02*
X351015Y-7962388D01*
X351015Y-7962388D02*
X341491Y-7981436D01*
X341491Y-7981436D02*
X331967Y-7990960D01*
X331967Y-7990960D02*
X312920Y-8000484D01*
X312920Y-8000484D02*
X293872Y-8000484D01*
X293872Y-8000484D02*
X274824Y-7990960D01*
X274824Y-7990960D02*
X265301Y-7981436D01*
X265301Y-7981436D02*
X255777Y-7962388D01*
X255777Y-7962388D02*
X246253Y-7924293D01*
X246253Y-7924293D02*
X246253Y-7876674D01*
X246253Y-7876674D02*
X255777Y-7838579D01*
X255777Y-7838579D02*
X265301Y-7819531D01*
X265301Y-7819531D02*
X274824Y-7810008D01*
X274824Y-7810008D02*
X293872Y-7800484D01*
X446253Y-7981436D02*
X455777Y-7990960D01*
X455777Y-7990960D02*
X446253Y-8000484D01*
X446253Y-8000484D02*
X436729Y-7990960D01*
X436729Y-7990960D02*
X446253Y-7981436D01*
X446253Y-7981436D02*
X446253Y-8000484D01*
X627205Y-7800484D02*
X589110Y-7800484D01*
X589110Y-7800484D02*
X570063Y-7810008D01*
X570063Y-7810008D02*
X560539Y-7819531D01*
X560539Y-7819531D02*
X541491Y-7848103D01*
X541491Y-7848103D02*
X531967Y-7886198D01*
X531967Y-7886198D02*
X531967Y-7962388D01*
X531967Y-7962388D02*
X541491Y-7981436D01*
X541491Y-7981436D02*
X551015Y-7990960D01*
X551015Y-7990960D02*
X570063Y-8000484D01*
X570063Y-8000484D02*
X608158Y-8000484D01*
X608158Y-8000484D02*
X627205Y-7990960D01*
X627205Y-7990960D02*
X636729Y-7981436D01*
X636729Y-7981436D02*
X646253Y-7962388D01*
X646253Y-7962388D02*
X646253Y-7914769D01*
X646253Y-7914769D02*
X636729Y-7895722D01*
X636729Y-7895722D02*
X627205Y-7886198D01*
X627205Y-7886198D02*
X608158Y-7876674D01*
X608158Y-7876674D02*
X570063Y-7876674D01*
X570063Y-7876674D02*
X551015Y-7886198D01*
X551015Y-7886198D02*
X541491Y-7895722D01*
X541491Y-7895722D02*
X531967Y-7914769D01*
X770062Y-7800484D02*
X789110Y-7800484D01*
X789110Y-7800484D02*
X808158Y-7810008D01*
X808158Y-7810008D02*
X817682Y-7819531D01*
X817682Y-7819531D02*
X827205Y-7838579D01*
X827205Y-7838579D02*
X836729Y-7876674D01*
X836729Y-7876674D02*
X836729Y-7924293D01*
X836729Y-7924293D02*
X827205Y-7962388D01*
X827205Y-7962388D02*
X817682Y-7981436D01*
X817682Y-7981436D02*
X808158Y-7990960D01*
X808158Y-7990960D02*
X789110Y-8000484D01*
X789110Y-8000484D02*
X770062Y-8000484D01*
X770062Y-8000484D02*
X751015Y-7990960D01*
X751015Y-7990960D02*
X741491Y-7981436D01*
X741491Y-7981436D02*
X731967Y-7962388D01*
X731967Y-7962388D02*
X722443Y-7924293D01*
X722443Y-7924293D02*
X722443Y-7876674D01*
X722443Y-7876674D02*
X731967Y-7838579D01*
X731967Y-7838579D02*
X741491Y-7819531D01*
X741491Y-7819531D02*
X751015Y-7810008D01*
X751015Y-7810008D02*
X770062Y-7800484D01*
X960539Y-7800484D02*
X979586Y-7800484D01*
X979586Y-7800484D02*
X998634Y-7810008D01*
X998634Y-7810008D02*
X1008158Y-7819531D01*
X1008158Y-7819531D02*
X1017682Y-7838579D01*
X1017682Y-7838579D02*
X1027205Y-7876674D01*
X1027205Y-7876674D02*
X1027205Y-7924293D01*
X1027205Y-7924293D02*
X1017682Y-7962388D01*
X1017682Y-7962388D02*
X1008158Y-7981436D01*
X1008158Y-7981436D02*
X998634Y-7990960D01*
X998634Y-7990960D02*
X979586Y-8000484D01*
X979586Y-8000484D02*
X960539Y-8000484D01*
X960539Y-8000484D02*
X941491Y-7990960D01*
X941491Y-7990960D02*
X931967Y-7981436D01*
X931967Y-7981436D02*
X922443Y-7962388D01*
X922443Y-7962388D02*
X912920Y-7924293D01*
X912920Y-7924293D02*
X912920Y-7876674D01*
X912920Y-7876674D02*
X922443Y-7838579D01*
X922443Y-7838579D02*
X931967Y-7819531D01*
X931967Y-7819531D02*
X941491Y-7810008D01*
X941491Y-7810008D02*
X960539Y-7800484D01*
X1112920Y-8000484D02*
X1112920Y-7867150D01*
X1112920Y-7886198D02*
X1122444Y-7876674D01*
X1122444Y-7876674D02*
X1141491Y-7867150D01*
X1141491Y-7867150D02*
X1170063Y-7867150D01*
X1170063Y-7867150D02*
X1189110Y-7876674D01*
X1189110Y-7876674D02*
X1198634Y-7895722D01*
X1198634Y-7895722D02*
X1198634Y-8000484D01*
X1198634Y-7895722D02*
X1208158Y-7876674D01*
X1208158Y-7876674D02*
X1227205Y-7867150D01*
X1227205Y-7867150D02*
X1255777Y-7867150D01*
X1255777Y-7867150D02*
X1274825Y-7876674D01*
X1274825Y-7876674D02*
X1284348Y-7895722D01*
X1284348Y-7895722D02*
X1284348Y-8000484D01*
X1379586Y-8000484D02*
X1379586Y-7867150D01*
X1379586Y-7886198D02*
X1389110Y-7876674D01*
X1389110Y-7876674D02*
X1408158Y-7867150D01*
X1408158Y-7867150D02*
X1436729Y-7867150D01*
X1436729Y-7867150D02*
X1455777Y-7876674D01*
X1455777Y-7876674D02*
X1465301Y-7895722D01*
X1465301Y-7895722D02*
X1465301Y-8000484D01*
X1465301Y-7895722D02*
X1474824Y-7876674D01*
X1474824Y-7876674D02*
X1493872Y-7867150D01*
X1493872Y-7867150D02*
X1522443Y-7867150D01*
X1522443Y-7867150D02*
X1541491Y-7876674D01*
X1541491Y-7876674D02*
X1551015Y-7895722D01*
X1551015Y-7895722D02*
X1551015Y-8000484D01*
X1941491Y-7790960D02*
X1770063Y-8048103D01*
X2198634Y-7800484D02*
X2217682Y-7800484D01*
X2217682Y-7800484D02*
X2236729Y-7810008D01*
X2236729Y-7810008D02*
X2246253Y-7819531D01*
X2246253Y-7819531D02*
X2255777Y-7838579D01*
X2255777Y-7838579D02*
X2265301Y-7876674D01*
X2265301Y-7876674D02*
X2265301Y-7924293D01*
X2265301Y-7924293D02*
X2255777Y-7962388D01*
X2255777Y-7962388D02*
X2246253Y-7981436D01*
X2246253Y-7981436D02*
X2236729Y-7990960D01*
X2236729Y-7990960D02*
X2217682Y-8000484D01*
X2217682Y-8000484D02*
X2198634Y-8000484D01*
X2198634Y-8000484D02*
X2179587Y-7990960D01*
X2179587Y-7990960D02*
X2170063Y-7981436D01*
X2170063Y-7981436D02*
X2160539Y-7962388D01*
X2160539Y-7962388D02*
X2151015Y-7924293D01*
X2151015Y-7924293D02*
X2151015Y-7876674D01*
X2151015Y-7876674D02*
X2160539Y-7838579D01*
X2160539Y-7838579D02*
X2170063Y-7819531D01*
X2170063Y-7819531D02*
X2179587Y-7810008D01*
X2179587Y-7810008D02*
X2198634Y-7800484D01*
X2351015Y-7981436D02*
X2360539Y-7990960D01*
X2360539Y-7990960D02*
X2351015Y-8000484D01*
X2351015Y-8000484D02*
X2341491Y-7990960D01*
X2341491Y-7990960D02*
X2351015Y-7981436D01*
X2351015Y-7981436D02*
X2351015Y-8000484D01*
X2484348Y-7800484D02*
X2503396Y-7800484D01*
X2503396Y-7800484D02*
X2522444Y-7810008D01*
X2522444Y-7810008D02*
X2531968Y-7819531D01*
X2531968Y-7819531D02*
X2541491Y-7838579D01*
X2541491Y-7838579D02*
X2551015Y-7876674D01*
X2551015Y-7876674D02*
X2551015Y-7924293D01*
X2551015Y-7924293D02*
X2541491Y-7962388D01*
X2541491Y-7962388D02*
X2531968Y-7981436D01*
X2531968Y-7981436D02*
X2522444Y-7990960D01*
X2522444Y-7990960D02*
X2503396Y-8000484D01*
X2503396Y-8000484D02*
X2484348Y-8000484D01*
X2484348Y-8000484D02*
X2465301Y-7990960D01*
X2465301Y-7990960D02*
X2455777Y-7981436D01*
X2455777Y-7981436D02*
X2446253Y-7962388D01*
X2446253Y-7962388D02*
X2436729Y-7924293D01*
X2436729Y-7924293D02*
X2436729Y-7876674D01*
X2436729Y-7876674D02*
X2446253Y-7838579D01*
X2446253Y-7838579D02*
X2455777Y-7819531D01*
X2455777Y-7819531D02*
X2465301Y-7810008D01*
X2465301Y-7810008D02*
X2484348Y-7800484D01*
X2627206Y-7819531D02*
X2636729Y-7810008D01*
X2636729Y-7810008D02*
X2655777Y-7800484D01*
X2655777Y-7800484D02*
X2703396Y-7800484D01*
X2703396Y-7800484D02*
X2722444Y-7810008D01*
X2722444Y-7810008D02*
X2731968Y-7819531D01*
X2731968Y-7819531D02*
X2741491Y-7838579D01*
X2741491Y-7838579D02*
X2741491Y-7857627D01*
X2741491Y-7857627D02*
X2731968Y-7886198D01*
X2731968Y-7886198D02*
X2617682Y-8000484D01*
X2617682Y-8000484D02*
X2741491Y-8000484D01*
X2808158Y-7800484D02*
X2931967Y-7800484D01*
X2931967Y-7800484D02*
X2865301Y-7876674D01*
X2865301Y-7876674D02*
X2893872Y-7876674D01*
X2893872Y-7876674D02*
X2912920Y-7886198D01*
X2912920Y-7886198D02*
X2922444Y-7895722D01*
X2922444Y-7895722D02*
X2931967Y-7914769D01*
X2931967Y-7914769D02*
X2931967Y-7962388D01*
X2931967Y-7962388D02*
X2922444Y-7981436D01*
X2922444Y-7981436D02*
X2912920Y-7990960D01*
X2912920Y-7990960D02*
X2893872Y-8000484D01*
X2893872Y-8000484D02*
X2836729Y-8000484D01*
X2836729Y-8000484D02*
X2817682Y-7990960D01*
X2817682Y-7990960D02*
X2808158Y-7981436D01*
X3103396Y-7800484D02*
X3065301Y-7800484D01*
X3065301Y-7800484D02*
X3046253Y-7810008D01*
X3046253Y-7810008D02*
X3036729Y-7819531D01*
X3036729Y-7819531D02*
X3017682Y-7848103D01*
X3017682Y-7848103D02*
X3008158Y-7886198D01*
X3008158Y-7886198D02*
X3008158Y-7962388D01*
X3008158Y-7962388D02*
X3017682Y-7981436D01*
X3017682Y-7981436D02*
X3027206Y-7990960D01*
X3027206Y-7990960D02*
X3046253Y-8000484D01*
X3046253Y-8000484D02*
X3084348Y-8000484D01*
X3084348Y-8000484D02*
X3103396Y-7990960D01*
X3103396Y-7990960D02*
X3112920Y-7981436D01*
X3112920Y-7981436D02*
X3122444Y-7962388D01*
X3122444Y-7962388D02*
X3122444Y-7914769D01*
X3122444Y-7914769D02*
X3112920Y-7895722D01*
X3112920Y-7895722D02*
X3103396Y-7886198D01*
X3103396Y-7886198D02*
X3084348Y-7876674D01*
X3084348Y-7876674D02*
X3046253Y-7876674D01*
X3046253Y-7876674D02*
X3027206Y-7886198D01*
X3027206Y-7886198D02*
X3017682Y-7895722D01*
X3017682Y-7895722D02*
X3008158Y-7914769D01*
X3198634Y-7800484D02*
X3198634Y-7838579D01*
X3274825Y-7800484D02*
X3274825Y-7838579D01*
X3570063Y-8076674D02*
X3560539Y-8067150D01*
X3560539Y-8067150D02*
X3541491Y-8038579D01*
X3541491Y-8038579D02*
X3531968Y-8019531D01*
X3531968Y-8019531D02*
X3522444Y-7990960D01*
X3522444Y-7990960D02*
X3512920Y-7943341D01*
X3512920Y-7943341D02*
X3512920Y-7905246D01*
X3512920Y-7905246D02*
X3522444Y-7857627D01*
X3522444Y-7857627D02*
X3531968Y-7829055D01*
X3531968Y-7829055D02*
X3541491Y-7810008D01*
X3541491Y-7810008D02*
X3560539Y-7781436D01*
X3560539Y-7781436D02*
X3570063Y-7771912D01*
X3684348Y-7800484D02*
X3703396Y-7800484D01*
X3703396Y-7800484D02*
X3722444Y-7810008D01*
X3722444Y-7810008D02*
X3731968Y-7819531D01*
X3731968Y-7819531D02*
X3741491Y-7838579D01*
X3741491Y-7838579D02*
X3751015Y-7876674D01*
X3751015Y-7876674D02*
X3751015Y-7924293D01*
X3751015Y-7924293D02*
X3741491Y-7962388D01*
X3741491Y-7962388D02*
X3731968Y-7981436D01*
X3731968Y-7981436D02*
X3722444Y-7990960D01*
X3722444Y-7990960D02*
X3703396Y-8000484D01*
X3703396Y-8000484D02*
X3684348Y-8000484D01*
X3684348Y-8000484D02*
X3665301Y-7990960D01*
X3665301Y-7990960D02*
X3655777Y-7981436D01*
X3655777Y-7981436D02*
X3646253Y-7962388D01*
X3646253Y-7962388D02*
X3636729Y-7924293D01*
X3636729Y-7924293D02*
X3636729Y-7876674D01*
X3636729Y-7876674D02*
X3646253Y-7838579D01*
X3646253Y-7838579D02*
X3655777Y-7819531D01*
X3655777Y-7819531D02*
X3665301Y-7810008D01*
X3665301Y-7810008D02*
X3684348Y-7800484D01*
X3989110Y-8000484D02*
X3989110Y-7800484D01*
X4074825Y-8000484D02*
X4074825Y-7895722D01*
X4074825Y-7895722D02*
X4065301Y-7876674D01*
X4065301Y-7876674D02*
X4046253Y-7867150D01*
X4046253Y-7867150D02*
X4017682Y-7867150D01*
X4017682Y-7867150D02*
X3998634Y-7876674D01*
X3998634Y-7876674D02*
X3989110Y-7886198D01*
X4198634Y-8000484D02*
X4179587Y-7990960D01*
X4179587Y-7990960D02*
X4170063Y-7981436D01*
X4170063Y-7981436D02*
X4160539Y-7962388D01*
X4160539Y-7962388D02*
X4160539Y-7905246D01*
X4160539Y-7905246D02*
X4170063Y-7886198D01*
X4170063Y-7886198D02*
X4179587Y-7876674D01*
X4179587Y-7876674D02*
X4198634Y-7867150D01*
X4198634Y-7867150D02*
X4227206Y-7867150D01*
X4227206Y-7867150D02*
X4246253Y-7876674D01*
X4246253Y-7876674D02*
X4255777Y-7886198D01*
X4255777Y-7886198D02*
X4265301Y-7905246D01*
X4265301Y-7905246D02*
X4265301Y-7962388D01*
X4265301Y-7962388D02*
X4255777Y-7981436D01*
X4255777Y-7981436D02*
X4246253Y-7990960D01*
X4246253Y-7990960D02*
X4227206Y-8000484D01*
X4227206Y-8000484D02*
X4198634Y-8000484D01*
X4379587Y-8000484D02*
X4360539Y-7990960D01*
X4360539Y-7990960D02*
X4351015Y-7971912D01*
X4351015Y-7971912D02*
X4351015Y-7800484D01*
X4531968Y-7990960D02*
X4512920Y-8000484D01*
X4512920Y-8000484D02*
X4474825Y-8000484D01*
X4474825Y-8000484D02*
X4455777Y-7990960D01*
X4455777Y-7990960D02*
X4446253Y-7971912D01*
X4446253Y-7971912D02*
X4446253Y-7895722D01*
X4446253Y-7895722D02*
X4455777Y-7876674D01*
X4455777Y-7876674D02*
X4474825Y-7867150D01*
X4474825Y-7867150D02*
X4512920Y-7867150D01*
X4512920Y-7867150D02*
X4531968Y-7876674D01*
X4531968Y-7876674D02*
X4541492Y-7895722D01*
X4541492Y-7895722D02*
X4541492Y-7914769D01*
X4541492Y-7914769D02*
X4446253Y-7933817D01*
X4617682Y-7990960D02*
X4636730Y-8000484D01*
X4636730Y-8000484D02*
X4674825Y-8000484D01*
X4674825Y-8000484D02*
X4693873Y-7990960D01*
X4693873Y-7990960D02*
X4703396Y-7971912D01*
X4703396Y-7971912D02*
X4703396Y-7962388D01*
X4703396Y-7962388D02*
X4693873Y-7943341D01*
X4693873Y-7943341D02*
X4674825Y-7933817D01*
X4674825Y-7933817D02*
X4646253Y-7933817D01*
X4646253Y-7933817D02*
X4627206Y-7924293D01*
X4627206Y-7924293D02*
X4617682Y-7905246D01*
X4617682Y-7905246D02*
X4617682Y-7895722D01*
X4617682Y-7895722D02*
X4627206Y-7876674D01*
X4627206Y-7876674D02*
X4646253Y-7867150D01*
X4646253Y-7867150D02*
X4674825Y-7867150D01*
X4674825Y-7867150D02*
X4693873Y-7876674D01*
X4941492Y-7924293D02*
X5093873Y-7924293D01*
X5017682Y-8000484D02*
X5017682Y-7848103D01*
X5427206Y-7867150D02*
X5427206Y-8000484D01*
X5379587Y-7790960D02*
X5331968Y-7933817D01*
X5331968Y-7933817D02*
X5455777Y-7933817D01*
X5674825Y-7990960D02*
X5693873Y-8000484D01*
X5693873Y-8000484D02*
X5731968Y-8000484D01*
X5731968Y-8000484D02*
X5751015Y-7990960D01*
X5751015Y-7990960D02*
X5760539Y-7971912D01*
X5760539Y-7971912D02*
X5760539Y-7962388D01*
X5760539Y-7962388D02*
X5751015Y-7943341D01*
X5751015Y-7943341D02*
X5731968Y-7933817D01*
X5731968Y-7933817D02*
X5703396Y-7933817D01*
X5703396Y-7933817D02*
X5684349Y-7924293D01*
X5684349Y-7924293D02*
X5674825Y-7905246D01*
X5674825Y-7905246D02*
X5674825Y-7895722D01*
X5674825Y-7895722D02*
X5684349Y-7876674D01*
X5684349Y-7876674D02*
X5703396Y-7867150D01*
X5703396Y-7867150D02*
X5731968Y-7867150D01*
X5731968Y-7867150D02*
X5751015Y-7876674D01*
X5874825Y-8000484D02*
X5855777Y-7990960D01*
X5855777Y-7990960D02*
X5846254Y-7971912D01*
X5846254Y-7971912D02*
X5846254Y-7800484D01*
X5979587Y-8000484D02*
X5960539Y-7990960D01*
X5960539Y-7990960D02*
X5951015Y-7981436D01*
X5951015Y-7981436D02*
X5941492Y-7962388D01*
X5941492Y-7962388D02*
X5941492Y-7905246D01*
X5941492Y-7905246D02*
X5951015Y-7886198D01*
X5951015Y-7886198D02*
X5960539Y-7876674D01*
X5960539Y-7876674D02*
X5979587Y-7867150D01*
X5979587Y-7867150D02*
X6008158Y-7867150D01*
X6008158Y-7867150D02*
X6027206Y-7876674D01*
X6027206Y-7876674D02*
X6036730Y-7886198D01*
X6036730Y-7886198D02*
X6046254Y-7905246D01*
X6046254Y-7905246D02*
X6046254Y-7962388D01*
X6046254Y-7962388D02*
X6036730Y-7981436D01*
X6036730Y-7981436D02*
X6027206Y-7990960D01*
X6027206Y-7990960D02*
X6008158Y-8000484D01*
X6008158Y-8000484D02*
X5979587Y-8000484D01*
X6103396Y-7867150D02*
X6179587Y-7867150D01*
X6131968Y-7800484D02*
X6131968Y-7971912D01*
X6131968Y-7971912D02*
X6141492Y-7990960D01*
X6141492Y-7990960D02*
X6160539Y-8000484D01*
X6160539Y-8000484D02*
X6179587Y-8000484D01*
X6236730Y-7990960D02*
X6255777Y-8000484D01*
X6255777Y-8000484D02*
X6293873Y-8000484D01*
X6293873Y-8000484D02*
X6312920Y-7990960D01*
X6312920Y-7990960D02*
X6322444Y-7971912D01*
X6322444Y-7971912D02*
X6322444Y-7962388D01*
X6322444Y-7962388D02*
X6312920Y-7943341D01*
X6312920Y-7943341D02*
X6293873Y-7933817D01*
X6293873Y-7933817D02*
X6265301Y-7933817D01*
X6265301Y-7933817D02*
X6246254Y-7924293D01*
X6246254Y-7924293D02*
X6236730Y-7905246D01*
X6236730Y-7905246D02*
X6236730Y-7895722D01*
X6236730Y-7895722D02*
X6246254Y-7876674D01*
X6246254Y-7876674D02*
X6265301Y-7867150D01*
X6265301Y-7867150D02*
X6293873Y-7867150D01*
X6293873Y-7867150D02*
X6312920Y-7876674D01*
X6389111Y-8076674D02*
X6398635Y-8067150D01*
X6398635Y-8067150D02*
X6417682Y-8038579D01*
X6417682Y-8038579D02*
X6427206Y-8019531D01*
X6427206Y-8019531D02*
X6436730Y-7990960D01*
X6436730Y-7990960D02*
X6446254Y-7943341D01*
X6446254Y-7943341D02*
X6446254Y-7905246D01*
X6446254Y-7905246D02*
X6436730Y-7857627D01*
X6436730Y-7857627D02*
X6427206Y-7829055D01*
X6427206Y-7829055D02*
X6417682Y-7810008D01*
X6417682Y-7810008D02*
X6398635Y-7781436D01*
X6398635Y-7781436D02*
X6389111Y-7771912D01*
D10*
X-55000Y-8123000D02*
X-55000Y-8223000D01*
X-105000Y-8173000D02*
X-5000Y-8173000D01*
D11*
X360539Y-8264484D02*
X246253Y-8264484D01*
X303396Y-8264484D02*
X303396Y-8064484D01*
X303396Y-8064484D02*
X284348Y-8093055D01*
X284348Y-8093055D02*
X265301Y-8112103D01*
X265301Y-8112103D02*
X246253Y-8121627D01*
X446253Y-8245436D02*
X455777Y-8254960D01*
X455777Y-8254960D02*
X446253Y-8264484D01*
X446253Y-8264484D02*
X436729Y-8254960D01*
X436729Y-8254960D02*
X446253Y-8245436D01*
X446253Y-8245436D02*
X446253Y-8264484D01*
X579586Y-8064484D02*
X598634Y-8064484D01*
X598634Y-8064484D02*
X617682Y-8074008D01*
X617682Y-8074008D02*
X627205Y-8083531D01*
X627205Y-8083531D02*
X636729Y-8102579D01*
X636729Y-8102579D02*
X646253Y-8140674D01*
X646253Y-8140674D02*
X646253Y-8188293D01*
X646253Y-8188293D02*
X636729Y-8226388D01*
X636729Y-8226388D02*
X627205Y-8245436D01*
X627205Y-8245436D02*
X617682Y-8254960D01*
X617682Y-8254960D02*
X598634Y-8264484D01*
X598634Y-8264484D02*
X579586Y-8264484D01*
X579586Y-8264484D02*
X560539Y-8254960D01*
X560539Y-8254960D02*
X551015Y-8245436D01*
X551015Y-8245436D02*
X541491Y-8226388D01*
X541491Y-8226388D02*
X531967Y-8188293D01*
X531967Y-8188293D02*
X531967Y-8140674D01*
X531967Y-8140674D02*
X541491Y-8102579D01*
X541491Y-8102579D02*
X551015Y-8083531D01*
X551015Y-8083531D02*
X560539Y-8074008D01*
X560539Y-8074008D02*
X579586Y-8064484D01*
X770062Y-8064484D02*
X789110Y-8064484D01*
X789110Y-8064484D02*
X808158Y-8074008D01*
X808158Y-8074008D02*
X817682Y-8083531D01*
X817682Y-8083531D02*
X827205Y-8102579D01*
X827205Y-8102579D02*
X836729Y-8140674D01*
X836729Y-8140674D02*
X836729Y-8188293D01*
X836729Y-8188293D02*
X827205Y-8226388D01*
X827205Y-8226388D02*
X817682Y-8245436D01*
X817682Y-8245436D02*
X808158Y-8254960D01*
X808158Y-8254960D02*
X789110Y-8264484D01*
X789110Y-8264484D02*
X770062Y-8264484D01*
X770062Y-8264484D02*
X751015Y-8254960D01*
X751015Y-8254960D02*
X741491Y-8245436D01*
X741491Y-8245436D02*
X731967Y-8226388D01*
X731967Y-8226388D02*
X722443Y-8188293D01*
X722443Y-8188293D02*
X722443Y-8140674D01*
X722443Y-8140674D02*
X731967Y-8102579D01*
X731967Y-8102579D02*
X741491Y-8083531D01*
X741491Y-8083531D02*
X751015Y-8074008D01*
X751015Y-8074008D02*
X770062Y-8064484D01*
X960539Y-8064484D02*
X979586Y-8064484D01*
X979586Y-8064484D02*
X998634Y-8074008D01*
X998634Y-8074008D02*
X1008158Y-8083531D01*
X1008158Y-8083531D02*
X1017682Y-8102579D01*
X1017682Y-8102579D02*
X1027205Y-8140674D01*
X1027205Y-8140674D02*
X1027205Y-8188293D01*
X1027205Y-8188293D02*
X1017682Y-8226388D01*
X1017682Y-8226388D02*
X1008158Y-8245436D01*
X1008158Y-8245436D02*
X998634Y-8254960D01*
X998634Y-8254960D02*
X979586Y-8264484D01*
X979586Y-8264484D02*
X960539Y-8264484D01*
X960539Y-8264484D02*
X941491Y-8254960D01*
X941491Y-8254960D02*
X931967Y-8245436D01*
X931967Y-8245436D02*
X922443Y-8226388D01*
X922443Y-8226388D02*
X912920Y-8188293D01*
X912920Y-8188293D02*
X912920Y-8140674D01*
X912920Y-8140674D02*
X922443Y-8102579D01*
X922443Y-8102579D02*
X931967Y-8083531D01*
X931967Y-8083531D02*
X941491Y-8074008D01*
X941491Y-8074008D02*
X960539Y-8064484D01*
X1112920Y-8264484D02*
X1112920Y-8131150D01*
X1112920Y-8150198D02*
X1122444Y-8140674D01*
X1122444Y-8140674D02*
X1141491Y-8131150D01*
X1141491Y-8131150D02*
X1170063Y-8131150D01*
X1170063Y-8131150D02*
X1189110Y-8140674D01*
X1189110Y-8140674D02*
X1198634Y-8159722D01*
X1198634Y-8159722D02*
X1198634Y-8264484D01*
X1198634Y-8159722D02*
X1208158Y-8140674D01*
X1208158Y-8140674D02*
X1227205Y-8131150D01*
X1227205Y-8131150D02*
X1255777Y-8131150D01*
X1255777Y-8131150D02*
X1274825Y-8140674D01*
X1274825Y-8140674D02*
X1284348Y-8159722D01*
X1284348Y-8159722D02*
X1284348Y-8264484D01*
X1379586Y-8264484D02*
X1379586Y-8131150D01*
X1379586Y-8150198D02*
X1389110Y-8140674D01*
X1389110Y-8140674D02*
X1408158Y-8131150D01*
X1408158Y-8131150D02*
X1436729Y-8131150D01*
X1436729Y-8131150D02*
X1455777Y-8140674D01*
X1455777Y-8140674D02*
X1465301Y-8159722D01*
X1465301Y-8159722D02*
X1465301Y-8264484D01*
X1465301Y-8159722D02*
X1474824Y-8140674D01*
X1474824Y-8140674D02*
X1493872Y-8131150D01*
X1493872Y-8131150D02*
X1522443Y-8131150D01*
X1522443Y-8131150D02*
X1541491Y-8140674D01*
X1541491Y-8140674D02*
X1551015Y-8159722D01*
X1551015Y-8159722D02*
X1551015Y-8264484D01*
X1941491Y-8054960D02*
X1770063Y-8312103D01*
X2198634Y-8064484D02*
X2217682Y-8064484D01*
X2217682Y-8064484D02*
X2236729Y-8074008D01*
X2236729Y-8074008D02*
X2246253Y-8083531D01*
X2246253Y-8083531D02*
X2255777Y-8102579D01*
X2255777Y-8102579D02*
X2265301Y-8140674D01*
X2265301Y-8140674D02*
X2265301Y-8188293D01*
X2265301Y-8188293D02*
X2255777Y-8226388D01*
X2255777Y-8226388D02*
X2246253Y-8245436D01*
X2246253Y-8245436D02*
X2236729Y-8254960D01*
X2236729Y-8254960D02*
X2217682Y-8264484D01*
X2217682Y-8264484D02*
X2198634Y-8264484D01*
X2198634Y-8264484D02*
X2179587Y-8254960D01*
X2179587Y-8254960D02*
X2170063Y-8245436D01*
X2170063Y-8245436D02*
X2160539Y-8226388D01*
X2160539Y-8226388D02*
X2151015Y-8188293D01*
X2151015Y-8188293D02*
X2151015Y-8140674D01*
X2151015Y-8140674D02*
X2160539Y-8102579D01*
X2160539Y-8102579D02*
X2170063Y-8083531D01*
X2170063Y-8083531D02*
X2179587Y-8074008D01*
X2179587Y-8074008D02*
X2198634Y-8064484D01*
X2351015Y-8245436D02*
X2360539Y-8254960D01*
X2360539Y-8254960D02*
X2351015Y-8264484D01*
X2351015Y-8264484D02*
X2341491Y-8254960D01*
X2341491Y-8254960D02*
X2351015Y-8245436D01*
X2351015Y-8245436D02*
X2351015Y-8264484D01*
X2484348Y-8064484D02*
X2503396Y-8064484D01*
X2503396Y-8064484D02*
X2522444Y-8074008D01*
X2522444Y-8074008D02*
X2531968Y-8083531D01*
X2531968Y-8083531D02*
X2541491Y-8102579D01*
X2541491Y-8102579D02*
X2551015Y-8140674D01*
X2551015Y-8140674D02*
X2551015Y-8188293D01*
X2551015Y-8188293D02*
X2541491Y-8226388D01*
X2541491Y-8226388D02*
X2531968Y-8245436D01*
X2531968Y-8245436D02*
X2522444Y-8254960D01*
X2522444Y-8254960D02*
X2503396Y-8264484D01*
X2503396Y-8264484D02*
X2484348Y-8264484D01*
X2484348Y-8264484D02*
X2465301Y-8254960D01*
X2465301Y-8254960D02*
X2455777Y-8245436D01*
X2455777Y-8245436D02*
X2446253Y-8226388D01*
X2446253Y-8226388D02*
X2436729Y-8188293D01*
X2436729Y-8188293D02*
X2436729Y-8140674D01*
X2436729Y-8140674D02*
X2446253Y-8102579D01*
X2446253Y-8102579D02*
X2455777Y-8083531D01*
X2455777Y-8083531D02*
X2465301Y-8074008D01*
X2465301Y-8074008D02*
X2484348Y-8064484D01*
X2617682Y-8064484D02*
X2741491Y-8064484D01*
X2741491Y-8064484D02*
X2674825Y-8140674D01*
X2674825Y-8140674D02*
X2703396Y-8140674D01*
X2703396Y-8140674D02*
X2722444Y-8150198D01*
X2722444Y-8150198D02*
X2731968Y-8159722D01*
X2731968Y-8159722D02*
X2741491Y-8178769D01*
X2741491Y-8178769D02*
X2741491Y-8226388D01*
X2741491Y-8226388D02*
X2731968Y-8245436D01*
X2731968Y-8245436D02*
X2722444Y-8254960D01*
X2722444Y-8254960D02*
X2703396Y-8264484D01*
X2703396Y-8264484D02*
X2646253Y-8264484D01*
X2646253Y-8264484D02*
X2627206Y-8254960D01*
X2627206Y-8254960D02*
X2617682Y-8245436D01*
X2836729Y-8264484D02*
X2874825Y-8264484D01*
X2874825Y-8264484D02*
X2893872Y-8254960D01*
X2893872Y-8254960D02*
X2903396Y-8245436D01*
X2903396Y-8245436D02*
X2922444Y-8216865D01*
X2922444Y-8216865D02*
X2931967Y-8178769D01*
X2931967Y-8178769D02*
X2931967Y-8102579D01*
X2931967Y-8102579D02*
X2922444Y-8083531D01*
X2922444Y-8083531D02*
X2912920Y-8074008D01*
X2912920Y-8074008D02*
X2893872Y-8064484D01*
X2893872Y-8064484D02*
X2855777Y-8064484D01*
X2855777Y-8064484D02*
X2836729Y-8074008D01*
X2836729Y-8074008D02*
X2827206Y-8083531D01*
X2827206Y-8083531D02*
X2817682Y-8102579D01*
X2817682Y-8102579D02*
X2817682Y-8150198D01*
X2817682Y-8150198D02*
X2827206Y-8169246D01*
X2827206Y-8169246D02*
X2836729Y-8178769D01*
X2836729Y-8178769D02*
X2855777Y-8188293D01*
X2855777Y-8188293D02*
X2893872Y-8188293D01*
X2893872Y-8188293D02*
X2912920Y-8178769D01*
X2912920Y-8178769D02*
X2922444Y-8169246D01*
X2922444Y-8169246D02*
X2931967Y-8150198D01*
X3103396Y-8131150D02*
X3103396Y-8264484D01*
X3055777Y-8054960D02*
X3008158Y-8197817D01*
X3008158Y-8197817D02*
X3131967Y-8197817D01*
X3198634Y-8064484D02*
X3198634Y-8102579D01*
X3274825Y-8064484D02*
X3274825Y-8102579D01*
X3570063Y-8340674D02*
X3560539Y-8331150D01*
X3560539Y-8331150D02*
X3541491Y-8302579D01*
X3541491Y-8302579D02*
X3531968Y-8283531D01*
X3531968Y-8283531D02*
X3522444Y-8254960D01*
X3522444Y-8254960D02*
X3512920Y-8207341D01*
X3512920Y-8207341D02*
X3512920Y-8169246D01*
X3512920Y-8169246D02*
X3522444Y-8121627D01*
X3522444Y-8121627D02*
X3531968Y-8093055D01*
X3531968Y-8093055D02*
X3541491Y-8074008D01*
X3541491Y-8074008D02*
X3560539Y-8045436D01*
X3560539Y-8045436D02*
X3570063Y-8035912D01*
X3751015Y-8264484D02*
X3636729Y-8264484D01*
X3693872Y-8264484D02*
X3693872Y-8064484D01*
X3693872Y-8064484D02*
X3674825Y-8093055D01*
X3674825Y-8093055D02*
X3655777Y-8112103D01*
X3655777Y-8112103D02*
X3636729Y-8121627D01*
X3865301Y-8150198D02*
X3846253Y-8140674D01*
X3846253Y-8140674D02*
X3836729Y-8131150D01*
X3836729Y-8131150D02*
X3827206Y-8112103D01*
X3827206Y-8112103D02*
X3827206Y-8102579D01*
X3827206Y-8102579D02*
X3836729Y-8083531D01*
X3836729Y-8083531D02*
X3846253Y-8074008D01*
X3846253Y-8074008D02*
X3865301Y-8064484D01*
X3865301Y-8064484D02*
X3903396Y-8064484D01*
X3903396Y-8064484D02*
X3922444Y-8074008D01*
X3922444Y-8074008D02*
X3931968Y-8083531D01*
X3931968Y-8083531D02*
X3941491Y-8102579D01*
X3941491Y-8102579D02*
X3941491Y-8112103D01*
X3941491Y-8112103D02*
X3931968Y-8131150D01*
X3931968Y-8131150D02*
X3922444Y-8140674D01*
X3922444Y-8140674D02*
X3903396Y-8150198D01*
X3903396Y-8150198D02*
X3865301Y-8150198D01*
X3865301Y-8150198D02*
X3846253Y-8159722D01*
X3846253Y-8159722D02*
X3836729Y-8169246D01*
X3836729Y-8169246D02*
X3827206Y-8188293D01*
X3827206Y-8188293D02*
X3827206Y-8226388D01*
X3827206Y-8226388D02*
X3836729Y-8245436D01*
X3836729Y-8245436D02*
X3846253Y-8254960D01*
X3846253Y-8254960D02*
X3865301Y-8264484D01*
X3865301Y-8264484D02*
X3903396Y-8264484D01*
X3903396Y-8264484D02*
X3922444Y-8254960D01*
X3922444Y-8254960D02*
X3931968Y-8245436D01*
X3931968Y-8245436D02*
X3941491Y-8226388D01*
X3941491Y-8226388D02*
X3941491Y-8188293D01*
X3941491Y-8188293D02*
X3931968Y-8169246D01*
X3931968Y-8169246D02*
X3922444Y-8159722D01*
X3922444Y-8159722D02*
X3903396Y-8150198D01*
X4179587Y-8264484D02*
X4179587Y-8064484D01*
X4265301Y-8264484D02*
X4265301Y-8159722D01*
X4265301Y-8159722D02*
X4255777Y-8140674D01*
X4255777Y-8140674D02*
X4236730Y-8131150D01*
X4236730Y-8131150D02*
X4208158Y-8131150D01*
X4208158Y-8131150D02*
X4189110Y-8140674D01*
X4189110Y-8140674D02*
X4179587Y-8150198D01*
X4389111Y-8264484D02*
X4370063Y-8254960D01*
X4370063Y-8254960D02*
X4360539Y-8245436D01*
X4360539Y-8245436D02*
X4351015Y-8226388D01*
X4351015Y-8226388D02*
X4351015Y-8169246D01*
X4351015Y-8169246D02*
X4360539Y-8150198D01*
X4360539Y-8150198D02*
X4370063Y-8140674D01*
X4370063Y-8140674D02*
X4389111Y-8131150D01*
X4389111Y-8131150D02*
X4417682Y-8131150D01*
X4417682Y-8131150D02*
X4436730Y-8140674D01*
X4436730Y-8140674D02*
X4446253Y-8150198D01*
X4446253Y-8150198D02*
X4455777Y-8169246D01*
X4455777Y-8169246D02*
X4455777Y-8226388D01*
X4455777Y-8226388D02*
X4446253Y-8245436D01*
X4446253Y-8245436D02*
X4436730Y-8254960D01*
X4436730Y-8254960D02*
X4417682Y-8264484D01*
X4417682Y-8264484D02*
X4389111Y-8264484D01*
X4570063Y-8264484D02*
X4551015Y-8254960D01*
X4551015Y-8254960D02*
X4541492Y-8235912D01*
X4541492Y-8235912D02*
X4541492Y-8064484D01*
X4722444Y-8254960D02*
X4703396Y-8264484D01*
X4703396Y-8264484D02*
X4665301Y-8264484D01*
X4665301Y-8264484D02*
X4646253Y-8254960D01*
X4646253Y-8254960D02*
X4636730Y-8235912D01*
X4636730Y-8235912D02*
X4636730Y-8159722D01*
X4636730Y-8159722D02*
X4646253Y-8140674D01*
X4646253Y-8140674D02*
X4665301Y-8131150D01*
X4665301Y-8131150D02*
X4703396Y-8131150D01*
X4703396Y-8131150D02*
X4722444Y-8140674D01*
X4722444Y-8140674D02*
X4731968Y-8159722D01*
X4731968Y-8159722D02*
X4731968Y-8178769D01*
X4731968Y-8178769D02*
X4636730Y-8197817D01*
X4808158Y-8254960D02*
X4827206Y-8264484D01*
X4827206Y-8264484D02*
X4865301Y-8264484D01*
X4865301Y-8264484D02*
X4884349Y-8254960D01*
X4884349Y-8254960D02*
X4893873Y-8235912D01*
X4893873Y-8235912D02*
X4893873Y-8226388D01*
X4893873Y-8226388D02*
X4884349Y-8207341D01*
X4884349Y-8207341D02*
X4865301Y-8197817D01*
X4865301Y-8197817D02*
X4836730Y-8197817D01*
X4836730Y-8197817D02*
X4817682Y-8188293D01*
X4817682Y-8188293D02*
X4808158Y-8169246D01*
X4808158Y-8169246D02*
X4808158Y-8159722D01*
X4808158Y-8159722D02*
X4817682Y-8140674D01*
X4817682Y-8140674D02*
X4836730Y-8131150D01*
X4836730Y-8131150D02*
X4865301Y-8131150D01*
X4865301Y-8131150D02*
X4884349Y-8140674D01*
X4960539Y-8340674D02*
X4970063Y-8331150D01*
X4970063Y-8331150D02*
X4989111Y-8302579D01*
X4989111Y-8302579D02*
X4998634Y-8283531D01*
X4998634Y-8283531D02*
X5008158Y-8254960D01*
X5008158Y-8254960D02*
X5017682Y-8207341D01*
X5017682Y-8207341D02*
X5017682Y-8169246D01*
X5017682Y-8169246D02*
X5008158Y-8121627D01*
X5008158Y-8121627D02*
X4998634Y-8093055D01*
X4998634Y-8093055D02*
X4989111Y-8074008D01*
X4989111Y-8074008D02*
X4970063Y-8045436D01*
X4970063Y-8045436D02*
X4960539Y-8035912D01*
D12*
X-22573Y-8479427D02*
X-22573Y-8394573D01*
X-107427Y-8394573D01*
X-107427Y-8479427D01*
X-22573Y-8479427D01*
D11*
X360539Y-8528484D02*
X246253Y-8528484D01*
X303396Y-8528484D02*
X303396Y-8328484D01*
X303396Y-8328484D02*
X284348Y-8357055D01*
X284348Y-8357055D02*
X265301Y-8376103D01*
X265301Y-8376103D02*
X246253Y-8385627D01*
X446253Y-8509436D02*
X455777Y-8518960D01*
X455777Y-8518960D02*
X446253Y-8528484D01*
X446253Y-8528484D02*
X436729Y-8518960D01*
X436729Y-8518960D02*
X446253Y-8509436D01*
X446253Y-8509436D02*
X446253Y-8528484D01*
X531967Y-8347531D02*
X541491Y-8338008D01*
X541491Y-8338008D02*
X560539Y-8328484D01*
X560539Y-8328484D02*
X608158Y-8328484D01*
X608158Y-8328484D02*
X627205Y-8338008D01*
X627205Y-8338008D02*
X636729Y-8347531D01*
X636729Y-8347531D02*
X646253Y-8366579D01*
X646253Y-8366579D02*
X646253Y-8385627D01*
X646253Y-8385627D02*
X636729Y-8414198D01*
X636729Y-8414198D02*
X522443Y-8528484D01*
X522443Y-8528484D02*
X646253Y-8528484D01*
X770062Y-8328484D02*
X789110Y-8328484D01*
X789110Y-8328484D02*
X808158Y-8338008D01*
X808158Y-8338008D02*
X817682Y-8347531D01*
X817682Y-8347531D02*
X827205Y-8366579D01*
X827205Y-8366579D02*
X836729Y-8404674D01*
X836729Y-8404674D02*
X836729Y-8452293D01*
X836729Y-8452293D02*
X827205Y-8490389D01*
X827205Y-8490389D02*
X817682Y-8509436D01*
X817682Y-8509436D02*
X808158Y-8518960D01*
X808158Y-8518960D02*
X789110Y-8528484D01*
X789110Y-8528484D02*
X770062Y-8528484D01*
X770062Y-8528484D02*
X751015Y-8518960D01*
X751015Y-8518960D02*
X741491Y-8509436D01*
X741491Y-8509436D02*
X731967Y-8490389D01*
X731967Y-8490389D02*
X722443Y-8452293D01*
X722443Y-8452293D02*
X722443Y-8404674D01*
X722443Y-8404674D02*
X731967Y-8366579D01*
X731967Y-8366579D02*
X741491Y-8347531D01*
X741491Y-8347531D02*
X751015Y-8338008D01*
X751015Y-8338008D02*
X770062Y-8328484D01*
X960539Y-8328484D02*
X979586Y-8328484D01*
X979586Y-8328484D02*
X998634Y-8338008D01*
X998634Y-8338008D02*
X1008158Y-8347531D01*
X1008158Y-8347531D02*
X1017682Y-8366579D01*
X1017682Y-8366579D02*
X1027205Y-8404674D01*
X1027205Y-8404674D02*
X1027205Y-8452293D01*
X1027205Y-8452293D02*
X1017682Y-8490389D01*
X1017682Y-8490389D02*
X1008158Y-8509436D01*
X1008158Y-8509436D02*
X998634Y-8518960D01*
X998634Y-8518960D02*
X979586Y-8528484D01*
X979586Y-8528484D02*
X960539Y-8528484D01*
X960539Y-8528484D02*
X941491Y-8518960D01*
X941491Y-8518960D02*
X931967Y-8509436D01*
X931967Y-8509436D02*
X922443Y-8490389D01*
X922443Y-8490389D02*
X912920Y-8452293D01*
X912920Y-8452293D02*
X912920Y-8404674D01*
X912920Y-8404674D02*
X922443Y-8366579D01*
X922443Y-8366579D02*
X931967Y-8347531D01*
X931967Y-8347531D02*
X941491Y-8338008D01*
X941491Y-8338008D02*
X960539Y-8328484D01*
X1112920Y-8528484D02*
X1112920Y-8395150D01*
X1112920Y-8414198D02*
X1122444Y-8404674D01*
X1122444Y-8404674D02*
X1141491Y-8395150D01*
X1141491Y-8395150D02*
X1170063Y-8395150D01*
X1170063Y-8395150D02*
X1189110Y-8404674D01*
X1189110Y-8404674D02*
X1198634Y-8423722D01*
X1198634Y-8423722D02*
X1198634Y-8528484D01*
X1198634Y-8423722D02*
X1208158Y-8404674D01*
X1208158Y-8404674D02*
X1227205Y-8395150D01*
X1227205Y-8395150D02*
X1255777Y-8395150D01*
X1255777Y-8395150D02*
X1274825Y-8404674D01*
X1274825Y-8404674D02*
X1284348Y-8423722D01*
X1284348Y-8423722D02*
X1284348Y-8528484D01*
X1379586Y-8528484D02*
X1379586Y-8395150D01*
X1379586Y-8414198D02*
X1389110Y-8404674D01*
X1389110Y-8404674D02*
X1408158Y-8395150D01*
X1408158Y-8395150D02*
X1436729Y-8395150D01*
X1436729Y-8395150D02*
X1455777Y-8404674D01*
X1455777Y-8404674D02*
X1465301Y-8423722D01*
X1465301Y-8423722D02*
X1465301Y-8528484D01*
X1465301Y-8423722D02*
X1474824Y-8404674D01*
X1474824Y-8404674D02*
X1493872Y-8395150D01*
X1493872Y-8395150D02*
X1522443Y-8395150D01*
X1522443Y-8395150D02*
X1541491Y-8404674D01*
X1541491Y-8404674D02*
X1551015Y-8423722D01*
X1551015Y-8423722D02*
X1551015Y-8528484D01*
X1941491Y-8318960D02*
X1770063Y-8576103D01*
X2198634Y-8328484D02*
X2217682Y-8328484D01*
X2217682Y-8328484D02*
X2236729Y-8338008D01*
X2236729Y-8338008D02*
X2246253Y-8347531D01*
X2246253Y-8347531D02*
X2255777Y-8366579D01*
X2255777Y-8366579D02*
X2265301Y-8404674D01*
X2265301Y-8404674D02*
X2265301Y-8452293D01*
X2265301Y-8452293D02*
X2255777Y-8490389D01*
X2255777Y-8490389D02*
X2246253Y-8509436D01*
X2246253Y-8509436D02*
X2236729Y-8518960D01*
X2236729Y-8518960D02*
X2217682Y-8528484D01*
X2217682Y-8528484D02*
X2198634Y-8528484D01*
X2198634Y-8528484D02*
X2179587Y-8518960D01*
X2179587Y-8518960D02*
X2170063Y-8509436D01*
X2170063Y-8509436D02*
X2160539Y-8490389D01*
X2160539Y-8490389D02*
X2151015Y-8452293D01*
X2151015Y-8452293D02*
X2151015Y-8404674D01*
X2151015Y-8404674D02*
X2160539Y-8366579D01*
X2160539Y-8366579D02*
X2170063Y-8347531D01*
X2170063Y-8347531D02*
X2179587Y-8338008D01*
X2179587Y-8338008D02*
X2198634Y-8328484D01*
X2351015Y-8509436D02*
X2360539Y-8518960D01*
X2360539Y-8518960D02*
X2351015Y-8528484D01*
X2351015Y-8528484D02*
X2341491Y-8518960D01*
X2341491Y-8518960D02*
X2351015Y-8509436D01*
X2351015Y-8509436D02*
X2351015Y-8528484D01*
X2484348Y-8328484D02*
X2503396Y-8328484D01*
X2503396Y-8328484D02*
X2522444Y-8338008D01*
X2522444Y-8338008D02*
X2531968Y-8347531D01*
X2531968Y-8347531D02*
X2541491Y-8366579D01*
X2541491Y-8366579D02*
X2551015Y-8404674D01*
X2551015Y-8404674D02*
X2551015Y-8452293D01*
X2551015Y-8452293D02*
X2541491Y-8490389D01*
X2541491Y-8490389D02*
X2531968Y-8509436D01*
X2531968Y-8509436D02*
X2522444Y-8518960D01*
X2522444Y-8518960D02*
X2503396Y-8528484D01*
X2503396Y-8528484D02*
X2484348Y-8528484D01*
X2484348Y-8528484D02*
X2465301Y-8518960D01*
X2465301Y-8518960D02*
X2455777Y-8509436D01*
X2455777Y-8509436D02*
X2446253Y-8490389D01*
X2446253Y-8490389D02*
X2436729Y-8452293D01*
X2436729Y-8452293D02*
X2436729Y-8404674D01*
X2436729Y-8404674D02*
X2446253Y-8366579D01*
X2446253Y-8366579D02*
X2455777Y-8347531D01*
X2455777Y-8347531D02*
X2465301Y-8338008D01*
X2465301Y-8338008D02*
X2484348Y-8328484D01*
X2722444Y-8395150D02*
X2722444Y-8528484D01*
X2674825Y-8318960D02*
X2627206Y-8461817D01*
X2627206Y-8461817D02*
X2751015Y-8461817D01*
X2808158Y-8328484D02*
X2941491Y-8328484D01*
X2941491Y-8328484D02*
X2855777Y-8528484D01*
X3008158Y-8347531D02*
X3017682Y-8338008D01*
X3017682Y-8338008D02*
X3036729Y-8328484D01*
X3036729Y-8328484D02*
X3084348Y-8328484D01*
X3084348Y-8328484D02*
X3103396Y-8338008D01*
X3103396Y-8338008D02*
X3112920Y-8347531D01*
X3112920Y-8347531D02*
X3122444Y-8366579D01*
X3122444Y-8366579D02*
X3122444Y-8385627D01*
X3122444Y-8385627D02*
X3112920Y-8414198D01*
X3112920Y-8414198D02*
X2998634Y-8528484D01*
X2998634Y-8528484D02*
X3122444Y-8528484D01*
X3198634Y-8328484D02*
X3198634Y-8366579D01*
X3274825Y-8328484D02*
X3274825Y-8366579D01*
X3570063Y-8604674D02*
X3560539Y-8595150D01*
X3560539Y-8595150D02*
X3541491Y-8566579D01*
X3541491Y-8566579D02*
X3531968Y-8547531D01*
X3531968Y-8547531D02*
X3522444Y-8518960D01*
X3522444Y-8518960D02*
X3512920Y-8471341D01*
X3512920Y-8471341D02*
X3512920Y-8433246D01*
X3512920Y-8433246D02*
X3522444Y-8385627D01*
X3522444Y-8385627D02*
X3531968Y-8357055D01*
X3531968Y-8357055D02*
X3541491Y-8338008D01*
X3541491Y-8338008D02*
X3560539Y-8309436D01*
X3560539Y-8309436D02*
X3570063Y-8299912D01*
X3627206Y-8328484D02*
X3751015Y-8328484D01*
X3751015Y-8328484D02*
X3684348Y-8404674D01*
X3684348Y-8404674D02*
X3712920Y-8404674D01*
X3712920Y-8404674D02*
X3731968Y-8414198D01*
X3731968Y-8414198D02*
X3741491Y-8423722D01*
X3741491Y-8423722D02*
X3751015Y-8442770D01*
X3751015Y-8442770D02*
X3751015Y-8490389D01*
X3751015Y-8490389D02*
X3741491Y-8509436D01*
X3741491Y-8509436D02*
X3731968Y-8518960D01*
X3731968Y-8518960D02*
X3712920Y-8528484D01*
X3712920Y-8528484D02*
X3655777Y-8528484D01*
X3655777Y-8528484D02*
X3636729Y-8518960D01*
X3636729Y-8518960D02*
X3627206Y-8509436D01*
X3922444Y-8395150D02*
X3922444Y-8528484D01*
X3874825Y-8318960D02*
X3827206Y-8461817D01*
X3827206Y-8461817D02*
X3951015Y-8461817D01*
X4179587Y-8528484D02*
X4179587Y-8328484D01*
X4265301Y-8528484D02*
X4265301Y-8423722D01*
X4265301Y-8423722D02*
X4255777Y-8404674D01*
X4255777Y-8404674D02*
X4236730Y-8395150D01*
X4236730Y-8395150D02*
X4208158Y-8395150D01*
X4208158Y-8395150D02*
X4189110Y-8404674D01*
X4189110Y-8404674D02*
X4179587Y-8414198D01*
X4389111Y-8528484D02*
X4370063Y-8518960D01*
X4370063Y-8518960D02*
X4360539Y-8509436D01*
X4360539Y-8509436D02*
X4351015Y-8490389D01*
X4351015Y-8490389D02*
X4351015Y-8433246D01*
X4351015Y-8433246D02*
X4360539Y-8414198D01*
X4360539Y-8414198D02*
X4370063Y-8404674D01*
X4370063Y-8404674D02*
X4389111Y-8395150D01*
X4389111Y-8395150D02*
X4417682Y-8395150D01*
X4417682Y-8395150D02*
X4436730Y-8404674D01*
X4436730Y-8404674D02*
X4446253Y-8414198D01*
X4446253Y-8414198D02*
X4455777Y-8433246D01*
X4455777Y-8433246D02*
X4455777Y-8490389D01*
X4455777Y-8490389D02*
X4446253Y-8509436D01*
X4446253Y-8509436D02*
X4436730Y-8518960D01*
X4436730Y-8518960D02*
X4417682Y-8528484D01*
X4417682Y-8528484D02*
X4389111Y-8528484D01*
X4570063Y-8528484D02*
X4551015Y-8518960D01*
X4551015Y-8518960D02*
X4541492Y-8499912D01*
X4541492Y-8499912D02*
X4541492Y-8328484D01*
X4722444Y-8518960D02*
X4703396Y-8528484D01*
X4703396Y-8528484D02*
X4665301Y-8528484D01*
X4665301Y-8528484D02*
X4646253Y-8518960D01*
X4646253Y-8518960D02*
X4636730Y-8499912D01*
X4636730Y-8499912D02*
X4636730Y-8423722D01*
X4636730Y-8423722D02*
X4646253Y-8404674D01*
X4646253Y-8404674D02*
X4665301Y-8395150D01*
X4665301Y-8395150D02*
X4703396Y-8395150D01*
X4703396Y-8395150D02*
X4722444Y-8404674D01*
X4722444Y-8404674D02*
X4731968Y-8423722D01*
X4731968Y-8423722D02*
X4731968Y-8442770D01*
X4731968Y-8442770D02*
X4636730Y-8461817D01*
X4808158Y-8518960D02*
X4827206Y-8528484D01*
X4827206Y-8528484D02*
X4865301Y-8528484D01*
X4865301Y-8528484D02*
X4884349Y-8518960D01*
X4884349Y-8518960D02*
X4893873Y-8499912D01*
X4893873Y-8499912D02*
X4893873Y-8490389D01*
X4893873Y-8490389D02*
X4884349Y-8471341D01*
X4884349Y-8471341D02*
X4865301Y-8461817D01*
X4865301Y-8461817D02*
X4836730Y-8461817D01*
X4836730Y-8461817D02*
X4817682Y-8452293D01*
X4817682Y-8452293D02*
X4808158Y-8433246D01*
X4808158Y-8433246D02*
X4808158Y-8423722D01*
X4808158Y-8423722D02*
X4817682Y-8404674D01*
X4817682Y-8404674D02*
X4836730Y-8395150D01*
X4836730Y-8395150D02*
X4865301Y-8395150D01*
X4865301Y-8395150D02*
X4884349Y-8404674D01*
X4960539Y-8604674D02*
X4970063Y-8595150D01*
X4970063Y-8595150D02*
X4989111Y-8566579D01*
X4989111Y-8566579D02*
X4998634Y-8547531D01*
X4998634Y-8547531D02*
X5008158Y-8518960D01*
X5008158Y-8518960D02*
X5017682Y-8471341D01*
X5017682Y-8471341D02*
X5017682Y-8433246D01*
X5017682Y-8433246D02*
X5008158Y-8385627D01*
X5008158Y-8385627D02*
X4998634Y-8357055D01*
X4998634Y-8357055D02*
X4989111Y-8338008D01*
X4989111Y-8338008D02*
X4970063Y-8309436D01*
X4970063Y-8309436D02*
X4960539Y-8299912D01*
M02*
