M48
; DRILL file KiCad 10.0.3 date 2026-08-06T20:56:13
; FORMAT={-:-/ absolute / metric / decimal}
; #@! TF.CreationDate,2026-08-06T20:56:13+12:00
; #@! TF.GenerationSoftware,Kicad,Pcbnew,10.0.3
; #@! TF.FileFunction,Plated,1,2,PTH
FMAT,2
METRIC
; #@! TA.AperFunction,Plated,PTH,ViaDrill
T1C0.300
; #@! TA.AperFunction,Plated,PTH,ComponentDrill
T2C0.600
; #@! TA.AperFunction,Plated,PTH,ComponentDrill
T3C1.000
; #@! TA.AperFunction,Plated,PTH,ComponentDrill
T4C1.200
%
G90
G05
T1
X6.935Y-28.473
X7.385Y-27.74
X8.569Y-16.585
X8.842Y-36.594
X9.577Y-51.625
X11.029Y-58.977
X11.034Y-34.445
X12.336Y-30.203
X12.812Y-39.025
X13.42Y-41.654
X14.401Y-56.887
X14.483Y-42.989
X15.787Y-24.933
X15.884Y-37.312
X15.914Y-38.375
X15.963Y-39.675
X16.087Y-27.765
X16.765Y-40.004
X16.776Y-40.845
X17.168Y-41.625
X18.815Y-28.098
X19.216Y-56.659
X22.595Y-36.032
X22.995Y-49.84
X24.274Y-49.361
X24.588Y-36.045
X28.741Y-50.0
X29.948Y-36.778
X30.039Y-35.798
X30.847Y-40.0
X31.494Y-36.429
X38.883Y-36.045
X41.357Y-39.887
X41.56Y-31.0
X42.405Y-37.317
X44.048Y-33.771
X51.887Y-55.716
X55.233Y-33.593
X57.415Y-38.08
X58.192Y-10.015
X58.771Y-43.126
X58.8Y-55.38
X59.077Y-35.073
X59.903Y-38.959
X59.912Y-40.347
X59.985Y-11.055
X60.729Y-39.675
X60.834Y-40.925
X60.938Y-41.727
X61.34Y-42.87
X62.357Y-36.044
X65.617Y-38.92
X65.799Y-35.925
X66.099Y-31.581
X67.813Y-59.399
X67.885Y-10.987
X69.841Y-52.061
X70.607Y-53.123
X71.041Y-11.055
X71.08Y-51.46
X72.161Y-13.812
X72.75Y-50.0
X73.493Y-56.456
X73.566Y-36.204
X73.773Y-13.159
X74.028Y-36.876
X74.57Y-30.189
X75.159Y-37.306
X75.549Y-41.738
X75.902Y-18.03
X77.126Y-40.172
X77.721Y-33.186
X78.046Y-20.25
X79.137Y-39.027
X80.189Y-39.007
X80.414Y-17.864
X80.643Y-24.062
X80.78Y-19.452
X80.942Y-23.25
X81.316Y-28.273
X81.435Y-39.009
X81.818Y-34.13
X81.984Y-21.25
X82.691Y-43.955
X83.155Y-28.398
X83.316Y-19.61
X83.463Y-35.76
X84.476Y-16.412
X84.83Y-30.964
X84.911Y-12.361
X85.502Y-57.993
X85.794Y-15.939
X86.144Y-31.002
X86.692Y-37.525
X87.028Y-31.263
X87.25Y-28.376
X88.738Y-21.857
X88.838Y-27.742
X89.135Y-23.789
X89.37Y-27.124
X89.912Y-29.84
X90.228Y-38.747
X91.267Y-19.398
X91.653Y-18.364
X91.967Y-22.873
X93.639Y-22.011
X95.687Y-40.975
X95.688Y-39.675
X96.587Y-36.777
X97.896Y-53.28
X98.062Y-15.807
X98.746Y-50.156
X98.859Y-38.384
X99.038Y-19.898
X100.042Y-28.534
X102.565Y-43.278
X102.808Y-44.183
X102.879Y-25.25
X103.991Y-41.625
X104.269Y-45.652
X104.401Y-27.856
X104.47Y-42.755
X104.983Y-13.738
X105.796Y-57.997
X105.852Y-41.023
X106.442Y-23.67
X106.456Y-27.388
X106.475Y-30.256
X108.456Y-35.461
X108.576Y-32.407
X108.768Y-39.744
X108.998Y-40.861
X110.383Y-35.82
X111.819Y-35.946
X112.37Y-49.295
X112.49Y-25.699
X112.536Y-34.283
X112.594Y-35.532
X112.691Y-28.114
X113.682Y-14.097
X115.027Y-51.532
X115.655Y-57.786
X115.843Y-34.929
X116.057Y-37.341
X116.585Y-55.768
X117.924Y-56.752
X119.231Y-38.85
X119.527Y-43.07
X121.625Y-40.993
X124.165Y-39.049
X125.824Y-39.017
X126.307Y-40.99
X129.381Y-40.0
X130.319Y-19.975
X130.886Y-17.6
X130.9Y-22.415
T3
X29.6Y-15.6
X29.6Y-19.1
X29.6Y-22.6
X29.6Y-26.1
X56.5Y-30.0
X57.4Y-13.7
X57.4Y-16.24
X57.4Y-18.78
X57.4Y-21.32
X57.4Y-23.86
X57.4Y-26.4
X59.04Y-30.0
X61.58Y-30.0
X64.0Y-34.0
X66.54Y-34.0
X69.08Y-34.0
X71.62Y-34.0
X74.16Y-34.0
T4
X16.3Y-65.0
X19.8Y-65.0
X23.3Y-65.0
X26.8Y-65.0
X30.3Y-65.0
X33.0Y-5.0
X33.8Y-65.0
X36.5Y-5.0
X37.3Y-65.0
X48.0Y-5.0
X51.5Y-5.0
X60.3Y-65.0
X63.0Y-5.0
X63.8Y-65.0
X66.5Y-5.0
X67.3Y-65.0
X70.0Y-5.0
X70.8Y-65.0
X74.3Y-65.0
X77.8Y-65.0
X81.3Y-65.0
X81.5Y-5.0
X85.0Y-5.0
X88.5Y-5.0
X100.0Y-5.0
X103.5Y-5.0
X104.3Y-65.0
X107.0Y-5.0
X107.8Y-65.0
X111.3Y-65.0
X114.8Y-65.0
X118.3Y-65.0
X121.8Y-65.0
X125.3Y-65.0
T2
X132.145Y-15.68G85X133.245Y-15.68
G05
X132.145Y-24.32G85X133.245Y-24.32
G05
X136.575Y-15.68G85X137.175Y-15.68
G05
X136.575Y-24.32G85X137.175Y-24.32
G05
M30
